<svg width="228" height="78" viewBox="0 0 228 78" fill="none" xmlns="http://www.w3.org/2000/svg">
<path d="M216 0H12C5.37258 0 0 5.37258 0 12V66C0 72.6274 5.37258 78 12 78H216C222.627 78 228 72.6274 228 66V12C228 5.37258 222.627 0 216 0Z" fill="url(#paint0_linear)"/>
<mask id="mask0" mask-type="alpha" maskUnits="userSpaceOnUse" x="0" y="0" width="228" height="78">
<path d="M216 0H12C5.37258 0 0 5.37258 0 12V66C0 72.6274 5.37258 78 12 78H216C222.627 78 228 72.6274 228 66V12C228 5.37258 222.627 0 216 0Z" fill="#F29C1F"/>
</mask>
<g mask="url(#mask0)">
<path d="M193.8 74.7365C193.795 76.3841 193.989 78.0266 194.379 79.6312C209.084 82.0785 224.118 82.0785 238.823 79.6312C240.422 72.9446 238.655 65.9261 234.053 60.6748C220.512 45.1666 193.8 54.2663 193.8 74.7365Z" fill="#547580"/>
<path d="M184.675 21.7938H172.134C171.876 21.7953 171.642 21.643 171.541 21.4077C171.44 21.1723 171.492 20.9002 171.673 20.7177L175.26 17.1729C175.504 16.9268 175.504 16.5329 175.26 16.2867L171.673 12.742C171.492 12.5595 171.44 12.2873 171.541 12.052C171.642 11.8167 171.876 11.6644 172.134 11.6659H184.675V21.7938Z" fill="#26B99A"/>
<path d="M184.675 28.1238C183.967 28.1238 183.394 27.557 183.394 26.8578V11.666C183.394 10.9668 183.967 10.4 184.675 10.4C185.382 10.4 185.956 10.9668 185.956 11.666V26.8578C185.956 27.557 185.382 28.1238 184.675 28.1238Z" fill="#547580"/>
<path d="M221.093 48.2532C227.844 53.1652 232.878 60.2294 227.639 66.458C223.014 71.9271 216.776 71.5219 211.37 66.9264L214.329 62.736C215.791 64.213 217.722 65.1473 219.799 65.3819C221.345 65.2721 222.758 64.4761 223.642 63.2171C224.411 62.4119 224.748 61.2941 224.551 60.204C224.154 57.6847 220.542 54.1526 217.98 52.1777L221.093 48.2532Z" fill="#2C3E50"/>
<path d="M188.364 60.571C185.559 59.305 180.076 58.4188 173.787 62.3054L172.429 63.1156C171.511 63.6614 170.404 63.8036 169.375 63.508C168.346 63.2123 167.489 62.5057 167.01 61.5585L163.372 54.393C163.054 53.756 163.021 53.0161 163.282 52.354C163.543 51.6919 164.073 51.1685 164.743 50.9116C170.507 48.81 172.506 54.7095 172.506 54.7095C177.575 50.1741 184.6 48.4361 191.233 50.076L192.361 59.7734L188.364 60.571Z" fill="#E57E25"/>
<path d="M205.17 65.4451L208.078 66.8884C209.01 67.3496 210.091 67.4173 211.073 67.076C212.056 66.7347 212.857 66.0136 213.292 65.078L225.294 39.2646C225.723 38.3359 225.756 37.2756 225.385 36.3229C225.014 35.3702 224.27 34.6053 223.322 34.2006L217.98 31.9219L205.17 65.4451Z" fill="#35495E"/>
<path d="M201.327 34.4537L191.9 36.4287L188.057 28.9594C187.051 27.1955 184.822 26.5213 182.99 27.4268C181.158 28.3322 180.366 30.4988 181.191 32.3522L186.315 42.4801C186.972 43.7827 188.326 44.599 189.799 44.5816C191.136 44.4527 192.458 44.194 193.744 43.8094L201.327 34.4537Z" fill="#E57E25"/>
<path d="M217.749 36.5174C217.903 36.6186 217.327 36.1502 221.592 39.619C222.472 40.362 223.649 40.6612 224.782 40.4292C225.115 40.4292 225.691 40.1254 231.545 37.4542C233.396 36.5288 235.655 37.2213 236.651 39.019C237.647 40.8167 237.02 43.0711 235.235 44.1133L229.509 46.7085C225.391 48.9225 220.327 48.452 216.699 45.5185C213.919 48.5315 210.935 52.722 210.294 57.2415C209.551 62.3941 207.066 64.5463 205.17 65.4451C204.369 65.8301 203.498 66.0539 202.608 66.1034C202.608 66.1034 191.72 66.1034 188.518 74.9653L187.89 76.4085C187.465 77.3815 186.647 78.1346 185.635 78.4856C184.623 78.8366 183.509 78.7537 182.561 78.2569L175.388 74.4589C174.753 74.1281 174.288 73.5494 174.105 72.8636C173.923 72.1777 174.039 71.4476 174.427 70.8509C177.924 65.3945 183.394 69.9014 183.394 69.9014C184.675 62.3055 189.709 59.4823 189.709 59.4823C189.504 51.3927 194.154 41.8471 198.676 35.0868L217.749 36.5174Z" fill="#F29C1F"/>
<path d="M223.104 25.5918C223.104 33.2829 216.795 39.5177 209.013 39.5177C201.231 39.5177 194.923 33.2829 194.923 25.5918C194.923 17.9008 201.231 11.666 209.013 11.666C216.795 11.666 223.104 17.9008 223.104 25.5918Z" fill="#E57E25"/>
<path d="M223.104 24.3259C222.412 31.4705 216.34 36.9254 209.077 36.9254C201.815 36.9254 195.742 31.4705 195.051 24.3259C195.742 17.1812 201.815 11.7263 209.077 11.7263C216.34 11.7263 222.412 17.1812 223.104 24.3259Z" fill="#F29C1F"/>
<path d="M170.584 40.7837C169.877 40.7837 169.303 40.2169 169.303 39.5177V34.4537C169.303 33.7545 169.877 33.1877 170.584 33.1877C171.292 33.1877 171.865 33.7545 171.865 34.4537V39.5177C171.865 40.2169 171.292 40.7837 170.584 40.7837Z" fill="#F0C419"/>
<path d="M173.146 38.2516H168.022C167.315 38.2516 166.741 37.6848 166.741 36.9856C166.741 36.2864 167.315 35.7196 168.022 35.7196H173.146C173.854 35.7196 174.427 36.2864 174.427 36.9856C174.427 37.6848 173.854 38.2516 173.146 38.2516Z" fill="#F0C419"/>
<path d="M202.608 80.0294C201.901 80.0294 201.328 79.4626 201.328 78.7634V73.6994C201.328 73.0003 201.901 72.4333 202.608 72.4333C203.316 72.4333 203.889 73.0003 203.889 73.6994V78.7634C203.889 79.4626 203.316 80.0294 202.608 80.0294Z" fill="#F0C419"/>
<path d="M205.17 77.4972H200.047C199.339 77.4972 198.766 76.9304 198.766 76.2312C198.766 75.532 199.339 74.9652 200.047 74.9652H205.17C205.878 74.9652 206.451 75.532 206.451 76.2312C206.451 76.9304 205.878 77.4972 205.17 77.4972Z" fill="#F0C419"/>
<path d="M232.071 15.4639H226.947C226.239 15.4639 225.666 14.8971 225.666 14.1979C225.666 13.4987 226.239 12.9319 226.947 12.9319H232.071C232.778 12.9319 233.352 13.4987 233.352 14.1979C233.352 14.8971 232.778 15.4639 232.071 15.4639Z" fill="#F0C419"/>
<path d="M216.699 25.5918C216.699 33.1244 204.568 37.2135 196.703 32.3648C194.331 28.1536 194.331 23.0299 196.703 18.8187C204.466 13.9827 216.699 17.9958 216.699 25.5918Z" fill="#35495E"/>
<path d="M198.766 26.8579C198.058 26.8579 197.485 26.2911 197.485 25.5919C197.485 20.5279 202.506 19.262 205.17 19.262C205.878 19.262 206.451 19.8288 206.451 20.5279C206.451 21.2271 205.878 21.7939 205.17 21.7939C204.94 21.7939 200.047 21.8699 200.047 25.5919C200.047 26.2911 199.473 26.8579 198.766 26.8579Z" fill="#547580"/>
<path d="M216.699 25.5919C216.699 33.1245 204.568 37.2136 196.703 32.3649C195.917 30.986 195.379 29.4824 195.115 27.9213C199.829 29.9215 207.924 31.1116 215.149 21.2622C216.136 22.4964 216.681 24.019 216.699 25.5919Z" fill="#2C3E50"/>
<path d="M175.606 61.2925C174.671 61.7609 174.478 61.8875 172.429 63.1155C171.511 63.6613 170.404 63.8035 169.375 63.5078C168.346 63.2122 167.489 62.5055 167.01 61.5584L163.372 54.3929C163.054 53.7558 163.021 53.016 163.282 52.3539C163.543 51.6918 164.073 51.1684 164.743 50.9114C170.507 48.8099 172.506 54.7094 172.506 54.7094L175.606 61.2925Z" fill="#2C3E50"/>
<path d="M189.312 73.2308C188.864 74.0157 188.864 74.193 187.903 76.3705C187.478 77.3435 186.66 78.0965 185.648 78.4475C184.636 78.7986 183.522 78.7156 182.574 78.2188L175.401 74.4209C174.775 74.0917 174.315 73.521 174.131 72.8445C173.946 72.168 174.053 71.4462 174.427 70.8508C177.924 65.3944 183.394 69.9013 183.394 69.9013L189.312 73.2308Z" fill="#35495E"/>
</g>
<defs>
<linearGradient id="paint0_linear" x1="-1.69873e-06" y1="39" x2="228" y2="39" gradientUnits="userSpaceOnUse">
<stop offset="0.410218" stop-color="#0013D0" stop-opacity="0"/>
<stop offset="0.616264" stop-color="#0014D5" stop-opacity="0.191373"/>
<stop offset="0.719286" stop-color="#0014D9" stop-opacity="0.342456"/>
<stop offset="1" stop-color="#0015E9"/>
</linearGradient>
</defs>
</svg>
