<svg width="52" height="58" viewBox="0 0 52 58" fill="none" xmlns="http://www.w3.org/2000/svg">
<path d="M24.09 55.1304C24.0857 56.5114 24.2466 57.8882 24.5694 59.2333C37.0252 59.2333 28.9611 59.2333 41.4304 59.2333C55.9671 55.1304 51.562 48.0151 52.8835 42.2885C43.1924 34.3595 24.09 37.9717 24.09 55.1304Z" fill="#547580"/>
<path d="M18.3304 9.55047L7.94144 9.55046C7.72723 9.55172 7.53328 9.42405 7.44974 9.22681C7.3662 9.02956 7.40946 8.80143 7.55941 8.64845L10.5307 5.67714C10.733 5.47082 10.733 5.14063 10.5307 4.93431L7.55941 1.96299C7.40946 1.81002 7.3662 1.58189 7.44974 1.38464C7.53328 1.18739 7.72723 1.05973 7.94144 1.06098L18.3304 1.06097V9.55047Z" fill="#26B99A"/>
<path d="M18.3302 14.8566C17.7442 14.8566 17.269 14.3815 17.269 13.7954V1.06119C17.269 0.475109 17.7442 0 18.3302 0C18.9163 0 19.3914 0.475109 19.3914 1.06119V13.7954C19.3914 14.3815 18.9163 14.8566 18.3302 14.8566Z" fill="#547580"/>
<path d="M48.4997 31.7296C54.0922 35.847 58.2626 41.7684 53.9224 46.9894C50.0915 51.5737 44.9235 51.2341 40.4453 47.382L42.8967 43.8695C44.1073 45.1075 45.7075 45.8908 47.4279 46.0874C48.709 45.9953 49.8795 45.3281 50.6115 44.2728C51.2486 43.5978 51.5281 42.6608 51.3649 41.7471C51.0359 39.6354 48.0434 36.6747 45.921 35.0192L48.4997 31.7296Z" fill="#2C3E50"/>
<path d="M21.3864 42.0548C19.0624 40.9937 14.5205 40.2508 9.31011 43.5087L8.18526 44.1878C7.4247 44.6453 6.50769 44.7645 5.65545 44.5167C4.80321 44.2689 4.09311 43.6765 3.69644 42.8826L0.682679 36.8763C0.419046 36.3423 0.391885 35.7221 0.607826 35.1671C0.823767 34.6121 1.26294 34.1734 1.81815 33.958C6.59348 32.1964 8.24893 37.1416 8.24893 37.1416C12.4487 33.3398 18.2678 31.883 23.7634 33.2576L24.6973 41.3863L21.3864 42.0548Z" fill="#E57E25"/>
<path d="M35.3093 46.1404L37.7182 47.3502C38.4898 47.7367 39.3853 47.7935 40.1996 47.5074C41.0138 47.2213 41.677 46.6169 42.0372 45.8327L51.9805 24.1951C52.3359 23.4166 52.3629 22.5279 52.0554 21.7293C51.7479 20.9307 51.1319 20.2895 50.3463 19.9504L45.9212 18.0402L35.3093 46.1404Z" fill="#35495E"/>
<path d="M32.1257 20.1625L24.3154 21.8179L21.1319 15.5569C20.2988 14.0784 18.4524 13.5133 16.9345 14.2722C15.4167 15.0312 14.7609 16.8474 15.4439 18.4009L19.6886 26.8904C20.2336 27.9823 21.3548 28.6665 22.5751 28.652C23.6831 28.5439 24.7779 28.327 25.8435 28.0046L32.1257 20.1625Z" fill="#E57E25"/>
<path d="M45.7301 21.8923C45.8574 21.9771 45.3799 21.5845 48.9136 24.4922C49.642 25.115 50.6175 25.3657 51.556 25.1713C51.8319 25.1713 48.9531 26.7313 53.8027 24.4922C55.3356 23.7165 53.8587 27.2459 54.6837 28.7528C55.5088 30.2597 54.1846 30.987 54.2432 30.9553C50.8321 32.8111 47.8654 31.8962 44.8599 29.4373C42.5571 31.9629 40.0846 35.4754 39.554 39.2638C38.9385 43.5829 36.8798 45.3869 35.3092 46.1403C34.6453 46.4631 33.9239 46.6506 33.1868 46.6921C33.1868 46.6921 24.1668 46.6921 21.5138 54.1204L20.9938 55.3302C20.6414 56.1458 19.9641 56.777 19.1257 57.0712C18.2874 57.3655 17.3642 57.296 16.5793 56.8795L10.6367 53.696C10.1108 53.4187 9.72533 52.9336 9.57404 52.3587C9.42275 51.7838 9.51951 51.1718 9.84078 50.6716C12.7378 46.0979 17.2691 49.8757 17.2691 49.8757C18.3303 43.5086 22.5007 41.1421 22.5007 41.1421C22.3309 34.3612 26.183 26.3598 29.929 20.6931L45.7301 21.8923Z" fill="#F29C1F"/>
<path d="M50.1664 12.7341C50.1664 19.1809 44.9402 24.4071 38.4933 24.4071C32.0465 24.4071 26.8203 19.1809 26.8203 12.7341C26.8203 6.28723 32.0465 1.06104 38.4933 1.06104C44.9402 1.06104 50.1664 6.28723 50.1664 12.7341Z" fill="#E57E25"/>
<path d="M50.1657 11.6731C49.5928 17.6619 44.562 22.2344 38.5458 22.2344C32.5296 22.2344 27.4988 17.6619 26.9258 11.6731C27.4988 5.68422 32.5296 1.11176 38.5458 1.11176C44.562 1.11176 49.5928 5.68422 50.1657 11.6731V11.6731Z" fill="#F29C1F"/>
<path d="M6.65762 25.4684C6.07154 25.4684 5.59644 24.9933 5.59644 24.4072V20.1624C5.59644 19.5764 6.07154 19.1013 6.65762 19.1013C7.2437 19.1013 7.71881 19.5764 7.71881 20.1624V24.4072C7.71881 24.9933 7.2437 25.4684 6.65762 25.4684Z" fill="#F0C419"/>
<path d="M8.78005 23.3459H4.53531C3.94923 23.3459 3.47412 22.8708 3.47412 22.2848C3.47412 21.6987 3.94923 21.2236 4.53531 21.2236H8.78005C9.36612 21.2236 9.84123 21.6987 9.84123 22.2848C9.84123 22.8708 9.36612 23.3459 8.78005 23.3459Z" fill="#F0C419"/>
<path d="M33.1869 58.3652C32.6008 58.3652 32.1257 57.8901 32.1257 57.304V53.0593C32.1257 52.4732 32.6008 51.9981 33.1869 51.9981C33.773 51.9981 34.2481 52.4732 34.2481 53.0593V57.304C34.2481 57.8901 33.773 58.3652 33.1869 58.3652Z" fill="#F0C419"/>
<path d="M35.3093 56.2427H31.0646C30.4785 56.2427 30.0034 55.7676 30.0034 55.1815C30.0034 54.5955 30.4785 54.1204 31.0646 54.1204H35.3093C35.8954 54.1204 36.3705 54.5955 36.3705 55.1815C36.3705 55.7676 35.8954 56.2427 35.3093 56.2427Z" fill="#F0C419"/>
<path d="M44.8598 12.734C44.8598 19.0481 34.8104 22.4757 28.2947 18.4114C26.3298 14.8815 26.3298 10.5866 28.2947 7.0567C34.7255 3.00298 44.8598 6.36693 44.8598 12.734V12.734Z" fill="#35495E"/>
<path d="M30.0033 13.7955C29.4172 13.7955 28.9421 13.3203 28.9421 12.7343C28.9421 8.48953 33.102 7.42834 35.3092 7.42834C35.8953 7.42834 36.3704 7.90345 36.3704 8.48953C36.3704 9.07561 35.8953 9.55071 35.3092 9.55071C35.1182 9.55071 31.0645 9.61439 31.0645 12.7343C31.0645 13.3203 30.5894 13.7955 30.0033 13.7955Z" fill="#547580"/>
<path d="M44.8597 12.7342C44.8597 19.0483 34.8103 22.4759 28.2946 18.4116C27.6431 17.2558 27.1979 15.9954 26.9788 14.6868C30.8839 16.3635 37.5906 17.361 43.5757 9.10498C44.3931 10.1395 44.8447 11.4158 44.8597 12.7342V12.7342Z" fill="#2C3E50"/>
<path d="M10.817 42.6595C10.0423 43.0521 9.88315 43.1583 8.18526 44.1876C7.4247 44.6451 6.5077 44.7643 5.65546 44.5165C4.80321 44.2686 4.09311 43.6763 3.69644 42.8823L0.682679 36.876C0.419046 36.3421 0.391885 35.7219 0.607826 35.1669C0.823767 34.6119 1.26294 34.1732 1.81815 33.9578C6.59348 32.1962 8.24893 37.1413 8.24893 37.1413L10.817 42.6595Z" fill="#2C3E50"/>
<path d="M22.1721 52.6668C21.8007 53.3247 21.8007 53.4733 21.0048 55.2985C20.6523 56.1142 19.9751 56.7454 19.1367 57.0396C18.2983 57.3338 17.3751 57.2643 16.5903 56.8479L10.6476 53.6643C10.1291 53.3884 9.74817 52.91 9.59534 52.343C9.44251 51.7759 9.5315 51.1708 9.84113 50.6718C12.7382 46.0981 17.2694 49.8759 17.2694 49.8759L22.1721 52.6668Z" fill="#35495E"/>
</svg>
