<svg width="60" height="57" viewBox="0 0 40 38" fill="none" xmlns="http://www.w3.org/2000/svg">
<path d="M11.1507 29.7932C11.3863 29.7941 11.6064 29.6758 11.7358 29.4789C11.8652 29.282 11.8864 29.0331 11.7921 28.8172L7.66478 19.4539V11.1504C7.66478 10.7654 7.35264 10.4532 6.96759 10.4532C6.58254 10.4532 6.2704 10.7654 6.2704 11.1504C6.2704 20.3394 6.2704 19.684 6.32618 19.8792L10.5093 29.361C10.6163 29.6213 10.8693 29.7918 11.1507 29.7932Z" fill="#9FC9D3"/>
<path d="M2.78441 29.7932C3.06251 29.7942 3.31458 29.6298 3.42582 29.3749L7.60895 19.8792C7.69261 19.691 7.66473 20.4161 7.66473 11.1504C7.66473 10.7654 7.35259 10.4532 6.96754 10.4532C6.58249 10.4532 6.27035 10.7654 6.27035 11.1504V19.4539L2.14299 28.8172C2.04875 29.0331 2.06994 29.282 2.19933 29.4789C2.32872 29.6758 2.5488 29.7941 2.78441 29.7932Z" fill="#9FC9D3"/>
<path d="M37.9227 23.5324C38.6144 23.258 39.1082 22.6368 39.2195 21.901L40.8579 10.9621C41.0141 9.92339 40.3757 8.92993 39.3659 8.64049L34.4856 7.0509L34.8551 24.5573C35.9184 24.3525 36.9499 24.0079 37.9227 23.5324Z" fill="#2C3E50"/>
<path d="M30.3233 40.5161C25.1252 40.5161 20.9113 36.3022 20.9113 31.1041C20.9113 25.9059 25.1252 21.692 30.3233 21.692C35.5214 21.692 39.7354 25.9059 39.7354 31.1041C39.7354 36.3022 35.5214 40.5161 30.3233 40.5161Z" fill="#95A5A5"/>
<path d="M21.6086 27.5482C21.6086 29.2842 21.5249 29.8002 21.8526 30.4555C22.1285 31.0392 22.6263 31.4884 23.2352 31.7032C23.844 31.9179 24.5135 31.8804 25.0945 31.5989C25.941 31.1937 26.4822 30.3412 26.4889 29.4028V30.7553C26.4729 31.9266 27.2779 32.9496 28.4201 33.2094C29.1452 33.3668 29.9025 33.1848 30.4768 32.715C31.0511 32.2452 31.3797 31.5391 31.3692 30.7971V26.2724C31.3597 25.9442 31.5803 25.6539 31.8991 25.5752C35.4757 24.6898 35.134 24.7804 35.2804 24.7246C35.7333 24.5707 36.1309 24.287 36.4238 23.9089C34.1201 21.9567 31.02 21.2273 28.0874 21.9477C25.1549 22.6681 22.7456 24.7508 21.6086 27.5482Z" fill="#7F8C8D"/>
<path d="M32.0664 37.7273C30.9113 37.7273 29.9748 36.7909 29.9748 35.6358C29.9748 34.4806 30.9113 33.5442 32.0664 33.5442C33.2215 33.5442 34.158 34.4806 34.158 35.6358C34.158 36.7909 33.2215 37.7273 32.0664 37.7273Z" fill="#7F8C8D"/>
<path d="M21.6086 21.3433C21.6086 28.7544 21.518 28.6637 21.8527 29.3609C22.1273 29.9459 22.6245 30.3966 23.2335 30.6127C23.8425 30.8288 24.5127 30.7923 25.0946 30.5113C25.941 30.1061 26.4823 29.2536 26.489 28.3151V29.6398C26.4729 30.8111 27.278 31.8341 28.4202 32.0939C29.1404 32.2502 29.8927 32.0716 30.4659 31.6082C31.039 31.1448 31.3712 30.4466 31.3693 29.7095V25.1778C31.3597 24.8496 31.5804 24.5593 31.8991 24.4806C35.4339 23.63 35.1341 23.7137 35.2805 23.6579C36.2717 23.3153 36.9393 22.3851 36.9468 21.3363V13.716L25.9451 12.9352L22.2291 19.7188C21.8287 20.165 21.6077 20.7437 21.6086 21.3433Z" fill="#35495E"/>
<path d="M25.0944 21.6919V30.5114C25.9455 30.1114 26.4889 29.2556 26.4887 28.3152C26.4887 20.9738 26.3981 21.3433 26.7467 20.7786C26.9248 20.5665 26.9604 20.2691 26.8375 20.0209C26.7145 19.7727 26.4563 19.6208 26.1797 19.634C25.903 19.6471 25.6604 19.8227 25.5615 20.0814C25.2619 20.5657 25.1004 21.1226 25.0944 21.6919Z" fill="#2C3E50"/>
<path d="M27.186 14.8943C25.5267 18.5545 26.9908 19.0774 26.3215 20.5206C25.45 22.4309 21.0787 22.6121 22.3266 16.198C22.5567 14.9989 22.975 13.2768 23.9441 12.4471L27.186 14.8943Z" fill="#3F5C6C"/>
<path d="M26.4888 25.178C25.1432 23.6651 23.1911 21.5317 21.8455 20.2977C18.1853 16.9093 11.9733 12.1545 4.57615 10.537C3.86389 10.3374 3.43141 9.61643 3.5907 8.89409C3.74998 8.17176 4.44559 7.6995 5.17573 7.81799C11.5689 9.21237 19.1195 13.2142 26.2099 20.709C26.3085 20.7986 26.4016 20.8941 26.4888 20.9948V25.178Z" fill="#A56A43"/>
<path d="M6.96749 39.1217C3.50208 39.1217 0.692802 36.3124 0.692802 32.847C0.692802 29.3815 3.50208 26.5723 6.96749 26.5723C10.4329 26.5723 13.2422 29.3815 13.2422 32.847C13.2422 36.3124 10.4329 39.1217 6.96749 39.1217Z" fill="#95A5A5"/>
<path d="M9.40766 34.8548C8.44505 34.8548 7.66469 34.0745 7.66469 33.1119C7.66469 32.1493 8.44505 31.3689 9.40766 31.3689C10.3703 31.3689 11.1506 32.1493 11.1506 33.1119C11.1506 34.0745 10.3703 34.8548 9.40766 34.8548Z" fill="#7F8C8D"/>
<path d="M16.7283 8.44546C17.1134 8.44546 17.4255 8.13332 17.4255 7.74827V4.95952C17.4255 4.57447 17.1134 4.26233 16.7283 4.26233C16.3433 4.26233 16.0312 4.57447 16.0312 4.95952V7.74827C16.0312 8.13332 16.3433 8.44546 16.7283 8.44546Z" fill="#F0C419"/>
<path d="M15.3339 7.05111H18.1226C18.5077 7.05111 18.8198 6.73897 18.8198 6.35393C18.8198 5.96888 18.5077 5.65674 18.1226 5.65674H15.3339C14.9488 5.65674 14.6367 5.96888 14.6367 6.35393C14.6367 6.73897 14.9488 7.05111 15.3339 7.05111Z" fill="#F0C419"/>
<path d="M12.5452 23.0863C12.9303 23.0863 13.2424 22.7742 13.2424 22.3891V19.6004C13.2424 19.2153 12.9303 18.9032 12.5452 18.9032C12.1602 18.9032 11.8481 19.2153 11.8481 19.6004V22.3891C11.8481 22.7742 12.1602 23.0863 12.5452 23.0863Z" fill="#F0C419"/>
<path d="M11.1508 21.692H13.9395C14.3246 21.692 14.6367 21.3798 14.6367 20.9948C14.6367 20.6097 14.3246 20.2976 13.9395 20.2976H11.1508C10.7657 20.2976 10.4536 20.6097 10.4536 20.9948C10.4536 21.3798 10.7657 21.692 11.1508 21.692Z" fill="#F0C419"/>
<path d="M4.17879 4.26223C4.56383 4.26223 4.87598 3.95009 4.87598 3.56504V0.77629C4.87598 0.391243 4.56383 0.0791016 4.17879 0.0791016C3.79374 0.0791016 3.4816 0.391243 3.4816 0.77629V3.56504C3.4816 3.95009 3.79374 4.26223 4.17879 4.26223Z" fill="#F0C419"/>
<path d="M2.78457 2.86789H5.57332C5.95837 2.86789 6.27051 2.55575 6.27051 2.1707C6.27051 1.78565 5.95837 1.47351 5.57332 1.47351H2.78457C2.39952 1.47351 2.08738 1.78565 2.08738 2.1707C2.08738 2.55575 2.39952 2.86789 2.78457 2.86789Z" fill="#F0C419"/>
<path d="M22.25 35.9495C23.2379 37.5799 24.6963 38.8729 26.4332 39.6585C27.4574 38.5034 27.3513 36.7367 26.1961 35.7125C25.041 34.6882 23.2743 34.7944 22.25 35.9495Z" fill="#7F8C8D"/>
<path d="M34.855 29.7095C34.8563 30.8472 35.4734 31.8949 36.4677 32.4478C37.462 33.0007 38.6776 32.972 39.6447 32.3728C39.9214 30.3983 39.5573 28.3871 38.6059 26.6349C37.6848 26.4513 36.7298 26.6899 36.0034 27.2854C35.2771 27.8808 34.8556 28.7703 34.855 29.7095Z" fill="#7F8C8D"/>
<path d="M36.6398 11.5339C36.9117 11.9871 36.9048 12.1893 37.1069 13.4233C37.5603 16.1402 36.1888 18.835 33.7256 20.0675C29.1939 22.3264 29.2287 22.3892 28.5803 22.3892C27.8247 22.3885 27.1282 21.9804 26.7583 21.3215C26.3884 20.6626 26.4026 19.8554 26.7955 19.21C27.2138 18.5128 27.7367 18.3873 29.4658 17.5158L31.8501 16.3236C32.4475 16.0262 32.8671 15.4615 32.9796 14.8037L36.6398 11.5339Z" fill="#3F5C6C"/>
<path d="M37.6438 7.74817C37.6438 11.9837 34.2102 15.4172 29.9747 15.4172C25.7392 15.4172 22.3057 11.9837 22.3057 7.74817C22.3057 3.51266 25.7392 0.0791016 29.9747 0.0791016C34.2102 0.0791016 37.6438 3.51266 37.6438 7.74817Z" fill="#547580"/>
<path d="M23.2748 11.4782C26.1472 13.2769 30.4767 12.9213 32.7635 10.7461C36.1379 7.55996 33.0563 2.86788 27.5346 2.86788C26.0351 2.8465 24.5596 3.24496 23.2748 4.01824C21.9839 6.33735 21.9839 9.15906 23.2748 11.4782Z" fill="#F0C419"/>
<path d="M24.3974 8.44546C24.7825 8.44546 25.0946 8.13332 25.0946 7.74827C25.0946 5.65671 27.7718 5.65671 27.8834 5.65671C28.2684 5.65671 28.5806 5.34456 28.5806 4.95952C28.5806 4.57447 28.2684 4.26233 27.8834 4.26233C26.4332 4.26233 23.7002 4.99438 23.7002 7.74827C23.7002 8.13332 24.0124 8.44546 24.3974 8.44546Z" fill="#F9EAB0"/>
<path d="M22.5915 9.83963C22.7569 10.4163 22.991 10.9711 23.2886 11.492C25.3397 12.6854 27.7951 12.9708 30.0653 12.2798C33.614 11.2061 35.1269 8.16638 33.5513 5.71228C31.3342 8.29885 27.7785 10.753 22.5915 9.83963Z" fill="#F29C1F"/>
<path d="M0.74866 33.6486C0.991893 35.527 2.07057 37.195 3.68382 38.1873C4.78686 37.816 5.54328 36.7986 5.58127 35.6354C5.61926 34.4721 4.93084 33.4076 3.85438 32.9651C2.77792 32.5225 1.53983 32.795 0.74866 33.6486Z" fill="#7F8C8D"/>
<path d="M4.17878 27.5343C4.28184 28.5896 5.21377 29.3662 6.27035 29.2773C7.85994 29.2773 8.87783 27.8829 8.09001 26.6698C6.7737 26.4309 5.4155 26.619 4.21364 27.2066C4.19342 27.3148 4.18177 27.4243 4.17878 27.5343Z" fill="#7F8C8D"/>
</svg>
