<svg width="50" height="59" viewBox="0 0 50 59" fill="none" xmlns="http://www.w3.org/2000/svg">
<path d="M49.2201 58.7331H0.94654C0.42378 58.7331 0 57.3539 0 55.6527C0 53.9514 0.42378 52.5723 0.94654 52.5723H49.2201C49.7428 52.5723 50.1666 53.9514 50.1666 55.6527C50.1666 57.3539 49.7428 58.7331 49.2201 58.7331Z" fill="#F9AB11"/>
<path d="M18.1327 31.0329L17.3843 25.4244L19.4852 21.7185L32.1088 23.5219C32.9586 24.9466 33.7263 26.4188 34.4081 27.9311L18.1327 31.0329Z" fill="#C6C6C6"/>
<path d="M27.9518 24.3243C31.0382 24.3242 33.9776 23.0062 36.0306 20.7017C38.0836 18.3972 39.0548 15.3257 38.6999 12.2598L38.1228 7.26446C37.6996 3.60759 34.5905 0.856118 30.9093 0.880532H20.3686C16.7081 0.883701 13.6302 3.62817 13.2093 7.26446L12.6232 12.2598C12.1511 16.3403 14.0303 20.3362 17.4742 22.5751C21.6851 24.4957 20.4678 24.3243 27.9518 24.3243Z" fill="white"/>
<path d="M23.3808 20.7177C21.3258 20.7133 19.3703 19.8327 18.0049 18.2969C16.6396 16.7611 15.9941 14.7159 16.2304 12.6746L16.8075 7.67929C17.0175 5.86455 18.5513 4.49347 20.3781 4.48732H30.9639C32.8045 4.47512 34.359 5.85085 34.5707 7.67929L35.1658 12.6746C35.4034 14.7269 34.7497 16.7825 33.3703 18.3206C31.9909 19.8586 30.0182 20.7314 27.9523 20.7177H23.3808Z" fill="#35495E"/>
<path d="M21.1806 8.09427C20.801 8.08661 20.4669 7.84209 20.3449 7.48264C20.2229 7.12319 20.339 6.7258 20.6355 6.48867C20.9319 6.25153 21.3451 6.22544 21.669 6.4234C21.9929 6.62136 22.1581 7.00097 22.0822 7.37292C21.9952 7.79953 21.6158 8.10305 21.1806 8.09427V8.09427Z" fill="white"/>
<path d="M30.1971 8.09426H24.7869C24.289 8.09426 23.8853 7.69057 23.8853 7.19258C23.8853 6.69459 24.289 6.29089 24.7869 6.29089H30.1971C30.695 6.29089 31.0987 6.69459 31.0987 7.19258C31.0987 7.69057 30.695 8.09426 30.1971 8.09426Z" fill="white"/>
<path d="M24.1381 44.1615C23.7289 46.3605 23.5836 48.6005 23.7052 50.834C23.7684 51.8653 23.0996 52.7996 22.1029 53.0722C21.1063 53.3448 20.0551 52.881 19.5845 51.9611C18.3836 49.4977 17.557 46.8689 17.132 44.1615H24.1381Z" fill="white"/>
<path d="M34.2638 44.1615C33.8357 46.8716 32.9996 49.5013 31.7841 51.9611C31.3115 52.9105 30.2247 53.3826 29.2083 53.0801C28.1918 52.7776 27.54 51.7881 27.6634 50.7348C27.799 48.5346 27.6566 46.3261 27.2396 44.1615H34.2638Z" fill="white"/>
<path d="M36.969 27.9312C37.467 27.9312 37.8707 27.5275 37.8707 27.0295V24.3244C37.8711 23.9705 38.0786 23.6496 38.4011 23.5039C38.7236 23.3582 39.1016 23.4146 39.3675 23.6482L50.8189 34.7299C51.1831 35.0709 51.3897 35.5475 51.3897 36.0464C51.3897 36.5452 51.1831 37.0218 50.8189 37.3628L39.3675 48.4445C39.1016 48.6781 38.7236 48.7345 38.4011 48.5888C38.0786 48.4431 37.8711 48.1222 37.8707 47.7683V45.0632C37.8707 44.5652 37.467 44.1615 36.969 44.1615H4.50833C3.51235 44.1615 2.70496 43.3541 2.70496 42.3581V29.7346C2.70496 28.7386 3.51235 27.9312 4.50833 27.9312H36.969Z" fill="#180F4A"/>
<path d="M9.91871 37.8495C8.56095 37.8629 7.40368 36.8676 7.21365 35.5232L6.31197 29.2114C6.13593 27.9751 6.829 26.779 7.9891 26.317L17.006 22.7102C18.3953 22.155 19.9718 22.8312 20.527 24.2206C21.0823 25.6099 20.4061 27.1864 19.0167 27.7416L11.9745 30.5549L12.6238 34.7658C12.7341 35.5462 12.4987 36.3359 11.9789 36.9284C11.4592 37.5209 10.7068 37.8573 9.91871 37.8495V37.8495Z" fill="#EFEFEF"/>
<path d="M46.8875 8.99568C46.3895 8.99568 45.9858 8.59198 45.9858 8.094V4.48726C45.9858 3.98927 46.3895 3.58557 46.8875 3.58557C47.3855 3.58557 47.7892 3.98927 47.7892 4.48726V8.094C47.7892 8.59198 47.3855 8.99568 46.8875 8.99568Z" fill="#F0C419"/>
<path d="M48.6908 7.19223H45.0841C44.5861 7.19223 44.1824 6.78853 44.1824 6.29054C44.1824 5.79255 44.5861 5.38885 45.0841 5.38885H48.6908C49.1888 5.38885 49.5925 5.79255 49.5925 6.29054C49.5925 6.78853 49.1888 7.19223 48.6908 7.19223Z" fill="#F0C419"/>
<path d="M5.40986 18.0126C4.91188 18.0126 4.50818 17.6089 4.50818 17.1109V13.5042C4.50818 13.0062 4.91188 12.6025 5.40986 12.6025C5.90785 12.6025 6.31155 13.0062 6.31155 13.5042V17.1109C6.31155 17.6089 5.90785 18.0126 5.40986 18.0126Z" fill="#F0C419"/>
<path d="M7.21338 16.2092H3.60664C3.10865 16.2092 2.70496 15.8055 2.70496 15.3075C2.70496 14.8095 3.10865 14.4058 3.60664 14.4058H7.21338C7.71137 14.4058 8.11507 14.8095 8.11507 15.3075C8.11507 15.8055 7.71137 16.2092 7.21338 16.2092Z" fill="#F0C419"/>
<path d="M10.8199 41.4563H7.21321C6.71522 41.4563 6.31152 41.0526 6.31152 40.5546C6.31152 40.0567 6.71522 39.653 7.21321 39.653H10.8199C11.3179 39.653 11.7216 40.0567 11.7216 40.5546C11.7216 41.0526 11.3179 41.4563 10.8199 41.4563Z" fill="#894B9D"/>
<path d="M36.9689 41.4563H15.3284C14.8305 41.4563 14.4268 41.0526 14.4268 40.5546C14.4268 40.0567 14.8305 39.653 15.3284 39.653H36.9689C37.4669 39.653 37.8706 40.0567 37.8706 40.5546C37.8706 41.0526 37.4669 41.4563 36.9689 41.4563Z" fill="#894B9D"/>
</svg>
