<svg width="137" height="136" viewBox="0 0 137 136" fill="none" xmlns="http://www.w3.org/2000/svg">
<rect width="136" height="136" rx="12" fill="url(#paint0_linear)"/>
<mask id="mask0" mask-type="alpha" maskUnits="userSpaceOnUse" x="0" y="0" width="137" height="136">
<rect x="0.222412" width="136" height="136" rx="12" fill="#F29C1F"/>
</mask>
<g mask="url(#mask0)">
<path d="M127.169 107.332L123.777 125.985L103.429 127.68L102.802 105.636C104.497 105.026 105.532 105.297 110.33 105.772C110.853 105.785 111.352 105.556 111.684 105.152C112.015 104.747 112.141 104.213 112.026 103.703L110.873 98.616C110.435 96.8569 110.719 94.9955 111.662 93.4471C112.605 91.8988 114.128 90.7924 115.892 90.3748C117.614 89.9881 119.419 90.3091 120.901 91.2656C122.384 92.2222 123.42 93.7341 123.777 95.462L126.321 106.806L127.169 107.332Z" fill="#ECF0F1"/>
<path d="M125.829 114.725L123.777 125.985L103.429 127.681L102.802 105.636C103.81 105.295 104.885 105.197 105.939 105.348L110.687 119.762C124.744 114.81 124.167 114.912 125.829 114.725Z" fill="#BDC3C7"/>
<path d="M124.71 99.515C111.721 102.601 112.026 102.567 111.857 102.567L111.127 99.1758C124.303 96.0557 123.811 96.1405 123.981 96.1405L124.71 99.515Z" fill="#BDC3C7"/>
<path d="M137.343 126.137L143.516 118.575L133.341 109.859C130.678 107.529 127.176 106.392 123.652 106.712C120.128 107.032 116.888 108.782 114.689 111.554L107.431 120.406L137.343 126.137Z" fill="#BDC3C7"/>
<path d="M98.0705 96.4627L80.1977 102.482C72.039 103.979 64.0425 99.1667 61.5449 91.2569C58.8317 82.9649 57.95 81.0826 57.95 77.1825C57.9442 69.3079 62.8841 62.2779 70.2947 59.6149L76.535 57.4444C81.1344 55.8852 86.1685 56.2479 90.4969 58.4504C94.8253 60.6529 98.0818 64.5088 99.5288 69.1448L104.277 83.5923C106.075 88.8577 103.311 94.5914 98.0705 96.4627V96.4627Z" fill="#BDC3C7"/>
<path d="M104.463 84.2366C104.172 88.2462 101.547 91.7083 97.7653 93.0713L79.8925 99.0911C71.7338 100.588 63.7373 95.7753 61.2396 87.8655C59.9251 84.3753 58.8265 80.8075 57.95 77.1825C57.9442 69.3079 62.8841 62.2779 70.2947 59.6149L76.535 57.4444C81.1344 55.8852 86.1685 56.2479 90.4969 58.4504C94.8253 60.6529 98.0818 64.5088 99.5288 69.1448C103.632 81.6252 104.362 83.7957 104.463 84.2366V84.2366Z" fill="#ECF0F1"/>
<path d="M104.802 86.9836C104.633 86.9836 104.802 86.9836 95.9508 90.0529C93.4328 90.8911 90.6832 90.678 88.3244 89.4619C85.9656 88.2458 84.1971 86.1295 83.4195 83.5922L80.7741 75.5715C80.1762 73.8115 81.1064 71.8982 82.8599 71.2813L98.1213 65.9568C98.6726 66.9509 99.1269 67.9957 99.4779 69.0769C104.633 84.6944 104.836 84.7114 104.802 86.9836V86.9836Z" fill="#F29C1F"/>
<path d="M75.0766 89.8493C72.9348 89.8525 71.0303 88.4873 70.3455 86.4579L69.2942 83.236C68.402 80.601 69.7919 77.738 72.4143 76.8093L73.9744 76.2836C74.8264 76.0652 75.704 76.5346 75.9954 77.3645C76.2867 78.1945 75.8951 79.1094 75.0935 79.4716L73.5335 80.0142C72.6534 80.3329 72.198 81.3044 72.516 82.1847L73.5674 85.2879C73.688 85.7 73.9714 86.0452 74.3523 86.2436C74.7331 86.442 75.1784 86.4765 75.5853 86.3392L77.1453 85.7966C78.0183 85.5318 78.9444 86.0051 79.2411 86.8678C79.5377 87.7305 79.0987 88.6733 78.2475 89.0015C77.2509 89.4745 76.1763 89.7619 75.0766 89.8493V89.8493Z" fill="#BDC3C7"/>
<path d="M80.1639 102.669L62.1384 108.926C58.6451 110.173 56.8018 113.996 58.0009 117.506L64.3259 136.769C64.8536 138.454 66.0377 139.855 67.6108 140.656C69.1838 141.457 71.0132 141.59 72.6858 141.026L78.926 138.855L80.1639 102.669Z" fill="#547580"/>
<path d="M141.515 138.618L125.88 144.027L123.777 137.617C123.513 136.773 122.921 136.071 122.132 135.668C121.344 135.266 120.428 135.199 119.589 135.481L94.5942 144.146C88.8483 146.099 82.5151 143.82 79.3328 138.652C78.1289 136.736 78.3154 136.837 72.6517 119.592C70.3638 112.837 73.6478 105.457 80.1976 102.635L98.0026 96.4794C98.4342 96.3298 98.9079 96.3606 99.3164 96.5649C99.725 96.7692 100.034 97.1296 100.173 97.5647L106.956 118.337C107.242 119.197 107.86 119.907 108.672 120.308C109.484 120.71 110.423 120.769 111.28 120.474C123.404 116.268 119.945 117.557 120.522 117.269C126.902 115.12 133.873 118.155 136.648 124.289C137.19 125.307 136.919 124.611 141.515 138.618V138.618Z" fill="#ECF0F1"/>
<path d="M137.818 127.375C133.375 128.919 132.307 129.461 130.475 129.461C126.887 129.423 123.725 127.094 122.624 123.679C121.641 120.677 120.539 117.456 120.539 117.286C121.633 116.907 122.774 116.679 123.93 116.608L125.846 122.594C126.231 123.85 127.107 124.898 128.276 125.498C129.445 126.099 130.807 126.201 132.052 125.781L136.648 124.289C137.114 125.288 137.505 126.319 137.818 127.375V127.375Z" fill="#95A5A5"/>
<path d="M120.386 64.9393C119.449 64.9393 118.69 64.1801 118.69 63.2436V56.4607C118.69 55.5242 119.449 54.765 120.386 54.765C121.322 54.765 122.082 55.5242 122.082 56.4607V63.2436C122.082 64.1801 121.322 64.9393 120.386 64.9393Z" fill="#F0C419"/>
<path d="M123.777 61.5479H116.995C116.058 61.5479 115.299 60.7887 115.299 59.8522C115.299 58.9157 116.058 58.1565 116.995 58.1565H123.777C124.714 58.1565 125.473 58.9157 125.473 59.8522C125.473 60.7887 124.714 61.5479 123.777 61.5479Z" fill="#F0C419"/>
<path d="M108.516 127.901C107.899 129.555 106.639 130.889 105.022 131.598C103.406 132.307 101.571 132.332 99.9359 131.666L85.7767 125.815C83.5026 124.845 81.9367 122.714 81.6901 120.254L79.9943 104.738C79.5938 101.074 82.1914 97.7615 85.8446 97.2766C87.6284 97.0631 89.4226 97.5808 90.8186 98.7116C92.2146 99.8424 93.0934 101.49 93.2548 103.279L94.4418 114.776L104.887 119.083C108.307 120.533 109.925 124.464 108.516 127.901V127.901Z" fill="#BDC3C7"/>
<path d="M103.582 118.575C103.582 118.744 102.208 121.457 97.7143 130.767L94.5942 129.478C94.5942 129.308 95.9508 126.629 100.461 117.286L103.582 118.575Z" fill="#95A5A5"/>
<path d="M95.7983 115.353C95.5609 115.811 95.6626 115.658 90.7959 118.914C90.0243 119.328 89.0645 119.086 88.5809 118.356C88.0972 117.626 88.2488 116.648 88.9307 116.099C93.6278 112.962 93.6278 112.877 94.1704 112.843L94.3739 114.776L95.7983 115.353Z" fill="#95A5A5"/>
<path d="M104.802 86.9835C104.633 86.9835 104.802 86.9835 95.9509 90.0528C91.8184 91.4553 87.2569 89.9464 84.7761 86.3561C91.5037 83.5147 97.0524 78.4508 100.495 72.0104C104.616 84.6265 104.836 84.7452 104.802 86.9835Z" fill="#E57E25"/>
<path d="M88.6084 79.98C88.0273 79.9783 87.4876 79.6793 87.1781 79.1875C86.8685 78.6957 86.8324 78.0797 87.0823 77.5551L88.1675 75.4016C88.3648 74.9962 88.7153 74.6861 89.1417 74.5397C89.568 74.3934 90.0351 74.4228 90.4398 74.6215C91.2174 75.0478 91.5353 76.0014 91.1689 76.809L90.1345 78.9626C89.869 79.5713 89.2725 79.969 88.6084 79.98Z" fill="#F3D55B"/>
<path d="M92.2881 85.8643C91.707 85.8626 91.1673 85.5636 90.8577 85.0718C90.5482 84.58 90.5121 83.964 90.7619 83.4394L93.8651 76.9957C94.1181 76.4329 94.6568 76.0519 95.2718 76.0009C95.8868 75.95 96.4809 76.2371 96.823 76.7507C97.1651 77.2642 97.2013 77.9231 96.9174 78.471L93.8142 84.8977C93.5338 85.4866 92.9404 85.8624 92.2881 85.8643Z" fill="#F3D55B"/>
</g>
<defs>
<linearGradient id="paint0_linear" x1="0" y1="68" x2="136" y2="68" gradientUnits="userSpaceOnUse">
<stop offset="0.438464" stop-color="#382728" stop-opacity="0"/>
<stop offset="0.677083" stop-color="#55412F" stop-opacity="0.239437"/>
<stop offset="1" stop-color="#9A8245"/>
</linearGradient>
</defs>
</svg>
