<svg width="228" height="78" viewBox="0 0 228 78" fill="none" xmlns="http://www.w3.org/2000/svg">
<path d="M216 0H12C5.37258 0 0 5.37258 0 12V66C0 72.6274 5.37258 78 12 78H216C222.627 78 228 72.6274 228 66V12C228 5.37258 222.627 0 216 0Z" fill="url(#paint0_linear)"/>
<mask id="mask0" mask-type="alpha" maskUnits="userSpaceOnUse" x="0" y="0" width="228" height="78">
<path d="M216 0H12C5.37258 0 0 5.37258 0 12V66C0 72.6274 5.37258 78 12 78H216C222.627 78 228 72.6274 228 66V12C228 5.37258 222.627 0 216 0Z" fill="#F29C1F"/>
</mask>
<g mask="url(#mask0)">
<path d="M177.207 64.9036C177.623 64.9051 178.012 64.6985 178.241 64.3546C178.469 64.0107 178.507 63.5759 178.34 63.1987L171.045 46.8432V32.3389C171.045 31.6663 170.494 31.1211 169.813 31.1211C169.133 31.1211 168.581 31.6663 168.581 32.3389C168.581 48.3899 168.581 47.2451 168.68 47.5861L176.073 64.1486C176.262 64.6033 176.709 64.9012 177.207 64.9036Z" fill="#9FC9D3"/>
<path d="M162.42 64.9036C162.911 64.9053 163.357 64.6182 163.553 64.1729L170.947 47.5861C171.095 47.2573 171.046 48.5238 171.046 32.3389C171.046 31.6663 170.494 31.1211 169.813 31.1211C169.133 31.1211 168.581 31.6663 168.581 32.3389V46.8432L161.286 63.1987C161.12 63.5759 161.157 64.0107 161.386 64.3546C161.614 64.6985 162.003 64.9051 162.42 64.9036Z" fill="#9FC9D3"/>
<path d="M224.525 53.9675C225.747 53.4882 226.62 52.403 226.817 51.1178L229.712 32.0101C229.989 30.1957 228.86 28.4603 227.075 27.9547L218.45 25.1781L219.103 55.7577C220.982 55.4001 222.805 54.7981 224.525 53.9675Z" fill="#2C3E50"/>
<path d="M211.093 83.634C201.906 83.634 194.458 76.2733 194.458 67.1934C194.458 58.1134 201.906 50.7527 211.093 50.7527C220.281 50.7527 227.729 58.1134 227.729 67.1934C227.729 76.2733 220.281 83.634 211.093 83.634Z" fill="#95A5A5"/>
<path d="M195.69 60.9823C195.69 64.0147 195.542 64.9159 196.122 66.0606C196.609 67.0803 197.489 67.8649 198.565 68.24C199.641 68.6151 200.825 68.5496 201.851 68.0579C203.348 67.35 204.304 65.861 204.316 64.2217V66.5843C204.288 68.6302 205.711 70.4172 207.729 70.8711C209.011 71.146 210.349 70.828 211.364 70.0074C212.379 69.1868 212.96 67.9533 212.942 66.6574V58.7537C212.925 58.1804 213.315 57.6732 213.878 57.5359C220.2 55.9892 219.596 56.1475 219.855 56.0501C220.655 55.7812 221.358 55.2857 221.875 54.6252C217.804 51.2151 212.324 49.9411 207.141 51.1995C201.958 52.4578 197.7 56.0958 195.69 60.9823Z" fill="#7F8C8D"/>
<path d="M214.174 78.7628C212.132 78.7628 210.477 77.1271 210.477 75.1093C210.477 73.0915 212.132 71.4558 214.174 71.4558C216.216 71.4558 217.871 73.0915 217.871 75.1093C217.871 77.1271 216.216 78.7628 214.174 78.7628Z" fill="#7F8C8D"/>
<path d="M195.69 50.1435C195.69 63.089 195.53 62.9307 196.122 64.1486C196.607 65.1703 197.486 65.9577 198.562 66.3352C199.639 66.7126 200.823 66.6488 201.852 66.158C203.348 65.4501 204.304 63.9611 204.316 62.3218V64.6357C204.288 66.6816 205.711 68.4686 207.729 68.9224C209.002 69.1954 210.332 68.8834 211.345 68.074C212.358 67.2645 212.945 66.0449 212.942 64.7575V56.8416C212.925 56.2684 213.315 55.7612 213.878 55.6238C220.126 54.138 219.596 54.2842 219.855 54.1867C221.606 53.5882 222.786 51.9633 222.8 50.1314V36.8205L203.355 35.4565L196.787 47.306C196.079 48.0854 195.689 49.0963 195.69 50.1435Z" fill="#35495E"/>
<path d="M201.851 50.7527V66.1582C203.356 65.4596 204.316 63.9647 204.316 62.322C204.316 49.4983 204.156 50.1438 204.772 49.1573C205.087 48.7868 205.15 48.2673 204.932 47.8337C204.715 47.4002 204.259 47.1349 203.77 47.1579C203.281 47.1808 202.852 47.4876 202.677 47.9395C202.148 48.7853 201.862 49.7581 201.851 50.7527Z" fill="#2C3E50"/>
<path d="M205.548 38.8788C202.615 45.2724 205.203 46.1858 204.02 48.7067C202.48 52.0435 194.754 52.3603 196.959 41.1562C197.366 39.0615 198.105 36.0535 199.818 34.6042L205.548 38.8788Z" fill="#3F5C6C"/>
<path d="M204.316 56.842C201.938 54.1993 198.487 50.4728 196.109 48.3172C189.64 42.3986 178.661 34.093 165.587 31.2676C164.328 30.919 163.563 29.6596 163.845 28.3978C164.126 27.136 165.356 26.3111 166.646 26.5181C177.946 28.9537 191.291 35.9441 203.823 49.0357C203.997 49.1923 204.162 49.359 204.316 49.535V56.842Z" fill="#A56A43"/>
<path d="M169.813 81.1982C163.688 81.1982 158.723 76.2911 158.723 70.2378C158.723 64.1845 163.688 59.2773 169.813 59.2773C175.938 59.2773 180.903 64.1845 180.903 70.2378C180.903 76.2911 175.938 81.1982 169.813 81.1982Z" fill="#95A5A5"/>
<path d="M174.126 73.7453C172.425 73.7453 171.046 72.3822 171.046 70.7007C171.046 69.0192 172.425 67.6561 174.126 67.6561C175.827 67.6561 177.207 69.0192 177.207 70.7007C177.207 72.3822 175.827 73.7453 174.126 73.7453Z" fill="#7F8C8D"/>
<path d="M187.065 27.614C187.745 27.614 188.297 27.0687 188.297 26.3961V21.5248C188.297 20.8522 187.745 20.307 187.065 20.307C186.384 20.307 185.832 20.8522 185.832 21.5248V26.3961C185.832 27.0687 186.384 27.614 187.065 27.614Z" fill="#F0C419"/>
<path d="M184.6 25.1785H189.529C190.21 25.1785 190.761 24.6332 190.761 23.9606C190.761 23.288 190.21 22.7428 189.529 22.7428H184.6C183.92 22.7428 183.368 23.288 183.368 23.9606C183.368 24.6332 183.92 25.1785 184.6 25.1785Z" fill="#F0C419"/>
<path d="M179.671 53.1884C180.352 53.1884 180.903 52.6432 180.903 51.9706V47.0993C180.903 46.4267 180.352 45.8815 179.671 45.8815C178.991 45.8815 178.439 46.4267 178.439 47.0993V51.9706C178.439 52.6432 178.991 53.1884 179.671 53.1884Z" fill="#F0C419"/>
<path d="M177.207 50.7527H182.136C182.816 50.7527 183.368 50.2074 183.368 49.5348C183.368 48.8623 182.816 48.317 182.136 48.317H177.207C176.526 48.317 175.974 48.8623 175.974 49.5348C175.974 50.2074 176.526 50.7527 177.207 50.7527Z" fill="#F0C419"/>
<path d="M164.884 20.307C165.565 20.307 166.117 19.7617 166.117 19.0891V14.2178C166.117 13.5452 165.565 13 164.884 13C164.204 13 163.652 13.5452 163.652 14.2178V19.0891C163.652 19.7617 164.204 20.307 164.884 20.307Z" fill="#F0C419"/>
<path d="M162.42 17.8712H167.349C168.029 17.8712 168.581 17.326 168.581 16.6534C168.581 15.9808 168.029 15.4355 167.349 15.4355H162.42C161.739 15.4355 161.188 15.9808 161.188 16.6534C161.188 17.326 161.739 17.8712 162.42 17.8712Z" fill="#F0C419"/>
<path d="M196.824 75.6574C198.57 78.5052 201.148 80.7639 204.217 82.1362C206.028 80.1184 205.84 77.0324 203.798 75.2433C201.757 73.4542 198.634 73.6396 196.824 75.6574Z" fill="#7F8C8D"/>
<path d="M219.103 64.7576C219.105 66.7448 220.196 68.575 221.953 69.5407C223.711 70.5064 225.859 70.4563 227.568 69.4097C228.057 65.9607 227.414 62.4476 225.732 59.387C224.104 59.0662 222.417 59.483 221.133 60.5231C219.849 61.5632 219.104 63.117 219.103 64.7576Z" fill="#7F8C8D"/>
<path d="M222.257 33.0089C222.738 33.8005 222.726 34.1537 223.083 36.3092C223.884 41.0549 221.46 45.7622 217.107 47.9151C209.097 51.8609 209.159 51.9705 208.013 51.9705C206.677 51.9694 205.446 51.2564 204.792 50.1055C204.138 48.9546 204.164 47.5446 204.858 46.4172C205.597 45.1994 206.522 44.9802 209.578 43.4579L213.792 41.3754C214.848 40.8558 215.589 39.8695 215.788 38.7205L222.257 33.0089Z" fill="#3F5C6C"/>
<path d="M224.032 26.3961C224.032 33.7946 217.963 39.7922 210.477 39.7922C202.991 39.7922 196.923 33.7946 196.923 26.3961C196.923 18.9976 202.991 13 210.477 13C217.963 13 224.032 18.9976 224.032 26.3961Z" fill="#547580"/>
<path d="M198.635 32.9115C203.712 36.0535 211.364 35.4324 215.406 31.6328C221.37 26.0673 215.924 17.8713 206.164 17.8713C203.514 17.8339 200.906 18.53 198.635 19.8807C196.354 23.9317 196.354 28.8605 198.635 32.9115Z" fill="#F0C419"/>
<path d="M200.619 27.614C201.3 27.614 201.851 27.0687 201.851 26.3961C201.851 22.7427 206.583 22.7427 206.78 22.7427C207.461 22.7427 208.013 22.1974 208.013 21.5248C208.013 20.8522 207.461 20.307 206.78 20.307C204.217 20.307 199.387 21.5857 199.387 26.3961C199.387 27.0687 199.939 27.614 200.619 27.614Z" fill="#F9EAB0"/>
<path d="M197.428 30.0495C197.72 31.0568 198.134 32.0258 198.66 32.9358C202.285 35.0204 206.625 35.519 210.637 34.3119C216.909 32.4364 219.583 27.1267 216.799 22.84C212.88 27.3581 206.596 31.6449 197.428 30.0495Z" fill="#F29C1F"/>
<path d="M158.822 71.6382C159.252 74.9193 161.158 77.8329 164.009 79.5663C165.959 78.9176 167.296 77.1406 167.363 75.1086C167.43 73.0767 166.213 71.2172 164.311 70.4442C162.408 69.6712 160.22 70.1472 158.822 71.6382Z" fill="#7F8C8D"/>
<path d="M164.884 60.958C165.066 62.8013 166.714 64.1579 168.581 64.0025C171.391 64.0025 173.19 61.5669 171.797 59.4479C169.471 59.0306 167.07 59.3592 164.946 60.3856C164.91 60.5745 164.89 60.7659 164.884 60.958Z" fill="#7F8C8D"/>
</g>
<defs>
<linearGradient id="paint0_linear" x1="-1.69873e-06" y1="39" x2="228" y2="39" gradientUnits="userSpaceOnUse">
<stop offset="0.265625" stop-color="#620C51" stop-opacity="0"/>
<stop offset="0.546875" stop-color="#620C51" stop-opacity="0.204724"/>
<stop offset="0.921875" stop-color="#620C51"/>
</linearGradient>
</defs>
</svg>
