<svg width="228" height="78" viewBox="0 0 228 78" fill="none" xmlns="http://www.w3.org/2000/svg">
<path d="M216 0H12C5.37258 0 0 5.37258 0 12V66C0 72.6274 5.37258 78 12 78H216C222.627 78 228 72.6274 228 66V12C228 5.37258 222.627 0 216 0Z" fill="url(#paint0_linear)"/>
<mask id="mask0" mask-type="alpha" maskUnits="userSpaceOnUse" x="0" y="0" width="228" height="78">
<path d="M216 0H12C5.37258 0 0 5.37258 0 12V66C0 72.6274 5.37258 78 12 78H216C222.627 78 228 72.6274 228 66V12C228 5.37258 222.627 0 216 0Z" fill="#F29C1F"/>
</mask>
<g mask="url(#mask0)">
<path d="M191.484 48.3977L190.639 42.136L193.012 37.9984L207.273 40.0118C208.233 41.6025 209.1 43.2462 209.87 44.9346L191.484 48.3977Z" fill="#C6C6C6"/>
<path d="M202.577 40.9078C206.064 40.9077 209.384 39.4361 211.704 36.8632C214.023 34.2903 215.12 30.861 214.719 27.4381L214.067 21.8609C213.589 17.7781 210.077 14.7062 205.918 14.7335H194.011C189.875 14.737 186.398 17.8011 185.923 21.8609L185.261 27.4381C184.727 31.9938 186.85 36.4552 190.741 38.9548C195.498 41.0991 194.123 40.9078 202.577 40.9078Z" fill="white"/>
<path d="M197.413 36.8809C195.091 36.8761 192.882 35.8929 191.34 34.1783C189.797 32.4636 189.068 30.1802 189.335 27.9011L189.987 22.324C190.224 20.2979 191.957 18.7671 194.021 18.7602H205.979C208.059 18.7466 209.815 20.2826 210.054 22.324L210.726 27.9011C210.995 30.1924 210.256 32.4875 208.698 34.2047C207.139 35.9218 204.911 36.8962 202.577 36.8809H197.413Z" fill="#35495E"/>
<path d="M194.927 22.7873C194.499 22.7787 194.121 22.5057 193.983 22.1044C193.845 21.7031 193.977 21.2594 194.312 20.9947C194.646 20.7299 195.113 20.7008 195.479 20.9218C195.845 21.1428 196.032 21.5666 195.946 21.9819C195.848 22.4582 195.419 22.7971 194.927 22.7873Z" fill="white"/>
<path d="M205.114 22.7872H199.002C198.439 22.7872 197.983 22.3365 197.983 21.7805C197.983 21.2245 198.439 20.7738 199.002 20.7738H205.114C205.676 20.7738 206.132 21.2245 206.132 21.7805C206.132 22.3365 205.676 22.7872 205.114 22.7872Z" fill="white"/>
<path d="M198.268 63.0554C197.806 65.5106 197.642 68.0115 197.779 70.505C197.851 71.6565 197.095 72.6996 195.969 73.0039C194.843 73.3083 193.656 72.7905 193.124 71.7634C191.768 69.0131 190.834 66.0781 190.354 63.0554H198.268Z" fill="white"/>
<path d="M209.708 63.0554C209.224 66.0812 208.279 69.0171 206.906 71.7634C206.372 72.8234 205.145 73.3505 203.996 73.0128C202.848 72.6751 202.112 71.5703 202.251 70.3943C202.404 67.9378 202.244 65.4721 201.772 63.0554H209.708Z" fill="white"/>
<path d="M212.763 44.9346C213.326 44.9346 213.782 44.4839 213.782 43.9279V40.9078C213.782 40.5127 214.017 40.1543 214.381 39.9917C214.746 39.829 215.172 39.892 215.473 40.1528L228.409 52.5252C228.821 52.9058 229.054 53.438 229.054 53.995C229.054 54.552 228.821 55.0841 228.409 55.4647L215.473 67.8372C215.172 68.0979 214.746 68.161 214.381 67.9983C214.017 67.8356 213.782 67.4773 213.782 67.0821V64.062C213.782 63.506 213.326 63.0553 212.763 63.0553H176.093C174.968 63.0553 174.056 62.1539 174.056 61.0419V46.948C174.056 45.836 174.968 44.9346 176.093 44.9346H212.763Z" fill="#180F4A"/>
<path d="M182.205 56.0084C180.671 56.0233 179.364 54.9122 179.149 53.4111L178.13 46.3642C177.931 44.9839 178.714 43.6485 180.025 43.1327L190.211 39.1058C191.781 38.4859 193.562 39.2409 194.189 40.7921C194.816 42.3433 194.052 44.1033 192.483 44.7232L184.527 47.8642L185.261 52.5655C185.385 53.4368 185.119 54.3185 184.532 54.98C183.945 55.6415 183.095 56.0171 182.205 56.0084Z" fill="#EFEFEF"/>
<path d="M223.968 23.7939C223.406 23.7939 222.95 23.3432 222.95 22.7872V18.7604C222.95 18.2044 223.406 17.7537 223.968 17.7537C224.531 17.7537 224.987 18.2044 224.987 18.7604V22.7872C224.987 23.3432 224.531 23.7939 223.968 23.7939Z" fill="#F0C419"/>
<path d="M226.005 21.7805H221.931C221.368 21.7805 220.912 21.3298 220.912 20.7738C220.912 20.2178 221.368 19.7671 221.931 19.7671H226.005C226.568 19.7671 227.024 20.2178 227.024 20.7738C227.024 21.3298 226.568 21.7805 226.005 21.7805Z" fill="#F0C419"/>
<path d="M177.112 33.8608C176.549 33.8608 176.093 33.4101 176.093 32.8541V28.8273C176.093 28.2713 176.549 27.8206 177.112 27.8206C177.674 27.8206 178.13 28.2713 178.13 28.8273V32.8541C178.13 33.4101 177.674 33.8608 177.112 33.8608Z" fill="#F0C419"/>
<path d="M179.149 31.8475H175.074C174.512 31.8475 174.056 31.3968 174.056 30.8408C174.056 30.2848 174.512 29.8341 175.074 29.8341H179.149C179.711 29.8341 180.168 30.2848 180.168 30.8408C180.168 31.3968 179.711 31.8475 179.149 31.8475Z" fill="#F0C419"/>
<path d="M231.099 74.1292H228.043C227.48 74.1292 227.024 73.6784 227.024 73.1224C227.024 72.5665 227.48 72.1157 228.043 72.1157H231.099C231.661 72.1157 232.117 72.5665 232.117 73.1224C232.117 73.6784 231.661 74.1292 231.099 74.1292Z" fill="#CBB292"/>
<path d="M230.366 79.7331H172.142C171.511 79.7331 171 77.987 171 75.8331C171 73.6792 171.511 71.9331 172.142 71.9331H230.366C230.997 71.9331 231.508 73.6792 231.508 75.8331C231.508 77.987 230.997 79.7331 230.366 79.7331Z" fill="#F9AB11"/>
<path d="M183.223 60.0353H179.149C178.586 60.0353 178.13 59.5844 178.13 59.0285C178.13 58.4725 178.586 58.0219 179.149 58.0219H183.223C183.786 58.0219 184.242 58.4725 184.242 59.0285C184.242 59.5844 183.786 60.0353 183.223 60.0353Z" fill="#894B9D"/>
<path d="M212.763 60.0353H188.317C187.754 60.0353 187.298 59.5844 187.298 59.0285C187.298 58.4725 187.754 58.0219 188.317 58.0219H212.763C213.326 58.0219 213.782 58.4725 213.782 59.0285C213.782 59.5844 213.326 60.0353 212.763 60.0353Z" fill="#894B9D"/>
</g>
<defs>
<linearGradient id="paint0_linear" x1="83" y1="39" x2="228" y2="39" gradientUnits="userSpaceOnUse">
<stop stop-color="#027B4A" stop-opacity="0.01"/>
<stop offset="0.363068" stop-color="#00693E" stop-opacity="0.176226"/>
<stop offset="0.524968" stop-color="#00663C" stop-opacity="0.301811"/>
<stop offset="0.994792" stop-color="#00693E"/>
</linearGradient>
</defs>
</svg>
