<svg width="228" height="78" viewBox="0 0 228 78" fill="none" xmlns="http://www.w3.org/2000/svg">
<path d="M216 0H12C5.37258 0 0 5.37258 0 12V66C0 72.6274 5.37258 78 12 78H216C222.627 78 228 72.6274 228 66V12C228 5.37258 222.627 0 216 0Z" fill="url(#paint0_linear)"/>
<mask id="mask0" mask-type="alpha" maskUnits="userSpaceOnUse" x="0" y="0" width="228" height="78">
<path d="M216 0H12C5.37258 0 0 5.37258 0 12V66C0 72.6274 5.37258 78 12 78H216C222.627 78 228 72.6274 228 66V12C228 5.37258 222.627 0 216 0Z" fill="#F29C1F"/>
</mask>
<g mask="url(#mask0)">
<path d="M219.874 52.1387L216.753 69.1019L198.029 70.644L197.451 50.5966C199.012 50.0415 199.963 50.2882 204.379 50.72C204.86 50.7317 205.319 50.5236 205.624 50.1559C205.929 49.7883 206.046 49.3023 205.94 48.8386L204.879 44.2123C204.475 42.6125 204.736 40.9197 205.604 39.5116C206.472 38.1035 207.874 37.0973 209.497 36.7176C211.081 36.366 212.742 36.6578 214.106 37.5277C215.47 38.3976 216.424 39.7726 216.753 41.344L219.093 51.6607L219.874 52.1387Z" fill="#ECF0F1"/>
<path d="M218.641 58.8624L216.753 69.102L198.029 70.6442L197.451 50.5967C198.379 50.2867 199.368 50.1969 200.338 50.3346L204.707 63.4425C217.642 58.9395 217.112 59.0321 218.641 58.8624Z" fill="#BDC3C7"/>
<path d="M217.611 45.0297C205.659 47.8363 205.94 47.8055 205.784 47.8055L205.113 44.7213C217.237 41.8838 216.784 41.9609 216.94 41.9609L217.611 45.0297Z" fill="#BDC3C7"/>
<path d="M229.236 69.2406L234.915 62.3628L225.553 54.4364C223.102 52.3176 219.88 51.2835 216.637 51.5748C213.394 51.8662 210.414 53.4576 208.389 55.9785L201.711 64.0283L229.236 69.2406Z" fill="#BDC3C7"/>
<path d="M193.098 42.2539L176.652 47.7284C169.144 49.0894 161.786 44.7129 159.488 37.5196C156.991 29.9787 156.18 28.2669 156.18 24.7201C156.174 17.5588 160.72 11.1656 167.539 8.74383L173.281 6.76993C177.514 5.35195 182.146 5.68181 186.129 7.68481C190.112 9.68781 193.108 13.1945 194.44 17.4105L198.809 30.5493C200.464 35.3378 197.92 40.5521 193.098 42.2539Z" fill="#BDC3C7"/>
<path d="M198.98 31.1353C198.712 34.7816 196.297 37.9301 192.817 39.1696L176.371 44.6441C168.863 46.0052 161.505 41.6287 159.207 34.4354C157.997 31.2613 156.986 28.0168 156.18 24.7201C156.174 17.5588 160.72 11.1656 167.539 8.74383L173.281 6.76993C177.514 5.35195 182.146 5.68181 186.129 7.68481C190.112 9.68781 193.108 13.1945 194.44 17.4105C198.216 28.7604 198.887 30.7343 198.98 31.1353Z" fill="#ECF0F1"/>
<path d="M199.292 33.6335C199.136 33.6335 199.292 33.6335 191.147 36.4247C188.83 37.187 186.3 36.9932 184.13 35.8873C181.959 34.7813 180.332 32.8568 179.616 30.5493L177.182 23.2551C176.632 21.6546 177.488 19.9145 179.101 19.3536L193.145 14.5114C193.652 15.4154 194.07 16.3656 194.393 17.3488C199.136 31.5517 199.324 31.5671 199.292 33.6335Z" fill="#F29C1F"/>
<path d="M171.939 36.2397C169.968 36.2426 168.216 35.001 167.586 33.1555L166.618 30.2255C165.798 27.8291 167.077 25.2255 169.49 24.3809L170.925 23.9028C171.709 23.7042 172.517 24.1311 172.785 24.8858C173.053 25.6406 172.693 26.4726 171.955 26.802L170.519 27.2955C169.71 27.5853 169.291 28.4688 169.583 29.2694L170.551 32.0914C170.662 32.4662 170.922 32.7801 171.273 32.9606C171.623 33.141 172.033 33.1724 172.407 33.0475L173.843 32.554C174.646 32.3132 175.498 32.7437 175.771 33.5282C176.044 34.3128 175.64 35.1702 174.857 35.4686C173.94 35.8989 172.951 36.1601 171.939 36.2397Z" fill="#BDC3C7"/>
<path d="M176.62 47.8978L160.034 53.5882C156.819 54.7227 155.123 58.1989 156.226 61.3913L162.047 78.9096C162.532 80.4415 163.622 81.7155 165.069 82.4438C166.517 83.1721 168.2 83.2935 169.739 82.7803L175.481 80.8064L176.62 47.8978Z" fill="#547580"/>
<path d="M233.074 80.5907L218.688 85.51L216.753 79.6809C216.51 78.913 215.964 78.2741 215.239 77.9085C214.514 77.5429 213.67 77.4814 212.899 77.7378L189.899 85.618C184.612 87.3946 178.784 85.3212 175.856 80.6216C174.748 78.879 174.92 78.9715 169.708 63.2882C167.603 57.145 170.625 50.4338 176.652 47.8672L193.035 42.2693C193.432 42.1332 193.868 42.1612 194.244 42.347C194.62 42.5328 194.904 42.8606 195.033 43.2562L201.274 62.1471C201.537 62.9291 202.106 63.5745 202.853 63.9395C203.601 64.3046 204.465 64.3588 205.253 64.0901C216.41 60.2657 213.226 61.4377 213.757 61.1756C219.628 59.2215 226.043 61.9812 228.596 67.5599C229.095 68.4852 228.846 67.8529 233.074 80.5907Z" fill="#ECF0F1"/>
<path d="M229.673 70.3665C225.584 71.7698 224.601 72.2633 222.916 72.2633C219.614 72.2284 216.705 70.1107 215.692 67.0047C214.787 64.2752 213.773 61.3451 213.773 61.1909C214.78 60.8462 215.83 60.6387 216.893 60.5741L218.656 66.0177C219.01 67.1605 219.817 68.1132 220.892 68.6592C221.968 69.2053 223.221 69.2982 224.367 68.9169L228.596 67.5599C229.025 68.4677 229.385 69.4058 229.673 70.3665Z" fill="#95A5A5"/>
<path d="M213.632 13.586C212.77 13.586 212.072 12.8956 212.072 12.0439V5.87548C212.072 5.0238 212.77 4.33337 213.632 4.33337C214.494 4.33337 215.192 5.0238 215.192 5.87548V12.0439C215.192 12.8956 214.494 13.586 213.632 13.586Z" fill="#F0C419"/>
<path d="M216.753 10.5018H210.511C209.65 10.5018 208.951 9.8114 208.951 8.95971C208.951 8.10803 209.65 7.4176 210.511 7.4176H216.753C217.615 7.4176 218.313 8.10803 218.313 8.95971C218.313 9.8114 217.615 10.5018 216.753 10.5018Z" fill="#F0C419"/>
<path d="M202.71 70.8445C202.142 72.3487 200.982 73.5616 199.495 74.2066C198.007 74.8517 196.319 74.8738 194.814 74.268L181.785 68.9477C179.693 68.0651 178.252 66.127 178.025 63.8896L176.464 49.7793C176.096 46.4478 178.486 43.435 181.848 42.994C183.489 42.7999 185.14 43.2706 186.425 44.299C187.709 45.3274 188.518 46.8259 188.666 48.4531L189.759 58.9086L199.37 62.8256C202.517 64.144 204.006 67.7188 202.71 70.8445Z" fill="#BDC3C7"/>
<path d="M198.169 62.3629C198.169 62.5171 196.905 64.9845 192.77 73.4507L189.899 72.2787C189.899 72.1245 191.147 69.6879 195.298 61.1909L198.169 62.3629Z" fill="#95A5A5"/>
<path d="M191.007 59.4328C190.788 59.8492 190.882 59.7104 186.404 62.6713C185.694 63.0477 184.811 62.8279 184.366 62.1642C183.921 61.5004 184.06 60.6109 184.687 60.1114C189.01 57.2585 189.01 57.1814 189.509 57.1505L189.696 58.9085L191.007 59.4328Z" fill="#95A5A5"/>
<path d="M199.292 33.6334C199.136 33.6334 199.292 33.6334 191.147 36.4246C187.345 37.7002 183.147 36.3279 180.865 33.0628C187.055 30.4789 192.161 25.8736 195.329 20.0166C199.121 31.4899 199.324 31.5978 199.292 33.6334Z" fill="#E57E25"/>
<path d="M184.391 27.2644C183.856 27.2629 183.36 26.9909 183.075 26.5437C182.79 26.0965 182.757 25.5363 182.987 25.0592L183.985 23.1007C184.167 22.7321 184.489 22.4501 184.882 22.3169C185.274 22.1838 185.704 22.2106 186.076 22.3913C186.792 22.779 187.084 23.6462 186.747 24.3806L185.795 26.3391C185.551 26.8927 185.002 27.2544 184.391 27.2644Z" fill="#F3D55B"/>
<path d="M187.777 32.6156C187.242 32.6141 186.746 32.3421 186.461 31.8949C186.176 31.4477 186.143 30.8874 186.373 30.4104L189.228 24.5503C189.461 24.0385 189.957 23.692 190.522 23.6457C191.088 23.5993 191.635 23.8605 191.95 24.3275C192.265 24.7945 192.298 25.3937 192.037 25.892L189.181 31.7366C188.923 32.2721 188.377 32.6139 187.777 32.6156Z" fill="#F3D55B"/>
</g>
<defs>
<linearGradient id="paint0_linear" x1="0" y1="39" x2="228" y2="39" gradientUnits="userSpaceOnUse">
<stop offset="0.431438" stop-color="#B08D31" stop-opacity="0"/>
<stop offset="0.730437" stop-color="#B08D31" stop-opacity="0.236988"/>
<stop offset="1" stop-color="#B08D31"/>
</linearGradient>
</defs>
</svg>
