<svg width="544" height="384" viewBox="0 0 544 384" fill="none" xmlns="http://www.w3.org/2000/svg">
<g clip-path="url(#clip0)">
<path d="M267.756 268.909C257.856 288.709 259.879 340.526 259.524 340.88C259.524 351.506 253.208 360.219 245.473 360.219C239.65 359.747 234.716 355.751 233.054 350.16C221.256 318 214.924 284.098 214.319 249.854L267.756 268.909Z" fill="white"/>
<path d="M330.348 249.996C329.842 284.243 323.531 318.157 311.684 350.302C310.022 355.892 305.088 359.888 299.265 360.361C291.53 360.361 285.214 351.648 285.214 341.022C285.143 340.384 287.094 288.921 277.124 268.768L330.348 249.996Z" fill="white"/>
<path d="M214.461 249.996L267.756 268.91C266 272.753 264.679 276.781 263.817 280.917C240.399 279.783 225.105 273.939 215.206 265.687C214.709 258.107 214.496 252.511 214.461 249.996Z" fill="#C9C9C9"/>
<path d="M276.981 268.909L330.206 250.138C330.17 252.652 330.028 258.178 329.461 265.757C318.532 274.966 302.529 279.96 280.849 280.987C280.044 276.822 278.746 272.768 276.981 268.909Z" fill="#C9C9C9"/>
<path d="M309.626 161.236C317.592 174.332 324.304 188.147 329.674 202.499C347.061 250.315 323.074 271.141 272.298 271.176C221.522 271.212 197.606 250.102 214.887 202.535C220.275 188.208 226.974 174.407 234.899 161.307L309.626 161.236Z" fill="white"/>
<path d="M293.711 181.62L251.114 181.62C248.343 181.62 246.097 183.863 246.097 186.629L246.097 223.89C246.097 226.656 248.343 228.898 251.114 228.898L293.711 228.898C296.482 228.898 298.728 226.656 298.728 223.89L298.728 186.629C298.728 183.863 296.482 181.62 293.711 181.62Z" fill="#BBBBBB"/>
<path d="M286.526 201.012C284.752 202.783 283.297 202.464 277.833 202.606C275.073 202.597 272.838 200.366 272.829 197.611C272.824 196.276 273.353 194.993 274.299 194.049C275.245 193.105 276.53 192.577 277.868 192.582H283.119C285.072 192.681 286.789 193.901 287.52 195.711C288.251 197.52 287.863 199.589 286.526 201.012Z" fill="white"/>
<path d="M286.526 216.738C284.717 218.544 283.333 218.225 277.833 218.332C276.495 218.337 275.21 217.809 274.264 216.865C273.318 215.92 272.789 214.638 272.794 213.302C272.803 210.547 275.038 208.316 277.797 208.308L283.049 208.308C285.014 208.38 286.755 209.592 287.504 211.406C288.252 213.221 287.87 215.305 286.526 216.738Z" fill="white"/>
<path d="M337.357 210.413L334.591 243.214C333.529 245.59 332.116 247.855 330.382 249.958C326.894 248.471 324.106 246.102 322.446 243.214C321.303 241.515 321.844 244.136 318.598 206.046L319.319 181.3L337.357 210.413Z" fill="#DFDFDF"/>
<path d="M208.887 210.74L211.569 243.269C212.598 245.626 213.968 247.872 215.65 249.958C219.032 248.483 221.736 246.134 223.346 243.269C224.454 241.585 223.929 244.184 227.077 206.409L226.378 181.868L208.887 210.74Z" fill="#DFDFDF"/>
<path d="M347.967 235.376C342.424 236.371 336.793 234.16 333.415 229.662C332.25 228.306 333.075 230.582 323.082 193.928L306.396 172.72L301.545 158.194C310.932 157.752 320.34 158.238 329.631 159.647C334.724 160.373 341.709 163.569 347.191 174.512C353.186 188.624 357.406 203.425 359.754 218.574C361.135 226.46 355.863 233.974 347.967 235.376Z" fill="white"/>
<path d="M199.77 234.973C205.271 235.956 210.859 233.773 214.211 229.331C215.366 227.992 214.548 230.239 224.464 194.045L241.023 173.103L245.837 158.759C236.522 158.322 227.186 158.803 217.966 160.194C212.911 160.911 205.98 164.067 200.54 174.872C194.59 188.808 190.403 203.423 188.073 218.382C186.703 226.169 191.934 233.589 199.77 234.973Z" fill="white"/>
<path d="M345.037 66.5267C345.037 66.5267 348.621 97.4473 348.585 98.4036C349.749 115.822 343.662 132.949 331.761 145.74C319.859 158.532 303.198 165.856 285.709 165.983L258.955 165.912C241.455 165.822 224.768 158.525 212.838 145.745C200.908 132.965 194.793 115.835 195.938 98.4036C196.044 96.243 196.186 95.4638 199.486 66.5267C201.93 45.3104 219.926 29.2972 241.32 29.3016L303.132 29.3016C324.553 29.2612 342.59 45.2836 345.037 66.5267Z" fill="#C9C9C9"/>
<path d="M345.038 66.5268C345.038 66.5268 348.622 97.4474 348.586 98.4037C346.085 131.287 318.642 156.705 285.604 156.738L258.957 156.703C225.908 156.714 198.435 131.298 195.939 98.4037C196.01 96.7744 196.187 95.7473 199.487 66.5268C201.931 45.3105 219.927 29.2973 241.322 29.3017L303.133 29.3017C324.555 29.2613 342.591 45.2836 345.038 66.5268V66.5268Z" fill="white"/>
<path d="M324.138 68.8996L327.509 98.0492C328.887 109.964 325.093 121.897 317.085 130.839C309.076 139.78 297.619 144.875 285.604 144.837L259.062 144.767C236.202 144.844 217.488 126.636 216.98 103.822C216.838 99.6431 217.157 98.5451 220.599 68.8287C221.802 58.2013 230.819 50.1769 241.534 50.1984L303.345 50.1985C314.021 50.2755 322.953 58.3087 324.138 68.8996V68.8996Z" fill="#35495E"/>
<path d="M302.281 69.6082C301.346 70.5334 300.084 71.055 298.768 71.0603L267.188 71.1312C264.428 71.123 262.193 68.8918 262.185 66.1371C262.179 64.8015 262.709 63.5191 263.655 62.5747C264.601 61.6303 265.885 61.1022 267.223 61.1077L298.661 60.966C300.745 60.8964 302.655 62.1201 303.459 64.0402C304.263 65.9603 303.794 68.1768 302.281 69.6082V69.6082Z" fill="white"/>
<path d="M327.437 97.5536C328.967 109.535 325.253 121.595 317.242 130.648C309.232 139.702 297.703 144.872 285.602 144.838L259.061 144.767C236.2 144.844 217.486 126.637 216.978 103.823C241.142 88.3447 279.251 75.5939 327.437 97.5536Z" fill="#2C3E50"/>
<rect width="19.6294" height="19.6001" rx="4" transform="matrix(0.955588 -0.294707 0.295683 0.955286 329.821 176.875)" fill="white"/>
<rect width="17.6664" height="17.6401" rx="4" transform="matrix(0.955588 -0.294707 0.295683 0.955286 330.49 177.746)" fill="#FFF500"/>
<path d="M341.301 179.081C341.765 178.938 342.161 178.83 342.491 178.758C342.826 178.674 343.136 178.618 343.42 178.589C343.702 178.551 344.002 178.526 344.321 178.516L344.705 180.419C344.399 180.504 344.115 180.582 343.854 180.652C343.593 180.723 343.315 180.804 343.02 180.895C342.723 180.977 342.37 181.081 341.959 181.207C341.585 181.323 341.318 181.488 341.16 181.703C341.002 181.918 340.942 182.229 340.98 182.637C341.019 183.046 341.146 183.597 341.361 184.293C341.576 184.988 341.783 185.515 341.982 185.874C342.181 186.233 342.407 186.456 342.659 186.544C342.911 186.633 343.224 186.619 343.599 186.504C344.25 186.303 344.788 186.132 345.213 185.991C345.645 185.838 346.071 185.668 346.491 185.48L347.246 187.254C346.847 187.543 346.42 187.792 345.967 188C345.523 188.205 344.952 188.415 344.257 188.63C343.267 188.935 342.426 189.029 341.735 188.91C341.049 188.779 340.465 188.407 339.983 187.795C339.509 187.179 339.09 186.283 338.725 185.106C338.361 183.929 338.201 182.953 338.244 182.177C338.296 181.399 338.57 180.768 339.065 180.283C339.566 179.787 340.311 179.386 341.301 179.081Z" fill="black"/>
</g>
<defs>
<clipPath id="clip0">
<rect width="544" height="384" fill="white"/>
</clipPath>
</defs>
</svg>
