<svg width="544" height="384" viewBox="0 0 544 384" fill="none" xmlns="http://www.w3.org/2000/svg">
<g clip-path="url(#clip0)">
<path d="M375.608 257.897C366.912 275.288 368.689 320.805 368.377 321.116C368.377 330.449 362.829 338.103 356.035 338.103C350.92 337.687 346.586 334.177 345.126 329.267C334.763 301.017 329.201 271.238 328.669 241.159L375.608 257.897Z" fill="#65DFD6"/>
<path d="M430.588 241.283C430.144 271.365 424.601 301.156 414.194 329.391C412.734 334.302 408.4 337.812 403.285 338.227C396.491 338.227 390.943 330.573 390.943 321.24C390.881 320.68 392.595 275.475 383.837 257.772L430.588 241.283Z" fill="#65DFD6"/>
<path d="M328.794 241.284L375.608 257.897C374.066 261.273 372.905 264.811 372.149 268.444C351.578 267.448 338.145 262.315 329.449 255.066C329.012 248.408 328.825 243.493 328.794 241.284Z" fill="#479E98"/>
<path d="M383.712 257.897L430.464 241.408C430.433 243.617 430.308 248.47 429.809 255.128C420.21 263.217 406.153 267.604 387.109 268.506C386.403 264.848 385.262 261.286 383.712 257.897Z" fill="#479E98"/>
<path d="M412.388 163.318C419.385 174.821 425.281 186.956 429.998 199.563C445.27 241.563 424.2 259.857 379.599 259.888C334.998 259.919 313.991 241.377 329.169 199.594C333.903 187.009 339.787 174.887 346.748 163.38L412.388 163.318Z" fill="#67EFE5"/>
<path d="M398.406 181.223L360.989 181.223C358.555 181.223 356.582 183.193 356.582 185.622L356.582 218.352C356.582 220.782 358.555 222.751 360.989 222.751L398.406 222.751C400.84 222.751 402.813 220.782 402.813 218.352L402.813 185.622C402.813 183.193 400.84 181.223 398.406 181.223Z" fill="#479E98"/>
<path d="M392.095 198.256C390.537 199.812 389.259 199.532 384.459 199.656C382.035 199.649 380.072 197.689 380.065 195.269C380.06 194.096 380.525 192.97 381.356 192.14C382.187 191.311 383.315 190.847 384.49 190.852L389.103 190.852C390.818 190.938 392.326 192.011 392.969 193.6C393.611 195.189 393.27 197.006 392.095 198.256Z" fill="#67EFE5"/>
<path d="M392.096 212.07C390.507 213.657 389.291 213.377 384.46 213.47C383.285 213.475 382.156 213.011 381.325 212.181C380.494 211.352 380.03 210.225 380.034 209.052C380.042 206.632 382.005 204.673 384.429 204.665L389.042 204.665C390.768 204.729 392.297 205.793 392.955 207.387C393.613 208.981 393.277 210.812 392.096 212.07Z" fill="#67EFE5"/>
<path d="M436.745 206.514L434.316 235.326C433.383 237.414 432.142 239.403 430.619 241.25C427.555 239.944 425.106 237.863 423.648 235.326C422.644 233.834 423.119 236.136 420.268 202.678L420.901 180.942L436.745 206.514Z" fill="#52D2C9"/>
<path d="M323.899 206.801L326.254 235.375C327.159 237.445 328.362 239.418 329.839 241.25C332.811 239.955 335.185 237.891 336.599 235.375C337.572 233.896 337.111 236.178 339.877 202.997L339.262 181.44L323.899 206.801Z" fill="#52D2C9"/>
<path d="M446.065 228.441C441.196 229.315 436.249 227.373 433.282 223.422C432.259 222.231 432.984 224.23 424.206 192.034L409.549 173.405L405.288 160.645C413.534 160.257 421.797 160.684 429.959 161.921C434.432 162.559 440.568 165.366 445.383 174.979C450.649 187.375 454.356 200.376 456.419 213.682C457.631 220.609 453 227.21 446.065 228.441Z" fill="#67EFE5"/>
<path d="M315.89 228.088C320.721 228.951 325.63 227.033 328.575 223.132C329.589 221.956 328.871 223.93 337.581 192.137L352.126 173.742L356.354 161.142C348.172 160.759 339.971 161.181 331.873 162.402C327.433 163.032 321.344 165.804 316.566 175.296C311.34 187.537 307.662 200.374 305.615 213.514C304.412 220.354 309.007 226.872 315.89 228.088Z" fill="#67EFE5"/>
<path d="M443.492 80.1261C443.492 80.1261 446.64 107.286 446.608 108.126C447.631 123.427 442.284 138.47 431.83 149.707C421.376 160.943 406.741 167.376 391.379 167.487L367.878 167.425C352.506 167.347 337.849 160.937 327.369 149.711C316.89 138.485 311.519 123.438 312.524 108.126C312.618 106.229 312.742 105.544 315.641 80.1261C317.788 61.49 333.595 47.4241 352.388 47.4279L406.682 47.4279C425.499 47.3924 441.342 61.4663 443.492 80.1261Z" fill="#479E98"/>
<path d="M443.492 80.1259C443.492 80.1259 446.64 107.286 446.608 108.126C444.411 137.011 420.306 159.338 391.285 159.367L367.878 159.336C338.849 159.345 314.717 137.021 312.524 108.126C312.587 106.695 312.742 105.793 315.641 80.1259C317.788 61.4898 333.595 47.4239 352.388 47.4277L406.682 47.4277C425.499 47.3922 441.342 61.4661 443.492 80.1259V80.1259Z" fill="#65DFD6"/>
<path d="M425.134 82.2105L428.095 107.815C429.306 118.281 425.973 128.763 418.939 136.617C411.904 144.471 401.84 148.946 391.286 148.914L367.973 148.851C347.892 148.919 331.454 132.926 331.007 112.886C330.883 109.215 331.163 108.251 334.187 82.1482C335.244 72.8132 343.164 65.7647 352.576 65.7836L406.87 65.7836C416.248 65.8513 424.093 72.9076 425.134 82.2105V82.2105Z" fill="#DDFBF9"/>
<path d="M405.935 82.8328C405.114 83.6456 404.005 84.1037 402.849 84.1084L375.11 84.1706C372.686 84.1634 370.722 82.2036 370.715 79.7839C370.71 78.6107 371.175 77.4842 372.006 76.6547C372.837 75.8251 373.966 75.3612 375.141 75.3661L402.756 75.2416C404.586 75.1805 406.263 76.2554 406.97 77.942C407.676 79.6286 407.264 81.5755 405.935 82.8328V82.8328Z" fill="white"/>
<path d="M428.033 107.38C429.377 117.904 426.114 128.497 419.078 136.45C412.042 144.402 401.915 148.944 391.286 148.914L367.972 148.851C347.892 148.919 331.453 132.926 331.007 112.886C352.232 99.2907 385.707 88.0906 428.033 107.38Z" fill="#CFF0EE"/>
<path d="M159.651 260.836C150.955 278.228 152.732 323.744 152.42 324.055C152.42 333.388 146.872 341.042 140.078 341.042C134.963 340.627 130.629 337.117 129.169 332.206C118.806 303.957 113.244 274.178 112.712 244.098L159.651 260.836Z" fill="#FFD11D"/>
<path d="M214.631 244.223C214.187 274.305 208.643 304.095 198.237 332.33C196.777 337.241 192.443 340.751 187.328 341.166C180.534 341.166 174.986 333.513 174.986 324.179C174.924 323.619 176.638 278.414 167.88 260.712L214.631 244.223Z" fill="#FFD11D"/>
<path d="M112.837 244.223L159.651 260.836C158.109 264.213 156.948 267.75 156.192 271.383C135.621 270.388 122.188 265.254 113.492 258.005C113.055 251.347 112.868 246.432 112.837 244.223Z" fill="#B09115"/>
<path d="M167.755 260.837L214.507 244.348C214.476 246.556 214.351 251.41 213.852 258.068C204.253 266.157 190.196 270.543 171.152 271.446C170.446 267.787 169.305 264.226 167.755 260.837Z" fill="#B09115"/>
<path d="M196.431 166.257C203.428 177.76 209.324 189.895 214.04 202.502C229.313 244.503 208.243 262.796 163.642 262.827C119.041 262.859 98.0337 244.316 113.212 202.533C117.946 189.949 123.83 177.826 130.791 166.32L196.431 166.257Z" fill="#F9D443"/>
<path d="M182.449 184.163L145.032 184.163C142.598 184.163 140.625 186.132 140.625 188.562L140.625 221.292C140.625 223.721 142.598 225.691 145.032 225.691L182.449 225.691C184.883 225.691 186.856 223.721 186.856 221.292L186.856 188.562C186.856 186.132 184.883 184.163 182.449 184.163Z" fill="#B09115"/>
<path d="M176.138 201.196C174.58 202.751 173.302 202.471 168.502 202.596C166.078 202.588 164.115 200.629 164.108 198.209C164.103 197.036 164.568 195.909 165.399 195.08C166.23 194.25 167.358 193.786 168.533 193.791L173.146 193.791C174.861 193.878 176.369 194.95 177.012 196.539C177.654 198.129 177.313 199.946 176.138 201.196Z" fill="#F9D443"/>
<path d="M176.139 215.009C174.55 216.596 173.334 216.316 168.503 216.409C167.328 216.414 166.199 215.95 165.368 215.121C164.537 214.291 164.072 213.165 164.077 211.992C164.085 209.572 166.048 207.612 168.472 207.605L173.085 207.605C174.811 207.668 176.34 208.732 176.998 210.326C177.656 211.92 177.32 213.751 176.139 215.009Z" fill="#F9D443"/>
<path d="M220.788 209.454L218.359 238.265C217.426 240.353 216.185 242.342 214.662 244.19C211.598 242.883 209.149 240.802 207.691 238.265C206.687 236.774 207.162 239.075 204.311 205.618L204.944 183.881L220.788 209.454Z" fill="#E9C330"/>
<path d="M107.942 209.741L110.297 238.314C111.202 240.385 112.405 242.358 113.882 244.19C116.853 242.894 119.228 240.83 120.642 238.314C121.615 236.835 121.154 239.118 123.92 205.937L123.305 184.38L107.942 209.741Z" fill="#E9C330"/>
<path d="M230.108 231.381C225.239 232.255 220.292 230.313 217.325 226.362C216.302 225.171 217.027 227.17 208.249 194.973L193.592 176.345L189.331 163.585C197.577 163.196 205.84 163.624 214.002 164.861C218.475 165.499 224.611 168.306 229.426 177.918C234.692 190.315 238.399 203.315 240.462 216.622C241.674 223.549 237.043 230.149 230.108 231.381Z" fill="#F9D443"/>
<path d="M99.9328 231.027C104.764 231.89 109.673 229.973 112.618 226.071C113.632 224.895 112.914 226.869 121.624 195.076L136.169 176.681L140.397 164.082C132.215 163.698 124.014 164.12 115.916 165.342C111.476 165.972 105.387 168.744 100.609 178.235C95.383 190.476 91.7046 203.314 89.658 216.454C88.4549 223.294 93.05 229.811 99.9328 231.027Z" fill="#F9D443"/>
<path d="M227.535 83.0654C227.535 83.0654 230.683 110.226 230.651 111.066C231.674 126.366 226.327 141.41 215.873 152.646C205.419 163.882 190.784 170.315 175.422 170.427L151.921 170.364C136.549 170.286 121.892 163.876 111.412 152.65C100.933 141.424 95.5615 126.377 96.5672 111.066C96.6607 109.168 96.7854 108.484 99.684 83.0654C101.831 64.4293 117.638 50.3634 136.431 50.3672L190.725 50.3672C209.542 50.3318 225.385 64.4057 227.535 83.0654Z" fill="#B09115"/>
<path d="M227.535 83.0652C227.535 83.0652 230.683 110.226 230.651 111.066C228.454 139.95 204.349 162.277 175.328 162.306L151.921 162.275C122.892 162.285 98.7601 139.96 96.5672 111.066C96.6296 109.634 96.7854 108.732 99.684 83.0652C101.831 64.4291 117.638 50.3632 136.431 50.367L190.725 50.367C209.542 50.3316 225.385 64.4055 227.535 83.0652V83.0652Z" fill="#FFD11D"/>
<path d="M209.177 85.1497L212.138 110.754C213.349 121.22 210.016 131.703 202.982 139.557C195.947 147.41 185.883 151.886 175.329 151.853L152.016 151.791C131.935 151.859 115.497 135.865 115.05 115.826C114.926 112.154 115.206 111.19 118.23 85.0875C119.287 75.7524 127.207 68.7039 136.619 68.7228L190.913 68.7228C200.291 68.7905 208.136 75.8468 209.177 85.1497V85.1497Z" fill="#FFF3C8"/>
<path d="M189.978 85.772C189.157 86.5848 188.048 87.0429 186.892 87.0476L159.153 87.1098C156.729 87.1026 154.765 85.1428 154.758 82.7231C154.753 81.5499 155.218 80.4235 156.049 79.5939C156.88 78.7644 158.009 78.3005 159.184 78.3053L186.799 78.1808C188.629 78.1197 190.306 79.1946 191.013 80.8812C191.719 82.5678 191.307 84.5147 189.978 85.772Z" fill="white"/>
<path d="M212.076 110.319C213.42 120.844 210.157 131.436 203.121 139.389C196.085 147.342 185.958 151.883 175.329 151.853L152.015 151.791C131.935 151.859 115.496 135.865 115.05 115.826C136.275 102.23 169.75 91.0298 212.076 110.319Z" fill="#FEF9E7"/>
</g>
<defs>
<clipPath id="clip0">
<rect width="544" height="384" fill="white"/>
</clipPath>
</defs>
</svg>
