<svg width="544" height="384" viewBox="0 0 544 384" fill="none" xmlns="http://www.w3.org/2000/svg">
<g clip-path="url(#clip0)">
<path d="M458.494 243.226C451.162 257.889 452.66 296.265 452.397 296.527C452.397 304.397 447.719 310.849 441.991 310.849C437.678 310.499 434.024 307.54 432.793 303.4C424.056 279.582 419.366 254.474 418.918 229.113L458.494 243.226Z" fill="#E57E25"/>
<path d="M504.85 229.218C504.475 254.581 499.801 279.698 491.027 303.505C489.796 307.645 486.142 310.604 481.83 310.954C476.101 310.954 471.424 304.501 471.424 296.632C471.371 296.16 472.816 258.046 465.432 243.121L504.85 229.218Z" fill="#E57E25"/>
<path d="M419.023 229.218L458.494 243.226C457.193 246.072 456.215 249.055 455.577 252.118C438.233 251.279 426.907 246.951 419.575 240.839C419.207 235.225 419.05 231.081 419.023 229.218Z" fill="#D25627"/>
<path d="M465.327 243.226L504.745 229.323C504.718 231.186 504.613 235.278 504.193 240.891C496.099 247.711 484.247 251.41 468.191 252.171C467.595 249.086 466.634 246.083 465.327 243.226Z" fill="#D25627"/>
<path d="M489.503 163.483C495.403 173.181 500.374 183.413 504.351 194.042C517.227 229.454 499.463 244.878 461.858 244.904C424.254 244.931 406.542 229.297 419.34 194.069C423.33 183.458 428.292 173.237 434.161 163.536L489.503 163.483Z" fill="#F29C1F"/>
<path d="M477.716 178.579L446.169 178.579C444.117 178.579 442.453 180.24 442.453 182.289L442.453 209.884C442.453 211.933 444.117 213.593 446.169 213.593L477.716 213.593C479.768 213.593 481.432 211.933 481.432 209.884L481.432 182.289C481.432 180.24 479.768 178.579 477.716 178.579Z" fill="#F0C419"/>
<path d="M472.395 192.941C471.081 194.252 470.004 194.016 465.957 194.121C463.913 194.115 462.258 192.463 462.251 190.422C462.247 189.433 462.639 188.484 463.34 187.784C464.041 187.085 464.992 186.694 465.983 186.698L469.872 186.698C471.318 186.771 472.59 187.675 473.131 189.015C473.673 190.355 473.385 191.887 472.395 192.941Z" fill="#F29C1F"/>
<path d="M472.395 204.587C471.055 205.925 470.03 205.689 465.957 205.768C464.966 205.772 464.014 205.381 463.314 204.681C462.613 203.982 462.221 203.032 462.225 202.043C462.231 200.003 463.887 198.351 465.93 198.344L469.82 198.344C471.275 198.398 472.564 199.295 473.119 200.639C473.673 201.983 473.39 203.527 472.395 204.587Z" fill="#F29C1F"/>
<path d="M510.04 199.903L507.992 224.195C507.206 225.956 506.159 227.633 504.875 229.19C502.292 228.089 500.227 226.334 498.997 224.195C498.151 222.938 498.552 224.878 496.147 196.669L496.682 178.342L510.04 199.903Z" fill="#E57E25"/>
<path d="M414.895 200.145L416.882 224.237C417.644 225.982 418.659 227.646 419.904 229.19C422.409 228.098 424.411 226.358 425.604 224.237C426.424 222.989 426.036 224.914 428.367 196.938L427.849 178.762L414.895 200.145Z" fill="#E57E25"/>
<path d="M517.898 218.39C513.793 219.128 509.622 217.49 507.12 214.159C506.258 213.155 506.869 214.84 499.468 187.694L487.11 171.988L483.518 161.23C490.47 160.902 497.437 161.262 504.318 162.306C508.09 162.844 513.263 165.21 517.323 173.315C521.763 183.767 524.889 194.728 526.627 205.947C527.65 211.787 523.745 217.352 517.898 218.39Z" fill="#F29C1F"/>
<path d="M408.143 218.092C412.216 218.82 416.355 217.203 418.838 213.914C419.693 212.922 419.087 214.587 426.431 187.781L438.695 172.272L442.26 161.649C435.361 161.325 428.447 161.681 421.618 162.711C417.875 163.242 412.742 165.579 408.713 173.582C404.307 183.903 401.205 194.726 399.48 205.805C398.465 211.572 402.34 217.067 408.143 218.092Z" fill="#F29C1F"/>
<path d="M515.729 93.3413C515.729 93.3413 518.383 116.241 518.356 116.949C519.219 129.85 514.71 142.533 505.896 152.007C497.082 161.48 484.743 166.904 471.791 166.998L451.977 166.946C439.016 166.88 426.658 161.475 417.822 152.01C408.987 142.545 404.458 129.859 405.306 116.949C405.385 115.349 405.49 114.772 407.934 93.3413C409.743 77.6285 423.071 65.7692 438.916 65.7724L484.694 65.7724C500.558 65.7425 513.917 77.6086 515.729 93.3413Z" fill="#D25627"/>
<path d="M515.729 93.341C515.729 93.341 518.383 116.241 518.357 116.949C516.504 141.303 496.18 160.127 471.712 160.152L451.977 160.125C427.501 160.134 407.155 141.311 405.306 116.949C405.359 115.742 405.49 114.982 407.934 93.341C409.744 77.6283 423.072 65.7689 438.916 65.7721L484.694 65.7721C500.559 65.7422 513.917 77.6084 515.729 93.341V93.341Z" fill="#E57E25"/>
<path d="M500.252 95.0985L502.748 116.687C503.769 125.511 500.959 134.349 495.028 140.971C489.097 147.593 480.612 151.366 471.713 151.338L452.057 151.286C435.126 151.343 421.267 137.858 420.89 120.962C420.785 117.867 421.022 117.054 423.571 95.0461C424.462 87.1754 431.14 81.2326 439.075 81.2485L484.853 81.2485C492.759 81.3056 499.374 87.255 500.252 95.0985V95.0985Z" fill="#FFF4EB"/>
<path d="M484.063 95.6233C483.371 96.3086 482.437 96.6948 481.462 96.6988L458.074 96.7513C456.03 96.7452 454.375 95.0928 454.369 93.0527C454.365 92.0636 454.756 91.1138 455.457 90.4144C456.158 89.7149 457.109 89.3238 458.1 89.3279L481.383 89.2229C482.926 89.1714 484.341 90.0777 484.936 91.4997C485.532 92.9218 485.184 94.5632 484.063 95.6233V95.6233Z" fill="white"/>
<path d="M502.694 116.32C503.828 125.193 501.077 134.124 495.145 140.83C489.212 147.535 480.674 151.364 471.712 151.338L452.056 151.286C435.125 151.343 421.265 137.858 420.889 120.963C438.785 109.5 467.008 100.056 502.694 116.32Z" fill="#FFEAD8"/>
<path d="M80.8032 244.206C73.4715 258.869 74.9694 297.245 74.7066 297.507C74.7066 305.376 70.029 311.829 64.3002 311.829C59.9878 311.479 56.334 308.52 55.1027 304.38C46.3655 280.562 41.6759 255.454 41.2276 230.093L80.8032 244.206Z" fill="#F744A4"/>
<path d="M127.16 230.198C126.784 255.561 122.111 280.678 113.337 304.484C112.106 308.625 108.452 311.584 104.139 311.934C98.4107 311.934 93.7331 305.481 93.7331 297.612C93.6806 297.14 95.1259 259.026 87.7416 244.1L127.16 230.198Z" fill="#F744A4"/>
<path d="M41.3329 230.198L80.8034 244.206C79.5028 247.052 78.5245 250.035 77.8865 253.098C60.5426 252.259 49.2165 247.93 41.8847 241.819C41.5168 236.205 41.3592 232.061 41.3329 230.198Z" fill="#D32181"/>
<path d="M87.6362 244.206L127.054 230.303C127.028 232.166 126.923 236.258 126.502 241.871C118.409 248.691 106.557 252.39 90.5006 253.15C89.9048 250.066 88.9432 247.063 87.6362 244.206Z" fill="#D32181"/>
<path d="M111.813 164.463C117.713 174.161 122.684 184.393 126.66 195.022C139.537 230.434 121.773 245.858 84.1679 245.884C46.5632 245.911 28.8514 230.277 41.6491 195.048C45.6398 184.438 50.6011 174.217 56.4702 164.515L111.813 164.463Z" fill="#F644A4"/>
<path d="M100.026 179.559L68.4785 179.559C66.4263 179.559 64.7627 181.22 64.7627 183.269L64.7627 210.864C64.7627 212.913 66.4263 214.573 68.4785 214.573L100.026 214.573C102.078 214.573 103.741 212.913 103.741 210.864L103.741 183.269C103.741 181.22 102.078 179.559 100.026 179.559Z" fill="#D32181"/>
<path d="M94.7046 193.92C93.3906 195.232 92.3132 194.996 88.2663 195.101C86.2225 195.095 84.5671 193.442 84.561 191.402C84.5569 190.413 84.9488 189.463 85.6495 188.764C86.3502 188.065 87.3017 187.673 88.2926 187.677L92.1818 187.677C93.6275 187.75 94.8993 188.655 95.4408 189.995C95.9823 191.335 95.695 192.867 94.7046 193.92Z" fill="#F644A4"/>
<path d="M94.7045 205.567C93.3643 206.905 92.3394 206.669 88.2662 206.748C87.2753 206.752 86.3238 206.36 85.6231 205.661C84.9224 204.962 84.5306 204.012 84.5346 203.023C84.5407 200.983 86.1961 199.33 88.2399 199.324L92.1292 199.324C93.5843 199.378 94.8741 200.275 95.4285 201.619C95.9829 202.963 95.6999 204.506 94.7045 205.567Z" fill="#F644A4"/>
<path d="M132.35 200.883L130.302 225.175C129.515 226.935 128.469 228.613 127.185 230.17C124.601 229.069 122.536 227.314 121.307 225.175C120.461 223.918 120.862 225.858 118.457 197.649L118.991 179.322L132.35 200.883Z" fill="#F32B97"/>
<path d="M37.205 201.125L39.1912 225.217C39.9535 226.962 40.9684 228.625 42.2137 230.17C44.7188 229.078 46.7209 227.338 47.9133 225.217C48.7337 223.969 48.3451 225.894 50.6768 197.918L50.1586 179.742L37.205 201.125Z" fill="#F32B97"/>
<path d="M140.208 219.37C136.103 220.108 131.933 218.47 129.431 215.139C128.569 214.135 129.179 215.82 121.779 188.674L109.421 172.968L105.828 162.21C112.78 161.882 119.748 162.242 126.629 163.285C130.401 163.823 135.574 166.19 139.633 174.294C144.074 184.746 147.199 195.707 148.938 206.927C149.96 212.767 146.056 218.332 140.208 219.37Z" fill="#F644A4"/>
<path d="M30.4523 219.072C34.5259 219.8 38.6645 218.183 41.1473 214.894C42.0029 213.902 41.3968 215.567 48.7407 188.761L61.0043 173.252L64.5693 162.629C57.6704 162.305 50.7562 162.661 43.928 163.691C40.1847 164.222 35.0511 166.559 31.0227 174.562C26.6162 184.883 23.5148 195.706 21.7893 206.785C20.7748 212.552 24.6492 218.047 30.4523 219.072Z" fill="#F644A4"/>
<path d="M138.038 94.3211C138.038 94.3211 140.692 117.221 140.666 117.929C141.528 130.829 137.02 143.513 128.206 152.987C119.392 162.46 107.052 167.884 94.1003 167.978L74.2862 167.926C61.3256 167.859 48.9674 162.455 40.1318 152.99C31.2963 143.525 26.7674 130.839 27.6153 117.929C27.6942 116.329 27.7993 115.752 30.2432 94.3211C32.053 78.6084 45.3808 66.749 61.2257 66.7522L107.003 66.7522C122.868 66.7223 136.226 78.5885 138.038 94.3211Z" fill="#D32181"/>
<path d="M138.039 94.321C138.039 94.321 140.693 117.221 140.666 117.929C138.814 142.283 118.49 161.107 94.0218 161.132L74.2865 161.105C49.8107 161.114 29.4645 142.291 27.6157 117.929C27.6682 116.722 27.7996 115.962 30.2435 94.321C32.0533 78.6083 45.3811 66.7489 61.226 66.7521L107.003 66.7521C122.868 66.7222 136.226 78.5883 138.039 94.321V94.321Z" fill="#F744A4"/>
<path d="M122.561 96.0785L125.058 117.667C126.078 126.491 123.268 135.329 117.338 141.951C111.407 148.573 102.921 152.346 94.0228 152.318L74.3663 152.266C57.4357 152.323 43.5761 138.838 43.1999 121.942C43.0948 118.847 43.3313 118.034 45.8803 96.0261C46.7715 88.1554 53.4495 82.2125 61.3847 82.2285L107.162 82.2285C115.069 82.2856 121.683 88.235 122.561 96.0785V96.0785Z" fill="#FFE9F5"/>
<path d="M106.373 96.6033C105.681 97.2886 104.746 97.6748 103.771 97.6788L80.3835 97.7312C78.3396 97.7252 76.6843 96.0728 76.6782 94.0327C76.6741 93.0435 77.066 92.0938 77.7667 91.3943C78.4674 90.6949 79.4188 90.3038 80.4098 90.3078L103.693 90.2029C105.236 90.1514 106.65 91.0577 107.246 92.4797C107.841 93.9017 107.494 95.5432 106.373 96.6033V96.6033Z" fill="white"/>
<path d="M125.004 117.3C126.138 126.173 123.386 135.104 117.454 141.81C111.522 148.515 102.983 152.344 94.0215 152.318L74.3651 152.266C57.4345 152.323 43.5749 138.838 43.1986 121.943C61.0944 110.48 89.3176 101.036 125.004 117.3Z" fill="#F1CFE2"/>
</g>
<defs>
<clipPath id="clip0">
<rect width="544" height="384" fill="white"/>
</clipPath>
</defs>
</svg>
