<svg width="1366" height="668" viewBox="0 0 1366 668" fill="none" xmlns="http://www.w3.org/2000/svg">
<g clip-path="url(#clip0)">
<rect width="1366" height="668" fill="#050216"/>
<rect width="1366" height="672" fill="url(#paint0_linear)"/>
<path d="M287.811 383.906C268.848 581.76 402.083 729.767 471.07 779.039L-217.024 778.109L-223 -220.885L75.5058 -217.625C0.59225 -170.438 200.627 -19.1619 226.024 16.5103C254.521 56.5369 306.774 186.053 287.811 383.906Z" fill="#050216"/>
<path d="M433.262 587.311L428.906 579.771L420.999 575.682L428.857 571.496L433.122 563.908L437.479 571.445L445.387 575.536L437.529 579.72L433.262 587.311Z" fill="#F4F4F4"/>
<path d="M242.952 451.172L238.616 443.667L230.744 439.596L238.567 435.431L242.813 427.874L247.149 435.38L255.018 439.451L247.198 443.615L242.952 451.172Z" fill="#F4F4F4"/>
<path d="M106.317 357.768L99.8493 346.574L88.1108 340.501L99.7758 334.289L106.11 323.018L112.578 334.212L124.319 340.285L112.651 346.498L106.317 357.768Z" fill="#F4F4F4"/>
<path d="M542.519 116.153L535.627 104.223L523.116 97.751L535.548 91.1302L542.298 79.1184L549.191 91.0486L561.704 97.5201L549.269 104.141L542.519 116.153Z" fill="#F4F4F4"/>
<path d="M57.7323 175.218L55.3961 171.177L51.1575 168.984L55.3696 166.74L57.6572 162.671L59.9961 166.712L64.2348 168.906L60.0227 171.15L57.7323 175.218Z" fill="#F4F4F4"/>
<path d="M353.867 256.532L351.531 252.489L347.292 250.295L351.505 248.051L353.792 243.982L356.128 248.024L360.367 250.217L356.155 252.461L353.867 256.532Z" fill="#F4F4F4"/>
<path d="M53.4254 548.228L48.3861 539.506L39.2379 534.774L48.3289 529.934L53.2635 521.155L58.3054 529.874L67.4482 534.606L58.3627 539.446L53.4254 548.228Z" fill="#F4F4F4"/>
<path d="M199.121 646.219L189.258 629.154L171.359 619.896L189.146 610.422L198.804 593.24L208.665 610.305L226.567 619.566L208.777 629.037L199.121 646.219Z" fill="#F4F4F4"/>
<path d="M2.82383 109.034L-5.40951 94.7853L-20.3516 87.0526L-5.50306 79.1469L2.55924 64.8009L10.7924 79.0494L25.7373 86.7769L10.886 94.6878L2.82383 109.034Z" fill="#F4F4F4"/>
<path d="M387.626 98.5293C387.691 98.3901 387.745 98.2456 387.791 98.0986C387.723 98.2379 387.68 98.3849 387.626 98.5293Z" fill="#122220"/>
<path d="M91.5167 166.53C91.46 166.234 91.4226 165.933 91.4153 165.624C91.4775 165.928 91.4874 166.229 91.5167 166.53Z" fill="#122220"/>
<path d="M410.812 361V340.875H430.938V361H410.812ZM531.562 361V320.75H511.438V361H491.312V320.75H471.188V361H451.062V300.625H551.688V361H531.562ZM591.938 300.625V361H571.812V300.625H591.938ZM652.312 320.75V361H612.062V340.875H632.188V300.625H672.438V320.75H652.312ZM712.688 320.75V361H672.438V340.875H692.562V300.625H732.812V320.75H712.688ZM773.062 300.625V361H752.938V300.625H773.062ZM793.188 361V300.625H853.562V361H793.188ZM833.438 320.75H813.312V340.875H833.438V320.75ZM913.938 361V320.75H893.812V361H873.688V300.625H934.062V361H913.938Z" fill="white"/>
</g>
<defs>
<linearGradient id="paint0_linear" x1="-4.37103e-07" y1="67.5" x2="616.5" y2="280" gradientUnits="userSpaceOnUse">
<stop/>
<stop offset="1" stop-opacity="0"/>
</linearGradient>
<clipPath id="clip0">
<rect width="1366" height="668" fill="white"/>
</clipPath>
</defs>
</svg>
