<svg width="792" height="640" viewBox="0 0 792 640" fill="none" xmlns="http://www.w3.org/2000/svg">
<g clip-path="url(#clip0)">
<rect width="792" height="640" fill="white"/>
<rect width="792" height="640" fill="#050216"/>
<path d="M-31 252.5L-50.4995 -8.50048L635.388 -329L1104.2 139.812L486.189 757.823L-31 252.5Z" fill="url(#paint0_linear)"/>
<path d="M527.144 476.156C626.773 569.496 764.861 556.37 821.452 538.14L524.281 924.924L-22.6229 510.875L72 353.5C122.5 399 226.877 355.926 300.319 357.412C373.761 358.899 427.514 382.817 527.144 476.156Z" fill="#050216"/>
<path d="M449.532 584.194L446.848 582.214L443.445 581.988L445.563 579.315L445.899 575.997L448.584 577.977L451.987 578.203L449.868 580.875L449.532 584.194Z" fill="#F4F4F4"/>
<path d="M561.032 337.597L558.474 339.737L557.452 342.991L555.354 340.302L552.209 339.192L554.766 337.051L555.789 333.797L557.886 336.487L561.032 337.597Z" fill="#F4F4F4"/>
<path d="M245.112 474.981L241.127 472.041L236.075 471.705L239.22 467.737L239.718 462.809L243.704 465.75L248.757 466.085L245.611 470.053L245.112 474.981Z" fill="#F4F4F4"/>
<path d="M371 480.187L369.56 479.125L367.735 479.003L368.871 477.57L369.052 475.791L370.491 476.853L372.315 476.974L371.18 478.407L371 480.187Z" fill="#F4F4F4"/>
<path d="M376.326 640.735L370.249 636.252L362.545 635.742L367.341 629.691L368.102 622.178L374.178 626.661L381.883 627.172L377.086 633.222L376.326 640.735Z" fill="#F4F4F4"/>
<path d="M570.345 482.681L564.555 487.529L562.24 494.894L557.492 488.806L550.371 486.293L556.162 481.447L558.477 474.08L563.224 480.17L570.345 482.681Z" fill="#F4F4F4"/>
<path d="M358.661 419.53C358.662 419.471 358.659 419.412 358.653 419.353C358.65 419.413 358.658 419.471 358.661 419.53Z" fill="#122220"/>
<path d="M265.085 488.753C265.02 488.657 264.96 488.557 264.91 488.449C264.979 488.547 265.028 488.651 265.085 488.753Z" fill="#122220"/>
<path d="M264.044 166.652L264.052 164.455L262.848 162.56L265.092 162.645L266.986 161.532L266.979 163.728L268.182 165.624L265.938 165.539L264.044 166.652Z" fill="#F4F4F4"/>
<path d="M230.47 49.1968L230.488 44.1772L227.738 39.847L232.864 40.0415L237.19 37.5002L237.173 42.5173L239.923 46.8476L234.797 46.653L230.47 49.1968Z" fill="#F4F4F4"/>
<path d="M287.044 89.6524L287.052 87.4551L285.848 85.5595L288.092 85.6447L289.986 84.5322L289.979 86.7284L291.182 88.624L288.938 88.5388L287.044 89.6524Z" fill="#F4F4F4"/>
<path d="M281.814 329V320.625H290.189V329H281.814ZM332.064 329V312.25H323.689V329H315.314V312.25H306.939V329H298.564V303.875H340.439V329H332.064ZM357.189 303.875V329H348.814V303.875H357.189ZM382.314 312.25V329H365.564V320.625H373.939V303.875H390.689V312.25H382.314ZM407.439 312.25V329H390.689V320.625H399.064V303.875H415.814V312.25H407.439ZM432.564 303.875V329H424.189V303.875H432.564ZM440.939 329V303.875H466.064V329H440.939ZM457.689 312.25H449.314V320.625H457.689V312.25ZM491.189 329V312.25H482.814V329H474.439V303.875H499.564V329H491.189Z" fill="white"/>
</g>
<defs>
<linearGradient id="paint0_linear" x1="64.4674" y1="336.102" x2="428.11" y2="105.33" gradientUnits="userSpaceOnUse">
<stop/>
<stop offset="1" stop-opacity="0"/>
</linearGradient>
<clipPath id="clip0">
<rect width="792" height="640" fill="white"/>
</clipPath>
</defs>
</svg>
