<svg width="360" height="640" viewBox="0 0 360 640" fill="none" xmlns="http://www.w3.org/2000/svg">
<g clip-path="url(#clip0)">
<rect width="360" height="640" fill="white"/>
<rect width="360" height="640" fill="#050216"/>
<rect x="-198" y="285.011" width="874" height="663" transform="rotate(-45 -198 285.011)" fill="url(#paint0_linear)"/>
<path d="M311.766 472.156C411.396 565.495 549.484 552.37 606.074 534.14L308.904 920.923L-238 506.875L-107.527 340.276C-114.114 402.143 11.5 351.926 84.942 353.412C158.384 354.898 212.136 378.817 311.766 472.156Z" fill="#050216"/>
<path d="M234.154 580.195L231.47 578.215L228.067 577.989L230.186 575.316L230.522 571.998L233.206 573.978L236.61 574.204L234.491 576.876L234.154 580.195Z" fill="#F4F4F4"/>
<path d="M345.654 333.598L343.096 335.738L342.074 338.992L339.976 336.302L336.831 335.193L339.389 333.052L340.412 329.797L342.508 332.488L345.654 333.598Z" fill="#F4F4F4"/>
<path d="M29.735 470.982L25.7494 468.042L20.6971 467.706L23.8424 463.738L24.3409 458.81L28.3264 461.751L33.3797 462.086L30.2334 466.054L29.735 470.982Z" fill="#F4F4F4"/>
<path d="M155.622 476.188L154.182 475.126L152.358 475.004L153.494 473.571L153.674 471.792L155.113 472.854L156.938 472.975L155.802 474.408L155.622 476.188Z" fill="#F4F4F4"/>
<path d="M160.948 636.736L154.871 632.253L147.168 631.743L151.964 625.692L152.725 618.179L158.801 622.662L166.506 623.173L161.708 629.223L160.948 636.736Z" fill="#F4F4F4"/>
<path d="M354.967 478.682L349.177 483.53L346.863 490.895L342.115 484.807L334.994 482.294L340.784 477.448L343.099 470.081L347.846 476.171L354.967 478.682Z" fill="#F4F4F4"/>
<path d="M143.283 415.531C143.285 415.472 143.282 415.413 143.275 415.354C143.273 415.414 143.28 415.472 143.283 415.531Z" fill="#122220"/>
<path d="M49.7074 484.754C49.6421 484.658 49.5827 484.558 49.5327 484.45C49.6012 484.548 49.6509 484.652 49.7074 484.754Z" fill="#122220"/>
<path d="M48.6673 162.652L48.675 160.455L47.4712 158.56L49.7151 158.645L51.6088 157.532L51.6016 159.728L52.8054 161.624L50.5615 161.539L48.6673 162.652Z" fill="#F4F4F4"/>
<path d="M15.0929 45.1968L15.1107 40.1772L12.3606 35.847L17.4866 36.0415L21.8126 33.5002L21.7961 38.5173L24.5461 42.8476L19.4201 42.653L15.0929 45.1968Z" fill="#F4F4F4"/>
<path d="M71.6673 85.6524L71.675 83.4551L70.4712 81.5595L72.7151 81.6447L74.6088 80.5322L74.6016 82.7284L75.8054 84.624L73.5615 84.5388L71.6673 85.6524Z" fill="#F4F4F4"/>
<path d="M91.5625 325V316.625H99.9375V325H91.5625ZM125.062 308.25V325H108.312V316.625H116.688V299.875H133.438V308.25H125.062ZM158.562 308.25V325H150.188V308.25H141.812V299.875H166.938V308.25H158.562ZM175.312 325V299.875H200.438V325H175.312ZM192.062 308.25H183.688V316.625H192.062V308.25ZM217.188 308.25V325H208.812V299.875H225.562V308.25H217.188ZM250.688 316.625V325H242.312V316.625H233.938V299.875H242.312V308.25H250.688V299.875H259.062V316.625H250.688Z" fill="white"/>
</g>
<defs>
<linearGradient id="paint0_linear" x1="-198" y1="351.607" x2="222.314" y2="445.562" gradientUnits="userSpaceOnUse">
<stop/>
<stop offset="1" stop-opacity="0"/>
</linearGradient>
<clipPath id="clip0">
<rect width="360" height="640" fill="white"/>
</clipPath>
</defs>
</svg>
