<svg width="1366" height="668" viewBox="0 0 1366 668" fill="none" xmlns="http://www.w3.org/2000/svg">
<path d="M1048.48 223.237C1053.02 221.432 1056.27 217.346 1057 212.508L1067.78 140.571C1068.81 133.74 1064.61 127.206 1057.97 125.303L1025.87 114.849L1028.3 229.976C1035.29 228.63 1042.08 226.363 1048.48 223.237Z" fill="#2C3E50"/>
<g filter="url(#filter0_d)">
<path d="M941.189 275.321C941.175 279.812 941.683 284.289 942.702 288.663C981.142 295.334 1020.44 295.334 1058.88 288.663C1063.06 270.436 1058.44 251.305 1046.41 236.991C1011.02 194.718 941.189 219.522 941.189 275.321Z" fill="#F29C1F"/>
</g>
<path d="M941.877 266.38C943.872 273.202 950.129 277.889 957.236 277.888C966.057 277.789 973.184 270.662 973.283 261.841V270.736C973.178 278.438 978.472 285.166 985.983 286.875C990.752 287.91 995.732 286.713 999.509 283.623C1003.29 280.534 1005.45 275.89 1005.38 271.011V241.255C1005.31 239.097 1006.77 237.187 1008.86 236.67C1030.82 231.214 1032.84 231.352 1036.78 227.5C1019.99 214.805 997.736 211.914 978.251 219.896C958.767 227.878 944.94 245.548 941.877 266.38Z" fill="#E57E25"/>
<g filter="url(#filter1_d)">
<path d="M942.702 288.663C948.921 315.735 973.015 334.922 1000.79 334.922C1028.57 334.922 1052.66 315.735 1058.88 288.663C1020.44 295.311 981.144 295.311 942.702 288.663Z" fill="#F29C1F"/>
</g>
<g filter="url(#filter2_d)">
<path d="M886.17 275.321C886.17 296.045 916.614 308.47 954.943 313.651C985.232 317.546 1015.89 317.546 1046.18 313.651C1084.97 308.47 1115.42 296.045 1115.42 275.321C1115.42 254.597 1084.97 242.172 1046.41 236.991C1050.74 242.126 1054.16 247.954 1056.54 254.23C1103.54 262.896 1104.59 279.906 1058.88 288.663C1020.44 295.311 981.144 295.311 942.702 288.663C898.962 280.181 897.357 264.042 941.189 254.964V239.283C909.507 245.381 886.17 256.981 886.17 275.321V275.321Z" fill="#F9EAB0"/>
</g>
<path d="M941.189 208.84C941.189 257.577 940.593 256.981 942.793 261.566C944.599 265.413 947.869 268.377 951.874 269.798C955.879 271.219 960.286 270.979 964.113 269.131C969.68 266.466 973.239 260.86 973.283 254.689V263.4C973.178 271.103 978.472 277.83 985.983 279.539C990.72 280.567 995.667 279.392 999.437 276.344C1003.21 273.297 1005.39 268.705 1005.38 263.858V234.057C1005.31 231.898 1006.77 229.989 1008.86 229.472C1032.11 223.695 1030.14 224.245 1031.1 223.878C1037.55 221.636 1041.92 215.619 1042.06 208.794V158.681L969.707 153.546L945.269 198.157C942.636 201.091 941.182 204.897 941.189 208.84V208.84Z" fill="#35495E"/>
<path d="M964.113 211.132V269.131C969.71 266.501 973.284 260.873 973.283 254.689C973.283 206.41 972.687 208.84 974.979 205.126C975.779 203.035 974.951 200.672 973.021 199.537C971.092 198.402 968.624 198.826 967.185 200.541C965.215 203.725 964.153 207.388 964.113 211.132V211.132Z" fill="#2C3E50"/>
<path d="M1106.25 188.208C1108.78 188.208 1110.83 186.155 1110.83 183.623V165.283C1110.83 162.751 1108.78 160.698 1106.25 160.698C1103.71 160.698 1101.66 162.751 1101.66 165.283V183.623C1101.66 186.155 1103.71 188.208 1106.25 188.208Z" fill="#F0C419"/>
<path d="M1097.08 179.038H1115.42C1117.95 179.038 1120 176.985 1120 174.453C1120 171.921 1117.95 169.868 1115.42 169.868H1097.08C1094.54 169.868 1092.49 171.921 1092.49 174.453C1092.49 176.985 1094.54 179.038 1097.08 179.038Z" fill="#F0C419"/>
<path d="M890.754 105.68C893.287 105.68 895.339 103.627 895.339 101.095V82.7551C895.339 80.2229 893.287 78.1702 890.754 78.1702C888.222 78.1702 886.17 80.2229 886.17 82.7551V101.095C886.17 103.627 888.222 105.68 890.754 105.68Z" fill="#F0C419"/>
<path d="M881.585 96.5097H899.924C902.457 96.5097 904.509 94.4569 904.509 91.9247C904.509 89.3926 902.457 87.3398 899.924 87.3398H881.585C879.053 87.3398 877 89.3926 877 91.9247C877 94.4569 879.053 96.5097 881.585 96.5097Z" fill="#F0C419"/>
<path d="M1040.04 144.33C1041.83 147.31 1041.78 148.594 1043.11 156.755C1046.09 174.622 1037.07 192.344 1020.87 200.449C991.072 215.304 991.302 215.717 987.038 215.717C982.069 215.713 977.488 213.029 975.055 208.696C972.623 204.362 972.716 199.054 975.3 194.81C978.051 190.225 981.49 189.399 992.861 183.668L1008.54 175.828C1012.47 173.872 1015.23 170.159 1015.97 165.833L1040.04 144.33Z" fill="#3F5C6C"/>
<path d="M977.868 166.429C966.956 190.5 976.584 193.939 972.182 203.429C966.451 215.992 937.704 217.184 945.911 175.003C947.424 167.071 950.175 155.792 956.548 150.336L977.868 166.429Z" fill="#3F5C6C"/>
<path d="M909.094 229.472C911.626 229.472 913.679 227.419 913.679 224.887V206.547C913.679 204.015 911.626 201.962 909.094 201.962C906.562 201.962 904.509 204.015 904.509 206.547V224.887C904.509 227.419 906.562 229.472 909.094 229.472Z" fill="#F0C419"/>
<path d="M899.925 220.302H918.264C920.796 220.302 922.849 218.249 922.849 215.717C922.849 213.185 920.796 211.132 918.264 211.132H899.925C897.392 211.132 895.34 213.185 895.34 215.717C895.34 218.249 897.392 220.302 899.925 220.302Z" fill="#F0C419"/>
<path d="M1046.64 119.434C1046.64 147.288 1024.06 169.868 996.208 169.868C968.354 169.868 945.774 147.288 945.774 119.434C945.774 91.5801 968.354 69 996.208 69C1024.06 69 1046.64 91.5801 1046.64 119.434Z" fill="#547580"/>
<path d="M952.147 143.963C971.036 155.746 999.509 153.454 1014.55 139.149C1036.74 118.196 1016.47 87.3394 980.16 87.3394C970.3 87.1987 960.596 89.8191 952.147 94.9045C943.657 110.156 943.657 128.712 952.147 143.963Z" fill="#F0C419"/>
<path d="M959.528 124.019C962.06 124.019 964.113 121.966 964.113 119.434C964.113 105.679 981.719 105.679 982.453 105.679C984.985 105.679 987.038 103.627 987.038 101.094C987.038 98.5623 984.985 96.5095 982.453 96.5095C972.916 96.5095 954.943 101.094 954.943 119.434C954.943 121.966 956.996 124.019 959.528 124.019Z" fill="#F9EAB0"/>
<path d="M947.653 133.189C948.752 136.978 950.29 140.625 952.238 144.055C965.734 151.882 981.872 153.758 996.804 149.236C1020.14 142.175 1030.09 122.185 1019.73 106.046C1005.15 123.056 981.765 139.195 947.653 133.189Z" fill="#F29C1F"/>
<defs>
<filter id="filter0_d" x="919.188" y="193.707" width="163.203" height="121.959" filterUnits="userSpaceOnUse" color-interpolation-filters="sRGB">
<feFlood flood-opacity="0" result="BackgroundImageFix"/>
<feColorMatrix in="SourceAlpha" type="matrix" values="0 0 0 0 0 0 0 0 0 0 0 0 0 0 0 0 0 0 127 0"/>
<feOffset/>
<feGaussianBlur stdDeviation="11"/>
<feColorMatrix type="matrix" values="0 0 0 0 1 0 0 0 0 0.668103 0 0 0 0 0 0 0 0 0.5 0"/>
<feBlend mode="normal" in2="BackgroundImageFix" result="effect1_dropShadow"/>
<feBlend mode="normal" in="SourceGraphic" in2="effect1_dropShadow" result="shape"/>
</filter>
<filter id="filter1_d" x="920.702" y="266.663" width="160.182" height="90.2593" filterUnits="userSpaceOnUse" color-interpolation-filters="sRGB">
<feFlood flood-opacity="0" result="BackgroundImageFix"/>
<feColorMatrix in="SourceAlpha" type="matrix" values="0 0 0 0 0 0 0 0 0 0 0 0 0 0 0 0 0 0 127 0"/>
<feOffset/>
<feGaussianBlur stdDeviation="11"/>
<feColorMatrix type="matrix" values="0 0 0 0 1 0 0 0 0 0.668103 0 0 0 0 0 0 0 0 0.5 0"/>
<feBlend mode="normal" in2="BackgroundImageFix" result="effect1_dropShadow"/>
<feBlend mode="normal" in="SourceGraphic" in2="effect1_dropShadow" result="shape"/>
</filter>
<filter id="filter2_d" x="864.17" y="214.991" width="273.245" height="123.581" filterUnits="userSpaceOnUse" color-interpolation-filters="sRGB">
<feFlood flood-opacity="0" result="BackgroundImageFix"/>
<feColorMatrix in="SourceAlpha" type="matrix" values="0 0 0 0 0 0 0 0 0 0 0 0 0 0 0 0 0 0 127 0"/>
<feOffset/>
<feGaussianBlur stdDeviation="11"/>
<feColorMatrix type="matrix" values="0 0 0 0 1 0 0 0 0 0.668103 0 0 0 0 0 0 0 0 0.5 0"/>
<feBlend mode="normal" in2="BackgroundImageFix" result="effect1_dropShadow"/>
<feBlend mode="normal" in="SourceGraphic" in2="effect1_dropShadow" result="shape"/>
</filter>
</defs>
</svg>
