<svg width="1366" height="668" viewBox="0 0 1366 668" fill="none" xmlns="http://www.w3.org/2000/svg">
<g clip-path="url(#clip0)">
<path d="M1017.83 -4.52283C1017.11 -6.80131 1013.89 -6.80131 1013.17 -4.52283L1010.98 2.38542C1010.74 3.14484 1010.15 3.73979 1009.39 3.98021L1002.48 6.16669C1000.2 6.88793 1000.2 10.1121 1002.48 10.8333L1009.39 13.0198C1010.15 13.2602 1010.74 13.8552 1010.98 14.6146L1013.17 21.5229C1013.89 23.8014 1017.11 23.8014 1017.83 21.5229L1020.02 14.6146C1020.26 13.8552 1020.86 13.2602 1021.61 13.0198L1028.52 10.8333C1030.8 10.1121 1030.8 6.88793 1028.52 6.16669L1021.61 3.98021C1020.86 3.73979 1020.26 3.14484 1020.02 2.38542L1017.83 -4.52283Z" fill="white"/>
<path d="M1113.93 52.5183C1113.49 51.1218 1111.51 51.1218 1111.07 52.5183L1109.73 56.7524C1109.58 57.2179 1109.22 57.5825 1108.75 57.7299L1104.52 59.07C1103.12 59.512 1103.12 61.4881 1104.52 61.9302L1108.75 63.2703C1109.22 63.4176 1109.58 63.7823 1109.73 64.2477L1111.07 68.4818C1111.51 69.8783 1113.49 69.8783 1113.93 68.4818L1115.27 64.2477C1115.42 63.7823 1115.78 63.4176 1116.25 63.2703L1120.48 61.9302C1121.88 61.4881 1121.88 59.512 1120.48 59.07L1116.25 57.7299C1115.78 57.5825 1115.42 57.2179 1115.27 56.7524L1113.93 52.5183Z" fill="white"/>
<path d="M1304.93 123.518C1304.49 122.122 1302.51 122.122 1302.07 123.518L1300.73 127.752C1300.58 128.218 1300.22 128.583 1299.75 128.73L1295.52 130.07C1294.12 130.512 1294.12 132.488 1295.52 132.93L1299.75 134.27C1300.22 134.418 1300.58 134.782 1300.73 135.248L1302.07 139.482C1302.51 140.878 1304.49 140.878 1304.93 139.482L1306.27 135.248C1306.42 134.782 1306.78 134.418 1307.25 134.27L1311.48 132.93C1312.88 132.488 1312.88 130.512 1311.48 130.07L1307.25 128.73C1306.78 128.583 1306.42 128.218 1306.27 127.752L1304.93 123.518Z" fill="white"/>
<circle cx="1343.5" cy="100.5" r="3.5" fill="white"/>
<path d="M811.834 406.477C811.112 404.199 807.888 404.199 807.167 406.477L804.98 413.385C804.74 414.145 804.145 414.74 803.386 414.98L796.477 417.167C794.199 417.888 794.199 421.112 796.477 421.833L803.386 424.02C804.145 424.26 804.74 424.855 804.98 425.615L807.167 432.523C807.888 434.801 811.112 434.801 811.834 432.523L814.02 425.615C814.26 424.855 814.855 424.26 815.615 424.02L822.523 421.833C824.802 421.112 824.802 417.888 822.523 417.167L815.615 414.98C814.855 414.74 814.26 414.145 814.02 413.385L811.834 406.477Z" fill="white"/>
<path d="M907.93 463.518C907.488 462.122 905.512 462.122 905.07 463.518L903.73 467.752C903.583 468.218 903.218 468.583 902.753 468.73L898.518 470.07C897.122 470.512 897.122 472.488 898.518 472.93L902.753 474.27C903.218 474.418 903.583 474.782 903.73 475.248L905.07 479.482C905.512 480.878 907.488 480.878 907.93 479.482L909.27 475.248C909.418 474.782 909.782 474.418 910.248 474.27L914.482 472.93C915.878 472.488 915.878 470.512 914.482 470.07L910.248 468.73C909.782 468.583 909.418 468.218 909.27 467.752L907.93 463.518Z" fill="white"/>
<path d="M996.752 420.799C996.52 420.064 995.48 420.064 995.247 420.799L994.542 423.028C994.464 423.272 994.272 423.464 994.027 423.542L991.799 424.247C991.064 424.48 991.064 425.52 991.799 425.753L994.027 426.458C994.272 426.536 994.464 426.727 994.542 426.972L995.247 429.201C995.48 429.936 996.52 429.936 996.752 429.201L997.458 426.972C997.535 426.727 997.727 426.536 997.972 426.458L1000.2 425.753C1000.94 425.52 1000.94 424.48 1000.2 424.247L997.972 423.542C997.727 423.464 997.535 423.272 997.458 423.028L996.752 420.799Z" fill="white"/>
<circle cx="946.5" cy="440.5" r="3.5" fill="white"/>
<circle cx="1013.5" cy="482.5" r="1.5" fill="white"/>
<circle cx="1037.5" cy="368.5" r="1.5" fill="white"/>
<circle cx="748" cy="311" r="2" fill="white"/>
<circle cx="716.5" cy="365.5" r="1.5" fill="white"/>
</g>
<defs>
<clipPath id="clip0">
<rect width="1366" height="668" fill="white"/>
</clipPath>
</defs>
</svg>
