<svg width="815" height="289" viewBox="0 0 815 289" fill="none" xmlns="http://www.w3.org/2000/svg">
<g clip-path="url(#clip0)">
<path d="M55.2 44.4V66.56C55.2 68.48 54.64 69.9467 53.52 70.96C52.4267 71.9467 50.88 72.44 48.88 72.44C48.4 72.44 47.8267 72.4133 47.16 72.36C46.52 72.3067 45.8933 72.2267 45.28 72.12C44.6667 72.0133 44.1733 71.8667 43.8 71.68L44.48 67.72H46.4C48.24 67.72 49.16 66.9733 49.16 65.48V44.4H55.2ZM82.7228 44.4V61C82.7228 63.8 82.3628 66.0533 81.6428 67.76C80.9495 69.44 79.8161 70.6533 78.2428 71.4C76.6695 72.1467 74.5628 72.52 71.9228 72.52C69.1228 72.52 66.8828 72.1467 65.2028 71.4C63.5228 70.6533 62.3095 69.44 61.5628 67.76C60.8428 66.0533 60.4828 63.8 60.4828 61V44.4H66.5628V61C66.5628 62.7333 66.7095 64.0933 67.0028 65.08C67.3228 66.04 67.8428 66.72 68.5628 67.12C69.3095 67.52 70.3228 67.72 71.6028 67.72C72.8561 67.72 73.8428 67.52 74.5628 67.12C75.3095 66.72 75.8428 66.04 76.1628 65.08C76.4828 64.0933 76.6428 62.7333 76.6428 61V44.4H82.7228ZM98.6647 44C101.225 44 103.238 44.2667 104.705 44.8C106.198 45.3333 107.251 46.2533 107.865 47.56C108.505 48.8667 108.825 50.6933 108.825 53.04C108.825 55.3867 108.518 57.2133 107.905 58.52C107.318 59.8267 106.331 60.7333 104.945 61.24C103.585 61.7467 101.758 62.0133 99.4647 62.04C98.558 62.0133 97.6514 61.9733 96.7447 61.92C95.8647 61.8667 95.0114 61.8 94.1847 61.72V72H88.1047V44.4C89.198 44.2933 90.238 44.2133 91.2247 44.16C92.2114 44.1067 93.278 44.0667 94.4247 44.04C95.598 44.0133 97.0114 44 98.6647 44ZM98.5447 48.6C97.7447 48.6 96.9714 48.6 96.2247 48.6C95.5047 48.6 94.8247 48.6 94.1847 48.6V57.44H98.5447C100.145 57.44 101.238 57.1467 101.825 56.56C102.411 55.9733 102.705 54.8 102.705 53.04C102.705 51.28 102.411 50.1067 101.825 49.52C101.238 48.9067 100.145 48.6 98.5447 48.6ZM118.911 44.4V72H112.831V44.4H118.911ZM145.072 44.4V49.2H136.752V72H130.672V49.2H122.352V44.4H145.072ZM154.214 44.28C156.374 44.28 158.614 44.3067 160.934 44.36C163.254 44.3867 165.374 44.4933 167.294 44.68L167.014 49.12H156.414C155.081 49.12 154.414 49.8 154.414 51.16V55.48H165.534V59.8H154.414V65.24C154.414 66.6 155.081 67.28 156.414 67.28H167.014L167.294 71.72C165.374 71.9067 163.254 72.0133 160.934 72.04C158.614 72.0667 156.374 72.08 154.214 72.08C152.454 72.08 151.028 71.5867 149.934 70.6C148.841 69.5867 148.294 68.24 148.294 66.56V49.84C148.294 48.16 148.841 46.8133 149.934 45.8C151.028 44.7867 152.454 44.28 154.214 44.28ZM182.259 44C184.686 44 186.646 44.2533 188.139 44.76C189.659 45.24 190.766 46.08 191.459 47.28C192.179 48.4533 192.539 50.0933 192.539 52.2C192.539 54.1467 192.139 55.72 191.339 56.92C190.566 58.0933 189.193 58.8 187.219 59.04V59.24C187.939 59.4 188.699 59.7867 189.499 60.4C190.299 60.9867 190.859 61.9867 191.179 63.4L193.579 72H187.179L185.059 63.56C184.793 62.68 184.419 62.0667 183.939 61.72C183.486 61.3733 182.846 61.2 182.019 61.2C180.259 61.2 178.806 61.1867 177.659 61.16V72H171.659V44.4C172.753 44.2933 173.793 44.2133 174.779 44.16C175.766 44.1067 176.846 44.0667 178.019 44.04C179.193 44.0133 180.606 44 182.259 44ZM182.139 48.6C180.513 48.6 179.019 48.6 177.659 48.6V56.6H182.139C183.766 56.6 184.886 56.3333 185.499 55.8C186.113 55.24 186.419 54.16 186.419 52.56C186.419 50.9867 186.113 49.9333 185.499 49.4C184.886 48.8667 183.766 48.6 182.139 48.6Z" fill="#0BD6D6"/>
<path d="M251 57.2963H294M294 57.2963L276.635 41M294 57.2963L276.635 74" stroke="white" stroke-width="2"/>
<path d="M363.604 48.856H356.52V67H354.56V48.856H347.476V47.12H363.604V48.856ZM366.582 67V47.12H368.542V67H366.582ZM391.139 67V50.816L383.943 63.388H382.711L375.487 50.816V67H373.527V47.12H375.543L383.299 60.728L391.111 47.12H393.099V67H391.139ZM444.957 47.12H446.609L454.869 67H452.797L450.221 60.784H441.289L438.741 67H436.641L444.957 47.12ZM449.773 59.244L445.769 49.416L441.709 59.244H449.773ZM457.719 67V47.12H466.119C466.977 47.12 467.761 47.2973 468.471 47.652C469.199 48.0067 469.824 48.492 470.347 49.108C470.869 49.7053 471.271 50.3773 471.551 51.124C471.849 51.852 471.999 52.5987 471.999 53.364C471.999 54.3347 471.812 55.24 471.439 56.08C471.084 56.92 470.571 57.6293 469.899 58.208C469.227 58.7867 468.452 59.16 467.575 59.328L472.447 67H470.235L465.559 59.664H459.679V67H457.719ZM459.679 57.928H466.175C466.959 57.928 467.64 57.7133 468.219 57.284C468.797 56.836 469.245 56.2667 469.563 55.576C469.88 54.8853 470.039 54.148 470.039 53.364C470.039 52.5613 469.852 51.824 469.479 51.152C469.124 50.4613 468.639 49.9107 468.023 49.5C467.407 49.0707 466.735 48.856 466.007 48.856H459.679V57.928ZM482.09 47.12H483.742L492.002 67H489.93L487.354 60.784H478.422L475.874 67H473.774L482.09 47.12ZM486.906 59.244L482.902 49.416L478.842 59.244H486.906ZM501.113 67V47.12H507.861C509.97 47.12 511.725 47.568 513.125 48.464C514.544 49.3413 515.608 50.536 516.317 52.048C517.026 53.5413 517.381 55.2027 517.381 57.032C517.381 59.048 516.989 60.8027 516.205 62.296C515.421 63.7893 514.32 64.9467 512.901 65.768C511.482 66.5893 509.802 67 507.861 67H501.113ZM515.421 57.032C515.421 55.4453 515.122 54.036 514.525 52.804C513.946 51.572 513.088 50.6107 511.949 49.92C510.829 49.2107 509.466 48.856 507.861 48.856H503.073V65.264H507.861C509.504 65.264 510.885 64.9 512.005 64.172C513.125 63.444 513.974 62.464 514.553 61.232C515.132 60 515.421 58.6 515.421 57.032ZM526.578 47.12H528.23L536.49 67H534.418L531.842 60.784H522.91L520.362 67H518.262L526.578 47.12ZM531.394 59.244L527.39 49.416L523.33 59.244H531.394ZM541.3 50.732V67H539.34V47.12H540.964L554.012 63.696V47.148H555.972V67H554.152L541.3 50.732ZM591.711 47.12H593.363L601.623 67H599.551L596.975 60.784H588.043L585.495 67H583.395L591.711 47.12ZM596.527 59.244L592.523 49.416L588.463 59.244H596.527ZM604.472 67V47.12H606.432V65.264H617.912V67H604.472ZM630.768 50.732V67H628.808V47.12H630.432L643.48 63.696V47.148H645.44V67H643.62L630.768 50.732ZM658.417 67.14C657.073 67.14 655.832 66.86 654.693 66.3C653.573 65.7213 652.593 64.9467 651.753 63.976C650.913 63.0053 650.26 61.9227 649.793 60.728C649.345 59.5147 649.121 58.2827 649.121 57.032C649.121 55.7067 649.345 54.4467 649.793 53.252C650.26 52.0387 650.904 50.9653 651.725 50.032C652.547 49.08 653.517 48.3333 654.637 47.792C655.757 47.2507 656.98 46.98 658.305 46.98C660.265 46.98 661.861 47.3813 663.093 48.184C664.325 48.9867 665.259 50.032 665.893 51.32L664.381 52.328C663.747 51.096 662.897 50.1907 661.833 49.612C660.769 49.0333 659.584 48.744 658.277 48.744C657.176 48.744 656.177 48.9773 655.281 49.444C654.404 49.9107 653.648 50.536 653.013 51.32C652.397 52.104 651.921 52.9907 651.585 53.98C651.249 54.9693 651.081 55.996 651.081 57.06C651.081 58.18 651.268 59.244 651.641 60.252C652.015 61.2413 652.537 62.128 653.209 62.912C653.9 63.6773 654.693 64.284 655.589 64.732C656.504 65.1613 657.493 65.376 658.557 65.376C659.696 65.376 660.779 65.1053 661.805 64.564C662.851 64.0227 663.849 63.1827 664.801 62.044V58.74H660.377V57.228H666.453V67H664.801V64.088C662.972 66.1227 660.844 67.14 658.417 67.14ZM677.617 67V47.12H685.849C686.708 47.12 687.492 47.2973 688.201 47.652C688.929 48.0067 689.554 48.492 690.077 49.108C690.618 49.7053 691.029 50.3773 691.309 51.124C691.608 51.852 691.757 52.5987 691.757 53.364C691.757 54.4467 691.514 55.4733 691.029 56.444C690.544 57.396 689.872 58.1707 689.013 58.768C688.154 59.3653 687.156 59.664 686.017 59.664H679.577V67H677.617ZM679.577 57.928H685.933C686.717 57.928 687.398 57.7133 687.977 57.284C688.556 56.8547 689.004 56.2947 689.321 55.604C689.638 54.9133 689.797 54.1667 689.797 53.364C689.797 52.5427 689.61 51.796 689.237 51.124C688.864 50.4333 688.369 49.8827 687.753 49.472C687.156 49.0613 686.493 48.856 685.765 48.856H679.577V57.928ZM695.035 67V47.12H696.995V67H695.035ZM703.94 50.732V67H701.98V47.12H703.604L716.652 63.696V47.148H718.612V67H716.792L703.94 50.732Z" fill="white"/>
<path d="M402.615 62.94C402.857 63.108 403.287 63.3133 403.903 63.556C404.519 63.78 405.247 63.892 406.087 63.892C407.076 63.892 407.823 63.6773 408.327 63.248C408.831 62.8 409.167 62.1093 409.335 61.176C409.503 60.2427 409.587 59.0293 409.587 57.536V47.12H413.451V57.228C413.451 58.7213 413.367 60.084 413.199 61.316C413.031 62.548 412.704 63.612 412.219 64.508C411.733 65.404 410.996 66.0947 410.007 66.58C409.036 67.0653 407.739 67.308 406.115 67.308C405.219 67.308 404.416 67.2053 403.707 67C402.997 66.7947 402.344 66.4867 401.747 66.076L402.615 62.94ZM425.805 67.14C424.218 67.14 422.865 66.8787 421.745 66.356C420.643 65.8147 419.747 65.0773 419.057 64.144C418.385 63.2107 417.89 62.156 417.573 60.98C417.255 59.7853 417.097 58.544 417.097 57.256V47.12H420.961V57.256C420.961 58.3573 421.11 59.4027 421.409 60.392C421.707 61.3813 422.211 62.184 422.921 62.8C423.63 63.416 424.582 63.724 425.777 63.724C427.009 63.724 427.979 63.416 428.689 62.8C429.398 62.1653 429.902 61.3533 430.201 60.364C430.499 59.3747 430.649 58.3387 430.649 57.256V47.12H434.485V57.256C434.485 58.6187 434.317 59.8973 433.981 61.092C433.663 62.2867 433.15 63.3413 432.441 64.256C431.75 65.152 430.854 65.8613 429.753 66.384C428.651 66.888 427.335 67.14 425.805 67.14ZM567.685 67V47.12H576.113C577.028 47.12 577.868 47.3067 578.633 47.68C579.417 48.0533 580.089 48.5573 580.649 49.192C581.209 49.8267 581.648 50.536 581.965 51.32C582.283 52.104 582.441 52.9067 582.441 53.728C582.441 54.848 582.18 55.912 581.657 56.92C581.135 57.928 580.407 58.7493 579.473 59.384C578.559 60.0187 577.485 60.336 576.253 60.336H571.549V67H567.685ZM571.549 56.948H576.029C576.739 56.948 577.327 56.6587 577.793 56.08C578.279 55.4827 578.521 54.6987 578.521 53.728C578.521 52.7013 578.251 51.908 577.709 51.348C577.168 50.788 576.552 50.508 575.861 50.508H571.549V56.948ZM620.377 67V47.12H624.241V67H620.377ZM738.057 50.508H731.701V67H727.865V50.508H721.509V47.12H738.057V50.508ZM754.329 63.612V67H740.525V47.12H754.077V50.508H744.389V55.296H752.761V58.432H744.389V63.612H754.329ZM757.342 67V47.12H766.134C767.048 47.12 767.888 47.3067 768.654 47.68C769.438 48.0533 770.11 48.5573 770.67 49.192C771.248 49.8267 771.687 50.536 771.986 51.32C772.303 52.104 772.462 52.9067 772.462 53.728C772.462 54.9973 772.135 56.164 771.482 57.228C770.847 58.292 769.979 59.0573 768.878 59.524L773.414 67H769.158L765.07 60.336H761.206V67H757.342ZM761.206 56.948H766.05C766.778 56.948 767.375 56.64 767.842 56.024C768.327 55.3893 768.57 54.624 768.57 53.728C768.57 53.112 768.439 52.5613 768.178 52.076C767.916 51.5907 767.58 51.208 767.17 50.928C766.778 50.648 766.348 50.508 765.882 50.508H761.206V56.948Z" fill="#0BD6D6"/>
<path d="M74.04 130.4C75.48 130.4 76.2267 131.147 76.28 132.64L77.32 158H71.68L70.76 135.08H70.04L65.6 152.32C65.3333 153.6 64.5333 154.24 63.2 154.24H59.36C58 154.24 57.1867 153.6 56.92 152.32L52.44 135.08H51.76L50.92 158H45.28L46.28 132.64C46.3333 131.147 47.0933 130.4 48.56 130.4H54.28C55.5867 130.4 56.3867 131.04 56.68 132.32L60.24 146.24C60.4 146.88 60.5333 147.533 60.64 148.2C60.7467 148.84 60.8667 149.493 61 150.16H61.52C61.6533 149.493 61.7733 148.84 61.88 148.2C61.9867 147.533 62.12 146.867 62.28 146.2L65.8 132.32C66.0667 131.04 66.88 130.4 68.24 130.4H74.04ZM95.5225 130.4C96.0292 130.4 96.4692 130.547 96.8425 130.84C97.2425 131.133 97.5092 131.52 97.6425 132L105.643 158H99.4025L97.3625 150.68H87.8425L85.8425 158H79.6025L87.6025 132C87.7358 131.52 87.9892 131.133 88.3625 130.84C88.7625 130.547 89.2158 130.4 89.7225 130.4H95.5225ZM91.4825 137.68L89.1225 146.12H96.0825L93.7625 137.68C93.6292 137.253 93.5092 136.813 93.4025 136.36C93.3225 135.88 93.2425 135.427 93.1625 135H92.0825C92.0025 135.427 91.9092 135.88 91.8025 136.36C91.6958 136.813 91.5892 137.253 91.4825 137.68ZM119.056 130C121.483 130 123.443 130.253 124.936 130.76C126.456 131.24 127.563 132.08 128.256 133.28C128.976 134.453 129.336 136.093 129.336 138.2C129.336 140.147 128.936 141.72 128.136 142.92C127.363 144.093 125.99 144.8 124.016 145.04V145.24C124.736 145.4 125.496 145.787 126.296 146.4C127.096 146.987 127.656 147.987 127.976 149.4L130.376 158H123.976L121.856 149.56C121.59 148.68 121.216 148.067 120.736 147.72C120.283 147.373 119.643 147.2 118.816 147.2C117.056 147.2 115.603 147.187 114.456 147.16V158H108.456V130.4C109.55 130.293 110.59 130.213 111.576 130.16C112.563 130.107 113.643 130.067 114.816 130.04C115.99 130.013 117.403 130 119.056 130ZM118.936 134.6C117.31 134.6 115.816 134.6 114.456 134.6V142.6H118.936C120.563 142.6 121.683 142.333 122.296 141.8C122.91 141.24 123.216 140.16 123.216 138.56C123.216 136.987 122.91 135.933 122.296 135.4C121.683 134.867 120.563 134.6 118.936 134.6ZM143.435 129.88C144.795 129.88 146.275 129.96 147.875 130.12C149.475 130.253 151.035 130.533 152.555 130.96L152.155 135.04C150.981 134.987 149.595 134.947 147.995 134.92C146.421 134.893 144.888 134.88 143.395 134.88C142.408 134.88 141.608 134.933 140.995 135.04C140.408 135.147 139.981 135.387 139.715 135.76C139.475 136.107 139.355 136.693 139.355 137.52C139.355 138.48 139.568 139.173 139.995 139.6C140.448 140.027 141.208 140.4 142.275 140.72L147.595 142.44C149.781 143.213 151.301 144.24 152.155 145.52C153.035 146.773 153.475 148.44 153.475 150.52C153.475 152.627 153.141 154.267 152.475 155.44C151.808 156.587 150.715 157.387 149.195 157.84C147.701 158.293 145.701 158.52 143.195 158.52C142.288 158.52 140.995 158.453 139.315 158.32C137.635 158.213 135.728 157.92 133.595 157.44L133.955 153.12C136.328 153.2 138.221 153.253 139.635 153.28C141.075 153.307 142.261 153.32 143.195 153.32C144.795 153.32 145.888 153.16 146.475 152.84C147.061 152.493 147.355 151.747 147.355 150.6C147.355 149.613 147.141 148.92 146.715 148.52C146.315 148.12 145.635 147.773 144.675 147.48L139.075 145.56C136.941 144.813 135.435 143.813 134.555 142.56C133.701 141.307 133.275 139.64 133.275 137.56C133.275 135.453 133.608 133.853 134.275 132.76C134.968 131.64 136.061 130.88 137.555 130.48C139.048 130.08 141.008 129.88 143.435 129.88Z" fill="#F0A036"/>
<path d="M251 143.296H294M294 143.296L276.635 127M294 143.296L276.635 160" stroke="white" stroke-width="2"/>
<path d="M363.604 134.856H356.52V153H354.56V134.856H347.476V133.12H363.604V134.856ZM366.582 153V133.12H368.542V153H366.582ZM391.139 153V136.816L383.943 149.388H382.711L375.487 136.816V153H373.527V133.12H375.543L383.299 146.728L391.111 133.12H393.099V153H391.139ZM466.469 153V133.12H474.869C475.727 133.12 476.511 133.297 477.221 133.652C477.949 134.007 478.574 134.492 479.097 135.108C479.619 135.705 480.021 136.377 480.301 137.124C480.599 137.852 480.749 138.599 480.749 139.364C480.749 140.335 480.562 141.24 480.189 142.08C479.834 142.92 479.321 143.629 478.649 144.208C477.977 144.787 477.202 145.16 476.325 145.328L481.197 153H478.985L474.309 145.664H468.429V153H466.469ZM468.429 143.928H474.925C475.709 143.928 476.39 143.713 476.969 143.284C477.547 142.836 477.995 142.267 478.313 141.576C478.63 140.885 478.789 140.148 478.789 139.364C478.789 138.561 478.602 137.824 478.229 137.152C477.874 136.461 477.389 135.911 476.773 135.5C476.157 135.071 475.485 134.856 474.757 134.856H468.429V143.928ZM490.84 133.12H492.492L500.752 153H498.68L496.104 146.784H487.172L484.624 153H482.524L490.84 133.12ZM495.656 145.244L491.652 135.416L487.592 145.244H495.656ZM503.601 153V133.148H505.561V144.684L516.509 133.12H518.665L510.545 141.856L519.085 153H516.873L509.285 143.032L505.561 146.896V153H503.601ZM534.95 151.264V153H521.594V133.12H534.698V134.856H523.554V142.024H533.27V143.676H523.554V151.264H534.95ZM570.542 153V136.816L563.346 149.388H562.114L554.89 136.816V153H552.93V133.12H554.946L562.702 146.728L570.514 133.12H572.502V153H570.542ZM585.576 153.14C584.008 153.14 582.683 152.86 581.6 152.3C580.536 151.74 579.678 150.984 579.024 150.032C578.371 149.08 577.904 148.016 577.624 146.84C577.344 145.645 577.204 144.413 577.204 143.144V133.12H579.136V143.144C579.136 144.189 579.239 145.207 579.444 146.196C579.668 147.167 580.023 148.044 580.508 148.828C580.994 149.612 581.647 150.237 582.468 150.704C583.29 151.152 584.316 151.376 585.548 151.376C586.818 151.376 587.863 151.143 588.684 150.676C589.524 150.209 590.187 149.584 590.672 148.8C591.158 147.997 591.494 147.111 591.68 146.14C591.886 145.151 591.988 144.152 591.988 143.144V133.12H593.948V143.144C593.948 144.469 593.799 145.739 593.5 146.952C593.202 148.147 592.716 149.211 592.044 150.144C591.391 151.077 590.532 151.815 589.468 152.356C588.404 152.879 587.107 153.14 585.576 153.14ZM598.621 153V133.12H600.581V151.264H612.061V153H598.621ZM628.301 151.264V153H614.945V133.12H628.049V134.856H616.905V142.024H626.621V143.676H616.905V151.264H628.301ZM643.518 136.844C642.958 136.228 642.212 135.724 641.278 135.332C640.345 134.921 639.281 134.716 638.086 134.716C636.332 134.716 635.053 135.052 634.25 135.724C633.448 136.377 633.046 137.273 633.046 138.412C633.046 139.196 633.242 139.812 633.634 140.26C634.026 140.708 634.624 141.081 635.426 141.38C636.248 141.66 637.293 141.94 638.562 142.22C639.981 142.519 641.204 142.873 642.23 143.284C643.257 143.695 644.05 144.255 644.61 144.964C645.17 145.655 645.45 146.597 645.45 147.792C645.45 149.005 645.142 150.013 644.526 150.816C643.91 151.619 643.061 152.216 641.978 152.608C640.896 152.981 639.664 153.168 638.282 153.168C635.184 153.168 632.524 152.207 630.302 150.284L631.282 148.688C631.992 149.435 632.962 150.079 634.194 150.62C635.445 151.161 636.826 151.432 638.338 151.432C639.906 151.432 641.138 151.143 642.034 150.564C642.93 149.985 643.378 149.127 643.378 147.988C643.378 147.167 643.154 146.513 642.706 146.028C642.258 145.524 641.586 145.113 640.69 144.796C639.794 144.479 638.693 144.171 637.386 143.872C636.005 143.555 634.838 143.2 633.886 142.808C632.953 142.416 632.244 141.903 631.758 141.268C631.273 140.633 631.03 139.775 631.03 138.692C631.03 137.46 631.329 136.424 631.926 135.584C632.542 134.725 633.382 134.081 634.446 133.652C635.51 133.204 636.733 132.98 638.114 132.98C639.421 132.98 640.597 133.185 641.642 133.596C642.688 133.988 643.63 134.548 644.47 135.276L643.518 136.844ZM660.526 136.844C659.966 136.228 659.219 135.724 658.286 135.332C657.353 134.921 656.289 134.716 655.094 134.716C653.339 134.716 652.061 135.052 651.258 135.724C650.455 136.377 650.054 137.273 650.054 138.412C650.054 139.196 650.25 139.812 650.642 140.26C651.034 140.708 651.631 141.081 652.434 141.38C653.255 141.66 654.301 141.94 655.57 142.22C656.989 142.519 658.211 142.873 659.238 143.284C660.265 143.695 661.058 144.255 661.618 144.964C662.178 145.655 662.458 146.597 662.458 147.792C662.458 149.005 662.15 150.013 661.534 150.816C660.918 151.619 660.069 152.216 658.986 152.608C657.903 152.981 656.671 153.168 655.29 153.168C652.191 153.168 649.531 152.207 647.31 150.284L648.29 148.688C648.999 149.435 649.97 150.079 651.202 150.62C652.453 151.161 653.834 151.432 655.346 151.432C656.914 151.432 658.146 151.143 659.042 150.564C659.938 149.985 660.386 149.127 660.386 147.988C660.386 147.167 660.162 146.513 659.714 146.028C659.266 145.524 658.594 145.113 657.698 144.796C656.802 144.479 655.701 144.171 654.394 143.872C653.013 143.555 651.846 143.2 650.894 142.808C649.961 142.416 649.251 141.903 648.766 141.268C648.281 140.633 648.038 139.775 648.038 138.692C648.038 137.46 648.337 136.424 648.934 135.584C649.55 134.725 650.39 134.081 651.454 133.652C652.518 133.204 653.741 132.98 655.122 132.98C656.429 132.98 657.605 133.185 658.65 133.596C659.695 133.988 660.638 134.548 661.478 135.276L660.526 136.844ZM677.534 136.844C676.974 136.228 676.227 135.724 675.294 135.332C674.361 134.921 673.297 134.716 672.102 134.716C670.347 134.716 669.069 135.052 668.266 135.724C667.463 136.377 667.062 137.273 667.062 138.412C667.062 139.196 667.258 139.812 667.65 140.26C668.042 140.708 668.639 141.081 669.442 141.38C670.263 141.66 671.309 141.94 672.578 142.22C673.997 142.519 675.219 142.873 676.246 143.284C677.273 143.695 678.066 144.255 678.626 144.964C679.186 145.655 679.466 146.597 679.466 147.792C679.466 149.005 679.158 150.013 678.542 150.816C677.926 151.619 677.077 152.216 675.994 152.608C674.911 152.981 673.679 153.168 672.298 153.168C669.199 153.168 666.539 152.207 664.318 150.284L665.298 148.688C666.007 149.435 666.978 150.079 668.21 150.62C669.461 151.161 670.842 151.432 672.354 151.432C673.922 151.432 675.154 151.143 676.05 150.564C676.946 149.985 677.394 149.127 677.394 147.988C677.394 147.167 677.17 146.513 676.722 146.028C676.274 145.524 675.602 145.113 674.706 144.796C673.81 144.479 672.709 144.171 671.402 143.872C670.021 143.555 668.854 143.2 667.902 142.808C666.969 142.416 666.259 141.903 665.774 141.268C665.289 140.633 665.046 139.775 665.046 138.692C665.046 137.46 665.345 136.424 665.942 135.584C666.558 134.725 667.398 134.081 668.462 133.652C669.526 133.204 670.749 132.98 672.13 132.98C673.437 132.98 674.613 133.185 675.658 133.596C676.703 133.988 677.646 134.548 678.486 135.276L677.534 136.844Z" fill="white"/>
<path d="M420.6 153V139.952L415.504 149.668H413.348L408.252 139.952V153H404.388V133.12H408.532L414.412 144.432L420.348 133.12H424.464V153H420.6ZM434.019 133.12H437.939L445.247 153H441.271L439.423 148.044H432.479L430.659 153H426.683L434.019 133.12ZM438.723 145.328L435.979 137.124L433.123 145.328H438.723ZM447.427 153V133.12H456.219C457.134 133.12 457.974 133.307 458.739 133.68C459.523 134.053 460.195 134.557 460.755 135.192C461.334 135.827 461.773 136.536 462.071 137.32C462.389 138.104 462.547 138.907 462.547 139.728C462.547 140.997 462.221 142.164 461.567 143.228C460.933 144.292 460.065 145.057 458.963 145.524L463.499 153H459.243L455.155 146.336H451.291V153H447.427ZM451.291 142.948H456.135C456.863 142.948 457.461 142.64 457.927 142.024C458.413 141.389 458.655 140.624 458.655 139.728C458.655 139.112 458.525 138.561 458.263 138.076C458.002 137.591 457.666 137.208 457.255 136.928C456.863 136.648 456.434 136.508 455.967 136.508H451.291V142.948ZM694.346 138.328C694.178 138.141 693.823 137.899 693.282 137.6C692.74 137.283 692.087 137.003 691.322 136.76C690.575 136.499 689.8 136.368 688.998 136.368C686.888 136.368 685.834 137.115 685.834 138.608C685.834 139.149 686.002 139.579 686.338 139.896C686.674 140.213 687.178 140.484 687.85 140.708C688.522 140.932 689.362 141.175 690.37 141.436C691.676 141.772 692.806 142.164 693.758 142.612C694.728 143.06 695.466 143.657 695.97 144.404C696.492 145.132 696.754 146.103 696.754 147.316C696.754 148.735 696.408 149.883 695.718 150.76C695.046 151.619 694.15 152.244 693.03 152.636C691.91 153.028 690.696 153.224 689.39 153.224C687.896 153.224 686.412 153 684.938 152.552C683.482 152.085 682.184 151.451 681.046 150.648L682.754 147.316C682.922 147.484 683.22 147.708 683.65 147.988C684.079 148.249 684.602 148.52 685.218 148.8C685.834 149.061 686.506 149.285 687.234 149.472C687.962 149.659 688.699 149.752 689.446 149.752C691.574 149.752 692.638 149.071 692.638 147.708C692.638 147.129 692.423 146.663 691.994 146.308C691.564 145.953 690.958 145.655 690.174 145.412C689.408 145.169 688.512 144.899 687.486 144.6C686.216 144.245 685.162 143.853 684.322 143.424C683.5 142.976 682.884 142.425 682.474 141.772C682.063 141.1 681.858 140.251 681.858 139.224C681.858 137.861 682.175 136.723 682.81 135.808C683.463 134.875 684.34 134.175 685.442 133.708C686.543 133.223 687.766 132.98 689.11 132.98C690.491 132.98 691.779 133.204 692.974 133.652C694.168 134.1 695.195 134.613 696.054 135.192L694.346 138.328Z" fill="#F0A036"/>
<path d="M51.1174 232.028C51.7147 232.028 52.424 232.075 53.2454 232.168C54.0854 232.243 54.8414 232.411 55.5134 232.672L55.2054 234.212C54.5894 234.156 53.936 234.119 53.2454 234.1C52.5734 234.063 51.9947 234.044 51.5094 234.044C50.4267 234.044 49.568 234.193 48.9334 234.492C48.2987 234.791 47.8414 235.313 47.5614 236.06C47.2814 236.807 47.1414 237.843 47.1414 239.168C47.1414 240.493 47.2814 241.539 47.5614 242.304C47.8414 243.051 48.2987 243.573 48.9334 243.872C49.568 244.171 50.4267 244.32 51.5094 244.32C51.92 244.32 52.5174 244.301 53.3014 244.264C54.0854 244.227 54.8227 244.152 55.5134 244.04L55.7654 245.636C55.0747 245.879 54.3187 246.056 53.4974 246.168C52.6947 246.28 51.892 246.336 51.0894 246.336C49.5214 246.336 48.2614 246.103 47.3094 245.636C46.3574 245.169 45.6667 244.413 45.2374 243.368C44.8267 242.323 44.6214 240.923 44.6214 239.168C44.6214 237.413 44.836 236.013 45.2654 234.968C45.6947 233.923 46.3854 233.176 47.3374 232.728C48.2894 232.261 49.5494 232.028 51.1174 232.028ZM64.5418 232.028C66.1098 232.028 67.3605 232.261 68.2938 232.728C69.2458 233.195 69.9272 233.96 70.3378 235.024C70.7485 236.069 70.9538 237.46 70.9538 239.196C70.9538 240.932 70.7485 242.332 70.3378 243.396C69.9272 244.441 69.2458 245.197 68.2938 245.664C67.3605 246.131 66.1098 246.364 64.5418 246.364C62.9925 246.364 61.7418 246.131 60.7898 245.664C59.8565 245.197 59.1752 244.441 58.7458 243.396C58.3352 242.332 58.1298 240.932 58.1298 239.196C58.1298 237.46 58.3352 236.069 58.7458 235.024C59.1752 233.96 59.8565 233.195 60.7898 232.728C61.7418 232.261 62.9925 232.028 64.5418 232.028ZM64.5418 234.044C63.5525 234.044 62.7685 234.203 62.1898 234.52C61.6298 234.819 61.2285 235.341 60.9858 236.088C60.7432 236.835 60.6218 237.871 60.6218 239.196C60.6218 240.521 60.7432 241.557 60.9858 242.304C61.2285 243.051 61.6298 243.583 62.1898 243.9C62.7685 244.199 63.5525 244.348 64.5418 244.348C65.5312 244.348 66.3152 244.199 66.8938 243.9C67.4725 243.583 67.8832 243.051 68.1258 242.304C68.3685 241.557 68.4898 240.521 68.4898 239.196C68.4898 237.871 68.3685 236.835 68.1258 236.088C67.8832 235.341 67.4725 234.819 66.8938 234.52C66.3152 234.203 65.5312 234.044 64.5418 234.044ZM76.7039 232.364L76.8719 234.52C77.8986 233.717 78.9159 233.101 79.9239 232.672C80.9506 232.243 81.9679 232.028 82.9759 232.028C85.4399 232.028 86.6719 233.279 86.6719 235.78V246H84.2919V236.452C84.2919 235.537 84.1426 234.912 83.8439 234.576C83.5452 234.221 83.0412 234.044 82.3319 234.044C81.5292 234.044 80.7172 234.24 79.8959 234.632C79.0932 235.005 78.1506 235.519 77.0679 236.172V246H74.6879V232.364H76.7039ZM98.7134 232.364V234.24H94.3734V242.248C94.3734 242.901 94.5134 243.368 94.7934 243.648C95.0734 243.928 95.5494 244.068 96.2214 244.068H98.2934L98.5734 245.888C98.1254 246.019 97.5841 246.112 96.9494 246.168C96.3148 246.224 95.8294 246.252 95.4934 246.252C94.3548 246.252 93.4868 245.935 92.8894 245.3C92.2921 244.665 91.9934 243.751 91.9934 242.556V234.24H89.5294V232.504L91.9934 232.364V228.332H94.3734V232.364H98.7134ZM107.39 232.028C108.958 232.028 110.208 232.261 111.142 232.728C112.094 233.195 112.775 233.96 113.186 235.024C113.596 236.069 113.802 237.46 113.802 239.196C113.802 240.932 113.596 242.332 113.186 243.396C112.775 244.441 112.094 245.197 111.142 245.664C110.208 246.131 108.958 246.364 107.39 246.364C105.84 246.364 104.59 246.131 103.638 245.664C102.704 245.197 102.023 244.441 101.594 243.396C101.183 242.332 100.978 240.932 100.978 239.196C100.978 237.46 101.183 236.069 101.594 235.024C102.023 233.96 102.704 233.195 103.638 232.728C104.59 232.261 105.84 232.028 107.39 232.028ZM107.39 234.044C106.4 234.044 105.616 234.203 105.038 234.52C104.478 234.819 104.076 235.341 103.834 236.088C103.591 236.835 103.47 237.871 103.47 239.196C103.47 240.521 103.591 241.557 103.834 242.304C104.076 243.051 104.478 243.583 105.038 243.9C105.616 244.199 106.4 244.348 107.39 244.348C108.379 244.348 109.163 244.199 109.742 243.9C110.32 243.583 110.731 243.051 110.974 242.304C111.216 241.557 111.338 240.521 111.338 239.196C111.338 237.871 111.216 236.835 110.974 236.088C110.731 235.341 110.32 234.819 109.742 234.52C109.163 234.203 108.379 234.044 107.39 234.044ZM125.824 232.028C128.288 232.028 129.52 233.279 129.52 235.78V246H127.112V236.452C127.112 235.537 126.962 234.912 126.664 234.576C126.384 234.221 125.889 234.044 125.18 234.044C124.377 234.044 123.565 234.231 122.744 234.604C121.941 234.959 120.998 235.481 119.916 236.172V246H117.536V226.4H119.916L119.944 231.804C119.944 232.308 119.925 232.784 119.888 233.232C119.869 233.68 119.832 234.091 119.776 234.464C120.802 233.717 121.81 233.129 122.8 232.7C123.808 232.252 124.816 232.028 125.824 232.028ZM142.055 232.364L142.223 234.52C143.25 233.717 144.267 233.101 145.275 232.672C146.302 232.243 147.319 232.028 148.327 232.028C150.791 232.028 152.023 233.279 152.023 235.78V246H149.643V236.452C149.643 235.537 149.494 234.912 149.195 234.576C148.897 234.221 148.393 234.044 147.683 234.044C146.881 234.044 146.069 234.24 145.247 234.632C144.445 235.005 143.502 235.519 142.419 236.172V246H140.039V232.364H142.055ZM162.749 232.028C164.261 232.028 165.418 232.345 166.221 232.98C167.024 233.596 167.425 234.735 167.425 236.396V246H165.549L165.269 243.732C164.914 244.105 164.457 244.488 163.897 244.88C163.337 245.253 162.693 245.58 161.965 245.86C161.256 246.121 160.481 246.252 159.641 246.252C158.428 246.252 157.438 245.925 156.673 245.272C155.926 244.619 155.553 243.676 155.553 242.444V240.96C155.553 239.896 155.88 239.075 156.533 238.496C157.205 237.899 158.138 237.6 159.333 237.6H165.017V236.396C165.017 235.556 164.821 234.959 164.429 234.604C164.056 234.231 163.328 234.044 162.245 234.044C161.536 234.044 160.64 234.081 159.557 234.156C158.493 234.231 157.438 234.315 156.393 234.408L156.169 232.644C157.102 232.495 158.176 232.355 159.389 232.224C160.602 232.093 161.722 232.028 162.749 232.028ZM160.117 244.208C160.789 244.227 161.573 244.068 162.469 243.732C163.365 243.396 164.214 242.873 165.017 242.164V239.392L159.753 239.42C159.1 239.439 158.642 239.616 158.381 239.952C158.12 240.269 157.989 240.717 157.989 241.296V242.164C157.989 242.873 158.157 243.396 158.493 243.732C158.829 244.049 159.37 244.208 160.117 244.208ZM173.636 232.364L173.776 234.52C174.728 233.699 175.652 233.083 176.548 232.672C177.463 232.243 178.396 232.028 179.348 232.028C181.252 232.028 182.4 232.84 182.792 234.464C184.659 232.84 186.488 232.028 188.28 232.028C189.456 232.028 190.352 232.345 190.968 232.98C191.603 233.615 191.92 234.548 191.92 235.78V246H189.568V236.452C189.55 235.612 189.382 235.005 189.064 234.632C188.747 234.24 188.206 234.044 187.44 234.044C186.731 234.044 186.059 234.212 185.424 234.548C184.808 234.884 183.987 235.416 182.96 236.144V246H180.664V236.452C180.664 235.575 180.487 234.959 180.132 234.604C179.778 234.231 179.246 234.044 178.536 234.044C177.846 234.044 177.183 234.212 176.548 234.548C175.932 234.865 175.102 235.397 174.056 236.144V246H171.676V232.364H173.636ZM202.644 232.028C204.156 232.028 205.313 232.345 206.116 232.98C206.918 233.596 207.32 234.735 207.32 236.396V246H205.444L205.164 243.732C204.809 244.105 204.352 244.488 203.792 244.88C203.232 245.253 202.588 245.58 201.86 245.86C201.15 246.121 200.376 246.252 199.536 246.252C198.322 246.252 197.333 245.925 196.568 245.272C195.821 244.619 195.448 243.676 195.448 242.444V240.96C195.448 239.896 195.774 239.075 196.428 238.496C197.1 237.899 198.033 237.6 199.228 237.6H204.912V236.396C204.912 235.556 204.716 234.959 204.324 234.604C203.95 234.231 203.222 234.044 202.14 234.044C201.43 234.044 200.534 234.081 199.452 234.156C198.388 234.231 197.333 234.315 196.288 234.408L196.064 232.644C196.997 232.495 198.07 232.355 199.284 232.224C200.497 232.093 201.617 232.028 202.644 232.028ZM200.012 244.208C200.684 244.227 201.468 244.068 202.364 243.732C203.26 243.396 204.109 242.873 204.912 242.164V239.392L199.648 239.42C198.994 239.439 198.537 239.616 198.276 239.952C198.014 240.269 197.884 240.717 197.884 241.296V242.164C197.884 242.873 198.052 243.396 198.388 243.732C198.724 244.049 199.265 244.208 200.012 244.208ZM224.497 223.88L224.805 225.028C222.938 225.943 221.576 227.417 220.717 229.452C219.877 231.468 219.457 234.063 219.457 237.236C219.457 240.353 219.877 242.929 220.717 244.964C221.576 246.999 222.938 248.501 224.805 249.472L224.497 250.62C221.958 249.631 220.092 248.063 218.897 245.916C217.721 243.751 217.133 240.867 217.133 237.264C217.133 233.643 217.721 230.749 218.897 228.584C220.092 226.419 221.958 224.851 224.497 223.88ZM234.256 232.364V234.24H229.916V242.248C229.916 242.901 230.056 243.368 230.336 243.648C230.616 243.928 231.092 244.068 231.764 244.068H233.836L234.116 245.888C233.668 246.019 233.127 246.112 232.492 246.168C231.858 246.224 231.372 246.252 231.036 246.252C229.898 246.252 229.03 245.935 228.432 245.3C227.835 244.665 227.536 243.751 227.536 242.556V234.24H225.072V232.504L227.536 232.364V228.332H229.916V232.364H234.256ZM239.012 226.568C239.498 226.568 239.74 226.811 239.74 227.296V228.892C239.74 229.377 239.498 229.62 239.012 229.62H237.892C237.407 229.62 237.164 229.377 237.164 228.892V227.296C237.164 226.811 237.407 226.568 237.892 226.568H239.012ZM239.628 232.364V246H237.276V232.364H239.628ZM248.646 232.028C250.344 232.028 251.959 232.439 253.49 233.26C253.452 232.831 253.424 232.401 253.406 231.972C253.387 231.543 253.378 231.085 253.378 230.6V226.4H255.758V246H253.91L253.686 244.04C252.939 244.675 252.108 245.216 251.194 245.664C250.298 246.112 249.327 246.336 248.282 246.336C246.564 246.336 245.332 245.729 244.586 244.516C243.858 243.303 243.494 241.511 243.494 239.14C243.494 237.367 243.68 235.967 244.054 234.94C244.427 233.895 244.996 233.148 245.762 232.7C246.527 232.252 247.488 232.028 248.646 232.028ZM245.93 239.112C245.93 240.456 246.032 241.501 246.238 242.248C246.462 242.995 246.807 243.517 247.274 243.816C247.74 244.115 248.338 244.264 249.066 244.264C249.831 244.264 250.512 244.115 251.11 243.816C251.707 243.517 252.463 243.041 253.378 242.388V234.856C252.575 234.632 251.856 234.455 251.222 234.324C250.587 234.175 249.915 234.1 249.206 234.1C248.422 234.1 247.787 234.24 247.302 234.52C246.835 234.781 246.49 235.276 246.266 236.004C246.042 236.732 245.93 237.768 245.93 239.112ZM266.601 232.028C268.113 232.028 269.27 232.345 270.073 232.98C270.875 233.596 271.277 234.735 271.277 236.396V246H269.401L269.121 243.732C268.766 244.105 268.309 244.488 267.749 244.88C267.189 245.253 266.545 245.58 265.817 245.86C265.107 246.121 264.333 246.252 263.493 246.252C262.279 246.252 261.29 245.925 260.525 245.272C259.778 244.619 259.405 243.676 259.405 242.444V240.96C259.405 239.896 259.731 239.075 260.385 238.496C261.057 237.899 261.99 237.6 263.185 237.6H268.869V236.396C268.869 235.556 268.673 234.959 268.281 234.604C267.907 234.231 267.179 234.044 266.097 234.044C265.387 234.044 264.491 234.081 263.409 234.156C262.345 234.231 261.29 234.315 260.245 234.408L260.021 232.644C260.954 232.495 262.027 232.355 263.241 232.224C264.454 232.093 265.574 232.028 266.601 232.028ZM263.969 244.208C264.641 244.227 265.425 244.068 266.321 243.732C267.217 243.396 268.066 242.873 268.869 242.164V239.392L263.605 239.42C262.951 239.439 262.494 239.616 262.233 239.952C261.971 240.269 261.841 240.717 261.841 241.296V242.164C261.841 242.873 262.009 243.396 262.345 243.732C262.681 244.049 263.222 244.208 263.969 244.208ZM286.672 232.364L282.388 237.376C282.257 237.544 282.098 237.721 281.912 237.908C281.725 238.076 281.566 238.207 281.436 238.3V238.356C281.566 238.449 281.725 238.608 281.912 238.832C282.098 239.037 282.257 239.243 282.388 239.448L287.12 246H284.348L279.616 239.168H277.768C277.861 239.915 277.908 240.643 277.908 241.352V246H275.528V226.4H277.908L277.936 235.108C277.936 235.929 277.889 236.704 277.796 237.432H279.588L283.9 232.364H286.672ZM303.071 232.028C304.751 232.028 305.992 232.579 306.795 233.68C307.597 234.763 307.999 236.583 307.999 239.14C307.999 240.689 307.821 242.005 307.467 243.088C307.112 244.152 306.496 244.964 305.619 245.524C304.741 246.065 303.519 246.336 301.951 246.336C300.999 246.336 299.944 246.252 298.787 246.084C297.629 245.916 296.593 245.673 295.679 245.356V226.4H298.059V231.496C298.059 232.075 298.04 232.607 298.003 233.092C297.984 233.577 297.919 234.053 297.807 234.52C299.431 232.859 301.185 232.028 303.071 232.028ZM302.231 234.1C301.521 234.1 300.84 234.287 300.187 234.66C299.552 235.015 298.833 235.509 298.031 236.144L298.059 243.872C298.712 244.04 299.365 244.161 300.019 244.236C300.672 244.311 301.297 244.339 301.895 244.32C303.22 244.301 304.153 243.919 304.695 243.172C305.236 242.407 305.516 241.063 305.535 239.14C305.535 237.889 305.441 236.9 305.255 236.172C305.068 235.425 304.732 234.893 304.247 234.576C303.78 234.259 303.108 234.1 302.231 234.1ZM317.472 232.028C319.04 232.028 320.29 232.261 321.224 232.728C322.176 233.195 322.857 233.96 323.268 235.024C323.678 236.069 323.884 237.46 323.884 239.196C323.884 240.932 323.678 242.332 323.268 243.396C322.857 244.441 322.176 245.197 321.224 245.664C320.29 246.131 319.04 246.364 317.472 246.364C315.922 246.364 314.672 246.131 313.72 245.664C312.786 245.197 312.105 244.441 311.676 243.396C311.265 242.332 311.06 240.932 311.06 239.196C311.06 237.46 311.265 236.069 311.676 235.024C312.105 233.96 312.786 233.195 313.72 232.728C314.672 232.261 315.922 232.028 317.472 232.028ZM317.472 234.044C316.482 234.044 315.698 234.203 315.12 234.52C314.56 234.819 314.158 235.341 313.916 236.088C313.673 236.835 313.552 237.871 313.552 239.196C313.552 240.521 313.673 241.557 313.916 242.304C314.158 243.051 314.56 243.583 315.12 243.9C315.698 244.199 316.482 244.348 317.472 244.348C318.461 244.348 319.245 244.199 319.824 243.9C320.402 243.583 320.813 243.051 321.056 242.304C321.298 241.557 321.42 240.521 321.42 239.196C321.42 237.871 321.298 236.835 321.056 236.088C320.813 235.341 320.402 234.819 319.824 234.52C319.245 234.203 318.461 234.044 317.472 234.044ZM330.026 226.4L329.998 242.248C329.998 243.461 330.623 244.068 331.874 244.068H333.19L333.47 245.888C333.208 246.019 332.807 246.112 332.266 246.168C331.743 246.224 331.314 246.252 330.978 246.252C329.97 246.252 329.158 245.953 328.542 245.356C327.944 244.759 327.646 243.9 327.646 242.78V226.4H330.026ZM341.53 232.028C343.583 232.028 345.067 232.401 345.982 233.148C346.915 233.895 347.382 235.005 347.382 236.48C347.401 237.693 347.149 238.645 346.626 239.336C346.103 240.008 345.273 240.344 344.134 240.344H337.806C337.881 241.427 338.077 242.257 338.394 242.836C338.73 243.396 339.197 243.788 339.794 244.012C340.391 244.217 341.157 244.32 342.09 244.32C342.818 244.32 343.611 244.292 344.47 244.236C345.347 244.161 346.131 244.077 346.822 243.984L347.074 245.58C346.645 245.748 346.113 245.888 345.478 246C344.862 246.112 344.218 246.196 343.546 246.252C342.893 246.308 342.305 246.336 341.782 246.336C340.214 246.336 338.954 246.103 338.002 245.636C337.05 245.151 336.35 244.385 335.902 243.34C335.473 242.276 335.258 240.876 335.258 239.14C335.258 237.348 335.473 235.939 335.902 234.912C336.35 233.867 337.031 233.129 337.946 232.7C338.879 232.252 340.074 232.028 341.53 232.028ZM341.642 234.044C340.69 234.044 339.934 234.175 339.374 234.436C338.833 234.697 338.431 235.155 338.17 235.808C337.927 236.443 337.787 237.339 337.75 238.496H343.518C344.134 238.496 344.535 238.291 344.722 237.88C344.909 237.451 345.002 236.984 345.002 236.48C344.983 235.603 344.722 234.977 344.218 234.604C343.714 234.231 342.855 234.044 341.642 234.044ZM359.257 232.028C361.721 232.028 362.953 233.279 362.953 235.78V246H360.545V236.452C360.545 235.537 360.396 234.912 360.097 234.576C359.817 234.221 359.322 234.044 358.613 234.044C357.81 234.044 356.998 234.231 356.177 234.604C355.374 234.959 354.432 235.481 353.349 236.172V246H350.969V226.4H353.349L353.377 231.804C353.377 232.308 353.358 232.784 353.321 233.232C353.302 233.68 353.265 234.091 353.209 234.464C354.236 233.717 355.244 233.129 356.233 232.7C357.241 232.252 358.249 232.028 359.257 232.028ZM378.009 232.028C379.708 232.028 381.322 232.439 382.853 233.26C382.816 232.831 382.788 232.401 382.769 231.972C382.75 231.543 382.741 231.085 382.741 230.6V226.4H385.121V246H383.273L383.049 244.04C382.302 244.675 381.472 245.216 380.557 245.664C379.661 246.112 378.69 246.336 377.645 246.336C375.928 246.336 374.696 245.729 373.949 244.516C373.221 243.303 372.857 241.511 372.857 239.14C372.857 237.367 373.044 235.967 373.417 234.94C373.79 233.895 374.36 233.148 375.125 232.7C375.89 232.252 376.852 232.028 378.009 232.028ZM375.293 239.112C375.293 240.456 375.396 241.501 375.601 242.248C375.825 242.995 376.17 243.517 376.637 243.816C377.104 244.115 377.701 244.264 378.429 244.264C379.194 244.264 379.876 244.115 380.473 243.816C381.07 243.517 381.826 243.041 382.741 242.388V234.856C381.938 234.632 381.22 234.455 380.585 234.324C379.95 234.175 379.278 234.1 378.569 234.1C377.785 234.1 377.15 234.24 376.665 234.52C376.198 234.781 375.853 235.276 375.629 236.004C375.405 236.732 375.293 237.768 375.293 239.112ZM391.372 226.568C391.857 226.568 392.1 226.811 392.1 227.296V228.892C392.1 229.377 391.857 229.62 391.372 229.62H390.252C389.767 229.62 389.524 229.377 389.524 228.892V227.296C389.524 226.811 389.767 226.568 390.252 226.568H391.372ZM391.988 232.364V246H389.636V232.364H391.988ZM398.429 232.364L398.625 234.548C399.372 233.764 400.249 233.148 401.257 232.7C402.284 232.252 403.292 232.028 404.281 232.028C405.942 232.028 407.137 232.644 407.865 233.876C408.593 235.089 408.957 236.881 408.957 239.252C408.957 241.007 408.77 242.407 408.397 243.452C408.024 244.479 407.454 245.216 406.689 245.664C405.942 246.112 404.981 246.336 403.805 246.336C402.928 246.336 402.069 246.224 401.229 246C400.389 245.776 399.568 245.421 398.765 244.936C398.802 245.403 398.821 245.851 398.821 246.28C398.84 246.728 398.849 247.195 398.849 247.68V251.628H396.469V232.364H398.429ZM403.497 234.1C402.75 234.1 402.013 234.277 401.285 234.632C400.576 234.968 399.764 235.481 398.849 236.172V243.452C399.708 243.676 400.464 243.872 401.117 244.04C401.789 244.189 402.489 244.264 403.217 244.264C404.02 244.264 404.654 244.124 405.121 243.844C405.606 243.564 405.961 243.06 406.185 242.332C406.409 241.604 406.521 240.577 406.521 239.252C406.521 237.311 406.288 235.967 405.821 235.22C405.354 234.473 404.58 234.1 403.497 234.1ZM419.151 232.028C420.663 232.028 421.821 232.345 422.623 232.98C423.426 233.596 423.827 234.735 423.827 236.396V246H421.951L421.671 243.732C421.317 244.105 420.859 244.488 420.299 244.88C419.739 245.253 419.095 245.58 418.367 245.86C417.658 246.121 416.883 246.252 416.043 246.252C414.83 246.252 413.841 245.925 413.075 245.272C412.329 244.619 411.955 243.676 411.955 242.444V240.96C411.955 239.896 412.282 239.075 412.935 238.496C413.607 237.899 414.541 237.6 415.735 237.6H421.419V236.396C421.419 235.556 421.223 234.959 420.831 234.604C420.458 234.231 419.73 234.044 418.647 234.044C417.938 234.044 417.042 234.081 415.959 234.156C414.895 234.231 413.841 234.315 412.795 234.408L412.571 232.644C413.505 232.495 414.578 232.355 415.791 232.224C417.005 232.093 418.125 232.028 419.151 232.028ZM416.519 244.208C417.191 244.227 417.975 244.068 418.871 243.732C419.767 243.396 420.617 242.873 421.419 242.164V239.392L416.155 239.42C415.502 239.439 415.045 239.616 414.783 239.952C414.522 240.269 414.391 240.717 414.391 241.296V242.164C414.391 242.873 414.559 243.396 414.895 243.732C415.231 244.049 415.773 244.208 416.519 244.208ZM439.223 232.364L434.939 237.376C434.808 237.544 434.649 237.721 434.463 237.908C434.276 238.076 434.117 238.207 433.987 238.3V238.356C434.117 238.449 434.276 238.608 434.463 238.832C434.649 239.037 434.808 239.243 434.939 239.448L439.671 246H436.899L432.167 239.168H430.319C430.412 239.915 430.459 240.643 430.459 241.352V246H428.079V226.4H430.459L430.487 235.108C430.487 235.929 430.44 236.704 430.347 237.432H432.139L436.451 232.364H439.223ZM448.765 232.028C450.277 232.028 451.434 232.345 452.237 232.98C453.039 233.596 453.441 234.735 453.441 236.396V246H451.565L451.285 243.732C450.93 244.105 450.473 244.488 449.913 244.88C449.353 245.253 448.709 245.58 447.981 245.86C447.271 246.121 446.497 246.252 445.657 246.252C444.443 246.252 443.454 245.925 442.689 245.272C441.942 244.619 441.569 243.676 441.569 242.444V240.96C441.569 239.896 441.895 239.075 442.549 238.496C443.221 237.899 444.154 237.6 445.349 237.6H451.033V236.396C451.033 235.556 450.837 234.959 450.445 234.604C450.071 234.231 449.343 234.044 448.261 234.044C447.551 234.044 446.655 234.081 445.573 234.156C444.509 234.231 443.454 234.315 442.409 234.408L442.185 232.644C443.118 232.495 444.191 232.355 445.405 232.224C446.618 232.093 447.738 232.028 448.765 232.028ZM446.133 244.208C446.805 244.227 447.589 244.068 448.485 243.732C449.381 243.396 450.23 242.873 451.033 242.164V239.392L445.769 239.42C445.115 239.439 444.658 239.616 444.397 239.952C444.135 240.269 444.005 240.717 444.005 241.296V242.164C444.005 242.873 444.173 243.396 444.509 243.732C444.845 244.049 445.386 244.208 446.133 244.208ZM459.54 226.568C460.025 226.568 460.268 226.811 460.268 227.296V228.892C460.268 229.377 460.025 229.62 459.54 229.62H458.42C457.934 229.62 457.692 229.377 457.692 228.892V227.296C457.692 226.811 457.934 226.568 458.42 226.568H459.54ZM460.156 232.364V246H457.804V232.364H460.156ZM479.16 232.028C481.624 232.028 482.856 233.279 482.856 235.78V246H480.448V236.452C480.448 235.537 480.298 234.912 480 234.576C479.72 234.221 479.225 234.044 478.516 234.044C477.713 234.044 476.901 234.231 476.079 234.604C475.277 234.959 474.334 235.481 473.252 236.172V246H470.872V226.4H473.252L473.28 231.804C473.28 232.308 473.261 232.784 473.224 233.232C473.205 233.68 473.168 234.091 473.112 234.464C474.138 233.717 475.146 233.129 476.136 232.7C477.144 232.252 478.152 232.028 479.16 232.028ZM492.741 232.028C494.794 232.028 496.278 232.401 497.193 233.148C498.126 233.895 498.593 235.005 498.593 236.48C498.612 237.693 498.36 238.645 497.837 239.336C497.314 240.008 496.484 240.344 495.345 240.344H489.017C489.092 241.427 489.288 242.257 489.605 242.836C489.941 243.396 490.408 243.788 491.005 244.012C491.602 244.217 492.368 244.32 493.301 244.32C494.029 244.32 494.822 244.292 495.681 244.236C496.558 244.161 497.342 244.077 498.033 243.984L498.285 245.58C497.856 245.748 497.324 245.888 496.689 246C496.073 246.112 495.429 246.196 494.757 246.252C494.104 246.308 493.516 246.336 492.993 246.336C491.425 246.336 490.165 246.103 489.213 245.636C488.261 245.151 487.561 244.385 487.113 243.34C486.684 242.276 486.469 240.876 486.469 239.14C486.469 237.348 486.684 235.939 487.113 234.912C487.561 233.867 488.242 233.129 489.157 232.7C490.09 232.252 491.285 232.028 492.741 232.028ZM492.853 234.044C491.901 234.044 491.145 234.175 490.585 234.436C490.044 234.697 489.642 235.155 489.381 235.808C489.138 236.443 488.998 237.339 488.961 238.496H494.729C495.345 238.496 495.746 238.291 495.933 237.88C496.12 237.451 496.213 236.984 496.213 236.48C496.194 235.603 495.933 234.977 495.429 234.604C494.925 234.231 494.066 234.044 492.853 234.044ZM510.468 232.028C512.932 232.028 514.164 233.279 514.164 235.78V246H511.756V236.452C511.756 235.537 511.607 234.912 511.308 234.576C511.028 234.221 510.533 234.044 509.824 234.044C509.021 234.044 508.209 234.231 507.388 234.604C506.585 234.959 505.643 235.481 504.56 236.172V246H502.18V226.4H504.56L504.588 231.804C504.588 232.308 504.569 232.784 504.532 233.232C504.513 233.68 504.476 234.091 504.42 234.464C505.447 233.717 506.455 233.129 507.444 232.7C508.452 232.252 509.46 232.028 510.468 232.028ZM524.05 232.028C526.103 232.028 527.587 232.401 528.502 233.148C529.435 233.895 529.902 235.005 529.902 236.48C529.92 237.693 529.668 238.645 529.146 239.336C528.623 240.008 527.792 240.344 526.654 240.344H520.326C520.4 241.427 520.596 242.257 520.914 242.836C521.25 243.396 521.716 243.788 522.314 244.012C522.911 244.217 523.676 244.32 524.61 244.32C525.338 244.32 526.131 244.292 526.99 244.236C527.867 244.161 528.651 244.077 529.342 243.984L529.594 245.58C529.164 245.748 528.632 245.888 527.998 246C527.382 246.112 526.738 246.196 526.066 246.252C525.412 246.308 524.824 246.336 524.302 246.336C522.734 246.336 521.474 246.103 520.522 245.636C519.57 245.151 518.87 244.385 518.422 243.34C517.992 242.276 517.778 240.876 517.778 239.14C517.778 237.348 517.992 235.939 518.422 234.912C518.87 233.867 519.551 233.129 520.466 232.7C521.399 232.252 522.594 232.028 524.05 232.028ZM524.162 234.044C523.21 234.044 522.454 234.175 521.894 234.436C521.352 234.697 520.951 235.155 520.69 235.808C520.447 236.443 520.307 237.339 520.27 238.496H526.038C526.654 238.496 527.055 238.291 527.242 237.88C527.428 237.451 527.522 236.984 527.522 236.48C527.503 235.603 527.242 234.977 526.738 234.604C526.234 234.231 525.375 234.044 524.162 234.044ZM531.114 223.88C533.671 224.851 535.538 226.419 536.714 228.584C537.908 230.749 538.506 233.643 538.506 237.264C538.506 240.867 537.908 243.751 536.714 245.916C535.538 248.063 533.671 249.631 531.114 250.62L530.834 249.472C532.7 248.501 534.053 246.999 534.894 244.964C535.734 242.929 536.154 240.353 536.154 237.236C536.154 234.063 535.734 231.468 534.894 229.452C534.053 227.417 532.7 225.943 530.834 225.028L531.114 223.88Z" fill="#708A8A"/>
</g>
<defs>
<clipPath id="clip0">
<rect width="815" height="289" fill="white"/>
</clipPath>
</defs>
</svg>
