<svg width="816" height="223" viewBox="0 0 816 223" fill="none" xmlns="http://www.w3.org/2000/svg">
<path d="M80.8764 155.13V156.924H75.7474V171H73.7234V156.924H68.6174V155.13H80.8764ZM86.3517 155.107C87.4864 155.107 88.6364 155.115 89.8017 155.13C90.9824 155.13 92.1017 155.168 93.1597 155.245L93.0677 156.832H86.6967C85.7767 156.832 85.3167 157.338 85.3167 158.35V161.8H92.1707V163.433H85.3167V167.78C85.3167 168.317 85.424 168.708 85.6387 168.953C85.8687 169.198 86.2214 169.321 86.6967 169.321H93.0677L93.1597 170.885C92.1017 170.946 90.9824 170.985 89.8017 171C88.6364 171.015 87.4864 171.023 86.3517 171.023C85.4164 171.023 84.6727 170.778 84.1207 170.287C83.584 169.781 83.308 169.106 83.2927 168.263V157.867C83.308 157.008 83.584 156.334 84.1207 155.843C84.6727 155.352 85.4164 155.107 86.3517 155.107ZM101.775 154.923C103.001 154.923 103.99 155.061 104.742 155.337C105.493 155.598 106.037 156.058 106.375 156.717C106.727 157.376 106.904 158.304 106.904 159.5C106.904 160.788 106.674 161.762 106.214 162.421C105.769 163.065 105.025 163.456 103.983 163.594V163.709C104.381 163.816 104.765 164.054 105.133 164.422C105.501 164.79 105.769 165.311 105.938 165.986L107.479 171H105.317L103.914 166.032C103.714 165.434 103.446 165.012 103.109 164.767C102.771 164.506 102.334 164.376 101.798 164.376C101.062 164.376 100.402 164.376 99.8198 164.376C99.2525 164.361 98.7465 164.353 98.3018 164.353V171H96.3008V155.13C96.8835 155.069 97.4278 155.023 97.9338 154.992C98.4398 154.961 98.9918 154.946 99.5898 154.946C100.203 154.931 100.931 154.923 101.775 154.923ZM101.729 156.671C101.054 156.671 100.425 156.679 99.8428 156.694C99.2601 156.694 98.7465 156.694 98.3018 156.694V162.628H101.729C102.511 162.613 103.124 162.521 103.569 162.352C104.029 162.183 104.358 161.884 104.558 161.455C104.757 161.01 104.857 160.397 104.857 159.615C104.857 158.833 104.757 158.235 104.558 157.821C104.358 157.392 104.029 157.093 103.569 156.924C103.124 156.755 102.511 156.671 101.729 156.671ZM114.406 155.13V167.665C114.406 168.83 114.137 169.712 113.601 170.31C113.079 170.908 112.32 171.207 111.324 171.207C111.032 171.207 110.672 171.176 110.243 171.115C109.813 171.069 109.468 171 109.208 170.908L109.438 169.482H110.588C111.784 169.482 112.382 168.899 112.382 167.734V155.13H114.406ZM124.545 155.13C124.959 155.13 125.212 155.314 125.304 155.682L130.41 171H128.317L126.753 166.032H120.221L118.657 171H116.564L121.67 155.682C121.762 155.314 122.015 155.13 122.429 155.13H124.545ZM122.774 157.982L120.773 164.284H126.201L124.2 157.982C124.139 157.767 124.07 157.553 123.993 157.338C123.932 157.108 123.87 156.893 123.809 156.694H123.165C123.104 156.893 123.042 157.108 122.981 157.338C122.92 157.553 122.851 157.767 122.774 157.982ZM138.301 154.923C139.819 154.923 141.03 155.176 141.935 155.682C142.839 156.188 143.491 157.031 143.89 158.212C144.288 159.393 144.488 161.01 144.488 163.065C144.488 165.104 144.288 166.722 143.89 167.918C143.491 169.099 142.839 169.942 141.935 170.448C141.03 170.954 139.819 171.207 138.301 171.207C137.212 171.207 136.2 171.184 135.265 171.138C134.345 171.107 133.471 171.061 132.643 171V155.13C133.471 155.069 134.345 155.023 135.265 154.992C136.2 154.946 137.212 154.923 138.301 154.923ZM138.301 156.671C137.595 156.671 136.944 156.679 136.346 156.694C135.763 156.694 135.203 156.702 134.667 156.717V169.39C135.188 169.405 135.748 169.421 136.346 169.436C136.959 169.436 137.611 169.436 138.301 169.436C139.313 169.436 140.118 169.244 140.716 168.861C141.314 168.462 141.735 167.803 141.981 166.883C142.241 165.948 142.372 164.675 142.372 163.065C142.372 161.455 142.241 160.19 141.981 159.27C141.735 158.335 141.314 157.668 140.716 157.269C140.118 156.87 139.313 156.671 138.301 156.671ZM149.94 155.13V171H147.916V155.13H149.94Z" fill="white"/>
<path d="M206.466 155.13V156.924H201.337V171H199.313V156.924H194.207V155.13H206.466ZM211.942 155.107C213.076 155.107 214.226 155.115 215.392 155.13C216.572 155.13 217.692 155.168 218.75 155.245L218.658 156.832H212.287C211.367 156.832 210.907 157.338 210.907 158.35V161.8H217.761V163.433H210.907V167.78C210.907 168.317 211.014 168.708 211.229 168.953C211.459 169.198 211.811 169.321 212.287 169.321H218.658L218.75 170.885C217.692 170.946 216.572 170.985 215.392 171C214.226 171.015 213.076 171.023 211.942 171.023C211.006 171.023 210.263 170.778 209.711 170.287C209.174 169.781 208.898 169.106 208.883 168.263V157.867C208.898 157.008 209.174 156.334 209.711 155.843C210.263 155.352 211.006 155.107 211.942 155.107ZM227.365 154.923C228.591 154.923 229.58 155.061 230.332 155.337C231.083 155.598 231.627 156.058 231.965 156.717C232.317 157.376 232.494 158.304 232.494 159.5C232.494 160.788 232.264 161.762 231.804 162.421C231.359 163.065 230.615 163.456 229.573 163.594V163.709C229.971 163.816 230.355 164.054 230.723 164.422C231.091 164.79 231.359 165.311 231.528 165.986L233.069 171H230.907L229.504 166.032C229.304 165.434 229.036 165.012 228.699 164.767C228.361 164.506 227.924 164.376 227.388 164.376C226.652 164.376 225.992 164.376 225.41 164.376C224.842 164.361 224.336 164.353 223.892 164.353V171H221.891V155.13C222.473 155.069 223.018 155.023 223.524 154.992C224.03 154.961 224.582 154.946 225.18 154.946C225.793 154.931 226.521 154.923 227.365 154.923ZM227.319 156.671C226.644 156.671 226.015 156.679 225.433 156.694C224.85 156.694 224.336 156.694 223.892 156.694V162.628H227.319C228.101 162.613 228.714 162.521 229.159 162.352C229.619 162.183 229.948 161.884 230.148 161.455C230.347 161.01 230.447 160.397 230.447 159.615C230.447 158.833 230.347 158.235 230.148 157.821C229.948 157.392 229.619 157.093 229.159 156.924C228.714 156.755 228.101 156.671 227.319 156.671ZM238.109 155.13V160.098C238.109 160.711 238.063 161.317 237.971 161.915H239.903L244.733 155.13H246.941L242.318 161.708C242.18 161.907 242.042 162.084 241.904 162.237C241.782 162.375 241.628 162.536 241.444 162.72V162.766C241.644 162.95 241.828 163.134 241.996 163.318C242.165 163.502 242.311 163.686 242.433 163.87L247.263 171H244.986L239.926 163.548H237.971C238.017 163.839 238.048 164.123 238.063 164.399C238.094 164.675 238.109 164.951 238.109 165.227V171H236.108V155.13H238.109ZM254.839 154.831C256.388 154.831 257.615 155.084 258.519 155.59C259.439 156.096 260.099 156.955 260.497 158.166C260.896 159.362 261.095 160.995 261.095 163.065C261.095 165.135 260.896 166.768 260.497 167.964C260.099 169.16 259.439 170.019 258.519 170.54C257.615 171.046 256.388 171.299 254.839 171.299C253.306 171.299 252.079 171.046 251.159 170.54C250.239 170.019 249.572 169.16 249.158 167.964C248.76 166.768 248.56 165.135 248.56 163.065C248.56 160.995 248.76 159.362 249.158 158.166C249.572 156.955 250.239 156.096 251.159 155.59C252.079 155.084 253.306 154.831 254.839 154.831ZM254.839 156.648C253.797 156.648 252.969 156.847 252.355 157.246C251.757 157.645 251.328 158.312 251.067 159.247C250.822 160.167 250.699 161.44 250.699 163.065C250.699 164.675 250.822 165.948 251.067 166.883C251.328 167.818 251.757 168.485 252.355 168.884C252.969 169.283 253.797 169.482 254.839 169.482C255.882 169.482 256.702 169.283 257.3 168.884C257.914 168.485 258.343 167.818 258.588 166.883C258.849 165.948 258.979 164.675 258.979 163.065C258.979 161.44 258.849 160.167 258.588 159.247C258.343 158.312 257.914 157.645 257.3 157.246C256.702 156.847 255.882 156.648 254.839 156.648ZM279.518 155.13C280.07 155.13 280.346 155.414 280.346 155.981L281.013 171H278.989L278.414 156.809H277.931L274.389 168.516C274.266 168.976 273.975 169.206 273.515 169.206H271.698C271.222 169.206 270.916 168.976 270.778 168.516L267.236 156.809H266.776L266.224 171H264.2L264.821 155.981C264.851 155.414 265.135 155.13 265.672 155.13H267.972C268.401 155.13 268.685 155.36 268.823 155.82L271.79 165.503C271.912 165.856 272.012 166.208 272.089 166.561C272.181 166.914 272.28 167.274 272.388 167.642H272.802C272.909 167.274 273.009 166.914 273.101 166.561C273.193 166.208 273.292 165.84 273.4 165.457L276.367 155.82C276.489 155.36 276.781 155.13 277.241 155.13H279.518ZM290.142 154.923C291.415 154.923 292.419 155.069 293.155 155.36C293.907 155.651 294.443 156.157 294.765 156.878C295.087 157.583 295.248 158.588 295.248 159.891C295.248 161.194 295.087 162.206 294.765 162.927C294.459 163.648 293.945 164.154 293.224 164.445C292.519 164.721 291.568 164.859 290.372 164.859C289.682 164.859 289.023 164.844 288.394 164.813C287.766 164.767 287.206 164.721 286.715 164.675V171H284.691V155.13C285.274 155.069 285.818 155.023 286.324 154.992C286.83 154.961 287.382 154.946 287.98 154.946C288.578 154.931 289.299 154.923 290.142 154.923ZM290.119 156.671C289.46 156.671 288.839 156.671 288.256 156.671C287.689 156.671 287.175 156.679 286.715 156.694V163.111H290.119C290.886 163.096 291.492 163.004 291.936 162.835C292.396 162.651 292.718 162.329 292.902 161.869C293.102 161.394 293.201 160.734 293.201 159.891C293.201 159.032 293.102 158.373 292.902 157.913C292.718 157.453 292.396 157.131 291.936 156.947C291.492 156.763 290.886 156.671 290.119 156.671ZM303.659 155.13C304.073 155.13 304.326 155.314 304.418 155.682L309.524 171H307.431L305.867 166.032H299.335L297.771 171H295.678L300.784 155.682C300.876 155.314 301.129 155.13 301.543 155.13H303.659ZM301.888 157.982L299.887 164.284H305.315L303.314 157.982C303.253 157.767 303.184 157.553 303.107 157.338C303.046 157.108 302.985 156.893 302.923 156.694H302.279C302.218 156.893 302.157 157.108 302.095 157.338C302.034 157.553 301.965 157.767 301.888 157.982ZM313.758 155.13V160.098C313.758 160.711 313.712 161.317 313.62 161.915H315.552L320.382 155.13H322.59L317.967 161.708C317.829 161.907 317.691 162.084 317.553 162.237C317.43 162.375 317.277 162.536 317.093 162.72V162.766C317.292 162.95 317.476 163.134 317.645 163.318C317.814 163.502 317.959 163.686 318.082 163.87L322.912 171H320.635L315.575 163.548H313.62C313.666 163.839 313.697 164.123 313.712 164.399C313.743 164.675 313.758 164.951 313.758 165.227V171H311.757V155.13H313.758Z" fill="white"/>
<path d="M366.513 155.13V156.924H361.384V171H359.36V156.924H354.254V155.13H366.513ZM371.988 155.107C373.123 155.107 374.273 155.115 375.438 155.13C376.619 155.13 377.738 155.168 378.796 155.245L378.704 156.832H372.333C371.413 156.832 370.953 157.338 370.953 158.35V161.8H377.807V163.433H370.953V167.78C370.953 168.317 371.061 168.708 371.275 168.953C371.505 169.198 371.858 169.321 372.333 169.321H378.704L378.796 170.885C377.738 170.946 376.619 170.985 375.438 171C374.273 171.015 373.123 171.023 371.988 171.023C371.053 171.023 370.309 170.778 369.757 170.287C369.221 169.781 368.945 169.106 368.929 168.263V157.867C368.945 157.008 369.221 156.334 369.757 155.843C370.309 155.352 371.053 155.107 371.988 155.107ZM387.412 154.923C388.638 154.923 389.627 155.061 390.379 155.337C391.13 155.598 391.674 156.058 392.012 156.717C392.364 157.376 392.541 158.304 392.541 159.5C392.541 160.788 392.311 161.762 391.851 162.421C391.406 163.065 390.662 163.456 389.62 163.594V163.709C390.018 163.816 390.402 164.054 390.77 164.422C391.138 164.79 391.406 165.311 391.575 165.986L393.116 171H390.954L389.551 166.032C389.351 165.434 389.083 165.012 388.746 164.767C388.408 164.506 387.971 164.376 387.435 164.376C386.699 164.376 386.039 164.376 385.457 164.376C384.889 164.361 384.383 164.353 383.939 164.353V171H381.938V155.13C382.52 155.069 383.065 155.023 383.571 154.992C384.077 154.961 384.629 154.946 385.227 154.946C385.84 154.931 386.568 154.923 387.412 154.923ZM387.366 156.671C386.691 156.671 386.062 156.679 385.48 156.694C384.897 156.694 384.383 156.694 383.939 156.694V162.628H387.366C388.148 162.613 388.761 162.521 389.206 162.352C389.666 162.183 389.995 161.884 390.195 161.455C390.394 161.01 390.494 160.397 390.494 159.615C390.494 158.833 390.394 158.235 390.195 157.821C389.995 157.392 389.666 157.093 389.206 156.924C388.761 156.755 388.148 156.671 387.366 156.671ZM407.586 155.13V164.928C407.586 166.461 407.402 167.696 407.034 168.631C406.666 169.566 406.068 170.249 405.24 170.678C404.412 171.092 403.301 171.299 401.905 171.299C400.479 171.299 399.337 171.092 398.478 170.678C397.62 170.249 396.999 169.566 396.615 168.631C396.232 167.696 396.04 166.461 396.04 164.928V155.13H398.064V164.928C398.064 166.063 398.179 166.967 398.409 167.642C398.655 168.301 399.053 168.777 399.605 169.068C400.157 169.344 400.893 169.482 401.813 169.482C402.733 169.482 403.462 169.344 403.998 169.068C404.55 168.777 404.949 168.301 405.194 167.642C405.44 166.967 405.562 166.063 405.562 164.928V155.13H407.586ZM423.687 155.13V170.195C423.687 170.732 423.426 171 422.905 171H420.927C420.513 171 420.214 170.785 420.03 170.356L414.671 159.109C414.533 158.802 414.372 158.457 414.188 158.074C414.004 157.691 413.866 157.338 413.774 157.016H413.406C413.436 157.353 413.459 157.698 413.475 158.051C413.49 158.404 413.498 158.756 413.498 159.109V171H411.474V155.935C411.474 155.398 411.742 155.13 412.279 155.13H414.188C414.602 155.13 414.901 155.345 415.085 155.774L420.283 166.745C420.451 167.067 420.628 167.435 420.812 167.849C421.011 168.248 421.195 168.646 421.364 169.045H421.755C421.709 168.217 421.686 167.412 421.686 166.63V155.13H423.687ZM429.714 155.13V171H427.69V155.13H429.714ZM435.711 155.13V160.098C435.711 160.711 435.665 161.317 435.573 161.915H437.505L442.335 155.13H444.543L439.92 161.708C439.782 161.907 439.644 162.084 439.506 162.237C439.383 162.375 439.23 162.536 439.046 162.72V162.766C439.245 162.95 439.429 163.134 439.598 163.318C439.767 163.502 439.912 163.686 440.035 163.87L444.865 171H442.588L437.528 163.548H435.573C435.619 163.839 435.65 164.123 435.665 164.399C435.696 164.675 435.711 164.951 435.711 165.227V171H433.71V155.13H435.711Z" fill="white"/>
<path d="M491.778 155.13V156.924H486.649V171H484.625V156.924H479.519V155.13H491.778ZM497.253 155.107C498.388 155.107 499.538 155.115 500.703 155.13C501.884 155.13 503.003 155.168 504.061 155.245L503.969 156.832H497.598C496.678 156.832 496.218 157.338 496.218 158.35V161.8H503.072V163.433H496.218V167.78C496.218 168.317 496.325 168.708 496.54 168.953C496.77 169.198 497.123 169.321 497.598 169.321H503.969L504.061 170.885C503.003 170.946 501.884 170.985 500.703 171C499.538 171.015 498.388 171.023 497.253 171.023C496.318 171.023 495.574 170.778 495.022 170.287C494.485 169.781 494.209 169.106 494.194 168.263V157.867C494.209 157.008 494.485 156.334 495.022 155.843C495.574 155.352 496.318 155.107 497.253 155.107ZM512.676 154.923C513.903 154.923 514.892 155.061 515.643 155.337C516.395 155.598 516.939 156.058 517.276 156.717C517.629 157.376 517.805 158.304 517.805 159.5C517.805 160.788 517.575 161.762 517.115 162.421C516.671 163.065 515.927 163.456 514.884 163.594V163.709C515.283 163.816 515.666 164.054 516.034 164.422C516.402 164.79 516.671 165.311 516.839 165.986L518.38 171H516.218L514.815 166.032C514.616 165.434 514.348 165.012 514.01 164.767C513.673 164.506 513.236 164.376 512.699 164.376C511.963 164.376 511.304 164.376 510.721 164.376C510.154 164.361 509.648 164.353 509.203 164.353V171H507.202V155.13C507.785 155.069 508.329 155.023 508.835 154.992C509.341 154.961 509.893 154.946 510.491 154.946C511.105 154.931 511.833 154.923 512.676 154.923ZM512.63 156.671C511.956 156.671 511.327 156.679 510.744 156.694C510.162 156.694 509.648 156.694 509.203 156.694V162.628H512.63C513.412 162.613 514.026 162.521 514.47 162.352C514.93 162.183 515.26 161.884 515.459 161.455C515.659 161.01 515.758 160.397 515.758 159.615C515.758 158.833 515.659 158.235 515.459 157.821C515.26 157.392 514.93 157.093 514.47 156.924C514.026 156.755 513.412 156.671 512.63 156.671ZM527.055 154.854C527.73 154.854 528.305 154.869 528.78 154.9C529.271 154.931 529.715 154.984 530.114 155.061C530.528 155.122 530.95 155.207 531.379 155.314L531.172 156.855C530.712 156.809 530.283 156.771 529.884 156.74C529.501 156.709 529.087 156.686 528.642 156.671C528.197 156.656 527.668 156.648 527.055 156.648C526.028 156.648 525.215 156.847 524.617 157.246C524.019 157.645 523.59 158.312 523.329 159.247C523.084 160.182 522.961 161.455 522.961 163.065C522.961 164.675 523.084 165.948 523.329 166.883C523.59 167.818 524.019 168.485 524.617 168.884C525.215 169.283 526.028 169.482 527.055 169.482C528.036 169.482 528.857 169.467 529.516 169.436C530.191 169.39 530.85 169.321 531.494 169.229L531.701 170.747C531.042 170.931 530.359 171.061 529.654 171.138C528.964 171.23 528.098 171.276 527.055 171.276C525.537 171.276 524.318 171.015 523.398 170.494C522.493 169.957 521.834 169.091 521.42 167.895C521.021 166.699 520.822 165.089 520.822 163.065C520.822 161.041 521.021 159.431 521.42 158.235C521.834 157.039 522.493 156.18 523.398 155.659C524.318 155.122 525.537 154.854 527.055 154.854ZM540.747 155.13C541.161 155.13 541.414 155.314 541.506 155.682L546.612 171H544.519L542.955 166.032H536.423L534.859 171H532.766L537.872 155.682C537.964 155.314 538.217 155.13 538.631 155.13H540.747ZM538.976 157.982L536.975 164.284H542.403L540.402 157.982C540.341 157.767 540.272 157.553 540.195 157.338C540.134 157.108 540.072 156.893 540.011 156.694H539.367C539.306 156.893 539.244 157.108 539.183 157.338C539.122 157.553 539.053 157.767 538.976 157.982ZM561.058 155.13V170.195C561.058 170.732 560.797 171 560.276 171H558.298C557.884 171 557.585 170.785 557.401 170.356L552.042 159.109C551.904 158.802 551.743 158.457 551.559 158.074C551.375 157.691 551.237 157.338 551.145 157.016H550.777C550.807 157.353 550.83 157.698 550.846 158.051C550.861 158.404 550.869 158.756 550.869 159.109V171H548.845V155.935C548.845 155.398 549.113 155.13 549.65 155.13H551.559C551.973 155.13 552.272 155.345 552.456 155.774L557.654 166.745C557.822 167.067 557.999 167.435 558.183 167.849C558.382 168.248 558.566 168.646 558.735 169.045H559.126C559.08 168.217 559.057 167.412 559.057 166.63V155.13H561.058ZM575.872 155.13V156.924H570.743V171H568.719V156.924H563.613V155.13H575.872ZM580.45 155.13V171H578.426V155.13H580.45ZM586.446 155.13V160.098C586.446 160.711 586.4 161.317 586.308 161.915H588.24L593.07 155.13H595.278L590.655 161.708C590.517 161.907 590.379 162.084 590.241 162.237C590.119 162.375 589.965 162.536 589.781 162.72V162.766C589.981 162.95 590.165 163.134 590.333 163.318C590.502 163.502 590.648 163.686 590.77 163.87L595.6 171H593.323L588.263 163.548H586.308C586.354 163.839 586.385 164.123 586.4 164.399C586.431 164.675 586.446 164.951 586.446 165.227V171H584.445V155.13H586.446Z" fill="white"/>
<path d="M644.613 155.13V156.924H639.484V171H637.46V156.924H632.354V155.13H644.613ZM650.088 155.107C651.223 155.107 652.373 155.115 653.538 155.13C654.719 155.13 655.838 155.168 656.896 155.245L656.804 156.832H650.433C649.513 156.832 649.053 157.338 649.053 158.35V161.8H655.907V163.433H649.053V167.78C649.053 168.317 649.16 168.708 649.375 168.953C649.605 169.198 649.958 169.321 650.433 169.321H656.804L656.896 170.885C655.838 170.946 654.719 170.985 653.538 171C652.373 171.015 651.223 171.023 650.088 171.023C649.153 171.023 648.409 170.778 647.857 170.287C647.32 169.781 647.044 169.106 647.029 168.263V157.867C647.044 157.008 647.32 156.334 647.857 155.843C648.409 155.352 649.153 155.107 650.088 155.107ZM665.511 154.923C666.738 154.923 667.727 155.061 668.478 155.337C669.229 155.598 669.774 156.058 670.111 156.717C670.464 157.376 670.64 158.304 670.64 159.5C670.64 160.788 670.41 161.762 669.95 162.421C669.505 163.065 668.762 163.456 667.719 163.594V163.709C668.118 163.816 668.501 164.054 668.869 164.422C669.237 164.79 669.505 165.311 669.674 165.986L671.215 171H669.053L667.65 166.032C667.451 165.434 667.182 165.012 666.845 164.767C666.508 164.506 666.071 164.376 665.534 164.376C664.798 164.376 664.139 164.376 663.556 164.376C662.989 164.361 662.483 164.353 662.038 164.353V171H660.037V155.13C660.62 155.069 661.164 155.023 661.67 154.992C662.176 154.961 662.728 154.946 663.326 154.946C663.939 154.931 664.668 154.923 665.511 154.923ZM665.465 156.671C664.79 156.671 664.162 156.679 663.579 156.694C662.996 156.694 662.483 156.694 662.038 156.694V162.628H665.465C666.247 162.613 666.86 162.521 667.305 162.352C667.765 162.183 668.095 161.884 668.294 161.455C668.493 161.01 668.593 160.397 668.593 159.615C668.593 158.833 668.493 158.235 668.294 157.821C668.095 157.392 667.765 157.093 667.305 156.924C666.86 156.755 666.247 156.671 665.465 156.671ZM679.913 154.923C681.431 154.923 682.642 155.176 683.547 155.682C684.452 156.188 685.103 157.031 685.502 158.212C685.901 159.393 686.1 161.01 686.1 163.065C686.1 165.104 685.901 166.722 685.502 167.918C685.103 169.099 684.452 169.942 683.547 170.448C682.642 170.954 681.431 171.207 679.913 171.207C678.824 171.207 677.812 171.184 676.877 171.138C675.957 171.107 675.083 171.061 674.255 171V155.13C675.083 155.069 675.957 155.023 676.877 154.992C677.812 154.946 678.824 154.923 679.913 154.923ZM679.913 156.671C679.208 156.671 678.556 156.679 677.958 156.694C677.375 156.694 676.816 156.702 676.279 156.717V169.39C676.8 169.405 677.36 169.421 677.958 169.436C678.571 169.436 679.223 169.436 679.913 169.436C680.925 169.436 681.73 169.244 682.328 168.861C682.926 168.462 683.348 167.803 683.593 166.883C683.854 165.948 683.984 164.675 683.984 163.065C683.984 161.455 683.854 160.19 683.593 159.27C683.348 158.335 682.926 157.668 682.328 157.269C681.73 156.87 680.925 156.671 679.913 156.671ZM695.649 155.13C696.063 155.13 696.316 155.314 696.408 155.682L701.514 171H699.421L697.857 166.032H691.325L689.761 171H687.668L692.774 155.682C692.866 155.314 693.119 155.13 693.533 155.13H695.649ZM693.878 157.982L691.877 164.284H697.305L695.304 157.982C695.242 157.767 695.173 157.553 695.097 157.338C695.035 157.108 694.974 156.893 694.913 156.694H694.269C694.207 156.893 694.146 157.108 694.085 157.338C694.023 157.553 693.954 157.767 693.878 157.982ZM718.742 155.13C719.294 155.13 719.57 155.414 719.57 155.981L720.237 171H718.213L717.638 156.809H717.155L713.613 168.516C713.49 168.976 713.199 169.206 712.739 169.206H710.922C710.447 169.206 710.14 168.976 710.002 168.516L706.46 156.809H706L705.448 171H703.424L704.045 155.981C704.076 155.414 704.359 155.13 704.896 155.13H707.196C707.625 155.13 707.909 155.36 708.047 155.82L711.014 165.503C711.137 165.856 711.236 166.208 711.313 166.561C711.405 166.914 711.505 167.274 711.612 167.642H712.026C712.133 167.274 712.233 166.914 712.325 166.561C712.417 166.208 712.517 165.84 712.624 165.457L715.591 155.82C715.714 155.36 716.005 155.13 716.465 155.13H718.742ZM729.367 154.923C730.64 154.923 731.644 155.069 732.38 155.36C733.131 155.651 733.668 156.157 733.99 156.878C734.312 157.583 734.473 158.588 734.473 159.891C734.473 161.194 734.312 162.206 733.99 162.927C733.683 163.648 733.17 164.154 732.449 164.445C731.744 164.721 730.793 164.859 729.597 164.859C728.907 164.859 728.248 164.844 727.619 164.813C726.99 164.767 726.431 164.721 725.94 164.675V171H723.916V155.13C724.499 155.069 725.043 155.023 725.549 154.992C726.055 154.961 726.607 154.946 727.205 154.946C727.803 154.931 728.524 154.923 729.367 154.923ZM729.344 156.671C728.685 156.671 728.064 156.671 727.481 156.671C726.914 156.671 726.4 156.679 725.94 156.694V163.111H729.344C730.111 163.096 730.716 163.004 731.161 162.835C731.621 162.651 731.943 162.329 732.127 161.869C732.326 161.394 732.426 160.734 732.426 159.891C732.426 159.032 732.326 158.373 732.127 157.913C731.943 157.453 731.621 157.131 731.161 156.947C730.716 156.763 730.111 156.671 729.344 156.671ZM742.884 155.13C743.298 155.13 743.551 155.314 743.643 155.682L748.749 171H746.656L745.092 166.032H738.56L736.996 171H734.903L740.009 155.682C740.101 155.314 740.354 155.13 740.768 155.13H742.884ZM741.113 157.982L739.112 164.284H744.54L742.539 157.982C742.478 157.767 742.409 157.553 742.332 157.338C742.271 157.108 742.209 156.893 742.148 156.694H741.504C741.443 156.893 741.381 157.108 741.32 157.338C741.259 157.553 741.19 157.767 741.113 157.982ZM756.455 154.923C757.682 154.923 758.671 155.061 759.422 155.337C760.174 155.598 760.718 156.058 761.055 156.717C761.408 157.376 761.584 158.304 761.584 159.5C761.584 160.788 761.354 161.762 760.894 162.421C760.45 163.065 759.706 163.456 758.663 163.594V163.709C759.062 163.816 759.445 164.054 759.813 164.422C760.181 164.79 760.45 165.311 760.618 165.986L762.159 171H759.997L758.594 166.032C758.395 165.434 758.127 165.012 757.789 164.767C757.452 164.506 757.015 164.376 756.478 164.376C755.742 164.376 755.083 164.376 754.5 164.376C753.933 164.361 753.427 164.353 752.982 164.353V171H750.981V155.13C751.564 155.069 752.108 155.023 752.614 154.992C753.12 154.961 753.672 154.946 754.27 154.946C754.884 154.931 755.612 154.923 756.455 154.923ZM756.409 156.671C755.735 156.671 755.106 156.679 754.523 156.694C753.941 156.694 753.427 156.694 752.982 156.694V162.628H756.409C757.191 162.613 757.805 162.521 758.249 162.352C758.709 162.183 759.039 161.884 759.238 161.455C759.438 161.01 759.537 160.397 759.537 159.615C759.537 158.833 759.438 158.235 759.238 157.821C759.039 157.392 758.709 157.093 758.249 156.924C757.805 156.755 757.191 156.671 756.409 156.671Z" fill="white"/>
<g clip-path="url(#clip0)">
<path d="M125.187 87.9596C124.126 87.9596 123.174 87.2144 122.955 86.1346C122.702 84.8997 123.499 83.6952 124.734 83.4427C133.041 81.7515 141.847 71.5255 142.625 55.6875H132.551C131.292 55.6875 130.27 54.6655 130.27 53.4062C130.27 52.147 131.292 51.125 132.551 51.125H144.961C146.221 51.125 147.243 52.147 147.243 53.4062C147.243 73.174 136.378 85.727 125.647 87.914C125.492 87.9444 125.34 87.9596 125.187 87.9596V87.9596Z" fill="#F1EF23"/>
<path d="M95.7814 87.8988C95.6171 87.8988 95.4498 87.8805 95.2795 87.844C84.7067 85.4715 74 72.882 74 53.4063C74 52.147 75.022 51.125 76.2812 51.125H88.4479C89.7072 51.125 90.7292 52.147 90.7292 53.4063C90.7292 54.6655 89.7072 55.6875 88.4479 55.6875H78.6203C79.3959 71.3034 88.0829 81.5538 96.2802 83.391C97.509 83.6678 98.2816 84.8875 98.0079 86.1163C97.7676 87.1779 96.8247 87.8988 95.7814 87.8988V87.8988Z" fill="#F1EF23"/>
<path d="M114.301 91.001C113.042 91.001 112.02 92.023 112.02 93.2822H108.979C108.979 92.023 107.957 91.001 106.697 91.001C105.438 91.001 104.416 92.023 104.416 93.2822V104.354C104.416 105.613 105.438 106.635 106.697 106.635H114.301C115.561 106.635 116.583 105.613 116.583 104.354V93.2822C116.583 92.023 115.561 91.001 114.301 91.001Z" fill="#F1EF23"/>
<path d="M117.343 102.833H103.656C99.0414 102.833 95.291 106.583 95.291 111.198V112.718C95.291 113.978 96.313 115 97.5723 115H123.426C124.686 115 125.708 113.978 125.708 112.718V111.198C125.708 106.583 121.957 102.833 117.343 102.833Z" fill="#F1EF23"/>
<path d="M129.51 42H91.4889C88.5537 42 86.166 44.3877 86.166 47.3229V69.3902C86.2968 89.0272 108.793 97.0542 109.751 97.3857C109.994 97.4709 110.247 97.5134 110.499 97.5134C110.752 97.5134 111.004 97.4709 111.245 97.3887C112.206 97.0542 134.833 89.0242 134.833 69.375V47.3229C134.833 44.3877 132.445 42 129.51 42Z" fill="#F1EF23"/>
</g>
<path d="M287.751 80.6504H281.537C282.171 82.4247 282.517 84.3395 282.517 86.3352V110.364C282.517 111.197 282.375 111.995 282.117 112.738H292.391C296.228 112.738 299.35 109.544 299.35 105.617V92.5179C299.35 85.9742 294.147 80.6504 287.751 80.6504Z" fill="#58D9CF"/>
<path d="M235.834 86.3352C235.834 84.3393 236.18 82.4247 236.813 80.6504H230.599C224.203 80.6504 219 85.9742 219 92.5181V105.618C219 109.544 222.122 112.738 225.959 112.738H236.233C235.975 111.995 235.834 111.197 235.834 110.364V86.3352V86.3352Z" fill="#58D9CF"/>
<path d="M266.278 74.4678H252.072C245.676 74.4678 240.473 79.7916 240.473 86.3355V110.365C240.473 111.675 241.511 112.738 242.792 112.738H275.557C276.838 112.738 277.877 111.676 277.877 110.365V86.3355C277.877 79.7916 272.674 74.4678 266.278 74.4678Z" fill="#58D9CF"/>
<path d="M259.176 43C251.484 43 245.227 49.4026 245.227 57.2726C245.227 62.6107 248.106 67.2729 252.359 69.7206C254.376 70.8815 256.701 71.545 259.176 71.545C261.651 71.545 263.976 70.8815 265.993 69.7206C270.246 67.2729 273.125 62.6105 273.125 57.2726C273.125 49.4027 266.868 43 259.176 43Z" fill="#58D9CF"/>
<path d="M234.68 56.3037C228.928 56.3037 224.248 61.0919 224.248 66.9776C224.248 72.8633 228.928 77.6515 234.68 77.6515C236.14 77.6515 237.529 77.3422 238.791 76.7863C240.974 75.825 242.773 74.1233 243.887 71.9917C244.668 70.4957 245.113 68.789 245.113 66.9776C245.113 61.0921 240.433 56.3037 234.68 56.3037Z" fill="#58D9CF"/>
<path d="M283.671 56.3037C277.918 56.3037 273.238 61.0919 273.238 66.9776C273.238 68.7891 273.683 70.4958 274.464 71.9917C275.578 74.1234 277.377 75.8251 279.56 76.7863C280.822 77.3422 282.211 77.6515 283.671 77.6515C289.423 77.6515 294.103 72.8633 294.103 66.9776C294.103 61.0919 289.423 56.3037 283.671 56.3037Z" fill="#58D9CF"/>
<path d="M399.829 41.3382C398.352 41.3382 397.152 40.139 397.152 38.6614V31.6768C397.152 30.1992 398.352 29 399.829 29C401.307 29 402.506 30.1992 402.506 31.6768V38.6614C402.506 40.139 401.307 41.3382 399.829 41.3382Z" fill="#F78D1B"/>
<path d="M423.281 51.0536C422.596 51.0536 421.911 50.7931 421.39 50.2684C420.344 49.2227 420.344 47.5274 421.39 46.4817L426.329 41.5421C427.375 40.4964 429.07 40.4964 430.116 41.5421C431.162 42.5878 431.162 44.2831 430.116 45.3289L425.177 50.2684C424.652 50.7895 423.967 51.0536 423.281 51.0536V51.0536Z" fill="#F78D1B"/>
<path d="M439.98 74.5049H432.995C431.518 74.5049 430.318 73.3057 430.318 71.8282C430.318 70.3506 431.518 69.1514 432.995 69.1514H439.98C441.457 69.1514 442.657 70.3506 442.657 71.8282C442.657 73.3057 441.457 74.5049 439.98 74.5049Z" fill="#F78D1B"/>
<path d="M428.221 102.897C427.536 102.897 426.85 102.637 426.329 102.112L421.39 97.1726C420.344 96.1269 420.344 94.4316 421.39 93.3859C422.435 92.3401 424.131 92.3401 425.177 93.3859L430.116 98.3254C431.162 99.3712 431.162 101.066 430.116 102.112C429.591 102.637 428.906 102.897 428.221 102.897Z" fill="#F78D1B"/>
<path d="M371.438 102.897C370.752 102.897 370.067 102.637 369.546 102.112C368.5 101.066 368.5 99.3712 369.546 98.3254L374.486 93.3859C375.531 92.3401 377.227 92.3401 378.272 93.3859C379.318 94.4316 379.318 96.1269 378.272 97.1726L373.333 102.112C372.808 102.637 372.123 102.897 371.438 102.897V102.897Z" fill="#F78D1B"/>
<path d="M366.661 74.5049H359.677C358.199 74.5049 357 73.3057 357 71.8282C357 70.3506 358.199 69.1514 359.677 69.1514H366.661C368.139 69.1514 369.338 70.3506 369.338 71.8282C369.338 73.3057 368.139 74.5049 366.661 74.5049Z" fill="#F78D1B"/>
<path d="M376.377 51.0536C375.692 51.0536 375.007 50.7931 374.486 50.2684L369.546 45.3289C368.5 44.2831 368.5 42.5878 369.546 41.5421C370.592 40.4964 372.287 40.4964 373.333 41.5421L378.272 46.4817C379.318 47.5274 379.318 49.2227 378.272 50.2684C377.744 50.7895 377.062 51.0536 376.377 51.0536V51.0536Z" fill="#F78D1B"/>
<path d="M410.535 103.95V108.412C410.535 111.838 407.716 114.657 404.29 114.657H395.367C392.369 114.657 389.121 112.373 389.121 107.376V103.95H410.535Z" fill="#F78D1B"/>
<path d="M415.567 52.4124C409.714 47.6656 402.005 45.8097 394.474 47.4158C385.016 49.3787 377.343 57.0879 375.38 66.5459C373.381 76.2537 377.022 85.8901 384.802 91.779C386.908 93.3494 388.371 95.7764 388.871 98.5959V98.6316C388.942 98.5959 389.049 98.5959 389.121 98.5959H410.535C410.606 98.5959 410.642 98.5959 410.713 98.6316V98.5959C411.213 95.8834 412.819 93.3851 415.282 91.4578C421.313 86.6753 424.811 79.5372 424.811 71.8281C424.811 64.2617 421.456 57.195 415.567 52.4124ZM413.212 73.6126C411.748 73.6126 410.535 72.3991 410.535 70.9358C410.535 65.5108 406.145 61.1209 400.72 61.1209C399.257 61.1209 398.043 59.9074 398.043 58.4441C398.043 56.9808 399.257 55.7673 400.72 55.7673C409.072 55.7673 415.888 62.5842 415.888 70.9358C415.888 72.3991 414.675 73.6126 413.212 73.6126Z" fill="#F78D1B"/>
<path d="M388.871 98.5967H389.121C389.05 98.5967 388.942 98.5967 388.871 98.6324V98.5967Z" fill="#F78D1B"/>
<path d="M410.714 98.5967V98.6324C410.642 98.5967 410.607 98.5967 410.535 98.5967H410.714Z" fill="#F78D1B"/>
<path d="M516.334 75.4443C515.047 75.4443 514.002 76.4898 514.002 77.7766C514.002 79.0635 515.047 80.109 516.334 80.109C517.621 80.109 518.667 79.0635 518.667 77.7766C518.667 76.4898 517.621 75.4443 516.334 75.4443Z" fill="#C69FD5"/>
<path d="M544.831 72.6026C543.068 70.8395 539.998 70.8395 538.235 72.6025C537.674 73.1605 537.283 73.8209 537.062 74.5658V74.5681C536.265 77.2556 534.409 79.5197 531.967 80.9592C535.987 83.2323 541.474 82.5558 544.831 79.1985C546.654 77.3747 546.654 74.4267 544.831 72.6026Z" fill="#C69FD5"/>
<path d="M520.998 94.1025C519.711 94.1025 518.666 95.148 518.666 96.4349C518.666 97.7217 519.711 98.7672 520.998 98.7672C522.285 98.7672 523.331 97.7217 523.331 96.4349C523.331 95.148 522.285 94.1025 520.998 94.1025Z" fill="#C69FD5"/>
<path d="M525.662 61.4512C524.376 61.4512 523.33 62.4966 523.33 63.7835C523.33 65.0703 524.375 66.1158 525.662 66.1158C526.949 66.1158 527.995 65.0703 527.995 63.7835C527.995 62.4966 526.949 61.4512 525.662 61.4512Z" fill="#C69FD5"/>
<path d="M569.142 74.8916C568.394 71.4378 567.103 68.1719 565.339 65.1193C560.921 68.9802 555.085 73.3185 550.579 73.8784C551.386 77.2526 550.342 80.4386 548.129 82.6515C545.223 85.5601 541.358 87.1612 537.244 87.1612C533.133 87.1612 529.268 85.5601 526.36 82.6515C525.431 81.7203 524.672 81.0383 525.132 79.6224C525.401 78.791 526.116 78.1784 526.979 78.0394C529.68 77.6044 531.883 75.7822 532.589 73.3977C533.026 71.9173 533.839 70.5552 534.939 69.4574C537.23 67.1652 540.629 66.3909 543.701 67.0853C544.218 62.5835 548.711 56.5941 552.483 52.2568C539.312 44.6688 521.924 46.184 510.255 57.8597C501.953 66.1617 498.448 77.6339 500.639 89.3362C503.164 102.824 513.871 113.839 527.287 116.747C529.856 117.303 532.432 117.581 534.987 117.581C540.97 117.581 546.182 116.446 548.168 110.408C549.396 106.678 548.446 102.646 545.688 99.8883C543.864 98.0642 543.864 95.1163 545.688 93.2924C547.451 91.5294 550.521 91.5294 552.284 93.2924C555.04 96.0484 559.062 97.0003 562.804 95.7727C566.425 94.5816 569.024 91.5271 569.584 87.8033C570.226 83.5601 570.078 79.2166 569.142 74.8916ZM525.663 56.9418C529.521 56.9418 532.66 60.0804 532.66 63.9386C532.66 67.7968 529.521 70.9354 525.663 70.9354C521.805 70.9354 518.666 67.7968 518.666 63.9386C518.666 60.0805 521.804 56.9418 525.663 56.9418ZM509.337 77.9323C509.337 74.0741 512.475 70.9356 516.334 70.9356C520.192 70.9356 523.33 74.0741 523.33 77.9323C523.33 81.7906 520.192 84.9291 516.334 84.9291C512.475 84.9291 509.337 81.7906 509.337 77.9323ZM520.998 103.587C517.14 103.587 514.001 100.449 514.001 96.5906C514.001 92.7323 517.14 89.5938 520.998 89.5938C524.856 89.5938 527.995 92.7323 527.995 96.5906C527.995 100.449 524.856 103.587 520.998 103.587Z" fill="#C69FD5"/>
<path d="M579.273 38.2506C579.198 38.1755 579.022 38 578.446 38C575.547 38 570.265 41.5175 564.982 46.1612L571.264 52.4426C577.715 45.0995 580.587 39.5663 579.273 38.2506Z" fill="#C69FD5"/>
<path d="M561.554 49.3301C561.077 49.7892 560.592 50.2465 560.13 50.7077C553.216 57.6248 548.205 64.8084 548.221 67.7921C548.227 69.0709 549.313 69.4862 550.262 69.1537C554.064 68.5172 561.316 62.7147 566.726 57.3039C567.214 56.8162 567.634 56.3522 568.097 55.8727L561.554 49.3301Z" fill="#C69FD5"/>
<path d="M717.202 54.6667C716.428 54.6667 715.651 54.6943 714.872 54.7481L718.003 53.0326C718.537 52.7397 718.869 52.1798 718.869 51.5711V50.282L720.816 50.9037C721.24 51.0372 721.713 50.9933 722.115 50.7817L733.793 44.4665C734.512 44.0775 734.842 43.2247 734.574 42.4533C734.315 41.7095 732.463 38.0002 721.333 38.0002C713.944 38 703.351 45.2136 698 53.4867C692.648 45.2136 682.056 38 674.667 38C663.537 38 661.685 41.7094 661.426 42.4531C661.157 43.2247 661.488 44.0775 662.207 44.4664L673.885 50.7815C674.283 50.9931 674.755 51.037 675.184 50.9036L677.131 50.2818V51.5709C677.131 52.1797 677.463 52.7395 677.997 53.0325L681.128 54.7479C680.349 54.6942 679.572 54.6665 678.798 54.6665C666.747 54.6667 658 60.9753 658 69.6666C658 70.1565 658.215 70.6221 658.589 70.9377C658.962 71.2535 659.457 71.3918 659.94 71.3104L671.369 69.4062C671.885 69.3199 672.331 68.9976 672.574 68.5338L673.579 66.6035L674.188 67.7721C674.522 68.4101 675.225 68.7568 675.939 68.6445L688.874 66.4887C685.423 76.5468 685.96 91.0103 686.848 100.459C671.524 102.613 661.333 108.89 661.333 116.333C661.333 117.254 662.079 118 663 118H733C733.921 118 734.667 117.254 734.667 116.333C734.667 107.947 721.682 101.117 703.654 99.8885C700.226 91.1041 696.568 77.3421 700.645 65.4085L720.06 68.6445C720.765 68.7535 721.477 68.4101 721.812 67.7721L722.42 66.6035L723.426 68.5338C723.669 68.9977 724.115 69.3199 724.631 69.4062L736.06 71.3105C736.151 71.3252 736.242 71.3334 736.333 71.3334C736.725 71.3334 737.108 71.1951 737.411 70.9379C737.785 70.6221 738 70.1566 738 69.6668C738 60.9753 729.253 54.6667 717.202 54.6667Z" fill="#B4876F"/>
<defs>
<clipPath id="clip0">
<rect width="73" height="73" fill="white" transform="translate(74 42)"/>
</clipPath>
</defs>
</svg>
