<svg width="816" height="298" viewBox="0 0 816 298" fill="none" xmlns="http://www.w3.org/2000/svg">
<rect x="33" y="76" width="103" height="154" rx="5" fill="#EFEFEF"/>
<rect x="39" y="201" width="92" height="23" rx="5" fill="#8E8E8E"/>
<rect x="43" y="176" width="17" height="17" rx="3" fill="#D2D2D2"/>
<rect x="65" y="176" width="17" height="17" rx="3" fill="#D2D2D2"/>
<rect x="87" y="176" width="17" height="17" rx="3" fill="#D2D2D2"/>
<rect x="43" y="127" width="39" height="26" rx="4" fill="#D2D2D2"/>
<rect x="109" y="176" width="17" height="17" rx="3" fill="#D2D2D2"/>
<rect x="154" y="76" width="234" height="154" rx="5" fill="#EFEFEF"/>
<rect x="162" y="81" width="218" height="23" rx="5" fill="#8E8E8E"/>
<rect x="164" y="201" width="17" height="17" rx="3" fill="#EB861E"/>
<rect x="186" y="201" width="17" height="17" rx="3" fill="#D2D2D2"/>
<rect x="208" y="201" width="17" height="17" rx="3" fill="#D2D2D2"/>
<rect x="230" y="201" width="17" height="17" rx="3" fill="#D2D2D2"/>
<rect x="341" y="192" width="39" height="26" rx="4" fill="#D2D2D2"/>
<path d="M52.9756 89.6436C52.7809 90.1598 52.4974 90.9385 52.125 91.9795C51.6426 91.9795 50.9189 91.9795 49.9541 91.9795C49.9541 93.1898 49.9541 95.0094 49.9541 97.4385C49.9541 97.8701 49.8018 98.2383 49.4971 98.543C49.1924 98.8477 48.8242 99 48.3926 99C48.181 99 47.8551 99 47.415 99C47.415 97.4427 47.415 95.1025 47.415 91.9795C46.9326 91.9795 46.209 91.9795 45.2441 91.9795C45.0579 91.4632 44.7744 90.6846 44.3936 89.6436C45.8239 89.6436 47.2542 89.6436 48.6846 89.6436C50.1149 89.6436 51.5452 89.6436 52.9756 89.6436ZM52.6562 89.6436C53.4771 89.6436 54.7128 89.6436 56.3632 89.6436C56.3632 91.7171 56.3632 94.8359 56.3632 99C55.7961 99 54.9498 99 53.8241 99C53.8241 97.485 53.8241 95.2083 53.8241 92.1699C53.8241 91.5605 53.7226 91.04 53.5195 90.6084C53.3163 90.1768 53.0286 89.8551 52.6562 89.6436ZM63.5594 99C63.2124 98.3145 62.6877 97.2861 61.9852 95.915C61.9175 95.7881 61.8244 95.6865 61.7059 95.6104C61.5789 95.5342 61.4435 95.4961 61.2996 95.4961C61.0881 95.4961 60.7749 95.4961 60.3602 95.4961C60.3602 96.2747 60.3602 97.4427 60.3602 99C59.7931 99 58.9468 99 57.8211 99C57.8211 97.485 57.8211 95.2083 57.8211 92.1699C57.8211 91.5605 57.7196 91.04 57.5164 90.6084C57.3133 90.1768 57.0256 89.8551 56.6532 89.6436C57.4741 89.6436 58.7098 89.6436 60.3602 89.6436C60.3602 90.4222 60.3602 91.5902 60.3602 93.1475C60.5718 93.1475 60.8849 93.1475 61.2996 93.1475C61.4435 93.1475 61.5747 93.1094 61.6932 93.0332C61.8202 92.957 61.9175 92.8512 61.9852 92.7158C62.3322 92.0387 62.8569 91.0146 63.5594 89.6436C64.1942 89.6436 65.1421 89.6436 66.4032 89.6436C65.9123 90.5999 65.176 92.043 64.1942 93.9727C64.1349 94.0827 64.1053 94.1969 64.1053 94.3154C64.1053 94.4424 64.1349 94.5609 64.1942 94.6709C64.6851 95.6357 65.4214 97.0788 66.4032 99C65.9292 99 65.4552 99 64.9813 99C64.5073 99 64.0334 99 63.5594 99ZM70.0828 96.918C70.836 96.918 71.9617 96.918 73.4597 96.918C73.6205 97.3835 73.8617 98.0775 74.1834 99C73.0492 99 71.3565 99 69.1052 99C68.6821 99 68.3139 98.8477 68.0007 98.543C67.6961 98.2383 67.5437 97.8701 67.5437 97.4385C67.5437 96.2705 67.5437 94.5143 67.5437 92.1699C67.5437 91.5605 67.4421 91.04 67.239 90.6084C67.0359 90.1768 66.7481 89.8551 66.3757 89.6436C68.0685 89.6436 70.6033 89.6436 73.9802 89.6436C73.8025 90.1344 73.5359 90.8708 73.1804 91.8525C72.4864 91.8525 71.4539 91.8525 70.0828 91.8525C70.0828 92.1911 70.0828 92.7031 70.0828 93.3887C70.6837 93.3887 71.5808 93.3887 72.7742 93.3887C72.6134 93.8203 72.3764 94.4678 72.0632 95.3311C71.6231 95.3311 70.963 95.3311 70.0828 95.3311C70.0828 95.5934 70.0828 95.86 70.0828 96.1309C70.0828 96.3932 70.0828 96.6556 70.0828 96.918ZM82.5095 89.6436C82.3148 90.1598 82.0313 90.9385 81.6589 91.9795C81.1764 91.9795 80.4528 91.9795 79.488 91.9795C79.488 93.1898 79.488 95.0094 79.488 97.4385C79.488 97.8701 79.3356 98.2383 79.0309 98.543C78.7262 98.8477 78.3581 99 77.9264 99C77.7149 99 77.389 99 76.9489 99C76.9489 97.4427 76.9489 95.1025 76.9489 91.9795C76.4665 91.9795 75.7429 91.9795 74.778 91.9795C74.5918 91.4632 74.3083 90.6846 73.9274 89.6436C75.3578 89.6436 76.7881 89.6436 78.2184 89.6436C79.6488 89.6436 81.0791 89.6436 82.5095 89.6436ZM50.5762 100.644C51.5156 100.644 52.252 100.936 52.7852 101.52C53.3268 102.112 53.5977 102.924 53.5977 103.957C53.5977 104.99 53.3268 105.798 52.7852 106.382C52.2435 106.974 51.5029 107.271 50.5635 107.271C50.0641 107.271 49.3193 107.271 48.3291 107.271C48.3291 107.88 48.3291 108.79 48.3291 110C47.762 110 46.9157 110 45.79 110C45.79 108.485 45.79 106.208 45.79 103.17C45.79 102.561 45.6885 102.04 45.4854 101.608C45.2822 101.177 44.9945 100.855 44.6221 100.644C45.6123 100.644 46.6068 100.644 47.6055 100.644C48.5957 100.644 49.5859 100.644 50.5762 100.644ZM49.8779 105.227C50.2503 105.227 50.5381 105.117 50.7412 104.896C50.9528 104.668 51.0586 104.359 51.0586 103.97C51.0586 103.572 50.9528 103.259 50.7412 103.03C50.5296 102.81 50.2419 102.7 49.8779 102.7C49.5309 102.7 49.0146 102.7 48.3291 102.7C48.3291 103.259 48.3291 104.101 48.3291 105.227C48.583 105.227 48.8411 105.227 49.1035 105.227C49.3574 105.227 49.6156 105.227 49.8779 105.227ZM56.9853 107.918C57.7385 107.918 58.8642 107.918 60.3622 107.918C60.523 108.383 60.7642 109.077 61.0859 110C59.9517 110 58.259 110 56.0077 110C55.5846 110 55.2164 109.848 54.9032 109.543C54.5986 109.238 54.4462 108.87 54.4462 108.438C54.4462 107.271 54.4462 105.514 54.4462 103.17C54.4462 102.561 54.3446 102.04 54.1415 101.608C53.9384 101.177 53.6506 100.855 53.2782 100.644C54.971 100.644 57.5058 100.644 60.8827 100.644C60.705 101.134 60.4384 101.871 60.0829 102.853C59.3889 102.853 58.3564 102.853 56.9853 102.853C56.9853 103.191 56.9853 103.703 56.9853 104.389C57.5862 104.389 58.4833 104.389 59.6767 104.389C59.5159 104.82 59.2789 105.468 58.9657 106.331C58.5256 106.331 57.8655 106.331 56.9853 106.331C56.9853 106.593 56.9853 106.86 56.9853 107.131C56.9853 107.393 56.9853 107.656 56.9853 107.918ZM65.8446 100.644C67.2072 100.644 68.2778 100.999 69.0565 101.71C69.8351 102.429 70.2287 103.411 70.2371 104.655C70.2371 104.951 70.2371 105.396 70.2371 105.988C70.2371 107.232 69.8478 108.214 69.0692 108.934C68.2821 109.645 67.2072 110 65.8446 110C65.0405 110 63.8345 110 62.2264 110C62.2264 108.485 62.2264 106.208 62.2264 103.17C62.2264 102.561 62.1248 102.04 61.9217 101.608C61.7186 101.177 61.4308 100.855 61.0584 100.644C61.854 100.644 62.6538 100.644 63.4579 100.644C64.2534 100.644 65.049 100.644 65.8446 100.644ZM67.5838 106.052C67.5838 105.722 67.5838 105.235 67.5838 104.592C67.5838 104.092 67.4273 103.699 67.1141 103.411C66.801 103.123 66.3735 102.979 65.8319 102.979C65.5949 102.979 65.2394 102.979 64.7655 102.979C64.7655 104.021 64.7655 105.582 64.7655 107.664C65.0024 107.664 65.3579 107.664 65.8319 107.664C66.3735 107.664 66.801 107.52 67.1141 107.232C67.4273 106.945 67.5838 106.551 67.5838 106.052ZM70.2097 100.644C71.0307 100.644 72.2664 100.644 73.9168 100.644C73.9168 102.717 73.9168 105.836 73.9168 110C73.3497 110 72.5033 110 71.3777 110C71.3777 108.485 71.3777 106.208 71.3777 103.17C71.3777 102.561 71.2761 102.04 71.073 101.608C70.8699 101.177 70.5821 100.855 70.2097 100.644ZM80.6305 110C80.5374 109.738 80.3978 109.348 80.2116 108.832C79.5261 108.832 78.4935 108.832 77.1139 108.832C77.0124 109.094 76.8685 109.484 76.6823 110C76.0814 110 75.18 110 73.9782 110C74.5114 108.536 75.3112 106.335 76.3776 103.398C76.5892 102.823 76.6738 102.302 76.6315 101.837C76.5977 101.371 76.4411 100.974 76.1618 100.644C76.6358 100.644 77.3467 100.644 78.2946 100.644C78.7855 100.644 79.2298 100.783 79.6276 101.062C80.0339 101.342 80.3216 101.714 80.4909 102.18C81.1172 103.915 82.0651 106.521 83.3346 110C82.8861 110 82.4375 110 81.9889 110C81.5319 110 81.0791 110 80.6305 110ZM77.863 106.75C78.2184 106.75 78.7474 106.75 79.4499 106.75C79.2721 106.259 79.0055 105.527 78.6501 104.554C78.5231 104.918 78.3919 105.282 78.2565 105.646C78.1296 106.018 77.9984 106.386 77.863 106.75Z" fill="#EC8E1E"/>
<path d="M179.976 87.6436C179.781 88.1598 179.497 88.9385 179.125 89.9795C178.643 89.9795 177.919 89.9795 176.954 89.9795C176.954 91.1898 176.954 93.0094 176.954 95.4385C176.954 95.8701 176.802 96.2383 176.497 96.543C176.192 96.8477 175.824 97 175.393 97C175.181 97 174.855 97 174.415 97C174.415 95.4427 174.415 93.1025 174.415 89.9795C173.933 89.9795 173.209 89.9795 172.244 89.9795C172.058 89.4632 171.774 88.6846 171.394 87.6436C172.824 87.6436 174.254 87.6436 175.685 87.6436C177.115 87.6436 178.545 87.6436 179.976 87.6436ZM179.656 87.6436C180.477 87.6436 181.713 87.6436 183.363 87.6436C183.363 89.7171 183.363 92.8359 183.363 97C182.796 97 181.95 97 180.824 97C180.824 95.485 180.824 93.2083 180.824 90.1699C180.824 89.5605 180.723 89.04 180.519 88.6084C180.316 88.1768 180.029 87.8551 179.656 87.6436ZM190.559 97C190.212 96.3145 189.688 95.2861 188.985 93.915C188.917 93.7881 188.824 93.6865 188.706 93.6104C188.579 93.5342 188.444 93.4961 188.3 93.4961C188.088 93.4961 187.775 93.4961 187.36 93.4961C187.36 94.2747 187.36 95.4427 187.36 97C186.793 97 185.947 97 184.821 97C184.821 95.485 184.821 93.2083 184.821 90.1699C184.821 89.5605 184.72 89.04 184.516 88.6084C184.313 88.1768 184.026 87.8551 183.653 87.6436C184.474 87.6436 185.71 87.6436 187.36 87.6436C187.36 88.4222 187.36 89.5902 187.36 91.1475C187.572 91.1475 187.885 91.1475 188.3 91.1475C188.444 91.1475 188.575 91.1094 188.693 91.0332C188.82 90.957 188.917 90.8512 188.985 90.7158C189.332 90.0387 189.857 89.0146 190.559 87.6436C191.194 87.6436 192.142 87.6436 193.403 87.6436C192.912 88.5999 192.176 90.043 191.194 91.9727C191.135 92.0827 191.105 92.1969 191.105 92.3154C191.105 92.4424 191.135 92.5609 191.194 92.6709C191.685 93.6357 192.421 95.0788 193.403 97C192.929 97 192.455 97 191.981 97C191.507 97 191.033 97 190.559 97ZM197.083 94.918C197.836 94.918 198.962 94.918 200.46 94.918C200.621 95.3835 200.862 96.0775 201.183 97C200.049 97 198.357 97 196.105 97C195.682 97 195.314 96.8477 195.001 96.543C194.696 96.2383 194.544 95.8701 194.544 95.4385C194.544 94.2705 194.544 92.5143 194.544 90.1699C194.544 89.5605 194.442 89.04 194.239 88.6084C194.036 88.1768 193.748 87.8551 193.376 87.6436C195.068 87.6436 197.603 87.6436 200.98 87.6436C200.802 88.1344 200.536 88.8708 200.18 89.8525C199.486 89.8525 198.454 89.8525 197.083 89.8525C197.083 90.1911 197.083 90.7031 197.083 91.3887C197.684 91.3887 198.581 91.3887 199.774 91.3887C199.613 91.8203 199.376 92.4678 199.063 93.3311C198.623 93.3311 197.963 93.3311 197.083 93.3311C197.083 93.5934 197.083 93.86 197.083 94.1309C197.083 94.3932 197.083 94.6556 197.083 94.918ZM209.509 87.6436C209.315 88.1598 209.031 88.9385 208.659 89.9795C208.176 89.9795 207.453 89.9795 206.488 89.9795C206.488 91.1898 206.488 93.0094 206.488 95.4385C206.488 95.8701 206.336 96.2383 206.031 96.543C205.726 96.8477 205.358 97 204.926 97C204.715 97 204.389 97 203.949 97C203.949 95.4427 203.949 93.1025 203.949 89.9795C203.466 89.9795 202.743 89.9795 201.778 89.9795C201.592 89.4632 201.308 88.6846 200.927 87.6436C202.358 87.6436 203.788 87.6436 205.218 87.6436C206.649 87.6436 208.079 87.6436 209.509 87.6436ZM215.144 87.6436C216.084 87.6436 216.82 87.9355 217.353 88.5195C217.895 89.112 218.166 89.9245 218.166 90.957C218.166 91.9896 217.895 92.7979 217.353 93.3818C216.811 93.9743 216.071 94.2705 215.131 94.2705C214.632 94.2705 213.887 94.2705 212.897 94.2705C212.897 94.8799 212.897 95.7897 212.897 97C212.33 97 211.484 97 210.358 97C210.358 95.485 210.358 93.2083 210.358 90.1699C210.358 89.5605 210.256 89.04 210.053 88.6084C209.85 88.1768 209.562 87.8551 209.19 87.6436C210.18 87.6436 211.175 87.6436 212.173 87.6436C213.164 87.6436 214.154 87.6436 215.144 87.6436ZM214.446 92.2266C214.818 92.2266 215.106 92.1165 215.309 91.8965C215.521 91.668 215.627 91.359 215.627 90.9697C215.627 90.5719 215.521 90.2588 215.309 90.0303C215.098 89.8102 214.81 89.7002 214.446 89.7002C214.099 89.7002 213.583 89.7002 212.897 89.7002C212.897 90.2588 212.897 91.1009 212.897 92.2266C213.151 92.2266 213.409 92.2266 213.671 92.2266C213.925 92.2266 214.184 92.2266 214.446 92.2266ZM221.553 94.918C222.306 94.918 223.432 94.918 224.93 94.918C225.091 95.3835 225.332 96.0775 225.654 97C224.52 97 222.827 97 220.576 97C220.153 97 219.784 96.8477 219.471 96.543C219.167 96.2383 219.014 95.8701 219.014 95.4385C219.014 94.2705 219.014 92.5143 219.014 90.1699C219.014 89.5605 218.913 89.04 218.709 88.6084C218.506 88.1768 218.219 87.8551 217.846 87.6436C219.539 87.6436 222.074 87.6436 225.451 87.6436C225.273 88.1344 225.006 88.8708 224.651 89.8525C223.957 89.8525 222.924 89.8525 221.553 89.8525C221.553 90.1911 221.553 90.7031 221.553 91.3887C222.154 91.3887 223.051 91.3887 224.245 91.3887C224.084 91.8203 223.847 92.4678 223.534 93.3311C223.094 93.3311 222.433 93.3311 221.553 93.3311C221.553 93.5934 221.553 93.86 221.553 94.1309C221.553 94.3932 221.553 94.6556 221.553 94.918ZM230.413 87.6436C231.775 87.6436 232.846 87.999 233.624 88.71C234.403 89.4294 234.797 90.4111 234.805 91.6553C234.805 91.9515 234.805 92.3958 234.805 92.9883C234.805 94.2324 234.416 95.2142 233.637 95.9336C232.85 96.6445 231.775 97 230.413 97C229.609 97 228.402 97 226.794 97C226.794 95.485 226.794 93.2083 226.794 90.1699C226.794 89.5605 226.693 89.04 226.49 88.6084C226.287 88.1768 225.999 87.8551 225.626 87.6436C226.422 87.6436 227.222 87.6436 228.026 87.6436C228.821 87.6436 229.617 87.6436 230.413 87.6436ZM232.152 93.0518C232.152 92.7217 232.152 92.235 232.152 91.5918C232.152 91.0924 231.995 90.6989 231.682 90.4111C231.369 90.1234 230.942 89.9795 230.4 89.9795C230.163 89.9795 229.807 89.9795 229.333 89.9795C229.333 91.0205 229.333 92.582 229.333 94.6641C229.57 94.6641 229.926 94.6641 230.4 94.6641C230.942 94.6641 231.369 94.5202 231.682 94.2324C231.995 93.9447 232.152 93.5511 232.152 93.0518ZM234.778 87.6436C235.599 87.6436 236.834 87.6436 238.485 87.6436C238.485 89.7171 238.485 92.8359 238.485 97C237.918 97 237.071 97 235.946 97C235.946 95.485 235.946 93.2083 235.946 90.1699C235.946 89.5605 235.844 89.04 235.641 88.6084C235.438 88.1768 235.15 87.8551 234.778 87.6436ZM245.199 97C245.105 96.7376 244.966 96.3483 244.78 95.832C244.094 95.832 243.061 95.832 241.682 95.832C241.58 96.0944 241.436 96.4837 241.25 97C240.649 97 239.748 97 238.546 97C239.079 95.5358 239.879 93.3353 240.946 90.3984C241.157 89.8229 241.242 89.3024 241.199 88.8369C241.166 88.3714 241.009 87.9736 240.73 87.6436C241.204 87.6436 241.915 87.6436 242.863 87.6436C243.353 87.6436 243.798 87.7832 244.196 88.0625C244.602 88.3418 244.89 88.7142 245.059 89.1797C245.685 90.9147 246.633 93.5215 247.903 97C247.454 97 247.005 97 246.557 97C246.1 97 245.647 97 245.199 97ZM242.431 93.75C242.786 93.75 243.315 93.75 244.018 93.75C243.84 93.2591 243.574 92.527 243.218 91.5537C243.091 91.9176 242.96 92.2816 242.824 92.6455C242.698 93.0179 242.566 93.3861 242.431 93.75Z" fill="white"/>
<path d="M717.19 240.745L691.22 241.866L665.252 240.745C665.252 240.745 654.592 249.139 654.818 266.377H690.879H691.563H727.622C727.85 249.139 717.19 240.745 717.19 240.745" fill="url(#paint0_linear)"/>
<path d="M730.729 160.905C730.729 160.905 731.088 178.144 746.495 184.494C761.905 190.845 783.405 201.733 783.766 243.467H723.204L730.729 160.905Z" fill="url(#paint1_linear)"/>
<path d="M651.035 160.906C651.035 160.906 650.676 178.144 635.269 184.495C619.86 190.846 598.359 201.733 598 243.467H658.56L651.035 160.906Z" fill="url(#paint2_linear)"/>
<path d="M732.798 245.283C732.798 245.283 747.043 79.1611 690.882 22.9999C634.722 79.1611 648.966 245.283 648.966 245.283H732.798Z" fill="#FBFDFE"/>
<path d="M714.473 107.604C714.473 120.506 704.013 130.967 691.108 130.967C678.206 130.967 667.747 120.506 667.747 107.604C667.747 94.7011 678.206 84.2405 691.108 84.2405C704.013 84.2405 714.473 94.7011 714.473 107.604Z" fill="url(#paint3_linear)"/>
<path d="M675.325 210.882C676.08 211.166 677.218 211.581 678.739 212.125C678.739 212.83 678.739 213.888 678.739 215.298C680.508 215.298 683.168 215.298 686.718 215.298C687.349 215.298 687.887 215.521 688.332 215.966C688.777 216.411 689 216.949 689 217.58C689 217.889 689 218.366 689 219.009C686.724 219.009 683.304 219.009 678.739 219.009C678.739 219.714 678.739 220.771 678.739 222.182C677.985 222.454 676.847 222.868 675.325 223.425C675.325 221.334 675.325 219.244 675.325 217.153C675.325 215.063 675.325 212.972 675.325 210.882ZM675.325 211.349C675.325 210.149 675.325 208.343 675.325 205.931C678.356 205.931 682.914 205.931 689 205.931C689 206.759 689 207.996 689 209.642C686.786 209.642 683.458 209.642 679.018 209.642C678.127 209.642 677.366 209.79 676.735 210.087C676.104 210.384 675.634 210.804 675.325 211.349ZM689 195.413C687.998 195.92 686.495 196.687 684.491 197.714C684.306 197.813 684.157 197.949 684.046 198.122C683.935 198.308 683.879 198.506 683.879 198.716C683.879 199.025 683.879 199.483 683.879 200.089C685.017 200.089 686.724 200.089 689 200.089C689 200.918 689 202.155 689 203.8C686.786 203.8 683.458 203.8 679.018 203.8C678.127 203.8 677.366 203.948 676.735 204.245C676.104 204.542 675.634 204.963 675.325 205.507C675.325 204.307 675.325 202.501 675.325 200.089C676.463 200.089 678.17 200.089 680.446 200.089C680.446 199.78 680.446 199.322 680.446 198.716C680.446 198.506 680.391 198.314 680.279 198.141C680.168 197.955 680.013 197.813 679.815 197.714C678.826 197.207 677.329 196.44 675.325 195.413C675.325 194.485 675.325 193.1 675.325 191.257C676.723 191.974 678.832 193.051 681.652 194.485C681.813 194.572 681.98 194.615 682.153 194.615C682.339 194.615 682.512 194.572 682.673 194.485C684.083 193.768 686.192 192.692 689 191.257C689 191.95 689 192.642 689 193.335C689 194.028 689 194.72 689 195.413ZM685.957 185.879C685.957 184.778 685.957 183.133 685.957 180.943C686.637 180.708 687.652 180.356 689 179.886C689 181.543 689 184.017 689 187.308C689 187.926 688.777 188.464 688.332 188.922C687.887 189.367 687.349 189.59 686.718 189.59C685.011 189.59 682.444 189.59 679.018 189.59C678.127 189.59 677.366 189.738 676.735 190.035C676.104 190.332 675.634 190.753 675.325 191.297C675.325 188.823 675.325 185.118 675.325 180.183C676.043 180.443 677.119 180.832 678.554 181.352C678.554 182.366 678.554 183.875 678.554 185.879C679.049 185.879 679.797 185.879 680.799 185.879C680.799 185.001 680.799 183.69 680.799 181.945C681.43 182.18 682.376 182.527 683.638 182.984C683.638 183.628 683.638 184.593 683.638 185.879C684.021 185.879 684.411 185.879 684.807 185.879C685.19 185.879 685.574 185.879 685.957 185.879ZM675.325 167.717C676.08 168.001 677.218 168.416 678.739 168.96C678.739 169.665 678.739 170.723 678.739 172.133C680.508 172.133 683.168 172.133 686.718 172.133C687.349 172.133 687.887 172.356 688.332 172.801C688.777 173.246 689 173.784 689 174.415C689 174.724 689 175.201 689 175.844C686.724 175.844 683.304 175.844 678.739 175.844C678.739 176.549 678.739 177.607 678.739 179.017C677.985 179.289 676.847 179.703 675.325 180.26C675.325 178.169 675.325 176.079 675.325 173.988C675.325 171.898 675.325 169.807 675.325 167.717ZM693.325 214.389C693.325 213.016 693.752 211.939 694.605 211.16C695.471 210.368 696.659 209.973 698.168 209.973C699.677 209.973 700.858 210.368 701.712 211.16C702.578 211.952 703.011 213.034 703.011 214.407C703.011 215.137 703.011 216.226 703.011 217.673C703.901 217.673 705.231 217.673 707 217.673C707 218.502 707 219.739 707 221.384C704.786 221.384 701.458 221.384 697.018 221.384C696.127 221.384 695.366 221.532 694.735 221.829C694.104 222.126 693.634 222.547 693.325 223.091C693.325 221.644 693.325 220.19 693.325 218.73C693.325 217.283 693.325 215.836 693.325 214.389ZM700.023 215.409C700.023 214.865 699.863 214.444 699.541 214.147C699.207 213.838 698.756 213.684 698.187 213.684C697.605 213.684 697.147 213.838 696.813 214.147C696.492 214.457 696.331 214.877 696.331 215.409C696.331 215.916 696.331 216.671 696.331 217.673C697.147 217.673 698.378 217.673 700.023 217.673C700.023 217.302 700.023 216.924 700.023 216.541C700.023 216.17 700.023 215.793 700.023 215.409ZM703.957 205.022C703.957 203.921 703.957 202.275 703.957 200.086C704.637 199.851 705.652 199.498 707 199.028C707 200.686 707 203.16 707 206.45C707 207.069 706.777 207.607 706.332 208.064C705.887 208.51 705.349 208.732 704.718 208.732C703.011 208.732 700.444 208.732 697.018 208.732C696.127 208.732 695.366 208.881 694.735 209.178C694.104 209.475 693.634 209.895 693.325 210.439C693.325 207.966 693.325 204.261 693.325 199.325C694.043 199.585 695.119 199.975 696.554 200.494C696.554 201.509 696.554 203.018 696.554 205.022C697.049 205.022 697.797 205.022 698.799 205.022C698.799 204.143 698.799 202.832 698.799 201.088C699.43 201.323 700.376 201.669 701.638 202.127C701.638 202.77 701.638 203.735 701.638 205.022C702.021 205.022 702.411 205.022 702.807 205.022C703.19 205.022 703.574 205.022 703.957 205.022ZM693.325 192.073C693.325 190.082 693.845 188.517 694.884 187.379C695.935 186.241 697.37 185.666 699.188 185.653C699.621 185.653 700.271 185.653 701.137 185.653C702.955 185.653 704.39 186.222 705.441 187.36C706.48 188.511 707 190.082 707 192.073C707 193.248 707 195.011 707 197.361C704.786 197.361 701.458 197.361 697.018 197.361C696.127 197.361 695.366 197.51 694.735 197.807C694.104 198.104 693.634 198.524 693.325 199.068C693.325 197.906 693.325 196.737 693.325 195.562C693.325 194.399 693.325 193.236 693.325 192.073ZM701.229 189.531C700.747 189.531 700.036 189.531 699.096 189.531C698.366 189.531 697.791 189.76 697.37 190.218C696.95 190.676 696.739 191.3 696.739 192.092C696.739 192.438 696.739 192.958 696.739 193.65C698.261 193.65 700.543 193.65 703.586 193.65C703.586 193.304 703.586 192.785 703.586 192.092C703.586 191.3 703.376 190.676 702.955 190.218C702.535 189.76 701.959 189.531 701.229 189.531ZM693.325 185.693C693.325 184.494 693.325 182.688 693.325 180.276C696.356 180.276 700.914 180.276 707 180.276C707 181.104 707 182.341 707 183.986C704.786 183.986 701.458 183.986 697.018 183.986C696.127 183.986 695.366 184.135 694.735 184.432C694.104 184.729 693.634 185.149 693.325 185.693ZM707 170.463C706.617 170.599 706.048 170.803 705.293 171.075C705.293 172.077 705.293 173.586 705.293 175.603C705.676 175.751 706.245 175.961 707 176.234C707 177.112 707 178.429 707 180.186C704.86 179.406 701.644 178.237 697.352 176.679C696.51 176.37 695.75 176.246 695.069 176.308C694.389 176.357 693.808 176.586 693.325 176.994C693.325 176.302 693.325 175.263 693.325 173.877C693.325 173.16 693.529 172.51 693.937 171.929C694.346 171.335 694.89 170.915 695.57 170.667C698.106 169.752 701.916 168.366 707 166.511C707 167.166 707 167.822 707 168.478C707 169.146 707 169.807 707 170.463ZM702.25 174.508C702.25 173.988 702.25 173.215 702.25 172.189C701.533 172.448 700.463 172.838 699.04 173.358C699.572 173.543 700.104 173.735 700.636 173.933C701.18 174.118 701.718 174.31 702.25 174.508Z" fill="#E45E4C"/>
<path d="M467 141H527L511.516 123" stroke="white" stroke-width="2"/>
<path d="M527 152L467 152L482.484 170" stroke="white" stroke-width="2"/>
<defs>
<linearGradient id="paint0_linear" x1="674.873" y1="226.863" x2="701.241" y2="283.489" gradientUnits="userSpaceOnUse">
<stop stop-color="#EF9359"/>
<stop offset="1" stop-color="#E35A4B"/>
</linearGradient>
<linearGradient id="paint1_linear" x1="776.08" y1="177.885" x2="719.829" y2="250.467" gradientUnits="userSpaceOnUse">
<stop stop-color="#F0C419"/>
<stop offset="1" stop-color="#E3574B"/>
</linearGradient>
<linearGradient id="paint2_linear" x1="607.781" y1="166.245" x2="649.289" y2="255.384" gradientUnits="userSpaceOnUse">
<stop stop-color="#F0C419"/>
<stop offset="1" stop-color="#E43624"/>
</linearGradient>
<linearGradient id="paint3_linear" x1="662.734" y1="55.654" x2="706.963" y2="136.628" gradientUnits="userSpaceOnUse">
<stop stop-color="#F0C419"/>
<stop offset="1" stop-color="#DF4747"/>
</linearGradient>
</defs>
</svg>
