<svg width="1366" height="668" viewBox="0 0 1366 668" fill="none" xmlns="http://www.w3.org/2000/svg">
<path d="M587.835 273.339C591.533 273.339 594.463 273.654 596.626 274.283C598.829 274.873 600.402 275.935 601.346 277.469C602.29 279.003 602.762 281.167 602.762 283.959C602.762 286.87 602.192 289.092 601.051 290.626C599.95 292.121 598.082 292.986 595.446 293.222V293.576C598.672 293.852 600.914 294.914 602.172 296.762C603.47 298.572 604.119 301.109 604.119 304.373C604.119 307.166 603.608 309.329 602.585 310.863C601.602 312.397 600.048 313.479 597.924 314.108C595.84 314.698 593.126 314.993 589.782 314.993C586.99 314.993 584.551 314.974 582.466 314.934C580.382 314.934 578.454 314.895 576.684 314.816C574.914 314.738 573.105 314.639 571.256 314.521V273.811C572.908 273.654 574.541 273.556 576.153 273.516C577.766 273.438 579.497 273.398 581.345 273.398C583.233 273.359 585.397 273.339 587.835 273.339ZM587.304 281.068C586.321 281.068 585.397 281.068 584.531 281.068C583.666 281.029 582.84 281.009 582.053 281.009V290.095H587.54C589.35 290.095 590.569 289.8 591.198 289.21C591.867 288.581 592.201 287.342 592.201 285.493C592.201 283.684 591.867 282.504 591.198 281.953C590.53 281.363 589.232 281.068 587.304 281.068ZM587.658 296.762H582.053V307.264C583.823 307.264 585.731 307.264 587.776 307.264C589.9 307.264 591.316 306.95 592.024 306.32C592.732 305.652 593.086 304.275 593.086 302.19C593.086 299.988 592.713 298.552 591.965 297.883C591.257 297.175 589.822 296.802 587.658 296.762ZM630.986 273.811C631.891 273.811 632.677 274.067 633.346 274.578C634.054 275.09 634.526 275.798 634.762 276.702L645.913 314.521H634.585L632.166 304.845H619.658L617.18 314.521H605.852L617.003 276.702C617.239 275.798 617.691 275.09 618.36 274.578C619.068 274.067 619.874 273.811 620.779 273.811H630.986ZM624.319 286.437L621.664 296.88H630.101L627.446 286.437C627.289 285.769 627.131 285.061 626.974 284.313C626.856 283.527 626.758 282.799 626.679 282.13H625.086C624.968 282.799 624.85 283.527 624.732 284.313C624.614 285.061 624.476 285.769 624.319 286.437ZM660.247 273.811V288.915H672.46V273.811H683.552V314.521H672.46V296.88H660.247V314.521H649.214V273.811H660.247ZM711.996 273.811C712.9 273.811 713.687 274.067 714.356 274.578C715.064 275.09 715.536 275.798 715.772 276.702L726.923 314.521H715.595L713.176 304.845H700.668L698.19 314.521H686.862L698.013 276.702C698.249 275.798 698.701 275.09 699.37 274.578C700.078 274.067 700.884 273.811 701.789 273.811H711.996ZM705.329 286.437L702.674 296.88H711.111L708.456 286.437C708.298 285.769 708.141 285.061 707.984 284.313C707.866 283.527 707.767 282.799 707.689 282.13H706.096C705.978 282.799 705.86 283.527 705.742 284.313C705.624 285.061 705.486 285.769 705.329 286.437ZM760.755 273.811L747.303 301.482V314.521H736.211V301.541L722.7 273.811H734.146L740.046 287.617C740.4 288.443 740.675 289.348 740.872 290.331C741.068 291.275 741.245 292.18 741.403 293.045H742.111C742.268 292.18 742.445 291.275 742.642 290.331C742.878 289.348 743.153 288.424 743.468 287.558L749.309 273.811H760.755ZM781.655 273.811C782.56 273.811 783.346 274.067 784.015 274.578C784.723 275.09 785.195 275.798 785.431 276.702L796.582 314.521H785.254L782.835 304.845H770.327L767.849 314.521H756.521L767.672 276.702C767.908 275.798 768.36 275.09 769.029 274.578C769.737 274.067 770.543 273.811 771.448 273.811H781.655ZM774.988 286.437L772.333 296.88H780.77L778.115 286.437C777.958 285.769 777.8 285.061 777.643 284.313C777.525 283.527 777.427 282.799 777.348 282.13H775.755C775.637 282.799 775.519 283.527 775.401 284.313C775.283 285.061 775.145 285.769 774.988 286.437Z" fill="#FF4D4D"/>
</svg>
