<svg width="84" height="144" viewBox="0 0 84 144" fill="none" xmlns="http://www.w3.org/2000/svg">
<path d="M12.8826 101.127C9.90545 99.9463 7.78004 97.2724 7.30114 94.1056L0.249364 47.0237C-0.422976 42.5529 2.32493 38.2769 6.67098 37.0312L27.6763 30.1895L26.0859 105.538C21.5094 104.657 17.0698 103.174 12.8826 101.127Z" fill="#2C3E50"/>
<path d="M82.6503 129.364C81.3441 133.829 77.2495 136.896 72.5978 136.896C66.8244 136.831 62.16 132.167 62.0952 126.393V132.215C62.1641 137.256 58.6991 141.659 53.7831 142.777C50.6622 143.455 47.4027 142.671 44.9308 140.649C42.4589 138.627 41.0446 135.588 41.0899 132.395V112.92C41.131 111.507 40.1812 110.258 38.8093 109.919C24.4357 106.348 23.1153 106.438 20.5347 103.918C31.5288 95.6085 46.0913 93.7166 58.8435 98.9408C71.5958 104.165 80.6456 115.73 82.6503 129.364Z" fill="#2C3E50"/>
<path d="M83.1002 91.7048C83.1002 123.603 83.4903 123.213 82.0499 126.213C80.8679 128.731 78.7277 130.671 76.1065 131.601C73.4853 132.531 70.6009 132.374 68.0964 131.165C64.4531 129.421 62.1235 125.751 62.0949 121.712V127.414C62.1638 132.455 58.6988 136.858 53.7828 137.976C50.6826 138.649 47.4446 137.88 44.9778 135.886C42.5109 133.891 41.0811 130.886 41.0896 127.714V108.209C41.1307 106.796 40.1809 105.547 38.809 105.208C23.5951 101.427 24.8855 101.787 24.2553 101.547C20.0355 100.08 17.1745 96.1415 17.0835 91.6747V58.8765L64.4354 55.5156L80.4295 84.713C82.153 86.6335 83.1044 89.1242 83.1002 91.7048V91.7048Z" fill="#35495E"/>
<path d="M68.0966 93.205V131.165C64.4333 129.443 62.0946 125.76 62.0951 121.712C62.0951 90.1142 62.4852 91.7046 60.9848 89.274C60.4616 87.9054 61.0034 86.359 62.2663 85.6161C63.5293 84.8732 65.1441 85.151 66.0861 86.2733C67.3756 88.3574 68.0708 90.7544 68.0966 93.205V93.205Z" fill="#2C3E50"/>
<path d="M18.4033 49.4839C17.233 51.4344 17.263 52.2746 16.3928 57.6159C14.4415 69.3094 20.3444 80.9083 30.9465 86.2132C50.4514 95.9356 50.3014 96.2057 53.0921 96.2057C56.3444 96.203 59.3423 94.4463 60.9344 91.6103C62.5265 88.7744 62.4652 85.3002 60.774 82.5222C58.9736 79.5215 56.723 78.9813 49.2811 75.2304L39.0185 70.0991C36.4473 68.8189 34.6413 66.3886 34.1573 63.5574L18.4033 49.4839Z" fill="#3F5C6C"/>
<path d="M59.0938 63.9472C66.2356 79.7012 59.934 81.9518 62.8147 88.1633C66.5656 96.3854 85.3804 97.1656 80.009 69.5586C79.0188 64.3673 77.2183 56.9855 73.0473 53.4146L59.0938 63.9472Z" fill="#3F5C6C"/>
<path d="M14.0835 33.19C14.0835 51.42 28.8618 66.1983 47.0918 66.1983C65.3218 66.1983 80.1001 51.42 80.1001 33.19C80.1001 14.96 65.3218 0.181641 47.0918 0.181641C28.8618 0.181641 14.0835 14.96 14.0835 33.19Z" fill="#547580"/>
<path d="M75.9284 49.244C63.5653 56.956 44.9306 55.4556 35.0881 46.0932C20.5645 32.3798 33.8278 12.1847 57.5938 12.1847C64.0475 12.0926 70.3984 13.8077 75.9284 17.1359C81.4845 27.1175 81.4845 39.2624 75.9284 49.244Z" fill="#F0C419"/>
<path d="M71.0978 36.1911C69.4405 36.1911 68.097 34.8476 68.097 33.1903C68.097 24.188 56.5741 24.188 56.094 24.188C54.4367 24.188 53.0933 22.8446 53.0933 21.1873C53.0933 19.53 54.4367 18.1865 56.094 18.1865C62.3356 18.1865 74.0986 21.1873 74.0986 33.1903C74.0986 34.8476 72.7551 36.1911 71.0978 36.1911Z" fill="#F9EAB0"/>
<path d="M78.8688 42.1922C78.1501 44.672 77.143 47.0589 75.868 49.304C67.0353 54.4265 56.473 55.6544 46.7007 52.6949C31.4268 48.0737 24.9152 34.9904 31.6969 24.4277C41.2393 35.5605 56.5431 46.1232 78.8688 42.1922Z" fill="#F29C1F"/>
</svg>
