<svg width="687" height="403" viewBox="0 0 687 403" fill="none" xmlns="http://www.w3.org/2000/svg">
<path d="M332.454 19.729C334.097 19.729 335.402 19.9127 336.369 20.28C337.336 20.6473 338.022 21.2853 338.428 22.194C338.853 23.1027 339.066 24.3883 339.066 26.051C339.066 27.6943 338.863 28.98 338.457 29.908C338.051 30.8167 337.384 31.4547 336.456 31.822C335.547 32.17 334.329 32.344 332.802 32.344C331.971 32.344 331.168 32.3247 330.395 32.286C329.641 32.228 328.955 32.17 328.336 32.112V40H325.436V19.99C326.171 19.9127 326.857 19.8547 327.495 19.816C328.152 19.7773 328.868 19.758 329.641 19.758C330.414 19.7387 331.352 19.729 332.454 19.729ZM332.425 22.136C331.632 22.136 330.888 22.1457 330.192 22.165C329.515 22.165 328.897 22.165 328.336 22.165V29.937H332.425C333.353 29.937 334.088 29.8307 334.629 29.618C335.17 29.386 335.557 28.9897 335.789 28.429C336.021 27.8683 336.137 27.0757 336.137 26.051C336.137 25.007 336.021 24.2047 335.789 23.644C335.557 23.0833 335.17 22.6967 334.629 22.484C334.088 22.252 333.353 22.136 332.425 22.136ZM349.758 19.729C351.344 19.729 352.62 19.903 353.586 20.251C354.572 20.5797 355.288 21.1693 355.732 22.02C356.177 22.8513 356.399 24.021 356.399 25.529C356.399 27.1143 356.109 28.3227 355.529 29.154C354.969 29.9853 354.021 30.488 352.687 30.662V30.807C353.19 30.923 353.683 31.213 354.166 31.677C354.65 32.141 355.007 32.8177 355.239 33.707L357.124 40H354.05L352.31 33.765C352.078 33.0303 351.75 32.5083 351.324 32.199C350.918 31.8897 350.396 31.735 349.758 31.735C348.888 31.735 348.105 31.735 347.409 31.735C346.713 31.735 346.104 31.7253 345.582 31.706V40H342.711V19.99C343.446 19.9127 344.142 19.8547 344.799 19.816C345.457 19.7773 346.172 19.758 346.945 19.758C347.719 19.7387 348.656 19.729 349.758 19.729ZM349.7 22.136C348.888 22.136 348.134 22.1457 347.438 22.165C346.742 22.165 346.124 22.165 345.582 22.165V29.328H349.7C350.648 29.328 351.392 29.2217 351.933 29.009C352.494 28.7963 352.89 28.429 353.122 27.907C353.354 27.385 353.47 26.6503 353.47 25.703C353.47 24.7557 353.354 24.0307 353.122 23.528C352.89 23.006 352.494 22.6483 351.933 22.455C351.392 22.2423 350.648 22.136 349.7 22.136ZM368.088 19.613C370.06 19.613 371.626 19.932 372.786 20.57C373.965 21.208 374.806 22.281 375.309 23.789C375.831 25.297 376.092 27.3657 376.092 29.995C376.092 32.6243 375.831 34.693 375.309 36.201C374.806 37.709 373.965 38.782 372.786 39.42C371.626 40.058 370.06 40.377 368.088 40.377C366.116 40.377 364.54 40.058 363.361 39.42C362.181 38.782 361.331 37.709 360.809 36.201C360.287 34.693 360.026 32.6243 360.026 29.995C360.026 27.3657 360.287 25.297 360.809 23.789C361.331 22.281 362.181 21.208 363.361 20.57C364.54 19.932 366.116 19.613 368.088 19.613ZM368.088 22.136C366.831 22.136 365.835 22.3777 365.101 22.861C364.385 23.325 363.873 24.137 363.564 25.297C363.254 26.4377 363.1 28.0037 363.1 29.995C363.1 31.9863 363.254 33.562 363.564 34.722C363.873 35.8627 364.385 36.6747 365.101 37.158C365.835 37.622 366.831 37.854 368.088 37.854C369.344 37.854 370.33 37.622 371.046 37.158C371.78 36.6747 372.302 35.8627 372.612 34.722C372.921 33.562 373.076 31.9863 373.076 29.995C373.076 28.0037 372.921 26.4377 372.612 25.297C372.302 24.137 371.78 23.325 371.046 22.861C370.33 22.3777 369.344 22.136 368.088 22.136ZM387.514 19.729C389.467 19.729 391.023 20.048 392.183 20.686C393.343 21.3047 394.174 22.368 394.677 23.876C395.199 25.3647 395.46 27.4043 395.46 29.995C395.46 32.5857 395.199 34.635 394.677 36.143C394.174 37.6317 393.343 38.695 392.183 39.333C391.023 39.9517 389.467 40.261 387.514 40.261C386.122 40.261 384.827 40.232 383.628 40.174C382.449 40.1353 381.327 40.0773 380.264 40V19.99C381.327 19.9127 382.449 19.8547 383.628 19.816C384.807 19.758 386.103 19.729 387.514 19.729ZM387.514 22.136C386.683 22.136 385.909 22.1457 385.194 22.165C384.479 22.1843 383.802 22.194 383.164 22.194V37.738C383.783 37.7573 384.45 37.7767 385.165 37.796C385.9 37.8153 386.683 37.825 387.514 37.825C388.751 37.825 389.728 37.5833 390.443 37.1C391.158 36.6167 391.661 35.8047 391.951 34.664C392.26 33.5233 392.415 31.967 392.415 29.995C392.415 28.023 392.26 26.4667 391.951 25.326C391.661 24.1853 391.158 23.3733 390.443 22.89C389.728 22.3873 388.751 22.136 387.514 22.136ZM414.338 19.99V32.286C414.338 34.2387 414.097 35.8143 413.613 37.013C413.149 38.1923 412.386 39.0527 411.322 39.594C410.259 40.116 408.838 40.377 407.059 40.377C405.203 40.377 403.715 40.116 402.593 39.594C401.491 39.0527 400.699 38.1923 400.215 37.013C399.732 35.8143 399.49 34.2387 399.49 32.286V19.99H402.39V32.286C402.39 33.678 402.526 34.78 402.796 35.592C403.086 36.404 403.56 36.984 404.217 37.332C404.894 37.68 405.793 37.854 406.914 37.854C408.016 37.854 408.896 37.68 409.553 37.332C410.23 36.984 410.713 36.404 411.003 35.592C411.293 34.78 411.438 33.678 411.438 32.286V19.99H414.338ZM421.934 19.99V26.138C421.934 26.9307 421.876 27.704 421.76 28.458H424.08L429.967 19.99H433.128L427.415 28.226C427.241 28.516 427.057 28.7577 426.864 28.951C426.69 29.1443 426.487 29.3473 426.255 29.56V29.618C426.506 29.85 426.748 30.0917 426.98 30.343C427.212 30.575 427.405 30.8167 427.56 31.068L433.534 40H430.257L424.109 30.691H421.76C421.818 31.0583 421.857 31.416 421.876 31.764C421.915 32.112 421.934 32.4503 421.934 32.779V40H419.063V19.99H421.934ZM455.751 19.99V22.484H449.371V40H446.471V22.484H440.12V19.99H455.751ZM462.623 19.961C464.073 19.961 465.552 19.9707 467.06 19.99C468.587 19.99 470.018 20.0383 471.352 20.135L471.236 22.368H463.261C462.14 22.368 461.579 22.977 461.579 24.195V28.342H470.105V30.575H461.579V35.795C461.579 37.0323 462.14 37.651 463.261 37.651H471.236L471.352 39.855C470.018 39.9517 468.587 40 467.06 40C465.552 40.0193 464.073 40.029 462.623 40.029C461.424 40.029 460.467 39.71 459.752 39.072C459.037 38.434 458.679 37.564 458.679 36.462V23.528C458.679 22.426 459.037 21.556 459.752 20.918C460.467 20.28 461.424 19.961 462.623 19.961ZM482.269 19.729C483.854 19.729 485.13 19.903 486.097 20.251C487.083 20.5797 487.798 21.1693 488.243 22.02C488.688 22.8513 488.91 24.021 488.91 25.529C488.91 27.1143 488.62 28.3227 488.04 29.154C487.479 29.9853 486.532 30.488 485.198 30.662V30.807C485.701 30.923 486.194 31.213 486.677 31.677C487.16 32.141 487.518 32.8177 487.75 33.707L489.635 40H486.561L484.821 33.765C484.589 33.0303 484.26 32.5083 483.835 32.199C483.429 31.8897 482.907 31.735 482.269 31.735C481.399 31.735 480.616 31.735 479.92 31.735C479.224 31.735 478.615 31.7253 478.093 31.706V40H475.222V19.99C475.957 19.9127 476.653 19.8547 477.31 19.816C477.967 19.7773 478.683 19.758 479.456 19.758C480.229 19.7387 481.167 19.729 482.269 19.729ZM482.211 22.136C481.399 22.136 480.645 22.1457 479.949 22.165C479.253 22.165 478.634 22.165 478.093 22.165V29.328H482.211C483.158 29.328 483.903 29.2217 484.444 29.009C485.005 28.7963 485.401 28.429 485.633 27.907C485.865 27.385 485.981 26.6503 485.981 25.703C485.981 24.7557 485.865 24.0307 485.633 23.528C485.401 23.006 485.005 22.6483 484.444 22.455C483.903 22.2423 483.158 22.136 482.211 22.136ZM499.989 19.758C501.633 19.758 502.947 19.9127 503.933 20.222C504.919 20.512 505.625 21.034 506.05 21.788C506.495 22.542 506.717 23.6053 506.717 24.978C506.717 26.4087 506.447 27.501 505.905 28.255C505.383 29.009 504.523 29.444 503.324 29.56V29.676C504.813 29.8113 505.857 30.3333 506.456 31.242C507.056 32.1507 507.355 33.4073 507.355 35.012C507.355 36.3847 507.133 37.448 506.688 38.202C506.263 38.956 505.577 39.4877 504.629 39.797C503.682 40.087 502.435 40.232 500.888 40.232C499.709 40.232 498.694 40.2223 497.843 40.203C497.012 40.203 496.239 40.1837 495.523 40.145C494.808 40.1063 494.064 40.058 493.29 40V19.99C493.967 19.9127 494.624 19.8643 495.262 19.845C495.9 19.8063 496.587 19.787 497.321 19.787C498.075 19.7677 498.965 19.758 499.989 19.758ZM499.844 22.136C499.11 22.136 498.433 22.136 497.814 22.136C497.196 22.136 496.635 22.136 496.132 22.136V28.574H500.221C501.149 28.574 501.884 28.487 502.425 28.313C502.967 28.1197 503.353 27.791 503.585 27.327C503.817 26.863 503.933 26.196 503.933 25.326C503.933 24.456 503.798 23.789 503.527 23.325C503.276 22.861 502.851 22.5517 502.251 22.397C501.671 22.223 500.869 22.136 499.844 22.136ZM500.25 30.691H496.132V37.825C497.292 37.8443 498.723 37.854 500.424 37.854C501.43 37.854 502.222 37.767 502.802 37.593C503.382 37.419 503.798 37.0903 504.049 36.607C504.301 36.1237 504.426 35.418 504.426 34.49C504.426 33.504 504.291 32.7403 504.02 32.199C503.769 31.6383 503.334 31.2517 502.715 31.039C502.116 30.8263 501.294 30.7103 500.25 30.691ZM519.536 19.99C520.097 19.99 520.455 20.251 520.609 20.773L526.931 40H523.915L522.03 33.91H514.055L512.17 40H509.183L515.505 20.773C515.641 20.251 515.998 19.99 516.578 19.99H519.536ZM517.158 23.905L514.809 31.503H521.305L518.927 23.905C518.753 23.3443 518.599 22.7837 518.463 22.223H517.651C517.574 22.4937 517.497 22.774 517.419 23.064C517.342 23.354 517.255 23.6343 517.158 23.905ZM532.497 19.99V40H529.597V19.99H532.497ZM540.2 19.99V26.138C540.2 26.9307 540.142 27.704 540.026 28.458H542.346L548.233 19.99H551.394L545.681 28.226C545.507 28.516 545.323 28.7577 545.13 28.951C544.956 29.1443 544.753 29.3473 544.521 29.56V29.618C544.772 29.85 545.014 30.0917 545.246 30.343C545.478 30.575 545.671 30.8167 545.826 31.068L551.8 40H548.523L542.375 30.691H540.026C540.084 31.0583 540.122 31.416 540.142 31.764C540.18 32.112 540.2 32.4503 540.2 32.779V40H537.329V19.99H540.2Z" fill="white"/>
<path d="M339.298 105.99V108.484H332.918V126H330.018V108.484H323.667V105.99H339.298ZM346.17 105.961C347.62 105.961 349.099 105.971 350.607 105.99C352.134 105.99 353.565 106.038 354.899 106.135L354.783 108.368H346.808C345.687 108.368 345.126 108.977 345.126 110.195V114.342H353.652V116.575H345.126V121.795C345.126 123.032 345.687 123.651 346.808 123.651H354.783L354.899 125.855C353.565 125.952 352.134 126 350.607 126C349.099 126.019 347.62 126.029 346.17 126.029C344.971 126.029 344.014 125.71 343.299 125.072C342.584 124.434 342.226 123.564 342.226 122.462V109.528C342.226 108.426 342.584 107.556 343.299 106.918C344.014 106.28 344.971 105.961 346.17 105.961ZM366.918 105.99C367.479 105.99 367.836 106.251 367.991 106.773L374.313 126H371.297L369.412 119.91H361.437L359.552 126H356.565L362.887 106.773C363.022 106.251 363.38 105.99 363.96 105.99H366.918ZM364.54 109.905L362.191 117.503H368.687L366.309 109.905C366.135 109.344 365.98 108.784 365.845 108.223H365.033C364.956 108.494 364.878 108.774 364.801 109.064C364.724 109.354 364.637 109.634 364.54 109.905ZM396.177 105.99C396.931 105.99 397.318 106.386 397.337 107.179L398.149 126H395.307L394.582 108.339H394.002L389.768 122.694C389.613 123.332 389.207 123.651 388.55 123.651H386.172C385.515 123.651 385.089 123.332 384.896 122.694L380.662 108.339H380.082L379.415 126H376.573L377.356 107.179C377.375 106.386 377.762 105.99 378.516 105.99H381.648C382.267 105.99 382.673 106.309 382.866 106.947L386.375 118.779C386.51 119.224 386.636 119.668 386.752 120.113C386.868 120.558 386.984 121.022 387.1 121.505H387.593C387.709 121.022 387.825 120.558 387.941 120.113C388.057 119.668 388.183 119.204 388.318 118.721L391.827 106.947C391.982 106.309 392.388 105.99 393.045 105.99H396.177ZM416.056 105.729C417.699 105.729 419.004 105.913 419.971 106.28C420.937 106.647 421.624 107.285 422.03 108.194C422.455 109.103 422.668 110.388 422.668 112.051C422.668 113.694 422.465 114.98 422.059 115.908C421.653 116.817 420.986 117.455 420.058 117.822C419.149 118.17 417.931 118.344 416.404 118.344C415.572 118.344 414.77 118.325 413.997 118.286C413.243 118.228 412.556 118.17 411.938 118.112V126H409.038V105.99C409.772 105.913 410.459 105.855 411.097 105.816C411.754 105.777 412.469 105.758 413.243 105.758C414.016 105.739 414.954 105.729 416.056 105.729ZM416.027 108.136C415.234 108.136 414.49 108.146 413.794 108.165C413.117 108.165 412.498 108.165 411.938 108.165V115.937H416.027C416.955 115.937 417.689 115.831 418.231 115.618C418.772 115.386 419.159 114.99 419.391 114.429C419.623 113.868 419.739 113.076 419.739 112.051C419.739 111.007 419.623 110.205 419.391 109.644C419.159 109.083 418.772 108.697 418.231 108.484C417.689 108.252 416.955 108.136 416.027 108.136ZM433.442 105.99C434.003 105.99 434.361 106.251 434.515 106.773L440.837 126H437.821L435.936 119.91H427.961L426.076 126H423.089L429.411 106.773C429.547 106.251 429.904 105.99 430.484 105.99H433.442ZM431.064 109.905L428.715 117.503H435.211L432.833 109.905C432.659 109.344 432.505 108.784 432.369 108.223H431.557C431.48 108.494 431.403 108.774 431.325 109.064C431.248 109.354 431.161 109.634 431.064 109.905ZM446.316 105.99V121.766C446.316 122.984 446.945 123.593 448.201 123.593H455.364L455.509 125.826C454.214 125.923 452.89 125.981 451.536 126C450.202 126.019 448.878 126.029 447.563 126.029C446.094 126.029 445.04 125.671 444.402 124.956C443.764 124.221 443.445 123.303 443.445 122.201V105.99H446.316ZM461.413 105.99V126H458.513V105.99H461.413ZM481.905 105.99V124.869C481.905 125.623 481.547 126 480.832 126H478.338C478.009 126 477.748 125.932 477.555 125.797C477.381 125.642 477.226 125.41 477.091 125.101L470.537 111.587C470.363 111.2 470.16 110.765 469.928 110.282C469.696 109.779 469.522 109.315 469.406 108.89H468.971C469.009 109.335 469.038 109.789 469.058 110.253C469.077 110.717 469.087 111.171 469.087 111.616V126H466.245V107.121C466.245 106.367 466.612 105.99 467.347 105.99H469.754C470.082 105.99 470.343 106.067 470.537 106.222C470.73 106.357 470.894 106.58 471.03 106.889L477.352 120.055C477.564 120.461 477.787 120.925 478.019 121.447C478.27 121.969 478.512 122.481 478.744 122.984H479.208C479.169 122.462 479.14 121.95 479.121 121.447C479.101 120.925 479.092 120.413 479.092 119.91V105.99H481.905ZM500.784 114.429V126H498.667L498.348 123.883C497.768 124.463 496.975 125.024 495.97 125.565C494.964 126.106 493.775 126.377 492.403 126.377C490.16 126.377 488.536 125.546 487.531 123.883C486.545 122.201 486.052 119.552 486.052 115.937C486.052 113.308 486.322 111.239 486.864 109.731C487.405 108.223 488.294 107.16 489.532 106.541C490.769 105.922 492.432 105.613 494.52 105.613C495.583 105.613 496.579 105.661 497.507 105.758C498.435 105.855 499.343 106.019 500.233 106.251L499.943 108.397C499.015 108.32 498.096 108.271 497.188 108.252C496.279 108.213 495.428 108.194 494.636 108.194C493.611 108.194 492.741 108.3 492.026 108.513C491.33 108.706 490.769 109.083 490.344 109.644C489.918 110.185 489.609 110.978 489.416 112.022C489.222 113.066 489.126 114.429 489.126 116.111C489.126 118.006 489.251 119.523 489.503 120.664C489.773 121.785 490.208 122.597 490.808 123.1C491.426 123.603 492.248 123.854 493.273 123.854C494.239 123.854 495.09 123.68 495.825 123.332C496.579 122.965 497.284 122.549 497.942 122.085V114.429H500.784ZM514.4 105.99V112.138C514.4 112.931 514.342 113.704 514.226 114.458H516.546L522.433 105.99H525.594L519.881 114.226C519.707 114.516 519.523 114.758 519.33 114.951C519.156 115.144 518.953 115.347 518.721 115.56V115.618C518.972 115.85 519.214 116.092 519.446 116.343C519.678 116.575 519.871 116.817 520.026 117.068L526 126H522.723L516.575 116.691H514.226C514.284 117.058 514.322 117.416 514.342 117.764C514.38 118.112 514.4 118.45 514.4 118.779V126H511.529V105.99H514.4ZM535.517 105.613C537.489 105.613 539.055 105.932 540.215 106.57C541.395 107.208 542.236 108.281 542.738 109.789C543.26 111.297 543.521 113.366 543.521 115.995C543.521 118.624 543.26 120.693 542.738 122.201C542.236 123.709 541.395 124.782 540.215 125.42C539.055 126.058 537.489 126.377 535.517 126.377C533.545 126.377 531.97 126.058 530.79 125.42C529.611 124.782 528.76 123.709 528.238 122.201C527.716 120.693 527.455 118.624 527.455 115.995C527.455 113.366 527.716 111.297 528.238 109.789C528.76 108.281 529.611 107.208 530.79 106.57C531.97 105.932 533.545 105.613 535.517 105.613ZM535.517 108.136C534.261 108.136 533.265 108.378 532.53 108.861C531.815 109.325 531.303 110.137 530.993 111.297C530.684 112.438 530.529 114.004 530.529 115.995C530.529 117.986 530.684 119.562 530.993 120.722C531.303 121.863 531.815 122.675 532.53 123.158C533.265 123.622 534.261 123.854 535.517 123.854C536.774 123.854 537.76 123.622 538.475 123.158C539.21 122.675 539.732 121.863 540.041 120.722C540.351 119.562 540.505 117.986 540.505 115.995C540.505 114.004 540.351 112.438 540.041 111.297C539.732 110.137 539.21 109.325 538.475 108.861C537.76 108.378 536.774 108.136 535.517 108.136ZM566.892 105.99C567.646 105.99 568.032 106.386 568.052 107.179L568.864 126H566.022L565.297 108.339H564.717L560.483 122.694C560.328 123.332 559.922 123.651 559.265 123.651H556.887C556.229 123.651 555.804 123.332 555.611 122.694L551.377 108.339H550.797L550.13 126H547.288L548.071 107.179C548.09 106.386 548.477 105.99 549.231 105.99H552.363C552.981 105.99 553.387 106.309 553.581 106.947L557.09 118.779C557.225 119.224 557.351 119.668 557.467 120.113C557.583 120.558 557.699 121.022 557.815 121.505H558.308C558.424 121.022 558.54 120.558 558.656 120.113C558.772 119.668 558.897 119.204 559.033 118.721L562.542 106.947C562.696 106.309 563.102 105.99 563.76 105.99H566.892ZM580.342 105.729C581.985 105.729 583.29 105.913 584.257 106.28C585.223 106.647 585.91 107.285 586.316 108.194C586.741 109.103 586.954 110.388 586.954 112.051C586.954 113.694 586.751 114.98 586.345 115.908C585.939 116.817 585.272 117.455 584.344 117.822C583.435 118.17 582.217 118.344 580.69 118.344C579.858 118.344 579.056 118.325 578.283 118.286C577.529 118.228 576.842 118.17 576.224 118.112V126H573.324V105.99C574.058 105.913 574.745 105.855 575.383 105.816C576.04 105.777 576.755 105.758 577.529 105.758C578.302 105.739 579.24 105.729 580.342 105.729ZM580.313 108.136C579.52 108.136 578.776 108.146 578.08 108.165C577.403 108.165 576.784 108.165 576.224 108.165V115.937H580.313C581.241 115.937 581.975 115.831 582.517 115.618C583.058 115.386 583.445 114.99 583.677 114.429C583.909 113.868 584.025 113.076 584.025 112.051C584.025 111.007 583.909 110.205 583.677 109.644C583.445 109.083 583.058 108.697 582.517 108.484C581.975 108.252 581.241 108.136 580.313 108.136ZM597.729 105.99C598.289 105.99 598.647 106.251 598.802 106.773L605.124 126H602.108L600.223 119.91H592.248L590.363 126H587.376L593.698 106.773C593.833 106.251 594.191 105.99 594.771 105.99H597.729ZM595.351 109.905L593.002 117.503H599.498L597.12 109.905C596.946 109.344 596.791 108.784 596.656 108.223H595.844C595.766 108.494 595.689 108.774 595.612 109.064C595.534 109.354 595.447 109.634 595.351 109.905ZM610.661 105.99V112.138C610.661 112.931 610.603 113.704 610.487 114.458H612.807L618.694 105.99H621.855L616.142 114.226C615.968 114.516 615.784 114.758 615.591 114.951C615.417 115.144 615.214 115.347 614.982 115.56V115.618C615.233 115.85 615.475 116.092 615.707 116.343C615.939 116.575 616.132 116.817 616.287 117.068L622.261 126H618.984L612.836 116.691H610.487C610.545 117.058 610.583 117.416 610.603 117.764C610.641 118.112 610.661 118.45 610.661 118.779V126H607.79V105.99H610.661Z" fill="white"/>
<path d="M328.336 190.99V211H325.436V190.99H328.336ZM340.417 190.729C342.37 190.729 343.926 191.048 345.086 191.686C346.246 192.305 347.078 193.368 347.58 194.876C348.102 196.365 348.363 198.404 348.363 200.995C348.363 203.586 348.102 205.635 347.58 207.143C347.078 208.632 346.246 209.695 345.086 210.333C343.926 210.952 342.37 211.261 340.417 211.261C339.025 211.261 337.73 211.232 336.531 211.174C335.352 211.135 334.231 211.077 333.167 211V190.99C334.231 190.913 335.352 190.855 336.531 190.816C337.711 190.758 339.006 190.729 340.417 190.729ZM340.417 193.136C339.586 193.136 338.813 193.146 338.097 193.165C337.382 193.184 336.705 193.194 336.067 193.194V208.738C336.686 208.757 337.353 208.777 338.068 208.796C338.803 208.815 339.586 208.825 340.417 208.825C341.655 208.825 342.631 208.583 343.346 208.1C344.062 207.617 344.564 206.805 344.854 205.664C345.164 204.523 345.318 202.967 345.318 200.995C345.318 199.023 345.164 197.467 344.854 196.326C344.564 195.185 344.062 194.373 343.346 193.89C342.631 193.387 341.655 193.136 340.417 193.136ZM356.309 190.961C357.759 190.961 359.238 190.971 360.746 190.99C362.273 190.99 363.704 191.038 365.038 191.135L364.922 193.368H356.947C355.825 193.368 355.265 193.977 355.265 195.195V199.342H363.791V201.575H355.265V206.795C355.265 208.032 355.825 208.651 356.947 208.651H364.922L365.038 210.855C363.704 210.952 362.273 211 360.746 211C359.238 211.019 357.759 211.029 356.309 211.029C355.11 211.029 354.153 210.71 353.438 210.072C352.722 209.434 352.365 208.564 352.365 207.462V194.528C352.365 193.426 352.722 192.556 353.438 191.918C354.153 191.28 355.11 190.961 356.309 190.961ZM388.519 190.99V193.484H382.139V211H379.239V193.484H372.888V190.99H388.519ZM395.391 190.961C396.841 190.961 398.32 190.971 399.828 190.99C401.355 190.99 402.786 191.038 404.12 191.135L404.004 193.368H396.029C394.907 193.368 394.347 193.977 394.347 195.195V199.342H402.873V201.575H394.347V206.795C394.347 208.032 394.907 208.651 396.029 208.651H404.004L404.12 210.855C402.786 210.952 401.355 211 399.828 211C398.32 211.019 396.841 211.029 395.391 211.029C394.192 211.029 393.235 210.71 392.52 210.072C391.804 209.434 391.447 208.564 391.447 207.462V194.528C391.447 193.426 391.804 192.556 392.52 191.918C393.235 191.28 394.192 190.961 395.391 190.961ZM415.037 190.729C416.622 190.729 417.898 190.903 418.865 191.251C419.851 191.58 420.566 192.169 421.011 193.02C421.455 193.851 421.678 195.021 421.678 196.529C421.678 198.114 421.388 199.323 420.808 200.154C420.247 200.985 419.3 201.488 417.966 201.662V201.807C418.468 201.923 418.961 202.213 419.445 202.677C419.928 203.141 420.286 203.818 420.518 204.707L422.403 211H419.329L417.589 204.765C417.357 204.03 417.028 203.508 416.603 203.199C416.197 202.89 415.675 202.735 415.037 202.735C414.167 202.735 413.384 202.735 412.688 202.735C411.992 202.735 411.383 202.725 410.861 202.706V211H407.99V190.99C408.724 190.913 409.42 190.855 410.078 190.816C410.735 190.777 411.45 190.758 412.224 190.758C412.997 190.739 413.935 190.729 415.037 190.729ZM414.979 193.136C414.167 193.136 413.413 193.146 412.717 193.165C412.021 193.165 411.402 193.165 410.861 193.165V200.328H414.979C415.926 200.328 416.67 200.222 417.212 200.009C417.772 199.796 418.169 199.429 418.401 198.907C418.633 198.385 418.749 197.65 418.749 196.703C418.749 195.756 418.633 195.031 418.401 194.528C418.169 194.006 417.772 193.648 417.212 193.455C416.67 193.242 415.926 193.136 414.979 193.136ZM434.439 202.648V204.678H425.623V202.648H434.439ZM446.195 190.613C448.167 190.613 449.733 190.932 450.893 191.57C452.073 192.208 452.914 193.281 453.416 194.789C453.938 196.297 454.199 198.366 454.199 200.995C454.199 203.624 453.938 205.693 453.416 207.201C452.914 208.709 452.073 209.782 450.893 210.42C449.733 211.058 448.167 211.377 446.195 211.377C444.223 211.377 442.648 211.058 441.468 210.42C440.289 209.782 439.438 208.709 438.916 207.201C438.394 205.693 438.133 203.624 438.133 200.995C438.133 198.366 438.394 196.297 438.916 194.789C439.438 193.281 440.289 192.208 441.468 191.57C442.648 190.932 444.223 190.613 446.195 190.613ZM446.195 193.136C444.939 193.136 443.943 193.378 443.208 193.861C442.493 194.325 441.981 195.137 441.671 196.297C441.362 197.438 441.207 199.004 441.207 200.995C441.207 202.986 441.362 204.562 441.671 205.722C441.981 206.863 442.493 207.675 443.208 208.158C443.943 208.622 444.939 208.854 446.195 208.854C447.452 208.854 448.438 208.622 449.153 208.158C449.888 207.675 450.41 206.863 450.719 205.722C451.029 204.562 451.183 202.986 451.183 200.995C451.183 199.004 451.029 197.438 450.719 196.297C450.41 195.137 449.888 194.325 449.153 193.861C448.438 193.378 447.452 193.136 446.195 193.136ZM473.075 190.99V203.286C473.075 205.239 472.833 206.814 472.35 208.013C471.886 209.192 471.122 210.053 470.059 210.594C468.995 211.116 467.574 211.377 465.796 211.377C463.94 211.377 462.451 211.116 461.33 210.594C460.228 210.053 459.435 209.192 458.952 208.013C458.468 206.814 458.227 205.239 458.227 203.286V190.99H461.127V203.286C461.127 204.678 461.262 205.78 461.533 206.592C461.823 207.404 462.296 207.984 462.954 208.332C463.63 208.68 464.529 208.854 465.651 208.854C466.753 208.854 467.632 208.68 468.29 208.332C468.966 207.984 469.45 207.404 469.74 206.592C470.03 205.78 470.175 204.678 470.175 203.286V190.99H473.075ZM491.661 190.99V193.484H485.281V211H482.381V193.484H476.03V190.99H491.661ZM501.558 202.648V204.678H492.742V202.648H501.558ZM513.314 190.613C515.286 190.613 516.852 190.932 518.012 191.57C519.192 192.208 520.033 193.281 520.535 194.789C521.057 196.297 521.318 198.366 521.318 200.995C521.318 203.624 521.057 205.693 520.535 207.201C520.033 208.709 519.192 209.782 518.012 210.42C516.852 211.058 515.286 211.377 513.314 211.377C511.342 211.377 509.767 211.058 508.587 210.42C507.408 209.782 506.557 208.709 506.035 207.201C505.513 205.693 505.252 203.624 505.252 200.995C505.252 198.366 505.513 196.297 506.035 194.789C506.557 193.281 507.408 192.208 508.587 191.57C509.767 190.932 511.342 190.613 513.314 190.613ZM513.314 193.136C512.058 193.136 511.062 193.378 510.327 193.861C509.612 194.325 509.1 195.137 508.79 196.297C508.481 197.438 508.326 199.004 508.326 200.995C508.326 202.986 508.481 204.562 508.79 205.722C509.1 206.863 509.612 207.675 510.327 208.158C511.062 208.622 512.058 208.854 513.314 208.854C514.571 208.854 515.557 208.622 516.272 208.158C517.007 207.675 517.529 206.863 517.838 205.722C518.148 204.562 518.302 202.986 518.302 200.995C518.302 199.004 518.148 197.438 517.838 196.297C517.529 195.137 517.007 194.325 516.272 193.861C515.557 193.378 514.571 193.136 513.314 193.136ZM529.377 190.961C530.788 190.961 532.219 190.971 533.669 190.99C535.138 191.009 536.52 191.067 537.816 191.164L537.671 193.368H530.218C528.961 193.368 528.333 193.977 528.333 195.195V199.632H536.569V201.894H528.333V211H525.433V194.644C525.433 193.484 525.79 192.585 526.506 191.947C527.221 191.29 528.178 190.961 529.377 190.961ZM549.391 202.648V204.678H540.575V202.648H549.391ZM566.115 190.99V193.484H559.735V211H556.835V193.484H550.484V190.99H566.115ZM572.117 190.99V199.11H580.933V190.99H583.862V211H580.933V201.517H572.117V211H569.217V190.99H572.117ZM592.472 190.961C593.922 190.961 595.401 190.971 596.909 190.99C598.436 190.99 599.867 191.038 601.201 191.135L601.085 193.368H593.11C591.988 193.368 591.428 193.977 591.428 195.195V199.342H599.954V201.575H591.428V206.795C591.428 208.032 591.988 208.651 593.11 208.651H601.085L601.201 210.855C599.867 210.952 598.436 211 596.909 211C595.401 211.019 593.922 211.029 592.472 211.029C591.273 211.029 590.316 210.71 589.601 210.072C588.885 209.434 588.528 208.564 588.528 207.462V194.528C588.528 193.426 588.885 192.556 589.601 191.918C590.316 191.28 591.273 190.961 592.472 190.961ZM613.338 202.648V204.678H604.522V202.648H613.338ZM624.486 190.758C626.129 190.758 627.444 190.913 628.43 191.222C629.416 191.512 630.121 192.034 630.547 192.788C630.991 193.542 631.214 194.605 631.214 195.978C631.214 197.409 630.943 198.501 630.402 199.255C629.88 200.009 629.019 200.444 627.821 200.56V200.676C629.309 200.811 630.353 201.333 630.953 202.242C631.552 203.151 631.852 204.407 631.852 206.012C631.852 207.385 631.629 208.448 631.185 209.202C630.759 209.956 630.073 210.488 629.126 210.797C628.178 211.087 626.931 211.232 625.385 211.232C624.205 211.232 623.19 211.222 622.34 211.203C621.508 211.203 620.735 211.184 620.02 211.145C619.304 211.106 618.56 211.058 617.787 211V190.99C618.463 190.913 619.121 190.864 619.759 190.845C620.397 190.806 621.083 190.787 621.818 190.787C622.572 190.768 623.461 190.758 624.486 190.758ZM624.341 193.136C623.606 193.136 622.929 193.136 622.311 193.136C621.692 193.136 621.131 193.136 620.629 193.136V199.574H624.718C625.646 199.574 626.38 199.487 626.922 199.313C627.463 199.12 627.85 198.791 628.082 198.327C628.314 197.863 628.43 197.196 628.43 196.326C628.43 195.456 628.294 194.789 628.024 194.325C627.772 193.861 627.347 193.552 626.748 193.397C626.168 193.223 625.365 193.136 624.341 193.136ZM624.747 201.691H620.629V208.825C621.789 208.844 623.219 208.854 624.921 208.854C625.926 208.854 626.719 208.767 627.299 208.593C627.879 208.419 628.294 208.09 628.546 207.607C628.797 207.124 628.923 206.418 628.923 205.49C628.923 204.504 628.787 203.74 628.517 203.199C628.265 202.638 627.83 202.252 627.212 202.039C626.612 201.826 625.791 201.71 624.747 201.691ZM643.191 190.613C645.163 190.613 646.729 190.932 647.889 191.57C649.069 192.208 649.91 193.281 650.412 194.789C650.934 196.297 651.195 198.366 651.195 200.995C651.195 203.624 650.934 205.693 650.412 207.201C649.91 208.709 649.069 209.782 647.889 210.42C646.729 211.058 645.163 211.377 643.191 211.377C641.219 211.377 639.644 211.058 638.464 210.42C637.285 209.782 636.434 208.709 635.912 207.201C635.39 205.693 635.129 203.624 635.129 200.995C635.129 198.366 635.39 196.297 635.912 194.789C636.434 193.281 637.285 192.208 638.464 191.57C639.644 190.932 641.219 190.613 643.191 190.613ZM643.191 193.136C641.935 193.136 640.939 193.378 640.204 193.861C639.489 194.325 638.977 195.137 638.667 196.297C638.358 197.438 638.203 199.004 638.203 200.995C638.203 202.986 638.358 204.562 638.667 205.722C638.977 206.863 639.489 207.675 640.204 208.158C640.939 208.622 641.935 208.854 643.191 208.854C644.448 208.854 645.434 208.622 646.149 208.158C646.884 207.675 647.406 206.863 647.715 205.722C648.025 204.562 648.179 202.986 648.179 200.995C648.179 199.004 648.025 197.438 647.715 196.297C647.406 195.137 646.884 194.325 646.149 193.861C645.434 193.378 644.448 193.136 643.191 193.136ZM656.483 190.99L660.978 199.574H661.703L666.198 190.99H669.272L664.052 200.647L669.649 211H666.546L661.674 201.691H661.007L656.135 211H653.032L658.6 200.647L653.409 190.99H656.483Z" fill="white"/>
<path d="M339.443 278.99L332.802 292.069V299H329.902V292.011L323.261 278.99H326.335L330.395 287.226C330.569 287.593 330.724 287.98 330.859 288.386C330.994 288.792 331.13 289.179 331.265 289.546H331.468C331.603 289.179 331.739 288.792 331.874 288.386C332.029 287.98 332.183 287.603 332.338 287.255L336.398 278.99H339.443ZM348.736 278.99C349.297 278.99 349.655 279.251 349.809 279.773L356.131 299H353.115L351.23 292.91H343.255L341.37 299H338.383L344.705 279.773C344.841 279.251 345.198 278.99 345.778 278.99H348.736ZM346.358 282.905L344.009 290.503H350.505L348.127 282.905C347.953 282.344 347.799 281.784 347.663 281.223H346.851C346.774 281.494 346.697 281.774 346.619 282.064C346.542 282.354 346.455 282.634 346.358 282.905ZM374.457 278.99V297.869C374.457 298.623 374.1 299 373.384 299H370.89C370.562 299 370.301 298.932 370.107 298.797C369.933 298.642 369.779 298.41 369.643 298.101L363.089 284.587C362.915 284.2 362.712 283.765 362.48 283.282C362.248 282.779 362.074 282.315 361.958 281.89H361.523C361.562 282.335 361.591 282.789 361.61 283.253C361.63 283.717 361.639 284.171 361.639 284.616V299H358.797V280.121C358.797 279.367 359.165 278.99 359.899 278.99H362.306C362.635 278.99 362.896 279.067 363.089 279.222C363.283 279.357 363.447 279.58 363.582 279.889L369.904 293.055C370.117 293.461 370.339 293.925 370.571 294.447C370.823 294.969 371.064 295.481 371.296 295.984H371.76C371.722 295.462 371.693 294.95 371.673 294.447C371.654 293.925 371.644 293.413 371.644 292.91V278.99H374.457ZM393.337 287.429V299H391.22L390.901 296.883C390.321 297.463 389.528 298.024 388.523 298.565C387.517 299.106 386.328 299.377 384.956 299.377C382.713 299.377 381.089 298.546 380.084 296.883C379.098 295.201 378.605 292.552 378.605 288.937C378.605 286.308 378.875 284.239 379.417 282.731C379.958 281.223 380.847 280.16 382.085 279.541C383.322 278.922 384.985 278.613 387.073 278.613C388.136 278.613 389.132 278.661 390.06 278.758C390.988 278.855 391.896 279.019 392.786 279.251L392.496 281.397C391.568 281.32 390.649 281.271 389.741 281.252C388.832 281.213 387.981 281.194 387.189 281.194C386.164 281.194 385.294 281.3 384.579 281.513C383.883 281.706 383.322 282.083 382.897 282.644C382.471 283.185 382.162 283.978 381.969 285.022C381.775 286.066 381.679 287.429 381.679 289.111C381.679 291.006 381.804 292.523 382.056 293.664C382.326 294.785 382.761 295.597 383.361 296.1C383.979 296.603 384.801 296.854 385.826 296.854C386.792 296.854 387.643 296.68 388.378 296.332C389.132 295.965 389.837 295.549 390.495 295.085V287.429H393.337ZM411.332 278.729C413.284 278.729 414.841 279.048 416.001 279.686C417.161 280.305 417.992 281.368 418.495 282.876C419.017 284.365 419.278 286.404 419.278 288.995C419.278 291.586 419.017 293.635 418.495 295.143C417.992 296.632 417.161 297.695 416.001 298.333C414.841 298.952 413.284 299.261 411.332 299.261C409.94 299.261 408.644 299.232 407.446 299.174C406.266 299.135 405.145 299.077 404.082 299V278.99C405.145 278.913 406.266 278.855 407.446 278.816C408.625 278.758 409.92 278.729 411.332 278.729ZM411.332 281.136C410.5 281.136 409.727 281.146 409.012 281.165C408.296 281.184 407.62 281.194 406.982 281.194V296.738C407.6 296.757 408.267 296.777 408.983 296.796C409.717 296.815 410.5 296.825 411.332 296.825C412.569 296.825 413.545 296.583 414.261 296.1C414.976 295.617 415.479 294.805 415.769 293.664C416.078 292.523 416.233 290.967 416.233 288.995C416.233 287.023 416.078 285.467 415.769 284.326C415.479 283.185 414.976 282.373 414.261 281.89C413.545 281.387 412.569 281.136 411.332 281.136ZM427.223 278.961C428.673 278.961 430.152 278.971 431.66 278.99C433.187 278.99 434.618 279.038 435.952 279.135L435.836 281.368H427.861C426.739 281.368 426.179 281.977 426.179 283.195V287.342H434.705V289.575H426.179V294.795C426.179 296.032 426.739 296.651 427.861 296.651H435.836L435.952 298.855C434.618 298.952 433.187 299 431.66 299C430.152 299.019 428.673 299.029 427.223 299.029C426.024 299.029 425.067 298.71 424.352 298.072C423.636 297.434 423.279 296.564 423.279 295.462V282.528C423.279 281.426 423.636 280.556 424.352 279.918C425.067 279.28 426.024 278.961 427.223 278.961ZM445.564 278.642C446.53 278.642 447.526 278.69 448.551 278.787C449.595 278.864 450.629 279.019 451.654 279.251L451.451 281.31C450.6 281.271 449.662 281.242 448.638 281.223C447.613 281.204 446.617 281.194 445.651 281.194C444.742 281.194 444.007 281.242 443.447 281.339C442.886 281.416 442.47 281.658 442.2 282.064C441.948 282.451 441.823 283.098 441.823 284.007C441.823 285.032 442.016 285.747 442.403 286.153C442.789 286.559 443.418 286.878 444.288 287.11L448.319 288.183C449.865 288.589 450.929 289.246 451.509 290.155C452.089 291.064 452.379 292.291 452.379 293.838C452.379 295.365 452.137 296.525 451.654 297.318C451.19 298.111 450.455 298.652 449.45 298.942C448.444 299.213 447.139 299.348 445.535 299.348C444.877 299.348 444.007 299.319 442.925 299.261C441.842 299.203 440.595 299.039 439.184 298.768L439.387 296.651C440.527 296.69 441.455 296.719 442.171 296.738C442.886 296.757 443.505 296.777 444.027 296.796C444.549 296.796 445.08 296.796 445.622 296.796C446.588 296.796 447.352 296.728 447.913 296.593C448.473 296.438 448.87 296.148 449.102 295.723C449.334 295.298 449.45 294.66 449.45 293.809C449.45 292.726 449.256 291.992 448.87 291.605C448.483 291.218 447.874 290.919 447.043 290.706L442.896 289.575C441.446 289.188 440.421 288.541 439.822 287.632C439.222 286.704 438.923 285.486 438.923 283.978C438.923 282.412 439.155 281.252 439.619 280.498C440.083 279.744 440.808 279.251 441.794 279.019C442.78 278.768 444.036 278.642 445.564 278.642ZM464.397 278.99C464.957 278.99 465.315 279.251 465.47 279.773L471.792 299H468.776L466.891 292.91H458.916L457.031 299H454.044L460.366 279.773C460.501 279.251 460.859 278.99 461.439 278.99H464.397ZM462.019 282.905L459.67 290.503H466.166L463.788 282.905C463.614 282.344 463.459 281.784 463.324 281.223H462.512C462.434 281.494 462.357 281.774 462.28 282.064C462.202 282.354 462.115 282.634 462.019 282.905ZM477.357 278.99V299H474.457V278.99H477.357ZM497.849 278.99V297.869C497.849 298.623 497.491 299 496.776 299H494.282C493.953 299 493.692 298.932 493.499 298.797C493.325 298.642 493.17 298.41 493.035 298.101L486.481 284.587C486.307 284.2 486.104 283.765 485.872 283.282C485.64 282.779 485.466 282.315 485.35 281.89H484.915C484.954 282.335 484.983 282.789 485.002 283.253C485.021 283.717 485.031 284.171 485.031 284.616V299H482.189V280.121C482.189 279.367 482.556 278.99 483.291 278.99H485.698C486.027 278.99 486.288 279.067 486.481 279.222C486.674 279.357 486.839 279.58 486.974 279.889L493.296 293.055C493.509 293.461 493.731 293.925 493.963 294.447C494.214 294.969 494.456 295.481 494.688 295.984H495.152C495.113 295.462 495.084 294.95 495.065 294.447C495.046 293.925 495.036 293.413 495.036 292.91V278.99H497.849ZM518.381 278.99V297.869C518.381 298.623 518.023 299 517.308 299H514.814C514.485 299 514.224 298.932 514.031 298.797C513.857 298.642 513.702 298.41 513.567 298.101L507.013 284.587C506.839 284.2 506.636 283.765 506.404 283.282C506.172 282.779 505.998 282.315 505.882 281.89H505.447C505.486 282.335 505.515 282.789 505.534 283.253C505.553 283.717 505.563 284.171 505.563 284.616V299H502.721V280.121C502.721 279.367 503.088 278.99 503.823 278.99H506.23C506.559 278.99 506.82 279.067 507.013 279.222C507.206 279.357 507.371 279.58 507.506 279.889L513.828 293.055C514.041 293.461 514.263 293.925 514.495 294.447C514.746 294.969 514.988 295.481 515.22 295.984H515.684C515.645 295.462 515.616 294.95 515.597 294.447C515.578 293.925 515.568 293.413 515.568 292.91V278.99H518.381ZM537.26 278.99L530.619 292.069V299H527.719V292.011L521.078 278.99H524.152L528.212 287.226C528.386 287.593 528.541 287.98 528.676 288.386C528.812 288.792 528.947 289.179 529.082 289.546H529.285C529.421 289.179 529.556 288.792 529.691 288.386C529.846 287.98 530.001 287.603 530.155 287.255L534.215 278.99H537.26ZM546.554 278.99C547.114 278.99 547.472 279.251 547.627 279.773L553.949 299H550.933L549.048 292.91H541.073L539.188 299H536.201L542.523 279.773C542.658 279.251 543.016 278.99 543.596 278.99H546.554ZM544.176 282.905L541.827 290.503H548.323L545.945 282.905C545.771 282.344 545.616 281.784 545.481 281.223H544.669C544.591 281.494 544.514 281.774 544.437 282.064C544.359 282.354 544.272 282.634 544.176 282.905ZM565.206 278.99V285.138C565.206 285.931 565.148 286.704 565.032 287.458H567.352L573.239 278.99H576.4L570.687 287.226C570.513 287.516 570.33 287.758 570.136 287.951C569.962 288.144 569.759 288.347 569.527 288.56V288.618C569.779 288.85 570.02 289.092 570.252 289.343C570.484 289.575 570.678 289.817 570.832 290.068L576.806 299H573.529L567.381 289.691H565.032C565.09 290.058 565.129 290.416 565.148 290.764C565.187 291.112 565.206 291.45 565.206 291.779V299H562.335V278.99H565.206ZM583.239 278.961C584.689 278.961 586.168 278.971 587.676 278.99C589.204 278.99 590.634 279.038 591.968 279.135L591.852 281.368H583.877C582.756 281.368 582.195 281.977 582.195 283.195V287.342H590.721V289.575H582.195V294.795C582.195 296.032 582.756 296.651 583.877 296.651H591.852L591.968 298.855C590.634 298.952 589.204 299 587.676 299C586.168 299.019 584.689 299.029 583.239 299.029C582.041 299.029 581.084 298.71 580.368 298.072C579.653 297.434 579.295 296.564 579.295 295.462V282.528C579.295 281.426 579.653 280.556 580.368 279.918C581.084 279.28 582.041 278.961 583.239 278.961ZM602.885 278.729C604.471 278.729 605.747 278.903 606.713 279.251C607.699 279.58 608.415 280.169 608.859 281.02C609.304 281.851 609.526 283.021 609.526 284.529C609.526 286.114 609.236 287.323 608.656 288.154C608.096 288.985 607.148 289.488 605.814 289.662V289.807C606.317 289.923 606.81 290.213 607.293 290.677C607.777 291.141 608.134 291.818 608.366 292.707L610.251 299H607.177L605.437 292.765C605.205 292.03 604.877 291.508 604.451 291.199C604.045 290.89 603.523 290.735 602.885 290.735C602.015 290.735 601.232 290.735 600.536 290.735C599.84 290.735 599.231 290.725 598.709 290.706V299H595.838V278.99C596.573 278.913 597.269 278.855 597.926 278.816C598.584 278.777 599.299 278.758 600.072 278.758C600.846 278.739 601.783 278.729 602.885 278.729ZM602.827 281.136C602.015 281.136 601.261 281.146 600.565 281.165C599.869 281.165 599.251 281.165 598.709 281.165V288.328H602.827C603.775 288.328 604.519 288.222 605.06 288.009C605.621 287.796 606.017 287.429 606.249 286.907C606.481 286.385 606.597 285.65 606.597 284.703C606.597 283.756 606.481 283.031 606.249 282.528C606.017 282.006 605.621 281.648 605.06 281.455C604.519 281.242 603.775 281.136 602.827 281.136ZM617.677 278.961C619.127 278.961 620.606 278.971 622.114 278.99C623.641 278.99 625.072 279.038 626.406 279.135L626.29 281.368H618.315C617.193 281.368 616.633 281.977 616.633 283.195V287.342H625.159V289.575H616.633V294.795C616.633 296.032 617.193 296.651 618.315 296.651H626.29L626.406 298.855C625.072 298.952 623.641 299 622.114 299C620.606 299.019 619.127 299.029 617.677 299.029C616.478 299.029 615.521 298.71 614.806 298.072C614.09 297.434 613.733 296.564 613.733 295.462V282.528C613.733 281.426 614.09 280.556 614.806 279.918C615.521 279.28 616.478 278.961 617.677 278.961ZM645.936 278.99V297.869C645.936 298.623 645.578 299 644.863 299H642.369C642.04 299 641.779 298.932 641.586 298.797C641.412 298.642 641.257 298.41 641.122 298.101L634.568 284.587C634.394 284.2 634.191 283.765 633.959 283.282C633.727 282.779 633.553 282.315 633.437 281.89H633.002C633.041 282.335 633.07 282.789 633.089 283.253C633.108 283.717 633.118 284.171 633.118 284.616V299H630.276V280.121C630.276 279.367 630.643 278.99 631.378 278.99H633.785C634.114 278.99 634.375 279.067 634.568 279.222C634.761 279.357 634.926 279.58 635.061 279.889L641.383 293.055C641.596 293.461 641.818 293.925 642.05 294.447C642.301 294.969 642.543 295.481 642.775 295.984H643.239C643.2 295.462 643.171 294.95 643.152 294.447C643.133 293.925 643.123 293.413 643.123 292.91V278.99H645.936Z" fill="white"/>
<path d="M339.298 363.99V366.484H332.918V384H330.018V366.484H323.667V363.99H339.298ZM346.17 363.961C347.62 363.961 349.099 363.971 350.607 363.99C352.134 363.99 353.565 364.038 354.899 364.135L354.783 366.368H346.808C345.687 366.368 345.126 366.977 345.126 368.195V372.342H353.652V374.575H345.126V379.795C345.126 381.032 345.687 381.651 346.808 381.651H354.783L354.899 383.855C353.565 383.952 352.134 384 350.607 384C349.099 384.019 347.62 384.029 346.17 384.029C344.971 384.029 344.014 383.71 343.299 383.072C342.584 382.434 342.226 381.564 342.226 380.462V367.528C342.226 366.426 342.584 365.556 343.299 364.918C344.014 364.28 344.971 363.961 346.17 363.961ZM366.918 363.99C367.479 363.99 367.836 364.251 367.991 364.773L374.313 384H371.297L369.412 377.91H361.437L359.552 384H356.565L362.887 364.773C363.022 364.251 363.38 363.99 363.96 363.99H366.918ZM364.54 367.905L362.191 375.503H368.687L366.309 367.905C366.135 367.344 365.98 366.784 365.845 366.223H365.033C364.956 366.494 364.878 366.774 364.801 367.064C364.724 367.354 364.637 367.634 364.54 367.905ZM396.177 363.99C396.931 363.99 397.318 364.386 397.337 365.179L398.149 384H395.307L394.582 366.339H394.002L389.768 380.694C389.613 381.332 389.207 381.651 388.55 381.651H386.172C385.515 381.651 385.089 381.332 384.896 380.694L380.662 366.339H380.082L379.415 384H376.573L377.356 365.179C377.375 364.386 377.762 363.99 378.516 363.99H381.648C382.267 363.99 382.673 364.309 382.866 364.947L386.375 376.779C386.51 377.224 386.636 377.668 386.752 378.113C386.868 378.558 386.984 379.022 387.1 379.505H387.593C387.709 379.022 387.825 378.558 387.941 378.113C388.057 377.668 388.183 377.204 388.318 376.721L391.827 364.947C391.982 364.309 392.388 363.99 393.045 363.99H396.177ZM416.056 363.729C417.699 363.729 419.004 363.913 419.971 364.28C420.937 364.647 421.624 365.285 422.03 366.194C422.455 367.103 422.668 368.388 422.668 370.051C422.668 371.694 422.465 372.98 422.059 373.908C421.653 374.817 420.986 375.455 420.058 375.822C419.149 376.17 417.931 376.344 416.404 376.344C415.572 376.344 414.77 376.325 413.997 376.286C413.243 376.228 412.556 376.17 411.938 376.112V384H409.038V363.99C409.772 363.913 410.459 363.855 411.097 363.816C411.754 363.777 412.469 363.758 413.243 363.758C414.016 363.739 414.954 363.729 416.056 363.729ZM416.027 366.136C415.234 366.136 414.49 366.146 413.794 366.165C413.117 366.165 412.498 366.165 411.938 366.165V373.937H416.027C416.955 373.937 417.689 373.831 418.231 373.618C418.772 373.386 419.159 372.99 419.391 372.429C419.623 371.868 419.739 371.076 419.739 370.051C419.739 369.007 419.623 368.205 419.391 367.644C419.159 367.083 418.772 366.697 418.231 366.484C417.689 366.252 416.955 366.136 416.027 366.136ZM433.442 363.99C434.003 363.99 434.361 364.251 434.515 364.773L440.837 384H437.821L435.936 377.91H427.961L426.076 384H423.089L429.411 364.773C429.547 364.251 429.904 363.99 430.484 363.99H433.442ZM431.064 367.905L428.715 375.503H435.211L432.833 367.905C432.659 367.344 432.505 366.784 432.369 366.223H431.557C431.48 366.494 431.403 366.774 431.325 367.064C431.248 367.354 431.161 367.634 431.064 367.905ZM450.55 363.729C452.136 363.729 453.412 363.903 454.378 364.251C455.364 364.58 456.08 365.169 456.524 366.02C456.969 366.851 457.191 368.021 457.191 369.529C457.191 371.114 456.901 372.323 456.321 373.154C455.761 373.985 454.813 374.488 453.479 374.662V374.807C453.982 374.923 454.475 375.213 454.958 375.677C455.442 376.141 455.799 376.818 456.031 377.707L457.916 384H454.842L453.102 377.765C452.87 377.03 452.542 376.508 452.116 376.199C451.71 375.89 451.188 375.735 450.55 375.735C449.68 375.735 448.897 375.735 448.201 375.735C447.505 375.735 446.896 375.725 446.374 375.706V384H443.503V363.99C444.238 363.913 444.934 363.855 445.591 363.816C446.249 363.777 446.964 363.758 447.737 363.758C448.511 363.739 449.448 363.729 450.55 363.729ZM450.492 366.136C449.68 366.136 448.926 366.146 448.23 366.165C447.534 366.165 446.916 366.165 446.374 366.165V373.328H450.492C451.44 373.328 452.184 373.222 452.725 373.009C453.286 372.796 453.682 372.429 453.914 371.907C454.146 371.385 454.262 370.65 454.262 369.703C454.262 368.756 454.146 368.031 453.914 367.528C453.682 367.006 453.286 366.648 452.725 366.455C452.184 366.242 451.44 366.136 450.492 366.136ZM469.721 363.99C470.281 363.99 470.639 364.251 470.794 364.773L477.116 384H474.1L472.215 377.91H464.24L462.355 384H459.368L465.69 364.773C465.825 364.251 466.183 363.99 466.763 363.99H469.721ZM467.343 367.905L464.994 375.503H471.49L469.112 367.905C468.938 367.344 468.783 366.784 468.648 366.223H467.836C467.758 366.494 467.681 366.774 467.604 367.064C467.526 367.354 467.439 367.634 467.343 367.905ZM492.52 363.729C494.164 363.729 495.469 363.913 496.435 364.28C497.402 364.647 498.088 365.285 498.494 366.194C498.92 367.103 499.132 368.388 499.132 370.051C499.132 371.694 498.929 372.98 498.523 373.908C498.117 374.817 497.45 375.455 496.522 375.822C495.614 376.17 494.396 376.344 492.868 376.344C492.037 376.344 491.235 376.325 490.461 376.286C489.707 376.228 489.021 376.17 488.402 376.112V384H485.502V363.99C486.237 363.913 486.923 363.855 487.561 363.816C488.219 363.777 488.934 363.758 489.707 363.758C490.481 363.739 491.418 363.729 492.52 363.729ZM492.491 366.136C491.699 366.136 490.954 366.146 490.258 366.165C489.582 366.165 488.963 366.165 488.402 366.165V373.937H492.491C493.419 373.937 494.154 373.831 494.695 373.618C495.237 373.386 495.623 372.99 495.855 372.429C496.087 371.868 496.203 371.076 496.203 370.051C496.203 369.007 496.087 368.205 495.855 367.644C495.623 367.083 495.237 366.697 494.695 366.484C494.154 366.252 493.419 366.136 492.491 366.136ZM506.548 363.961C507.998 363.961 509.477 363.971 510.985 363.99C512.512 363.99 513.943 364.038 515.277 364.135L515.161 366.368H507.186C506.064 366.368 505.504 366.977 505.504 368.195V372.342H514.03V374.575H505.504V379.795C505.504 381.032 506.064 381.651 507.186 381.651H515.161L515.277 383.855C513.943 383.952 512.512 384 510.985 384C509.477 384.019 507.998 384.029 506.548 384.029C505.349 384.029 504.392 383.71 503.677 383.072C502.961 382.434 502.604 381.564 502.604 380.462V367.528C502.604 366.426 502.961 365.556 503.677 364.918C504.392 364.28 505.349 363.961 506.548 363.961ZM524.396 363.99V379.853C524.396 381.303 524.048 382.405 523.352 383.159C522.675 383.894 521.689 384.261 520.394 384.261C519.988 384.261 519.485 384.222 518.886 384.145C518.306 384.087 517.852 383.99 517.523 383.855L517.842 381.854H519.292C520.761 381.854 521.496 381.158 521.496 379.766V363.99H524.396ZM543.875 363.99V376.286C543.875 378.239 543.634 379.814 543.15 381.013C542.686 382.192 541.923 383.053 540.859 383.594C539.796 384.116 538.375 384.377 536.596 384.377C534.74 384.377 533.252 384.116 532.13 383.594C531.028 383.053 530.236 382.192 529.752 381.013C529.269 379.814 529.027 378.239 529.027 376.286V363.99H531.927V376.286C531.927 377.678 532.063 378.78 532.333 379.592C532.623 380.404 533.097 380.984 533.754 381.332C534.431 381.68 535.33 381.854 536.451 381.854C537.553 381.854 538.433 381.68 539.09 381.332C539.767 380.984 540.25 380.404 540.54 379.592C540.83 378.78 540.975 377.678 540.975 376.286V363.99H543.875ZM556.636 363.99C557.196 363.99 557.554 364.251 557.709 364.773L564.031 384H561.015L559.13 377.91H551.155L549.27 384H546.283L552.605 364.773C552.74 364.251 553.098 363.99 553.678 363.99H556.636ZM554.258 367.905L551.909 375.503H558.405L556.027 367.905C555.853 367.344 555.698 366.784 555.563 366.223H554.751C554.673 366.494 554.596 366.774 554.519 367.064C554.441 367.354 554.354 367.634 554.258 367.905ZM582.357 363.99V382.869C582.357 383.623 581.999 384 581.284 384H578.79C578.461 384 578.2 383.932 578.007 383.797C577.833 383.642 577.678 383.41 577.543 383.101L570.989 369.587C570.815 369.2 570.612 368.765 570.38 368.282C570.148 367.779 569.974 367.315 569.858 366.89H569.423C569.461 367.335 569.49 367.789 569.51 368.253C569.529 368.717 569.539 369.171 569.539 369.616V384H566.697V365.121C566.697 364.367 567.064 363.99 567.799 363.99H570.206C570.534 363.99 570.795 364.067 570.989 364.222C571.182 364.357 571.346 364.58 571.482 364.889L577.804 378.055C578.016 378.461 578.239 378.925 578.471 379.447C578.722 379.969 578.964 380.481 579.196 380.984H579.66C579.621 380.462 579.592 379.95 579.573 379.447C579.553 378.925 579.544 378.413 579.544 377.91V363.99H582.357ZM601.236 372.429V384H599.119L598.8 381.883C598.22 382.463 597.427 383.024 596.422 383.565C595.417 384.106 594.228 384.377 592.855 384.377C590.612 384.377 588.988 383.546 587.983 381.883C586.997 380.201 586.504 377.552 586.504 373.937C586.504 371.308 586.775 369.239 587.316 367.731C587.857 366.223 588.747 365.16 589.984 364.541C591.221 363.922 592.884 363.613 594.972 363.613C596.035 363.613 597.031 363.661 597.959 363.758C598.887 363.855 599.796 364.019 600.685 364.251L600.395 366.397C599.467 366.32 598.549 366.271 597.64 366.252C596.731 366.213 595.881 366.194 595.088 366.194C594.063 366.194 593.193 366.3 592.478 366.513C591.782 366.706 591.221 367.083 590.796 367.644C590.371 368.185 590.061 368.978 589.868 370.022C589.675 371.066 589.578 372.429 589.578 374.111C589.578 376.006 589.704 377.523 589.955 378.664C590.226 379.785 590.661 380.597 591.26 381.1C591.879 381.603 592.7 381.854 593.725 381.854C594.692 381.854 595.542 381.68 596.277 381.332C597.031 380.965 597.737 380.549 598.394 380.085V372.429H601.236Z" fill="white"/>
<rect width="286" height="60" rx="8" fill="white"/>
<path d="M41.9547 19.99V24.137H36.1837V40H30.7317V24.137H24.9317V19.99H41.9547ZM48.4298 19.903C50.0925 19.903 51.8132 19.9223 53.5918 19.961C55.3898 19.9803 57.0042 20.0673 58.4348 20.222L58.1738 24.108H50.6918C49.8025 24.108 49.3578 24.5237 49.3578 25.355V27.849H57.1298V31.532H49.3578V34.635C49.3578 35.4663 49.8025 35.882 50.6918 35.882H58.1738L58.4348 39.768C57.0042 39.9227 55.3898 40.0097 53.5918 40.029C51.8132 40.0677 50.0925 40.087 48.4298 40.087C47.0958 40.087 46.0132 39.6907 45.1818 38.898C44.3505 38.1053 43.9348 37.071 43.9348 35.795V24.195C43.9348 22.919 44.3505 21.8847 45.1818 21.092C46.0132 20.2993 47.0958 19.903 48.4298 19.903ZM69.2487 19.7C71.124 19.7 72.6513 19.8837 73.8307 20.251C75.01 20.599 75.8703 21.2177 76.4117 22.107C76.9723 22.977 77.2527 24.1853 77.2527 25.732C77.2527 27.0273 76.9627 28.1197 76.3827 29.009C75.822 29.879 74.7877 30.401 73.2797 30.575V30.749C73.647 30.807 74.0337 30.9327 74.4397 31.126C74.865 31.3193 75.2517 31.6287 75.5997 32.054C75.9477 32.4793 76.2087 33.069 76.3827 33.823L78.0357 40H72.3227L70.9017 33.997C70.747 33.3977 70.5247 32.9917 70.2347 32.779C69.964 32.5663 69.5483 32.46 68.9877 32.46C68.5043 32.46 68.05 32.46 67.6247 32.46C67.2187 32.4407 66.832 32.431 66.4647 32.431V40H61.1287V19.99C61.9793 19.9127 62.7817 19.8547 63.5357 19.816C64.2897 19.758 65.1113 19.729 66.0007 19.729C66.9093 19.7097 67.992 19.7 69.2487 19.7ZM69.1327 23.644C68.166 23.644 67.2767 23.644 66.4647 23.644V28.516H69.1327C70.1573 28.516 70.8533 28.3517 71.2207 28.023C71.588 27.6943 71.7717 27.0467 71.7717 26.08C71.7717 25.094 71.588 24.4463 71.2207 24.137C70.8533 23.8083 70.1573 23.644 69.1327 23.644ZM88.2462 19.99V36.201C88.2462 37.535 87.8015 38.5693 86.9122 39.304C86.0228 40.0193 84.8048 40.377 83.2582 40.377C82.8715 40.377 82.4075 40.348 81.8662 40.29C81.3248 40.2513 80.7932 40.1837 80.2712 40.087C79.7492 39.9903 79.3432 39.8647 79.0532 39.71L79.6332 36.259H80.9962C82.2335 36.259 82.8522 35.824 82.8522 34.954V19.99H88.2462ZM102.127 19.99C102.572 19.99 102.958 20.1157 103.287 20.367C103.635 20.6183 103.867 20.9663 103.983 21.411L109.464 40H103.896L102.707 35.244H96.559L95.341 40H89.773L95.254 21.411C95.37 20.9663 95.5923 20.6183 95.921 20.367C96.269 20.1157 96.6653 19.99 97.11 19.99H102.127ZM98.85 26.196L97.545 31.329H101.692L100.387 26.196C100.31 25.8673 100.232 25.5193 100.155 25.152C100.097 24.7653 100.049 24.4077 100.01 24.079H99.227C99.169 24.4077 99.111 24.7653 99.053 25.152C98.995 25.5193 98.9273 25.8673 98.85 26.196ZM119.293 19.7C120.937 19.7 122.329 19.8643 123.469 20.193C124.629 20.5217 125.557 21.0727 126.253 21.846C126.969 22.6193 127.481 23.673 127.79 25.007C128.119 26.3217 128.283 27.9843 128.283 29.995C128.283 32.0057 128.119 33.678 127.79 35.012C127.481 36.3267 126.969 37.3707 126.253 38.144C125.557 38.9173 124.629 39.4683 123.469 39.797C122.329 40.1257 120.937 40.29 119.293 40.29C117.689 40.29 116.219 40.261 114.885 40.203C113.551 40.145 112.275 40.0773 111.057 40V19.99C112.275 19.9127 113.542 19.845 114.856 19.787C116.171 19.729 117.65 19.7 119.293 19.7ZM119.293 23.731C118.771 23.731 118.278 23.731 117.814 23.731C117.35 23.731 116.915 23.731 116.509 23.731V36.23C117.341 36.2493 118.269 36.259 119.293 36.259C120.125 36.259 120.772 36.085 121.236 35.737C121.72 35.3697 122.058 34.7413 122.251 33.852C122.445 32.9433 122.541 31.6577 122.541 29.995C122.541 28.3323 122.445 27.0563 122.251 26.167C122.058 25.2583 121.72 24.63 121.236 24.282C120.772 23.9147 120.125 23.731 119.293 23.731ZM136.588 19.99V40H131.194V19.99H136.588Z" fill="black"/>
<path d="M255.853 35.4161C255.358 35.4161 254.915 35.0688 254.813 34.5657C254.695 33.9902 255.066 33.4289 255.642 33.3113C259.513 32.5233 263.616 27.7581 263.979 20.378H259.285C258.698 20.378 258.221 19.9017 258.221 19.315C258.221 18.7282 258.698 18.252 259.285 18.252H265.067C265.654 18.252 266.13 18.7282 266.13 19.315C266.13 28.5263 261.068 34.3757 256.067 35.3948C255.995 35.409 255.924 35.4161 255.853 35.4161V35.4161Z" fill="#F1EF23"/>
<path d="M242.15 35.3877C242.073 35.3877 241.995 35.3792 241.916 35.3622C236.989 34.2567 232 28.3903 232 19.315C232 18.7282 232.476 18.252 233.063 18.252H238.732C239.319 18.252 239.795 18.7282 239.795 19.315C239.795 19.9017 239.319 20.378 238.732 20.378H234.153C234.514 27.6547 238.562 32.4311 242.382 33.2872C242.955 33.4162 243.315 33.9845 243.187 34.5572C243.075 35.0518 242.636 35.3877 242.15 35.3877V35.3877Z" fill="#F1EF23"/>
<path d="M250.78 36.834C250.193 36.834 249.717 37.3102 249.717 37.897H248.3C248.3 37.3102 247.824 36.834 247.237 36.834C246.65 36.834 246.174 37.3102 246.174 37.897V43.0562C246.174 43.6429 246.65 44.1192 247.237 44.1192H250.78C251.367 44.1192 251.843 43.6429 251.843 43.0562V37.897C251.843 37.3102 251.367 36.834 250.78 36.834Z" fill="#F1EF23"/>
<path d="M252.198 42.3467H245.82C243.669 42.3467 241.922 44.0943 241.922 46.2444V46.9531C241.922 47.5399 242.398 48.0161 242.985 48.0161H255.032C255.619 48.0161 256.095 47.5399 256.095 46.9531V46.2444C256.095 44.0943 254.348 42.3467 252.198 42.3467Z" fill="#F1EF23"/>
<path d="M257.867 14H240.15C238.783 14 237.67 15.1126 237.67 16.4804V26.7632C237.731 35.9137 248.214 39.654 248.66 39.8085C248.773 39.8482 248.891 39.8681 249.009 39.8681C249.126 39.8681 249.244 39.8482 249.356 39.8099C249.804 39.654 260.348 35.9122 260.348 26.7562V16.4804C260.348 15.1126 259.235 14 257.867 14Z" fill="#F1EF23"/>
<rect y="86" width="286" height="60" rx="8" fill="white"/>
<path d="M41.9547 105.99V110.137H36.1837V126H30.7317V110.137H24.9317V105.99H41.9547ZM48.4298 105.903C50.0925 105.903 51.8132 105.922 53.5918 105.961C55.3898 105.98 57.0042 106.067 58.4348 106.222L58.1738 110.108H50.6918C49.8025 110.108 49.3578 110.524 49.3578 111.355V113.849H57.1298V117.532H49.3578V120.635C49.3578 121.466 49.8025 121.882 50.6918 121.882H58.1738L58.4348 125.768C57.0042 125.923 55.3898 126.01 53.5918 126.029C51.8132 126.068 50.0925 126.087 48.4298 126.087C47.0958 126.087 46.0132 125.691 45.1818 124.898C44.3505 124.105 43.9348 123.071 43.9348 121.795V110.195C43.9348 108.919 44.3505 107.885 45.1818 107.092C46.0132 106.299 47.0958 105.903 48.4298 105.903ZM69.2487 105.7C71.124 105.7 72.6513 105.884 73.8307 106.251C75.01 106.599 75.8703 107.218 76.4117 108.107C76.9723 108.977 77.2527 110.185 77.2527 111.732C77.2527 113.027 76.9627 114.12 76.3827 115.009C75.822 115.879 74.7877 116.401 73.2797 116.575V116.749C73.647 116.807 74.0337 116.933 74.4397 117.126C74.865 117.319 75.2517 117.629 75.5997 118.054C75.9477 118.479 76.2087 119.069 76.3827 119.823L78.0357 126H72.3227L70.9017 119.997C70.747 119.398 70.5247 118.992 70.2347 118.779C69.964 118.566 69.5483 118.46 68.9877 118.46C68.5043 118.46 68.05 118.46 67.6247 118.46C67.2187 118.441 66.832 118.431 66.4647 118.431V126H61.1287V105.99C61.9793 105.913 62.7817 105.855 63.5357 105.816C64.2897 105.758 65.1113 105.729 66.0007 105.729C66.9093 105.71 67.992 105.7 69.2487 105.7ZM69.1327 109.644C68.166 109.644 67.2767 109.644 66.4647 109.644V114.516H69.1327C70.1573 114.516 70.8533 114.352 71.2207 114.023C71.588 113.694 71.7717 113.047 71.7717 112.08C71.7717 111.094 71.588 110.446 71.2207 110.137C70.8533 109.808 70.1573 109.644 69.1327 109.644ZM85.8102 105.99V111.326C85.8102 112.157 85.7232 112.979 85.5492 113.791H86.9702L91.5812 105.99H97.4102L92.5382 113.936C92.3062 114.342 92.0452 114.68 91.7552 114.951C91.4652 115.222 91.1848 115.434 90.9142 115.589V115.676C91.1848 115.831 91.5038 116.082 91.8712 116.43C92.2385 116.778 92.5285 117.145 92.7412 117.532L97.7292 126H91.6972L86.9992 117.416H85.5782C85.6555 117.745 85.7135 118.073 85.7522 118.402C85.7908 118.711 85.8102 119.011 85.8102 119.301V126H80.3872V105.99H85.8102ZM107.034 105.584C108.697 105.584 110.098 105.748 111.239 106.077C112.38 106.406 113.298 106.966 113.994 107.759C114.709 108.532 115.222 109.596 115.531 110.949C115.86 112.283 116.024 113.965 116.024 115.995C116.024 118.025 115.86 119.717 115.531 121.07C115.222 122.404 114.709 123.467 113.994 124.26C113.298 125.033 112.38 125.584 111.239 125.913C110.098 126.242 108.697 126.406 107.034 126.406C105.371 126.406 103.97 126.242 102.829 125.913C101.688 125.584 100.76 125.033 100.045 124.26C99.3491 123.467 98.8368 122.404 98.5081 121.07C98.1988 119.717 98.0441 118.025 98.0441 115.995C98.0441 113.965 98.1988 112.283 98.5081 110.949C98.8368 109.596 99.3491 108.532 100.045 107.759C100.76 106.966 101.688 106.406 102.829 106.077C103.97 105.748 105.371 105.584 107.034 105.584ZM107.034 109.731C106.183 109.731 105.516 109.905 105.033 110.253C104.569 110.601 104.24 111.229 104.047 112.138C103.854 113.047 103.757 114.332 103.757 115.995C103.757 117.658 103.854 118.943 104.047 119.852C104.24 120.761 104.569 121.389 105.033 121.737C105.516 122.085 106.183 122.259 107.034 122.259C107.885 122.259 108.542 122.085 109.006 121.737C109.489 121.389 109.818 120.761 109.992 119.852C110.185 118.943 110.282 117.658 110.282 115.995C110.282 114.332 110.185 113.047 109.992 112.138C109.818 111.229 109.489 110.601 109.006 110.253C108.542 109.905 107.885 109.731 107.034 109.731ZM140.217 105.99C141.474 105.99 142.121 106.628 142.16 107.904L142.914 126H137.955L137.317 110.108H136.853L134.301 121.331C134.108 122.452 133.412 123.013 132.213 123.013H129.168C127.989 123.013 127.283 122.452 127.051 121.331L124.499 110.108H124.035L123.484 126H118.525L119.25 107.904C119.308 106.628 119.956 105.99 121.193 105.99H126.065C127.225 105.99 127.911 106.56 128.124 107.701L130.096 116.604C130.193 117.087 130.27 117.571 130.328 118.054C130.386 118.537 130.454 119.03 130.531 119.533H130.85C130.927 119.03 130.995 118.537 131.053 118.054C131.111 117.571 131.188 117.078 131.285 116.575L133.199 107.701C133.392 106.56 134.088 105.99 135.287 105.99H140.217ZM154.096 105.7C156.106 105.7 157.682 105.893 158.823 106.28C159.963 106.667 160.775 107.353 161.259 108.339C161.742 109.306 161.984 110.659 161.984 112.399C161.984 114.139 161.752 115.492 161.288 116.459C160.843 117.406 160.099 118.073 159.055 118.46C158.011 118.847 156.609 119.04 154.85 119.04C154.27 119.04 153.69 119.021 153.11 118.982C152.549 118.943 151.998 118.895 151.457 118.837V126H146.005V105.99C146.855 105.913 147.648 105.855 148.383 105.816C149.137 105.758 149.958 105.729 150.848 105.729C151.756 105.71 152.839 105.7 154.096 105.7ZM153.98 109.644C153.535 109.644 153.1 109.644 152.675 109.644C152.249 109.644 151.843 109.644 151.457 109.644V115.125H153.98C154.985 115.106 155.662 114.922 156.01 114.574C156.358 114.207 156.532 113.482 156.532 112.399C156.532 111.297 156.358 110.562 156.01 110.195C155.662 109.828 154.985 109.644 153.98 109.644ZM173.919 105.99C174.364 105.99 174.75 106.116 175.079 106.367C175.427 106.618 175.659 106.966 175.775 107.411L181.256 126H175.688L174.499 121.244H168.351L167.133 126H161.565L167.046 107.411C167.162 106.966 167.384 106.618 167.713 106.367C168.061 106.116 168.457 105.99 168.902 105.99H173.919ZM170.642 112.196L169.337 117.329H173.484L172.179 112.196C172.102 111.867 172.024 111.519 171.947 111.152C171.889 110.765 171.841 110.408 171.802 110.079H171.019C170.961 110.408 170.903 110.765 170.845 111.152C170.787 111.519 170.719 111.867 170.642 112.196ZM188.301 105.99V111.326C188.301 112.157 188.214 112.979 188.04 113.791H189.461L194.072 105.99H199.901L195.029 113.936C194.797 114.342 194.536 114.68 194.246 114.951C193.956 115.222 193.676 115.434 193.405 115.589V115.676C193.676 115.831 193.995 116.082 194.362 116.43C194.73 116.778 195.02 117.145 195.232 117.532L200.22 126H194.188L189.49 117.416H188.069C188.147 117.745 188.205 118.073 188.243 118.402C188.282 118.711 188.301 119.011 188.301 119.301V126H182.878V105.99H188.301Z" fill="black"/>
<path d="M261.318 116.056H258.668C258.938 116.812 259.086 117.629 259.086 118.48V128.727C259.086 129.081 259.025 129.422 258.915 129.739H263.296C264.933 129.739 266.264 128.377 266.264 126.702V121.116C266.264 118.326 264.045 116.056 261.318 116.056Z" fill="#58D9CF"/>
<path d="M239.178 118.48C239.178 117.629 239.326 116.812 239.596 116.056H236.946C234.219 116.056 232 118.326 232 121.116V126.702C232 128.377 233.331 129.739 234.968 129.739H239.349C239.239 129.422 239.178 129.081 239.178 128.727V118.48V118.48Z" fill="#58D9CF"/>
<path d="M252.16 113.419H246.102C243.375 113.419 241.156 115.689 241.156 118.48V128.726C241.156 129.285 241.599 129.739 242.145 129.739H256.117C256.664 129.739 257.106 129.285 257.106 128.726V118.48C257.106 115.689 254.888 113.419 252.16 113.419Z" fill="#58D9CF"/>
<path d="M249.132 100C245.852 100 243.184 102.73 243.184 106.086C243.184 108.363 244.412 110.351 246.225 111.394C247.085 111.889 248.077 112.172 249.132 112.172C250.187 112.172 251.179 111.889 252.039 111.394C253.853 110.351 255.08 108.362 255.08 106.086C255.08 102.73 252.412 100 249.132 100Z" fill="#58D9CF"/>
<path d="M238.687 105.673C236.234 105.673 234.238 107.715 234.238 110.224C234.238 112.734 236.234 114.776 238.687 114.776C239.309 114.776 239.902 114.644 240.44 114.407C241.371 113.997 242.138 113.272 242.613 112.363C242.946 111.725 243.136 110.997 243.136 110.224C243.136 107.715 241.14 105.673 238.687 105.673Z" fill="#58D9CF"/>
<path d="M259.578 105.673C257.125 105.673 255.129 107.715 255.129 110.224C255.129 110.997 255.318 111.725 255.652 112.363C256.127 113.272 256.894 113.997 257.825 114.407C258.363 114.644 258.955 114.776 259.578 114.776C262.031 114.776 264.026 112.734 264.026 110.224C264.026 107.715 262.031 105.673 259.578 105.673Z" fill="#58D9CF"/>
<rect y="171" width="286" height="60" rx="8" fill="white"/>
<path d="M41.9547 190.99V195.137H36.1837V211H30.7317V195.137H24.9317V190.99H41.9547ZM48.4298 190.903C50.0925 190.903 51.8132 190.922 53.5918 190.961C55.3898 190.98 57.0042 191.067 58.4348 191.222L58.1738 195.108H50.6918C49.8025 195.108 49.3578 195.524 49.3578 196.355V198.849H57.1298V202.532H49.3578V205.635C49.3578 206.466 49.8025 206.882 50.6918 206.882H58.1738L58.4348 210.768C57.0042 210.923 55.3898 211.01 53.5918 211.029C51.8132 211.068 50.0925 211.087 48.4298 211.087C47.0958 211.087 46.0132 210.691 45.1818 209.898C44.3505 209.105 43.9348 208.071 43.9348 206.795V195.195C43.9348 193.919 44.3505 192.885 45.1818 192.092C46.0132 191.299 47.0958 190.903 48.4298 190.903ZM69.2487 190.7C71.124 190.7 72.6513 190.884 73.8307 191.251C75.01 191.599 75.8703 192.218 76.4117 193.107C76.9723 193.977 77.2527 195.185 77.2527 196.732C77.2527 198.027 76.9627 199.12 76.3827 200.009C75.822 200.879 74.7877 201.401 73.2797 201.575V201.749C73.647 201.807 74.0337 201.933 74.4397 202.126C74.865 202.319 75.2517 202.629 75.5997 203.054C75.9477 203.479 76.2087 204.069 76.3827 204.823L78.0357 211H72.3227L70.9017 204.997C70.747 204.398 70.5247 203.992 70.2347 203.779C69.964 203.566 69.5483 203.46 68.9877 203.46C68.5043 203.46 68.05 203.46 67.6247 203.46C67.2187 203.441 66.832 203.431 66.4647 203.431V211H61.1287V190.99C61.9793 190.913 62.7817 190.855 63.5357 190.816C64.2897 190.758 65.1113 190.729 66.0007 190.729C66.9093 190.71 67.992 190.7 69.2487 190.7ZM69.1327 194.644C68.166 194.644 67.2767 194.644 66.4647 194.644V199.516H69.1327C70.1573 199.516 70.8533 199.352 71.2207 199.023C71.588 198.694 71.7717 198.047 71.7717 197.08C71.7717 196.094 71.588 195.446 71.2207 195.137C70.8533 194.808 70.1573 194.644 69.1327 194.644ZM97.2072 190.99V202.88C97.2072 204.949 96.9365 206.611 96.3952 207.868C95.8732 209.125 95.0128 210.033 93.8142 210.594C92.6155 211.135 91.0108 211.406 89.0002 211.406C86.8542 211.406 85.1335 211.135 83.8382 210.594C82.5622 210.033 81.6342 209.125 81.0542 207.868C80.4935 206.611 80.2132 204.949 80.2132 202.88V190.99H85.6652V202.88C85.6652 204.021 85.7522 204.91 85.9262 205.548C86.1195 206.186 86.4385 206.631 86.8832 206.882C87.3278 207.133 87.9368 207.259 88.7102 207.259C89.5028 207.259 90.1215 207.133 90.5662 206.882C91.0108 206.631 91.3202 206.186 91.4942 205.548C91.6682 204.91 91.7552 204.021 91.7552 202.88V190.99H97.2072ZM118.27 190.99V209.086C118.27 210.362 117.641 211 116.385 211H113.949C113.369 211 112.934 210.865 112.644 210.594C112.373 210.323 112.093 209.927 111.803 209.405L106.902 200.879C106.65 200.415 106.409 199.903 106.177 199.342C105.964 198.762 105.78 198.192 105.626 197.631H105.365C105.442 198.192 105.5 198.772 105.539 199.371C105.597 199.951 105.626 200.512 105.626 201.053V211H100.551V192.904C100.551 191.628 101.189 190.99 102.465 190.99H104.872C105.432 190.99 105.848 191.125 106.119 191.396C106.409 191.667 106.708 192.063 107.018 192.585L111.716 200.792C111.986 201.256 112.247 201.778 112.499 202.358C112.75 202.919 112.992 203.499 113.224 204.098H113.485C113.427 203.499 113.378 202.919 113.34 202.358C113.301 201.778 113.282 201.188 113.282 200.589L113.253 190.99H118.27ZM127.157 190.99V211H121.763V190.99H127.157ZM136.107 190.99V196.326C136.107 197.157 136.02 197.979 135.846 198.791H137.267L141.878 190.99H147.707L142.835 198.936C142.603 199.342 142.342 199.68 142.052 199.951C141.762 200.222 141.482 200.434 141.211 200.589V200.676C141.482 200.831 141.801 201.082 142.168 201.43C142.535 201.778 142.825 202.145 143.038 202.532L148.026 211H141.994L137.296 202.416H135.875C135.952 202.745 136.01 203.073 136.049 203.402C136.088 203.711 136.107 204.011 136.107 204.301V211H130.684V190.99H136.107Z" fill="black"/>
<path d="M248.829 187.424C248.18 187.424 247.652 186.897 247.652 186.247V183.177C247.652 182.527 248.18 182 248.829 182C249.479 182 250.006 182.527 250.006 183.177V186.247C250.006 186.897 249.479 187.424 248.829 187.424Z" fill="#F78D1B"/>
<path d="M259.139 191.695C258.838 191.695 258.537 191.581 258.308 191.35C257.848 190.89 257.848 190.145 258.308 189.685L260.479 187.514C260.939 187.054 261.684 187.054 262.144 187.514C262.604 187.973 262.604 188.719 262.144 189.179L259.972 191.35C259.742 191.579 259.441 191.695 259.139 191.695V191.695Z" fill="#F78D1B"/>
<path d="M266.48 202.005H263.409C262.76 202.005 262.232 201.478 262.232 200.828C262.232 200.179 262.76 199.651 263.409 199.651H266.48C267.129 199.651 267.657 200.179 267.657 200.828C267.657 201.478 267.129 202.005 266.48 202.005Z" fill="#F78D1B"/>
<path d="M261.311 214.487C261.01 214.487 260.708 214.373 260.479 214.142L258.308 211.97C257.848 211.511 257.848 210.765 258.308 210.306C258.767 209.846 259.513 209.846 259.972 210.306L262.144 212.477C262.604 212.937 262.604 213.682 262.144 214.142C261.913 214.373 261.612 214.487 261.311 214.487Z" fill="#F78D1B"/>
<path d="M236.346 214.487C236.045 214.487 235.744 214.373 235.515 214.142C235.055 213.682 235.055 212.937 235.515 212.477L237.686 210.306C238.146 209.846 238.891 209.846 239.351 210.306C239.811 210.765 239.811 211.511 239.351 211.97L237.179 214.142C236.949 214.373 236.648 214.487 236.346 214.487V214.487Z" fill="#F78D1B"/>
<path d="M234.247 202.005H231.177C230.527 202.005 230 201.478 230 200.828C230 200.179 230.527 199.651 231.177 199.651H234.247C234.897 199.651 235.424 200.179 235.424 200.828C235.424 201.478 234.897 202.005 234.247 202.005Z" fill="#F78D1B"/>
<path d="M238.518 191.695C238.217 191.695 237.915 191.581 237.686 191.35L235.515 189.179C235.055 188.719 235.055 187.973 235.515 187.514C235.974 187.054 236.72 187.054 237.179 187.514L239.351 189.685C239.811 190.145 239.811 190.89 239.351 191.35C239.119 191.579 238.819 191.695 238.518 191.695V191.695Z" fill="#F78D1B"/>
<path d="M253.535 214.95V216.912C253.535 218.418 252.296 219.657 250.79 219.657H246.867C245.549 219.657 244.121 218.653 244.121 216.456V214.95H253.535Z" fill="#F78D1B"/>
<path d="M255.749 192.292C253.175 190.205 249.786 189.39 246.476 190.096C242.318 190.959 238.944 194.348 238.081 198.506C237.202 202.773 238.803 207.01 242.223 209.599C243.149 210.289 243.792 211.356 244.012 212.596V212.611C244.044 212.596 244.091 212.596 244.122 212.596H253.536C253.568 212.596 253.583 212.596 253.615 212.611V212.596C253.834 211.403 254.54 210.305 255.623 209.458C258.275 207.355 259.812 204.217 259.812 200.828C259.812 197.501 258.338 194.395 255.749 192.292ZM254.713 201.612C254.07 201.612 253.536 201.079 253.536 200.436C253.536 198.051 251.606 196.121 249.221 196.121C248.578 196.121 248.045 195.587 248.045 194.944C248.045 194.301 248.578 193.767 249.221 193.767C252.893 193.767 255.89 196.764 255.89 200.436C255.89 201.079 255.356 201.612 254.713 201.612Z" fill="#F78D1B"/>
<path d="M244.012 212.597H244.122C244.09 212.597 244.043 212.597 244.012 212.612V212.597Z" fill="#F78D1B"/>
<path d="M253.614 212.597V212.612C253.582 212.597 253.567 212.597 253.535 212.597H253.614Z" fill="#F78D1B"/>
<rect y="257" width="286" height="60" rx="8" fill="white"/>
<path d="M41.9547 276.99V281.137H36.1837V297H30.7317V281.137H24.9317V276.99H41.9547ZM48.4298 276.903C50.0925 276.903 51.8132 276.922 53.5918 276.961C55.3898 276.98 57.0042 277.067 58.4348 277.222L58.1738 281.108H50.6918C49.8025 281.108 49.3578 281.524 49.3578 282.355V284.849H57.1298V288.532H49.3578V291.635C49.3578 292.466 49.8025 292.882 50.6918 292.882H58.1738L58.4348 296.768C57.0042 296.923 55.3898 297.01 53.5918 297.029C51.8132 297.068 50.0925 297.087 48.4298 297.087C47.0958 297.087 46.0132 296.691 45.1818 295.898C44.3505 295.105 43.9348 294.071 43.9348 292.795V281.195C43.9348 279.919 44.3505 278.885 45.1818 278.092C46.0132 277.299 47.0958 276.903 48.4298 276.903ZM69.2487 276.7C71.124 276.7 72.6513 276.884 73.8307 277.251C75.01 277.599 75.8703 278.218 76.4117 279.107C76.9723 279.977 77.2527 281.185 77.2527 282.732C77.2527 284.027 76.9627 285.12 76.3827 286.009C75.822 286.879 74.7877 287.401 73.2797 287.575V287.749C73.647 287.807 74.0337 287.933 74.4397 288.126C74.865 288.319 75.2517 288.629 75.5997 289.054C75.9477 289.479 76.2087 290.069 76.3827 290.823L78.0357 297H72.3227L70.9017 290.997C70.747 290.398 70.5247 289.992 70.2347 289.779C69.964 289.566 69.5483 289.46 68.9877 289.46C68.5043 289.46 68.05 289.46 67.6247 289.46C67.2187 289.441 66.832 289.431 66.4647 289.431V297H61.1287V276.99C61.9793 276.913 62.7817 276.855 63.5357 276.816C64.2897 276.758 65.1113 276.729 66.0007 276.729C66.9093 276.71 67.992 276.7 69.2487 276.7ZM69.1327 280.644C68.166 280.644 67.2767 280.644 66.4647 280.644V285.516H69.1327C70.1573 285.516 70.8533 285.352 71.2207 285.023C71.588 284.694 71.7717 284.047 71.7717 283.08C71.7717 282.094 71.588 281.446 71.2207 281.137C70.8533 280.808 70.1573 280.644 69.1327 280.644ZM88.4229 276.642C89.4282 276.642 90.2789 276.671 90.9749 276.729C91.6902 276.768 92.3379 276.845 92.9179 276.961C93.4979 277.058 94.1069 277.193 94.7449 277.367L94.3389 281.369C93.6815 281.35 93.0726 281.33 92.5119 281.311C91.9512 281.292 91.3519 281.282 90.7139 281.282C90.0759 281.263 89.3122 281.253 88.4229 281.253C87.6109 281.253 86.9825 281.417 86.5379 281.746C86.0932 282.075 85.7839 282.655 85.6099 283.486C85.4359 284.317 85.3489 285.487 85.3489 286.995C85.3489 288.503 85.4359 289.673 85.6099 290.504C85.7839 291.335 86.0932 291.915 86.5379 292.244C86.9825 292.573 87.6109 292.737 88.4229 292.737C89.8342 292.737 91.0039 292.727 91.9319 292.708C92.8792 292.669 93.8266 292.592 94.7739 292.476L95.1799 296.449C94.2132 296.778 93.2176 297.01 92.1929 297.145C91.1876 297.28 89.9309 297.348 88.4229 297.348C86.2769 297.348 84.5562 297.019 83.2609 296.362C81.9849 295.685 81.0569 294.593 80.4769 293.085C79.9162 291.577 79.6359 289.547 79.6359 286.995C79.6359 284.443 79.9162 282.413 80.4769 280.905C81.0569 279.397 81.9849 278.314 83.2609 277.657C84.5562 276.98 86.2769 276.642 88.4229 276.642ZM108.018 276.99C108.462 276.99 108.849 277.116 109.178 277.367C109.526 277.618 109.758 277.966 109.874 278.411L115.355 297H109.787L108.598 292.244H102.45L101.232 297H95.6636L101.145 278.411C101.261 277.966 101.483 277.618 101.812 277.367C102.16 277.116 102.556 276.99 103.001 276.99H108.018ZM104.741 283.196L103.436 288.329H107.583L106.278 283.196C106.2 282.867 106.123 282.519 106.046 282.152C105.988 281.765 105.939 281.408 105.901 281.079H105.118C105.06 281.408 105.002 281.765 104.944 282.152C104.886 282.519 104.818 282.867 104.741 283.196ZM134.667 276.99V295.086C134.667 296.362 134.039 297 132.782 297H130.346C129.766 297 129.331 296.865 129.041 296.594C128.77 296.323 128.49 295.927 128.2 295.405L123.299 286.879C123.048 286.415 122.806 285.903 122.574 285.342C122.361 284.762 122.178 284.192 122.023 283.631H121.762C121.839 284.192 121.897 284.772 121.936 285.371C121.994 285.951 122.023 286.512 122.023 287.053V297H116.948V278.904C116.948 277.628 117.586 276.99 118.862 276.99H121.269C121.83 276.99 122.245 277.125 122.516 277.396C122.806 277.667 123.106 278.063 123.415 278.585L128.113 286.792C128.384 287.256 128.645 287.778 128.896 288.358C129.147 288.919 129.389 289.499 129.621 290.098H129.882C129.824 289.499 129.776 288.919 129.737 288.358C129.698 287.778 129.679 287.188 129.679 286.589L129.65 276.99H134.667ZM153.792 276.99V281.137H148.021V297H142.569V281.137H136.769V276.99H153.792ZM161.34 276.99V297H155.946V276.99H161.34ZM170.29 276.99V282.326C170.29 283.157 170.203 283.979 170.029 284.791H171.45L176.061 276.99H181.89L177.018 284.936C176.786 285.342 176.525 285.68 176.235 285.951C175.945 286.222 175.664 286.434 175.394 286.589V286.676C175.664 286.831 175.983 287.082 176.351 287.43C176.718 287.778 177.008 288.145 177.221 288.532L182.209 297H176.177L171.479 288.416H170.058C170.135 288.745 170.193 289.073 170.232 289.402C170.27 289.711 170.29 290.011 170.29 290.301V297H164.867V276.99H170.29Z" fill="black"/>
<path d="M242.484 284.861C241.974 284.861 241.559 285.276 241.559 285.787C241.559 286.298 241.974 286.713 242.484 286.713C242.995 286.713 243.41 286.298 243.41 285.787C243.41 285.276 242.995 284.861 242.484 284.861Z" fill="#C69FD5"/>
<path d="M253.793 283.734C253.093 283.034 251.875 283.034 251.175 283.734C250.953 283.955 250.797 284.217 250.71 284.513V284.514C250.393 285.581 249.657 286.479 248.688 287.05C250.283 287.953 252.461 287.684 253.793 286.352C254.517 285.628 254.517 284.458 253.793 283.734Z" fill="#C69FD5"/>
<path d="M244.334 292.267C243.823 292.267 243.408 292.682 243.408 293.192C243.408 293.703 243.823 294.118 244.334 294.118C244.845 294.118 245.26 293.703 245.26 293.192C245.26 292.682 244.845 292.267 244.334 292.267Z" fill="#C69FD5"/>
<path d="M246.185 279.308C245.675 279.308 245.26 279.723 245.26 280.233C245.26 280.744 245.675 281.159 246.185 281.159C246.696 281.159 247.111 280.744 247.111 280.233C247.111 279.723 246.696 279.308 246.185 279.308Z" fill="#C69FD5"/>
<path d="M263.442 284.643C263.145 283.272 262.633 281.976 261.933 280.764C260.179 282.297 257.863 284.018 256.075 284.241C256.395 285.58 255.98 286.844 255.102 287.723C253.949 288.877 252.415 289.513 250.782 289.513C249.15 289.513 247.616 288.877 246.462 287.723C246.094 287.353 245.792 287.082 245.975 286.52C246.081 286.19 246.365 285.947 246.708 285.892C247.78 285.719 248.654 284.996 248.934 284.05C249.108 283.462 249.431 282.922 249.867 282.486C250.776 281.576 252.126 281.269 253.345 281.544C253.55 279.758 255.333 277.381 256.83 275.659C251.603 272.647 244.702 273.249 240.07 277.883C236.775 281.178 235.384 285.731 236.253 290.376C237.256 295.729 241.506 300.101 246.83 301.255C247.85 301.476 248.872 301.586 249.886 301.586C252.261 301.586 254.329 301.136 255.118 298.739C255.605 297.259 255.228 295.659 254.133 294.564C253.409 293.84 253.409 292.67 254.133 291.946C254.833 291.246 256.051 291.246 256.751 291.946C257.845 293.04 259.441 293.418 260.927 292.93C262.364 292.458 263.395 291.245 263.618 289.767C263.873 288.083 263.814 286.359 263.442 284.643ZM246.185 277.519C247.717 277.519 248.962 278.764 248.962 280.296C248.962 281.827 247.717 283.073 246.185 283.073C244.654 283.073 243.408 281.827 243.408 280.296C243.408 278.764 244.654 277.519 246.185 277.519ZM239.706 285.85C239.706 284.318 240.951 283.073 242.483 283.073C244.014 283.073 245.26 284.318 245.26 285.85C245.26 287.381 244.014 288.627 242.483 288.627C240.951 288.627 239.706 287.381 239.706 285.85ZM244.334 296.032C242.803 296.032 241.557 294.786 241.557 293.255C241.557 291.724 242.803 290.478 244.334 290.478C245.865 290.478 247.111 291.724 247.111 293.255C247.111 294.786 245.865 296.032 244.334 296.032Z" fill="#C69FD5"/>
<path d="M267.463 270.099C267.433 270.07 267.363 270 267.135 270C265.984 270 263.887 271.396 261.791 273.239L264.284 275.732C266.845 272.818 267.984 270.622 267.463 270.099Z" fill="#C69FD5"/>
<path d="M260.431 274.497C260.241 274.679 260.049 274.861 259.866 275.044C257.121 277.789 255.132 280.64 255.139 281.825C255.141 282.332 255.572 282.497 255.949 282.365C257.458 282.112 260.336 279.809 262.483 277.662C262.677 277.468 262.844 277.284 263.027 277.094L260.431 274.497Z" fill="#C69FD5"/>
<rect y="343" width="286" height="60" rx="8" fill="white"/>
<path d="M41.9547 362.99V367.137H36.1837V383H30.7317V367.137H24.9317V362.99H41.9547ZM48.4298 362.903C50.0925 362.903 51.8132 362.922 53.5918 362.961C55.3898 362.98 57.0042 363.067 58.4348 363.222L58.1738 367.108H50.6918C49.8025 367.108 49.3578 367.524 49.3578 368.355V370.849H57.1298V374.532H49.3578V377.635C49.3578 378.466 49.8025 378.882 50.6918 378.882H58.1738L58.4348 382.768C57.0042 382.923 55.3898 383.01 53.5918 383.029C51.8132 383.068 50.0925 383.087 48.4298 383.087C47.0958 383.087 46.0132 382.691 45.1818 381.898C44.3505 381.105 43.9348 380.071 43.9348 378.795V367.195C43.9348 365.919 44.3505 364.885 45.1818 364.092C46.0132 363.299 47.0958 362.903 48.4298 362.903ZM69.2487 362.7C71.124 362.7 72.6513 362.884 73.8307 363.251C75.01 363.599 75.8703 364.218 76.4117 365.107C76.9723 365.977 77.2527 367.185 77.2527 368.732C77.2527 370.027 76.9627 371.12 76.3827 372.009C75.822 372.879 74.7877 373.401 73.2797 373.575V373.749C73.647 373.807 74.0337 373.933 74.4397 374.126C74.865 374.319 75.2517 374.629 75.5997 375.054C75.9477 375.479 76.2087 376.069 76.3827 376.823L78.0357 383H72.3227L70.9017 376.997C70.747 376.398 70.5247 375.992 70.2347 375.779C69.964 375.566 69.5483 375.46 68.9877 375.46C68.5043 375.46 68.05 375.46 67.6247 375.46C67.2187 375.441 66.832 375.431 66.4647 375.431V383H61.1287V362.99C61.9793 362.913 62.7817 362.855 63.5357 362.816C64.2897 362.758 65.1113 362.729 66.0007 362.729C66.9093 362.71 67.992 362.7 69.2487 362.7ZM69.1327 366.644C68.166 366.644 67.2767 366.644 66.4647 366.644V371.516H69.1327C70.1573 371.516 70.8533 371.352 71.2207 371.023C71.588 370.694 71.7717 370.047 71.7717 369.08C71.7717 368.094 71.588 367.446 71.2207 367.137C70.8533 366.808 70.1573 366.644 69.1327 366.644ZM88.5942 362.7C90.2375 362.7 91.6295 362.864 92.7702 363.193C93.9302 363.522 94.8582 364.073 95.5542 364.846C96.2695 365.619 96.7818 366.673 97.0912 368.007C97.4198 369.322 97.5842 370.984 97.5842 372.995C97.5842 375.006 97.4198 376.678 97.0912 378.012C96.7818 379.327 96.2695 380.371 95.5542 381.144C94.8582 381.917 93.9302 382.468 92.7702 382.797C91.6295 383.126 90.2375 383.29 88.5942 383.29C86.9895 383.29 85.5202 383.261 84.1862 383.203C82.8522 383.145 81.5762 383.077 80.3582 383V362.99C81.5762 362.913 82.8425 362.845 84.1572 362.787C85.4718 362.729 86.9508 362.7 88.5942 362.7ZM88.5942 366.731C88.0722 366.731 87.5792 366.731 87.1152 366.731C86.6512 366.731 86.2162 366.731 85.8102 366.731V379.23C86.6415 379.249 87.5695 379.259 88.5942 379.259C89.4255 379.259 90.0732 379.085 90.5372 378.737C91.0205 378.37 91.3588 377.741 91.5522 376.852C91.7455 375.943 91.8422 374.658 91.8422 372.995C91.8422 371.332 91.7455 370.056 91.5522 369.167C91.3588 368.258 91.0205 367.63 90.5372 367.282C90.0732 366.915 89.4255 366.731 88.5942 366.731ZM110.736 362.99C111.181 362.99 111.568 363.116 111.896 363.367C112.244 363.618 112.476 363.966 112.592 364.411L118.073 383H112.505L111.316 378.244H105.168L103.95 383H98.3823L103.863 364.411C103.979 363.966 104.202 363.618 104.53 363.367C104.878 363.116 105.275 362.99 105.719 362.99H110.736ZM107.459 369.196L106.154 374.329H110.301L108.996 369.196C108.919 368.867 108.842 368.519 108.764 368.152C108.706 367.765 108.658 367.408 108.619 367.079H107.836C107.778 367.408 107.72 367.765 107.662 368.152C107.604 368.519 107.537 368.867 107.459 369.196ZM140.982 362.99C142.238 362.99 142.886 363.628 142.925 364.904L143.679 383H138.72L138.082 367.108H137.618L135.066 378.331C134.872 379.452 134.176 380.013 132.978 380.013H129.933C128.753 380.013 128.048 379.452 127.816 378.331L125.264 367.108H124.8L124.249 383H119.29L120.015 364.904C120.073 363.628 120.72 362.99 121.958 362.99H126.83C127.99 362.99 128.676 363.56 128.889 364.701L130.861 373.604C130.957 374.087 131.035 374.571 131.093 375.054C131.151 375.537 131.218 376.03 131.296 376.533H131.615C131.692 376.03 131.76 375.537 131.818 375.054C131.876 374.571 131.953 374.078 132.05 373.575L133.964 364.701C134.157 363.56 134.853 362.99 136.052 362.99H140.982ZM154.86 362.7C156.871 362.7 158.447 362.893 159.587 363.28C160.728 363.667 161.54 364.353 162.023 365.339C162.507 366.306 162.748 367.659 162.748 369.399C162.748 371.139 162.516 372.492 162.052 373.459C161.608 374.406 160.863 375.073 159.819 375.46C158.775 375.847 157.374 376.04 155.614 376.04C155.034 376.04 154.454 376.021 153.874 375.982C153.314 375.943 152.763 375.895 152.221 375.837V383H146.769V362.99C147.62 362.913 148.413 362.855 149.147 362.816C149.901 362.758 150.723 362.729 151.612 362.729C152.521 362.71 153.604 362.7 154.86 362.7ZM154.744 366.644C154.3 366.644 153.865 366.644 153.439 366.644C153.014 366.644 152.608 366.644 152.221 366.644V372.125H154.744C155.75 372.106 156.426 371.922 156.774 371.574C157.122 371.207 157.296 370.482 157.296 369.399C157.296 368.297 157.122 367.562 156.774 367.195C156.426 366.828 155.75 366.644 154.744 366.644ZM174.684 362.99C175.128 362.99 175.515 363.116 175.844 363.367C176.192 363.618 176.424 363.966 176.54 364.411L182.021 383H176.453L175.264 378.244H169.116L167.898 383H162.33L167.811 364.411C167.927 363.966 168.149 363.618 168.478 363.367C168.826 363.116 169.222 362.99 169.667 362.99H174.684ZM171.407 369.196L170.102 374.329H174.249L172.944 369.196C172.866 368.867 172.789 368.519 172.712 368.152C172.654 367.765 172.605 367.408 172.567 367.079H171.784C171.726 367.408 171.668 367.765 171.61 368.152C171.552 368.519 171.484 368.867 171.407 369.196ZM191.734 362.7C193.609 362.7 195.137 362.884 196.316 363.251C197.495 363.599 198.356 364.218 198.897 365.107C199.458 365.977 199.738 367.185 199.738 368.732C199.738 370.027 199.448 371.12 198.868 372.009C198.307 372.879 197.273 373.401 195.765 373.575V373.749C196.132 373.807 196.519 373.933 196.925 374.126C197.35 374.319 197.737 374.629 198.085 375.054C198.433 375.479 198.694 376.069 198.868 376.823L200.521 383H194.808L193.387 376.997C193.232 376.398 193.01 375.992 192.72 375.779C192.449 375.566 192.034 375.46 191.473 375.46C190.99 375.46 190.535 375.46 190.11 375.46C189.704 375.441 189.317 375.431 188.95 375.431V383H183.614V362.99C184.465 362.913 185.267 362.855 186.021 362.816C186.775 362.758 187.597 362.729 188.486 362.729C189.395 362.71 190.477 362.7 191.734 362.7ZM191.618 366.644C190.651 366.644 189.762 366.644 188.95 366.644V371.516H191.618C192.643 371.516 193.339 371.352 193.706 371.023C194.073 370.694 194.257 370.047 194.257 369.08C194.257 368.094 194.073 367.446 193.706 367.137C193.339 366.808 192.643 366.644 191.618 366.644Z" fill="black"/>
<path d="M258.721 364.833C258.45 364.833 258.178 364.843 257.905 364.862L259.001 364.261C259.188 364.159 259.304 363.963 259.304 363.75V363.299L259.985 363.516C260.134 363.563 260.299 363.548 260.44 363.474L264.527 361.263C264.779 361.127 264.895 360.829 264.801 360.559C264.71 360.298 264.062 359 260.166 359C257.58 359 253.873 361.525 252 364.42C250.127 361.525 246.419 359 243.833 359C239.938 359 239.29 360.298 239.199 360.559C239.105 360.829 239.221 361.127 239.473 361.263L243.56 363.473C243.699 363.548 243.864 363.563 244.014 363.516L244.696 363.299V363.75C244.696 363.963 244.812 364.159 244.999 364.261L246.095 364.862C245.822 364.843 245.55 364.833 245.279 364.833C241.061 364.833 238 367.041 238 370.083C238 370.255 238.075 370.418 238.206 370.528C238.337 370.639 238.51 370.687 238.679 370.659L242.679 369.992C242.86 369.962 243.016 369.849 243.101 369.687L243.453 369.011L243.666 369.42C243.783 369.643 244.029 369.765 244.279 369.725L248.806 368.971C247.598 372.491 247.786 377.553 248.097 380.86C242.733 381.614 239.167 383.811 239.167 386.416C239.167 386.739 239.428 387 239.75 387H264.25C264.572 387 264.833 386.739 264.833 386.416C264.833 383.481 260.289 381.091 253.979 380.661C252.779 377.586 251.499 372.77 252.926 368.593L259.721 369.725C259.968 369.764 260.217 369.643 260.334 369.42L260.547 369.011L260.899 369.687C260.984 369.849 261.14 369.962 261.321 369.992L265.321 370.659C265.353 370.664 265.385 370.667 265.416 370.667C265.554 370.667 265.688 370.618 265.794 370.528C265.925 370.418 266 370.255 266 370.083C266 367.041 262.938 364.833 258.721 364.833Z" fill="#B4876F"/>
</svg>
