<svg width="38" height="38" viewBox="0 0 38 38" fill="none" xmlns="http://www.w3.org/2000/svg">
<path d="M33.5455 0.818184C34.5496 -0.18597 36.1777 -0.185971 37.1818 0.818184V0.818184C38.186 1.82234 38.186 3.45039 37.1818 4.45455L4.45455 37.1818C3.45039 38.186 1.82234 38.186 0.818181 37.1818V37.1818C-0.185972 36.1777 -0.185972 34.5496 0.818182 33.5455L33.5455 0.818184Z" fill="white"/>
<path d="M37.1818 33.5455C38.186 34.5496 38.186 36.1777 37.1818 37.1818V37.1818C36.1777 38.186 34.5496 38.186 33.5455 37.1818L0.818184 4.45455C-0.18597 3.45039 -0.185971 1.82234 0.818183 0.818182V0.818182C1.82234 -0.185972 3.45039 -0.185972 4.45455 0.818182L37.1818 33.5455Z" fill="white"/>
</svg>
