<svg width="702" height="732" viewBox="0 0 702 732" fill="none" xmlns="http://www.w3.org/2000/svg">
<g clip-path="url(#clip0)">
<path fill-rule="evenodd" clip-rule="evenodd" d="M-36.6759 205.244C-29.4719 222.616 -22.4911 240.506 -16.3138 258.232L-66.138 271.067L-61.4384 330.251C-37.2501 311.708 -20.727 292.372 -10.5137 275.602C3.17607 318.588 10.9004 359.245 4.12638 387.531C-5.54021 427.897 22.6516 429.467 69.4192 432.073C129.76 435.434 221.022 440.519 301.793 532.87C346.383 583.853 421.193 570.279 502.633 549.766C495.382 541.211 489.036 531.848 483.8 521.611C433.031 422.338 348.775 407.005 312.994 411.747C266.233 425.795 171.351 429.051 154.731 334.605C117.699 341.157 106.295 306.149 94.5202 270.001C83.4934 236.151 72.1409 201.3 39.1124 198.642L-74.8322 161.579L-69.4554 229.29C-60.7683 220.719 -49.9666 212.584 -36.6759 205.244ZM546.222 689.342L446.909 714.926C436.562 700.517 417.86 682.852 390.96 669.103C432.904 652.21 506.847 673.195 546.222 689.342ZM144.877 671.249C52.3357 677.441 1.99757 630.481 -13.0852 601.076L-46.1445 522.85L-54.1957 421.46C-25.4496 468.131 16.0969 513.94 70.1845 530.556C121.814 546.417 145.222 607.814 144.877 671.249Z" fill="white" fill-opacity="0.035"/>
<path fill-rule="evenodd" clip-rule="evenodd" d="M447.583 715.785C421.404 679.331 341.744 622.03 211.152 660.043C76.2814 699.301 5.91369 637.662 -12.4114 601.935L-69.5461 616.653L-90.5007 535.309L-45.4707 523.709L-0.499765 -13.5001L240 -13.5C214.229 40.1241 142.165 222.272 154.064 326.189C165.963 430.106 265.425 427.099 313.668 412.606C349.449 407.864 433.705 423.197 484.474 522.47C535.244 621.744 690.495 638.753 761.775 634.848L447.583 715.785ZM447.583 715.785C448.441 716.979 449.241 718.151 449.984 719.297L-14.841 839.037L-71.9671 617.277L-69.5461 616.653L-13.4179 834.54L447.583 715.785Z" fill="white" fill-opacity="0.025"/>
</g>
<defs>
<clipPath id="clip0">
<rect width="702" height="732" fill="white"/>
</clipPath>
</defs>
</svg>
