<svg width="361" height="59" viewBox="0 0 361 59" fill="none" xmlns="http://www.w3.org/2000/svg">
<g clip-path="url(#clip0)">
<path d="M12.4126 14C12.4126 6.26801 18.6806 0 26.4126 0H334.587C342.319 0 348.587 6.26801 348.587 14V59H12.4126V14Z" fill="url(#paint0_linear)"/>
<path d="M348.439 59V47.9855C348.384 47.2649 348.39 46.592 348.439 46V47.9855C348.783 52.5396 351.523 59 360.813 59H348.439Z" fill="black"/>
<path d="M12.3738 59V47.9855C12.4282 47.2649 12.4228 46.592 12.3738 46V47.9855C12.0294 52.5396 9.28983 59 0 59H12.3738Z" fill="black"/>
</g>
<defs>
<linearGradient id="paint0_linear" x1="180.5" y1="0" x2="180.5" y2="59" gradientUnits="userSpaceOnUse">
<stop stop-opacity="0.6"/>
<stop offset="1"/>
</linearGradient>
<clipPath id="clip0">
<rect width="361" height="59" fill="white"/>
</clipPath>
</defs>
</svg>
