<svg width="1366" height="668" viewBox="0 0 1366 668" fill="none" xmlns="http://www.w3.org/2000/svg">
<g clip-path="url(#clip0)">
<rect width="1366" height="668" fill="#050216"/>
<path d="M220.001 113C220.001 117.969 215.97 121.999 211 121.999C215.97 121.999 220.001 126.03 220.001 131C220.001 126.03 224.03 121.999 229 121.999C224.03 121.999 220.001 117.969 220.001 113Z" fill="white"/>
<path d="M13.5 18C13.5 22.6943 9.69414 26.5009 5 26.5009C9.69414 26.5009 13.5 30.3057 13.5 35C13.5 30.3057 17.3051 26.5009 22 26.5009C17.3051 26.5009 13.5 22.6943 13.5 18Z" fill="white"/>
<path d="M756.001 46C756.001 49.5896 752.866 52.5009 749 52.5009C752.866 52.5009 756.001 55.4104 756.001 59C756.001 55.4104 759.134 52.5009 763 52.5009C759.134 52.5009 756.001 49.5896 756.001 46Z" fill="white"/>
<path d="M146.501 90C146.501 93.5896 143.59 96.5009 140 96.5009C143.59 96.5009 146.501 99.4104 146.501 103C146.501 99.4104 149.41 96.5009 153 96.5009C149.41 96.5009 146.501 93.5896 146.501 90Z" fill="white"/>
<path d="M361.5 4C361.5 8.97069 357.246 13.0009 352 13.0009C357.246 13.0009 361.5 17.0293 361.5 22C361.5 17.0293 365.754 13.0009 371 13.0009C365.754 13.0009 361.5 8.97069 361.5 4Z" fill="white"/>
<path d="M450.001 96C450.001 98.209 448.211 100.001 446 100.001C448.211 100.001 450.001 101.791 450.001 104C450.001 101.791 451.791 100.001 454 100.001C451.791 100.001 450.001 98.209 450.001 96Z" fill="white"/>
<path d="M620.5 -4C620.5 -1.51603 618.484 0.499955 616 0.499955C618.484 0.499955 620.5 2.5142 620.5 5C620.5 2.5142 622.514 0.499955 625 0.499955C622.514 0.499955 620.5 -1.51603 620.5 -4Z" fill="white"/>
<path d="M377.499 41C377.499 44.591 374.59 47.5 371 47.5C374.59 47.5 377.499 50.4109 377.499 54C377.499 50.4109 380.41 47.5 384 47.5C380.41 47.5 377.499 44.591 377.499 41Z" fill="white"/>
<path d="M167.001 28C167.001 30.4846 165.209 32.5 163 32.5C165.209 32.5 167.001 34.5134 167.001 37C167.001 34.5134 168.791 32.5 171 32.5C168.791 32.5 167.001 30.4846 167.001 28Z" fill="white"/>
<path d="M304.999 182C304.999 184.209 303.209 185.999 301 185.999C303.209 185.999 304.999 187.791 304.999 190C304.999 187.791 306.791 185.999 309 185.999C306.791 185.999 304.999 184.209 304.999 182Z" fill="white"/>
<path d="M38.5 115C38.5 117.485 36.4855 119.499 34 119.499C36.4855 119.499 38.5 121.515 38.5 124C38.5 121.515 40.5153 119.499 43 119.499C40.5153 119.499 38.5 117.485 38.5 115Z" fill="white"/>
<path d="M548.501 20C548.501 22.209 546.485 24.0009 544 24.0009C546.485 24.0009 548.501 25.791 548.501 28C548.501 25.791 550.515 24.0009 553 24.0009C550.515 24.0009 548.501 22.209 548.501 20Z" fill="white"/>
<path d="M54.5001 83C54.5001 85.209 52.4855 86.9991 50 86.9991C52.4855 86.9991 54.5001 88.791 54.5001 91C54.5001 88.791 56.5153 86.9991 59 86.9991C56.5153 86.9991 54.5001 85.209 54.5001 83Z" fill="white"/>
<path d="M1153 107C1153 111.969 1157.03 115.999 1162 115.999C1157.03 115.999 1153 120.03 1153 125C1153 120.03 1148.97 115.999 1144 115.999C1148.97 115.999 1153 111.969 1153 107Z" fill="white"/>
<path d="M1359.5 12C1359.5 16.6943 1363.31 20.5009 1368 20.5009C1363.31 20.5009 1359.5 24.3057 1359.5 29C1359.5 24.3057 1355.69 20.5009 1351 20.5009C1355.69 20.5009 1359.5 16.6943 1359.5 12Z" fill="white"/>
<path d="M616.999 40C616.999 43.5896 620.134 46.5009 624 46.5009C620.134 46.5009 616.999 49.4104 616.999 53C616.999 49.4104 613.866 46.5009 610 46.5009C613.866 46.5009 616.999 43.5896 616.999 40Z" fill="white"/>
<path d="M1226.5 84C1226.5 87.5896 1229.41 90.5009 1233 90.5009C1229.41 90.5009 1226.5 93.4104 1226.5 97C1226.5 93.4104 1223.59 90.5009 1220 90.5009C1223.59 90.5009 1226.5 87.5896 1226.5 84Z" fill="white"/>
<path d="M675.5 67C675.5 74.4561 681.544 80.5 689 80.5C681.544 80.5 675.5 86.5439 675.5 94C675.5 86.5439 669.456 80.5 662 80.5C669.456 80.5 675.5 74.4561 675.5 67Z" fill="white"/>
<path d="M1011.5 -2C1011.5 2.97069 1015.75 7.00092 1021 7.00092C1015.75 7.00092 1011.5 11.0293 1011.5 16C1011.5 11.0293 1007.25 7.00092 1002 7.00092C1007.25 7.00092 1011.5 2.97069 1011.5 -2Z" fill="white"/>
<path d="M1148.5 252C1148.5 254.485 1150.51 256.499 1153 256.499C1150.51 256.499 1148.5 258.515 1148.5 261C1148.5 258.515 1146.49 256.499 1144 256.499C1146.49 256.499 1148.5 254.485 1148.5 252Z" fill="white"/>
<path d="M922.999 90C922.999 92.209 924.789 94.0009 927 94.0009C924.789 94.0009 922.999 95.791 922.999 98C922.999 95.791 921.209 94.0009 919 94.0009C921.209 94.0009 922.999 92.209 922.999 90Z" fill="white"/>
<path d="M995.501 35C995.501 38.591 998.41 41.5 1002 41.5C998.41 41.5 995.501 44.4109 995.501 48C995.501 44.4109 992.59 41.5 989 41.5C992.59 41.5 995.501 38.591 995.501 35Z" fill="white"/>
<path d="M1213 373C1213 375.761 1215.24 378 1218 378C1215.24 378 1213 380.237 1213 383C1213 380.237 1210.76 378 1208 378C1210.76 378 1213 375.761 1213 373Z" fill="white"/>
<path d="M1206 22C1206 24.4846 1207.79 26.5 1210 26.5C1207.79 26.5 1206 28.5134 1206 31C1206 28.5134 1204.21 26.5 1202 26.5C1204.21 26.5 1206 24.4846 1206 22Z" fill="white"/>
<path d="M1068 176C1068 178.209 1069.79 179.999 1072 179.999C1069.79 179.999 1068 181.791 1068 184C1068 181.791 1066.21 179.999 1064 179.999C1066.21 179.999 1068 178.209 1068 176Z" fill="white"/>
<path d="M1334.5 109C1334.5 111.485 1336.51 113.499 1339 113.499C1336.51 113.499 1334.5 115.515 1334.5 118C1334.5 115.515 1332.48 113.499 1330 113.499C1332.48 113.499 1334.5 111.485 1334.5 109Z" fill="white"/>
<path d="M824.499 14C824.499 16.209 826.515 18.0009 829 18.0009C826.515 18.0009 824.499 19.791 824.499 22C824.499 19.791 822.485 18.0009 820 18.0009C822.485 18.0009 824.499 16.209 824.499 14Z" fill="white"/>
<path d="M1318.5 77C1318.5 79.209 1320.51 80.9991 1323 80.9991C1320.51 80.9991 1318.5 82.791 1318.5 85C1318.5 82.791 1316.48 80.9991 1314 80.9991C1316.48 80.9991 1318.5 79.209 1318.5 77Z" fill="white"/>
<path d="M1153 545C1153 540.031 1157.03 536.001 1162 536.001C1157.03 536.001 1153 531.97 1153 527C1153 531.97 1148.97 536.001 1144 536.001C1148.97 536.001 1153 540.031 1153 545Z" fill="white"/>
<path d="M1359.5 640C1359.5 635.306 1363.31 631.499 1368 631.499C1363.31 631.499 1359.5 627.694 1359.5 623C1359.5 627.694 1355.69 631.499 1351 631.499C1355.69 631.499 1359.5 635.306 1359.5 640Z" fill="white"/>
<path d="M616.999 612C616.999 608.41 620.134 605.499 624 605.499C620.134 605.499 616.999 602.59 616.999 599C616.999 602.59 613.866 605.499 610 605.499C613.866 605.499 616.999 608.41 616.999 612Z" fill="white"/>
<path d="M1226.5 568C1226.5 564.41 1229.41 561.499 1233 561.499C1229.41 561.499 1226.5 558.59 1226.5 555C1226.5 558.59 1223.59 561.499 1220 561.499C1223.59 561.499 1226.5 564.41 1226.5 568Z" fill="white"/>
<path d="M1011.5 654C1011.5 649.029 1015.75 644.999 1021 644.999C1015.75 644.999 1011.5 640.971 1011.5 636C1011.5 640.971 1007.25 644.999 1002 644.999C1007.25 644.999 1011.5 649.029 1011.5 654Z" fill="white"/>
<path d="M922.999 562C922.999 559.791 924.789 557.999 927 557.999C924.789 557.999 922.999 556.209 922.999 554C922.999 556.209 921.209 557.999 919 557.999C921.209 557.999 922.999 559.791 922.999 562Z" fill="white"/>
<path d="M752.5 662C752.5 659.516 754.516 657.5 757 657.5C754.516 657.5 752.5 655.486 752.5 653C752.5 655.486 750.486 657.5 748 657.5C750.486 657.5 752.5 659.516 752.5 662Z" fill="white"/>
<path d="M995.501 617C995.501 613.409 998.41 610.5 1002 610.5C998.41 610.5 995.501 607.589 995.501 604C995.501 607.589 992.59 610.5 989 610.5C992.59 610.5 995.501 613.409 995.501 617Z" fill="white"/>
<path d="M1206 630C1206 627.515 1207.79 625.5 1210 625.5C1207.79 625.5 1206 623.487 1206 621C1206 623.487 1204.21 625.5 1202 625.5C1204.21 625.5 1206 627.515 1206 630Z" fill="white"/>
<path d="M1068 476C1068 473.791 1069.79 472.001 1072 472.001C1069.79 472.001 1068 470.209 1068 468C1068 470.209 1066.21 472.001 1064 472.001C1066.21 472.001 1068 473.791 1068 476Z" fill="white"/>
<path d="M1334.5 543C1334.5 540.515 1336.51 538.501 1339 538.501C1336.51 538.501 1334.5 536.485 1334.5 534C1334.5 536.485 1332.48 538.501 1330 538.501C1332.48 538.501 1334.5 540.515 1334.5 543Z" fill="white"/>
<path d="M824.499 638C824.499 635.791 826.515 633.999 829 633.999C826.515 633.999 824.499 632.209 824.499 630C824.499 632.209 822.485 633.999 820 633.999C822.485 633.999 824.499 635.791 824.499 638Z" fill="white"/>
<path d="M1318.5 575C1318.5 572.791 1320.51 571.001 1323 571.001C1320.51 571.001 1318.5 569.209 1318.5 567C1318.5 569.209 1316.48 571.001 1314 571.001C1316.48 571.001 1318.5 572.791 1318.5 575Z" fill="white"/>
<path d="M220.001 551C220.001 546.031 215.97 542.001 211 542.001C215.97 542.001 220.001 537.97 220.001 533C220.001 537.97 224.03 542.001 229 542.001C224.03 542.001 220.001 546.031 220.001 551Z" fill="white"/>
<path d="M13.5 646C13.5 641.306 9.69414 637.499 5 637.499C9.69414 637.499 13.5 633.694 13.5 629C13.5 633.694 17.3051 637.499 22 637.499C17.3051 637.499 13.5 641.306 13.5 646Z" fill="white"/>
<path d="M756.001 618C756.001 614.41 752.866 611.499 749 611.499C752.866 611.499 756.001 608.59 756.001 605C756.001 608.59 759.134 611.499 763 611.499C759.134 611.499 756.001 614.41 756.001 618Z" fill="white"/>
<path d="M146.501 574C146.501 570.41 143.59 567.499 140 567.499C143.59 567.499 146.501 564.59 146.501 561C146.501 564.59 149.41 567.499 153 567.499C149.41 567.499 146.501 570.41 146.501 574Z" fill="white"/>
<path d="M361.5 660C361.5 655.029 357.246 650.999 352 650.999C357.246 650.999 361.5 646.971 361.5 642C361.5 646.971 365.754 650.999 371 650.999C365.754 650.999 361.5 655.029 361.5 660Z" fill="white"/>
<path d="M450.001 568C450.001 565.791 448.211 563.999 446 563.999C448.211 563.999 450.001 562.209 450.001 560C450.001 562.209 451.791 563.999 454 563.999C451.791 563.999 450.001 565.791 450.001 568Z" fill="white"/>
<path d="M620.5 668C620.5 665.516 618.484 663.5 616 663.5C618.484 663.5 620.5 661.486 620.5 659C620.5 661.486 622.514 663.5 625 663.5C622.514 663.5 620.5 665.516 620.5 668Z" fill="white"/>
<path d="M377.499 623C377.499 619.409 374.59 616.5 371 616.5C374.59 616.5 377.499 613.589 377.499 610C377.499 613.589 380.41 616.5 384 616.5C380.41 616.5 377.499 619.409 377.499 623Z" fill="white"/>
<path d="M160.001 285C160.001 282.239 157.762 280 155 280C157.762 280 160.001 277.763 160.001 275C160.001 277.763 162.238 280 165 280C162.238 280 160.001 282.239 160.001 285Z" fill="white"/>
<path d="M167.001 636C167.001 633.515 165.209 631.5 163 631.5C165.209 631.5 167.001 629.487 167.001 627C167.001 629.487 168.791 631.5 171 631.5C168.791 631.5 167.001 633.515 167.001 636Z" fill="white"/>
<path d="M304.999 482C304.999 479.791 303.209 478.001 301 478.001C303.209 478.001 304.999 476.209 304.999 474C304.999 476.209 306.791 478.001 309 478.001C306.791 478.001 304.999 479.791 304.999 482Z" fill="white"/>
<path d="M38.5 549C38.5 546.515 36.4855 544.501 34 544.501C36.4855 544.501 38.5 542.485 38.5 540C38.5 542.485 40.5153 544.501 43 544.501C40.5153 544.501 38.5 546.515 38.5 549Z" fill="white"/>
<path d="M548.501 644C548.501 641.791 546.485 639.999 544 639.999C546.485 639.999 548.501 638.209 548.501 636C548.501 638.209 550.515 639.999 553 639.999C550.515 639.999 548.501 641.791 548.501 644Z" fill="white"/>
<path d="M54.5001 581C54.5001 578.791 52.4855 577.001 50 577.001C52.4855 577.001 54.5001 575.209 54.5001 573C54.5001 575.209 56.5153 577.001 59 577.001C56.5153 577.001 54.5001 578.791 54.5001 581Z" fill="white"/>
</g>
<defs>
<clipPath id="clip0">
<rect width="1366" height="668" fill="white"/>
</clipPath>
</defs>
</svg>
