<svg width="485" height="309" viewBox="0 0 485 309" fill="none" xmlns="http://www.w3.org/2000/svg">
<rect width="162" height="60" rx="8" fill="white"/>
<path d="M35.0311 19.99C35.8045 19.99 36.3941 20.251 36.8001 20.773C37.2255 21.295 37.3125 21.9233 37.0611 22.658L31.0001 40H25.6931L30.5361 26.457C30.6521 26.109 30.7778 25.761 30.9131 25.413C31.0678 25.065 31.2708 24.717 31.5221 24.369H22.7641L22.5321 19.99H35.0311ZM46.9952 30.981V34.171H38.4402V30.981H46.9952ZM58.2271 19.99V40H52.8041V26.718C52.8041 26.312 52.8137 25.9157 52.8331 25.529C52.8524 25.123 52.9104 24.7267 53.0071 24.34L48.3381 25.355L47.7001 21.962L52.8041 19.99H58.2271ZM71.3111 19.99V40H65.8881V26.718C65.8881 26.312 65.8977 25.9157 65.9171 25.529C65.9364 25.123 65.9944 24.7267 66.0911 24.34L61.4221 25.355L60.7841 21.962L65.8881 19.99H71.3111ZM99.2979 19.99V38.086C99.2979 39.362 98.6695 40 97.4129 40H94.9769C94.3969 40 93.9619 39.8647 93.6719 39.594C93.4012 39.3233 93.1209 38.927 92.8309 38.405L87.9299 29.879C87.6785 29.415 87.4369 28.9027 87.2049 28.342C86.9922 27.762 86.8085 27.1917 86.6539 26.631H86.3929C86.4702 27.1917 86.5282 27.7717 86.5669 28.371C86.6249 28.951 86.6539 29.5117 86.6539 30.053V40H81.5789V21.904C81.5789 20.628 82.2169 19.99 83.4929 19.99H85.8999C86.4605 19.99 86.8762 20.1253 87.1469 20.396C87.4369 20.6667 87.7365 21.063 88.0459 21.585L92.7439 29.792C93.0145 30.256 93.2755 30.778 93.5269 31.358C93.7782 31.9187 94.0199 32.4987 94.2519 33.098H94.5129C94.4549 32.4987 94.4065 31.9187 94.3679 31.358C94.3292 30.778 94.3099 30.1883 94.3099 29.589L94.2809 19.99H99.2979ZM111.143 19.584C112.806 19.584 114.208 19.7483 115.348 20.077C116.489 20.4057 117.407 20.9663 118.103 21.759C118.819 22.5323 119.331 23.5957 119.64 24.949C119.969 26.283 120.133 27.965 120.133 29.995C120.133 32.025 119.969 33.7167 119.64 35.07C119.331 36.404 118.819 37.4673 118.103 38.26C117.407 39.0333 116.489 39.5843 115.348 39.913C114.208 40.2417 112.806 40.406 111.143 40.406C109.481 40.406 108.079 40.2417 106.938 39.913C105.798 39.5843 104.87 39.0333 104.154 38.26C103.458 37.4673 102.946 36.404 102.617 35.07C102.308 33.7167 102.153 32.025 102.153 29.995C102.153 27.965 102.308 26.283 102.617 24.949C102.946 23.5957 103.458 22.5323 104.154 21.759C104.87 20.9663 105.798 20.4057 106.938 20.077C108.079 19.7483 109.481 19.584 111.143 19.584ZM111.143 23.731C110.293 23.731 109.626 23.905 109.142 24.253C108.678 24.601 108.35 25.2293 108.156 26.138C107.963 27.0467 107.866 28.3323 107.866 29.995C107.866 31.6577 107.963 32.9433 108.156 33.852C108.35 34.7607 108.678 35.389 109.142 35.737C109.626 36.085 110.293 36.259 111.143 36.259C111.994 36.259 112.651 36.085 113.115 35.737C113.599 35.389 113.927 34.7607 114.101 33.852C114.295 32.9433 114.391 31.6577 114.391 29.995C114.391 28.3323 114.295 27.0467 114.101 26.138C113.927 25.2293 113.599 24.601 113.115 24.253C112.651 23.905 111.994 23.731 111.143 23.731ZM139.983 19.99L134.85 38.521C134.734 38.9657 134.502 39.3233 134.154 39.594C133.825 39.8647 133.429 40 132.965 40H128.122C127.638 40 127.223 39.8647 126.875 39.594C126.546 39.3233 126.333 38.9657 126.237 38.521L121.075 19.99H126.672L129.746 33.649C129.823 34.0163 129.891 34.403 129.949 34.809C130.026 35.1957 130.103 35.563 130.181 35.911H130.877C130.935 35.563 131.002 35.1957 131.08 34.809C131.157 34.403 131.234 34.0163 131.312 33.649L134.386 19.99H139.983Z" fill="black"/>
<rect y="83" width="162" height="60" rx="8" fill="white"/>
<path d="M43.6846 102.99V123H38.2616V109.718C38.2616 109.312 38.2713 108.916 38.2906 108.529C38.3099 108.123 38.3679 107.727 38.4646 107.34L33.7956 108.355L33.1576 104.962L38.2616 102.99H43.6846ZM54.1296 102.584C55.7729 102.584 57.0876 102.729 58.0736 103.019C59.0789 103.29 59.8039 103.773 60.2486 104.469C60.6932 105.146 60.9156 106.074 60.9156 107.253C60.9156 108.684 60.7029 109.834 60.2776 110.704C59.8522 111.574 58.9919 112.106 57.6966 112.299V112.415C59.1079 112.628 60.0746 113.14 60.5966 113.952C61.1379 114.745 61.4182 115.905 61.4376 117.432C61.4569 119.559 60.9252 121.086 59.8426 122.014C58.7599 122.942 56.8942 123.406 54.2456 123.406C53.0276 123.406 51.7999 123.348 50.5626 123.232C49.3252 123.135 48.1362 123.01 46.9956 122.855L47.1696 118.969C48.0202 119.027 48.7549 119.066 49.3736 119.085C49.9922 119.104 50.5626 119.124 51.0846 119.143C51.6066 119.143 52.1576 119.143 52.7376 119.143C53.5882 119.143 54.2552 119.085 54.7386 118.969C55.2219 118.853 55.5602 118.621 55.7536 118.273C55.9662 117.925 56.0726 117.403 56.0726 116.707C56.0726 115.856 55.8986 115.247 55.5506 114.88C55.2219 114.493 54.5162 114.31 53.4336 114.329L49.6056 114.358V110.936H53.4336C54.1682 110.936 54.6999 110.849 55.0286 110.675C55.3766 110.482 55.5989 110.221 55.6956 109.892C55.7922 109.563 55.8406 109.177 55.8406 108.732C55.8212 107.92 55.6279 107.398 55.2606 107.166C54.8932 106.934 54.1972 106.818 53.1726 106.818C52.1479 106.818 51.1426 106.828 50.1566 106.847C49.1899 106.847 48.3392 106.847 47.6046 106.847L47.4306 103.135C48.5519 102.942 49.6732 102.806 50.7946 102.729C51.9159 102.632 53.0276 102.584 54.1296 102.584ZM88.2954 102.99V121.086C88.2954 122.362 87.6671 123 86.4104 123H83.9744C83.3944 123 82.9594 122.865 82.6694 122.594C82.3988 122.323 82.1184 121.927 81.8284 121.405L76.9274 112.879C76.6761 112.415 76.4344 111.903 76.2024 111.342C75.9898 110.762 75.8061 110.192 75.6514 109.631H75.3904C75.4678 110.192 75.5258 110.772 75.5644 111.371C75.6224 111.951 75.6514 112.512 75.6514 113.053V123H70.5764V104.904C70.5764 103.628 71.2144 102.99 72.4904 102.99H74.8974C75.4581 102.99 75.8738 103.125 76.1444 103.396C76.4344 103.667 76.7341 104.063 77.0434 104.585L81.7414 112.792C82.0121 113.256 82.2731 113.778 82.5244 114.358C82.7758 114.919 83.0174 115.499 83.2494 116.098H83.5104C83.4524 115.499 83.4041 114.919 83.3654 114.358C83.3268 113.778 83.3074 113.188 83.3074 112.589L83.2784 102.99H88.2954ZM100.141 102.584C101.804 102.584 103.205 102.748 104.346 103.077C105.487 103.406 106.405 103.966 107.101 104.759C107.816 105.532 108.329 106.596 108.638 107.949C108.967 109.283 109.131 110.965 109.131 112.995C109.131 115.025 108.967 116.717 108.638 118.07C108.329 119.404 107.816 120.467 107.101 121.26C106.405 122.033 105.487 122.584 104.346 122.913C103.205 123.242 101.804 123.406 100.141 123.406C98.4784 123.406 97.0767 123.242 95.936 122.913C94.7954 122.584 93.8674 122.033 93.152 121.26C92.456 120.467 91.9437 119.404 91.615 118.07C91.3057 116.717 91.151 115.025 91.151 112.995C91.151 110.965 91.3057 109.283 91.615 107.949C91.9437 106.596 92.456 105.532 93.152 104.759C93.8674 103.966 94.7954 103.406 95.936 103.077C97.0767 102.748 98.4784 102.584 100.141 102.584ZM100.141 106.731C99.2904 106.731 98.6234 106.905 98.14 107.253C97.676 107.601 97.3474 108.229 97.154 109.138C96.9607 110.047 96.864 111.332 96.864 112.995C96.864 114.658 96.9607 115.943 97.154 116.852C97.3474 117.761 97.676 118.389 98.14 118.737C98.6234 119.085 99.2904 119.259 100.141 119.259C100.992 119.259 101.649 119.085 102.113 118.737C102.596 118.389 102.925 117.761 103.099 116.852C103.292 115.943 103.389 114.658 103.389 112.995C103.389 111.332 103.292 110.047 103.099 109.138C102.925 108.229 102.596 107.601 102.113 107.253C101.649 106.905 100.992 106.731 100.141 106.731ZM128.98 102.99L123.847 121.521C123.731 121.966 123.499 122.323 123.151 122.594C122.822 122.865 122.426 123 121.962 123H117.119C116.636 123 116.22 122.865 115.872 122.594C115.543 122.323 115.331 121.966 115.234 121.521L110.072 102.99H115.669L118.743 116.649C118.82 117.016 118.888 117.403 118.946 117.809C119.023 118.196 119.101 118.563 119.178 118.911H119.874C119.932 118.563 120 118.196 120.077 117.809C120.154 117.403 120.232 117.016 120.309 116.649L123.383 102.99H128.98Z" fill="black"/>
<rect y="166" width="162" height="60" rx="8" fill="white"/>
<path d="M41.1387 185.642C42.5694 185.642 43.8164 185.777 44.8797 186.048C45.9624 186.299 46.7937 186.773 47.3737 187.469C47.9537 188.165 48.2437 189.17 48.2437 190.485C48.2437 191.2 48.1664 191.858 48.0117 192.457C47.857 193.056 47.5477 193.685 47.0837 194.342C46.639 194.999 45.972 195.782 45.0827 196.691L40.1237 201.621C40.5877 201.505 41.0517 201.428 41.5157 201.389C41.9797 201.35 42.4534 201.341 42.9367 201.36H48.7657V206H33.8017V203.216C33.8017 202.771 33.8597 202.375 33.9757 202.027C34.0917 201.679 34.285 201.341 34.5557 201.012L39.1087 196.372C40.23 195.212 41.1097 194.197 41.7477 193.327C42.3857 192.438 42.7047 191.703 42.7047 191.123C42.6854 190.698 42.5017 190.437 42.1537 190.34C41.8057 190.224 41.245 190.166 40.4717 190.166C39.7757 190.166 39.1184 190.176 38.4997 190.195C37.9004 190.195 37.2527 190.205 36.5567 190.224C35.88 190.243 35.0874 190.272 34.1787 190.311L33.9757 186.309C35.445 186.019 36.7307 185.835 37.8327 185.758C38.954 185.681 40.056 185.642 41.1387 185.642ZM60.5635 185.99V206H55.1405V192.718C55.1405 192.312 55.1502 191.916 55.1695 191.529C55.1888 191.123 55.2468 190.727 55.3435 190.34L50.6745 191.355L50.0365 187.962L55.1405 185.99H60.5635ZM88.5503 185.99V204.086C88.5503 205.362 87.922 206 86.6653 206H84.2293C83.6493 206 83.2143 205.865 82.9243 205.594C82.6536 205.323 82.3733 204.927 82.0833 204.405L77.1823 195.879C76.931 195.415 76.6893 194.903 76.4573 194.342C76.2446 193.762 76.061 193.192 75.9063 192.631H75.6453C75.7226 193.192 75.7806 193.772 75.8193 194.371C75.8773 194.951 75.9063 195.512 75.9063 196.053V206H70.8313V187.904C70.8313 186.628 71.4693 185.99 72.7453 185.99H75.1523C75.713 185.99 76.1286 186.125 76.3993 186.396C76.6893 186.667 76.989 187.063 77.2983 187.585L81.9963 195.792C82.267 196.256 82.528 196.778 82.7793 197.358C83.0306 197.919 83.2723 198.499 83.5043 199.098H83.7653C83.7073 198.499 83.659 197.919 83.6203 197.358C83.5816 196.778 83.5623 196.188 83.5623 195.589L83.5333 185.99H88.5503ZM100.396 185.584C102.059 185.584 103.46 185.748 104.601 186.077C105.742 186.406 106.66 186.966 107.356 187.759C108.071 188.532 108.584 189.596 108.893 190.949C109.222 192.283 109.386 193.965 109.386 195.995C109.386 198.025 109.222 199.717 108.893 201.07C108.584 202.404 108.071 203.467 107.356 204.26C106.66 205.033 105.742 205.584 104.601 205.913C103.46 206.242 102.059 206.406 100.396 206.406C98.7332 206.406 97.3316 206.242 96.1909 205.913C95.0502 205.584 94.1222 205.033 93.4069 204.26C92.7109 203.467 92.1986 202.404 91.8699 201.07C91.5606 199.717 91.4059 198.025 91.4059 195.995C91.4059 193.965 91.5606 192.283 91.8699 190.949C92.1986 189.596 92.7109 188.532 93.4069 187.759C94.1222 186.966 95.0502 186.406 96.1909 186.077C97.3316 185.748 98.7332 185.584 100.396 185.584ZM100.396 189.731C99.5452 189.731 98.8782 189.905 98.3949 190.253C97.9309 190.601 97.6022 191.229 97.4089 192.138C97.2156 193.047 97.1189 194.332 97.1189 195.995C97.1189 197.658 97.2156 198.943 97.4089 199.852C97.6022 200.761 97.9309 201.389 98.3949 201.737C98.8782 202.085 99.5452 202.259 100.396 202.259C101.247 202.259 101.904 202.085 102.368 201.737C102.851 201.389 103.18 200.761 103.354 199.852C103.547 198.943 103.644 197.658 103.644 195.995C103.644 194.332 103.547 193.047 103.354 192.138C103.18 191.229 102.851 190.601 102.368 190.253C101.904 189.905 101.247 189.731 100.396 189.731ZM129.235 185.99L124.102 204.521C123.986 204.966 123.754 205.323 123.406 205.594C123.077 205.865 122.681 206 122.217 206H117.374C116.891 206 116.475 205.865 116.127 205.594C115.798 205.323 115.586 204.966 115.489 204.521L110.327 185.99H115.924L118.998 199.649C119.075 200.016 119.143 200.403 119.201 200.809C119.278 201.196 119.356 201.563 119.433 201.911H120.129C120.187 201.563 120.255 201.196 120.332 200.809C120.409 200.403 120.487 200.016 120.564 199.649L123.638 185.99H129.235Z" fill="black"/>
<rect y="249" width="162" height="60" rx="8" fill="white"/>
<path d="M38.5191 268.642C39.9497 268.642 41.1967 268.777 42.2601 269.048C43.3427 269.299 44.1741 269.773 44.7541 270.469C45.3341 271.165 45.6241 272.17 45.6241 273.485C45.6241 274.2 45.5467 274.858 45.3921 275.457C45.2374 276.056 44.9281 276.685 44.4641 277.342C44.0194 277.999 43.3524 278.782 42.4631 279.691L37.5041 284.621C37.9681 284.505 38.4321 284.428 38.8961 284.389C39.3601 284.35 39.8337 284.341 40.3171 284.36H46.1461V289H31.1821V286.216C31.1821 285.771 31.2401 285.375 31.3561 285.027C31.4721 284.679 31.6654 284.341 31.9361 284.012L36.4891 279.372C37.6104 278.212 38.4901 277.197 39.1281 276.327C39.7661 275.438 40.0851 274.703 40.0851 274.123C40.0657 273.698 39.8821 273.437 39.5341 273.34C39.1861 273.224 38.6254 273.166 37.8521 273.166C37.1561 273.166 36.4987 273.176 35.8801 273.195C35.2807 273.195 34.6331 273.205 33.9371 273.224C33.2604 273.243 32.4677 273.272 31.5591 273.311L31.3561 269.309C32.8254 269.019 34.1111 268.835 35.2131 268.758C36.3344 268.681 37.4364 268.642 38.5191 268.642ZM56.3779 268.613C58.4272 268.613 59.9739 268.806 61.0179 269.193C62.0812 269.56 62.8062 270.14 63.1929 270.933C63.5795 271.706 63.7729 272.721 63.7729 273.978C63.7729 274.693 63.6665 275.389 63.4539 276.066C63.2605 276.743 62.9319 277.313 62.4679 277.777C62.0232 278.222 61.4335 278.483 60.6989 278.56V278.676C61.6655 278.753 62.4002 279.053 62.9029 279.575C63.4249 280.078 63.7825 280.725 63.9759 281.518C64.1692 282.291 64.2659 283.123 64.2659 284.012C64.2659 285.327 64.0532 286.38 63.6279 287.173C63.2025 287.946 62.4195 288.507 61.2789 288.855C60.1382 289.203 58.5045 289.377 56.3779 289.377C54.2899 289.377 52.6755 289.203 51.5349 288.855C50.3942 288.507 49.6015 287.946 49.1569 287.173C48.7122 286.38 48.4899 285.327 48.4899 284.012C48.4899 283.123 48.5865 282.291 48.7799 281.518C48.9732 280.725 49.3309 280.078 49.8529 279.575C50.3749 279.053 51.1192 278.753 52.0859 278.676V278.56C51.3512 278.483 50.7519 278.222 50.2879 277.777C49.8432 277.313 49.5145 276.743 49.3019 276.066C49.1085 275.389 49.0119 274.693 49.0119 273.978C49.0119 272.721 49.2052 271.706 49.5919 270.933C49.9785 270.14 50.7035 269.56 51.7669 269.193C52.8302 268.806 54.3672 268.613 56.3779 268.613ZM56.4069 272.209C55.7302 272.209 55.2082 272.277 54.8409 272.412C54.4735 272.547 54.2222 272.789 54.0869 273.137C53.9515 273.485 53.8839 273.997 53.8839 274.674C53.8839 275.602 54.0579 276.211 54.4059 276.501C54.7539 276.772 55.4402 276.907 56.4649 276.907C57.1415 276.907 57.6539 276.849 58.0019 276.733C58.3499 276.617 58.5819 276.404 58.6979 276.095C58.8332 275.766 58.9009 275.293 58.9009 274.674C58.9009 273.997 58.8332 273.485 58.6979 273.137C58.5625 272.789 58.3112 272.547 57.9439 272.412C57.5959 272.277 57.0835 272.209 56.4069 272.209ZM56.4359 280.329C55.6625 280.329 55.0729 280.406 54.6669 280.561C54.2609 280.696 53.9805 280.957 53.8259 281.344C53.6712 281.711 53.5939 282.262 53.5939 282.997C53.5939 283.654 53.6712 284.167 53.8259 284.534C53.9805 284.901 54.2609 285.153 54.6669 285.288C55.0729 285.423 55.6529 285.491 56.4069 285.491C57.1609 285.491 57.7312 285.423 58.1179 285.288C58.5239 285.153 58.7945 284.901 58.9299 284.534C59.0652 284.167 59.1329 283.654 59.1329 282.997C59.1329 282.262 59.0652 281.702 58.9299 281.315C58.7945 280.928 58.5239 280.667 58.1179 280.532C57.7312 280.397 57.1705 280.329 56.4359 280.329ZM91.1699 268.99V287.086C91.1699 288.362 90.5416 289 89.2849 289H86.8489C86.2689 289 85.8339 288.865 85.5439 288.594C85.2733 288.323 84.9929 287.927 84.7029 287.405L79.8019 278.879C79.5506 278.415 79.3089 277.903 79.0769 277.342C78.8643 276.762 78.6806 276.192 78.5259 275.631H78.2649C78.3423 276.192 78.4003 276.772 78.4389 277.371C78.4969 277.951 78.5259 278.512 78.5259 279.053V289H73.4509V270.904C73.4509 269.628 74.0889 268.99 75.3649 268.99H77.7719C78.3326 268.99 78.7483 269.125 79.0189 269.396C79.3089 269.667 79.6086 270.063 79.9179 270.585L84.6159 278.792C84.8866 279.256 85.1476 279.778 85.3989 280.358C85.6503 280.919 85.8919 281.499 86.1239 282.098H86.3849C86.3269 281.499 86.2786 280.919 86.2399 280.358C86.2013 279.778 86.1819 279.188 86.1819 278.589L86.1529 268.99H91.1699ZM103.016 268.584C104.678 268.584 106.08 268.748 107.221 269.077C108.361 269.406 109.28 269.966 109.976 270.759C110.691 271.532 111.203 272.596 111.513 273.949C111.841 275.283 112.006 276.965 112.006 278.995C112.006 281.025 111.841 282.717 111.513 284.07C111.203 285.404 110.691 286.467 109.976 287.26C109.28 288.033 108.361 288.584 107.221 288.913C106.08 289.242 104.678 289.406 103.016 289.406C101.353 289.406 99.9512 289.242 98.8105 288.913C97.6699 288.584 96.7419 288.033 96.0265 287.26C95.3305 286.467 94.8182 285.404 94.4895 284.07C94.1802 282.717 94.0255 281.025 94.0255 278.995C94.0255 276.965 94.1802 275.283 94.4895 273.949C94.8182 272.596 95.3305 271.532 96.0265 270.759C96.7419 269.966 97.6699 269.406 98.8105 269.077C99.9512 268.748 101.353 268.584 103.016 268.584ZM103.016 272.731C102.165 272.731 101.498 272.905 101.015 273.253C100.551 273.601 100.222 274.229 100.029 275.138C99.8352 276.047 99.7385 277.332 99.7385 278.995C99.7385 280.658 99.8352 281.943 100.029 282.852C100.222 283.761 100.551 284.389 101.015 284.737C101.498 285.085 102.165 285.259 103.016 285.259C103.866 285.259 104.524 285.085 104.988 284.737C105.471 284.389 105.8 283.761 105.974 282.852C106.167 281.943 106.264 280.658 106.264 278.995C106.264 277.332 106.167 276.047 105.974 275.138C105.8 274.229 105.471 273.601 104.988 273.253C104.524 272.905 103.866 272.731 103.016 272.731ZM131.855 268.99L126.722 287.521C126.606 287.966 126.374 288.323 126.026 288.594C125.697 288.865 125.301 289 124.837 289H119.994C119.51 289 119.095 288.865 118.747 288.594C118.418 288.323 118.205 287.966 118.109 287.521L112.947 268.99H118.544L121.618 282.649C121.695 283.016 121.763 283.403 121.821 283.809C121.898 284.196 121.975 284.563 122.053 284.911H122.749C122.807 284.563 122.874 284.196 122.952 283.809C123.029 283.403 123.106 283.016 123.184 282.649L126.258 268.99H131.855Z" fill="black"/>
<path d="M223.634 19.99C224.388 19.99 224.775 20.3863 224.794 21.179L225.606 40H222.764L222.039 22.339H221.459L217.225 36.694C217.07 37.332 216.664 37.651 216.007 37.651H213.629C212.972 37.651 212.546 37.332 212.353 36.694L208.119 22.339H207.539L206.872 40H204.03L204.813 21.179C204.832 20.3863 205.219 19.99 205.973 19.99H209.105C209.724 19.99 210.13 20.309 210.323 20.947L213.832 32.779C213.967 33.2237 214.093 33.6683 214.209 34.113C214.325 34.5577 214.441 35.0217 214.557 35.505H215.05C215.166 35.0217 215.282 34.5577 215.398 34.113C215.514 33.6683 215.64 33.2043 215.775 32.721L219.284 20.947C219.439 20.309 219.845 19.99 220.502 19.99H223.634ZM238.215 19.99C238.776 19.99 239.133 20.251 239.288 20.773L245.61 40H242.594L240.709 33.91H232.734L230.849 40H227.862L234.184 20.773C234.319 20.251 234.677 19.99 235.257 19.99H238.215ZM235.837 23.905L233.488 31.503H239.984L237.606 23.905C237.432 23.3443 237.277 22.7837 237.142 22.223H236.33C236.253 22.4937 236.175 22.774 236.098 23.064C236.021 23.354 235.934 23.6343 235.837 23.905ZM254.018 19.642C254.985 19.642 255.98 19.6903 257.005 19.787C258.049 19.8643 259.083 20.019 260.108 20.251L259.905 22.31C259.054 22.2713 258.117 22.2423 257.092 22.223C256.067 22.2037 255.072 22.194 254.105 22.194C253.196 22.194 252.462 22.2423 251.901 22.339C251.34 22.4163 250.925 22.658 250.654 23.064C250.403 23.4507 250.277 24.0983 250.277 25.007C250.277 26.0317 250.47 26.747 250.857 27.153C251.244 27.559 251.872 27.878 252.742 28.11L256.773 29.183C258.32 29.589 259.383 30.2463 259.963 31.155C260.543 32.0637 260.833 33.2913 260.833 34.838C260.833 36.3653 260.591 37.5253 260.108 38.318C259.644 39.1107 258.909 39.652 257.904 39.942C256.899 40.2127 255.594 40.348 253.989 40.348C253.332 40.348 252.462 40.319 251.379 40.261C250.296 40.203 249.049 40.0387 247.638 39.768L247.841 37.651C248.982 37.6897 249.91 37.7187 250.625 37.738C251.34 37.7573 251.959 37.7767 252.481 37.796C253.003 37.796 253.535 37.796 254.076 37.796C255.043 37.796 255.806 37.7283 256.367 37.593C256.928 37.4383 257.324 37.1483 257.556 36.723C257.788 36.2977 257.904 35.6597 257.904 34.809C257.904 33.7263 257.711 32.9917 257.324 32.605C256.937 32.2183 256.328 31.9187 255.497 31.706L251.35 30.575C249.9 30.1883 248.875 29.5407 248.276 28.632C247.677 27.704 247.377 26.486 247.377 24.978C247.377 23.412 247.609 22.252 248.073 21.498C248.537 20.744 249.262 20.251 250.248 20.019C251.234 19.7677 252.491 19.642 254.018 19.642ZM272.851 19.99C273.411 19.99 273.769 20.251 273.924 20.773L280.246 40H277.23L275.345 33.91H267.37L265.485 40H262.498L268.82 20.773C268.955 20.251 269.313 19.99 269.893 19.99H272.851ZM270.473 23.905L268.124 31.503H274.62L272.242 23.905C272.068 23.3443 271.913 22.7837 271.778 22.223H270.966C270.888 22.4937 270.811 22.774 270.734 23.064C270.656 23.354 270.569 23.6343 270.473 23.905ZM295.853 19.642C296.723 19.642 297.468 19.6613 298.086 19.7C298.705 19.7387 299.275 19.8063 299.797 19.903C300.319 19.9803 300.861 20.0963 301.421 20.251L301.131 22.426C300.551 22.368 300.01 22.3293 299.507 22.31C299.005 22.2713 298.463 22.2423 297.883 22.223C297.323 22.2037 296.646 22.194 295.853 22.194C294.616 22.194 293.64 22.4357 292.924 22.919C292.209 23.4023 291.697 24.2143 291.387 25.355C291.097 26.4763 290.952 28.023 290.952 29.995C290.952 31.967 291.097 33.5233 291.387 34.664C291.697 35.7853 292.209 36.5877 292.924 37.071C293.64 37.5543 294.616 37.796 295.853 37.796C297.11 37.796 298.164 37.7767 299.014 37.738C299.884 37.68 300.725 37.593 301.537 37.477L301.827 39.652C300.977 39.9033 300.097 40.0773 299.188 40.174C298.299 40.29 297.187 40.348 295.853 40.348C293.901 40.348 292.344 40.0193 291.184 39.362C290.024 38.6853 289.183 37.593 288.661 36.085C288.139 34.577 287.878 32.547 287.878 29.995C287.878 27.443 288.139 25.413 288.661 23.905C289.183 22.397 290.024 21.3143 291.184 20.657C292.344 19.9803 293.901 19.642 295.853 19.642ZM308.185 19.99V28.11H317.001V19.99H319.93V40H317.001V30.517H308.185V40H305.285V19.99H308.185ZM328.539 19.961C329.989 19.961 331.468 19.9707 332.976 19.99C334.503 19.99 335.934 20.0383 337.268 20.135L337.152 22.368H329.177C328.056 22.368 327.495 22.977 327.495 24.195V28.342H336.021V30.575H327.495V35.795C327.495 37.0323 328.056 37.651 329.177 37.651H337.152L337.268 39.855C335.934 39.9517 334.503 40 332.976 40C331.468 40.0193 329.989 40.029 328.539 40.029C327.34 40.029 326.383 39.71 325.668 39.072C324.953 38.434 324.595 37.564 324.595 36.462V23.528C324.595 22.426 324.953 21.556 325.668 20.918C326.383 20.28 327.34 19.961 328.539 19.961ZM348.189 19.642C349.059 19.642 349.804 19.6613 350.422 19.7C351.041 19.7387 351.611 19.8063 352.133 19.903C352.655 19.9803 353.197 20.0963 353.757 20.251L353.467 22.426C352.887 22.368 352.346 22.3293 351.843 22.31C351.341 22.2713 350.799 22.2423 350.219 22.223C349.659 22.2037 348.982 22.194 348.189 22.194C346.952 22.194 345.976 22.4357 345.26 22.919C344.545 23.4023 344.033 24.2143 343.723 25.355C343.433 26.4763 343.288 28.023 343.288 29.995C343.288 31.967 343.433 33.5233 343.723 34.664C344.033 35.7853 344.545 36.5877 345.26 37.071C345.976 37.5543 346.952 37.796 348.189 37.796C349.446 37.796 350.5 37.7767 351.35 37.738C352.22 37.68 353.061 37.593 353.873 37.477L354.163 39.652C353.313 39.9033 352.433 40.0773 351.524 40.174C350.635 40.29 349.523 40.348 348.189 40.348C346.237 40.348 344.68 40.0193 343.52 39.362C342.36 38.6853 341.519 37.593 340.997 36.085C340.475 34.577 340.214 32.547 340.214 29.995C340.214 27.443 340.475 25.413 340.997 23.905C341.519 22.397 342.36 21.3143 343.52 20.657C344.68 19.9803 346.237 19.642 348.189 19.642ZM360.492 19.99V26.138C360.492 26.9307 360.434 27.704 360.318 28.458H362.638L368.525 19.99H371.686L365.973 28.226C365.799 28.516 365.615 28.7577 365.422 28.951C365.248 29.1443 365.045 29.3473 364.813 29.56V29.618C365.064 29.85 365.306 30.0917 365.538 30.343C365.77 30.575 365.963 30.8167 366.118 31.068L372.092 40H368.815L362.667 30.691H360.318C360.376 31.0583 360.414 31.416 360.434 31.764C360.472 32.112 360.492 32.4503 360.492 32.779V40H357.621V19.99H360.492ZM382.796 31.648V33.678H373.98V31.648H382.796ZM390.144 19.99V40H387.244V19.99H390.144ZM410.635 19.99V38.869C410.635 39.623 410.277 40 409.562 40H407.068C406.739 40 406.478 39.9323 406.285 39.797C406.111 39.6423 405.956 39.4103 405.821 39.101L399.267 25.587C399.093 25.2003 398.89 24.7653 398.658 24.282C398.426 23.7793 398.252 23.3153 398.136 22.89H397.701C397.74 23.3347 397.769 23.789 397.788 24.253C397.807 24.717 397.817 25.1713 397.817 25.616V40H394.975V21.121C394.975 20.367 395.342 19.99 396.077 19.99H398.484C398.813 19.99 399.074 20.0673 399.267 20.222C399.46 20.3573 399.625 20.5797 399.76 20.889L406.082 34.055C406.295 34.461 406.517 34.925 406.749 35.447C407 35.969 407.242 36.4813 407.474 36.984H407.938C407.899 36.462 407.87 35.9497 407.851 35.447C407.832 34.925 407.822 34.4127 407.822 33.91V19.99H410.635Z" fill="white"/>
<path d="M211.454 102.729C213.097 102.729 214.402 102.913 215.369 103.28C216.336 103.647 217.022 104.285 217.428 105.194C217.853 106.103 218.066 107.388 218.066 109.051C218.066 110.694 217.863 111.98 217.457 112.908C217.051 113.817 216.384 114.455 215.456 114.822C214.547 115.17 213.329 115.344 211.802 115.344C210.971 115.344 210.168 115.325 209.395 115.286C208.641 115.228 207.955 115.17 207.336 115.112V123H204.436V102.99C205.171 102.913 205.857 102.855 206.495 102.816C207.152 102.777 207.868 102.758 208.641 102.758C209.414 102.739 210.352 102.729 211.454 102.729ZM211.425 105.136C210.632 105.136 209.888 105.146 209.192 105.165C208.515 105.165 207.897 105.165 207.336 105.165V112.937H211.425C212.353 112.937 213.088 112.831 213.629 112.618C214.17 112.386 214.557 111.99 214.789 111.429C215.021 110.868 215.137 110.076 215.137 109.051C215.137 108.007 215.021 107.205 214.789 106.644C214.557 106.083 214.17 105.697 213.629 105.484C213.088 105.252 212.353 105.136 211.425 105.136ZM228.758 102.729C230.344 102.729 231.62 102.903 232.586 103.251C233.572 103.58 234.288 104.169 234.732 105.02C235.177 105.851 235.399 107.021 235.399 108.529C235.399 110.114 235.109 111.323 234.529 112.154C233.969 112.985 233.021 113.488 231.687 113.662V113.807C232.19 113.923 232.683 114.213 233.166 114.677C233.65 115.141 234.007 115.818 234.239 116.707L236.124 123H233.05L231.31 116.765C231.078 116.03 230.75 115.508 230.324 115.199C229.918 114.89 229.396 114.735 228.758 114.735C227.888 114.735 227.105 114.735 226.409 114.735C225.713 114.735 225.104 114.725 224.582 114.706V123H221.711V102.99C222.446 102.913 223.142 102.855 223.799 102.816C224.457 102.777 225.172 102.758 225.945 102.758C226.719 102.739 227.656 102.729 228.758 102.729ZM228.7 105.136C227.888 105.136 227.134 105.146 226.438 105.165C225.742 105.165 225.124 105.165 224.582 105.165V112.328H228.7C229.648 112.328 230.392 112.222 230.933 112.009C231.494 111.796 231.89 111.429 232.122 110.907C232.354 110.385 232.47 109.65 232.47 108.703C232.47 107.756 232.354 107.031 232.122 106.528C231.89 106.006 231.494 105.648 230.933 105.455C230.392 105.242 229.648 105.136 228.7 105.136ZM247.088 102.613C249.06 102.613 250.626 102.932 251.786 103.57C252.965 104.208 253.806 105.281 254.309 106.789C254.831 108.297 255.092 110.366 255.092 112.995C255.092 115.624 254.831 117.693 254.309 119.201C253.806 120.709 252.965 121.782 251.786 122.42C250.626 123.058 249.06 123.377 247.088 123.377C245.116 123.377 243.54 123.058 242.361 122.42C241.181 121.782 240.331 120.709 239.809 119.201C239.287 117.693 239.026 115.624 239.026 112.995C239.026 110.366 239.287 108.297 239.809 106.789C240.331 105.281 241.181 104.208 242.361 103.57C243.54 102.932 245.116 102.613 247.088 102.613ZM247.088 105.136C245.831 105.136 244.835 105.378 244.101 105.861C243.385 106.325 242.873 107.137 242.564 108.297C242.254 109.438 242.1 111.004 242.1 112.995C242.1 114.986 242.254 116.562 242.564 117.722C242.873 118.863 243.385 119.675 244.101 120.158C244.835 120.622 245.831 120.854 247.088 120.854C248.344 120.854 249.33 120.622 250.046 120.158C250.78 119.675 251.302 118.863 251.612 117.722C251.921 116.562 252.076 114.986 252.076 112.995C252.076 111.004 251.921 109.438 251.612 108.297C251.302 107.137 250.78 106.325 250.046 105.861C249.33 105.378 248.344 105.136 247.088 105.136ZM273.271 111.429V123H271.154L270.835 120.883C270.255 121.463 269.462 122.024 268.457 122.565C267.452 123.106 266.263 123.377 264.89 123.377C262.647 123.377 261.023 122.546 260.018 120.883C259.032 119.201 258.539 116.552 258.539 112.937C258.539 110.308 258.81 108.239 259.351 106.731C259.892 105.223 260.782 104.16 262.019 103.541C263.256 102.922 264.919 102.613 267.007 102.613C268.07 102.613 269.066 102.661 269.994 102.758C270.922 102.855 271.831 103.019 272.72 103.251L272.43 105.397C271.502 105.32 270.584 105.271 269.675 105.252C268.766 105.213 267.916 105.194 267.123 105.194C266.098 105.194 265.228 105.3 264.513 105.513C263.817 105.706 263.256 106.083 262.831 106.644C262.406 107.185 262.096 107.978 261.903 109.022C261.71 110.066 261.613 111.429 261.613 113.111C261.613 115.006 261.739 116.523 261.99 117.664C262.261 118.785 262.696 119.597 263.295 120.1C263.914 120.603 264.735 120.854 265.76 120.854C266.727 120.854 267.577 120.68 268.312 120.332C269.066 119.965 269.772 119.549 270.429 119.085V111.429H273.271ZM284.634 102.729C286.22 102.729 287.496 102.903 288.462 103.251C289.448 103.58 290.164 104.169 290.608 105.02C291.053 105.851 291.275 107.021 291.275 108.529C291.275 110.114 290.985 111.323 290.405 112.154C289.845 112.985 288.897 113.488 287.563 113.662V113.807C288.066 113.923 288.559 114.213 289.042 114.677C289.526 115.141 289.883 115.818 290.115 116.707L292 123H288.926L287.186 116.765C286.954 116.03 286.626 115.508 286.2 115.199C285.794 114.89 285.272 114.735 284.634 114.735C283.764 114.735 282.981 114.735 282.285 114.735C281.589 114.735 280.98 114.725 280.458 114.706V123H277.587V102.99C278.322 102.913 279.018 102.855 279.675 102.816C280.333 102.777 281.048 102.758 281.821 102.758C282.595 102.739 283.532 102.729 284.634 102.729ZM284.576 105.136C283.764 105.136 283.01 105.146 282.314 105.165C281.618 105.165 281 105.165 280.458 105.165V112.328H284.576C285.524 112.328 286.268 112.222 286.809 112.009C287.37 111.796 287.766 111.429 287.998 110.907C288.23 110.385 288.346 109.65 288.346 108.703C288.346 107.756 288.23 107.031 287.998 106.528C287.766 106.006 287.37 105.648 286.809 105.455C286.268 105.242 285.524 105.136 284.576 105.136ZM299.426 102.961C300.876 102.961 302.355 102.971 303.863 102.99C305.39 102.99 306.821 103.038 308.155 103.135L308.039 105.368H300.064C298.942 105.368 298.382 105.977 298.382 107.195V111.342H306.908V113.575H298.382V118.795C298.382 120.032 298.942 120.651 300.064 120.651H308.039L308.155 122.855C306.821 122.952 305.39 123 303.863 123C302.355 123.019 300.876 123.029 299.426 123.029C298.227 123.029 297.27 122.71 296.555 122.072C295.839 121.434 295.482 120.564 295.482 119.462V106.528C295.482 105.426 295.839 104.556 296.555 103.918C297.27 103.28 298.227 102.961 299.426 102.961ZM317.767 102.642C318.734 102.642 319.729 102.69 320.754 102.787C321.798 102.864 322.832 103.019 323.857 103.251L323.654 105.31C322.803 105.271 321.866 105.242 320.841 105.223C319.816 105.204 318.821 105.194 317.854 105.194C316.945 105.194 316.211 105.242 315.65 105.339C315.089 105.416 314.674 105.658 314.403 106.064C314.152 106.451 314.026 107.098 314.026 108.007C314.026 109.032 314.219 109.747 314.606 110.153C314.993 110.559 315.621 110.878 316.491 111.11L320.522 112.183C322.069 112.589 323.132 113.246 323.712 114.155C324.292 115.064 324.582 116.291 324.582 117.838C324.582 119.365 324.34 120.525 323.857 121.318C323.393 122.111 322.658 122.652 321.653 122.942C320.648 123.213 319.343 123.348 317.738 123.348C317.081 123.348 316.211 123.319 315.128 123.261C314.045 123.203 312.798 123.039 311.387 122.768L311.59 120.651C312.731 120.69 313.659 120.719 314.374 120.738C315.089 120.757 315.708 120.777 316.23 120.796C316.752 120.796 317.284 120.796 317.825 120.796C318.792 120.796 319.555 120.728 320.116 120.593C320.677 120.438 321.073 120.148 321.305 119.723C321.537 119.298 321.653 118.66 321.653 117.809C321.653 116.726 321.46 115.992 321.073 115.605C320.686 115.218 320.077 114.919 319.246 114.706L315.099 113.575C313.649 113.188 312.624 112.541 312.025 111.632C311.426 110.704 311.126 109.486 311.126 107.978C311.126 106.412 311.358 105.252 311.822 104.498C312.286 103.744 313.011 103.251 313.997 103.019C314.983 102.768 316.24 102.642 317.767 102.642ZM334.193 102.642C335.159 102.642 336.155 102.69 337.18 102.787C338.224 102.864 339.258 103.019 340.283 103.251L340.08 105.31C339.229 105.271 338.291 105.242 337.267 105.223C336.242 105.204 335.246 105.194 334.28 105.194C333.371 105.194 332.636 105.242 332.076 105.339C331.515 105.416 331.099 105.658 330.829 106.064C330.577 106.451 330.452 107.098 330.452 108.007C330.452 109.032 330.645 109.747 331.032 110.153C331.418 110.559 332.047 110.878 332.917 111.11L336.948 112.183C338.494 112.589 339.558 113.246 340.138 114.155C340.718 115.064 341.008 116.291 341.008 117.838C341.008 119.365 340.766 120.525 340.283 121.318C339.819 122.111 339.084 122.652 338.079 122.942C337.073 123.213 335.768 123.348 334.164 123.348C333.506 123.348 332.636 123.319 331.554 123.261C330.471 123.203 329.224 123.039 327.813 122.768L328.016 120.651C329.156 120.69 330.084 120.719 330.8 120.738C331.515 120.757 332.134 120.777 332.656 120.796C333.178 120.796 333.709 120.796 334.251 120.796C335.217 120.796 335.981 120.728 336.542 120.593C337.102 120.438 337.499 120.148 337.731 119.723C337.963 119.298 338.079 118.66 338.079 117.809C338.079 116.726 337.885 115.992 337.499 115.605C337.112 115.218 336.503 114.919 335.672 114.706L331.525 113.575C330.075 113.188 329.05 112.541 328.451 111.632C327.851 110.704 327.552 109.486 327.552 107.978C327.552 106.412 327.784 105.252 328.248 104.498C328.712 103.744 329.437 103.251 330.423 103.019C331.409 102.768 332.665 102.642 334.193 102.642ZM358.352 102.729C359.937 102.729 361.213 102.903 362.18 103.251C363.166 103.58 363.881 104.169 364.326 105.02C364.771 105.851 364.993 107.021 364.993 108.529C364.993 110.114 364.703 111.323 364.123 112.154C363.562 112.985 362.615 113.488 361.281 113.662V113.807C361.784 113.923 362.277 114.213 362.76 114.677C363.243 115.141 363.601 115.818 363.833 116.707L365.718 123H362.644L360.904 116.765C360.672 116.03 360.343 115.508 359.918 115.199C359.512 114.89 358.99 114.735 358.352 114.735C357.482 114.735 356.699 114.735 356.003 114.735C355.307 114.735 354.698 114.725 354.176 114.706V123H351.305V102.99C352.04 102.913 352.736 102.855 353.393 102.816C354.05 102.777 354.766 102.758 355.539 102.758C356.312 102.739 357.25 102.729 358.352 102.729ZM358.294 105.136C357.482 105.136 356.728 105.146 356.032 105.165C355.336 105.165 354.717 105.165 354.176 105.165V112.328H358.294C359.241 112.328 359.986 112.222 360.527 112.009C361.088 111.796 361.484 111.429 361.716 110.907C361.948 110.385 362.064 109.65 362.064 108.703C362.064 107.756 361.948 107.031 361.716 106.528C361.484 106.006 361.088 105.648 360.527 105.455C359.986 105.242 359.241 105.136 358.294 105.136ZM373.144 102.961C374.594 102.961 376.073 102.971 377.581 102.99C379.108 102.99 380.539 103.038 381.873 103.135L381.757 105.368H373.782C372.66 105.368 372.1 105.977 372.1 107.195V111.342H380.626V113.575H372.1V118.795C372.1 120.032 372.66 120.651 373.782 120.651H381.757L381.873 122.855C380.539 122.952 379.108 123 377.581 123C376.073 123.019 374.594 123.029 373.144 123.029C371.945 123.029 370.988 122.71 370.273 122.072C369.557 121.434 369.2 120.564 369.2 119.462V106.528C369.2 105.426 369.557 104.556 370.273 103.918C370.988 103.28 371.945 102.961 373.144 102.961ZM392.761 102.729C394.404 102.729 395.709 102.913 396.676 103.28C397.642 103.647 398.329 104.285 398.735 105.194C399.16 106.103 399.373 107.388 399.373 109.051C399.373 110.694 399.17 111.98 398.764 112.908C398.358 113.817 397.691 114.455 396.763 114.822C395.854 115.17 394.636 115.344 393.109 115.344C392.277 115.344 391.475 115.325 390.702 115.286C389.948 115.228 389.261 115.17 388.643 115.112V123H385.743V102.99C386.477 102.913 387.164 102.855 387.802 102.816C388.459 102.777 389.174 102.758 389.948 102.758C390.721 102.739 391.659 102.729 392.761 102.729ZM392.732 105.136C391.939 105.136 391.195 105.146 390.499 105.165C389.822 105.165 389.203 105.165 388.643 105.165V112.937H392.732C393.66 112.937 394.394 112.831 394.936 112.618C395.477 112.386 395.864 111.99 396.096 111.429C396.328 110.868 396.444 110.076 396.444 109.051C396.444 108.007 396.328 107.205 396.096 106.644C395.864 106.083 395.477 105.697 394.936 105.484C394.394 105.252 393.66 105.136 392.732 105.136ZM410.326 102.613C412.298 102.613 413.864 102.932 415.024 103.57C416.203 104.208 417.044 105.281 417.547 106.789C418.069 108.297 418.33 110.366 418.33 112.995C418.33 115.624 418.069 117.693 417.547 119.201C417.044 120.709 416.203 121.782 415.024 122.42C413.864 123.058 412.298 123.377 410.326 123.377C408.354 123.377 406.778 123.058 405.599 122.42C404.42 121.782 403.569 120.709 403.047 119.201C402.525 117.693 402.264 115.624 402.264 112.995C402.264 110.366 402.525 108.297 403.047 106.789C403.569 105.281 404.42 104.208 405.599 103.57C406.778 102.932 408.354 102.613 410.326 102.613ZM410.326 105.136C409.069 105.136 408.074 105.378 407.339 105.861C406.624 106.325 406.111 107.137 405.802 108.297C405.493 109.438 405.338 111.004 405.338 112.995C405.338 114.986 405.493 116.562 405.802 117.722C406.111 118.863 406.624 119.675 407.339 120.158C408.074 120.622 409.069 120.854 410.326 120.854C411.583 120.854 412.569 120.622 413.284 120.158C414.019 119.675 414.541 118.863 414.85 117.722C415.159 116.562 415.314 114.986 415.314 112.995C415.314 111.004 415.159 109.438 414.85 108.297C414.541 107.137 414.019 106.325 413.284 105.861C412.569 105.378 411.583 105.136 410.326 105.136ZM429.549 102.729C431.135 102.729 432.411 102.903 433.377 103.251C434.363 103.58 435.079 104.169 435.523 105.02C435.968 105.851 436.19 107.021 436.19 108.529C436.19 110.114 435.9 111.323 435.32 112.154C434.76 112.985 433.812 113.488 432.478 113.662V113.807C432.981 113.923 433.474 114.213 433.957 114.677C434.441 115.141 434.798 115.818 435.03 116.707L436.915 123H433.841L432.101 116.765C431.869 116.03 431.541 115.508 431.115 115.199C430.709 114.89 430.187 114.735 429.549 114.735C428.679 114.735 427.896 114.735 427.2 114.735C426.504 114.735 425.895 114.725 425.373 114.706V123H422.502V102.99C423.237 102.913 423.933 102.855 424.59 102.816C425.248 102.777 425.963 102.758 426.736 102.758C427.51 102.739 428.447 102.729 429.549 102.729ZM429.491 105.136C428.679 105.136 427.925 105.146 427.229 105.165C426.533 105.165 425.915 105.165 425.373 105.165V112.328H429.491C430.439 112.328 431.183 112.222 431.724 112.009C432.285 111.796 432.681 111.429 432.913 110.907C433.145 110.385 433.261 109.65 433.261 108.703C433.261 107.756 433.145 107.031 432.913 106.528C432.681 106.006 432.285 105.648 431.724 105.455C431.183 105.242 430.439 105.136 429.491 105.136ZM454.15 102.99V105.484H447.77V123H444.87V105.484H438.519V102.99H454.15ZM465.9 102.99V123H463V102.99H465.9Z" fill="white"/>
<path d="M211.454 185.729C213.097 185.729 214.402 185.913 215.369 186.28C216.336 186.647 217.022 187.285 217.428 188.194C217.853 189.103 218.066 190.388 218.066 192.051C218.066 193.694 217.863 194.98 217.457 195.908C217.051 196.817 216.384 197.455 215.456 197.822C214.547 198.17 213.329 198.344 211.802 198.344C210.971 198.344 210.168 198.325 209.395 198.286C208.641 198.228 207.955 198.17 207.336 198.112V206H204.436V185.99C205.171 185.913 205.857 185.855 206.495 185.816C207.152 185.777 207.868 185.758 208.641 185.758C209.414 185.739 210.352 185.729 211.454 185.729ZM211.425 188.136C210.632 188.136 209.888 188.146 209.192 188.165C208.515 188.165 207.897 188.165 207.336 188.165V195.937H211.425C212.353 195.937 213.088 195.831 213.629 195.618C214.17 195.386 214.557 194.99 214.789 194.429C215.021 193.868 215.137 193.076 215.137 192.051C215.137 191.007 215.021 190.205 214.789 189.644C214.557 189.083 214.17 188.697 213.629 188.484C213.088 188.252 212.353 188.136 211.425 188.136ZM228.758 185.729C230.344 185.729 231.62 185.903 232.586 186.251C233.572 186.58 234.288 187.169 234.732 188.02C235.177 188.851 235.399 190.021 235.399 191.529C235.399 193.114 235.109 194.323 234.529 195.154C233.969 195.985 233.021 196.488 231.687 196.662V196.807C232.19 196.923 232.683 197.213 233.166 197.677C233.65 198.141 234.007 198.818 234.239 199.707L236.124 206H233.05L231.31 199.765C231.078 199.03 230.75 198.508 230.324 198.199C229.918 197.89 229.396 197.735 228.758 197.735C227.888 197.735 227.105 197.735 226.409 197.735C225.713 197.735 225.104 197.725 224.582 197.706V206H221.711V185.99C222.446 185.913 223.142 185.855 223.799 185.816C224.457 185.777 225.172 185.758 225.945 185.758C226.719 185.739 227.656 185.729 228.758 185.729ZM228.7 188.136C227.888 188.136 227.134 188.146 226.438 188.165C225.742 188.165 225.124 188.165 224.582 188.165V195.328H228.7C229.648 195.328 230.392 195.222 230.933 195.009C231.494 194.796 231.89 194.429 232.122 193.907C232.354 193.385 232.47 192.65 232.47 191.703C232.47 190.756 232.354 190.031 232.122 189.528C231.89 189.006 231.494 188.648 230.933 188.455C230.392 188.242 229.648 188.136 228.7 188.136ZM247.088 185.613C249.06 185.613 250.626 185.932 251.786 186.57C252.965 187.208 253.806 188.281 254.309 189.789C254.831 191.297 255.092 193.366 255.092 195.995C255.092 198.624 254.831 200.693 254.309 202.201C253.806 203.709 252.965 204.782 251.786 205.42C250.626 206.058 249.06 206.377 247.088 206.377C245.116 206.377 243.54 206.058 242.361 205.42C241.181 204.782 240.331 203.709 239.809 202.201C239.287 200.693 239.026 198.624 239.026 195.995C239.026 193.366 239.287 191.297 239.809 189.789C240.331 188.281 241.181 187.208 242.361 186.57C243.54 185.932 245.116 185.613 247.088 185.613ZM247.088 188.136C245.831 188.136 244.835 188.378 244.101 188.861C243.385 189.325 242.873 190.137 242.564 191.297C242.254 192.438 242.1 194.004 242.1 195.995C242.1 197.986 242.254 199.562 242.564 200.722C242.873 201.863 243.385 202.675 244.101 203.158C244.835 203.622 245.831 203.854 247.088 203.854C248.344 203.854 249.33 203.622 250.046 203.158C250.78 202.675 251.302 201.863 251.612 200.722C251.921 199.562 252.076 197.986 252.076 195.995C252.076 194.004 251.921 192.438 251.612 191.297C251.302 190.137 250.78 189.325 250.046 188.861C249.33 188.378 248.344 188.136 247.088 188.136ZM273.271 194.429V206H271.154L270.835 203.883C270.255 204.463 269.462 205.024 268.457 205.565C267.452 206.106 266.263 206.377 264.89 206.377C262.647 206.377 261.023 205.546 260.018 203.883C259.032 202.201 258.539 199.552 258.539 195.937C258.539 193.308 258.81 191.239 259.351 189.731C259.892 188.223 260.782 187.16 262.019 186.541C263.256 185.922 264.919 185.613 267.007 185.613C268.07 185.613 269.066 185.661 269.994 185.758C270.922 185.855 271.831 186.019 272.72 186.251L272.43 188.397C271.502 188.32 270.584 188.271 269.675 188.252C268.766 188.213 267.916 188.194 267.123 188.194C266.098 188.194 265.228 188.3 264.513 188.513C263.817 188.706 263.256 189.083 262.831 189.644C262.406 190.185 262.096 190.978 261.903 192.022C261.71 193.066 261.613 194.429 261.613 196.111C261.613 198.006 261.739 199.523 261.99 200.664C262.261 201.785 262.696 202.597 263.295 203.1C263.914 203.603 264.735 203.854 265.76 203.854C266.727 203.854 267.577 203.68 268.312 203.332C269.066 202.965 269.772 202.549 270.429 202.085V194.429H273.271ZM284.634 185.729C286.22 185.729 287.496 185.903 288.462 186.251C289.448 186.58 290.164 187.169 290.608 188.02C291.053 188.851 291.275 190.021 291.275 191.529C291.275 193.114 290.985 194.323 290.405 195.154C289.845 195.985 288.897 196.488 287.563 196.662V196.807C288.066 196.923 288.559 197.213 289.042 197.677C289.526 198.141 289.883 198.818 290.115 199.707L292 206H288.926L287.186 199.765C286.954 199.03 286.626 198.508 286.2 198.199C285.794 197.89 285.272 197.735 284.634 197.735C283.764 197.735 282.981 197.735 282.285 197.735C281.589 197.735 280.98 197.725 280.458 197.706V206H277.587V185.99C278.322 185.913 279.018 185.855 279.675 185.816C280.333 185.777 281.048 185.758 281.821 185.758C282.595 185.739 283.532 185.729 284.634 185.729ZM284.576 188.136C283.764 188.136 283.01 188.146 282.314 188.165C281.618 188.165 281 188.165 280.458 188.165V195.328H284.576C285.524 195.328 286.268 195.222 286.809 195.009C287.37 194.796 287.766 194.429 287.998 193.907C288.23 193.385 288.346 192.65 288.346 191.703C288.346 190.756 288.23 190.031 287.998 189.528C287.766 189.006 287.37 188.648 286.809 188.455C286.268 188.242 285.524 188.136 284.576 188.136ZM299.426 185.961C300.876 185.961 302.355 185.971 303.863 185.99C305.39 185.99 306.821 186.038 308.155 186.135L308.039 188.368H300.064C298.942 188.368 298.382 188.977 298.382 190.195V194.342H306.908V196.575H298.382V201.795C298.382 203.032 298.942 203.651 300.064 203.651H308.039L308.155 205.855C306.821 205.952 305.39 206 303.863 206C302.355 206.019 300.876 206.029 299.426 206.029C298.227 206.029 297.27 205.71 296.555 205.072C295.839 204.434 295.482 203.564 295.482 202.462V189.528C295.482 188.426 295.839 187.556 296.555 186.918C297.27 186.28 298.227 185.961 299.426 185.961ZM317.767 185.642C318.734 185.642 319.729 185.69 320.754 185.787C321.798 185.864 322.832 186.019 323.857 186.251L323.654 188.31C322.803 188.271 321.866 188.242 320.841 188.223C319.816 188.204 318.821 188.194 317.854 188.194C316.945 188.194 316.211 188.242 315.65 188.339C315.089 188.416 314.674 188.658 314.403 189.064C314.152 189.451 314.026 190.098 314.026 191.007C314.026 192.032 314.219 192.747 314.606 193.153C314.993 193.559 315.621 193.878 316.491 194.11L320.522 195.183C322.069 195.589 323.132 196.246 323.712 197.155C324.292 198.064 324.582 199.291 324.582 200.838C324.582 202.365 324.34 203.525 323.857 204.318C323.393 205.111 322.658 205.652 321.653 205.942C320.648 206.213 319.343 206.348 317.738 206.348C317.081 206.348 316.211 206.319 315.128 206.261C314.045 206.203 312.798 206.039 311.387 205.768L311.59 203.651C312.731 203.69 313.659 203.719 314.374 203.738C315.089 203.757 315.708 203.777 316.23 203.796C316.752 203.796 317.284 203.796 317.825 203.796C318.792 203.796 319.555 203.728 320.116 203.593C320.677 203.438 321.073 203.148 321.305 202.723C321.537 202.298 321.653 201.66 321.653 200.809C321.653 199.726 321.46 198.992 321.073 198.605C320.686 198.218 320.077 197.919 319.246 197.706L315.099 196.575C313.649 196.188 312.624 195.541 312.025 194.632C311.426 193.704 311.126 192.486 311.126 190.978C311.126 189.412 311.358 188.252 311.822 187.498C312.286 186.744 313.011 186.251 313.997 186.019C314.983 185.768 316.24 185.642 317.767 185.642ZM334.193 185.642C335.159 185.642 336.155 185.69 337.18 185.787C338.224 185.864 339.258 186.019 340.283 186.251L340.08 188.31C339.229 188.271 338.291 188.242 337.267 188.223C336.242 188.204 335.246 188.194 334.28 188.194C333.371 188.194 332.636 188.242 332.076 188.339C331.515 188.416 331.099 188.658 330.829 189.064C330.577 189.451 330.452 190.098 330.452 191.007C330.452 192.032 330.645 192.747 331.032 193.153C331.418 193.559 332.047 193.878 332.917 194.11L336.948 195.183C338.494 195.589 339.558 196.246 340.138 197.155C340.718 198.064 341.008 199.291 341.008 200.838C341.008 202.365 340.766 203.525 340.283 204.318C339.819 205.111 339.084 205.652 338.079 205.942C337.073 206.213 335.768 206.348 334.164 206.348C333.506 206.348 332.636 206.319 331.554 206.261C330.471 206.203 329.224 206.039 327.813 205.768L328.016 203.651C329.156 203.69 330.084 203.719 330.8 203.738C331.515 203.757 332.134 203.777 332.656 203.796C333.178 203.796 333.709 203.796 334.251 203.796C335.217 203.796 335.981 203.728 336.542 203.593C337.102 203.438 337.499 203.148 337.731 202.723C337.963 202.298 338.079 201.66 338.079 200.809C338.079 199.726 337.885 198.992 337.499 198.605C337.112 198.218 336.503 197.919 335.672 197.706L331.525 196.575C330.075 196.188 329.05 195.541 328.451 194.632C327.851 193.704 327.552 192.486 327.552 190.978C327.552 189.412 327.784 188.252 328.248 187.498C328.712 186.744 329.437 186.251 330.423 186.019C331.409 185.768 332.665 185.642 334.193 185.642ZM358.352 185.729C359.937 185.729 361.213 185.903 362.18 186.251C363.166 186.58 363.881 187.169 364.326 188.02C364.771 188.851 364.993 190.021 364.993 191.529C364.993 193.114 364.703 194.323 364.123 195.154C363.562 195.985 362.615 196.488 361.281 196.662V196.807C361.784 196.923 362.277 197.213 362.76 197.677C363.243 198.141 363.601 198.818 363.833 199.707L365.718 206H362.644L360.904 199.765C360.672 199.03 360.343 198.508 359.918 198.199C359.512 197.89 358.99 197.735 358.352 197.735C357.482 197.735 356.699 197.735 356.003 197.735C355.307 197.735 354.698 197.725 354.176 197.706V206H351.305V185.99C352.04 185.913 352.736 185.855 353.393 185.816C354.05 185.777 354.766 185.758 355.539 185.758C356.312 185.739 357.25 185.729 358.352 185.729ZM358.294 188.136C357.482 188.136 356.728 188.146 356.032 188.165C355.336 188.165 354.717 188.165 354.176 188.165V195.328H358.294C359.241 195.328 359.986 195.222 360.527 195.009C361.088 194.796 361.484 194.429 361.716 193.907C361.948 193.385 362.064 192.65 362.064 191.703C362.064 190.756 361.948 190.031 361.716 189.528C361.484 189.006 361.088 188.648 360.527 188.455C359.986 188.242 359.241 188.136 358.294 188.136ZM373.144 185.961C374.594 185.961 376.073 185.971 377.581 185.99C379.108 185.99 380.539 186.038 381.873 186.135L381.757 188.368H373.782C372.66 188.368 372.1 188.977 372.1 190.195V194.342H380.626V196.575H372.1V201.795C372.1 203.032 372.66 203.651 373.782 203.651H381.757L381.873 205.855C380.539 205.952 379.108 206 377.581 206C376.073 206.019 374.594 206.029 373.144 206.029C371.945 206.029 370.988 205.71 370.273 205.072C369.557 204.434 369.2 203.564 369.2 202.462V189.528C369.2 188.426 369.557 187.556 370.273 186.918C370.988 186.28 371.945 185.961 373.144 185.961ZM392.761 185.729C394.404 185.729 395.709 185.913 396.676 186.28C397.642 186.647 398.329 187.285 398.735 188.194C399.16 189.103 399.373 190.388 399.373 192.051C399.373 193.694 399.17 194.98 398.764 195.908C398.358 196.817 397.691 197.455 396.763 197.822C395.854 198.17 394.636 198.344 393.109 198.344C392.277 198.344 391.475 198.325 390.702 198.286C389.948 198.228 389.261 198.17 388.643 198.112V206H385.743V185.99C386.477 185.913 387.164 185.855 387.802 185.816C388.459 185.777 389.174 185.758 389.948 185.758C390.721 185.739 391.659 185.729 392.761 185.729ZM392.732 188.136C391.939 188.136 391.195 188.146 390.499 188.165C389.822 188.165 389.203 188.165 388.643 188.165V195.937H392.732C393.66 195.937 394.394 195.831 394.936 195.618C395.477 195.386 395.864 194.99 396.096 194.429C396.328 193.868 396.444 193.076 396.444 192.051C396.444 191.007 396.328 190.205 396.096 189.644C395.864 189.083 395.477 188.697 394.936 188.484C394.394 188.252 393.66 188.136 392.732 188.136ZM410.326 185.613C412.298 185.613 413.864 185.932 415.024 186.57C416.203 187.208 417.044 188.281 417.547 189.789C418.069 191.297 418.33 193.366 418.33 195.995C418.33 198.624 418.069 200.693 417.547 202.201C417.044 203.709 416.203 204.782 415.024 205.42C413.864 206.058 412.298 206.377 410.326 206.377C408.354 206.377 406.778 206.058 405.599 205.42C404.42 204.782 403.569 203.709 403.047 202.201C402.525 200.693 402.264 198.624 402.264 195.995C402.264 193.366 402.525 191.297 403.047 189.789C403.569 188.281 404.42 187.208 405.599 186.57C406.778 185.932 408.354 185.613 410.326 185.613ZM410.326 188.136C409.069 188.136 408.074 188.378 407.339 188.861C406.624 189.325 406.111 190.137 405.802 191.297C405.493 192.438 405.338 194.004 405.338 195.995C405.338 197.986 405.493 199.562 405.802 200.722C406.111 201.863 406.624 202.675 407.339 203.158C408.074 203.622 409.069 203.854 410.326 203.854C411.583 203.854 412.569 203.622 413.284 203.158C414.019 202.675 414.541 201.863 414.85 200.722C415.159 199.562 415.314 197.986 415.314 195.995C415.314 194.004 415.159 192.438 414.85 191.297C414.541 190.137 414.019 189.325 413.284 188.861C412.569 188.378 411.583 188.136 410.326 188.136ZM429.549 185.729C431.135 185.729 432.411 185.903 433.377 186.251C434.363 186.58 435.079 187.169 435.523 188.02C435.968 188.851 436.19 190.021 436.19 191.529C436.19 193.114 435.9 194.323 435.32 195.154C434.76 195.985 433.812 196.488 432.478 196.662V196.807C432.981 196.923 433.474 197.213 433.957 197.677C434.441 198.141 434.798 198.818 435.03 199.707L436.915 206H433.841L432.101 199.765C431.869 199.03 431.541 198.508 431.115 198.199C430.709 197.89 430.187 197.735 429.549 197.735C428.679 197.735 427.896 197.735 427.2 197.735C426.504 197.735 425.895 197.725 425.373 197.706V206H422.502V185.99C423.237 185.913 423.933 185.855 424.59 185.816C425.248 185.777 425.963 185.758 426.736 185.758C427.51 185.739 428.447 185.729 429.549 185.729ZM429.491 188.136C428.679 188.136 427.925 188.146 427.229 188.165C426.533 188.165 425.915 188.165 425.373 188.165V195.328H429.491C430.439 195.328 431.183 195.222 431.724 195.009C432.285 194.796 432.681 194.429 432.913 193.907C433.145 193.385 433.261 192.65 433.261 191.703C433.261 190.756 433.145 190.031 432.913 189.528C432.681 189.006 432.285 188.648 431.724 188.455C431.183 188.242 430.439 188.136 429.491 188.136ZM454.15 185.99V188.484H447.77V206H444.87V188.484H438.519V185.99H454.15ZM465.9 185.99V206H463V185.99H465.9ZM473.632 185.99V206H470.732V185.99H473.632Z" fill="white"/>
<path d="M208.322 252.961C209.733 252.961 211.164 252.971 212.614 252.99C214.083 253.009 215.466 253.067 216.761 253.164L216.616 255.368H209.163C207.906 255.368 207.278 255.977 207.278 257.195V261.632H215.514V263.894H207.278V273H204.378V256.644C204.378 255.484 204.736 254.585 205.451 253.947C206.166 253.29 207.123 252.961 208.322 252.961ZM223.054 252.99V273H220.154V252.99H223.054ZM243.545 252.99V271.869C243.545 272.623 243.188 273 242.472 273H239.978C239.65 273 239.389 272.932 239.195 272.797C239.021 272.642 238.867 272.41 238.731 272.101L232.177 258.587C232.003 258.2 231.8 257.765 231.568 257.282C231.336 256.779 231.162 256.315 231.046 255.89H230.611C230.65 256.335 230.679 256.789 230.698 257.253C230.718 257.717 230.727 258.171 230.727 258.616V273H227.885V254.121C227.885 253.367 228.253 252.99 228.987 252.99H231.394C231.723 252.99 231.984 253.067 232.177 253.222C232.371 253.357 232.535 253.58 232.67 253.889L238.992 267.055C239.205 267.461 239.427 267.925 239.659 268.447C239.911 268.969 240.152 269.481 240.384 269.984H240.848C240.81 269.462 240.781 268.95 240.761 268.447C240.742 267.925 240.732 267.413 240.732 266.91V252.99H243.545ZM256.566 252.99C257.127 252.99 257.485 253.251 257.639 253.773L263.961 273H260.945L259.06 266.91H251.085L249.2 273H246.213L252.535 253.773C252.671 253.251 253.028 252.99 253.608 252.99H256.566ZM254.188 256.905L251.839 264.503H258.335L255.957 256.905C255.783 256.344 255.629 255.784 255.493 255.223H254.681C254.604 255.494 254.527 255.774 254.449 256.064C254.372 256.354 254.285 256.634 254.188 256.905ZM269.44 252.99V268.766C269.44 269.984 270.069 270.593 271.325 270.593H278.488L278.633 272.826C277.338 272.923 276.014 272.981 274.66 273C273.326 273.019 272.002 273.029 270.687 273.029C269.218 273.029 268.164 272.671 267.526 271.956C266.888 271.221 266.569 270.303 266.569 269.201V252.99H269.44ZM294.433 252.729C296.019 252.729 297.295 252.903 298.261 253.251C299.247 253.58 299.963 254.169 300.407 255.02C300.852 255.851 301.074 257.021 301.074 258.529C301.074 260.114 300.784 261.323 300.204 262.154C299.644 262.985 298.696 263.488 297.362 263.662V263.807C297.865 263.923 298.358 264.213 298.841 264.677C299.325 265.141 299.682 265.818 299.914 266.707L301.799 273H298.725L296.985 266.765C296.753 266.03 296.425 265.508 295.999 265.199C295.593 264.89 295.071 264.735 294.433 264.735C293.563 264.735 292.78 264.735 292.084 264.735C291.388 264.735 290.779 264.725 290.257 264.706V273H287.386V252.99C288.121 252.913 288.817 252.855 289.474 252.816C290.132 252.777 290.847 252.758 291.62 252.758C292.394 252.739 293.331 252.729 294.433 252.729ZM294.375 255.136C293.563 255.136 292.809 255.146 292.113 255.165C291.417 255.165 290.799 255.165 290.257 255.165V262.328H294.375C295.323 262.328 296.067 262.222 296.608 262.009C297.169 261.796 297.565 261.429 297.797 260.907C298.029 260.385 298.145 259.65 298.145 258.703C298.145 257.756 298.029 257.031 297.797 256.528C297.565 256.006 297.169 255.648 296.608 255.455C296.067 255.242 295.323 255.136 294.375 255.136ZM309.225 252.961C310.675 252.961 312.154 252.971 313.662 252.99C315.189 252.99 316.62 253.038 317.954 253.135L317.838 255.368H309.863C308.741 255.368 308.181 255.977 308.181 257.195V261.342H316.707V263.575H308.181V268.795C308.181 270.032 308.741 270.651 309.863 270.651H317.838L317.954 272.855C316.62 272.952 315.189 273 313.662 273C312.154 273.019 310.675 273.029 309.225 273.029C308.026 273.029 307.069 272.71 306.354 272.072C305.638 271.434 305.281 270.564 305.281 269.462V256.528C305.281 255.426 305.638 254.556 306.354 253.918C307.069 253.28 308.026 252.961 309.225 252.961ZM328.842 252.729C330.485 252.729 331.79 252.913 332.757 253.28C333.723 253.647 334.41 254.285 334.816 255.194C335.241 256.103 335.454 257.388 335.454 259.051C335.454 260.694 335.251 261.98 334.845 262.908C334.439 263.817 333.772 264.455 332.844 264.822C331.935 265.17 330.717 265.344 329.19 265.344C328.358 265.344 327.556 265.325 326.783 265.286C326.029 265.228 325.342 265.17 324.724 265.112V273H321.824V252.99C322.558 252.913 323.245 252.855 323.883 252.816C324.54 252.777 325.255 252.758 326.029 252.758C326.802 252.739 327.74 252.729 328.842 252.729ZM328.813 255.136C328.02 255.136 327.276 255.146 326.58 255.165C325.903 255.165 325.284 255.165 324.724 255.165V262.937H328.813C329.741 262.937 330.475 262.831 331.017 262.618C331.558 262.386 331.945 261.99 332.177 261.429C332.409 260.868 332.525 260.076 332.525 259.051C332.525 258.007 332.409 257.205 332.177 256.644C331.945 256.083 331.558 255.697 331.017 255.484C330.475 255.252 329.741 255.136 328.813 255.136ZM346.407 252.613C348.379 252.613 349.945 252.932 351.105 253.57C352.284 254.208 353.125 255.281 353.628 256.789C354.15 258.297 354.411 260.366 354.411 262.995C354.411 265.624 354.15 267.693 353.628 269.201C353.125 270.709 352.284 271.782 351.105 272.42C349.945 273.058 348.379 273.377 346.407 273.377C344.435 273.377 342.859 273.058 341.68 272.42C340.501 271.782 339.65 270.709 339.128 269.201C338.606 267.693 338.345 265.624 338.345 262.995C338.345 260.366 338.606 258.297 339.128 256.789C339.65 255.281 340.501 254.208 341.68 253.57C342.859 252.932 344.435 252.613 346.407 252.613ZM346.407 255.136C345.15 255.136 344.155 255.378 343.42 255.861C342.705 256.325 342.192 257.137 341.883 258.297C341.574 259.438 341.419 261.004 341.419 262.995C341.419 264.986 341.574 266.562 341.883 267.722C342.192 268.863 342.705 269.675 343.42 270.158C344.155 270.622 345.15 270.854 346.407 270.854C347.664 270.854 348.65 270.622 349.365 270.158C350.1 269.675 350.622 268.863 350.931 267.722C351.24 266.562 351.395 264.986 351.395 262.995C351.395 261.004 351.24 259.438 350.931 258.297C350.622 257.137 350.1 256.325 349.365 255.861C348.65 255.378 347.664 255.136 346.407 255.136ZM365.63 252.729C367.216 252.729 368.492 252.903 369.458 253.251C370.444 253.58 371.16 254.169 371.604 255.02C372.049 255.851 372.271 257.021 372.271 258.529C372.271 260.114 371.981 261.323 371.401 262.154C370.841 262.985 369.893 263.488 368.559 263.662V263.807C369.062 263.923 369.555 264.213 370.038 264.677C370.522 265.141 370.879 265.818 371.111 266.707L372.996 273H369.922L368.182 266.765C367.95 266.03 367.622 265.508 367.196 265.199C366.79 264.89 366.268 264.735 365.63 264.735C364.76 264.735 363.977 264.735 363.281 264.735C362.585 264.735 361.976 264.725 361.454 264.706V273H358.583V252.99C359.318 252.913 360.014 252.855 360.671 252.816C361.329 252.777 362.044 252.758 362.817 252.758C363.591 252.739 364.528 252.729 365.63 252.729ZM365.572 255.136C364.76 255.136 364.006 255.146 363.31 255.165C362.614 255.165 361.996 255.165 361.454 255.165V262.328H365.572C366.52 262.328 367.264 262.222 367.805 262.009C368.366 261.796 368.762 261.429 368.994 260.907C369.226 260.385 369.342 259.65 369.342 258.703C369.342 257.756 369.226 257.031 368.994 256.528C368.762 256.006 368.366 255.648 367.805 255.455C367.264 255.242 366.52 255.136 365.572 255.136ZM390.231 252.99V255.484H383.851V273H380.951V255.484H374.6V252.99H390.231ZM211.019 293.21L210.99 298.256H216.326V300.373H210.99V305.448H208.902L208.873 300.373H203.537V298.256H208.873V293.21H211.019ZM234.193 287.99C234.754 287.99 235.112 288.251 235.266 288.773L241.588 308H238.572L236.687 301.91H228.712L226.827 308H223.84L230.162 288.773C230.298 288.251 230.655 287.99 231.235 287.99H234.193ZM231.815 291.905L229.466 299.503H235.962L233.584 291.905C233.41 291.344 233.256 290.784 233.12 290.223H232.308C232.231 290.494 232.154 290.774 232.076 291.064C231.999 291.354 231.912 291.634 231.815 291.905ZM267.934 287.99L264.019 307.159C263.961 307.41 263.826 307.613 263.613 307.768C263.42 307.923 263.188 308 262.917 308H259.785C259.514 308 259.273 307.923 259.06 307.768C258.847 307.594 258.722 307.381 258.683 307.13L255.725 292.456C255.628 292.069 255.541 291.683 255.464 291.296C255.406 290.909 255.338 290.523 255.261 290.136H254.681C254.604 290.523 254.526 290.919 254.449 291.325C254.391 291.712 254.323 292.089 254.246 292.456L251.317 307.13C251.259 307.381 251.124 307.594 250.911 307.768C250.718 307.923 250.486 308 250.215 308H247.054C246.783 308 246.542 307.923 246.329 307.768C246.116 307.613 245.991 307.41 245.952 307.159L242.037 287.99H245.053L247.982 303.273C248.059 303.66 248.127 304.066 248.185 304.491C248.243 304.916 248.311 305.361 248.388 305.825H249.026C249.161 304.897 249.316 304.046 249.49 303.273L252.419 288.918C252.458 288.647 252.574 288.425 252.767 288.251C252.98 288.077 253.231 287.99 253.521 287.99H256.45C256.74 287.99 256.982 288.077 257.175 288.251C257.368 288.425 257.494 288.647 257.552 288.918L260.481 303.273C260.578 303.718 260.655 304.153 260.713 304.578C260.79 304.984 260.848 305.4 260.887 305.825H261.612C261.651 305.4 261.699 304.974 261.757 304.549C261.815 304.124 261.883 303.708 261.96 303.302L264.918 287.99H267.934ZM278.741 287.99C279.302 287.99 279.66 288.251 279.814 288.773L286.136 308H283.12L281.235 301.91H273.26L271.375 308H268.388L274.71 288.773C274.846 288.251 275.203 287.99 275.783 287.99H278.741ZM276.363 291.905L274.014 299.503H280.51L278.132 291.905C277.958 291.344 277.804 290.784 277.668 290.223H276.856C276.779 290.494 276.702 290.774 276.624 291.064C276.547 291.354 276.46 291.634 276.363 291.905ZM295.849 287.729C297.435 287.729 298.711 287.903 299.677 288.251C300.663 288.58 301.379 289.169 301.823 290.02C302.268 290.851 302.49 292.021 302.49 293.529C302.49 295.114 302.2 296.323 301.62 297.154C301.06 297.985 300.112 298.488 298.778 298.662V298.807C299.281 298.923 299.774 299.213 300.257 299.677C300.741 300.141 301.098 300.818 301.33 301.707L303.215 308H300.141L298.401 301.765C298.169 301.03 297.841 300.508 297.415 300.199C297.009 299.89 296.487 299.735 295.849 299.735C294.979 299.735 294.196 299.735 293.5 299.735C292.804 299.735 292.195 299.725 291.673 299.706V308H288.802V287.99C289.537 287.913 290.233 287.855 290.89 287.816C291.548 287.777 292.263 287.758 293.036 287.758C293.81 287.739 294.747 287.729 295.849 287.729ZM295.791 290.136C294.979 290.136 294.225 290.146 293.529 290.165C292.833 290.165 292.215 290.165 291.673 290.165V297.328H295.791C296.739 297.328 297.483 297.222 298.024 297.009C298.585 296.796 298.981 296.429 299.213 295.907C299.445 295.385 299.561 294.65 299.561 293.703C299.561 292.756 299.445 292.031 299.213 291.528C298.981 291.006 298.585 290.648 298.024 290.455C297.483 290.242 296.739 290.136 295.791 290.136ZM314.121 287.729C316.073 287.729 317.63 288.048 318.79 288.686C319.95 289.305 320.781 290.368 321.284 291.876C321.806 293.365 322.067 295.404 322.067 297.995C322.067 300.586 321.806 302.635 321.284 304.143C320.781 305.632 319.95 306.695 318.79 307.333C317.63 307.952 316.073 308.261 314.121 308.261C312.729 308.261 311.433 308.232 310.235 308.174C309.055 308.135 307.934 308.077 306.871 308V287.99C307.934 287.913 309.055 287.855 310.235 287.816C311.414 287.758 312.709 287.729 314.121 287.729ZM314.121 290.136C313.289 290.136 312.516 290.146 311.801 290.165C311.085 290.184 310.409 290.194 309.771 290.194V305.738C310.389 305.757 311.056 305.777 311.772 305.796C312.506 305.815 313.289 305.825 314.121 305.825C315.358 305.825 316.334 305.583 317.05 305.1C317.765 304.617 318.268 303.805 318.558 302.664C318.867 301.523 319.022 299.967 319.022 297.995C319.022 296.023 318.867 294.467 318.558 293.326C318.268 292.185 317.765 291.373 317.05 290.89C316.334 290.387 315.358 290.136 314.121 290.136ZM329.142 287.99V308H326.242V287.99H329.142ZM349.633 287.99V306.869C349.633 307.623 349.275 308 348.56 308H346.066C345.737 308 345.476 307.932 345.283 307.797C345.109 307.642 344.954 307.41 344.819 307.101L338.265 293.587C338.091 293.2 337.888 292.765 337.656 292.282C337.424 291.779 337.25 291.315 337.134 290.89H336.699C336.738 291.335 336.767 291.789 336.786 292.253C336.805 292.717 336.815 293.171 336.815 293.616V308H333.973V289.121C333.973 288.367 334.34 287.99 335.075 287.99H337.482C337.811 287.99 338.072 288.067 338.265 288.222C338.458 288.357 338.623 288.58 338.758 288.889L345.08 302.055C345.293 302.461 345.515 302.925 345.747 303.447C345.998 303.969 346.24 304.481 346.472 304.984H346.936C346.897 304.462 346.868 303.95 346.849 303.447C346.83 302.925 346.82 302.413 346.82 301.91V287.99H349.633ZM368.512 296.429V308H366.395L366.076 305.883C365.496 306.463 364.704 307.024 363.698 307.565C362.693 308.106 361.504 308.377 360.131 308.377C357.889 308.377 356.265 307.546 355.259 305.883C354.273 304.201 353.78 301.552 353.78 297.937C353.78 295.308 354.051 293.239 354.592 291.731C355.134 290.223 356.023 289.16 357.26 288.541C358.498 287.922 360.16 287.613 362.248 287.613C363.312 287.613 364.307 287.661 365.235 287.758C366.163 287.855 367.072 288.019 367.961 288.251L367.671 290.397C366.743 290.32 365.825 290.271 364.916 290.252C364.008 290.213 363.157 290.194 362.364 290.194C361.34 290.194 360.47 290.3 359.754 290.513C359.058 290.706 358.498 291.083 358.072 291.644C357.647 292.185 357.338 292.978 357.144 294.022C356.951 295.066 356.854 296.429 356.854 298.111C356.854 300.006 356.98 301.523 357.231 302.664C357.502 303.785 357.937 304.597 358.536 305.1C359.155 305.603 359.977 305.854 361.001 305.854C361.968 305.854 362.819 305.68 363.553 305.332C364.307 304.965 365.013 304.549 365.67 304.085V296.429H368.512Z" fill="white"/>
</svg>
