<svg width="171" height="171" viewBox="0 0 171 171" fill="none" xmlns="http://www.w3.org/2000/svg">
<path d="M170.836 84.9729C170.836 131.897 132.793 169.94 85.8694 169.94C38.9391 169.94 0.896484 131.897 0.896484 84.9729C0.896484 38.0426 38.9391 -1.65068e-05 85.8694 -1.65068e-05C132.793 -1.65068e-05 170.836 38.0426 170.836 84.9729Z" fill="#204E84"/>
<path d="M27.0396 132.287C39.7561 126.787 53.8757 125.284 67.4816 125.334C78.5631 125.372 81.4446 119.565 88.1975 111.772C96.0654 102.689 107.811 100.816 119.412 100.816C119.751 100.816 120.076 100.816 120.396 100.816C126.792 100.822 130.87 100.834 136.244 96.3743C142.415 91.2689 144.194 84.1653 149.481 78.7028C154.323 73.6977 161.702 70.8851 168.818 69.3065C167.515 62.3093 165.354 55.6128 162.448 49.3297C153.935 53.5017 148.159 61.2757 141.65 68.3104C132.592 78.1077 126.898 84.1966 112.553 84.8481C100.2 85.4118 87.3707 85.2615 79.484 96.2553C72.5995 105.852 71.1086 110.619 57.8159 109.936C46.772 109.373 38.7976 109.423 28.8688 115.067C22.592 118.631 17.4428 123.931 11.4229 126.975C13.6028 130.796 16.0647 134.43 18.7833 137.85C21.3517 135.426 24.3711 133.44 27.0396 132.287" fill="#0B8980"/>
<path d="M152.897 105.511C145.723 107.395 137.773 111.646 132.534 116.904C127.982 121.468 126.079 125.762 119.556 128.323C113.735 130.601 107.512 130.482 101.346 130.37C93.4209 130.226 85.577 130.082 78.7724 135.008C69.5138 141.713 56.3865 153.651 42.8711 158.602C47.4159 161.225 52.2236 163.435 57.2442 165.188C57.4382 165.063 57.626 164.937 57.8201 164.812C68.6124 157.895 78.3154 159.228 90.3221 157.857C108.176 155.823 118.643 132.611 135.92 127.465C140.202 126.188 144.747 126.301 149.298 126.413C151.89 126.476 154.487 126.538 157.035 126.338C157.837 126.282 158.725 126.188 159.677 126.069C163.464 119.233 166.338 111.827 168.128 104.002C161.881 103.971 155.639 104.797 152.897 105.511" fill="#0B8980"/>
<path d="M46.4204 86.139C56.376 81.0596 57.8229 71.4241 64.6694 63.7526C73.8123 53.4953 81.6561 58.2976 93.1695 60.2001C108.057 62.6567 115.981 50.2875 122.125 38.6449C127.192 29.0402 133.596 29.1695 143.921 30.7087C146.106 31.035 148.735 31.4413 151.315 31.4721C147.116 26.3004 142.32 21.6335 137.043 17.5699C135.874 17.8901 134.691 18.0995 133.497 18.1302C130.966 18.2103 128.522 17.9825 126.183 17.7485C119.188 17.0651 113.068 16.3816 108.001 23.8068C101.217 33.7317 97.6455 42.77 83.4786 42.0805C71.2757 41.4832 56.0128 40.9599 48.2428 52.9165C40.8977 64.2144 39.3462 75.2044 23.0305 76.3065C20.4877 76.4788 18.1604 76.3557 15.987 76.2388C10.0825 75.9124 5.29867 75.5861 0.422431 81.0965C0.367019 82.3771 0.330078 83.6701 0.330078 84.9692C0.330078 87.7028 0.465517 90.4118 0.717949 93.0839C6.50541 90.7382 13.0317 89.673 18.4805 89.4083C21.0418 89.279 23.5723 89.3036 26.0658 89.3282C33.1216 89.396 39.9003 89.4637 46.4204 86.139" fill="#0B8980"/>
<path d="M84.9687 170.041C62.6937 170.041 42.4119 161.463 27.2559 147.435C27.5057 147.348 27.744 147.266 27.9939 147.179C32.614 151.479 37.7222 155.28 43.2197 158.476C43.1035 158.517 42.9873 158.558 42.871 158.604C47.4097 161.225 52.2216 163.433 57.2484 165.194C57.3123 165.148 57.3704 165.107 57.4343 165.066C66.3257 168.222 75.8971 169.936 85.8694 169.936C88.9553 169.936 91.9946 169.774 94.9991 169.454C91.7098 169.838 88.3625 170.041 84.9687 170.041Z" fill="#4C5E81"/>
<path d="M85.8699 169.94C75.8962 169.94 66.3259 168.221 57.4383 165.062C57.5624 164.981 57.6866 164.895 57.8231 164.814C68.6161 157.894 78.3167 159.228 90.3198 157.856C100.809 156.665 108.747 148.162 117.014 140.305C123.704 137.245 129.048 133.211 133.181 128.45C134.075 128.078 134.987 127.743 135.925 127.47C138.997 126.551 142.212 126.353 145.458 126.353C146.736 126.353 148.015 126.384 149.299 126.415C150.578 126.446 151.863 126.477 153.135 126.477C154.445 126.477 155.742 126.44 157.033 126.34C157.759 126.284 158.553 126.21 159.391 126.104C146.451 149.527 122.773 166.192 94.9995 169.456C91.9956 169.773 88.9545 169.94 85.8699 169.94ZM43.2194 158.477C37.7206 155.281 32.6189 151.482 27.9951 147.175C37.2365 143.917 46.2357 139.746 55.7253 137.276C56.5446 137.059 57.3576 136.854 58.1769 136.662C61.578 138.952 65.3453 140.814 69.3298 142.254C61.5718 148.268 52.4918 154.995 43.2194 158.477Z" fill="#457DA2"/>
<path d="M57.246 165.195C52.2222 163.437 47.4095 161.227 42.8701 158.606C42.9881 158.563 43.0999 158.519 43.2178 158.476C52.4892 154.992 61.5681 148.267 69.3242 142.255C76.124 144.702 83.5511 145.913 90.8849 145.913C96.3434 145.913 101.758 145.242 106.813 143.913C110.508 142.939 113.911 141.728 117.016 140.306C108.745 148.161 100.808 156.662 90.3198 157.861C78.3161 159.227 68.6101 157.898 57.8173 164.816C57.6869 164.897 57.5627 164.984 57.4385 165.064C57.3702 165.108 57.3081 165.151 57.246 165.195V165.195ZM133.18 128.457C134.205 127.277 135.155 126.054 136.031 124.793C138.54 124.731 141.048 124.7 143.557 124.7C149.022 124.7 154.493 124.837 159.957 125.066C159.771 125.414 159.579 125.762 159.386 126.11C158.548 126.209 157.753 126.29 157.033 126.346C155.741 126.445 154.437 126.476 153.133 126.476C151.86 126.476 150.574 126.445 149.295 126.414C148.01 126.383 146.737 126.352 145.457 126.352C142.21 126.352 138.993 126.557 135.919 127.47C134.988 127.749 134.075 128.078 133.18 128.457" fill="#37A69F"/>
<path d="M1.66354 101.906C0.574973 96.4636 0 90.8365 0 85.0755C0 83.0212 0.0669557 80.9836 0.21768 78.9684L0.273504 78.1366C2.2385 53.87 14.3969 32.4784 32.4671 18.2601C33.0979 17.914 33.7287 17.6293 34.3539 17.3949C15.1338 32.0653 2.3613 54.7465 1.01595 80.4533C0.814983 80.6598 0.619643 80.872 0.418678 81.1009C0.362854 82.3848 0.323767 83.6743 0.323767 84.975C0.323767 87.7104 0.463326 90.4179 0.714533 93.0862C0.893169 93.0137 1.0774 92.941 1.25603 92.8741C1.54073 95.9276 1.98728 98.9365 2.57901 101.895C2.27756 101.895 1.97057 101.901 1.66354 101.906" fill="#4C5E81"/>
<path d="M24.1983 118.107C20.8236 117.722 18.1752 115.928 17.1918 111.648C16.4767 108.519 18.6948 107.826 15.6106 104.776C13.7892 102.977 11.6437 102.999 9.35286 102.535C7.18499 102.099 4.92771 101.893 2.66485 101.893C2.64251 101.893 2.61457 101.893 2.58105 101.893C1.98879 98.937 1.54185 95.931 1.2569 92.8748C6.91125 90.679 13.1969 89.6677 18.4769 89.4107C20.0078 89.3324 21.5332 89.3157 23.0474 89.3157C24.0587 89.3157 25.0644 89.3213 26.0645 89.3325C27.0646 89.3436 28.0647 89.3492 29.0593 89.3492C35.0377 89.3492 40.8205 88.9972 46.4134 86.1477C46.5419 86.0807 46.6704 86.0136 46.799 85.9465C46.6257 86.7511 46.4693 87.5389 46.3408 88.3044C45.0948 95.5399 43.9047 102.971 44.1282 110.022C39.0829 110.587 34.2666 112 28.8693 115.068C27.249 115.984 25.7013 117.023 24.1983 118.107V118.107ZM1.0166 80.4542C2.36314 54.7415 15.1357 32.0626 34.356 17.396C35.8423 16.8373 37.3006 16.5914 38.7086 16.5914C46.1955 16.5914 52.2186 23.5197 54.0904 27.1067C56.8449 32.4035 57.4428 38.6501 56.8561 45.2487C53.5093 46.9249 50.548 49.3721 48.2349 52.92C40.8932 64.2175 39.3455 75.2077 23.025 76.3084C22.1199 76.3699 21.2315 76.3922 20.3766 76.3922C18.8401 76.3922 17.3818 76.3196 15.985 76.2414C14.5882 76.1632 13.2584 76.0849 11.9733 76.0849C8.03987 76.0849 4.5366 76.8057 1.0166 80.4542" fill="#457DA2"/>
<path d="M25.7147 118.187C25.1977 118.187 24.6862 118.16 24.2021 118.105C25.7037 117.021 27.2493 115.987 28.8663 115.063C34.2621 112 39.0803 110.58 44.1295 110.019C44.1515 110.921 44.201 111.812 44.2835 112.698C43.849 112.869 43.4254 113.039 42.9964 113.215C38.1837 115.184 31.2479 118.187 25.7147 118.187" fill="#37A69F"/>
<path d="M0.71787 93.0831C0.466887 90.4116 0.333008 87.7065 0.333008 84.968C0.333008 83.6685 0.36645 82.3801 0.422224 81.0973C0.62301 80.8686 0.81823 80.6567 1.01902 80.4503C4.53835 76.8027 8.04097 76.0833 11.973 76.0833C13.2614 76.0833 14.5888 76.1613 15.9888 76.2394C17.3831 76.3119 18.8388 76.39 20.3782 76.39C21.2315 76.39 22.1183 76.3677 23.0274 76.3063C39.3469 75.202 40.8974 64.2145 48.2372 52.9148C50.5463 49.3675 53.5079 46.9191 56.8599 45.2458C55.6384 59.0331 49.2802 74.3821 46.7982 85.9441C46.6755 86.011 46.5417 86.0779 46.419 86.1448C40.8249 88.9949 35.0411 89.3463 29.0621 89.3463C28.0694 89.3463 27.071 89.3407 26.0671 89.3296C25.0688 89.3184 24.0592 89.3072 23.0497 89.3072C21.5382 89.3072 20.01 89.3295 18.4762 89.4076C13.2 89.6697 6.91431 90.6737 1.25883 92.8712C1.08036 92.9381 0.896346 93.0106 0.71787 93.0831" fill="#37A69F"/>
<path d="M144.574 95.5417C144.593 92.494 144.411 89.396 144.035 86.2729C145.622 83.6391 147.233 81.024 149.478 78.7037C154.251 73.7746 161.475 70.9714 168.493 69.3785C169.446 74.4644 169.941 79.7071 169.941 85.0689C169.941 88.562 169.728 91.9985 169.32 95.3787C165.639 95.0087 162.002 94.5384 158.615 94.5384C153.461 94.5384 148.889 94.8833 144.574 95.5417ZM140.335 69.7297C139.244 66.3746 137.965 63.0384 136.503 59.7586C133.01 51.9259 127.849 44.7894 122.675 37.6465C126.15 31.6639 130.257 29.933 135.795 29.933C138.209 29.933 140.893 30.2591 143.916 30.7106C145.985 31.0179 148.456 31.4004 150.896 31.4631C155.361 36.9441 159.148 42.9895 162.146 49.4739C153.799 53.6818 148.08 61.3577 141.646 68.3124C141.2 68.7953 140.762 69.2656 140.335 69.7297ZM111.174 20.2504C110.096 18.2687 109.111 16.2431 108.246 14.1737C106.408 9.79012 105.925 6.00861 106.446 2.84169C117.583 5.73895 127.83 10.8437 136.698 17.6604C135.644 17.93 134.578 18.1056 133.493 18.137C133.161 18.1495 132.822 18.1495 132.484 18.1495C130.314 18.1495 128.207 17.9551 126.175 17.7545C124.143 17.5538 122.186 17.3531 120.305 17.3531C117.019 17.3531 113.965 17.9677 111.174 20.2504" fill="#457DA2"/>
<path d="M144.031 86.2773C143.373 80.7916 142.114 75.2307 140.336 69.7325C140.762 69.2691 141.2 68.7994 141.645 68.3172C148.082 61.3598 153.8 53.6823 162.141 49.4804C165.04 55.7364 167.188 62.4119 168.491 69.3818C161.477 70.9724 154.251 73.7779 149.479 78.7063C147.231 81.0233 145.621 83.6409 144.031 86.2773" fill="#37A69F"/>
<path d="M122.672 37.649C118.567 31.9686 114.45 26.2881 111.17 20.2508C113.964 17.9675 117.017 17.3582 120.303 17.3582C122.186 17.3582 124.143 17.5551 126.174 17.7521C128.205 17.9552 130.31 18.1521 132.482 18.1521C132.821 18.1521 133.159 18.146 133.492 18.1398C134.575 18.1091 135.639 17.9306 136.698 17.6598C141.954 21.697 146.717 26.3374 150.896 31.47C148.453 31.4023 145.985 31.0208 143.917 30.7131C140.889 30.2638 138.206 29.9315 135.793 29.9315C130.254 29.9315 126.143 31.667 122.672 37.649" fill="#37A69F"/>
<path d="M80.8703 120.225C83.2247 117.944 85.3713 115.033 88.1966 111.773C89.7255 110.006 91.4073 108.508 93.1992 107.248C95.04 107.358 96.844 107.425 98.642 107.425C104.323 107.425 109.901 106.728 115.845 104.343C119.166 103.016 122.26 101.811 125.232 100.729C128.522 100.527 131.323 99.8663 134.454 97.732C137.775 96.8086 141.09 96.0747 144.576 95.5427C144.539 100.343 143.995 105.016 142.882 109.468C140.992 110.458 139.163 111.571 137.451 112.782C125.709 114.855 113.967 116.837 102.152 118.935C94.9176 120.213 87.9398 120.09 80.8703 120.225V120.225ZM60.1815 110C59.4354 110 58.6526 109.981 57.8147 109.939C56.1697 109.853 54.5858 109.78 53.0508 109.743C59.0929 108.024 65.3491 106.899 71.6297 106.465C68.9939 108.801 65.7772 110 60.1815 110" fill="#376091"/>
<path d="M48.0393 125.922C45.8056 121.83 44.6857 117.369 44.2861 112.695C47.1434 111.576 50.0672 110.583 53.0515 109.741C54.5831 109.778 56.169 109.85 57.8216 109.935C58.657 109.977 59.4379 109.996 60.1825 109.996C65.7759 109.996 68.9963 108.797 71.6296 106.466C73.5485 106.333 75.4675 106.267 77.3864 106.267C79.4325 106.267 81.4725 106.339 83.5064 106.503C86.8661 106.757 90.0745 107.06 93.2041 107.247C91.4062 108.506 89.7294 110.002 88.1979 111.769C85.3709 115.032 83.228 117.944 80.8732 120.226C77.9615 120.28 75.0256 120.377 72.0594 120.638C63.6935 121.376 56.0419 123.828 48.0393 125.922V125.922ZM125.233 100.728C128.399 99.5776 131.432 98.5727 134.458 97.7313C131.323 99.8681 128.526 100.528 125.233 100.728Z" fill="#24958D"/>
<path d="M137.451 112.783C139.161 111.574 140.992 110.457 142.879 109.468C142.665 110.298 142.439 111.129 142.195 111.941C140.608 112.228 139.032 112.509 137.451 112.783" fill="#24958D"/>
<path d="M167.336 107.184C167.618 106.13 167.882 105.07 168.126 104.004C168.026 104.004 167.926 104.004 167.825 104.004C168.465 101.181 168.967 98.302 169.324 95.3789C169.619 95.4103 169.901 95.4354 170.196 95.4667C169.713 99.4185 168.948 103.295 167.938 107.065C167.737 107.103 167.537 107.147 167.336 107.184" fill="#376091"/>
<path d="M167.016 107.245C167.31 106.174 167.579 105.091 167.829 104.002C167.93 104.002 168.03 104.002 168.13 104.002C167.886 105.073 167.623 106.131 167.335 107.182C167.228 107.207 167.122 107.226 167.016 107.245" fill="#24958D"/>
<path d="M11.8564 126.75C7.54403 119.12 4.37697 110.758 2.58105 101.892C2.60794 101.892 2.6402 101.892 2.66171 101.892C4.92005 101.892 7.17842 102.101 9.35073 102.537C11.6413 103.005 13.7867 102.972 15.6042 104.779C18.6906 107.828 16.4752 108.516 17.1904 111.646C18.169 115.931 20.8199 117.722 24.1966 118.109C20.0187 121.114 16.1472 124.491 11.8564 126.75" fill="#588AAB"/>
<path d="M16.4344 131.551C15.6777 131.551 14.9266 131.534 14.1864 131.495C13.2199 130.021 12.2975 128.513 11.4248 126.972C11.5684 126.9 11.712 126.823 11.8612 126.745C16.1527 124.486 20.0191 121.117 24.2002 118.107C24.6862 118.162 25.1943 118.19 25.7135 118.19C31.2423 118.19 38.1796 115.191 42.9959 113.219C43.4211 113.042 43.8464 112.871 44.2828 112.7C44.686 117.372 45.8017 121.835 48.0386 125.928C46.7461 126.265 45.4482 126.591 44.1281 126.9C37.0915 128.562 26.0836 131.551 16.4344 131.551" fill="#4BAFA9"/>
<path d="M142.885 109.461C143.994 105.011 144.546 100.342 144.583 95.5346C148.889 94.8828 153.464 94.5382 158.616 94.5382C162.007 94.5382 165.648 95.0019 169.327 95.378C168.97 98.2986 168.468 101.182 167.829 104.002C167.804 104.002 167.779 104.002 167.76 104.002C161.637 104.002 155.583 104.81 152.9 105.512C149.616 106.377 146.163 107.737 142.885 109.461Z" fill="#588AAB"/>
<path d="M142.198 111.939C142.442 111.125 142.674 110.299 142.88 109.46C146.16 107.733 149.614 106.375 152.9 105.518C155.584 104.81 161.636 104.003 167.757 104.003C167.775 104.003 167.8 104.003 167.825 104.003C167.575 105.092 167.306 106.175 167.018 107.251C166.58 107.339 166.148 107.426 165.71 107.514C157.844 109.085 150.015 110.537 142.198 111.939Z" fill="#4BAFA9"/>
<path d="M27.2578 147.433C27.5062 147.346 27.7438 147.265 27.9869 147.179H27.9922C27.7438 147.265 27.5062 147.346 27.2578 147.433Z" fill="#707E9A"/>
<path d="M27.986 147.181H27.9805C37.2244 143.925 46.2281 139.752 55.7177 137.278C56.5332 137.066 57.3487 136.859 58.1698 136.664C57.3487 136.859 56.5332 137.066 55.7177 137.278C46.2281 139.752 37.2243 143.925 27.986 147.181Z" fill="#6A97B5"/>
<path d="M58.1719 136.662C57.5648 136.249 56.9637 135.824 56.3747 135.387C52.847 132.733 50.2483 129.746 48.3721 126.516C54.5228 125.653 60.7403 125.332 66.8668 125.332C67.0732 125.332 67.2736 125.332 67.48 125.332C67.5104 125.332 67.5529 125.332 67.5894 125.332C73.9648 125.332 77.62 123.383 80.8684 120.231C87.936 120.092 94.9125 120.219 102.15 118.932C113.966 116.837 125.709 114.858 137.452 112.787C135.648 114.062 133.979 115.447 132.527 116.91C129.467 119.97 127.615 122.915 124.749 125.295C113.595 126.024 102.49 127.493 91.5062 130.019C80.4677 132.563 69.1801 133.996 58.1719 136.662" fill="#5F80A7"/>
<path d="M48.375 126.514C48.2662 126.314 48.1575 126.119 48.043 125.919C56.0461 123.829 63.7 121.373 72.0638 120.641C75.0292 120.377 77.9603 120.28 80.8742 120.223C77.6226 123.377 73.9759 125.329 67.5929 125.329C67.5585 125.329 67.5184 125.329 67.4841 125.329C67.2837 125.329 67.0834 125.329 66.8773 125.329C60.7518 125.329 54.5291 125.65 48.375 126.514" fill="#50AAA4"/>
<path d="M124.749 125.292C127.616 122.912 129.471 119.966 132.528 116.903C133.986 115.445 135.651 114.06 137.457 112.785C139.031 112.504 140.611 112.224 142.198 111.943C140.801 116.537 138.763 120.856 136.03 124.791C132.272 124.883 128.507 125.042 124.749 125.292" fill="#50AAA4"/>
<path d="M160.78 125.103C160.592 125.097 160.405 125.091 160.217 125.084C163.234 119.464 165.631 113.474 167.333 107.19C167.533 107.147 167.734 107.109 167.934 107.065C166.232 113.405 163.822 119.445 160.78 125.103" fill="#5F80A7"/>
<path d="M160.223 125.08C160.135 125.073 160.048 125.067 159.96 125.067C162.95 119.469 165.333 113.501 167.016 107.246C167.122 107.227 167.228 107.202 167.335 107.184C165.633 113.47 163.238 119.462 160.223 125.08" fill="#50AAA4"/>
<path d="M27.2544 147.434C22.1349 142.698 17.6042 137.336 13.7754 131.471C13.9104 131.477 14.0454 131.487 14.1858 131.493C15.6223 133.685 17.1613 135.808 18.7868 137.849C18.8948 137.746 19.0028 137.649 19.1108 137.546C21.8163 140.981 24.7865 144.205 27.9834 147.18C27.7404 147.267 27.5028 147.353 27.2544 147.434Z" fill="#7E8BA5"/>
<path d="M27.9839 147.181C24.7835 144.204 21.8176 140.987 19.1143 137.552C21.5998 135.262 24.4818 133.396 27.04 132.29C33.8486 129.347 41.0594 127.548 48.3708 126.52C50.2475 129.749 52.8447 132.731 56.3747 135.385C56.9668 135.826 57.5644 136.25 58.1732 136.664C57.3522 136.859 56.5367 137.066 55.7212 137.278C46.2315 139.752 37.2278 143.925 27.9839 147.181Z" fill="#79A1BC"/>
<path d="M18.7914 137.845C17.1669 135.801 15.6254 133.679 14.1943 131.491C14.9292 131.53 15.6806 131.546 16.4376 131.546C26.0848 131.546 37.0968 128.557 44.1361 126.899C45.4511 126.59 46.7496 126.259 48.0425 125.921C48.153 126.12 48.2635 126.319 48.374 126.513C41.0585 127.54 33.8535 129.342 27.0407 132.281C24.488 133.386 21.6038 135.254 19.1174 137.541C19.0069 137.646 18.9019 137.746 18.7914 137.845Z" fill="#6FBFBA"/>
<path d="M159.955 125.069C154.49 124.837 149.024 124.7 143.559 124.7C141.045 124.7 138.544 124.731 136.03 124.787C138.763 120.86 140.801 116.533 142.196 111.943C150.012 110.543 157.848 109.086 165.708 107.516C166.146 107.429 166.583 107.341 167.015 107.247C165.333 113.507 162.944 119.472 159.955 125.069" fill="#6FBFBA"/>
<path d="M15.6257 122.289C16.8521 122.289 16.8521 120.391 15.6257 120.391C14.4047 120.391 14.4047 122.289 15.6257 122.289Z" fill="white"/>
<path d="M16.5801 129.32C16.5801 129.214 16.5801 129.112 16.5801 129.011C16.5961 128.84 16.5374 129.267 16.5748 129.112C16.6068 128.963 16.4574 129.352 16.5268 129.214L16.5908 129.112C16.4148 129.363 16.5161 129.214 16.5695 129.16C16.6655 129.054 16.7668 128.952 16.8682 128.851C17.2362 128.483 17.2362 127.875 16.8682 127.507C16.5001 127.138 15.892 127.138 15.524 127.507C15.2892 127.741 15.0225 127.987 14.8732 128.285C14.7078 128.616 14.6758 128.957 14.6758 129.32C14.6758 129.838 15.1078 130.27 15.6253 130.27C16.1427 130.27 16.5801 129.838 16.5801 129.32" fill="white"/>
<path d="M27.0339 122.287C28.2548 122.287 28.2548 120.385 27.0339 120.385C25.8077 120.385 25.8077 122.287 27.0339 122.287Z" fill="white"/>
<path d="M42.4263 121.72C43.652 121.72 43.652 119.818 42.4263 119.818C41.1951 119.818 41.1951 121.72 42.4263 121.72Z" fill="white"/>
<path d="M37.9716 132.64C37.7804 132.449 37.5892 132.257 37.398 132.066C37.0319 131.7 36.4199 131.7 36.0538 132.066C35.6878 132.432 35.6878 133.044 36.0538 133.41C36.2451 133.601 36.4363 133.793 36.6221 133.984C36.9882 134.35 37.6056 134.35 37.9716 133.984C38.3323 133.618 38.3323 133.006 37.9716 132.64Z" fill="white"/>
<path d="M16.1948 134.266C17.4166 134.266 17.4166 132.367 16.1948 132.367C14.9676 132.367 14.9676 134.266 16.1948 134.266Z" fill="white"/>
<path d="M53.8245 138.25C54.0194 138.25 54.2088 138.25 54.3981 138.25C54.9159 138.25 55.3502 137.821 55.3502 137.303C55.3502 136.785 54.9159 136.351 54.3981 136.351C54.2088 136.351 54.0194 136.351 53.8245 136.351C53.3067 136.351 52.8779 136.785 52.8779 137.303C52.8779 137.821 53.3067 138.25 53.8245 138.25Z" fill="white"/>
<path d="M64.0874 129.136C64.2789 129.136 64.4703 129.136 64.6561 129.136C65.1742 129.136 65.6078 128.702 65.6078 128.184C65.6078 127.666 65.1742 127.232 64.6561 127.232C64.4703 127.232 64.2789 127.232 64.0874 127.232C63.5694 127.232 63.1357 127.666 63.1357 128.184C63.1357 128.702 63.5694 129.136 64.0874 129.136Z" fill="white"/>
<path d="M76.6329 130.842C76.8213 130.842 77.0096 130.842 77.198 130.842C77.7174 130.842 78.1512 130.414 78.1512 129.895C78.1512 129.375 77.7174 128.942 77.198 128.942C77.0096 128.942 76.8213 128.942 76.6329 128.942C76.1135 128.942 75.6797 129.375 75.6797 129.895C75.6797 130.414 76.1135 130.842 76.6329 130.842Z" fill="white"/>
<path d="M58.9598 122.291C60.1801 122.291 60.1801 120.393 58.9598 120.393C57.7283 120.393 57.7283 122.291 58.9598 122.291Z" fill="white"/>
<path d="M65.9922 117.346C65.9922 117.786 66.0374 118.176 66.3368 118.521C66.6305 118.848 67.105 118.871 67.5117 118.871C68.0257 118.871 68.4606 118.436 68.4606 117.916C68.4606 117.402 68.0257 116.967 67.5117 116.967C67.4269 116.967 67.3366 116.967 67.2462 116.962C67.1558 116.962 67.0316 116.922 67.3818 116.984L67.3365 116.973C67.4721 117.007 67.5851 117.075 67.6868 117.176C67.7263 117.227 67.7659 117.284 67.8054 117.334C67.8845 117.538 67.907 117.594 67.8845 117.504C67.8393 117.374 67.9127 117.798 67.8958 117.645C67.8845 117.549 67.8901 117.447 67.8901 117.346C67.8901 116.832 67.4608 116.397 66.9411 116.397C66.4215 116.397 65.9922 116.832 65.9922 117.346" fill="white"/>
<path d="M70.9334 121.148C72.1584 121.148 72.1584 119.248 70.9334 119.248C69.7084 119.248 69.7084 121.148 70.9334 121.148Z" fill="white"/>
<path d="M70.3615 124.566C71.5914 124.566 71.5914 122.667 70.3615 122.667C69.1373 122.667 69.1373 124.566 70.3615 124.566Z" fill="white"/>
<path d="M75.4951 124.572C75.6832 124.572 75.877 124.572 76.0652 124.572C76.5839 124.572 77.0115 124.139 77.0115 123.62C77.0115 123.101 76.5839 122.668 76.0652 122.668C75.877 122.668 75.6832 122.668 75.4951 122.668C74.9763 122.668 74.543 123.101 74.543 123.62C74.543 124.139 74.9763 124.572 75.4951 124.572Z" fill="white"/>
<path d="M85.7558 127.423C85.946 127.423 86.1363 127.423 86.3265 127.423C86.8452 127.423 87.2775 126.991 87.2775 126.472C87.2775 125.953 86.8452 125.521 86.3265 125.521C86.1363 125.521 85.946 125.521 85.7558 125.521C85.2428 125.521 84.8105 125.953 84.8105 126.472C84.8105 126.991 85.2428 127.423 85.7558 127.423Z" fill="white"/>
<path d="M100.584 127.989C101.813 127.989 101.813 126.087 100.584 126.087C99.3602 126.087 99.3602 127.989 100.584 127.989Z" fill="white"/>
<path d="M83.666 114.496C83.666 114.933 83.7121 115.325 84.0114 115.664C84.305 115.998 84.7829 116.016 85.1859 116.016C85.704 116.016 86.1358 115.584 86.1358 115.066C86.1358 114.548 85.704 114.116 85.1859 114.116C85.0995 114.116 85.0074 114.116 84.9211 114.11C84.8347 114.11 84.7081 114.07 85.0535 114.133L85.0074 114.122C85.1456 114.156 85.2607 114.225 85.3586 114.323C85.3989 114.375 85.4392 114.432 85.4853 114.484C85.5601 114.686 85.5831 114.738 85.5601 114.651C85.5198 114.525 85.5889 114.945 85.5716 114.795C85.5601 114.697 85.5658 114.594 85.5658 114.496C85.5658 113.978 85.1341 113.546 84.6159 113.546C84.0978 113.546 83.666 113.978 83.666 114.496" fill="white"/>
<path d="M101.345 112.787C101.345 113.227 101.392 113.608 101.697 113.954C101.99 114.288 102.459 114.306 102.87 114.306C103.38 114.306 103.814 113.872 103.814 113.356C103.814 112.834 103.38 112.406 102.87 112.406C102.776 112.406 102.688 112.406 102.6 112.4C102.518 112.394 102.383 112.359 102.735 112.423L102.688 112.406C102.823 112.447 102.94 112.511 103.04 112.611C103.081 112.664 103.128 112.717 103.163 112.775C103.239 112.975 103.263 113.027 103.233 112.939C103.198 112.81 103.269 113.233 103.251 113.08C103.239 112.986 103.245 112.881 103.245 112.787C103.245 112.265 102.811 111.837 102.295 111.837C101.779 111.837 101.345 112.265 101.345 112.787" fill="white"/>
<path d="M113.128 118.298C114.355 118.298 114.355 116.394 113.128 116.394C111.9 116.394 111.9 118.298 113.128 118.298Z" fill="white"/>
<path d="M144.677 119.629C144.677 119.819 144.677 120.009 144.677 120.199C144.677 120.719 145.106 121.148 145.627 121.148C146.141 121.148 146.576 120.719 146.576 120.199C146.576 120.009 146.576 119.819 146.576 119.629C146.576 119.114 146.141 118.679 145.627 118.679C145.106 118.679 144.677 119.114 144.677 119.629Z" fill="white"/>
<path d="M152.469 115.444C152.661 115.444 152.852 115.444 153.037 115.444C153.556 115.444 153.988 115.012 153.988 114.494C153.988 113.981 153.556 113.549 153.037 113.549C152.852 113.549 152.661 113.549 152.469 113.549C151.951 113.549 151.519 113.981 151.519 114.494C151.519 115.012 151.951 115.444 152.469 115.444Z" fill="white"/>
<path d="M160.075 111.072C160.075 111.514 160.119 111.9 160.424 112.243C160.716 112.573 161.19 112.591 161.594 112.591C162.117 112.591 162.547 112.162 162.547 111.645C162.547 111.122 162.117 110.692 161.594 110.692C161.507 110.692 161.42 110.692 161.327 110.686C161.246 110.686 161.115 110.649 161.457 110.711L161.414 110.699C161.551 110.736 161.669 110.798 161.769 110.898C161.806 110.954 161.85 111.01 161.893 111.06C161.968 111.259 161.993 111.315 161.962 111.228C161.924 111.097 161.993 111.52 161.98 111.371C161.974 111.271 161.974 111.172 161.974 111.072C161.974 110.555 161.538 110.12 161.022 110.12C160.505 110.12 160.075 110.555 160.075 111.072Z" fill="white"/>
<path d="M138.783 102.334C139.319 102.316 139.83 102.079 140.074 101.579C140.281 101.159 140.305 100.702 140.305 100.246C140.305 99.7281 139.873 99.2958 139.355 99.2958C138.838 99.2958 138.405 99.7281 138.405 100.246C138.405 100.349 138.405 100.453 138.399 100.556L138.393 100.678C138.381 100.891 138.436 100.453 138.399 100.648L138.375 100.751C138.326 100.934 138.478 100.55 138.387 100.702L138.478 100.575C138.619 100.483 138.643 100.459 138.564 100.508L138.698 100.447C138.862 100.435 138.893 100.428 138.783 100.434C138.265 100.453 137.833 100.849 137.833 101.384C137.833 101.89 138.265 102.353 138.783 102.334" fill="white"/>
<path d="M148.47 99.4877C148.661 99.4877 148.852 99.4877 149.042 99.4877C149.565 99.4877 149.995 99.0511 149.995 98.5346C149.995 98.0181 149.565 97.5877 149.042 97.5877C148.852 97.5877 148.661 97.5877 148.47 97.5877C147.954 97.5877 147.523 98.0181 147.523 98.5346C147.523 99.0511 147.954 99.4877 148.47 99.4877Z" fill="white"/>
<path d="M151.898 104.044C153.119 104.044 153.119 102.144 151.898 102.144C150.671 102.144 150.671 104.044 151.898 104.044Z" fill="white"/>
<path d="M154.748 106.897C155.972 106.897 155.972 104.998 154.748 104.998C153.523 104.998 153.523 106.897 154.748 106.897Z" fill="white"/>
<path d="M159.882 102.338C160.069 102.338 160.255 102.338 160.448 102.338C160.964 102.338 161.4 101.903 161.4 101.386C161.4 100.864 160.964 100.435 160.448 100.435C160.255 100.435 160.069 100.435 159.882 100.435C159.36 100.435 158.931 100.864 158.931 101.386C158.931 101.903 159.36 102.338 159.882 102.338Z" fill="white"/>
</svg>
