<svg width="170" height="171" viewBox="0 0 170 171" fill="none" xmlns="http://www.w3.org/2000/svg">
<path d="M169.553 85.388C169.553 132.122 131.671 170.013 84.9323 170.013C38.1937 170.013 0.303711 132.122 0.303711 85.388C0.303711 38.651 38.1937 0.763528 84.9323 0.763528C131.671 0.763528 169.553 38.651 169.553 85.388Z" fill="#ED6326"/>
<path d="M11.2479 76.1006C19.599 72.2459 26.6033 64.5556 29.424 56.3375C34.4791 41.5993 48.3131 31.543 62.2899 39.4006C63.312 43.9676 59.2632 43.4851 55.8482 43.0018C54.6518 42.8338 53.5346 42.6658 52.7343 42.711C48.1229 42.9693 43.9316 44.8606 42.0617 49.5084C38.1396 59.2541 53.0592 63.2735 54.9371 53.6134C51.0546 51.8814 44.9537 48.8484 53.8674 48.3737C59.3266 48.0838 61.4658 52.3822 60 57.3469C58.7481 61.5954 53.5346 64.9866 61.2519 66.557C65.9821 67.5181 70.7995 63.9668 74.3175 61.307C82.8271 54.8606 83.3025 46.9428 74.7691 40.5772C71.6869 38.2795 67.028 35.9096 65.6414 32.0438C64.2073 28.052 68.0897 22.7466 73.1765 25.0776C77.8037 27.1947 73.0339 33.4676 80.0222 35.3241C86.242 36.9753 87.9931 29.8902 91.8993 26.2114C100.869 17.7731 111.589 25.7884 99.2997 32.3465C95.7579 34.2378 88.3575 37.0616 90.9247 42.1246C93.3175 46.8501 101.51 44.8503 104.87 42.1571C107.96 39.6771 112.595 33.1871 113.364 29.0781C114.623 22.4265 108.847 22.104 107.397 17.5798C105.773 12.5247 114.726 10.5542 123.085 9.89893C111.589 4.05707 98.5787 0.762555 84.808 0.762555C40.3106 0.762555 3.83953 35.0919 0.44043 78.7058C3.99007 78.1433 7.77745 77.7074 11.2479 76.1006" fill="#EF8A34"/>
<path d="M147.123 64.7308C145.58 64.7218 143.79 63.1541 141.886 63.6827C138.103 64.7341 134.614 72.4968 133.301 75.7126C128.163 88.2333 152.909 86.4046 154.821 99.9241C155.946 107.884 151.071 113.628 144.143 115.993C140.31 117.305 137.676 117.946 134.064 120.526C131.783 122.154 129.837 124.238 127.285 125.17C130.248 124.513 134.943 124.434 137.774 124.484C144.496 124.604 144.554 125.47 141.345 130.831C140.105 132.899 130.798 147.301 126.669 140.268C124.864 137.192 130.757 134.046 129.435 130.731C128.59 128.606 124.33 129.503 119.75 130.405C113.094 131.712 105.756 133.014 107.226 125.02C107.899 121.333 112.38 120.506 115.179 119.369C119.906 117.456 124.363 115.262 128.253 111.865C139.916 101.683 127.983 85.171 115.638 83.5951C111.764 83.1002 103.959 82.8335 102.835 77.7891C101.193 70.4121 109.433 73.7838 112.93 75.2209C128.574 81.6557 123.887 62.4433 128.089 52.9324C130.584 47.2864 135.69 40.03 140.877 37.1582C144.225 35.3041 147.796 34.1944 150.619 32.2016C148.247 29.2723 145.686 26.5023 142.945 23.9144C141.911 24.4258 140.622 24.8271 139.063 25.0774C134.278 25.8448 128.311 24.5136 124.995 28.6395C121.868 32.5266 121.712 39.2183 119.299 43.7193C116.508 48.9213 112.79 54.3375 106.684 54.6354C104.771 54.7282 102.679 53.9329 100.602 53.1368C98.1562 52.1953 95.7185 51.2539 93.6256 51.7849C84.983 53.9673 96.9579 64.3664 94.6105 71.1056C92.7064 76.5645 76.915 94.6557 73.1641 84.7327C70.8495 78.6123 86.6163 66.8754 72.5813 68.2502C62.3054 69.2573 54.8037 81.0778 44.298 79.5373C42.4348 75.2915 46.8505 71.1171 42.64 68.1238C38.5608 65.2307 34.2191 69.6184 32.4298 73.3619C30.6159 77.1686 29.7869 84.0679 33.4393 87.0308C38.3475 91.0173 45.488 86.3676 50.3387 85.1628C54.106 84.2263 60.1468 84.2304 59.4574 89.8436C58.6531 96.4441 44.1995 102.368 38.5362 101.198C28.6707 99.1608 32.4873 85.5272 20.3646 83.5984C12.5592 82.3574 6.46914 88.5853 0.740234 95.1965C1.06033 97.9527 1.51178 100.668 2.08631 103.336C7.20785 99.609 16.8764 93.1307 20.3564 94.3881C23.2373 95.4231 25.4862 101.158 27.8746 103.316C31.1576 106.284 34.7607 109.282 39.1026 109.718C43.5183 110.161 49.2389 108.981 52.8831 106.465C56.3631 104.067 58.3576 98.6831 63.4381 99.0147C63.6187 106.318 68.8223 105.586 73.6155 101.655C80.2144 96.2537 83.1937 91.2274 93.0346 90.3976C100.282 89.7869 112.011 90.4354 115.121 98.2613C117.945 105.368 112.544 112.992 105.617 114.896C102.917 115.637 99.6172 115.131 96.2931 114.63C90.6298 113.774 84.9174 112.912 82.1268 118.237C75.8808 130.114 89.2181 136.796 98.5994 138.234C102.367 138.815 109.122 137.593 111.379 141.49C115.729 149.02 104.509 157.896 97.6063 157.415C88.0198 156.754 89.4316 143.249 83.399 142.647C76.6031 141.961 81.5358 153.512 75.9957 155.782C67.4516 159.293 69.8893 147.541 71.498 143.874C74.0834 138.014 77.629 133.876 74.9041 127.324C71.6867 119.579 54.2866 109.909 45.9149 111.975C39.0944 113.658 41.3022 119.329 45.7589 121.783C50.0925 124.168 57.7173 123.377 61.2138 126.898C68.9453 134.668 55.5177 144.1 47.3594 143.674C41.6223 143.374 30.5749 140.624 28.4081 134.552C27.0292 130.715 29.869 126.547 30.0578 122.81C30.78 108.885 12.6577 102.754 3.21077 107.9C13.0681 143.709 45.8574 170.013 84.8024 170.013C131.528 170.013 169.423 132.123 169.423 85.3877C169.423 76.5883 168.077 68.1033 165.59 60.1247C159.762 62.385 152.901 64.7644 147.123 64.7308" fill="#EF8A34"/>
<path d="M43.6445 26.8373C38.865 24.9627 34.3163 27.2579 30.2515 29.1526C26.2016 31.0383 20.886 31.9495 18.1687 35.8245L21.0126 39.2312C15.4513 40.4745 9.75613 49.5228 10.2177 55.1309C11.0292 64.78 18.124 58.595 20.4245 53.412C22.8738 47.9096 25.6953 40.6629 31.2193 37.0864C34.9417 34.6743 45.0739 33.6581 43.6445 26.8373" fill="#EDBA3A"/>
<path d="M74.3862 160.215C70.7257 160.371 66.1961 160.531 64.0121 156.935C61.1591 152.231 66.3653 150.257 65.3041 145.423L63.5968 141.446C60.4746 146.79 44.0792 146.746 44.8328 152.802C45.6018 158.938 62.0588 160.391 66.4422 161.448C69.5875 162.209 74.9706 164.899 78.362 163.592C85.0832 160.992 77.7622 160.071 74.3862 160.215" fill="#EDBA3A"/>
<path d="M157.301 76.1414L149.916 74.4377C145.761 70.5316 130.884 75.6024 140.265 82.2599C144.886 85.5355 154.332 84.873 157.17 90.4672C158.315 92.7213 155.477 97.8273 158.994 98.3442C161.701 98.7425 163.239 92.5046 163.574 90.9375C164.719 85.6982 162.593 78.4249 157.301 76.1414" fill="#EDBA3A"/>
<path d="M63.0334 11.9736C60.5812 12.0408 56.8481 14.6898 57.879 17.6653C59.1129 21.2164 64.9078 19.5068 67.5787 19.3686C72.1083 19.1351 82.8544 19.2764 82.995 26.0842C90.6563 27.0541 88.4071 18.8875 92.1089 16.0456C94.6236 14.1088 104.565 15.2584 97.5444 9.82826C92.7571 6.12412 84.2914 7.32135 76.8175 8.51858C73.1157 9.11133 69.656 9.7041 67.0085 9.70254L63.0334 11.9736" fill="#EDBA3A"/>
<path d="M124.351 40.2246C122.073 41.8973 120.528 46.8214 119.254 49.4508L116.983 55.6972C114.53 60.1681 93.7327 57.6957 101.212 66.9266C103.482 69.7288 109.201 68.4886 112.467 68.6025C117.222 68.7682 117.015 69.6858 119.254 64.2161C121.914 57.7052 125.841 51.1753 128.326 44.3403C129.927 39.9331 129.608 36.3742 124.351 40.2246Z" fill="#EDBA3A"/>
<path d="M98.1567 157.434C97.9645 157.434 97.7883 157.428 97.6041 157.414C88.0259 156.752 89.4354 143.247 83.397 142.646C83.2048 142.626 83.0206 142.616 82.8445 142.616C76.8701 142.616 81.3789 153.576 76.0052 155.781C74.916 156.226 74.0031 156.426 73.2503 156.426C68.0608 156.426 70.0949 147.074 71.5044 143.873C74.0831 138.012 77.6389 133.874 74.908 127.323C71.9929 120.299 57.4095 111.693 48.4721 111.693C47.5591 111.693 46.6942 111.783 45.9173 111.974C39.0941 113.657 41.3045 119.327 45.7652 121.782C50.0898 124.167 57.7139 123.375 61.2216 126.897C68.7816 134.496 56.0962 143.682 47.9035 143.688C47.7273 143.688 47.5431 143.682 47.3669 143.673C41.6248 143.372 30.5811 140.622 28.4108 134.551C27.0334 130.714 29.8684 126.546 30.0606 122.809C30.6131 112.184 20.1862 106.094 11.0245 106.094C10.0474 106.094 9.09438 106.162 8.17341 106.3C7.67688 104.213 7.2685 102.102 6.94015 99.9698C11.3288 97.0899 16.4301 94.2269 19.3292 94.2269C19.7136 94.2269 20.066 94.2773 20.3623 94.3862C23.2374 95.4217 25.4877 101.157 27.8743 103.314C31.1577 106.283 34.7615 109.281 39.1101 109.716C39.7108 109.778 40.3515 109.807 41.0002 109.807C45.0605 109.807 49.7454 108.632 52.8928 106.464C54.5345 105.327 55.8479 103.519 57.3214 101.967C62.591 110.037 71.5125 115.295 82.2599 117.985C82.2118 118.07 82.1717 118.15 82.1317 118.235C75.8851 130.113 89.2192 136.795 98.6051 138.233C102.369 138.814 109.12 137.591 111.379 141.489C115.615 148.822 105.084 157.434 98.1567 157.434V157.434ZM129.558 142.185C128.469 142.185 127.476 141.629 126.675 140.267C124.865 137.191 130.759 134.045 129.438 130.729C129.053 129.762 127.956 129.421 126.459 129.421C124.649 129.421 122.246 129.912 119.755 130.403C117.257 130.889 114.662 131.38 112.484 131.38C108.832 131.38 106.309 130.018 107.222 125.018C107.903 121.331 112.38 120.504 115.183 119.367C115.839 119.102 116.48 118.836 117.121 118.556C121.253 118.611 125.257 119.097 128.989 120.504C130.191 120.955 131.192 121.497 132.016 122.118C130.527 123.334 129.053 124.527 127.291 125.168C129.189 124.747 131.8 124.567 134.179 124.502C136.966 129.221 134.243 136.189 130.631 142.025C130.263 142.13 129.91 142.185 129.558 142.185ZM40.1753 101.346C39.5747 101.346 39.0221 101.298 38.5336 101.197C28.6752 99.1593 32.4871 85.5257 20.3703 83.5972C19.6896 83.4899 19.0249 83.4379 18.3762 83.4379C13.7634 83.4379 9.74312 86.023 6.01918 89.5548C5.91506 85.5946 6.08318 81.6111 6.51564 77.6549C8.12534 77.2906 9.71908 76.8093 11.2487 76.1005C15.5813 74.0992 19.5535 71.0656 22.7649 67.4593C22.7649 73.5121 24.5668 78.9083 30.6692 78.9932C30.6933 78.9932 30.7172 78.994 30.7413 78.994C30.8134 78.994 30.8855 78.9924 30.9495 78.9892C30.6773 82.0748 31.2618 85.2566 33.4401 87.0297C34.8657 88.1829 36.4674 88.6129 38.1572 88.6129C42.2895 88.6129 46.8944 86.0174 50.338 85.1613C50.9066 85.0195 51.5313 84.8986 52.18 84.8161C52.3161 89.0582 53.093 92.8959 54.4304 96.3387C50.1459 99.3035 44.0915 101.346 40.1753 101.346V101.346ZM46.1897 79.6739C45.573 79.6739 44.9404 79.6298 44.2997 79.5353C42.4337 75.29 46.8544 71.116 42.6419 68.1225C41.7129 67.4666 40.7759 67.1847 39.863 67.1847C39.7428 67.1847 39.6307 67.1887 39.5106 67.1983C40.9441 64.0982 42.4817 60.9092 44.2436 57.87C45.4769 58.6989 46.9825 59.1482 48.4721 59.1482C51.3551 59.1482 54.1901 57.4728 54.9349 53.6135C52.9008 52.7046 50.258 51.44 49.4892 50.3733C49.5612 50.282 49.6413 50.1907 49.7214 50.1002C50.0657 49.7102 50.5943 49.2217 51.251 48.6531C51.9237 48.5273 52.7807 48.4312 53.8698 48.3744C54.046 48.3648 54.2142 48.36 54.3904 48.36C58.8271 48.36 60.8772 51.5633 60.3726 55.5852C55.8078 62.0913 53.2932 70.6419 52.4603 78.2564C50.4582 79.1205 48.384 79.6739 46.1897 79.6739V79.6739ZM78.0394 43.5757C77.1504 42.5474 76.0693 41.5447 74.7719 40.5773C72.4174 38.821 69.142 37.024 67.1078 34.5485C69.4863 31.5293 70.2951 28.8489 67.5803 27.3065C67.2279 27.1046 66.8515 26.9453 66.4511 26.8211C67.4041 25.4629 68.9177 24.5067 70.7196 24.5067C71.4884 24.5067 72.3133 24.6821 73.1782 25.0777C77.7991 27.1943 73.0341 33.4674 80.0175 35.3237C80.6582 35.4919 81.2428 35.5696 81.7873 35.5696C86.6164 35.5696 88.3863 29.5168 91.902 26.2109C94.6649 23.6114 97.5961 22.5734 99.9666 22.5734C105.292 22.5734 107.799 27.8086 99.3019 32.347C96.2987 33.9519 90.5086 36.2271 90.3964 39.9735C86.4002 41.1747 82.1397 42.2086 78.0394 43.5757V43.5757ZM59.0272 43.3002C58.6668 43.3002 58.2904 43.281 57.906 43.249C59.3796 42.0469 60.8852 40.7759 62.3107 39.493C62.9594 42.5698 61.2616 43.3002 59.0272 43.3002ZM108.151 19.149C107.847 18.687 107.591 18.1776 107.398 17.6002C107.679 18.0815 107.935 18.5957 108.151 19.149Z" fill="#F1823E"/>
<path d="M6.51367 77.6556C7.24288 71.0825 8.71703 64.5801 10.9282 58.3591C11.5006 59.6591 12.3395 60.1939 13.2883 60.1947C15.7581 60.1947 19.0121 56.6114 20.4313 53.4099C22.8777 47.9087 25.6926 40.6614 31.2204 37.0851C32.4515 36.2877 34.3803 35.6432 36.364 34.892C31.3537 39.4531 27.9821 46.0771 25.5671 52.2777C24.4615 55.1467 22.7679 61.6107 22.7679 67.4608C19.5532 71.0661 15.5856 74.1005 11.2496 76.1015C9.71279 76.8103 8.12106 77.291 6.51367 77.6556V77.6556ZM48.4704 59.1487C46.9807 59.1487 45.4752 58.6994 44.2442 57.8714C45.7888 55.2016 47.5138 52.6486 49.4819 50.3739C50.2581 51.4403 52.9005 52.7058 54.9313 53.6138C54.1864 57.4738 51.3559 59.1487 48.4704 59.1487ZM60.3729 55.5866C60.8747 51.5642 58.8204 48.3612 54.3824 48.3612C54.2178 48.3612 54.0453 48.3651 53.8728 48.3753C52.7829 48.4325 51.9204 48.5281 51.2461 48.6544C52.877 47.2477 55.3234 45.351 57.903 43.2497C58.2872 43.2818 58.6636 43.3014 59.0322 43.3014C61.259 43.3014 62.9604 42.5706 62.3096 39.4946C64.1523 37.8292 65.8459 36.1427 67.1004 34.5494C69.1391 37.0248 72.4165 38.8219 74.7688 40.5782C76.0626 41.5458 77.1525 42.5487 78.0385 43.5766C73.3888 45.1236 68.9274 47.0956 65.2265 50.2179C63.3996 51.7524 61.7921 53.5714 60.3729 55.5866V55.5866ZM90.3958 39.9745C90.5056 36.2281 96.2922 33.9527 99.2952 32.3477C107.803 27.8093 105.294 22.574 99.9617 22.574C97.5938 22.574 94.6612 23.6129 91.9012 26.2122C88.3885 29.5179 86.6164 35.5703 81.7864 35.5703C81.2376 35.5703 80.6574 35.4926 80.0144 35.3248C73.0282 33.4689 77.7954 27.1954 73.1771 25.0784C72.3146 24.6832 71.4835 24.5075 70.7151 24.5075C68.9117 24.5075 67.4062 25.4633 66.4496 26.8222C65.6499 26.572 64.7717 26.4693 63.8464 26.4693C61.7608 26.4693 59.4712 26.9939 57.4169 27.5192C55.3704 28.0438 53.567 28.5683 52.4379 28.5683C52.1321 28.5683 51.8733 28.5291 51.6773 28.4405L46.5729 29.5767C45.3419 29.8237 44.1815 30.1742 43.0759 30.6156C43.711 29.5916 43.9619 28.3582 43.6483 26.8363C42.3859 26.3439 41.147 26.1392 39.9317 26.1392C36.513 26.1392 33.2591 27.7537 30.256 29.1509C29.6052 29.4512 28.9309 29.7264 28.2409 29.993C35.7211 21.7405 44.401 15.1839 55.1665 11.472C62.929 8.79825 73.3339 5.49488 82.1001 5.49488C83.1821 5.49488 84.2407 5.54506 85.26 5.65326L97.186 7.92556C100.605 11.7292 105.003 13.4605 107.403 17.6013C107.591 18.1784 107.842 18.688 108.148 19.1506C108.665 20.4569 109.01 21.9843 109.112 23.8254C109.653 33.5073 99.3971 37.1502 91.666 39.5848C91.2426 39.7165 90.8192 39.8459 90.3958 39.9745V39.9745ZM69.8369 19.309C74.9492 19.309 82.8763 20.2421 83.0018 26.0835C83.4252 26.1369 83.8173 26.1628 84.1858 26.1628C90.4272 26.1628 88.6159 18.7288 92.1129 16.0448C94.6299 14.1074 104.572 15.2568 97.5467 9.82778C95.1238 7.95381 91.7601 7.33359 88.0592 7.33359C84.4445 7.33359 80.5162 7.92558 76.8153 8.51757C73.1223 9.10878 69.6644 9.70156 67.022 9.70156H67.0142L63.0388 11.9723C60.5846 12.0397 56.8524 14.6883 57.8795 17.6648C58.499 19.4384 60.2553 19.8994 62.192 19.8994C64.1209 19.8994 66.2458 19.4368 67.5788 19.3678C68.2217 19.3349 68.9901 19.309 69.8369 19.309" fill="#F2A149"/>
<path d="M88.0468 161.978C85.7213 161.978 83.3958 161.908 81.1023 161.793C81.2861 160.676 77.6101 160.199 75.1088 160.199C74.8611 160.199 74.6134 160.205 74.3896 160.214C73.6384 160.245 72.8552 160.28 72.0561 160.28C68.9715 160.28 65.7509 159.794 64.0168 156.933C61.1639 152.229 66.3743 150.256 65.3034 145.422L63.6013 141.444C60.4767 146.79 44.0784 146.744 44.8376 152.801C44.9414 153.627 45.325 154.369 45.9324 155.035C27.808 146.223 13.9191 127.969 8.73268 108.534C8.52491 107.794 8.34114 107.049 8.16533 106.3C9.09232 106.163 10.0433 106.095 11.0183 106.095C20.1843 106.095 30.613 112.185 30.0616 122.809C29.8698 126.547 27.0329 130.714 28.4074 134.552C30.573 140.623 41.6171 143.373 47.3629 143.674C47.5387 143.684 47.7225 143.688 47.8983 143.688C56.0974 143.684 68.7796 134.497 61.2198 126.898C57.7116 123.376 50.0879 124.167 45.7646 121.782C41.2974 119.328 39.0918 113.658 45.9164 111.975C46.6915 111.784 47.5546 111.694 48.4736 111.694C57.4079 111.694 71.9842 120.3 74.909 127.323C77.6341 133.876 74.0779 138.013 71.5047 143.874C70.0902 147.075 68.0604 156.427 73.2468 156.427C73.998 156.427 74.909 156.227 75.9958 155.782C81.374 153.577 76.8669 142.617 82.8444 142.617C83.0202 142.617 83.204 142.627 83.3958 142.647C89.4292 143.248 88.0228 156.753 97.6044 157.414C97.7882 157.429 97.964 157.434 98.1478 157.434C105.076 157.434 115.617 148.824 111.374 141.49C109.12 137.593 102.367 138.814 98.6034 138.233C89.2215 136.796 75.884 130.113 82.1252 118.237C82.1652 118.151 82.2131 118.071 82.2611 117.986C84.2909 118.496 86.4006 118.918 88.5582 119.243C90.7159 119.569 92.9375 119.694 95.207 119.694C98.6593 119.694 102.199 119.408 105.748 119.123C109.296 118.838 112.852 118.552 116.336 118.552C116.592 118.552 116.864 118.557 117.119 118.557C116.48 118.838 115.833 119.103 115.185 119.368C112.38 120.505 107.897 121.332 107.226 125.019C106.307 130.018 108.824 131.381 112.476 131.381C114.658 131.381 117.255 130.89 119.748 130.404C122.242 129.913 124.647 129.422 126.453 129.422C127.956 129.422 129.05 129.763 129.434 130.73C130.753 134.046 124.863 137.191 126.669 140.267C127.468 141.63 128.459 142.186 129.554 142.186C129.905 142.186 130.257 142.131 130.625 142.025C128.835 144.921 126.821 147.541 125.159 149.464C116.544 159.413 102.271 161.978 88.0468 161.978V161.978ZM127.284 125.169C129.05 124.528 130.521 123.336 132.015 122.119C132.942 122.82 133.653 123.621 134.173 124.503C131.799 124.568 129.186 124.748 127.284 125.169ZM41.0017 109.808C40.3464 109.808 39.7152 109.779 39.1078 109.717C34.7605 109.282 31.1564 106.284 27.8719 103.315C25.4825 101.158 23.237 95.423 20.3601 94.3874C20.0564 94.2787 19.7128 94.2283 19.3292 94.2283C16.4284 94.2283 11.3299 97.0908 6.94267 99.9709C6.42323 96.537 6.11152 93.0544 6.01562 89.555C9.73959 86.0244 13.7593 83.4392 18.3703 83.4392C19.0256 83.4392 19.6889 83.4904 20.3681 83.5982C32.491 85.5265 28.6711 99.1598 38.5324 101.198C39.0199 101.298 39.5713 101.346 40.1707 101.346C44.0864 101.346 50.1438 99.3044 54.4272 96.3396C55.2103 98.3487 56.1773 100.224 57.32 101.968C55.8496 103.52 54.5311 105.328 52.8848 106.465C49.7442 108.633 45.0613 109.808 41.0017 109.808V109.808ZM38.1568 88.6136C36.4627 88.6136 34.8644 88.1837 33.4419 87.0305C31.2523 85.2573 30.6769 82.0759 30.9486 78.9904C35.7194 78.7954 37.3657 71.8973 39.0598 68.1917C39.2117 67.8617 39.3635 67.5308 39.5074 67.1992C39.6273 67.1904 39.7391 67.1856 39.859 67.1856C40.77 67.1856 41.7129 67.4677 42.6399 68.123C46.8514 71.1166 42.4322 75.2905 44.3022 79.5371C44.9415 79.6306 45.5648 79.6745 46.1881 79.6745C48.3857 79.6745 50.4475 79.1215 52.4534 78.2576C52.3974 78.8162 52.3415 79.37 52.3015 79.9182C52.1656 81.6076 52.1257 83.2402 52.1737 84.8177C51.5264 84.8992 50.911 85.0207 50.3357 85.1621C46.8914 86.018 42.2883 88.6136 38.1568 88.6136" fill="#F2A149"/>
<path d="M20.7559 39.2937C20.8069 39.2258 20.8508 39.1609 20.8945 39.0937L21.0113 39.2302C20.9237 39.2492 20.8434 39.2704 20.7559 39.2937Z" fill="#F2A149"/>
<path d="M13.2891 60.1951C12.337 60.1944 11.4965 59.6596 10.9238 58.3594C13.3337 51.5761 16.6138 45.1274 20.7568 39.2938C20.8386 39.2708 20.9279 39.2499 21.0097 39.2306L20.8981 39.0938C21.1882 38.6921 21.4782 38.2927 21.7683 37.8963C23.836 35.1286 25.9781 32.4844 28.2393 29.9935C28.931 29.7272 29.6079 29.452 30.255 29.1515C33.2525 27.7547 36.5177 26.1399 39.9317 26.1399C41.1515 26.1399 42.3862 26.3444 43.6432 26.8368C43.9631 28.3594 43.7102 29.5926 43.0705 30.6168C40.5565 31.6216 38.3325 33.0973 36.3615 34.8928C34.383 35.6441 32.4492 36.2889 31.2219 37.0855C25.6955 40.6624 22.8765 47.9092 20.4295 53.411C19.0088 56.6115 15.7585 60.1951 13.2891 60.1951" fill="#F1C84E"/>
<path d="M81.1024 161.792C74.9382 161.481 68.958 160.825 63.6602 160.239C57.4347 159.547 51.4853 157.734 45.9344 155.034C45.3288 154.368 44.9453 153.626 44.838 152.8C44.079 146.744 60.4862 146.788 63.6066 141.444L65.3086 145.421C66.3743 150.255 61.1608 152.229 64.0206 156.932C65.7533 159.793 68.9734 160.279 72.0555 160.279C72.8528 160.279 73.6425 160.244 74.3939 160.214C74.6162 160.204 74.8616 160.198 75.1146 160.198C77.6063 160.198 81.2864 160.675 81.1024 161.792" fill="#F1C84E"/>
<path d="M84.1821 26.1638C83.815 26.1638 83.4245 26.138 82.995 26.0842C82.8778 20.2433 74.9432 19.31 69.8356 19.31C68.9922 19.31 68.2191 19.3358 67.5787 19.3686C66.2354 19.4381 64.119 19.9005 62.19 19.9005C60.2532 19.9005 58.496 19.4397 57.879 17.6653C56.8481 14.6898 60.5812 12.0408 63.0334 11.9736L67.0085 9.70254C67.0085 9.70254 67.0163 9.70254 67.0241 9.70254C69.6638 9.70254 73.1235 9.10977 76.8175 8.51858C80.5115 7.9266 84.4398 7.33461 88.0635 7.33461C91.7575 7.33461 95.1234 7.95472 97.5444 9.82827C104.565 15.2584 94.6236 14.1088 92.1089 16.0456C88.618 18.7298 90.422 26.1638 84.1821 26.1638" fill="#F1C84E"/>
<path d="M30.7401 78.995C30.7173 78.995 30.6869 78.9942 30.6641 78.9942C24.5618 78.9099 22.7607 73.5135 22.7607 67.4606C25.7397 64.1214 28.0652 60.2905 29.4179 56.3388C33.2556 45.1479 42.1545 36.6571 52.3377 36.6571C55.5674 36.6571 58.9188 37.5098 62.2853 39.4013C62.2929 39.4332 62.3005 39.4636 62.3081 39.4948C60.887 40.7775 59.3747 42.0482 57.9005 43.2504C57.2165 43.1941 56.5174 43.0984 55.841 43.0034C54.7847 42.8537 53.7892 42.7048 53.014 42.7048C52.9153 42.7048 52.8164 42.7071 52.7329 42.7124C48.12 42.9708 43.9251 44.8615 42.0557 49.5093C40.513 53.3455 41.8885 56.2948 44.2367 57.8717C42.4737 60.9107 40.9386 64.0994 39.5099 67.1992C36.5081 67.4272 33.7571 70.5725 32.4272 73.3615C31.6977 74.8905 31.1277 76.9188 30.9453 78.9904C30.8769 78.9935 30.8085 78.995 30.7401 78.995V78.995ZM49.4803 50.3748C48.956 49.6536 49.2904 49.0237 51.2434 48.6551C50.5899 49.2235 50.0654 49.7122 49.7159 50.1013C49.6399 50.1925 49.5563 50.2836 49.4803 50.3748ZM67.1033 34.5498C66.4726 33.7853 65.9634 32.9562 65.6366 32.0451C65.0135 30.3063 65.4011 28.3198 66.4498 26.8227C66.845 26.9466 67.2249 27.1062 67.5745 27.3076C70.2875 28.8503 69.4819 31.5306 67.1033 34.5498Z" fill="#F49B51"/>
<path d="M22.7686 67.4601C22.7686 61.6099 24.4589 55.1466 25.5731 52.2776C27.9835 46.0765 31.3566 39.4532 36.3669 34.8916C39.0426 33.8752 41.8092 32.6639 43.0751 30.6158C44.1817 30.1739 45.3414 29.823 46.5694 29.5759L51.6782 28.4404C51.8753 28.5291 52.133 28.5685 52.4362 28.5685C53.5656 28.5685 55.3696 28.0432 57.4238 27.5187C59.4703 26.9934 61.767 26.4689 63.8439 26.4689C64.7687 26.4689 65.648 26.5712 66.4514 26.8221C65.3978 28.3191 65.0112 30.3058 65.6404 32.0439C65.9663 32.9558 66.4741 33.785 67.1033 34.549C65.845 36.1423 64.1547 37.8289 62.3128 39.4942C62.2976 39.4631 62.2976 39.432 62.2901 39.4009C58.9246 37.509 55.5667 36.6562 52.3377 36.6562C42.1579 36.6562 33.2516 45.1472 29.4237 56.3381C28.0669 60.2895 25.7399 64.1204 22.7686 67.4601V67.4601ZM44.2424 57.8708C41.8926 56.2942 40.513 53.3448 42.0593 49.5087C43.924 44.8607 48.1233 42.9703 52.7319 42.7118C52.8228 42.7065 52.9138 42.7042 53.0199 42.7042C53.7854 42.7042 54.786 42.8536 55.8396 43.0029C56.5218 43.0976 57.2191 43.1931 57.9013 43.2492C55.3241 45.3511 52.8758 47.2476 51.2462 48.6544C49.2981 49.0228 48.957 49.6527 49.4876 50.3735C47.5093 52.6483 45.7887 55.2012 44.2424 57.8708Z" fill="#F5B45A"/>
<path d="M30.9463 78.9891C31.1316 76.9179 31.7022 74.8896 32.4284 73.36C33.7623 70.5714 36.5116 67.4256 39.5129 67.1981C39.3647 67.5301 39.2091 67.8606 39.0609 68.1904C37.3713 71.8964 35.7187 78.795 30.9463 78.9891" fill="#F5B45A"/>
<path d="M36.3701 34.8918C38.3323 33.0962 40.562 31.6208 43.0742 30.6159C41.8107 32.6636 39.0384 33.8758 36.3701 34.8918Z" fill="#F4D35E"/>
</svg>
