<svg width="171" height="170" viewBox="0 0 171 170" fill="none" xmlns="http://www.w3.org/2000/svg">
<path d="M170.736 85.0217C170.736 131.758 132.845 169.646 86.1171 169.646C39.3788 169.646 1.48828 131.758 1.48828 85.0217C1.48828 38.2845 39.3788 0.396911 86.1171 0.396911C132.845 0.396911 170.736 38.2845 170.736 85.0217Z" fill="#F5C456"/>
<path d="M22.5065 54.6159C42.2285 49.0627 56.5945 35.6294 74.2491 25.9761C80.8841 22.3481 87.6921 22.6326 94.4424 20.7499C102.52 18.4988 109.924 13.9477 117.174 9.96578C118.492 9.2446 119.876 8.5138 121.319 7.80608C110.51 2.79912 98.4714 -1.72492e-05 85.7786 -1.72492e-05C47.3057 -1.72492e-05 14.8234 25.6857 4.55371 60.8478C11.0348 57.8294 18.3524 55.788 22.5065 54.6159" fill="#EF8A34"/>
<path d="M83.067 104.472C93.7773 100.853 102.049 94.0629 111.289 87.3712C121.979 79.6252 132.453 72.1714 142.354 63.691C147.694 59.1196 155.66 53.1761 162.955 49.8574C160.803 45.0778 158.207 40.538 155.236 36.2815C151.662 41.1154 146.105 45.1251 139.649 48.0332C120.657 56.5846 103.836 60.5519 87.4597 74.347C73.8275 85.8312 59.4253 96.9887 43.967 105.945C34.8459 111.227 25.3992 117.851 14.9357 119.78C12.9515 120.147 10.9971 120.31 9.08203 120.417C12.0434 126.749 15.7648 132.654 20.1279 138.016C33.4047 131.793 44.1546 122.536 57.382 114.631C65.7035 109.664 74.0644 107.513 83.067 104.472Z" fill="#EF8A34"/>
<path d="M152.35 74.1597C128.738 90.9541 106.91 109.548 84.607 127.905C71.5563 138.637 59.408 149.904 45.792 159.227C57.7122 165.623 71.3182 169.255 85.7772 169.255C132.516 169.255 170.409 131.367 170.409 84.6301C170.409 77.6356 169.556 70.8415 167.949 64.3409C162.674 68.1272 155.96 71.5942 152.35 74.1597" fill="#EF8A34"/>
<path d="M8.95326 73.7827C10.8579 71.8005 13.3672 70.9701 15.9218 70.1423C18.5936 69.2767 21.1029 68.3235 23.3325 66.5886C25.2642 65.0929 22.5563 62.4346 20.6517 63.9113C18.5666 65.5343 15.8676 66.1635 13.4033 66.9885C10.7495 67.8785 8.24015 69.0619 6.27237 71.1046C4.58441 72.8629 7.25628 75.5438 8.95326 73.7827" fill="#EDBA3A"/>
<path d="M16.9452 74.2684C24.5627 76.2591 30.2985 69.947 34.2345 64.3129C35.6344 62.3058 32.3529 60.4168 30.9621 62.4021C28.0896 66.5163 23.6536 72.1076 17.9541 70.6177C15.5907 69.9996 14.5908 73.6511 16.9452 74.2684" fill="#EDBA3A"/>
<path d="M8.74199 86.8288C8.81387 86.0013 10.5838 85.2871 11.1948 85.0418C12.3718 84.5692 13.7914 84.2268 15.0583 84.4892C17.4392 84.9824 18.4545 81.3337 16.0646 80.8387C12.0663 80.0103 5.33678 82.0292 4.9684 86.8288C4.77074 89.2646 8.5623 89.2457 8.74199 86.8288" fill="#EDBA3A"/>
<path d="M11.3982 92.5088C15.2211 92.8586 18.9719 91.9688 21.8211 89.3044C23.6063 87.6346 20.9285 84.963 19.1432 86.6274C17.0064 88.6219 14.2022 88.9798 11.3982 88.7229C8.96374 88.5002 8.98177 92.2888 11.3982 92.5088" fill="#EDBA3A"/>
<path d="M21.7415 81.4622C23.4251 80.8123 25.1088 80.4194 26.9191 80.394C29.354 80.3587 29.363 76.5724 26.9191 76.6077C24.792 76.6385 22.7191 77.0458 20.7368 77.8107C19.7774 78.1818 19.1165 79.0698 19.4152 80.1397C19.6687 81.0603 20.7821 81.8333 21.7415 81.4622" fill="#EDBA3A"/>
<path d="M9.24393 80.3278C10.76 79.9493 12.2759 79.5707 13.792 79.1921C16.1602 78.6001 15.1556 74.949 12.7873 75.5419C11.2713 75.9205 9.75524 76.2982 8.2392 76.6767C5.87094 77.2688 6.87567 80.9199 9.24393 80.3278Z" fill="#EDBA3A"/>
<path d="M30.0764 86.7617C33.408 85.8818 36.6026 84.4725 39.6147 82.7857C41.7415 81.59 39.8338 78.3195 37.6979 79.5152C34.9597 81.0523 32.1118 82.3102 29.0724 83.1116C26.7083 83.7322 27.7123 87.3842 30.0764 86.7617Z" fill="#EDBA3A"/>
<path d="M42.1769 71.8857C44.2015 69.0964 48.4255 69.0513 51.5267 69.0375C53.9654 69.0265 53.9654 65.2415 51.5267 65.2516C46.8242 65.2727 41.8548 65.9077 38.91 69.9753C37.4744 71.9557 40.7597 73.8422 42.1769 71.8857Z" fill="#EDBA3A"/>
<path d="M63.7634 70.864C66.1191 70.3417 68.1862 69.0139 69.8994 67.3491C71.6499 65.6442 68.9683 62.9692 67.2178 64.6722C65.9515 65.9077 64.499 66.8267 62.7578 67.2132C60.3741 67.743 61.3797 71.3929 63.7634 70.864Z" fill="#EDBA3A"/>
<path d="M52.8596 59.6931C54.4846 58.8954 56.1558 58.2205 57.7809 57.4218C58.7042 56.9657 58.9535 55.6739 58.4549 54.8318C57.9101 53.8946 56.7929 53.6971 55.8696 54.1523C54.2445 54.9519 52.5641 55.6259 50.9483 56.4245C50.025 56.8797 49.7757 58.1725 50.2651 59.0145C50.8191 59.9508 51.927 60.1493 52.8596 59.6931Z" fill="#EDBA3A"/>
<path d="M41.5038 57.0426C42.5932 56.3349 43.8199 55.857 44.9093 55.1494C45.779 54.59 46.1268 53.4805 45.5867 52.5595C45.0832 51.6999 43.8657 51.32 43.0052 51.8803C41.9066 52.5879 40.689 53.0659 39.5905 53.7735C38.7299 54.3328 38.373 55.4424 38.9131 56.3633C39.4166 57.2229 40.6341 57.6037 41.5038 57.0426Z" fill="#EDBA3A"/>
<path d="M60.0522 46.8177C61.4624 45.7675 62.9004 44.6588 64.5239 43.9797C65.4795 43.5845 66.1475 42.7413 65.8506 41.6512C65.6001 40.7503 64.4776 39.9321 63.522 40.3291C61.5459 41.1511 59.8481 42.2718 58.1504 43.5493C57.3247 44.1662 56.898 45.1719 57.4639 46.1395C57.9463 46.9532 59.2266 47.4383 60.0522 46.8177" fill="#EDBA3A"/>
<path d="M68.7659 51.4447L68.8961 51.3311C68.7659 51.4297 68.6356 51.5284 68.5147 51.6279C68.6635 51.5079 68.8404 51.4186 69.0172 51.3302C69.3428 51.1664 69.6406 50.9366 69.9011 50.6872C70.6548 49.9781 70.6176 48.7239 69.9011 48.0102C69.1567 47.2658 67.975 47.3021 67.2306 48.0102L67.1003 48.1237C67.2305 48.025 67.3516 47.9264 67.4818 47.8278C67.3236 47.9469 67.1561 48.0362 66.9793 48.1246C66.6537 48.2884 66.3559 48.5182 66.0954 48.7676C65.3417 49.4766 65.3789 50.73 66.0954 51.4447C66.8304 52.1891 68.0215 52.1528 68.7659 51.4447Z" fill="#EDBA3A"/>
<path d="M80.8812 68.8601C82.3399 67.4428 84.0621 66.4095 85.7937 65.3696C87.8923 64.1152 85.9913 60.8412 83.8927 62.1013C81.8882 63.304 79.8931 64.5444 78.2086 66.1828C76.4582 67.888 79.1309 70.5625 80.8812 68.8601" fill="#EDBA3A"/>
<path d="M105.488 54.3899C107.141 53.4036 108.852 52.5053 110.41 51.3614C111.232 50.7507 111.652 49.732 111.088 48.7716C110.61 47.9517 109.33 47.4795 108.498 48.0921C106.941 49.237 105.23 50.1344 103.577 51.1206C101.484 52.3687 103.386 55.6427 105.488 54.3899" fill="#EDBA3A"/>
<path d="M108.059 41.3313C109.083 40.9841 110.077 40.5433 111.091 40.1952C112.066 39.8634 112.697 38.907 112.411 37.8666C112.152 36.917 111.062 36.2123 110.087 36.5441C109.064 36.8922 108.079 37.3321 107.055 37.6802C106.08 38.013 105.449 38.9692 105.736 40.0087C105.994 40.9583 107.084 41.6641 108.059 41.3313Z" fill="#EDBA3A"/>
<path d="M111.166 24.8604C112.576 24.1439 113.919 23.3054 115.329 22.5889C117.506 21.4838 115.588 18.2177 113.42 19.3199C112.01 20.0355 110.667 20.8748 109.257 21.5913C107.079 22.6964 108.998 25.9626 111.166 24.8604Z" fill="#EDBA3A"/>
<path d="M10.5646 108.158C11.1431 104.968 14.054 105.228 16.7118 105.475C19.4419 105.728 22.4523 106.565 25.1462 105.694C27.4604 104.946 26.466 101.29 24.1427 102.043C21.1956 102.996 17.4712 101.585 14.4338 101.566C10.7364 101.541 7.59948 103.331 6.92148 107.151C6.48756 109.538 10.1397 110.558 10.5646 108.158" fill="#EDBA3A"/>
<path d="M11.5988 100.663C14.7407 98.0236 19.2188 97.825 23.1282 97.8097C25.5749 97.8007 25.5749 94.0141 23.1282 94.024C18.0903 94.043 12.9169 94.6307 8.92637 97.9857C7.04846 99.5575 9.73899 102.222 11.5988 100.663" fill="#EDBA3A"/>
<path d="M28.9301 100.395C32.4112 99.8414 35.4639 97.6043 37.7147 94.9862C39.3003 93.1464 36.6394 90.4563 35.0356 92.3089C33.1584 94.496 30.8347 96.2811 27.9278 96.7441C25.522 97.1268 26.5426 100.775 28.9301 100.395Z" fill="#EDBA3A"/>
<path d="M36.1278 91.3045C37.8187 90.6556 39.5004 90.2625 41.3102 90.2369C43.7414 90.2013 43.7505 86.4155 41.3102 86.4512C39.1806 86.4813 37.1058 86.889 35.1224 87.654C34.1627 88.0251 33.5047 88.9126 33.8063 89.9829C34.0531 90.9024 35.1681 91.6765 36.1278 91.3045" fill="#EDBA3A"/>
<path d="M54.3752 91.8716C55.3439 91.3863 56.248 90.8235 57.0323 90.0615C57.7703 89.3419 57.7519 88.1056 57.0323 87.3851C56.2942 86.6479 55.0948 86.6654 54.3567 87.3851C54.1907 87.5428 54.0246 87.6922 53.8493 87.8371C54.1814 87.5612 53.674 87.9422 53.6002 87.9874C53.2404 88.2199 52.8529 88.4109 52.4654 88.6028C51.5428 89.0641 51.2845 90.3465 51.7827 91.1935C52.327 92.1253 53.4526 92.3338 54.3752 91.8716" fill="#EDBA3A"/>
<path d="M50.5929 82.8694C53.4235 79.8578 58.9734 78.3255 62.6857 80.5158C64.7924 81.7585 66.695 78.4852 64.5975 77.2471C59.4468 74.2123 51.9015 75.9524 47.9108 80.1918C46.2495 81.97 48.9131 84.6522 50.5929 82.8694Z" fill="#EDBA3A"/>
<path d="M15.3539 112.402C21.9775 117.592 31.2705 110.654 36.9557 107.018C39.0056 105.707 37.1105 102.43 35.0424 103.748C32.4094 105.432 29.8037 107.137 26.9975 108.532C24.6834 109.684 20.4559 111.626 18.0325 109.724C16.1374 108.236 13.4315 110.896 15.3539 112.402" fill="#EDBA3A"/>
<path d="M28.9308 143.059C31.1668 139.558 35.2647 138.184 39.1617 137.493C41.562 137.068 40.5398 133.419 38.1578 133.843C33.2295 134.716 28.438 136.798 25.6636 141.148C24.3494 143.214 27.6258 145.111 28.9308 143.059Z" fill="#EDBA3A"/>
<path d="M37.265 145.826C40.8794 144.941 44.0534 143.045 47.1725 141.091C49.2457 139.802 47.3467 136.525 45.2643 137.822C42.4113 139.609 39.5584 141.367 36.2559 142.174C33.8891 142.754 34.889 146.404 37.265 145.826Z" fill="#EDBA3A"/>
<path d="M51.3495 131.328C52.4279 130.287 53.8012 129.638 55.1285 128.974C56.0594 128.512 56.3082 127.23 55.8105 126.384C55.2667 125.452 54.1423 125.244 53.2206 125.705C51.5984 126.52 49.9946 127.376 48.6766 128.651C46.9162 130.348 49.5983 133.022 51.3495 131.328" fill="#EDBA3A"/>
<path d="M66.1133 127.843C68.1466 126.611 70.1333 125.288 72.1759 124.057C74.2558 122.796 72.353 119.521 70.2545 120.788C68.2211 122.02 66.2439 123.342 64.2012 124.574C62.112 125.835 64.0147 129.11 66.1133 127.843Z" fill="#EDBA3A"/>
<path d="M57.4044 141.09C59.6759 139.675 61.5766 137.757 63.468 135.873C65.1925 134.146 62.513 131.468 60.7885 133.195C59.1382 134.849 57.4879 136.58 55.4945 137.821C53.427 139.107 55.3276 142.383 57.4044 141.09Z" fill="#EDBA3A"/>
<path d="M49.0761 150.933C50.1796 150.368 51.2279 149.608 52.1107 148.744C52.8464 148.023 52.828 146.789 52.1107 146.066C51.3751 145.331 50.1704 145.346 49.4255 146.066C49.2692 146.223 49.1129 146.373 48.9382 146.518C48.8462 146.593 48.7542 146.666 48.6715 146.739C48.9657 146.496 48.5151 146.842 48.4876 146.859C48.0646 147.159 47.6232 147.428 47.1634 147.664C46.253 148.134 45.9863 149.401 46.4829 150.254C47.0346 151.18 48.1565 151.403 49.0761 150.933" fill="#EDBA3A"/>
<path d="M91.0201 116.565C91.7871 114.83 93.7093 114 95.2622 113.079C97.3548 111.832 95.4516 108.559 93.3495 109.81C91.2569 111.056 88.7855 112.309 87.744 114.655C87.3273 115.598 87.4599 116.68 88.4257 117.244C89.2401 117.721 90.6035 117.51 91.0201 116.565" fill="#EDBA3A"/>
<path d="M73.9965 114.782C76.4637 113.9 78.5651 112.376 80.8822 111.184C83.0492 110.066 81.1355 106.799 78.9684 107.914C76.9609 108.948 75.1222 110.369 72.9834 111.131C70.7038 111.946 71.6888 115.605 73.9965 114.782Z" fill="#EDBA3A"/>
<path d="M104.723 100.963C106.442 99.925 108.056 98.7549 109.651 97.5561C110.473 96.9381 110.893 95.9333 110.33 94.9656C109.852 94.1518 108.562 93.6667 107.741 94.2866C106.136 95.4863 104.522 96.6564 102.822 97.6946C100.73 98.9584 102.64 102.234 104.723 100.963" fill="#EDBA3A"/>
<path d="M119.869 87.7097C121.151 86.851 122.375 85.92 123.656 85.0603C124.514 84.4859 124.88 83.4027 124.331 82.4708C123.839 81.6227 122.606 81.2149 121.748 81.7912C120.466 82.6509 119.233 83.5819 117.961 84.4416C117.103 85.015 116.727 86.0983 117.276 87.0312C117.777 87.8784 119.011 88.287 119.869 87.7097" fill="#EDBA3A"/>
<path d="M152.047 71.5127C152.469 71.0998 152.892 70.7165 153.374 70.3891C153.61 70.223 153.875 70.0795 154.13 69.9409C154.258 69.876 154.376 69.8151 154.514 69.758C154.376 69.821 154.416 69.8121 154.622 69.7286C155.595 69.3855 156.234 68.4467 155.949 67.3998C155.684 66.4571 154.593 65.7346 153.619 66.0776C151.978 66.6527 150.611 67.6259 149.373 68.836C147.633 70.5484 150.307 73.2231 152.047 71.5127" fill="#EDBA3A"/>
<path d="M158.116 60.4494C159.102 59.7932 160.148 59.213 161.135 58.5568C161.993 57.9894 162.359 56.8941 161.816 55.9666C161.313 55.113 160.089 54.7183 159.231 55.2877C158.234 55.9439 157.198 56.525 156.201 57.1812C155.343 57.7476 154.978 58.8439 155.52 59.7705C156.024 60.624 157.247 61.0187 158.116 60.4494" fill="#EDBA3A"/>
<path d="M83.9033 41.1417C86.4818 39.8534 89.0604 38.5566 91.4784 36.9774C93.5091 35.6465 91.62 32.3672 89.5704 33.7084C87.1524 35.2877 84.5644 36.5835 81.9953 37.8728C79.804 38.9647 81.7309 42.2308 83.9033 41.1417Z" fill="#EDBA3A"/>
<path d="M74.8216 33.5706C76.1896 32.6505 77.5106 31.6752 78.9816 30.92C81.1553 29.805 79.2346 26.5379 77.0703 27.651C75.5993 28.4062 74.2688 29.3816 72.9009 30.3016C72.0577 30.876 71.6735 31.9591 72.2263 32.8913C72.7229 33.7392 73.9596 34.1468 74.8216 33.5706Z" fill="#EDBA3A"/>
<path d="M89.9584 28.6486C91.0448 28.1186 92.1028 27.6897 92.9907 26.8386C93.737 26.1272 93.7087 24.8775 92.9907 24.1614C92.2445 23.4189 91.0637 23.4501 90.3174 24.1614C90.2418 24.237 90.1568 24.3088 90.0718 24.3777C90.2513 24.2474 90.2418 24.2436 90.0718 24.3682C89.8451 24.5194 89.6089 24.6432 89.3727 24.7641C88.9382 24.9861 88.4847 25.1665 88.0502 25.38C87.115 25.8325 86.8788 27.1304 87.37 27.9702C87.9179 28.9083 89.0327 29.102 89.9584 28.6486" fill="#EDBA3A"/>
<path d="M78.605 54.0972C79.3927 53.3273 80.2648 52.7807 81.2495 52.1214C82.1028 51.5503 82.4779 50.4616 81.934 49.5313C81.437 48.6817 80.1991 48.2785 79.3458 48.8524C78.1642 49.6392 76.9545 50.4278 75.9324 51.4199C75.1916 52.1392 75.2103 53.3751 75.9324 54.0972C76.6638 54.8343 77.8735 54.8155 78.605 54.0972" fill="#EDBA3A"/>
<path d="M130.087 43.0362C132.487 41.8382 134.79 40.6012 136.908 38.9543C137.724 38.3188 137.568 36.9391 136.908 36.2774C136.111 35.4807 135.042 35.6439 134.236 36.2774C132.39 37.7067 130.252 38.7299 128.173 39.7666C125.996 40.8597 127.91 44.1245 130.087 43.0362" fill="#EDBA3A"/>
<path d="M145.234 40.4682C145.84 39.8791 146.692 39.3214 147.436 39.0621C148.404 38.7186 149.04 37.781 148.757 36.7329C148.492 35.7915 147.396 35.0684 146.428 35.4109C144.97 35.9237 143.668 36.7164 142.562 37.7909C141.818 38.5101 141.838 39.746 142.562 40.4682C143.296 41.2051 144.5 41.1875 145.234 40.4682Z" fill="#EDBA3A"/>
<path d="M38.8518 101.422C40.3956 100.178 42.3989 100.196 44.2735 100.051C46.2768 99.8952 48.1698 99.479 49.8331 98.311C51.8088 96.917 49.9157 93.6327 47.9124 95.0414C46.1573 96.2811 44.1724 96.248 42.114 96.4354C39.8442 96.6404 37.9512 97.3103 36.1777 98.7447C34.2755 100.28 36.9679 102.941 38.8518 101.422" fill="#EDBA3A"/>
<path d="M13.403 115.784C12.6327 114.709 12.2206 113.661 12.4625 112.321C12.6416 111.306 12.2027 110.285 11.1457 109.992C10.2141 109.738 8.99592 110.298 8.81677 111.315C8.40473 113.627 8.7451 115.765 10.1425 117.695C10.7426 118.53 11.7728 118.934 12.7312 118.375C13.5553 117.89 14.0121 116.623 13.403 115.784" fill="#EDBA3A"/>
<path d="M34.7433 149.877C36.6166 152.66 41.0485 150.249 42.6385 148.367C43.3055 147.58 43.4152 146.464 42.6385 145.69C41.9531 145.005 40.6281 144.901 39.9611 145.69C39.4311 146.316 38.8554 146.723 38.1152 147.076C37.9233 147.169 37.5578 147.25 37.3019 147.311C37.64 147.232 37.1558 147.317 37.1009 147.318C37.1649 147.332 37.2471 147.345 37.3111 147.359C36.8725 147.229 37.1009 147.432 38.0147 147.966C36.6623 145.95 33.3818 147.842 34.7433 149.877Z" fill="#EDBA3A"/>
<path d="M44.265 131.251C44.3016 131.151 44.3382 131.054 44.3749 130.956C44.2833 131.163 44.2833 131.168 44.3749 130.971C44.4939 130.729 44.6313 130.504 44.787 130.284C44.6496 130.455 44.6496 130.46 44.787 130.298C44.8878 130.18 44.9976 130.074 45.1167 129.971C44.9335 130.106 44.9336 130.115 45.1076 129.995C45.19 129.943 45.6297 129.773 45.2175 129.922C46.1792 129.568 46.8294 128.652 46.5363 127.594C46.2799 126.663 45.1809 125.916 44.21 126.273C42.36 126.95 41.2517 128.429 40.6198 130.245C40.2809 131.219 40.9952 132.314 41.9386 132.573C42.9827 132.861 43.9261 132.225 44.265 131.251Z" fill="#EDBA3A"/>
<path d="M49.8936 143.552C52.0788 143.972 54.3288 144.738 56.5788 144.476C59.3936 144.15 61.1714 142.145 62.2455 139.653C63.1992 137.436 59.9399 135.505 58.977 137.742C58.3381 139.236 57.6159 140.665 55.8288 140.752C54.1899 140.832 52.4954 140.208 50.8936 139.901C48.5047 139.445 47.4862 143.093 49.8936 143.552" fill="#EDBA3A"/>
<path d="M70.6522 133.522C72.0903 132.436 73.3976 131.201 74.817 130.115C75.6388 129.492 76.0684 128.497 75.4988 127.524C75.0225 126.716 73.7338 126.22 72.9027 126.846C71.4833 127.933 70.1759 129.167 68.7472 130.253C67.9254 130.877 67.4959 131.871 68.0655 132.843C68.5418 133.653 69.8304 134.149 70.6522 133.522" fill="#EDBA3A"/>
<path d="M60.5477 130.871C61.4082 128.256 62.0651 125.565 61.7505 122.796C61.4822 120.398 57.6888 120.372 57.9664 122.796C58.244 125.265 57.661 127.535 56.8931 129.864C56.1344 132.19 59.789 133.18 60.5477 130.871" fill="#EDBA3A"/>
<path d="M60.811 121.113C61.2293 120.591 62.4934 120.276 63.3021 120.027C64.464 119.672 65.6537 119.384 66.7878 118.95C69.0465 118.088 68.0705 114.427 65.7839 115.3C64.4268 115.818 63.0046 116.151 61.6103 116.59C60.4299 116.964 58.9426 117.427 58.1339 118.436C57.4926 119.241 57.3439 120.324 58.1339 121.113C58.8032 121.782 60.1603 121.921 60.811 121.113" fill="#EDBA3A"/>
<path d="M77.8494 121.868C78.9757 120.763 80.2333 119.856 81.6318 119.135C83.8093 118.019 81.8946 114.752 79.7265 115.866C78.0559 116.725 76.5166 117.875 75.1745 119.191C73.4381 120.904 76.113 123.579 77.8494 121.868Z" fill="#EDBA3A"/>
<path d="M80.1239 127.168C81.7878 125.531 83.6115 124.079 85.4258 122.625C86.2343 121.979 86.0933 120.617 85.4258 119.948C84.6362 119.158 83.5551 119.304 82.7467 119.948C80.9324 121.402 79.1086 122.854 77.4447 124.491C75.7056 126.207 78.3942 128.884 80.1239 127.168Z" fill="#EDBA3A"/>
<path d="M21.4867 62.1544C24.2 62.8846 26.7494 61.8384 29.2989 60.7923C31.3657 59.9464 33.4417 59.1015 35.6269 59.1934C38.067 59.2954 38.0579 55.5095 35.6269 55.4067C33.2322 55.3065 30.9741 56.0112 28.7616 56.8652C26.9497 57.5663 24.5005 59.0432 22.4973 58.5042C20.1391 57.8668 19.1376 61.5188 21.4867 62.1544" fill="#EDBA3A"/>
<path d="M31.5864 78.0532C32.8191 77.6505 34.207 77.8851 35.4762 77.9627C36.9737 78.0541 38.4529 78.0294 39.923 77.6751C42.2879 77.1007 41.2835 73.4493 38.9095 74.0237C37.622 74.335 36.298 74.2401 34.9831 74.1451C33.4948 74.0383 32.0156 73.9314 30.582 74.4026C28.2719 75.1613 29.2671 78.8174 31.5864 78.0532Z" fill="#EDBA3A"/>
<path d="M46.8079 75.2149C48.4264 74.4157 50.1093 73.7408 51.7278 72.9425C52.6474 72.4873 52.8957 71.1944 52.4083 70.3529C51.8565 69.4158 50.7438 69.2172 49.815 69.6734C48.1873 70.4725 46.5136 71.1466 44.8951 71.9457C43.9663 72.4009 43.718 73.693 44.2146 74.5353C44.7572 75.4715 45.8791 75.6701 46.8079 75.2149Z" fill="#EDBA3A"/>
<path d="M45.8485 87.9677C47.1621 87.9667 48.4942 87.9143 49.7619 87.522C50.7357 87.2161 51.3605 86.2121 51.0757 85.1933C50.8093 84.2222 49.7344 83.5654 48.7514 83.8704C47.7868 84.1698 46.8682 84.1809 45.8485 84.1818C44.8104 84.1828 43.9561 85.0417 43.9561 86.0752C43.9561 87.1068 44.8104 87.9677 45.8485 87.9677Z" fill="#EDBA3A"/>
<path d="M57.5875 86.4515C60.3269 86.4181 62.8806 85.8591 65.3599 84.6788C67.5607 83.6276 65.6385 80.3645 63.447 81.4092C61.5806 82.2951 59.6397 82.6396 57.5875 82.6646C55.1453 82.6944 55.1453 86.4803 57.5875 86.4515" fill="#EDBA3A"/>
<path d="M70.6627 82.1114C72.5515 80.2179 74.4497 78.3254 76.3384 76.4319C78.0683 74.7039 75.3847 72.0269 73.6642 73.7549C71.7755 75.6474 69.8773 77.5409 67.9885 79.4344C66.2587 81.1614 68.9329 83.8384 70.6627 82.1114Z" fill="#EDBA3A"/>
<path d="M7.80865 66.2112C9.94366 64.4924 12.5003 63.4124 15.0031 62.3422C15.954 61.9349 16.1513 60.5588 15.6848 59.7524C15.1107 58.7808 14.0343 58.666 13.0924 59.0733C10.2487 60.2915 7.55749 61.5832 5.13543 63.5334C3.23365 65.0665 5.93379 67.7272 7.80865 66.2112Z" fill="#EDBA3A"/>
<path d="M86.1168 169.646C85.9878 169.646 85.8588 169.646 85.7299 169.645C105.171 169.559 123.055 162.921 137.299 151.828C137.279 151.828 137.249 151.827 137.229 151.827C157.395 136.359 170.408 112.014 170.408 84.6319C170.408 77.637 169.545 70.8435 167.948 64.3426C162.671 68.1287 155.956 71.5964 152.346 74.1614C145.085 79.3282 137.983 84.6656 130.99 90.1141C129.602 88.1611 127.955 86.3757 126.13 84.8313C125.614 84.4038 125.098 84.01 124.573 83.649C124.622 83.2621 124.553 82.8554 124.335 82.4745C123.997 81.8982 123.313 81.5263 122.648 81.5263C122.331 81.5263 122.023 81.6096 121.746 81.7951C121.666 81.8437 121.597 81.8933 121.528 81.9429C120.942 81.681 120.347 81.4489 119.742 81.2436C127.499 75.5987 135.077 69.923 142.357 63.6929C147.694 59.1213 155.649 53.1778 162.949 49.8599C160.797 45.0799 158.198 40.54 155.232 36.2828C151.651 41.1173 146.107 45.1275 139.649 48.0348C120.655 56.5859 103.832 60.5535 87.4558 74.3489C84.2024 77.0895 80.9093 79.8103 77.5666 82.4884C75.3348 82.3188 73.2022 81.9964 71.3077 81.4657C72.984 79.7894 74.6603 78.1141 76.3366 76.4388C77.6657 75.1047 76.3763 73.2032 74.9182 73.2032C74.4917 73.2032 74.0552 73.3689 73.6585 73.7617C71.7639 75.6542 69.8694 77.5478 67.9749 79.4413C67.8162 79.606 67.6873 79.7786 67.598 79.9551C66.7549 79.4611 66.011 78.8848 65.4158 78.2163C65.3067 77.8919 65.0885 77.5904 64.7414 77.3493C63.928 76.0976 63.5113 74.572 63.6403 72.7241C63.68 72.0665 63.7791 71.4366 63.918 70.8316C66.2093 70.285 68.2229 68.9808 69.8992 67.3531C71.2581 66.0328 69.9487 64.1304 68.4807 64.1304C68.1534 64.1304 67.8062 64.2285 67.4888 64.4537C70.4149 61.1001 74.333 58.2474 76.7433 54.5794C76.912 54.625 77.0904 54.6479 77.259 54.6479C77.7451 54.6479 78.2312 54.4634 78.6081 54.1023C79.3917 53.3326 80.2645 52.785 81.2465 52.1264C82.1094 51.555 82.4765 50.467 81.9309 49.5366C81.5937 48.9603 80.9192 48.5893 80.2447 48.5893C79.9273 48.5893 79.6198 48.6726 79.342 48.8571C79.1734 48.9672 79.0147 49.0773 78.8461 49.1874C79.0544 47.646 78.9751 45.9529 78.5089 44.0554C77.6063 40.2673 70.7721 36.5814 70.8018 33.4549C70.8117 32.7983 71.3077 32.0881 72.0714 31.3769C71.9028 31.8599 71.9326 32.3996 72.2302 32.8965C72.5674 33.4718 73.2419 33.8447 73.9064 33.8447C74.2239 33.8447 74.5413 33.7604 74.819 33.5749C76.1878 32.6555 77.5071 31.6794 78.9751 30.9245C80.7506 30.0179 79.8083 27.689 78.2312 27.4489C78.9255 27.0789 79.5305 26.7685 79.9372 26.5384C81.7226 25.5276 84.9066 23.9506 86.7912 22.2881C89.3404 21.8686 91.8896 21.4668 94.4387 20.7576C102.523 18.507 109.922 13.9552 117.173 9.97368C118.413 9.29323 119.722 8.60383 121.071 7.93331C150.372 21.2396 170.736 50.7507 170.736 85.0217C170.736 131.758 132.845 169.646 86.1168 169.646V169.646ZM154.131 65.9951C153.963 65.9951 153.784 66.0229 153.615 66.0814C151.979 66.6577 150.61 67.6307 149.38 68.8398C148.021 70.165 149.33 72.0665 150.789 72.0665C151.215 72.0665 151.661 71.9038 152.048 71.517C152.475 71.1044 152.891 70.7216 153.377 70.3942C153.615 70.2276 153.873 70.0837 154.131 69.9449C154.25 69.8804 154.379 69.8189 154.508 69.7624C154.449 69.7902 154.429 69.804 154.429 69.804C154.439 69.804 154.508 69.7792 154.627 69.7326C155.599 69.3903 156.234 68.451 155.946 67.4046C155.728 66.625 154.945 65.9951 154.131 65.9951V65.9951ZM84.8372 61.8252C84.5396 61.8252 84.2123 61.9105 83.885 62.1079C81.8814 63.3111 79.8876 64.5509 78.2013 66.1895C76.8424 67.5097 78.1419 69.4122 79.6099 69.4122C80.0463 69.4122 80.4827 69.2515 80.8795 68.8667C82.3276 67.4502 84.0635 66.4167 85.7894 65.3772C87.5549 64.3189 86.4837 61.8252 84.8372 61.8252ZM160.132 55.0267C159.825 55.0267 159.497 55.1101 159.22 55.2936C158.228 55.9492 157.186 56.5304 156.194 57.1871C155.341 57.7534 154.974 58.8495 155.52 59.7759C155.857 60.3542 156.532 60.7222 157.196 60.7222C157.514 60.7222 157.831 60.6389 158.109 60.4554C159.101 59.7988 160.142 59.2185 161.134 58.5619C161.997 57.9945 162.354 56.8994 161.818 55.973C161.471 55.3947 160.807 55.0267 160.132 55.0267ZM109.377 47.8206C109.069 47.8206 108.752 47.9058 108.494 48.1003C106.937 49.2449 105.221 50.1426 103.574 51.1285C101.799 52.1819 102.88 54.6786 104.526 54.6786C104.834 54.6786 105.151 54.5932 105.479 54.3978C107.135 53.4119 108.841 52.5132 110.398 51.3686C111.232 50.7586 111.648 49.7399 111.083 48.7798C110.755 48.2193 110.051 47.8206 109.377 47.8206ZM135.652 35.7432C135.166 35.7432 134.66 35.9466 134.234 36.2818C132.399 37.7112 130.246 38.7348 128.173 39.7713C126.299 40.7106 127.459 43.2598 129.205 43.2598C129.492 43.2598 129.78 43.1924 130.088 43.0406C132.488 41.8424 134.789 40.6055 136.912 38.9579C137.725 38.3231 137.567 36.9434 136.912 36.2818C136.535 35.9049 136.098 35.7432 135.652 35.7432V35.7432ZM110.587 36.4673C110.418 36.4673 110.25 36.4941 110.081 36.5516C109.059 36.8998 108.077 37.3392 107.056 37.6874C106.074 38.0196 105.449 38.9758 105.727 40.0163C105.945 40.8029 106.728 41.4218 107.552 41.4218C107.72 41.4218 107.889 41.3951 108.057 41.3375C109.079 40.9904 110.071 40.5499 111.083 40.2018C112.065 39.8705 112.69 38.9133 112.402 37.8738C112.194 37.0872 111.4 36.4673 110.587 36.4673ZM90.5406 33.3974C90.2331 33.3974 89.8959 33.4936 89.5686 33.7138C87.1483 35.2929 84.5694 36.5893 81.9904 37.8778C80.1157 38.8171 81.2664 41.3663 83.022 41.3663C83.2998 41.3663 83.5973 41.2988 83.8949 41.1471C86.4837 39.8586 89.0627 38.5612 91.473 36.9831C93.1692 35.8711 92.1276 33.3974 90.5406 33.3974V33.3974ZM146.94 35.3286C146.761 35.3286 146.593 35.3564 146.424 35.4159C144.976 35.9277 143.667 36.7202 142.566 37.7955C141.822 38.5136 141.842 39.7505 142.566 40.4726C142.933 40.8386 143.409 41.0191 143.895 41.0191C144.381 41.0191 144.867 40.8347 145.234 40.4726C145.849 39.8834 146.692 39.326 147.436 39.0671C148.408 38.7239 149.043 37.7855 148.755 36.7381C148.537 35.9584 147.753 35.3286 146.94 35.3286ZM90.1637 24.3086C90.1439 24.3235 90.1141 24.3453 90.0744 24.3731C89.8463 24.5238 89.6082 24.6478 89.3702 24.7688C88.9337 24.991 88.4874 25.1706 88.051 25.3848C87.1186 25.8371 86.8805 27.1346 87.3665 27.9747C87.7335 28.5926 88.3386 28.8872 88.9734 28.8872C89.3007 28.8872 89.6479 28.8079 89.9553 28.6531C91.0464 28.1235 92.0979 27.694 92.9906 26.8429C93.7345 26.1317 93.7048 24.8819 92.9906 24.1658C92.6236 23.7988 92.1475 23.6212 91.6714 23.6212C91.1854 23.6212 90.6894 23.8067 90.3125 24.1658C90.2629 24.2154 90.2133 24.263 90.1637 24.3086V24.3086ZM114.306 19.1031C114.019 19.1031 113.721 19.1716 113.414 19.3263C112.005 20.0434 110.656 20.8826 109.248 21.5987C107.373 22.548 108.534 25.0912 110.269 25.0912C110.557 25.0912 110.855 25.0228 111.162 24.8671C112.571 24.1509 113.91 23.3127 115.328 22.5956C117.193 21.6463 116.042 19.1031 114.306 19.1031Z" fill="#EF852C"/>
<path d="M86.7991 22.2811C88.8473 20.4714 89.3569 18.5606 84.8471 17.1673L80.2988 12.6248C79.5199 11.243 78.1641 10.5469 76.5006 10.3094C79.77 6.71402 83.3374 3.40128 87.1837 0.412685C86.5779 0.399222 85.9721 0.389678 85.3663 0.389678C63.5768 0.389678 43.7106 8.62369 28.71 22.1503C43.7587 8.3929 63.7885 0.000256084 85.7798 0.000256084C98.4727 0.000256084 110.512 2.79939 121.32 7.80635C121.243 7.84673 121.156 7.88618 121.079 7.92561C119.724 8.59583 118.416 9.28526 117.175 9.96606C109.925 13.948 102.521 18.4991 94.4437 20.7501C91.8955 21.4598 89.3473 21.8618 86.7991 22.2811" fill="#F0A036"/>
<path d="M81.9107 82.6376C80.4498 82.6376 78.9888 82.5911 77.5674 82.4826C80.9137 79.8045 84.2108 77.083 87.4584 74.3427C103.835 60.5477 120.655 56.5804 139.648 48.0289C146.103 45.1209 151.661 41.1112 155.234 36.2772C158.206 40.5337 160.802 45.0735 162.954 49.8532C155.659 53.1719 147.693 59.1153 142.352 63.6867C135.077 69.9174 127.496 75.5925 119.747 81.2379C116.885 80.2665 113.854 79.9131 110.774 79.9131C106.915 79.9131 102.996 80.4669 99.2348 81.0582C95.997 81.5656 88.9193 82.6376 81.9107 82.6376" fill="#F0A036"/>
<path d="M137.236 151.824C126.774 151.596 116.797 149.474 107.614 145.786C110.599 143.879 113.188 142.019 114.754 140.595C125.316 130.956 128.638 125.241 134.311 110.902C137.117 103.797 135.293 96.1525 130.998 90.112C137.99 84.6636 145.091 79.3263 152.35 74.1595C155.96 71.594 162.673 68.1271 167.949 64.3408C169.556 70.8413 170.409 77.6355 170.409 84.6299C170.409 112.012 157.398 136.358 137.236 151.824" fill="#F0A036"/>
<path d="M63.9238 70.8249C64.5103 68.3841 65.8414 66.3363 67.489 64.4475C67.8148 64.2223 68.15 64.1244 68.4851 64.1244C69.9559 64.1244 71.2591 66.0272 69.9 67.3471C68.2245 68.9743 66.2138 70.2785 63.9238 70.8249" fill="#EFC23A"/>
<path d="M79.6155 69.4081C78.1478 69.4081 76.8494 67.5056 78.1949 66.1856C79.8884 64.5466 81.8831 63.3066 83.8871 62.1032C84.2164 61.9056 84.5363 61.82 84.8374 61.82C86.4839 61.82 87.5565 64.3143 85.7971 65.3727C84.0565 66.4124 82.3347 67.4454 80.8763 68.8624C80.4812 69.2463 80.0389 69.4081 79.6155 69.4081" fill="#EFC23A"/>
<path d="M104.533 54.6708C102.89 54.6708 101.81 52.1738 103.578 51.1207C105.231 50.1344 106.942 49.237 108.499 48.0922C108.767 47.8982 109.073 47.8131 109.388 47.8131C110.057 47.8131 110.764 48.2107 111.089 48.7717C111.653 49.7321 111.232 50.7508 110.411 51.3614C108.853 52.5053 107.142 53.4037 105.489 54.3899C105.164 54.5858 104.839 54.6708 104.533 54.6708" fill="#EFC23A"/>
<path d="M107.553 41.4146C106.74 41.4146 105.946 40.7958 105.736 40.0088C105.449 38.9693 106.08 38.013 107.055 37.6802C108.079 37.3322 109.064 36.8923 110.087 36.5442C110.249 36.4878 110.421 36.461 110.594 36.461C111.406 36.461 112.2 37.0796 112.411 37.8667C112.697 38.9071 112.066 39.8634 111.091 40.1953C110.077 40.5434 109.083 40.9842 108.059 41.3313C107.897 41.3878 107.725 41.4146 107.553 41.4146Z" fill="#EFC23A"/>
<path d="M110.272 25.087C108.527 25.087 107.376 22.5436 109.256 21.5941C110.656 20.8777 111.998 20.0385 113.418 19.3221C113.725 19.1667 114.022 19.0986 114.31 19.0986C116.046 19.0986 117.197 21.642 115.326 22.5915C113.917 23.3079 112.574 24.1471 111.164 24.8626C110.857 25.0179 110.55 25.087 110.272 25.087Z" fill="#EFC23A"/>
<path d="M65.4206 78.209C65.1795 77.9364 64.9477 77.6471 64.7529 77.342C65.096 77.5831 65.3093 77.8844 65.4206 78.209Z" fill="#EFC23A"/>
<path d="M124.578 83.6434C123.586 82.9699 122.574 82.4061 121.523 81.9378C121.601 81.8877 121.668 81.8385 121.745 81.7904C122.024 81.6044 122.333 81.5206 122.651 81.5206C123.316 81.5206 124 81.8935 124.337 82.4697C124.559 82.8503 124.626 83.257 124.578 83.6434" fill="#EFC23A"/>
<path d="M150.788 72.0621C149.324 72.0621 148.026 70.1601 149.373 68.836C150.611 67.6259 151.978 66.6527 153.619 66.0776C153.786 66.0177 153.963 65.9911 154.13 65.9911C154.946 65.9911 155.733 66.6203 155.949 67.3998C156.234 68.4467 155.595 69.3855 154.622 69.7286C154.504 69.7748 154.445 69.7993 154.435 69.7993C154.425 69.7993 154.455 69.7856 154.514 69.758C154.376 69.815 154.258 69.876 154.13 69.9409C153.875 70.0795 153.609 70.223 153.374 70.3891C152.892 70.7165 152.469 71.0998 152.046 71.5127C151.663 71.9 151.211 72.0621 150.788 72.0621" fill="#EFC23A"/>
<path d="M157.198 60.7167C156.537 60.7167 155.856 60.3486 155.52 59.7704C154.978 58.8438 155.343 57.7475 156.201 57.1811C157.198 56.5249 158.234 55.9438 159.231 55.2876C159.507 55.104 159.823 55.0211 160.138 55.0211C160.809 55.0211 161.48 55.3882 161.816 55.9665C162.359 56.894 161.993 57.9893 161.135 58.5567C160.148 59.2129 159.102 59.7931 158.116 60.4493C157.829 60.6328 157.514 60.7167 157.198 60.7167" fill="#EFC23A"/>
<path d="M83.0234 41.3602C81.2764 41.3602 80.1149 38.8116 81.9941 37.872C84.5721 36.583 87.1501 35.2873 89.5675 33.7075C89.9075 33.4875 90.238 33.3912 90.5401 33.3912C92.136 33.3912 93.1748 35.8653 91.475 36.9767C89.0576 38.5556 86.4796 39.8521 83.9016 41.1411C83.5994 41.2932 83.2973 41.3602 83.0234 41.3602" fill="#EFC23A"/>
<path d="M73.9173 33.8356C73.2429 33.8356 72.5684 33.4629 72.2312 32.8878C71.9409 32.3904 71.9127 31.8508 72.072 31.3684C73.6363 29.9146 76.3152 28.4563 78.2448 27.4399C79.8185 27.6807 80.7551 30.0093 78.9848 30.917C77.5235 31.671 76.1935 32.647 74.8259 33.5669C74.5449 33.7523 74.2358 33.8356 73.9173 33.8356" fill="#EFC23A"/>
<path d="M88.9759 28.8828C88.3336 28.8828 87.729 28.5881 87.37 27.9703C86.8788 27.1305 87.115 25.8325 88.0502 25.38C88.4847 25.1665 88.9382 24.9861 89.3727 24.7641C89.6089 24.6432 89.8451 24.5194 90.0718 24.3683C90.1096 24.3409 90.1379 24.3192 90.1568 24.3041C90.2134 24.2578 90.2701 24.2106 90.3174 24.1614C90.6952 23.8025 91.1865 23.6163 91.6777 23.6163C92.1501 23.6163 92.6223 23.794 92.9907 24.1614C93.7087 24.8775 93.737 26.1273 92.9907 26.8386C92.1028 27.6897 91.0448 28.1186 89.9584 28.6486C89.6467 28.8035 89.3066 28.8828 88.9759 28.8828" fill="#EFC23A"/>
<path d="M77.2544 54.643C77.0856 54.643 76.9168 54.6205 76.748 54.5745C77.8077 52.97 78.5766 51.2089 78.8486 49.1824C79.008 49.0718 79.1768 48.9621 79.3455 48.8524C79.6175 48.6676 79.9364 48.5842 80.2458 48.5842C80.921 48.5842 81.5962 48.9546 81.9338 49.5313C82.4777 50.4616 82.1026 51.5503 81.2493 52.1214C80.2646 52.7807 79.3925 53.3273 78.6048 54.0972C78.2391 54.4582 77.742 54.643 77.2544 54.643Z" fill="#EFC23A"/>
<path d="M129.203 43.256C127.464 43.256 126.298 40.7064 128.173 39.7668C130.252 38.73 132.39 37.7069 134.236 36.2776C134.663 35.9424 135.169 35.7393 135.655 35.7393C136.092 35.7393 136.529 35.9016 136.908 36.2776C137.569 36.9393 137.724 38.319 136.908 38.9545C134.79 40.6014 132.487 41.8384 130.087 43.0364C129.786 43.188 129.485 43.256 129.203 43.256" fill="#EFC23A"/>
<path d="M143.893 41.0143C143.414 41.0143 142.924 40.8342 142.562 40.4682C141.838 39.746 141.818 38.5101 142.562 37.7909C143.668 36.7164 144.97 35.9237 146.428 35.4109C146.594 35.3522 146.77 35.3248 146.937 35.3248C147.749 35.3248 148.541 35.954 148.757 36.733C149.04 37.781 148.404 38.7186 147.436 39.0621C146.692 39.3214 145.84 39.8791 145.234 40.4682C144.872 40.8303 144.373 41.0143 143.893 41.0143Z" fill="#EFC23A"/>
<path d="M71.3025 81.4603C69.9376 81.0752 68.6756 80.5789 67.6006 79.9507C67.6941 79.774 67.8156 79.6011 67.9839 79.4365C69.8722 77.5426 71.7698 75.6497 73.6581 73.7576C74.0507 73.3641 74.4901 73.1986 74.9201 73.1986C76.3784 73.1986 77.6684 75.1 76.3317 76.4339C74.6584 78.1091 72.9851 79.7852 71.3025 81.4603" fill="#EFC23A"/>
<path d="M85.36 169.644C38.6261 169.644 0.735352 131.757 0.735352 85.0201C0.735352 60.0706 11.5331 37.6434 28.7023 22.1554C17.4253 32.4663 8.94874 45.7901 4.55071 60.8534C4.71986 60.7745 4.88902 60.6955 5.06757 60.6175C2.73699 68.3442 1.49651 76.536 1.49651 85.0201C1.49651 97.6541 4.2594 109.642 9.22129 120.408C9.1743 120.411 9.12731 120.414 9.08033 120.417C12.0405 126.75 15.762 132.654 20.1224 138.016C20.1318 138.014 20.1319 138.012 20.1319 138.011C35.572 157.208 59.2161 169.528 85.7359 169.644C85.6137 169.644 85.4821 169.644 85.36 169.644" fill="#9D8F48"/>
<path d="M85.7277 169.644C59.2089 169.529 35.5654 157.21 20.1301 138.012C27.26 134.67 33.6615 130.453 40.1115 126.039C39.383 129.081 39.2664 131.794 39.6647 134.191C39.3539 133.959 38.9653 133.816 38.5282 133.816C38.4019 133.816 38.2756 133.826 38.1493 133.85C33.2244 134.723 28.4355 136.806 25.6573 141.155C24.7345 142.593 26.0556 143.949 27.3767 143.949C27.9498 143.949 28.5326 143.691 28.9309 143.067C31.1651 139.565 35.2546 138.192 39.1596 137.5C39.7132 137.401 40.0921 137.124 40.3058 136.765C40.6943 137.893 41.2092 138.936 41.8114 139.896C40.0532 140.866 38.2367 141.694 36.2551 142.179C34.0597 142.716 34.7592 145.891 36.7602 145.891C36.9254 145.891 37.0905 145.873 37.2654 145.83C39.7715 145.217 42.064 144.116 44.2788 142.849C45.7261 144.213 47.4357 145.326 49.2911 146.198C49.1842 146.31 49.0579 146.418 48.9317 146.524C48.8442 146.599 48.7568 146.672 48.6597 146.745C48.7471 146.682 48.7665 146.658 48.7665 146.658C48.7568 146.658 48.5043 146.853 48.4849 146.866C48.0672 147.164 47.6203 147.435 47.1637 147.671C46.2409 148.14 45.9786 149.407 46.4837 150.26C46.8432 150.873 47.4552 151.178 48.0963 151.178C48.4266 151.178 48.7568 151.099 49.0677 150.939C50.1751 150.375 51.2144 149.614 52.1081 148.751C52.4578 148.404 52.6423 147.939 52.652 147.468C55.0028 148.168 57.4702 148.545 59.9181 148.615C55.3234 152.325 50.651 155.901 45.7941 159.228C57.7033 165.625 71.3123 169.256 85.7763 169.256C105.136 169.256 122.971 162.759 137.231 151.826C137.25 151.827 137.279 151.827 137.299 151.828C123.048 162.92 105.165 169.559 85.7277 169.644V169.644ZM36.4397 147.11C35.0992 147.11 33.7878 148.461 34.7398 149.881C35.3517 150.791 36.2356 151.146 37.207 151.146C39.2081 151.146 41.5686 149.639 42.6371 148.372C43.3074 147.585 43.4142 146.469 42.6371 145.695C42.2874 145.34 41.7628 145.142 41.2383 145.142C40.7623 145.142 40.2863 145.314 39.9658 145.695C39.4315 146.32 38.8487 146.727 38.1105 147.081C37.9162 147.174 37.5568 147.256 37.2945 147.315C37.4013 147.29 37.4305 147.282 37.4111 147.282C37.4013 147.282 37.3334 147.291 37.2654 147.3C37.0031 147.169 36.7214 147.11 36.4397 147.11V147.11ZM9.22145 120.41C4.25767 109.643 1.48926 97.6549 1.48926 85.0211C1.48926 76.537 2.74233 68.3463 5.06394 60.6189C11.4168 57.73 18.4593 55.7649 22.5003 54.6235C25.055 53.9066 27.5127 53.0567 29.9023 52.1018C29.5623 52.4418 29.2319 52.7838 28.9017 53.1325C27.2115 54.9422 25.5213 56.7401 23.9379 58.5955C23.7631 58.6159 23.5882 58.6257 23.4133 58.6257C23.1025 58.6257 22.7917 58.5897 22.4905 58.51C22.306 58.4585 22.1311 58.4353 21.9563 58.4353C20.1009 58.4353 19.4016 61.2397 21.1598 62.0411C20.4701 62.9561 19.8193 63.8915 19.1976 64.857C17.3811 65.8265 15.3217 66.351 13.3984 66.9941C10.7465 67.8848 8.2306 69.068 6.2684 71.1108C4.96674 72.4649 6.24903 74.364 7.68668 74.364C8.11409 74.364 8.55115 74.194 8.93971 73.7889C10.8533 71.8073 13.3596 70.9768 15.9143 70.1492C16.0795 70.0958 16.2446 70.0414 16.4097 69.987C15.5646 71.9191 14.9235 73.9376 14.496 75.9697C14.1852 75.6725 13.7773 75.482 13.2916 75.482C13.1265 75.482 12.9613 75.5024 12.7864 75.5462C11.2711 75.925 9.75575 76.3039 8.24038 76.6817C6.04505 77.2296 6.74441 80.3973 8.73575 80.3973C8.90089 80.3973 9.06604 80.3769 9.24089 80.3332C10.7563 79.9543 12.2716 79.5754 13.787 79.1976C13.8744 79.1762 13.9521 79.151 14.0298 79.1219C13.9812 79.6396 13.9521 80.1554 13.9327 80.6683C10.0374 80.747 5.26787 82.816 4.95703 86.8366C4.85989 88.0518 5.7536 88.656 6.69584 88.656C7.6478 88.656 8.64833 88.047 8.73575 86.8366C8.80375 86.009 10.5717 85.295 11.1837 85.0492C12.0773 84.6918 13.107 84.4091 14.1075 84.4062C14.2921 85.87 14.632 87.2805 15.108 88.6103C14.3989 88.7454 13.6607 88.8017 12.9127 88.8017C12.4076 88.8017 11.9025 88.7765 11.3974 88.7299C11.3197 88.7231 11.2516 88.7201 11.1933 88.7201C8.96887 88.7201 9.04663 92.3016 11.3974 92.5153C11.9122 92.5629 12.4367 92.5882 12.9613 92.5882C14.2921 92.5882 15.6132 92.425 16.8663 92.0734C17.3908 92.8544 17.993 93.5829 18.673 94.2512C15.1372 94.6359 11.7374 95.6257 8.92035 97.991C8.58037 98.2698 8.39575 98.5825 8.32775 98.9002C8.32775 98.7555 8.32781 98.6049 8.28895 98.4486C7.98782 96.6068 7.70607 94.6902 8.86201 93.0923C9.87225 91.7022 8.55119 90.3579 7.18154 90.3579C6.60842 90.3579 6.01584 90.5987 5.58843 91.1816C3.82051 93.6256 4.18971 96.6534 4.64626 99.4548C4.80168 100.414 5.48165 100.827 6.20048 100.827C7.10386 100.827 8.07519 100.206 8.27918 99.2023C8.25976 100.194 9.25055 101.141 10.3482 101.142C10.7659 101.142 11.2031 101.001 11.5917 100.669C14.739 98.0298 19.217 97.8308 23.1219 97.8162C23.5008 97.8143 23.8116 97.7278 24.0642 97.5821C24.8413 97.8599 25.6767 98.0881 26.551 98.264C26.5316 99.282 27.3378 100.426 28.5909 100.426C28.6978 100.426 28.8143 100.417 28.9309 100.398C30.6891 100.118 32.3405 99.4082 33.8364 98.4349C33.9627 98.4252 34.0986 98.4146 34.2346 98.4039C35.0991 98.3388 35.9831 98.2737 36.867 98.229C36.6339 98.3903 36.4105 98.5632 36.1774 98.7487C34.6815 99.9629 36.0414 101.879 37.615 101.879C38.0327 101.879 38.4601 101.744 38.8584 101.426C40.3932 100.182 42.404 100.2 44.2788 100.054C44.8325 100.011 45.3862 99.9464 45.9301 99.8512C46.2993 100.136 46.6295 100.464 46.9112 100.845C47.5037 101.642 47.8437 102.559 47.9797 103.553C46.6489 104.366 45.3084 105.165 43.9581 105.946C34.8368 111.228 25.395 117.852 14.9332 119.781C13.0001 120.139 11.0962 120.303 9.22145 120.41V120.41ZM10.6688 109.938C9.84317 109.938 8.95915 110.468 8.81345 111.32C8.39575 113.633 8.7455 115.771 10.1346 117.701C10.5523 118.27 11.1545 118.639 11.8053 118.639C12.1064 118.639 12.4173 118.558 12.7281 118.38C13.5538 117.896 14.0104 116.629 13.3984 115.79C12.631 114.714 12.2231 113.666 12.4659 112.327C12.6408 111.313 12.2036 110.291 11.1351 109.998C10.9894 109.957 10.8243 109.938 10.6688 109.938ZM16.7983 109.29C15.2149 109.29 13.8258 111.211 15.3508 112.405C17.0411 113.731 18.9159 114.267 20.8489 114.267C26.4927 114.267 32.7193 109.729 36.9545 107.022C38.6738 105.924 37.6151 103.446 36.022 103.446C35.7112 103.446 35.3808 103.54 35.0408 103.753C32.4084 105.437 29.8051 107.141 26.9978 108.536C25.3756 109.34 22.8403 110.527 20.6255 110.527C19.6639 110.527 18.7605 110.303 18.0319 109.728C17.6434 109.421 17.2062 109.29 16.7983 109.29V109.29ZM14.3503 101.57C10.6979 101.57 7.59921 103.361 6.91924 107.156C6.65697 108.592 7.88093 109.532 8.9786 109.532C9.70714 109.533 10.3969 109.119 10.5717 108.162C10.9797 105.837 12.6505 105.345 14.5544 105.345C15.2538 105.345 15.992 105.412 16.7108 105.479C18.5564 105.649 20.5187 106.085 22.4323 106.085C23.3551 106.085 24.2682 105.983 25.1425 105.699C27.2407 105.02 26.6189 101.946 24.7442 101.946C24.5596 101.946 24.3556 101.979 24.1419 102.048C23.3939 102.287 22.6072 102.378 21.7912 102.378C19.3627 102.378 16.7011 101.585 14.428 101.57C14.4086 101.57 14.3795 101.57 14.3503 101.57ZM14.1075 58.8578C13.7675 58.8578 13.4178 58.9365 13.0875 59.0793C10.2511 60.2974 7.5507 61.5893 5.13195 63.5399C3.62631 64.7512 4.99594 66.6687 6.56958 66.6687C6.98728 66.6687 7.41471 66.5346 7.80326 66.217C9.94031 64.4986 12.5048 63.4184 14.9915 62.3479C15.9435 61.9409 16.1474 60.5646 15.6812 59.7583C15.3023 59.1279 14.7292 58.8578 14.1075 58.8578Z" fill="#F2A633"/>
<path d="M4.55469 60.8478C8.95687 45.7845 17.4321 32.4603 28.7103 22.15C43.7135 8.62359 63.5704 0.389258 85.3649 0.389258C85.967 0.389258 86.5783 0.399627 87.1804 0.411855C83.3426 3.4012 79.7682 6.71316 76.4947 10.3092C76.0338 10.2434 75.5447 10.2124 75.0368 10.2124C69.9855 10.2124 63.1282 13.2732 60.2311 14.5186C53.6466 17.3602 46.8552 22.1284 42.8857 28.2303C40.4024 32.0521 41.4936 36.0837 39.8099 40.2714C37.8345 45.1825 33.5546 48.4352 29.9049 52.0943C27.5157 53.05 25.0606 53.8993 22.5115 54.6161C18.4668 55.758 11.4214 57.7221 5.06267 60.6118C4.89335 60.6898 4.724 60.7688 4.55469 60.8478" fill="#F3B83A"/>
<path d="M20.1189 138.012C15.7539 132.651 12.0401 126.746 9.07812 120.414C9.12398 120.411 9.17896 120.408 9.22481 120.406C11.0955 120.299 13.0029 120.135 14.9378 119.777C25.4009 117.848 34.837 111.224 43.9613 105.941C45.3093 105.16 46.6482 104.362 47.987 103.549C48.6748 108.487 44.4932 115.313 42.8059 118.766C41.5404 121.371 40.6509 123.793 40.1098 126.035C33.6632 130.448 27.2625 134.665 20.1281 138.008C20.1281 138.009 20.1281 138.011 20.1189 138.012" fill="#F3B83A"/>
<path d="M85.7813 169.254C71.318 169.254 57.7095 165.622 45.8008 159.226C50.6575 155.898 55.3296 152.323 59.9241 148.613C60.2058 148.622 60.4875 148.625 60.7692 148.625C65.2859 148.625 69.6084 147.579 72.7167 145.593C73.5618 145.045 74.2709 144.807 74.8731 144.807C76.8644 144.807 77.7289 147.392 79.1276 149.977C80.5166 152.56 82.4496 155.145 86.5584 155.145C87.6074 155.146 88.7925 154.979 90.1427 154.603C94.368 153.43 101.76 149.517 107.617 145.785C116.796 149.473 126.782 151.596 137.233 151.824C122.974 162.757 105.14 169.254 85.7813 169.254" fill="#F3B83A"/>
<path d="M7.68227 74.3582C6.25298 74.3582 4.96749 72.4588 6.27094 71.105C8.23959 69.0618 10.7476 67.8788 13.3994 66.9888C15.3231 66.3452 17.3907 65.8211 19.1975 64.8512C18.2716 66.2957 17.4177 67.806 16.6805 69.4043C16.5906 69.5957 16.5007 69.788 16.4198 69.9804C16.249 70.0352 16.0872 70.0892 15.9254 70.1432C13.3634 70.9702 10.8555 71.8008 8.94973 73.783C8.5542 74.1884 8.11376 74.3582 7.68227 74.3582" fill="#F2D03C"/>
<path d="M6.7023 88.6516C5.75274 88.6516 4.86589 88.0468 4.95547 86.8321C5.27797 82.8117 10.0437 80.7425 13.9315 80.6636C13.8957 81.9321 13.9584 83.1853 14.1107 84.4018C13.1074 84.4045 12.0772 84.6876 11.1813 85.045C10.5722 85.2896 8.80744 86.0044 8.74473 86.8321C8.64619 88.0424 7.65186 88.6516 6.7023 88.6516Z" fill="#F2D03C"/>
<path d="M12.9661 92.5806C12.4455 92.5806 11.9249 92.5563 11.4044 92.5078C9.05292 92.2942 8.97216 88.7132 11.198 88.7132C11.2608 88.7132 11.3326 88.7159 11.4044 88.7222C11.907 88.7689 12.4186 88.7949 12.9212 88.7949C13.6661 88.7949 14.4021 88.7374 15.1201 88.6037C15.5688 89.8369 16.1522 91 16.8702 92.0663C15.6137 92.4172 14.3033 92.5806 12.9661 92.5806Z" fill="#F2D03C"/>
<path d="M8.74115 80.3924C6.75192 80.3924 6.05295 77.2248 8.23931 76.6764C9.75363 76.2983 11.268 75.9202 12.7823 75.5411C12.9615 75.4972 13.1318 75.4766 13.2931 75.4766C13.7859 75.4766 14.1891 75.6675 14.5027 75.9641C14.2787 77.0152 14.1264 78.0689 14.0278 79.1173C13.9562 79.1459 13.8755 79.1701 13.7948 79.1925C12.2805 79.5707 10.7573 79.9488 9.25192 80.3278C9.07271 80.3717 8.90244 80.3924 8.74115 80.3924" fill="#F2D03C"/>
<path d="M8.98053 109.526C7.87781 109.526 6.66656 108.585 6.91964 107.15C7.59754 103.354 10.6979 101.564 14.3586 101.564C14.3857 101.564 14.4128 101.564 14.4308 101.564C16.6996 101.578 19.3659 102.372 21.7883 102.372C22.6108 102.372 23.3972 102.282 24.1384 102.041C24.3553 101.971 24.5632 101.94 24.7531 101.94C26.6241 101.94 27.2477 105.013 25.1507 105.692C24.274 105.977 23.352 106.079 22.4301 106.079C20.5229 106.079 18.5525 105.643 16.7176 105.473C15.9945 105.406 15.2624 105.338 14.5573 105.338C12.6592 105.338 10.9871 105.83 10.5713 108.157C10.3996 109.113 9.71267 109.526 8.98053 109.526" fill="#F2D03C"/>
<path d="M10.3459 101.137C9.25462 101.136 8.26248 100.189 8.28052 99.1982C8.30757 99.0999 8.31659 98.9998 8.32561 98.8952C8.39776 98.5777 8.58713 98.2648 8.92084 97.987C11.7348 95.6203 15.1441 94.631 18.6706 94.2467C20.1137 95.6673 21.9085 96.8082 24.064 97.5766C23.8115 97.7227 23.4958 97.8102 23.126 97.8111C19.2117 97.8264 14.7382 98.0248 11.5995 100.664C11.2027 100.996 10.7608 101.137 10.3459 101.137" fill="#F2D03C"/>
<path d="M28.5897 100.421C27.3368 100.421 26.5378 99.2772 26.556 98.2594C27.3005 98.4074 28.0813 98.5181 28.8893 98.588C29.2525 98.618 29.6429 98.6317 30.0514 98.6317C31.1682 98.6317 32.4574 98.5354 33.8374 98.4301C32.3394 99.4034 30.6961 100.114 28.9347 100.394C28.8167 100.413 28.6987 100.421 28.5897 100.421" fill="#F2D03C"/>
<path d="M20.8539 114.26C18.9138 114.26 17.0465 113.725 15.3523 112.399C13.8311 111.204 15.2247 109.284 16.8005 109.284C17.2195 109.284 17.6477 109.415 18.0394 109.722C18.7681 110.297 19.6698 110.521 20.6262 110.521C22.8397 110.521 25.381 109.333 27.0024 108.53C29.8079 107.135 32.4221 105.43 35.0455 103.747C35.3825 103.533 35.7105 103.44 36.0293 103.44C37.6233 103.44 38.6799 105.918 36.9583 107.016C32.7227 109.723 26.5014 114.26 20.8539 114.26" fill="#F2D03C"/>
<path d="M27.3739 143.944C26.0517 143.944 24.7386 142.588 25.6596 141.151C28.4317 136.8 33.2191 134.719 38.1524 133.845C38.28 133.822 38.4077 133.81 38.5262 133.81C38.9639 133.81 39.356 133.955 39.6661 134.186C39.812 135.089 40.0217 135.946 40.3044 136.76C40.0946 137.12 39.7208 137.396 39.1554 137.495C35.2526 138.187 31.1582 139.561 28.9241 143.062C28.532 143.686 27.9484 143.944 27.3739 143.944Z" fill="#F2D03C"/>
<path d="M36.7649 145.885C34.7717 145.885 34.0585 142.709 36.262 142.172C38.2461 141.687 40.0655 140.859 41.821 139.888C42.5159 140.978 43.348 141.963 44.2806 142.842C42.0679 144.11 39.773 145.21 37.2677 145.822C37.094 145.865 36.9294 145.885 36.7649 145.885" fill="#F2D03C"/>
<path d="M48.0985 151.174C47.4548 151.174 46.8388 150.869 46.4802 150.257C45.9746 149.404 46.2411 148.137 47.1606 147.667C47.6203 147.43 48.0617 147.161 48.4846 146.862C48.503 146.848 48.7604 146.655 48.7696 146.655C48.7696 146.655 48.742 146.678 48.6593 146.741C48.7512 146.669 48.8432 146.596 48.9351 146.521C49.0546 146.414 49.1742 146.306 49.2937 146.194C50.3695 146.697 51.4912 147.12 52.6497 147.464C52.6406 147.935 52.4566 148.4 52.1072 148.747C51.2154 149.61 50.1672 150.371 49.0639 150.935C48.7605 151.094 48.4203 151.174 48.0985 151.174" fill="#F2D03C"/>
<path d="M37.6178 101.873C36.0525 101.872 34.6796 99.9557 36.1808 98.7419C36.4096 98.5561 36.6384 98.383 36.8764 98.2229C37.5629 98.1881 38.2494 98.1662 38.9268 98.1662C41.6545 98.1662 44.2174 98.5195 45.9382 99.8449C45.389 99.9401 44.8398 100.004 44.2815 100.047C42.405 100.194 40.4004 100.175 38.8627 101.419C38.4599 101.738 38.0297 101.873 37.6178 101.873" fill="#F2D03C"/>
<path d="M11.8086 118.633C11.1637 118.633 10.5545 118.265 10.1425 117.695C8.7451 115.766 8.40473 113.627 8.81677 111.315C8.96009 110.463 9.84687 109.932 10.6799 109.932C10.8322 109.932 10.9934 109.952 11.1457 109.992C12.2027 110.285 12.6416 111.307 12.4625 112.321C12.2206 113.661 12.6327 114.709 13.403 115.784C14.0121 116.623 13.5553 117.89 12.7312 118.375C12.4267 118.552 12.1132 118.633 11.8086 118.633" fill="#F2D03C"/>
<path d="M37.2109 151.141C36.2423 151.141 35.3559 150.786 34.7437 149.877C33.7933 148.456 35.1092 147.105 36.4434 147.105C36.7266 147.105 37.0099 147.165 37.2658 147.295C37.3389 147.286 37.4028 147.277 37.4119 147.277C37.4302 147.277 37.4028 147.285 37.3023 147.311C37.5581 147.25 37.9237 147.169 38.1156 147.076C38.8557 146.723 39.4314 146.316 39.9614 145.69C40.2813 145.31 40.7564 145.137 41.2407 145.137C41.7616 145.137 42.2916 145.336 42.6388 145.69C43.4155 146.465 43.3059 147.58 42.6388 148.367C41.5697 149.634 39.2121 151.141 37.2109 151.141Z" fill="#F2D03C"/>
<path d="M21.1636 62.0355C19.405 61.2328 20.1084 58.4291 21.9662 58.4291C22.1285 58.4291 22.3089 58.4524 22.4983 58.5038C22.7959 58.5841 23.1026 58.6202 23.4182 58.6202C23.5896 58.6202 23.7699 58.6094 23.9413 58.5895C22.9763 59.7123 22.0384 60.855 21.1636 62.0355Z" fill="#F2D03C"/>
<path d="M6.57204 66.6631C5.00218 66.6622 3.63865 64.7452 5.13674 63.5332C7.55881 61.583 10.25 60.2913 13.0937 59.0731C13.4256 58.9304 13.7754 58.8515 14.1074 58.8515C14.7263 58.8515 15.3094 59.1215 15.6862 59.7522C16.1526 60.5586 15.9553 61.9347 15.0044 62.342C12.5016 63.4122 9.94498 64.4923 7.80997 66.211C7.42423 66.5286 6.99366 66.6631 6.57204 66.6631" fill="#F2D03C"/>
<path d="M82.233 129.872C81.3719 129.094 80.5302 128.299 79.7078 127.488C79.853 127.405 79.9884 127.3 80.1239 127.168C81.788 125.532 83.6069 124.08 85.4258 122.626C86.2289 121.979 86.0934 120.617 85.4258 119.949C85.0485 119.573 84.6131 119.41 84.1681 119.41C83.665 119.41 83.1715 119.61 82.7458 119.949C80.9269 121.403 79.1079 122.855 77.4438 124.491C77.3277 124.608 77.231 124.729 77.1536 124.853C73.0126 120.407 69.3554 115.515 66.24 110.258C71.6871 108.034 77.2503 106.438 83.0651 104.471C93.7852 100.853 102.048 94.0627 111.288 87.3704C114.122 85.3154 116.948 83.2807 119.744 81.2422C120.353 81.4473 120.943 81.6785 121.524 81.9407C120.324 82.7583 119.173 83.6329 117.963 84.4437C117.102 85.0174 116.735 86.1001 117.277 87.0327C117.625 87.6084 118.292 87.9809 118.96 87.9809C119.279 87.9809 119.599 87.8977 119.869 87.712C121.156 86.8528 122.375 85.922 123.652 85.0619C124.165 84.7223 124.494 84.2047 124.581 83.6464C125.104 84.0083 125.617 84.4021 126.129 84.8288C127.958 86.3739 129.612 88.159 130.996 90.1114C115.264 102.373 100.045 115.196 84.6034 127.905C83.8101 128.559 83.0167 129.215 82.233 129.872V129.872ZM80.6173 115.638C80.3367 115.638 80.027 115.709 79.7271 115.867C78.0533 116.726 76.515 117.875 75.1798 119.191C73.8253 120.517 75.1218 122.418 76.5924 122.418C77.0181 122.418 77.4535 122.255 77.8502 121.868C78.9822 120.763 80.2302 119.857 81.6331 119.136C83.5005 118.178 82.3491 115.638 80.6173 115.638V115.638ZM94.3076 109.529C93.998 109.529 93.6788 109.614 93.3498 109.809C91.26 111.054 88.7831 112.308 87.7479 114.653C87.3318 115.597 87.4673 116.678 88.4348 117.243C88.7057 117.406 89.054 117.488 89.4023 117.488C90.0602 117.488 90.7472 117.185 91.0181 116.563C91.7921 114.828 93.7175 113.998 95.2655 113.077C97.0361 112.025 95.9524 109.529 94.3076 109.529V109.529ZM79.8626 107.687C79.582 107.687 79.2724 107.757 78.9628 107.916C76.9601 108.949 75.1121 110.37 72.9836 111.132C70.9325 111.866 71.5226 114.902 73.3415 114.903C73.535 114.903 73.7576 114.865 73.9898 114.783C76.4569 113.902 78.5661 112.377 80.8785 111.185C82.7361 110.226 81.5945 107.687 79.8626 107.687V107.687ZM108.617 94.0057C108.308 94.0057 107.998 94.0908 107.737 94.2863C106.14 95.486 104.525 96.6557 102.822 97.6939C101.061 98.7591 102.135 101.25 103.77 101.25C104.08 101.25 104.399 101.163 104.728 100.963C106.44 99.925 108.056 98.7543 109.653 97.5555C110.475 96.9383 110.891 95.933 110.33 94.9654C110.001 94.4082 109.295 94.0057 108.617 94.0057V94.0057ZM59.5254 96.021C58.7417 93.8683 58.0547 91.675 57.4452 89.4448C57.7161 88.7608 57.571 87.9306 57.0292 87.3898C56.9808 87.3414 56.9324 87.2969 56.8841 87.2552C56.797 86.9147 56.7196 86.5742 56.6422 86.2317C56.8937 86.3739 57.1937 86.4561 57.5517 86.4561C57.5614 86.4561 57.571 86.4561 57.5807 86.4561C60.3284 86.4232 62.8827 85.864 65.3498 84.6837C67.2655 83.7752 66.0755 81.2112 64.3049 81.2112C64.034 81.2112 63.7437 81.2732 63.4438 81.4144C61.5862 82.3007 59.6318 82.6451 57.5807 82.6702C56.8647 82.6789 56.352 83.0175 56.052 83.4897C55.8295 82.3219 55.6263 81.1522 55.4521 79.9689C56.4874 79.6574 57.5613 79.4861 58.6256 79.4861C60.0672 79.4861 61.4701 79.8044 62.6795 80.5184C63.0182 80.711 63.3374 80.7952 63.6373 80.7952C64.8854 80.7952 65.8046 79.3642 65.4176 78.2139C66.0174 78.8834 66.7527 79.459 67.6041 79.9534C66.9656 81.2131 68.1169 82.6741 69.394 82.6741C69.8198 82.6741 70.2649 82.5097 70.6616 82.1159C70.8744 81.8992 71.0969 81.6805 71.3097 81.4637C73.206 81.9939 75.3443 82.3162 77.5696 82.4864C71.7064 87.1789 65.6981 91.7368 59.5254 96.021" fill="#F19A4A"/>
<path d="M66.2382 110.258C63.5773 105.763 61.3294 101.002 59.5234 96.0212C65.7002 91.7369 71.7041 87.1788 77.5639 82.4871C78.9856 82.5957 80.4457 82.6417 81.9154 82.6417C88.9183 82.6417 95.998 81.5697 99.2353 81.0625C102.991 80.4708 106.92 79.9175 110.782 79.9175C113.856 79.9175 116.891 80.271 119.744 81.2422C116.949 83.2816 114.125 85.3161 111.291 87.3709C102.05 94.0635 93.779 100.853 83.0682 104.472C77.2468 106.439 71.6945 108.034 66.2382 110.258" fill="#F2B053"/>
<path d="M107.612 145.787C98.1905 142.008 89.6141 136.584 82.2227 129.873C83.0094 129.216 83.8058 128.56 84.6023 127.906C100.046 115.198 115.256 102.374 130.99 90.1136C135.293 96.154 137.119 103.799 134.312 110.903C128.64 125.243 125.318 130.958 114.751 140.597C113.187 142.021 110.603 143.881 107.612 145.787" fill="#F2B053"/>
<path d="M64.7445 77.3446C64.6975 77.3098 64.6505 77.2778 64.5941 77.2468C62.8167 76.1954 60.7478 75.7167 58.6319 75.7167C57.4094 75.7167 56.1681 75.8785 54.9643 76.1822C54.654 73.2378 54.4941 70.2483 54.4941 67.2211C54.4941 64.3586 54.6352 61.5279 54.908 58.7378C55.8766 58.3089 56.8357 57.8858 57.7855 57.4212C58.7071 56.9651 58.9517 55.673 58.4627 54.8313C58.0959 54.2135 57.494 53.9173 56.8545 53.9173C56.5254 53.9173 56.1868 53.9963 55.8671 54.1515C55.7354 54.2182 55.6039 54.2822 55.4722 54.3471C55.9236 51.4036 56.516 48.509 57.259 45.6728C57.306 45.8289 57.3717 45.9859 57.4658 46.1411C57.7855 46.6987 58.4909 47.1022 59.168 47.1022C59.4877 47.1022 59.7886 47.0166 60.0519 46.8201C61.4531 45.7697 62.8919 44.6609 64.5188 43.9819C65.4686 43.586 66.1457 42.7434 65.8448 41.6535C65.6379 40.9134 64.8386 40.2288 64.0392 40.2288C63.8605 40.2288 63.6819 40.2608 63.5126 40.3313C61.5378 41.1532 59.845 42.2741 58.1429 43.5512C58.0018 43.6603 57.8607 43.7817 57.7479 43.9124C58.7353 40.462 59.9297 37.101 61.3309 33.8453C65.5157 31.1068 69.7757 28.4221 74.2426 25.9789C78.3804 23.7172 82.584 22.9761 86.797 22.2821C84.9162 23.9447 81.7282 25.5218 79.9414 26.5328C79.537 26.7631 78.9352 27.0735 78.2393 27.443C78.1453 27.4289 78.0606 27.4224 77.9665 27.4224C77.6844 27.4224 77.3835 27.492 77.0732 27.6509C75.5967 28.4052 74.2708 29.3803 72.9072 30.3001C72.5028 30.569 72.2114 30.948 72.0703 31.3711C71.3086 32.0821 70.8101 32.793 70.8101 33.4494C70.7725 36.5753 77.6093 40.2617 78.5121 44.0497C78.9729 45.9474 79.048 47.641 78.8506 49.1814C77.8349 49.8622 76.8099 50.5657 75.9353 51.4196C75.1924 52.1381 75.2112 53.3747 75.9353 54.096C76.1704 54.332 76.4431 54.4909 76.744 54.5736C74.3366 58.2412 70.4246 61.0935 67.4905 64.4479C67.3965 64.5118 67.3119 64.5852 67.2272 64.6698C65.9577 65.9065 64.5001 66.8253 62.7603 67.2118C60.541 67.7055 61.2651 70.9151 63.3057 70.9151C63.4562 70.9151 63.6066 70.8982 63.7665 70.8624C63.8229 70.8502 63.8699 70.8389 63.9264 70.8257C63.7853 71.4313 63.6819 72.0604 63.6442 72.7187C63.522 74.5666 63.9264 76.092 64.7445 77.3446V77.3446ZM67.2742 47.9692C67.1708 48.0257 67.0767 48.0755 66.9733 48.1263C66.6536 48.2899 66.3526 48.5194 66.0893 48.7686C65.337 49.4786 65.3746 50.7321 66.0893 51.4468C66.456 51.8136 66.9262 51.9904 67.4058 51.9904C67.876 51.9913 68.3462 51.8192 68.7224 51.4882C68.8165 51.4327 68.9105 51.382 69.014 51.3312C69.3431 51.1685 69.6346 50.9381 69.8979 50.6889C70.6502 49.9798 70.6126 48.7253 69.8979 48.0116C69.5312 47.6439 69.061 47.4671 68.5813 47.4671C68.1111 47.4671 67.641 47.6382 67.2742 47.9692Z" fill="#F19A4A"/>
<path d="M61.3379 33.8427C65.0681 25.1511 70.2208 17.2093 76.4943 10.3084C78.1616 10.5458 79.5275 11.2419 80.3093 12.6238L84.8496 17.167C89.3616 18.5602 88.853 20.4704 86.7995 22.28C82.5888 22.9733 78.3876 23.7146 74.2523 25.9763C69.778 28.4198 65.5203 31.1044 61.3379 33.8427Z" fill="#F2B053"/>
<path d="M63.3066 70.9125C61.2638 70.9125 60.5394 67.7034 62.7587 67.2094C64.5044 66.8232 65.9529 65.9039 67.225 64.668C67.3179 64.5835 67.4015 64.5092 67.4944 64.4461C65.8508 66.3348 64.5044 68.3822 63.9287 70.8234C63.8822 70.8364 63.8266 70.8485 63.7709 70.8606C63.6037 70.8959 63.4552 70.9125 63.3066 70.9125Z" fill="#F1CB56"/>
<path d="M54.9102 58.7385C55.0579 57.2621 55.2518 55.8005 55.4641 54.3481C55.6026 54.2835 55.7319 54.2188 55.8704 54.1523C56.1843 53.9972 56.526 53.9178 56.8491 53.9178C57.4955 53.9178 58.0956 54.2141 58.4557 54.8318C58.9542 55.6739 58.705 56.9657 57.7816 57.4218C56.8399 57.8863 55.8704 58.3091 54.9102 58.7385" fill="#F1CB56"/>
<path d="M59.1714 47.0996C58.4941 47.0996 57.7891 46.6961 57.4644 46.1394C57.3809 45.9836 57.3159 45.8268 57.2695 45.67C57.418 45.0809 57.585 44.4945 57.752 43.9101C57.8633 43.7793 58.0024 43.6578 58.1509 43.5492C59.8486 42.2717 61.5464 41.151 63.5225 40.3291C63.6895 40.2585 63.8657 40.226 64.042 40.226C64.8491 40.226 65.647 40.9117 65.8511 41.6511C66.1479 42.7412 65.48 43.5844 64.5244 43.9797C62.9009 44.6588 61.4629 45.7674 60.0527 46.8176C59.793 47.0143 59.4868 47.0996 59.1714 47.0996" fill="#F1CB56"/>
<path d="M67.4073 51.989C66.9328 51.989 66.4582 51.8123 66.0954 51.4447C65.3789 50.7301 65.3417 49.4767 66.0954 48.7676C66.3559 48.5182 66.6537 48.2884 66.9793 48.1246C67.0817 48.0744 67.1748 48.0242 67.2771 47.9683C67.64 47.6371 68.1145 47.4658 68.5891 47.4658C69.0636 47.4658 69.5382 47.6427 69.9011 48.0102C70.6176 48.7239 70.6548 49.9782 69.9011 50.6872C69.6406 50.9366 69.3428 51.1664 69.0172 51.3302C68.9148 51.3805 68.8124 51.4307 68.7194 51.4865C68.3472 51.8178 67.8819 51.9899 67.4073 51.989Z" fill="#F1CB56"/>
<path d="M57.4446 89.4418C57.2508 88.7157 57.0571 87.986 56.8818 87.2517C56.928 87.2932 56.9833 87.3383 57.0294 87.3854C57.5645 87.9269 57.7121 88.7563 57.4446 89.4418" fill="#F1CB56"/>
<path d="M63.6421 80.7897C63.336 80.7897 63.0207 80.7053 62.6868 80.5124C61.4717 79.7982 60.0712 79.4801 58.6242 79.4801C57.5668 79.4801 56.4909 79.6507 55.4521 79.9623C55.2666 78.7111 55.0996 77.4478 54.9697 76.1789C56.1662 75.8756 57.4091 75.7143 58.6335 75.7143C60.7482 75.7143 62.8167 76.1929 64.5975 77.2438C64.6532 77.2753 64.7088 77.3078 64.7552 77.3412C64.9499 77.6463 65.1726 77.9348 65.423 78.2084C65.8126 79.3586 64.8943 80.7897 63.6421 80.7897Z" fill="#F1CB56"/>
<path d="M89.3974 117.491C89.0471 117.491 88.7063 117.408 88.4223 117.245C87.4566 116.681 87.3336 115.598 87.7407 114.655C88.7821 112.31 91.2528 111.056 93.345 109.811C93.6763 109.616 93.9982 109.531 94.3012 109.531C95.9484 109.531 97.0276 112.027 95.2573 113.079C93.7142 114.001 91.783 114.83 91.0162 116.565C90.7417 117.186 90.0601 117.491 89.3974 117.491" fill="#F1CB56"/>
<path d="M73.3416 114.904C71.5221 114.904 70.9312 111.867 72.9853 111.132C75.1143 110.371 76.962 108.95 78.9598 107.916C79.2693 107.758 79.5788 107.688 79.8601 107.688C81.5953 107.688 82.7395 110.227 80.8731 111.186C78.5658 112.378 76.4556 113.902 73.9888 114.785C73.7544 114.866 73.5386 114.904 73.3416 114.904" fill="#F1CB56"/>
<path d="M103.767 101.251C102.134 101.251 101.064 98.7598 102.822 97.6947C104.522 96.6565 106.136 95.4864 107.741 94.2867C107.999 94.0909 108.304 94.0058 108.62 94.0058C109.298 94.0058 110.005 94.4089 110.329 94.9658C110.893 95.9334 110.473 96.9382 109.651 97.5562C108.056 98.755 106.442 99.9251 104.722 100.963C104.398 101.163 104.073 101.251 103.767 101.251Z" fill="#F1CB56"/>
<path d="M118.96 87.9775C118.295 87.9775 117.621 87.6046 117.283 87.0293C116.734 86.0966 117.1 85.0135 117.958 84.4392C119.172 83.6289 120.328 82.7548 121.523 81.9367C122.573 82.405 123.595 82.9688 124.578 83.6423C124.501 84.2012 124.163 84.7187 123.653 85.0578C122.381 85.9174 121.147 86.8482 119.866 87.7077C119.596 87.8937 119.288 87.9775 118.96 87.9775" fill="#F1CB56"/>
<path d="M72.0771 31.3686C72.2174 30.9459 72.5074 30.5662 72.9095 30.2978C74.2748 29.3786 75.6027 28.4023 77.0802 27.6485C77.3795 27.4896 77.6881 27.4204 77.978 27.4204C78.0622 27.4204 78.1463 27.4269 78.2398 27.44C76.3134 28.4565 73.6389 29.9144 72.0771 31.3686" fill="#F1CB56"/>
<path d="M76.7495 54.5759C76.4501 54.4926 76.1694 54.3336 75.9262 54.0979C75.2059 53.3766 75.1871 52.1398 75.9262 51.4213C76.8056 50.5672 77.8253 49.8646 78.8451 49.1835C78.5738 51.2099 77.8066 52.9705 76.7495 54.5759" fill="#F1CB56"/>
<path d="M76.5928 122.418C75.1195 122.418 73.8245 120.516 75.1758 119.191C76.5177 117.874 78.0566 116.725 79.7269 115.866C80.0366 115.707 80.3369 115.638 80.6278 115.638C82.3544 115.638 83.4992 118.177 81.6318 119.135C80.2336 119.856 78.9762 120.762 77.8502 121.868C77.456 122.255 77.0151 122.418 76.5928 122.418" fill="#F1CB56"/>
<path d="M79.7102 127.487C78.8359 126.628 77.99 125.748 77.1533 124.853C77.2285 124.729 77.3319 124.607 77.4447 124.491C79.1086 122.854 80.9323 121.402 82.7467 119.947C83.1697 119.609 83.6679 119.409 84.1661 119.409C84.6079 119.409 85.0498 119.572 85.4258 119.947C86.0933 120.617 86.2343 121.979 85.4258 122.625C83.6115 124.079 81.7878 125.531 80.1239 127.168C79.9923 127.299 79.8512 127.404 79.7102 127.487" fill="#F1CB56"/>
<path d="M57.5475 86.4542C57.1947 86.4542 56.8883 86.3715 56.6376 86.2295C56.4241 85.3215 56.2291 84.4061 56.0527 83.4879C56.3498 83.0153 56.8605 82.6774 57.5846 82.6682C59.6271 82.6431 61.5769 82.2986 63.443 81.412C63.7401 81.2718 64.0279 81.2086 64.3064 81.2086C66.0797 81.2086 67.2588 83.7729 65.3462 84.6818C62.8766 85.8618 60.3234 86.4207 57.5846 86.4542C57.5753 86.4542 57.5568 86.4542 57.5475 86.4542" fill="#F1CB56"/>
<path d="M69.3905 82.6708C68.1152 82.6708 66.9608 81.2093 67.6032 79.9498C68.6737 80.5782 69.9397 81.0743 71.3081 81.4597C71.094 81.6775 70.8799 81.8953 70.6565 82.1122C70.2655 82.506 69.8187 82.6708 69.3905 82.6708" fill="#F1CB56"/>
<path d="M59.9269 148.611C57.4797 148.541 55.0045 148.164 52.6605 147.465C52.6698 146.958 52.4824 146.445 52.1073 146.07C51.7417 145.704 51.2635 145.524 50.7759 145.524C50.2884 145.524 49.8008 145.708 49.4352 146.07C49.3883 146.112 49.3508 146.153 49.3039 146.194C47.438 145.322 45.7316 144.209 44.2784 142.845C45.2628 142.285 46.2286 141.692 47.1849 141.093C48.9195 140.009 47.8599 137.525 46.2379 137.525C45.9379 137.525 45.6003 137.615 45.2722 137.823C44.1283 138.537 42.9938 139.246 41.8218 139.892C41.2124 138.933 40.6967 137.889 40.3123 136.762C40.7811 135.974 40.4717 134.787 39.6653 134.187C39.2809 131.792 39.384 129.078 40.1154 126.036C45.6754 122.234 51.2635 118.287 57.386 114.628C60.3301 112.874 63.2648 111.472 66.2464 110.256C69.3498 115.513 73.0158 120.406 77.1507 124.852C76.3349 126.137 77.5257 127.719 78.8571 127.719C79.1478 127.719 79.4384 127.648 79.7103 127.486C80.5354 128.297 81.3793 129.092 82.2325 129.87C74.6942 136.15 67.4183 142.56 59.9269 148.611V148.611ZM50.4946 139.865C48.4038 139.865 47.6349 143.123 49.8945 143.555C51.7697 143.915 53.7013 144.532 55.6421 144.532C55.9515 144.532 56.2703 144.515 56.5891 144.479C59.3925 144.152 61.174 142.148 62.2522 139.656C62.6085 138.813 62.3647 138.009 61.8677 137.462C62.4022 136.938 62.9367 136.405 63.4711 135.875C64.8025 134.54 63.5085 132.639 62.0553 132.639C61.6333 132.639 61.1833 132.804 60.7895 133.197C59.1393 134.851 57.4892 136.581 55.5015 137.823C54.3201 138.557 54.4232 139.938 55.1264 140.748C53.7013 140.663 52.2667 140.167 50.8978 139.904C50.7572 139.877 50.6259 139.865 50.4946 139.865V139.865ZM73.7847 126.561C73.4753 126.561 73.1752 126.647 72.9127 126.844C71.4781 127.932 70.1749 129.166 68.7498 130.251C67.9247 130.875 67.5028 131.87 68.0653 132.841C68.3935 133.396 69.1061 133.804 69.7811 133.804C70.0905 133.804 70.3999 133.718 70.6531 133.521C72.0876 132.434 73.4003 131.199 74.8254 130.113C75.6411 129.49 76.0724 128.495 75.5005 127.523C75.1724 126.969 74.4692 126.561 73.7847 126.561V126.561ZM44.7191 126.184C44.5503 126.184 44.3815 126.213 44.2127 126.275C42.3656 126.953 41.2499 128.431 40.6217 130.248C40.2748 131.222 40.9967 132.316 41.9437 132.576C42.1125 132.623 42.2812 132.645 42.4406 132.645C43.2844 132.645 43.9876 132.067 44.2689 131.254C44.2877 131.193 44.3158 131.133 44.3346 131.073C44.344 131.049 44.3533 131.016 44.3815 130.973C44.4846 130.757 44.6065 130.552 44.7377 130.354C44.7565 130.339 44.7659 130.321 44.7846 130.3C44.869 130.208 44.9535 130.125 45.0472 130.043C45.066 130.031 45.0846 130.015 45.1128 129.996C45.169 129.961 45.4035 129.865 45.3847 129.865C45.3847 129.865 45.3379 129.881 45.216 129.925C46.1817 129.57 46.8286 128.655 46.5379 127.597C46.3223 126.827 45.5348 126.184 44.7191 126.184V126.184ZM58.483 121.371C58.108 121.67 57.8923 122.146 57.9674 122.799C58.2393 125.269 57.6579 127.539 56.8984 129.869C56.439 131.271 57.583 132.187 58.7362 132.187C59.4863 132.187 60.2457 131.791 60.5458 130.875C61.4084 128.26 62.0647 125.569 61.7459 122.799C61.6615 122.048 61.2302 121.53 60.6957 121.247C60.7332 121.204 60.7801 121.159 60.8176 121.11C61.2395 120.587 62.5053 120.272 63.3117 120.024C64.4743 119.669 65.6651 119.381 66.7996 118.946C68.8154 118.176 68.2435 115.162 66.4714 115.162C66.2558 115.162 66.0307 115.204 65.7963 115.296C64.4274 115.814 63.0022 116.147 61.6146 116.586C60.4332 116.96 58.9518 117.423 58.1454 118.433C57.4985 119.237 57.3485 120.32 58.1454 121.11C58.2392 121.209 58.3611 121.297 58.483 121.371V121.371ZM54.2075 125.471C53.87 125.471 53.5418 125.551 53.223 125.709C51.5916 126.523 49.9977 127.379 48.6757 128.655C47.3161 129.97 48.6101 131.873 50.0915 131.873C50.5228 131.873 50.9635 131.712 51.3573 131.331C52.4355 130.291 53.8044 129.642 55.1358 128.977C56.0546 128.516 56.3078 127.233 55.8109 126.388C55.4546 125.772 54.8451 125.471 54.2075 125.471V125.471ZM71.225 120.5C70.9156 120.5 70.5874 120.588 70.2593 120.786C68.2247 122.018 66.2464 123.34 64.2024 124.572C62.4491 125.635 63.518 128.128 65.1588 128.128C65.4588 128.128 65.7775 128.041 66.1151 127.842C68.1497 126.61 70.1374 125.288 72.172 124.056C73.9253 122.993 72.8564 120.5 71.225 120.5V120.5ZM47.9912 103.55C47.8506 102.556 47.5131 101.639 46.913 100.842C46.6317 100.461 46.3036 100.132 45.9379 99.8477C47.3256 99.603 48.6382 99.152 49.8383 98.3119C51.4791 97.1549 50.4572 94.6975 48.9195 94.6975C48.6007 94.6975 48.2631 94.8016 47.9256 95.0416C46.1629 96.2811 44.1846 96.2483 42.1219 96.4358C40.1435 96.614 38.4558 97.1456 36.8806 98.2257C35.9899 98.2707 35.1086 98.3354 34.246 98.401C34.1054 98.4113 33.9741 98.4217 33.8429 98.432C35.2962 97.4812 36.6087 96.2802 37.7245 94.9863C38.934 93.5836 37.6682 91.6859 36.29 91.6859C35.8681 91.6859 35.4274 91.8697 35.043 92.3094C33.1678 94.4959 30.8425 96.2811 27.9265 96.7443C26.9889 96.8943 26.5764 97.5459 26.5577 98.2604C25.6857 98.085 24.8512 97.8562 24.073 97.5778C25.5169 96.7527 25.2075 94.0262 23.1448 94.0262H23.1354C21.654 94.0318 20.1539 94.0871 18.6818 94.2484C17.9974 93.5799 17.3973 92.8504 16.8723 92.0703C18.6818 91.563 20.3695 90.6658 21.8228 89.3072C23.2104 88.0086 21.8977 86.1043 20.407 86.1043C19.985 86.1043 19.5444 86.26 19.1412 86.6304C17.9692 87.7283 16.591 88.3312 15.1189 88.6077C14.6408 87.2773 14.3032 85.8662 14.1157 84.4026C14.1251 84.4026 14.1251 84.4026 14.1345 84.4026C14.4439 84.4026 14.7533 84.4307 15.0533 84.4936C15.2033 84.5245 15.3533 84.5395 15.494 84.5395C17.5567 84.5395 18.3067 81.3067 16.0659 80.8435C15.4846 80.7226 14.8376 80.6625 14.1719 80.6625C14.0969 80.6625 14.0219 80.6635 13.9375 80.6644C13.9563 80.1515 13.9938 79.6358 14.0313 79.1183C15.447 78.5876 15.4096 76.8296 14.5095 75.966C14.9314 73.9343 15.5689 71.9156 16.4221 69.9832C18.9068 69.1582 21.2415 68.2187 23.3417 66.5919C24.87 65.404 23.4824 63.4819 21.8884 63.4819C21.4759 63.4819 21.0539 63.6103 20.6601 63.9141C20.2007 64.2713 19.7132 64.5799 19.1975 64.8536C19.8257 63.8888 20.4726 62.9521 21.1665 62.038C21.2602 62.0849 21.3727 62.1243 21.4946 62.1571C22.1228 62.3268 22.751 62.4008 23.3604 62.4008C25.3856 62.4008 27.3359 61.5973 29.3048 60.7947C31.2644 59.9912 33.2428 59.1886 35.2962 59.1886C35.4087 59.1886 35.5211 59.1914 35.6337 59.1951C35.6618 59.197 35.6993 59.198 35.7274 59.198C38.0714 59.198 38.0339 55.5104 35.6337 55.4091C35.4743 55.4035 35.3242 55.3998 35.1648 55.3998C32.9427 55.3998 30.8331 56.0683 28.7704 56.8681C27.3734 57.4072 25.6013 58.4067 23.9417 58.5923C25.5357 56.7368 27.214 54.9385 28.911 53.1289C29.2298 52.7801 29.5674 52.4379 29.9049 52.0985C41.3249 47.5305 51.1229 40.5303 61.3427 33.8471C59.9363 37.1025 58.7362 40.4638 57.7517 43.9142C57.311 44.4045 57.086 45.0327 57.2642 45.674C56.5234 48.5102 55.9233 51.4047 55.4733 54.3487C53.9731 55.0651 52.4449 55.6923 50.9541 56.4255C50.0259 56.8811 49.782 58.1732 50.2696 59.0151C50.6352 59.6321 51.2447 59.9293 51.8823 59.9293C52.2104 59.9293 52.548 59.8496 52.8668 59.694C53.5418 59.3602 54.2263 59.048 54.9201 58.7395C54.6389 61.5298 54.4982 64.3604 54.4982 67.2229C54.4982 70.2495 54.6576 73.2395 54.967 76.1836C52.2574 76.8671 49.7258 78.2744 47.9162 80.1937C46.6317 81.5588 47.9162 83.4575 49.332 83.4575C49.7633 83.4575 50.204 83.285 50.5977 82.8715C51.826 81.5626 53.57 80.5331 55.4546 79.9668C55.6327 81.15 55.8296 82.3202 56.0546 83.4876C55.5108 84.3652 55.6983 85.7022 56.6359 86.23C56.7203 86.5723 56.8047 86.9136 56.8891 87.2539C56.5422 86.9782 56.1203 86.8413 55.6983 86.8413C55.2202 86.8413 54.7232 87.026 54.3576 87.3879C54.1982 87.538 54.0388 87.6824 53.87 87.8202C53.945 87.763 53.9638 87.7405 53.9638 87.7405C53.945 87.7405 53.6544 87.958 53.6075 87.9908C53.2418 88.2224 52.848 88.4137 52.4636 88.6059C51.5448 89.0672 51.2916 90.3498 51.7885 91.1965C52.1448 91.8116 52.7543 92.1116 53.4012 92.1116C53.7294 92.1116 54.0669 92.0319 54.3764 91.8753C55.3515 91.3887 56.2515 90.8261 57.0297 90.0648C57.2173 89.8848 57.3579 89.6719 57.4422 89.4432C58.0517 91.6728 58.7455 93.8667 59.5237 96.0195C55.7452 98.6419 51.901 101.162 47.9912 103.55V103.55ZM41.3437 86.4541C41.3343 86.4541 41.3155 86.4541 41.3061 86.455C39.1778 86.485 37.1056 86.8929 35.1273 87.658C34.1616 88.0293 33.5053 88.9162 33.8053 89.986C34.0116 90.7446 34.8085 91.4037 35.6149 91.4046C35.7836 91.4046 35.9618 91.3737 36.1306 91.308C37.8182 90.6592 39.4966 90.2664 41.3061 90.2401C43.7345 90.2054 43.7533 86.4541 41.3437 86.4541ZM49.257 83.7959C49.0882 83.7959 48.9195 83.8204 48.7507 83.8719C47.785 84.171 46.8755 84.1823 45.8535 84.1833C44.8222 84.1833 43.9595 85.043 43.9595 86.0762C43.9595 87.1076 44.8222 87.9692 45.8535 87.9683C47.1662 87.9683 48.4976 87.9158 49.7633 87.5229C50.7478 87.2173 51.3666 86.2131 51.0853 85.1939C50.8603 84.3866 50.0727 83.7959 49.257 83.7959V83.7959ZM38.634 79.2608C38.3433 79.2608 38.0245 79.3386 37.6964 79.5196C34.968 81.0554 32.1083 82.3146 29.0704 83.1153C26.8952 83.6881 27.5796 86.8366 29.5486 86.8366C29.7173 86.8366 29.8862 86.8142 30.0737 86.7654C33.4116 85.8859 36.6088 84.4758 39.6091 82.789C41.4187 81.7736 40.3123 79.2608 38.634 79.2608V79.2608ZM26.9515 76.6111C26.9421 76.6111 26.9327 76.6111 26.9233 76.6111C24.7949 76.642 22.7228 77.049 20.7351 77.8141C19.7788 78.1853 19.1225 79.0732 19.4131 80.143C19.6288 80.9016 20.4164 81.5598 21.2321 81.5598C21.4009 81.5598 21.579 81.5308 21.7478 81.4651C23.4261 80.8163 25.1137 80.4224 26.9233 80.3971C29.3517 80.3624 29.3611 76.6111 26.9515 76.6111V76.6111ZM33.074 74.0581C32.2302 74.0581 31.3957 74.1387 30.5799 74.4068C28.4891 75.095 29.1079 78.1629 30.9737 78.1629C31.1613 78.1629 31.3676 78.1291 31.5926 78.0579C32.1177 77.8835 32.6802 77.8282 33.2428 77.8282C33.9928 77.8282 34.7523 77.9228 35.4742 77.9669C35.9337 77.995 36.3931 78.0119 36.8432 78.0119C37.8839 78.0119 38.9059 77.9247 39.9185 77.6791C42.1219 77.1465 41.4093 73.9671 39.4028 73.9671C39.2434 73.9671 39.084 73.9868 38.9153 74.028C38.2496 74.1893 37.5745 74.2409 36.8901 74.2409C36.2525 74.2409 35.6243 74.1958 34.9773 74.1499C34.3398 74.104 33.7116 74.0581 33.074 74.0581V74.0581ZM50.7947 69.4413C50.4665 69.4413 50.129 69.521 49.8196 69.6757C48.1975 70.4745 46.5192 71.1487 44.8971 71.9475C43.9689 72.4042 43.7252 73.6952 44.2127 74.5381C44.5784 75.1551 45.1878 75.4513 45.8254 75.4513C46.1536 75.4513 46.4911 75.3725 46.8099 75.2169C48.4319 74.418 50.1102 73.744 51.7229 72.9451C52.6511 72.4894 52.8949 71.1965 52.4074 70.3555C52.0417 69.7385 51.4323 69.4413 50.7947 69.4413V69.4413ZM17.4348 70.5505C15.4565 70.5505 14.772 73.7027 16.9473 74.2719C17.9317 74.5278 18.888 74.6469 19.7975 74.6469C26.0138 74.6469 30.805 69.2238 34.2366 64.3154C35.2117 62.9109 33.899 61.5626 32.5489 61.5626C31.9676 61.5626 31.3863 61.8092 30.9644 62.4046C28.4141 66.0547 24.6355 70.8674 19.8444 70.8674C19.2256 70.8674 18.6068 70.7896 17.9598 70.6208C17.7817 70.573 17.6036 70.5505 17.4348 70.5505V70.5505ZM51.5448 65.253C51.5354 65.253 51.526 65.253 51.526 65.253C46.8286 65.2746 41.8593 65.9093 38.9153 69.9767C37.9026 71.3671 39.2247 72.7116 40.5936 72.7116C41.1749 72.7116 41.7656 72.4697 42.1781 71.8875C44.2033 69.0972 48.4319 69.0531 51.526 69.0391C53.9638 69.0278 53.9732 65.253 51.5448 65.253ZM43.9127 51.6175C43.6033 51.6175 43.2844 51.7009 43.0032 51.8818C41.9062 52.5897 40.6873 53.068 39.5903 53.7749C38.7278 54.3347 38.3714 55.4448 38.9153 56.3646C39.2528 56.9459 39.9279 57.3087 40.5936 57.3087C40.903 57.3087 41.2217 57.2262 41.503 57.0443C42.6 56.3364 43.8189 55.8592 44.9159 55.1513C45.7785 54.5915 46.1348 53.4814 45.591 52.5616C45.2535 51.9794 44.5784 51.6175 43.9127 51.6175Z" fill="#F4B550"/>
<path d="M29.9004 52.0971C33.5526 48.4374 37.8307 45.1849 39.8109 40.2735C41.4923 36.086 40.3995 32.0536 42.8841 28.2323C46.854 22.1308 53.6354 17.3624 60.23 14.5209C63.1257 13.2758 69.9818 10.2147 75.0352 10.2147C75.5396 10.2147 76.0253 10.2456 76.4923 10.311C70.2153 17.2119 65.0685 25.1535 61.3322 33.846C51.1134 40.5294 41.3149 47.5295 29.9004 52.0971" fill="#F5C456"/>
<path d="M40.1113 126.039C40.6587 123.797 41.5401 121.375 42.8112 118.77C44.4905 115.316 48.6748 108.491 47.9882 103.553C51.8942 101.166 55.7352 98.6451 59.5206 96.0222C61.3205 101.004 63.5751 105.764 66.2378 110.259C63.2596 111.475 60.3185 112.877 57.3774 114.632C51.2633 118.29 45.6688 122.237 40.1113 126.039" fill="#F5C456"/>
<path d="M86.5544 155.147C82.4462 155.147 80.5113 152.562 79.1197 149.978C77.728 147.393 76.8607 144.809 74.8781 144.809C74.268 144.809 73.5628 145.047 72.7144 145.595C69.6071 147.58 65.2796 148.627 60.7711 148.627C60.4852 148.627 60.2088 148.623 59.9229 148.615C67.4148 142.563 74.697 136.152 82.2271 129.871C89.6141 136.584 98.1927 142.007 107.61 145.787C101.758 149.519 94.3609 153.431 90.1384 154.604C88.7849 154.981 87.6029 155.148 86.5544 155.147" fill="#F5C456"/>
<path d="M16.418 69.9803C16.5082 69.7872 16.5894 69.595 16.6796 69.4037C17.4196 67.8046 18.2679 66.2958 19.1974 64.8501C19.7117 64.5767 20.1991 64.2681 20.6593 63.9107C21.0563 63.6075 21.4714 63.4785 21.8865 63.4785C23.4748 63.4785 24.8644 65.4006 23.3394 66.5882C21.2367 68.2161 18.8996 69.1555 16.418 69.9803Z" fill="#F4D758"/>
<path d="M19.7974 74.6458C18.8795 74.6458 17.9253 74.5275 16.9438 74.2704C14.7719 73.7015 15.4535 70.55 17.4255 70.55C17.5981 70.55 17.7708 70.5726 17.9525 70.6199C18.5977 70.788 19.2248 70.8662 19.8337 70.8662C24.6319 70.8662 28.4032 66.0543 30.9659 62.4038C31.3748 61.8086 31.9655 61.5624 32.538 61.5624C33.9011 61.5624 35.2098 62.91 34.2283 64.315C30.7933 69.2232 26.0041 74.6458 19.7974 74.6458Z" fill="#F4D758"/>
<path d="M15.4869 84.5378C15.3521 84.5378 15.1994 84.5226 15.0557 84.492C14.7502 84.4292 14.4447 84.4013 14.1303 84.4013C14.1213 84.4013 14.1124 84.4013 14.1124 84.4013C13.9597 83.1849 13.8968 81.9317 13.9327 80.6631C14.0136 80.6613 14.0944 80.6614 14.1663 80.6614C14.84 80.6614 15.4778 80.7207 16.0618 80.8419C18.2988 81.3055 17.5532 84.5378 15.4869 84.5378" fill="#F4D758"/>
<path d="M16.8609 92.0692C16.1398 91.0028 15.563 89.84 15.1123 88.6069C16.5816 88.3302 17.9607 87.7281 19.1415 86.6293C19.5381 86.2597 19.9798 86.1038 20.4035 86.1038C21.8908 86.1038 23.2067 88.0084 21.8186 89.3064C20.3583 90.6648 18.6818 91.5626 16.8609 92.0692" fill="#F4D758"/>
<path d="M21.2256 81.5573C20.42 81.5573 19.6234 80.8983 19.4152 80.1397C19.1165 79.0698 19.7774 78.1818 20.7368 77.8107C22.7191 77.0458 24.792 76.6385 26.9191 76.6077C26.9372 76.6077 26.9463 76.6077 26.9553 76.6077C29.3631 76.6077 29.3449 80.3588 26.9191 80.3941C25.1088 80.4194 23.4251 80.8123 21.7415 81.4622C21.5695 81.5274 21.3975 81.5573 21.2256 81.5573" fill="#F4D758"/>
<path d="M14.0244 79.1189C14.123 78.0698 14.2755 77.0163 14.4996 75.9655C15.4052 76.8289 15.4411 78.5872 14.0244 79.1189Z" fill="#F4D758"/>
<path d="M29.5332 86.8361C27.5712 86.8361 26.8868 83.6878 29.0587 83.1147C32.1067 82.3134 34.9539 81.0551 37.6916 79.5192C38.0201 79.3386 38.3303 79.26 38.6315 79.26C40.3106 79.26 41.4148 81.7733 39.608 82.789C36.5965 84.4763 33.4025 85.8852 30.0717 86.7649C29.8801 86.8142 29.7066 86.8361 29.5332 86.8361Z" fill="#F4D758"/>
<path d="M40.5926 72.7103C39.2214 72.7103 37.8963 71.3658 38.9086 69.9753C41.8534 65.9077 46.8228 65.2727 51.5253 65.2516C51.5253 65.2516 51.5253 65.2516 51.5345 65.2516C53.964 65.2516 53.9548 69.0265 51.5253 69.0375C48.424 69.0513 44.2001 69.0964 42.1755 71.8857C41.7522 72.4682 41.1724 72.7103 40.5926 72.7103Z" fill="#F4D758"/>
<path d="M51.8749 59.9288C51.2393 59.9288 50.6313 59.6313 50.272 59.0141C49.7746 58.1731 50.0234 56.8806 50.9445 56.4247C52.4369 55.6914 53.966 55.0641 55.4675 54.3483C55.2464 55.801 55.0622 57.2629 54.9148 58.7387C54.2239 59.0473 53.533 59.3596 52.8606 59.6939C52.5382 59.8487 52.2065 59.9288 51.8749 59.9288" fill="#F4D758"/>
<path d="M40.5883 57.3071C39.9201 57.3071 39.2518 56.9446 38.9131 56.3633C38.373 55.4424 38.7299 54.3329 39.5905 53.7735C40.689 53.0659 41.9066 52.588 43.0052 51.8803C43.2798 51.6991 43.6002 51.6158 43.9114 51.6158C44.5797 51.6158 45.248 51.9783 45.5867 52.5596C46.1268 53.4805 45.779 54.59 44.9093 55.1494C43.8199 55.857 42.5932 56.335 41.5038 57.0426C41.22 57.2239 40.8996 57.3071 40.5883 57.3071" fill="#F4D758"/>
<path d="M57.2564 45.6741C57.0811 45.0329 57.3025 44.4047 57.7454 43.9138C57.5793 44.4988 57.4133 45.0846 57.2564 45.6741Z" fill="#F4D758"/>
<path d="M24.0734 97.5735C21.9066 96.8052 20.1191 95.6641 18.6836 94.2439C20.1552 94.0823 21.6538 94.0282 23.1344 94.0219H23.1435C25.2109 94.0219 25.5179 96.7483 24.0734 97.5735" fill="#F4D758"/>
<path d="M30.052 98.6325C29.6421 98.6325 29.2504 98.6198 28.8951 98.5888C28.0752 98.5196 27.3008 98.4093 26.5537 98.2608C26.5719 97.5456 26.9819 96.8943 27.9293 96.7449C30.8355 96.2812 33.1587 94.4955 35.0354 92.309C35.418 91.8699 35.8644 91.6859 36.2835 91.6859C37.6592 91.6859 38.9255 93.5836 37.7139 94.9866C36.6024 96.2803 35.2905 97.4809 33.8328 98.4321C32.4571 98.5359 31.1635 98.6325 30.052 98.6325Z" fill="#F4D758"/>
<path d="M35.616 91.4007C34.8025 91.3998 34.0165 90.7408 33.8063 89.9831C33.5047 88.9128 34.1627 88.0253 35.1224 87.6542C37.1058 86.8892 39.1806 86.4815 41.3102 86.4514C41.3193 86.4505 41.3284 86.4505 41.3376 86.4505C43.7505 86.4505 43.7322 90.2024 41.3102 90.2371C39.5004 90.2627 37.8187 90.6558 36.1278 91.3047C35.9633 91.3706 35.7897 91.4007 35.616 91.4007Z" fill="#F4D758"/>
<path d="M53.3946 92.1088C52.7582 92.1088 52.1402 91.809 51.7805 91.1938C51.2916 90.347 51.5407 89.0649 52.4631 88.6037C52.8505 88.4109 53.2379 88.22 53.5976 87.9884C53.6529 87.9552 53.9389 87.7385 53.9574 87.7385C53.9666 87.7385 53.9389 87.7606 53.8743 87.8178C54.0403 87.6795 54.1972 87.5355 54.354 87.3852C54.7229 87.0236 55.2118 86.8391 55.7006 86.8391C56.1249 86.8391 56.5401 86.9757 56.8814 87.2515C57.0566 87.9857 57.2503 88.7153 57.444 89.4412C57.3517 89.669 57.2134 89.8822 57.0289 90.062C56.2449 90.8239 55.3409 91.3866 54.3724 91.8727C54.0588 92.0295 53.7267 92.1088 53.3946 92.1088" fill="#F4D758"/>
<path d="M49.3342 83.4548C47.9156 83.4548 46.6352 81.5563 47.9156 80.1912C49.7211 78.2714 52.2544 76.8648 54.9626 76.1804C55.1008 77.4488 55.2574 78.7127 55.4508 79.9636C53.5716 80.5302 51.8214 81.5591 50.5962 82.868C50.2093 83.2816 49.7671 83.4548 49.3342 83.4548" fill="#F4D758"/>
<path d="M40.3036 136.759C40.0299 135.945 39.811 135.088 39.665 134.184C40.4677 134.784 40.7779 135.971 40.3036 136.759Z" fill="#F4D758"/>
<path d="M44.2784 142.841C43.352 141.964 42.5174 140.979 41.8203 139.889C42.9851 139.243 44.1316 138.534 45.2689 137.82C45.5991 137.612 45.9292 137.522 46.2411 137.522C47.8553 137.522 48.9192 140.007 47.1766 141.089C46.2227 141.689 45.2597 142.281 44.2784 142.841" fill="#F4D758"/>
<path d="M50.0875 131.869C48.6128 131.869 47.3132 129.966 48.6773 128.651C49.9953 127.375 51.5991 126.52 53.2213 125.704C53.5346 125.548 53.8757 125.468 54.2075 125.468C54.8435 125.468 55.4517 125.768 55.8112 126.384C56.3089 127.23 56.0601 128.512 55.1292 128.974C53.8019 129.638 52.4286 130.287 51.3502 131.328C50.9631 131.708 50.5207 131.869 50.0875 131.869" fill="#F4D758"/>
<path d="M65.1457 128.131C63.5138 128.131 62.4414 125.639 64.1945 124.576C66.2367 123.344 68.2136 122.023 70.2558 120.79C70.5822 120.591 70.9085 120.504 71.2163 120.504C72.8481 120.504 73.9205 122.997 72.1674 124.059C70.1252 125.291 68.1483 126.613 66.1062 127.845C65.7798 128.045 65.4534 128.131 65.1457 128.131" fill="#F4D758"/>
<path d="M55.5316 140.76C55.4019 140.76 55.2535 140.755 55.1238 140.746C54.4193 139.936 54.3081 138.555 55.4945 137.822C57.4874 136.58 59.1373 134.85 60.7872 133.196C61.1765 132.803 61.6214 132.638 62.0478 132.638C63.503 132.638 64.8007 134.539 63.4659 135.873C62.9283 136.404 62.4 136.937 61.8624 137.46C61.4638 137.023 60.8984 136.748 60.3608 136.748C59.8046 136.748 59.2763 137.04 58.9704 137.744C58.3309 139.237 57.6079 140.666 55.8283 140.753C55.7356 140.757 55.6336 140.76 55.5316 140.76Z" fill="#F4D758"/>
<path d="M52.648 147.463C51.4987 147.119 50.3678 146.697 49.292 146.194C49.338 146.152 49.384 146.111 49.4208 146.069C49.7977 145.707 50.2851 145.522 50.7724 145.522C51.2597 145.522 51.7378 145.703 52.1056 146.069C52.4826 146.444 52.6664 146.957 52.648 147.463Z" fill="#F4D758"/>
<path d="M45.9439 99.8444C44.2167 98.5195 41.6534 98.1658 38.934 98.1658C38.2541 98.1658 37.565 98.1879 36.876 98.2219C38.4562 97.1414 40.1467 96.6105 42.1127 96.4322C44.1799 96.2448 46.1644 96.2778 47.9192 95.0384C48.2683 94.7977 48.6082 94.6939 48.9206 94.6939C50.4549 94.6939 51.4747 97.1516 49.8393 98.3083C48.6358 99.148 47.3312 99.5991 45.9439 99.8444" fill="#F4D758"/>
<path d="M42.4423 132.643C42.2775 132.643 42.1126 132.621 41.9386 132.573C40.9952 132.314 40.2809 131.219 40.6198 130.245C41.2517 128.429 42.36 126.95 44.21 126.273C44.3841 126.21 44.5489 126.182 44.7229 126.182C45.538 126.182 46.3257 126.825 46.5363 127.594C46.8294 128.652 46.1792 129.568 45.2175 129.922C45.3366 129.879 45.3823 129.863 45.3823 129.863C45.4007 129.863 45.1625 129.959 45.1076 129.995C45.0801 130.013 45.0618 130.029 45.0435 130.041C44.9519 130.122 44.8695 130.205 44.787 130.298C44.7687 130.318 44.7503 130.336 44.732 130.352C44.6038 130.55 44.4756 130.754 44.3749 130.971C44.3566 131.014 44.3382 131.047 44.3291 131.071C44.3108 131.13 44.2833 131.191 44.265 131.251C43.981 132.066 43.2758 132.643 42.4423 132.643Z" fill="#F4D758"/>
<path d="M55.6345 144.532C53.6908 144.532 51.7656 143.914 49.8867 143.554C47.6284 143.123 48.3966 139.864 50.4884 139.864C50.6179 139.864 50.7475 139.877 50.8956 139.904C52.2562 140.166 53.7 140.662 55.1162 140.748C55.255 140.756 55.3938 140.761 55.5327 140.761C55.6345 140.761 55.727 140.759 55.8289 140.754C57.6059 140.667 58.3279 139.238 58.9758 137.745C59.2812 137.041 59.7995 136.75 60.3641 136.75C60.8917 136.75 61.4563 137.024 61.8543 137.461C62.3541 138.008 62.6039 138.812 62.243 139.656C61.1693 142.147 59.3923 144.152 56.5786 144.478C56.2639 144.515 55.9492 144.532 55.6345 144.532Z" fill="#F4D758"/>
<path d="M69.7744 133.805C69.102 133.805 68.3923 133.397 68.0655 132.844C67.4959 131.872 67.9254 130.877 68.7472 130.253C70.1759 129.167 71.4833 127.934 72.9027 126.847C73.1641 126.649 73.4723 126.563 73.7805 126.563C74.4622 126.563 75.1719 126.971 75.4988 127.525C76.0684 128.498 75.6388 129.492 74.817 130.115C73.3976 131.201 72.0903 132.436 70.6522 133.522C70.3907 133.72 70.0919 133.805 69.7744 133.805Z" fill="#F4D758"/>
<path d="M58.7334 132.184C57.5769 132.184 56.4295 131.267 56.8922 129.864C57.6601 127.535 58.243 125.265 57.9655 122.796C57.8915 122.142 58.1135 121.667 58.4836 121.368C58.7981 121.556 59.1775 121.66 59.5569 121.66C59.9732 121.66 60.3896 121.531 60.6949 121.242C61.2315 121.525 61.6663 122.044 61.7496 122.796C62.0642 125.565 61.4073 128.256 60.5468 130.871C60.2415 131.787 59.4921 132.184 58.7334 132.184" fill="#F4D758"/>
<path d="M59.5617 121.665C59.1807 121.665 58.7996 121.56 58.4836 121.372C58.3628 121.297 58.2419 121.209 58.1397 121.11C57.3497 120.32 57.4984 119.237 58.1397 118.432C58.9483 117.423 60.4353 116.96 61.6156 116.587C63.0097 116.148 64.4316 115.814 65.7885 115.296C66.0302 115.204 66.2625 115.162 66.4669 115.162C68.2513 115.162 68.8182 118.176 66.8015 118.946C65.6584 119.38 64.478 119.668 63.3163 120.024C62.4985 120.272 61.2346 120.587 60.8164 121.11C60.7792 121.159 60.742 121.205 60.6955 121.246C60.3888 121.535 59.9799 121.665 59.5617 121.665" fill="#F4D758"/>
<path d="M78.8579 127.721C77.5288 127.721 76.3306 126.139 77.1543 124.853C77.9874 125.749 78.8392 126.628 79.7097 127.488C79.4383 127.649 79.1481 127.721 78.8579 127.721" fill="#F4D758"/>
<path d="M23.3626 62.3985C22.7435 62.3985 22.1244 62.3247 21.487 62.1544C21.3686 62.1216 21.2593 62.0816 21.1592 62.0352C22.0424 60.8552 22.9711 59.7125 23.9454 58.5898C25.5934 58.405 27.3688 57.4043 28.7619 56.8653C30.8379 56.0659 32.9411 55.3976 35.1628 55.3976C35.3175 55.3976 35.4724 55.4012 35.6272 55.4067C38.0309 55.5078 38.0673 59.1953 35.7273 59.1953C35.6909 59.1953 35.6545 59.1944 35.6272 59.1935C35.5179 59.1889 35.4086 59.1862 35.2993 59.1862C33.2416 59.1862 31.2658 59.9892 29.2991 60.7923C27.3416 61.5954 25.3839 62.3985 23.3626 62.3985" fill="#F4D758"/>
<path d="M30.9695 78.1588C29.107 78.1588 28.4952 75.0912 30.5768 74.4028C31.3985 74.1344 32.2294 74.054 33.0694 74.054C33.7085 74.054 34.3384 74.0997 34.9775 74.1453C35.6166 74.1919 36.2557 74.2375 36.8948 74.2375C37.5704 74.2375 38.246 74.1854 38.9125 74.0248C39.086 73.9828 39.2503 73.9636 39.4055 73.9636C41.4141 73.9636 42.1171 77.1427 39.9168 77.6749C38.9034 77.9215 37.8808 78.0081 36.8491 78.0081C36.3926 78.0081 35.927 77.9918 35.4705 77.9635C34.7493 77.9187 33.9915 77.8246 33.2428 77.8246C32.6767 77.8246 32.1199 77.8794 31.5903 78.0538C31.3712 78.1259 31.1612 78.1588 30.9695 78.1588Z" fill="#F4D758"/>
<path d="M45.8239 75.4484C45.1802 75.4484 44.5732 75.1523 44.2146 74.5353C43.718 73.6929 43.9663 72.4009 44.8951 71.9457C46.5136 71.1465 48.1873 70.4725 49.815 69.6733C50.1277 69.5179 50.4679 69.4389 50.799 69.4389C51.4335 69.4389 52.0405 69.7358 52.4083 70.3529C52.8957 71.1943 52.6474 72.4873 51.7278 72.9425C50.1093 73.7407 48.4264 74.4157 46.8079 75.2148C46.486 75.3693 46.1458 75.4484 45.8239 75.4484" fill="#F4D758"/>
<path d="M45.8485 87.9677C44.8104 87.9677 43.9561 87.1068 43.9561 86.0752C43.9561 85.0417 44.8104 84.1828 45.8485 84.1818C46.8682 84.1809 47.7868 84.1698 48.7514 83.8704C48.9168 83.8189 49.0822 83.7951 49.2475 83.7951C50.0743 83.7951 50.8552 84.3858 51.0757 85.1933C51.3605 86.2121 50.7357 87.2161 49.7619 87.522C48.4942 87.9143 47.1621 87.9667 45.8485 87.9677Z" fill="#F4D758"/>
<path d="M56.635 86.2286C55.6947 85.7003 55.5103 84.3636 56.0542 83.4868C56.2386 84.405 56.4322 85.3205 56.635 86.2286Z" fill="#F4D758"/>
</svg>
