<svg width="172" height="171" viewBox="0 0 172 171" fill="none" xmlns="http://www.w3.org/2000/svg">
<path d="M171.27 85.1268C171.27 131.864 133.384 169.75 86.6495 169.75C39.9051 169.75 2.01953 131.864 2.01953 85.1268C2.01953 38.3904 39.9051 0.502804 86.6495 0.502804C133.384 0.502804 171.27 38.3904 171.27 85.1268Z" fill="#079191"/>
<path d="M82.9182 20.6315C70.2119 21.8856 62.3191 26.9633 52.2534 34.399C43.7956 40.643 36.7311 49.5706 27.8347 54.5615C21.7739 57.9651 12.8385 63.1889 4.7022 64.0483C3.26007 69.5937 2.36361 75.3603 2.07129 81.2877C19.6497 73.545 42.558 63.6265 52.9647 47.918C59.659 37.8046 68.1949 32.8877 80.0827 30.3006C86.4163 28.9218 92.4284 29.3886 98.5283 29.8553C102.299 30.1438 106.109 30.4321 110.056 30.285C122.012 29.8378 131.853 26.4244 142.552 21.9743C138.606 18.4908 134.328 15.3717 129.778 12.6648C124.896 16.0158 114.752 19.1572 112.443 19.5256C107.162 20.3723 101.607 20.3275 96.063 20.2817C91.6197 20.2457 87.1861 20.2096 82.9182 20.6315" fill="#0BD6D6"/>
<path d="M115.741 93.6987C93.9975 103.621 71.7383 110.876 49.3501 118.901C38.2999 122.864 26.9719 128.194 15.4951 131.35C17.4691 134.4 19.6315 137.31 21.9626 140.071C29.3327 135.458 38.0718 131.644 46.0371 129.095C63.8623 123.38 80.9634 116.502 98.7192 110.341C114.918 104.719 130.967 98.1704 146.838 91.5988C153.802 88.7122 160.775 85.8683 167.778 83.0938C168.83 82.6772 169.951 82.1237 171.131 81.5484C170.913 76.7087 170.278 71.9761 169.286 67.3814C154.506 79.9355 132.386 86.0964 115.741 93.6987" fill="#0BD6D6"/>
<path d="M131.301 133.966C117.786 140.983 103.123 145.577 89.3203 151.383C83.0277 154.023 77.4869 157.424 72.0155 161.577C70.5116 162.719 67.5632 165.178 65.7822 167.498C68.9187 168.294 72.1342 168.911 75.3893 169.341C77.7145 167.408 79.8714 165.113 81.9096 163.862C87.6086 160.339 94.3662 158.527 100.372 155.215C115.045 147.135 130.589 141.355 145.499 133.495C150.218 131.01 155.759 127.128 161.112 125.595C163.457 121.242 165.435 116.664 166.999 111.895C165.851 112.285 164.802 112.656 163.991 113.037C152.405 118.507 142.818 127.985 131.301 133.966" fill="#0BD6D6"/>
<path d="M137.14 103.708C128.995 108.058 120.742 109.81 112.35 113.166C102.291 117.188 92.51 121.973 81.9354 124.422C68.5633 127.528 57.0365 134.135 44.3192 139.16C40.2025 140.788 34.5084 144.304 28.7549 147.22C34.6076 152.695 41.2242 157.353 48.436 161.005C52.5825 158.22 59.8537 155.75 63.4745 153.792C73.7019 148.266 84.3658 143.713 94.494 138.078C109.652 129.642 124.551 121.091 140.423 114.173C147.833 110.947 155.154 107.354 162.832 104.846C164.151 104.415 166.78 103.493 169.429 102.864C170.52 97.6054 171.135 92.1654 171.204 86.5973C169.181 87.7104 167.246 88.6994 165.798 89.5009C156.473 94.6573 146.563 98.6738 137.14 103.708" fill="#0BD6D6"/>
<path d="M150.947 138.703C143.914 142.294 136.88 145.867 129.896 149.693C118.547 155.914 107.835 162.547 97.1328 169.425C119.822 166.609 139.735 154.808 153.183 137.686C152.418 138.002 151.663 138.337 150.947 138.703" fill="#0BD6D6"/>
<path d="M93.7037 89.2025C111.142 85.1541 126.117 77.0909 141.982 68.8982C145.997 66.8211 157.273 60.1021 166.502 57.5403C163.198 48.0726 158.252 39.3705 152.021 31.7752C146.591 33.4943 140.844 34.7811 136.294 36.9442C122.21 43.6474 118.955 57.1724 111.438 70.0337C105.632 79.9742 96.1962 88.2837 84.05 86.5033C73.2095 84.9138 64.4361 79.1364 52.9526 80.2591C38.5611 81.6646 24.3082 89.616 11.6575 96.1569C9.4914 97.2776 6.60326 99.0609 3.38867 100.947C4.53603 107.127 6.34607 113.071 8.75948 118.702C17.7504 113.817 28.3042 111.903 38.0567 109.076C56.9189 103.604 74.5744 93.6426 93.7037 89.2025" fill="#0BD6D6"/>
<path d="M9.81392 50.2855C21.7951 48.346 30.0646 46.9479 38.0361 37.1004C54.8251 16.3891 79.5182 14.5275 104.49 14.3852C108.346 14.3641 115.471 10.5909 121.625 8.40137C110.952 3.54062 99.0863 0.830914 86.5954 0.830914C52.3923 0.830914 22.9394 21.122 9.59277 50.3201C9.6697 50.3086 9.74661 50.298 9.81392 50.2855" fill="#0BD6D6"/>
<path d="M146.31 25.2919C144.931 24.1826 121.384 34.2234 119.8 34.6303C113.49 36.2552 107.249 35.9471 101.027 35.6389C94.4238 35.3132 87.85 34.9864 81.188 36.9586C71.6305 39.7857 65.986 46.3351 59.7839 53.8246C57.8959 56.0961 56.6339 58.8852 54.6578 61.1831C50.9894 65.4248 45.3057 68.4241 40.6395 71.4508C37.6851 73.3701 34.4862 74.096 31.3069 75.444C27.3841 77.109 23.608 79.2915 19.7146 81.0719C14.9309 83.2574 8.66035 86.106 4.71799 88.6436L2.95714 89.4008C0.0810747 94.5855 9.11031 90.0914 11.0375 89.1415C16.5255 86.4367 22.0624 83.497 27.883 81.3879C33.5471 79.3316 38.8199 77.1394 44.1808 74.3973C48.2112 72.3352 52.3296 70.3434 56.3893 68.3957C58.8643 67.2052 61.7012 65.7682 64.5382 66.1673C69.7914 66.9049 72.6381 72.1923 78.1163 72.4907C83.3793 72.7763 86.4999 70.678 89.464 66.63C92.0955 63.0271 93.8564 59.4701 90.8532 55.8584C87.6543 51.9963 84.788 50.3421 79.6913 51.787C75.7685 52.8983 70.7012 58.1456 75.2011 61.5802C76.2479 62.3756 79.6913 63.5397 80.6989 62.0919C81.8239 60.4699 78.5174 58.6601 81.9511 57.8453C84.0445 57.3503 86.138 59.0896 86.0011 61.1322C85.8543 63.2032 83.751 64.4524 82.2054 65.4727C78.5467 67.891 73.8512 67.35 70.9164 63.8449C63.7165 55.2637 71.9142 46.5132 80.4445 43.5276C85.8934 41.618 91.763 41.7051 97.6423 41.7941C102.299 41.8635 106.975 41.933 111.426 41.0027C115.799 40.09 120.142 38.4954 124.349 37.0916C125.865 36.5878 148.815 27.2866 146.31 25.2919" fill="#10FCF5"/>
<path d="M109.538 53.5478C108.524 49.3687 104.729 47.5296 100.887 47.0048C98.7073 46.7084 88.4219 46.5937 93.0771 50.4756C96.4323 53.2812 101.336 49.9957 102.148 56.0848C102.703 60.2649 101.804 64.4718 99.5676 67.8852C94.3771 75.7847 84.4836 75.9683 76.1482 73.9427C67.44 71.8254 57.7187 70.9307 49.5076 74.6998C40.3502 78.9076 30.9633 83.4605 21.1271 85.4182C19.1293 85.8168 10.3065 86.2049 9.51307 88.1329C7.87849 92.0645 55.2047 75.0143 55.2047 75.0143C60.3187 73.5413 66.7901 74.4589 72.1144 76.0868C77.477 77.728 84.1395 80.1044 89.7793 79.81C101.24 79.2116 112.367 65.2527 109.538 53.5478" fill="#10FCF5"/>
<path d="M166 62.8994C163.542 61.8735 157.238 65.8739 155.345 67.3726C150.547 71.1826 144.987 74.171 139.218 76.5151C116.312 85.8281 94.8636 100.472 70.3619 105.365C62.7696 106.881 55.4251 109.624 47.9418 111.612C42.5201 113.054 37.2868 114.934 31.984 116.727C25.6604 118.876 19.3665 121.134 13.0527 123.224L13.5582 124.987C13.9646 125.473 14.4899 125.057 15.3919 124.797C19.4061 123.65 23.1031 121.931 27.1867 120.96C33.2031 119.522 39.2393 117.518 45.107 115.4C55.1376 111.773 65.5549 109.152 75.6449 106.873C84.9619 104.767 92.6533 99.8412 101.385 96.4663C106.153 94.6286 110.584 92.1626 115.272 89.9612C121.595 86.9907 128.514 84.931 134.659 81.6324C142.459 77.4428 150.349 73.4068 158.378 69.4005C159.904 68.6373 169.865 64.509 166 62.8994" fill="#10FCF5"/>
<path d="M130.227 110.661C110.877 117.074 91.7451 124.332 72.7912 131.996C63.7199 135.669 54.3022 138.473 45.6562 142.977C43.5095 144.099 41.1057 144.991 39.7405 147.13C38.5436 149.008 39.1371 150.771 39.0382 152.249L42.3225 156.538C43.5591 159.834 49.4352 156.276 51.107 154.954C56.4588 150.716 62.503 146.203 68.755 143.217C73.6716 140.863 79.1916 139.967 84.0092 137.371C90.004 134.15 95.6625 130.154 101.618 126.802C109.225 122.509 117.485 119.463 125.449 115.916C127.605 114.955 166.73 98.5571 166.502 95.9642C163.465 96.8872 133.313 109.633 130.227 110.661" fill="#10FCF5"/>
<path d="M85.8188 170.147C38.8893 170.147 0.841797 132.15 0.841797 85.2795C0.841797 58.2031 13.5307 34.0887 33.3024 18.5506C34.1452 18.0904 34.9784 17.7353 35.8023 17.473C17.9717 30.8937 5.6143 51.1958 2.6883 74.4372C2.39475 76.6946 2.18643 78.9777 2.0728 81.2872C2.08227 81.2825 2.10124 81.2787 2.11071 81.2749C2.04443 82.5523 2.01602 83.8354 2.01602 85.1279C2.01602 90.5169 2.52736 95.7846 3.48375 100.893C3.45535 100.911 3.4269 100.929 3.39849 100.947C4.5348 107.127 6.35295 113.07 8.75814 118.7C8.80549 118.676 8.85283 118.651 8.90018 118.621C10.8224 123.053 13.095 127.292 15.7085 131.29C15.6328 131.309 15.5665 131.329 15.4907 131.349C17.4698 134.4 19.6288 137.31 21.9677 140.07C22.034 140.025 22.1003 139.985 22.1666 139.94C24.3066 142.455 26.5887 144.844 29.0128 147.094C28.9276 147.138 28.8424 147.179 28.7572 147.219C34.6092 152.694 41.2282 157.353 48.4437 161.004C48.5384 160.94 48.6426 160.874 48.7373 160.809C54.1821 163.544 59.9678 165.704 66.0092 167.222C65.9334 167.312 65.8577 167.406 65.7914 167.496C68.9257 168.293 72.1358 168.909 75.4027 169.34C75.5163 169.245 75.6204 169.15 75.7435 169.055C79.304 169.515 82.9497 169.751 86.6427 169.751C90.402 169.751 94.1139 169.506 97.7501 169.029C97.5607 169.15 97.3713 169.274 97.1819 169.395C93.47 169.891 89.6728 170.147 85.8188 170.147" fill="#686B5D"/>
<path d="M86.6468 169.75C82.9515 169.75 79.3053 169.515 75.738 169.054C77.9356 167.186 79.9754 165.051 81.9167 163.859C87.6224 160.338 94.3727 158.525 100.384 155.213C115.047 147.133 130.597 141.352 145.517 133.493C150.06 131.098 155.361 127.411 160.525 125.774C158.17 130.097 155.45 134.189 152.405 138.016C151.912 138.231 151.42 138.462 150.956 138.702C143.911 142.294 136.884 145.866 129.898 149.693C118.762 155.794 108.248 162.296 97.7527 169.028C94.1165 169.504 90.4112 169.75 86.6468 169.75V169.75ZM66.0119 167.22C59.9711 165.702 54.1865 163.543 48.7371 160.809C52.9252 158.104 59.9416 155.704 63.4793 153.791C69.1554 150.725 74.9694 147.955 80.7539 145.134C84.3804 145.74 88.0659 146.046 91.7416 146.046C97.2009 146.046 102.611 145.375 107.666 144.048C108.1 143.932 108.533 143.812 108.967 143.692C102.365 146.236 95.7523 148.676 89.3272 151.381C83.0402 154.021 77.4922 157.422 72.023 161.574C70.5744 162.672 67.7955 164.986 66.0119 167.22V167.22ZM29.0185 147.093C26.5944 144.844 24.3082 142.454 22.1698 139.939C29.4915 135.386 38.1437 131.624 46.037 129.094C47.3378 128.674 48.6386 128.253 49.9295 127.827C51.4175 130.126 53.3096 132.29 55.6648 134.284C51.9398 135.962 48.1853 137.63 44.3223 139.158C40.2623 140.761 34.6749 144.197 29.0185 147.093V147.093ZM15.7053 131.288C13.1038 127.291 10.8176 123.053 8.90582 118.619C17.8733 113.796 28.3681 111.887 38.0648 109.074C40.3806 108.401 42.6767 107.661 44.9629 106.872C44.9235 108.743 44.953 110.59 45.091 112.413C40.6664 113.716 36.3502 115.248 31.9946 116.726C25.6681 118.876 19.3711 121.134 13.0545 123.223L13.557 124.986C13.695 125.147 13.8428 125.212 14.0202 125.212C14.3552 125.212 14.7889 124.971 15.39 124.796C19.4106 123.649 23.106 121.931 27.1857 120.959C33.2067 119.521 39.2474 117.518 45.1009 115.399C45.2093 115.358 45.3078 115.324 45.4063 115.289C45.633 116.887 45.9582 118.455 46.4017 119.987C36.3601 123.769 26.0918 128.413 15.7053 131.288V131.288ZM3.48592 100.892C2.53004 95.7838 2.01758 90.5156 2.01758 85.1273C2.01758 83.8354 2.04718 82.5523 2.10631 81.2742C6.41266 79.3763 11.0442 77.3472 15.7349 75.1339C15.0746 77.9326 14.5129 80.8239 14.3651 83.5427C10.8668 85.1943 7.29952 86.9848 4.72753 88.6433L2.95374 89.4001C1.9486 91.2301 2.41173 91.8539 3.52528 91.8539C5.57498 91.8539 9.79263 89.7559 11.0441 89.141C11.4482 88.9409 11.8523 88.7399 12.2563 88.5369C12.9264 88.4275 13.7147 88.2698 14.5721 88.0737C14.9268 90.1205 15.6856 91.9357 17.0357 93.3636C15.2126 94.3066 13.4191 95.2457 11.6551 96.1563C9.51673 97.2659 6.65902 99.0259 3.48592 100.892V100.892ZM29.7674 87.11C30.1222 85.8713 30.477 84.6139 30.8219 83.3466C37.9958 81.0338 45.3669 78.4854 50.1069 76.823C49.7028 78.1799 49.3186 79.5113 48.9638 80.8091C42.4599 81.964 36.0151 84.3104 29.7674 87.11V87.11ZM33.3742 74.6393C34.4286 71.5194 35.6801 68.503 37.375 65.7645C38.6758 63.6468 40.8733 62.206 42.0066 60.0006C42.1248 59.7789 42.2234 59.5513 42.3121 59.3187C46.5298 55.8845 50.1956 52.1063 52.9646 47.9172C54.5118 45.5876 56.1476 43.534 57.9016 41.7208C57.813 47.9261 56.453 54.5709 54.699 61.127C54.6891 61.1457 54.6695 61.1644 54.6596 61.1831C50.9938 65.4245 45.3078 68.4232 40.6369 71.4494C38.3211 72.9552 35.8575 73.7267 33.3742 74.6393V74.6393ZM2.68766 74.4373C5.6144 51.1957 17.9718 30.8928 35.7983 17.4731C36.025 17.4031 36.2418 17.3401 36.4488 17.2839C24.9192 25.7853 15.6166 37.1444 9.59562 50.3187C9.67446 50.3059 9.75327 50.2951 9.82225 50.2832C14.4045 49.5412 18.4448 48.879 22.1303 47.792C20.189 51.3169 19.5091 55.3227 18.9966 59.3295C14.4439 61.5675 9.44775 63.5462 4.7078 64.0468C3.83076 67.4318 3.15081 70.9005 2.68766 74.4373ZM39.9963 45.1442C39.819 44.7973 39.6317 44.4367 39.4543 44.0563L35.4041 41.4389C35.1282 41.2103 34.8524 41.0132 34.5764 40.8477C35.7491 39.7548 36.902 38.5132 38.0451 37.0981C42.4796 31.6269 47.4659 27.4704 52.8661 24.315C53.7727 25.4364 54.4822 26.5096 54.9355 27.3837C55.5859 28.6381 56.1279 29.9458 56.5418 31.2988C55.1523 32.2783 53.7234 33.313 52.2551 34.398C47.9586 37.576 44.0169 41.4488 39.9963 45.1442" fill="#47AA7C"/>
<path d="M2.07617 81.2881C2.18687 78.979 2.38988 76.6949 2.68508 74.4385C3.14634 70.9025 3.81971 67.4339 4.70532 64.0492C9.43779 63.5483 14.4378 61.5695 18.995 59.3315C18.8105 60.7733 18.6537 62.2171 18.4507 63.6368C18.054 66.5612 16.7626 70.7346 15.7201 75.1359C11.043 77.349 6.41195 79.3776 2.10383 81.2761C2.0946 81.2798 2.0854 81.2835 2.07617 81.2881ZM42.3068 59.3204C42.9526 57.6018 42.9341 55.6156 43.0171 53.8148C43.1924 50.0289 41.5596 48.0833 39.9913 45.146C44.0042 41.4505 47.9526 37.5778 52.2515 34.3997C53.7183 33.3148 55.1389 32.2798 56.5411 31.3001C57.5651 34.5501 57.9526 38.0593 57.8973 41.7226C56.1445 43.5363 54.5024 45.5898 52.9618 47.9191C50.1851 52.1082 46.5227 55.8859 42.3068 59.3204" fill="#4ADBAC"/>
<path d="M121.624 138.552C132.514 132.505 139.297 123.574 142.719 113.164C149.353 110.218 155.948 107.093 162.841 104.844C164.081 104.441 166.481 103.601 168.95 102.98C168.296 106.077 167.473 109.111 166.481 112.072C165.539 112.398 164.686 112.714 164.001 113.034C152.408 118.504 142.818 127.983 131.304 133.963C128.14 135.611 124.897 137.124 121.624 138.552ZM145.297 99.6008C145.456 97.1731 145.476 94.7016 145.367 92.2064C145.862 92.0031 146.348 91.8008 146.844 91.5975C153.806 88.7115 160.778 85.8672 167.78 83.0923C168.702 82.7244 169.704 82.2483 170.725 81.7445C170.775 82.9178 170.805 84.093 170.805 85.2781C170.805 85.7968 170.805 86.3115 170.785 86.8272C168.92 87.8457 167.145 88.7542 165.796 89.499C159.132 93.1863 152.17 96.2904 145.297 99.6008V99.6008ZM31.0186 82.6361C31.2566 81.7376 31.5045 80.8341 31.7624 79.9326C35.9971 78.2873 40.0633 76.5032 44.179 74.3957C46.7675 73.0757 49.3856 71.7835 51.9939 70.513C51.6369 71.7249 51.2699 72.922 50.9129 74.1051C50.4368 74.2886 49.9708 74.4859 49.5146 74.6982C43.4649 77.475 37.3161 80.4037 31.0186 82.6361ZM144.216 81.9637C143.929 80.3511 143.591 78.7326 143.205 77.118C148.213 74.5107 153.271 71.9491 158.378 69.4003C159.906 68.6366 169.872 64.509 166.005 62.8994C165.727 62.7844 165.41 62.7328 165.053 62.7328C162.196 62.7328 157.029 66.0402 155.353 67.3721C151.515 70.4138 147.201 72.9319 142.679 75.0165C142.183 73.1401 141.628 71.2667 141.013 69.3993C141.33 69.2317 141.657 69.0641 141.985 68.8965C145.962 66.8426 157.02 60.2534 166.193 57.6283C167.314 60.8822 168.246 64.2293 168.97 67.6488C161.889 73.5705 153.191 78.0622 144.216 81.9637ZM127.386 43.2768C126.018 41.3349 124.609 39.404 123.211 37.4731C123.598 37.3442 123.975 37.2162 124.351 37.0903C125.76 36.6232 145.575 28.601 146.477 25.84C148.352 27.751 150.147 29.7524 151.833 31.8321C146.457 33.522 140.795 34.8043 136.302 36.9425C132.712 38.6513 129.826 40.8043 127.386 43.2768ZM120.89 34.243C119.78 32.6988 118.689 31.1488 117.627 29.5858C126.325 28.3005 134.14 25.472 142.461 22.0118C143.621 23.0442 144.752 24.1123 145.853 25.2072C142.6 25.3233 125.522 32.4628 120.89 34.243ZM111.558 19.6584C110.665 17.9605 109.832 16.232 109.098 14.4676C108.96 14.1424 108.831 13.821 108.712 13.5036C112.52 12.2501 117.31 9.93536 121.634 8.39816C117.042 6.31054 112.242 4.61965 107.264 3.37005C107.274 3.29567 107.284 3.22127 107.293 3.14788C116.368 5.50723 124.847 9.32543 132.474 14.3367C131.591 13.7625 130.689 13.2052 129.776 12.6637C124.907 16.0148 114.751 19.1556 112.451 19.5245C112.153 19.5721 111.855 19.6168 111.558 19.6584" fill="#47AA7C"/>
<path d="M117.619 29.5881C115.417 26.3552 113.342 23.0668 111.549 19.6615C111.851 19.6196 112.153 19.5748 112.445 19.527C114.745 19.1587 124.897 16.0174 129.769 12.6666C130.685 13.2074 131.581 13.7647 132.468 14.3386C135.986 16.6527 139.328 19.2181 142.455 22.0145C134.134 25.4744 126.32 28.303 117.619 29.5881" fill="#4ADBAC"/>
<path d="M21.959 140.071C19.6285 137.311 17.4666 134.4 15.4932 131.35C15.5626 131.33 15.632 131.31 15.7014 131.29C26.0844 128.414 36.3484 123.771 46.3943 119.989C47.1777 122.729 48.3182 125.359 49.9248 127.828C48.6256 128.255 47.3364 128.675 46.0373 129.096C38.1434 131.626 29.4859 135.388 22.1672 139.941C22.0978 139.987 22.0284 140.026 21.959 140.071V140.071ZM145.365 92.2088C145.216 88.8311 144.82 85.4078 144.205 81.9656C153.18 78.0643 161.887 73.5729 168.958 67.6505C169.93 72.2232 170.525 76.9347 170.723 81.7464C169.691 82.2502 168.7 82.7262 167.768 83.0951C160.766 85.8689 153.805 88.7131 146.833 91.5999C146.347 91.8022 145.851 92.0055 145.365 92.2088" fill="#4ADBAC"/>
<path d="M75.4011 169.34C72.1371 168.909 68.9225 168.293 65.7871 167.497C65.8563 167.407 65.9355 167.312 66.0047 167.222C67.795 164.987 70.5743 162.673 72.0184 161.576C77.488 157.423 83.0368 154.021 89.3274 151.382C95.7466 148.676 102.364 146.237 108.961 143.692C113.679 142.355 117.892 140.622 121.621 138.553C124.895 137.126 128.129 135.613 131.304 133.965C142.817 127.984 152.402 118.505 163.994 113.036C164.676 112.715 165.537 112.4 166.476 112.073C164.884 116.843 162.886 121.421 160.522 125.774C155.359 127.412 150.048 131.099 145.508 133.494C130.592 141.353 115.044 147.134 100.376 155.214C94.3718 158.525 87.6163 160.339 81.9092 163.86C79.9706 165.053 77.9232 167.186 75.7373 169.055C75.6186 169.15 75.5099 169.245 75.4011 169.34" fill="#4ADBAC"/>
<path d="M48.4476 161.004C41.2278 157.352 34.6129 152.693 28.7617 147.218C28.8411 147.178 28.9303 147.138 29.0097 147.093C34.6724 144.197 40.2558 140.761 44.322 139.158C48.1798 137.63 51.9385 135.962 55.6674 134.284C56.1633 134.709 56.6889 135.121 57.2245 135.532C57.9286 136.057 58.6525 136.563 59.3864 137.049C54.7154 138.812 50.0839 140.671 45.6608 142.975C43.5087 144.097 41.1087 144.989 39.7401 147.128C38.55 149.006 39.1451 150.769 39.0459 152.247L42.3286 156.535C42.6955 157.527 43.4889 157.898 44.4608 157.898C46.7121 157.898 49.9451 155.879 51.1054 154.953C56.4608 150.715 62.5104 146.202 68.7583 143.215C69.3037 142.956 69.8591 142.71 70.4244 142.48C73.7467 143.657 77.2177 144.543 80.7483 145.134C74.9665 147.955 69.155 150.725 63.4823 153.79C59.9418 155.704 52.9203 158.103 48.7451 160.809C48.636 160.873 48.5369 160.939 48.4476 161.004V161.004ZM142.722 113.165C143.297 111.407 143.783 109.605 144.17 107.77C155.069 102.89 166.632 97.3756 166.513 95.9623C164.768 96.4919 154.087 100.92 144.715 104.789C144.983 103.083 145.171 101.354 145.29 99.6011C152.163 96.2907 159.135 93.1875 165.799 89.4992C167.148 88.7544 168.923 87.846 170.788 86.8275C170.689 92.3564 170.064 97.7574 168.953 102.98C166.474 103.601 164.074 104.441 162.834 104.844C155.951 107.094 149.356 110.219 142.722 113.165" fill="#4ADBAC"/>
<path d="M97.1807 169.396C97.3669 169.275 97.5532 169.15 97.7493 169.03C108.25 162.297 118.76 155.795 129.889 149.694C136.879 145.867 143.909 142.295 150.949 138.704C151.419 138.463 151.9 138.232 152.4 138.018C139.056 154.798 119.486 166.42 97.1807 169.396" fill="#4ADBAC"/>
<path d="M8.76626 118.699C6.35331 113.069 4.54362 107.125 3.39648 100.946C3.42615 100.928 3.45586 100.911 3.48553 100.892C6.65994 99.0259 9.51786 97.2647 11.6539 96.1561C13.4241 95.2453 15.214 94.3068 17.0336 93.3634C17.7951 94.1763 18.7642 94.8645 19.941 95.3966C20.9497 95.8485 21.8496 96.0503 22.6704 96.0503C26.4085 96.0503 28.3369 91.8593 29.4643 88.138C29.5632 87.7968 29.662 87.4537 29.7708 87.1095C36.0207 84.3109 42.4684 81.9632 48.9656 80.8092C48.2239 83.5346 47.591 86.1196 47.1855 88.5078C46.1274 94.6045 45.1286 100.841 44.9605 106.872C42.6761 107.661 40.3818 108.402 38.0579 109.073C28.3665 111.887 17.8742 113.795 8.90475 118.619C8.8553 118.65 8.81571 118.675 8.76626 118.699V118.699ZM141.014 69.3991C139.965 66.2365 138.739 63.0928 137.365 60.0005C134.744 54.1313 131.184 48.6557 127.386 43.277C129.819 40.8047 132.707 38.6508 136.297 36.942C140.796 34.804 146.463 33.5223 151.832 31.8322C158.033 39.4508 162.928 48.1582 166.191 57.628C157.014 60.2526 145.958 66.8427 141.983 68.8957C141.656 69.0638 141.33 69.231 141.014 69.3991" fill="#4ADBAC"/>
<path d="M9.59277 50.3201C15.6122 37.1466 24.9106 25.7875 36.4495 17.2863C37.5072 17.0094 38.5361 16.8834 39.5457 16.8834C45.1998 16.8834 50.0364 20.8393 52.8538 24.3173C47.4594 27.4732 42.4689 31.6291 38.0361 37.1004C36.8918 38.5159 35.7378 39.7572 34.5647 40.8496C33.7089 40.3351 32.8244 40.114 31.9493 40.114C29.1704 40.114 26.4491 42.3477 24.4586 44.5344C23.5163 45.5594 22.7567 46.6517 22.122 47.7941C18.4392 48.8807 14.4006 49.5441 9.81392 50.2855C9.74661 50.298 9.6697 50.3086 9.59277 50.3201ZM108.702 13.5063C107.231 9.63409 106.827 6.25321 107.26 3.3733C112.231 4.62239 117.039 6.3138 121.625 8.40137C117.308 9.93796 112.51 12.2534 108.702 13.5063Z" fill="#4ADBAC"/>
<path d="M3.52538 91.8567C2.41181 91.8567 1.94299 91.2315 2.94911 89.402L4.71711 88.6449C7.2959 86.9863 10.8613 85.1958 14.3583 83.544C14.3095 84.4817 14.3095 85.397 14.3583 86.283C12.0042 86.6688 9.88446 87.2334 9.50351 88.1341C9.33745 88.5404 9.69885 88.7231 10.4608 88.7231C10.9296 88.7231 11.5256 88.6586 12.2484 88.5394C11.8479 88.7416 11.4376 88.9429 11.0371 89.1431C9.7868 89.7575 5.56692 91.8567 3.52538 91.8567V91.8567ZM31.7553 79.9347C32.2535 78.1579 32.7712 76.3839 33.3671 74.6413C35.8482 73.7289 38.3196 72.9573 40.6346 71.452C45.3038 68.4248 50.9889 65.426 54.6519 61.1847C54.6617 61.1661 54.6812 61.1476 54.7008 61.129C53.8509 64.2978 52.9229 67.448 51.995 70.5152C49.3771 71.7861 46.7592 73.0774 44.1804 74.3981C40.0583 76.506 35.9947 78.2887 31.7553 79.9347V79.9347ZM123.205 37.4754C122.423 36.3999 121.652 35.3255 120.88 34.2461C125.51 32.4654 142.595 25.3258 145.838 25.2096C146.053 25.4205 146.258 25.6296 146.473 25.8425C145.564 28.603 125.745 36.6256 124.348 37.0925C123.967 37.2195 123.586 37.3465 123.205 37.4754" fill="#4DF5C2"/>
<path d="M10.4685 88.7221C9.69725 88.7221 9.33916 88.5394 9.50443 88.1335C9.88089 87.2328 12.0019 86.6681 14.3617 86.2816C14.3984 86.8949 14.4719 87.4945 14.5637 88.0748C13.7098 88.2713 12.9201 88.4283 12.2498 88.5385C11.5245 88.6578 10.9276 88.7221 10.4685 88.7221ZM30.8156 83.3479C30.8799 83.111 30.9441 82.8751 31.0084 82.6373C37.3163 80.4052 43.459 77.4771 49.5098 74.7005C49.9689 74.4875 50.4372 74.2901 50.9055 74.1073C50.63 75.0228 50.3638 75.9299 50.0975 76.8242C45.3688 78.4871 37.9958 81.035 30.8156 83.3479" fill="#4DF5C2"/>
<path d="M14.0141 125.212C13.8357 125.212 13.697 125.148 13.5582 124.987L13.0527 123.224C19.3665 121.134 25.6604 118.876 31.984 116.727C36.3452 115.249 40.6666 113.716 45.0872 112.414C45.1665 113.38 45.2656 114.342 45.4044 115.288C45.3053 115.324 45.2061 115.359 45.107 115.399C39.2393 117.518 33.2031 119.522 27.1867 120.96C23.1031 121.931 19.4061 123.65 15.3919 124.797C14.7872 124.972 14.3511 125.212 14.0141 125.212V125.212ZM143.203 77.1187C143.034 76.4169 142.856 75.7191 142.678 75.0174C147.197 72.9319 151.509 70.4144 155.345 67.3725C157.03 66.0414 162.194 62.7338 165.048 62.7338C165.405 62.7338 165.732 62.7853 166 62.8993C169.865 64.509 159.904 68.6372 158.378 69.4004C153.273 71.9497 148.218 74.5119 143.203 77.1187Z" fill="#4DF5C2"/>
<path d="M44.45 157.9C43.4806 157.9 42.6893 157.529 42.3233 156.538L39.0392 152.25C39.1381 150.772 38.5446 149.008 39.7415 147.13C41.1065 144.991 43.5003 144.099 45.6567 142.977C50.0784 140.673 54.7078 138.815 59.3866 137.051C62.7597 139.281 66.479 141.084 70.416 142.482C69.8521 142.712 69.2981 142.957 68.7541 143.218C62.5025 146.203 56.4487 150.717 51.1072 154.954C49.9399 155.881 46.7053 157.9 44.45 157.9V157.9ZM144.169 107.771C144.377 106.788 144.555 105.793 144.713 104.791C154.081 100.922 164.764 96.4937 166.505 95.9645C166.623 97.378 155.06 102.891 144.169 107.771Z" fill="#4DF5C2"/>
<path d="M17.0299 93.3635C15.6879 91.9357 14.9211 90.1208 14.5742 88.0732C18.6367 87.1475 24.6527 85.3345 30.8148 83.347C30.4679 84.6142 30.121 85.8722 29.765 87.1101C25.4104 89.0582 21.1562 91.2255 17.0299 93.3635ZM14.3643 83.5424C14.5195 80.8238 15.0763 77.9326 15.7244 75.1336C25.0544 70.7306 34.6035 65.5983 42.3084 59.3192C42.2263 59.5511 42.1259 59.7784 42.0072 60.0003C40.8661 62.2068 38.6751 63.6474 37.3696 65.7644C35.6807 68.5031 34.4208 71.5194 33.371 74.6397C32.6863 74.8908 32.0017 75.1528 31.3079 75.444C27.3823 77.1082 23.612 79.291 19.723 81.0712C18.0615 81.8289 16.2266 82.666 14.3643 83.5424V83.5424ZM19.0018 59.3293C19.5131 55.3234 20.1886 51.3176 22.1331 47.7928C26.6977 46.4463 30.7236 44.4507 34.5761 40.8483C34.8499 41.0135 35.133 41.2107 35.4069 41.4399L39.451 44.0572C39.6336 44.437 39.8162 44.7976 39.9988 45.1445C36.128 48.7094 32.2025 52.1091 27.8388 54.5603C25.31 55.9826 22.2701 57.7226 19.0018 59.3293" fill="#73BC6E"/>
<path d="M15.7314 75.1348C16.7637 70.7338 18.0607 66.5602 18.4535 63.6362C18.6545 62.2158 18.8098 60.7725 19.0016 59.3302C22.2718 57.7225 25.3045 55.9833 27.8439 54.561C32.2011 52.1102 36.129 48.7103 40.002 45.1451C41.564 48.0819 43.1991 50.0284 43.0164 53.8138C42.9342 55.6142 42.9616 57.601 42.304 59.3192C34.6035 65.5992 25.0487 70.731 15.7314 75.1348Z" fill="#75DE8F"/>
<path d="M17.6904 85.8376C21.0171 84.2087 24.3981 82.6487 27.8788 81.387C29.1932 80.9111 30.4803 80.428 31.7584 79.9321C31.5046 80.8341 31.2598 81.7378 31.0151 82.6361C27.77 83.7863 24.4706 84.7517 21.1259 85.417C20.5004 85.543 19.2042 85.6672 17.6904 85.8376" fill="#73BC6E"/>
<path d="M22.6698 96.05C21.8551 96.05 20.9409 95.8481 19.9361 95.3964C18.7593 94.8641 17.7997 94.1762 17.0303 93.3624C21.1581 91.2252 25.4126 89.0581 29.7667 87.1092C29.6671 87.454 29.5585 87.7971 29.4589 88.1384C28.3364 91.8588 26.4083 96.05 22.6698 96.05" fill="#75DE8F"/>
<path d="M22.125 47.7943C22.7516 46.6518 23.5145 45.5602 24.4499 44.5349C26.4478 42.3471 29.1724 40.114 31.9513 40.114C32.8232 40.114 33.7041 40.3356 34.5668 40.8505C30.7162 44.4532 26.684 46.4484 22.125 47.7943" fill="#75DE8F"/>
<path d="M14.3656 86.2817C14.3021 85.3961 14.3111 84.4814 14.3656 83.544C16.2167 82.6675 18.0588 81.8299 19.7194 81.0731C23.6123 79.2918 27.3781 77.1104 31.3073 75.4453C31.9969 75.154 32.6775 74.8927 33.3671 74.6413C32.7773 76.3836 32.251 78.1566 31.7519 79.9343C30.4725 80.4297 29.193 80.9125 27.8772 81.3889C24.3927 82.6511 21.0171 84.2101 17.6868 85.8389C16.6342 85.9587 15.4727 86.1012 14.3656 86.2817" fill="#78F09E"/>
<path d="M14.5646 88.0749C14.4649 87.4951 14.4015 86.8953 14.3652 86.282C15.4705 86.1008 16.6302 85.9585 17.6902 85.8398C19.1941 85.6686 20.4988 85.5445 21.1239 85.4195C24.4669 84.7536 27.7647 83.7878 31.0081 82.6381C30.9447 82.8755 30.8812 83.1119 30.8087 83.3484C24.6481 85.3361 18.6324 87.149 14.5646 88.0749Z" fill="#78F09E"/>
</svg>
