<svg width="303" height="178" viewBox="0 0 303 178" fill="none" xmlns="http://www.w3.org/2000/svg">
<path d="M238.608 84.8875C238.608 131.625 200.72 169.51 153.983 169.51C107.246 169.51 69.3584 131.625 69.3584 84.8875C69.3584 38.1504 107.246 0.259767 153.983 0.259767C200.72 0.259767 238.608 38.1504 238.608 84.8875Z" fill="#ED6326"/>
<path d="M136.481 101.939C120.414 92.8524 95.0226 94.6006 82.6786 109.113C80.6549 111.487 78.5865 115.309 76.8818 119.753C87.6634 143.732 109.288 161.781 135.513 167.662C156.391 150.485 164.521 117.799 136.481 101.939Z" fill="#EF8A34"/>
<path d="M110.597 40.59C100.183 39.8436 87.8313 50.3582 85.5706 60.2767C82.1216 75.4149 95.7956 75.6002 106.811 76.1813C117.356 76.7324 131.287 74.2076 133.33 61.0381C135.371 47.8785 123.243 41.4967 110.597 40.59" fill="#EF8A34"/>
<path d="M209.579 52.7477C205.362 41.1662 197.721 31.5933 189.56 22.9272C185 18.0882 150.179 6.40141 158.282 30.7468C160.454 37.2689 162.971 45.6996 166.421 51.0246C173.298 61.6343 180.611 80.0737 194.477 79.9635C208.169 79.8583 213.611 63.8234 209.579 52.7477" fill="#EF8A34"/>
<path d="M226.902 97.2055C226.465 95.2018 222.821 83.3296 222.821 83.3296C211.947 68.0011 186.148 115.284 191.013 125.398C201.663 147.529 230.958 115.77 226.902 97.2055" fill="#EF8A34"/>
<path d="M153.602 169.676C140.409 169.676 127.015 166.58 114.509 160.053C94.6943 149.703 80.6842 132.612 73.8264 113.06C73.9702 113.155 74.1195 113.25 74.2637 113.346C76.0936 118.47 78.4069 123.374 81.143 127.988C92.8328 147.83 112.383 162.477 135.512 167.662C135.567 167.617 135.623 167.572 135.677 167.527C141.571 168.824 147.699 169.51 153.983 169.51C163.639 169.51 172.915 167.892 181.56 164.917C181.567 164.917 181.579 164.922 181.587 164.922C172.634 168.048 163.17 169.676 153.602 169.676V169.676ZM69.9933 95.3071C69.875 95.2219 69.7563 95.1367 69.6381 95.0516C69.3225 92.4267 69.1297 89.7818 69.0615 87.1268C69.1727 87.207 69.2824 87.2871 69.3936 87.3673C69.4708 90.0473 69.6727 92.6972 69.9933 95.3071" fill="#554E78"/>
<path d="M153.983 169.51C147.698 169.51 141.571 168.824 135.677 167.526C140.669 163.384 144.923 158.359 148.117 152.889C158.488 157.132 169.782 161.27 181.56 164.917C172.915 167.892 163.639 169.51 153.983 169.51V169.51ZM198.033 157.117C186.334 153.741 172.779 148.997 156.841 142.32C161.044 142.294 165.278 141.909 169.525 141.383C181.506 145.47 194.012 148.917 206.156 151.447C203.552 153.5 200.84 155.394 198.033 157.117ZM81.143 127.988C78.4069 123.374 76.0935 118.47 74.2636 113.345C75.6532 114.262 77.0448 115.164 78.4464 116.066C77.9004 117.228 77.3754 118.465 76.881 119.752C78.1534 122.583 79.5785 125.333 81.143 127.988ZM85.7415 105.992C80.1581 102.43 74.9148 98.8585 69.9932 95.3069C69.6726 92.697 69.4707 90.0471 69.3936 87.3671C76.1762 92.3063 83.4773 97.2555 91.1245 102.12C89.2005 103.242 87.3941 104.534 85.7415 105.992Z" fill="#F18251"/>
<path d="M135.513 167.662C112.384 162.477 92.8336 147.83 81.1438 127.988C79.5794 125.333 78.1542 122.583 76.8818 119.753C77.3763 118.465 77.9012 117.228 78.4473 116.066C89.7719 123.334 101.461 130.202 112.869 136.373C122.313 141.483 134.403 147.279 148.118 152.889C144.924 158.359 140.67 163.384 135.678 167.527C135.623 167.572 135.568 167.617 135.513 167.662V167.662ZM95.0322 111.728C91.8422 109.824 88.7404 107.905 85.7423 105.992C87.3949 104.534 89.2013 103.242 91.1254 102.12C91.2401 102.195 91.3538 102.265 91.469 102.34C92.3091 105.676 93.5123 108.807 95.0322 111.728" fill="#F2A15D"/>
<path d="M70.7573 69.4789C70.6756 69.4088 70.5894 69.3387 70.5088 69.2736C72.0216 61.3087 74.7141 53.429 78.66 45.87C87.0055 29.8852 99.7388 17.6774 114.613 9.95806C92.0595 21.8302 75.5191 43.5957 70.7573 69.4789" fill="#554E78"/>
<path d="M223.032 84.0209C222.898 83.5801 222.821 83.3296 222.821 83.3296C221.326 81.2207 219.549 80.299 217.609 80.299C215.549 80.299 213.304 81.3409 211.016 83.1142C207.743 82.0272 204.533 80.3591 201.395 78.3153C209.899 73.9321 212.843 61.7143 209.579 52.7476C205.362 41.166 197.721 31.5932 189.56 22.9271C187.136 20.3523 176.158 15.8439 167.625 15.8439C160.107 15.8439 154.487 19.3454 158.282 30.7467C159.819 35.3603 161.528 40.9306 163.619 45.6795C154.783 39.2224 145.435 33.5969 135.188 33.5969C131.09 33.5969 126.847 34.4936 122.437 36.6025C119.827 37.8499 117.32 39.3727 114.937 41.126C113.511 40.8755 112.058 40.6952 110.597 40.59C110.246 40.565 109.892 40.5549 109.537 40.5549C99.3606 40.5549 87.7555 50.6938 85.5709 60.2767C83.6418 68.7475 87.0697 72.5345 92.3931 74.3329C92.1236 75.2846 91.8792 76.2414 91.6618 77.1982C91.1593 79.4023 90.7806 81.5463 90.5181 83.6402C82.9951 78.8212 76.3988 74.0573 70.7578 69.4788C75.5197 43.5956 92.06 21.83 114.614 9.95792C126.654 3.70627 140.096 0.395079 153.747 0.395079C166.942 0.395079 180.336 3.49083 192.843 10.018C216.776 22.5163 232.239 44.8529 236.861 69.4788C237.047 78.701 228.932 82.7486 223.032 84.0209" fill="#F18251"/>
<path d="M92.3928 74.3329C87.0694 72.5346 83.6415 68.7476 85.5706 60.2768C87.7551 50.6939 99.3603 40.555 109.537 40.555C109.891 40.555 110.246 40.565 110.597 40.5901C112.057 40.6953 113.511 40.8756 114.937 41.126C104.21 49.0157 96.0075 61.5341 92.3928 74.3329" fill="#F2A15D"/>
<path d="M201.395 78.3151C189.134 70.3202 177.987 56.5796 168.629 49.4413C166.976 48.1789 165.307 46.9116 163.619 45.6793C161.528 40.9305 159.819 35.3601 158.282 30.7465C154.487 19.3453 160.107 15.8437 167.625 15.8437C176.158 15.8437 187.136 20.3521 189.56 22.9269C197.721 31.5931 205.362 41.1659 209.579 52.7475C212.843 61.7142 209.899 73.932 201.395 78.3151" fill="#F2A15D"/>
<path d="M219.097 84.4918C219.093 84.4918 219.089 84.4918 219.086 84.4918C216.36 84.4868 213.668 83.9909 211.017 83.1143C213.305 81.3409 215.55 80.299 217.61 80.299C219.549 80.299 221.327 81.2207 222.822 83.3296C222.822 83.3296 222.899 83.5802 223.033 84.021C221.514 84.3466 220.142 84.4918 219.097 84.4918" fill="#F2A15D"/>
<path d="M84.0964 28.8531C84.0964 28.8531 55.3233 22.0404 47.7507 34.153C40.1785 46.2706 74.3642 81.6164 141.643 110.255C215.469 141.673 257.787 145.761 268.472 134.48C275.287 127.287 246.135 102.3 246.135 102.3L248.028 97.0001C248.028 97.0001 296.488 126.154 278.315 146.598C260.143 167.041 183.808 151.256 137.1 128.048C74.6312 97.0001 14.0169 50.1779 24.6567 30.371C35.6356 9.92285 86.7463 25.071 86.7463 25.071L84.0964 28.8531" fill="#7D0D98"/>
<path d="M52.2943 15.9841C49.2657 16.7405 7.72945 13.6397 14.4345 35.6707C19.7348 53.0832 55.3835 93.8592 123.849 127.286C204.49 166.665 237.023 165.182 260.522 165.903C309.739 167.421 287.402 132.967 287.402 132.967C287.402 132.967 319.837 165.818 290.431 173.858C233.641 189.377 151.301 157.167 112.869 136.373C66.6811 111.387 15.9491 75.0441 3.07683 46.2705C-6.18909 25.5569 7.36452 15.8338 19.7348 12.197C32.6076 8.40992 52.2943 15.9841 52.2943 15.9841" fill="#7D0D98"/>
<path d="M68.1401 78.7863C66.5401 78.7863 65.4811 78.0098 64.0505 77.2183C52.8366 71.0268 47.5763 58.2029 37.1704 51.4754C31.7973 47.9989 29.5507 42.709 28.8125 36.4323C28.1273 30.6015 32.2657 24.9509 37.9077 23.5533L39.8008 22.7969C42.8705 22.7869 45.6346 22.4412 48.4889 22.0205C49.8635 21.8201 52.9062 20.8984 55.1669 20.8984C55.9944 20.8984 56.7173 21.0186 57.2147 21.3492C61.5688 24.2145 53.6521 24.0192 52.2945 24.2897C49.5334 24.8507 47.2521 25.9478 44.7224 26.9596C39.2197 29.1688 35.5183 32.3397 37.1613 39.0572C38.4047 44.1417 44.1634 47.7684 47.2702 52.0314C50.924 57.0507 55.7084 60.1164 59.2044 65.1057C62.479 69.7794 69.7516 72.1689 68.5168 78.7712C68.3875 78.7812 68.2623 78.7863 68.1401 78.7863Z" fill="#BF37B0"/>
<path d="M39.4654 80.1038C37.6831 80.1038 34.7135 77.8195 33.7227 77.008C28.5572 72.8002 24.5309 68.7376 19.6396 64.1591C14.2273 59.0896 13.5029 54.4309 11.0269 47.7835C8.89205 42.0528 4.28557 36.7931 4.5713 30.7468C4.82487 25.3718 8.61494 16.3149 15.1913 15.9843L17.8417 14.4665C18.7776 13.9555 20.0507 13.6248 21.2567 13.6248C22.2437 13.6248 23.1856 13.8453 23.8611 14.3762C20.7487 16.8458 16.0223 17.3118 12.8369 19.6762C9.56906 22.0957 8.88399 27.1801 9.49297 31.1275C10.9736 40.7254 16.7573 52.6526 23.2173 60.6375C25.5479 63.5178 28.529 64.4746 30.8278 67.385C32.3045 69.2535 33.7437 71.1521 35.5416 72.8653C36.6456 73.9172 40.8029 76.5421 40.859 78.065C40.9141 79.5678 40.3295 80.1038 39.4654 80.1038" fill="#BF37B0"/>
<path d="M252.261 149.899C250.707 149.899 249.222 149.824 247.861 149.683C238.304 148.712 229.082 145.976 219.497 144.579C208.115 142.916 197.132 140.121 185.962 138.172C179.146 136.985 164.313 134.856 160.978 128.078L158.707 126.941C157.09 125.133 147.106 121.686 153.782 121.686C154.067 121.686 154.383 121.691 154.73 121.706C158.302 121.841 163.781 126.014 167.098 127.652C175.744 131.91 184.709 134.28 193.946 136.564C202.886 138.778 211.745 139.61 221.172 140.571C230.23 141.498 239.14 144.414 248.429 144.544C248.662 144.549 248.895 144.549 249.128 144.549C258.189 144.549 267.369 142.034 272.845 134.861C274.109 133.208 275.879 131.449 277.219 131.449C278.258 131.449 279.038 132.506 279.123 135.487C279.217 138.788 275.247 142.355 272.705 144.403C267.785 148.371 259.305 149.899 252.261 149.899" fill="#9E22A4"/>
</svg>
