<svg width="169" height="169" viewBox="0 0 169 169" fill="none" xmlns="http://www.w3.org/2000/svg">
<path d="M157.265 42.9064C180.437 83.0736 166.658 134.421 126.49 157.591C86.3231 180.763 34.9776 166.986 11.8065 126.817C-11.3647 86.6494 2.41271 35.3041 42.5803 12.1321C82.7481 -11.0399 134.093 2.73917 157.265 42.9064Z" fill="#03A5D4"/>
<path d="M71.5415 17.3366C65.6792 25.6581 64.3952 36.67 66.7251 46.5777C69.056 56.4871 74.7087 65.369 81.587 72.8709C91.2938 83.4594 104.259 91.8575 118.588 92.8724C132.916 93.8873 148.335 86.0057 153.099 72.4547C157.687 59.4094 151.795 44.8674 143.414 33.8682C128.054 13.7171 92.0917 -11.826 71.5415 17.3366" fill="#01A9D5"/>
<path d="M108.187 53.3937C112.564 56.4474 117.249 59.2419 122.448 60.4502C127.646 61.6604 133.465 61.0982 137.749 57.9149C143.946 53.3079 145.433 44.2143 142.999 36.8876C140.562 29.5609 134.993 23.7182 129.121 18.7041C117.766 9.01186 93.8125 -4.27257 81.5888 12.1258C70.6042 26.8613 97.8446 46.1747 108.187 53.3937" fill="#16B3D5"/>
<path d="M67.7436 101.818C67.0911 100.109 67.7515 98.0611 69.1168 96.8455C70.4828 95.6298 72.4293 95.1917 74.244 95.4199C74.9591 95.5093 75.7148 95.7192 76.4422 96.0186C75.2165 94.9837 73.5303 94.2736 72.0181 94.0819C70.2034 93.8538 68.2569 94.2919 66.8916 95.5093C65.5246 96.725 64.8644 98.7729 65.5175 100.48C66.0594 101.9 67.3543 102.842 68.8116 103.369C68.3531 102.931 67.9752 102.424 67.7436 101.818" fill="#0A93BE"/>
<path d="M74.223 95.4147C72.407 95.1938 70.4634 95.641 69.1023 96.8639C67.7426 98.085 67.0916 100.137 67.7525 101.84C67.9863 102.444 68.3671 102.953 68.8278 103.387C69.3553 103.577 69.9036 103.714 70.447 103.796C72.7764 104.147 75.3902 103.667 76.9552 101.907C78.993 99.6147 78.1802 97.4736 76.4241 96.0024C75.6947 95.7049 74.9381 95.5005 74.223 95.4147" fill="#0AAFDC"/>
<path d="M144.431 101.6C144.092 100.713 144.437 99.6467 145.147 99.0133C145.857 98.3836 146.868 98.1554 147.814 98.274C148.186 98.3215 148.577 98.4292 148.956 98.5844C148.319 98.0459 147.441 97.6772 146.655 97.5768C145.711 97.46 144.7 97.6863 143.99 98.3197C143.28 98.9512 142.935 100.017 143.274 100.906C143.557 101.644 144.231 102.133 144.988 102.408C144.749 102.18 144.552 101.915 144.431 101.6" fill="#0A93BE"/>
<path d="M147.802 98.2714C146.858 98.1582 145.847 98.39 145.139 99.0234C144.43 99.6604 144.093 100.726 144.436 101.613C144.558 101.927 144.757 102.192 144.996 102.418C145.27 102.515 145.555 102.588 145.838 102.63C147.05 102.813 148.41 102.564 149.222 101.648C150.282 100.456 149.861 99.341 148.946 98.578C148.567 98.4229 148.174 98.317 147.802 98.2714" fill="#0AAFDC"/>
<path d="M62.226 31.6785C61.7333 30.3862 62.2324 28.8384 63.2648 27.9184C64.2973 26.9985 65.7689 26.6699 67.1407 26.8415C67.6812 26.9091 68.2531 27.0679 68.8027 27.296C67.8758 26.513 66.6017 25.9745 65.4573 25.8303C64.0861 25.6587 62.6146 25.9891 61.5822 26.909C60.5489 27.8271 60.0499 29.375 60.5432 30.6673C60.9532 31.7406 61.9323 32.4524 63.0346 32.8503C62.6865 32.5218 62.4021 32.1367 62.226 31.6785" fill="#0A93BE"/>
<path d="M67.1259 26.8383C65.7533 26.6722 64.2832 27.0081 63.2551 27.9317C62.2261 28.8571 61.7342 30.4085 62.234 31.6972C62.4109 32.1535 62.6989 32.5369 63.0468 32.8654C63.4462 33.0078 63.8596 33.1118 64.2703 33.1739C66.0322 33.4404 68.0079 33.0771 69.1914 31.7465C70.7323 30.0125 70.1176 28.3934 68.7893 27.2837C68.2388 27.0592 67.6677 26.904 67.1259 26.8383Z" fill="#0AAFDC"/>
<path d="M35.7838 126.412C34.7357 123.669 35.7966 120.382 37.9891 118.43C40.1824 116.477 43.3067 115.775 46.2201 116.141C47.3687 116.286 48.5809 116.62 49.7487 117.105C47.7816 115.441 45.0736 114.302 42.6458 113.993C39.7332 113.628 36.6081 114.331 34.4148 116.282C32.2223 118.237 31.1622 121.524 32.2095 124.264C33.0809 126.544 35.1585 128.057 37.4987 128.902C36.7627 128.201 36.156 127.383 35.7838 126.412Z" fill="#0A93BE"/>
<path d="M46.1851 116.132C43.2703 115.779 40.1481 116.497 37.9649 118.459C35.781 120.421 34.7358 123.714 35.7967 126.452C36.1725 127.421 36.7834 128.235 37.5236 128.934C38.3714 129.237 39.2505 129.458 40.1224 129.588C43.8622 130.152 48.0589 129.383 50.5709 126.558C53.8442 122.876 52.5387 119.437 49.7181 117.077C48.5474 116.599 47.3345 116.272 46.1851 116.132Z" fill="#04A2CB"/>
<path d="M72.4834 146.194C74.8264 144.424 78.2787 144.528 80.7644 146.09C83.2492 147.654 84.7935 150.46 85.252 153.36C85.4324 154.505 85.4488 155.76 85.3097 157.018C86.3585 154.665 86.7015 151.747 86.32 149.33C85.8615 146.43 84.3179 143.624 81.8316 142.06C79.3469 140.497 75.8945 140.393 73.5516 142.164C71.6059 143.635 70.7317 146.05 70.5684 148.534C71.0382 147.631 71.6537 146.82 72.4834 146.194" fill="#0A93BE"/>
<path d="M85.2534 153.326C84.7814 150.428 83.2242 147.628 80.7324 146.078C78.2398 144.527 74.7859 144.437 72.4516 146.219C71.6244 146.848 71.0127 147.662 70.5471 148.568C70.4929 149.466 70.525 150.371 70.6413 151.247C71.1418 154.995 73.0461 158.811 76.4601 160.439C80.907 162.559 83.8452 160.348 85.3277 156.982C85.4609 155.727 85.4389 154.467 85.2534 153.326" fill="#04A2CB"/>
<path d="M34.9853 42.5988C35.3396 39.6838 37.8116 37.2708 40.6621 36.5681C43.5134 35.8672 46.6051 36.705 49.0094 38.3879C49.9576 39.0523 50.8737 39.9138 51.6816 40.8867C50.7169 38.4974 48.856 36.2231 46.8517 34.8213C44.4461 33.1366 41.3552 32.2988 38.5047 33.0015C35.6534 33.7042 33.1807 36.1173 32.8277 39.0304C32.534 41.4526 33.6655 43.7597 35.3396 45.6014C35.016 44.6377 34.8612 43.6319 34.9853 42.5988" fill="#0A93BE"/>
<path d="M48.9878 38.3636C46.5749 36.6898 43.4798 35.8666 40.632 36.5821C37.7844 37.2994 35.323 39.7216 34.9829 42.6384C34.8632 43.6715 35.0236 44.6773 35.3509 45.6392C35.9591 46.3036 36.6335 46.9096 37.3445 47.4334C40.3881 49.6767 44.4573 50.9562 47.9989 49.6311C52.6119 47.9007 53.0626 44.2538 51.6715 40.8478C50.8587 39.8804 49.9382 39.0225 48.9878 38.3636" fill="#04A2CB"/>
<path d="M71.1527 118.335C71.6397 119.675 71.0993 121.261 70.0198 122.19C68.941 123.121 67.4202 123.435 66.01 123.236C65.4551 123.156 64.8692 122.984 64.3066 122.742C65.247 123.563 66.5517 124.138 67.7269 124.306C69.1364 124.505 70.6579 124.189 71.7368 123.26C72.8156 122.331 73.356 120.745 72.8691 119.405C72.4648 118.295 71.4694 117.545 70.3407 117.116C70.6922 117.461 70.981 117.865 71.1527 118.335" fill="#0A93BE"/>
<path d="M66.025 123.242C67.4361 123.436 68.9555 123.113 70.0293 122.178C71.1046 121.244 71.637 119.656 71.1443 118.32C70.9697 117.847 70.6794 117.445 70.3259 117.102C69.9181 116.949 69.493 116.834 69.071 116.763C67.2621 116.462 65.22 116.801 63.9794 118.152C62.3638 119.911 62.9698 121.589 64.3181 122.755C64.8829 122.996 65.469 123.166 66.025 123.242Z" fill="#0AAFDC"/>
<path d="M20.3917 106.375C20.8782 107.713 20.3385 109.299 19.2588 110.228C18.1801 111.159 16.6592 111.475 15.249 111.273C14.6928 111.194 14.1082 111.022 13.5449 110.78C14.486 111.601 15.7908 112.174 16.9659 112.342C18.3755 112.545 19.8971 112.229 20.9751 111.298C22.0546 110.369 22.5951 108.783 22.1081 107.445C21.7038 106.332 20.7084 105.583 19.5797 105.154C19.9305 105.499 20.2193 105.901 20.3917 106.375Z" fill="#0A93BE"/>
<path d="M15.2673 111.278C16.6775 111.473 18.1976 111.15 19.2714 110.215C20.346 109.279 20.8793 107.691 20.3865 106.357C20.2118 105.882 19.9223 105.482 19.568 105.137C19.1603 104.984 18.7353 104.869 18.3131 104.8C16.5043 104.497 14.4622 104.836 13.2217 106.187C11.606 107.948 12.212 109.626 13.5603 110.792C14.1243 111.031 14.7104 111.201 15.2673 111.278Z" fill="#0AAFDC"/>
<path d="M114.716 102.026C114.328 103.229 113.085 104.044 111.822 104.108C110.558 104.172 109.321 103.563 108.441 102.654C108.096 102.294 107.779 101.854 107.518 101.376C107.729 102.466 108.328 103.579 109.062 104.338C109.94 105.249 111.177 105.857 112.44 105.793C113.703 105.731 114.946 104.915 115.335 103.712C115.658 102.712 115.37 101.644 114.813 100.726C114.872 101.16 114.853 101.6 114.716 102.026" fill="#0A93BE"/>
<path d="M108.451 102.664C109.332 103.571 110.574 104.174 111.837 104.104C113.098 104.035 114.339 103.214 114.722 102.009C114.858 101.582 114.872 101.144 114.814 100.709C114.611 100.379 114.376 100.067 114.118 99.7876C113.016 98.5883 111.4 97.714 109.794 97.9824C107.701 98.3328 107.211 99.8405 107.52 101.394C107.783 101.87 108.102 102.308 108.451 102.664" fill="#0AAFDC"/>
<path d="M93.2311 111.158C93.8665 111.704 94.0461 112.673 93.7618 113.462C93.4757 114.248 92.787 114.847 92.0064 115.15C91.699 115.272 91.3496 115.352 90.9902 115.389C91.7098 115.539 92.5439 115.458 93.1941 115.206C93.9749 114.903 94.6644 114.303 94.9489 113.514C95.234 112.726 95.0544 111.758 94.4198 111.211C93.8923 110.758 93.1656 110.66 92.4627 110.766C92.7436 110.842 93.0066 110.964 93.2311 111.158" fill="#0A93BE"/>
<path d="M92.0151 115.15C92.7938 114.841 93.4805 114.239 93.7621 113.451C94.0436 112.662 93.859 111.695 93.2209 111.151C92.9955 110.957 92.7317 110.837 92.4508 110.762C92.1977 110.802 91.9467 110.866 91.7099 110.952C90.6954 111.317 89.7458 112.08 89.5004 113.129C89.1781 114.496 89.9724 115.183 90.9999 115.391C91.3586 115.354 91.7079 115.27 92.0151 115.15" fill="#0AAFDC"/>
<path d="M45.3668 153.295C41.5906 153.059 37.8296 152.647 34.0907 152.01C31.2015 149.842 28.4407 147.476 25.8247 144.915C29.0133 145.733 32.2718 146.306 35.5466 146.655C35.8162 146.879 36.0885 147.1 36.3623 147.319C39.1858 149.577 42.2067 151.552 45.3668 153.295V153.295ZM137.762 149.816C134.902 149.407 132.025 149.121 129.138 148.94C134.106 144.97 138.697 139.852 140.586 133.956C143.866 134.821 147.111 135.873 150.32 137.074C146.653 141.697 142.457 145.979 137.762 149.816V149.816ZM33.1102 144.51C29.767 144.024 26.4643 143.291 23.2588 142.29C19.1946 137.948 15.5376 133.105 12.377 127.788C15.5776 128.46 18.8516 129.608 22.1579 130.838C25.1702 135.882 28.823 140.512 33.1102 144.51V144.51ZM151.49 135.564C148.064 134.263 144.585 133.124 141.064 132.193C141.679 129.409 141.674 126.469 140.82 123.408C139.732 119.507 137.372 116.076 134.303 113.531C142.678 112.124 151.171 111.417 159.664 111.417C161.164 111.417 162.668 111.439 164.169 111.483C161.298 120.08 157.041 128.228 151.49 135.564" fill="#10B1D4"/>
<path d="M9.33566 107.748C7.16394 106.97 5.0435 106.045 2.99717 104.984C1.35716 98.355 0.557318 91.6215 0.558595 84.93C0.558595 83.1157 0.617916 81.3032 0.734735 79.498C1.82717 80.3942 3.02145 81.201 4.29915 81.9201C3.99177 85.9522 4.18708 90.0426 4.78468 94.0364C5.49836 98.8113 6.8624 103.656 9.33566 107.748ZM80.1653 82.9897C80.4356 80.6552 80.6118 78.317 80.5981 75.9752C80.5895 74.5606 80.4962 73.0456 80.3243 71.4612C80.7408 71.9358 81.1621 72.4067 81.5878 72.8704C83.5742 75.037 85.6983 77.1142 87.9414 79.0526C85.2947 80.2482 82.6979 81.5605 80.1653 82.9897ZM168.096 76.4479C163.252 74.6409 158.272 73.2099 153.205 72.1476C156.613 62.0811 153.84 51.1476 148.536 41.6543C148.899 41.6507 149.261 41.647 149.622 41.647C151.984 41.647 154.351 41.7474 156.706 41.9519C156.894 42.2695 157.08 42.5852 157.265 42.9065C163.403 53.5461 166.948 64.9705 168.096 76.4479Z" fill="#0995C0"/>
<path d="M87.9443 79.0532C85.7012 77.1148 83.5771 75.0376 81.5906 72.871C81.165 72.4073 80.7437 71.9364 80.3272 71.4618C80.1461 69.7954 79.8773 68.0486 79.5273 66.2543C82.6053 64.3743 85.6882 62.507 88.8098 60.7128C94.3927 57.5021 100.146 54.5123 106.05 51.893C106.82 52.4387 107.538 52.9407 108.189 53.3952C112.566 56.4489 117.252 59.2434 122.45 60.4517C124.098 60.835 125.811 61.0413 127.515 61.0413C131.186 61.0413 134.827 60.0903 137.752 57.9164C142.607 54.3078 144.571 47.9449 144.023 41.8356C145.524 41.7352 147.033 41.675 148.539 41.6549C153.843 51.1482 156.616 62.0817 153.208 72.1482C145.991 70.6386 138.606 69.883 131.219 69.883C116.345 69.883 101.466 72.944 87.9443 79.0532" fill="#079AC0"/>
<path d="M127.512 61.0397C125.807 61.0397 124.095 60.8335 122.447 60.4502C117.249 59.2418 112.563 56.4473 108.186 53.3936C107.534 52.9391 106.817 52.4372 106.047 51.8914C117.307 46.8993 129.115 43.2633 141.339 42.0549C142.231 41.9673 143.124 41.8943 144.02 41.8341C144.568 47.9433 142.604 54.3063 137.748 57.9149C134.824 60.0888 131.183 61.0397 127.512 61.0397" fill="#04A1C1"/>
<path d="M10.6549 62.7797C8.44614 62.0788 6.24083 61.4236 4.05469 60.938C4.4975 59.4468 4.98376 57.9646 5.50853 56.4989C6.88881 57.8223 8.3912 59.0342 9.98613 60.1239C10.5666 60.52 11.1591 60.9015 11.763 61.2666C11.3808 61.7594 11.0101 62.265 10.6549 62.7797V62.7797ZM12.9331 59.841C12.28 59.4523 11.6404 59.0434 11.0165 58.6162C9.27537 57.4262 7.6589 56.0919 6.20506 54.6244C8.01045 49.9389 10.2349 45.4103 12.8659 41.0935C13.1769 41.2487 13.4912 41.4166 13.8114 41.5973C16.1749 42.9316 18.145 44.4666 19.9923 46.0218C18.1322 49.6596 16.5935 53.4379 15.3486 57.3167C14.503 58.118 13.6946 58.9613 12.9331 59.841V59.841ZM136.03 25.3723C136.008 25.3468 135.984 25.3213 135.962 25.2957C138.132 24.7682 140.326 24.363 142.526 24.1074C142.539 24.122 142.553 24.1348 142.566 24.1476C140.376 24.4834 138.198 24.8941 136.03 25.3723V25.3723ZM134.549 23.7679C133.586 22.7658 132.584 21.7966 131.56 20.8584C133.033 20.048 134.517 19.2595 136.013 18.5002C137.647 19.7669 139.24 21.0994 140.788 22.4957C138.689 22.8005 136.605 23.2331 134.549 23.7679" fill="#10B1D4"/>
<path d="M75.5105 52.5268C75.0563 51.3641 74.5765 50.216 74.0703 49.0861C80.4937 46.8994 86.8208 44.4262 93.0241 41.6773C93.2457 41.8763 93.4662 42.0716 93.6885 42.2669C90.7268 43.8658 87.7963 45.5104 84.8994 47.1732C81.8177 48.9419 78.6855 50.7526 75.5105 52.5268Z" fill="#12B1D3"/>
<path d="M93.6859 42.2679C93.4636 42.0726 93.2431 41.8773 93.0215 41.6784C98.2712 39.353 103.434 36.8286 108.493 34.1125C108.782 34.2367 109.072 34.3572 109.364 34.474C104.045 36.8596 98.8188 39.4972 93.6859 42.2679ZM133.191 26.0375C134.108 25.7692 135.031 25.521 135.958 25.2964C135.98 25.322 136.004 25.3475 136.026 25.3731C135.079 25.5812 134.133 25.8038 133.191 26.0375ZM129.564 25.2818C129.477 24.7872 129.355 24.298 129.208 23.8179C129.066 23.3507 128.902 22.8944 128.717 22.449C129.661 21.9105 130.605 21.3812 131.556 20.8592C132.58 21.7974 133.582 22.7666 134.546 23.7687C132.865 24.2067 131.2 24.716 129.564 25.2818Z" fill="#13B2D2"/>
<path d="M4.30074 81.9198C3.02304 81.2006 1.82876 80.3939 0.736328 79.4976C1.14556 73.1949 2.26154 66.9707 4.05397 60.9382C6.24011 61.4237 8.44542 62.0789 10.6542 62.7798C9.73809 64.1068 8.91799 65.5032 8.20503 66.9652C5.92561 71.6361 4.69646 76.7287 4.30074 81.9198V81.9198ZM156.708 41.9515C154.353 41.7471 151.986 41.6467 149.624 41.6467C149.262 41.6467 148.901 41.6503 148.538 41.654C147.012 38.9215 145.274 36.3059 143.416 33.8673C141.423 31.2535 139.083 28.5485 136.476 25.8835C136.328 25.712 136.181 25.5422 136.029 25.3725C138.197 24.8942 140.375 24.4836 142.565 24.1477C147.944 29.295 152.725 35.2491 156.708 41.9515Z" fill="#09AFD2"/>
<path d="M79.5248 66.2539C78.806 62.576 77.7445 58.699 76.3912 54.8897C83.2024 51.7155 89.8983 48.2895 96.4571 44.6243C99.9138 47.4735 103.315 49.9578 106.048 51.8926C100.144 54.5119 94.3902 57.5017 88.8073 60.7124C85.6857 62.5066 82.6028 64.3739 79.5248 66.2539V66.2539ZM75.758 53.1703C75.6766 52.9567 75.5932 52.7413 75.5098 52.5278C78.6848 50.7536 81.817 48.9429 84.8987 47.1742C87.7956 45.5114 90.7261 43.8668 93.6878 42.2679C94.1114 42.6402 94.5349 43.0071 94.9598 43.3703C88.6776 46.8621 82.2719 50.1312 75.758 53.1703V53.1703ZM144.021 41.8352C143.869 40.145 143.526 38.4767 142.999 36.8887C141.637 32.7965 139.299 29.166 136.475 25.8841C139.082 28.549 141.422 31.2541 143.415 33.8679C145.273 36.3065 147.011 38.9221 148.537 41.6545C147.031 41.6746 145.521 41.7348 144.021 41.8352" fill="#0AAFD2"/>
<path d="M106.045 51.8922C103.313 49.9573 99.9116 47.4731 96.4549 44.6239C97.4546 44.0653 98.4514 43.5013 99.4445 42.9318C103.736 40.4677 107.969 37.905 112.249 35.481C114.252 36.076 116.327 36.463 118.388 36.463C119.567 36.463 120.742 36.3352 121.896 36.0468C125.629 35.1178 129.042 32.1864 129.635 28.3861C129.699 27.9791 129.73 27.5684 129.734 27.1559C130.873 26.7525 132.026 26.3783 133.191 26.037C134.133 25.8033 135.078 25.5807 136.026 25.3726C136.177 25.5423 136.325 25.7121 136.473 25.8837C139.296 29.1655 141.635 32.796 142.996 36.8883C143.524 38.4763 143.867 40.1446 144.019 41.8348C143.122 41.895 142.23 41.968 141.337 42.0557C129.113 43.264 117.305 46.9 106.045 51.8922ZM94.9576 43.3699C94.5327 43.0067 94.1092 42.6398 93.6855 42.2674C98.8184 39.4966 104.045 36.8591 109.364 34.4735C109.555 34.5501 109.745 34.6231 109.939 34.6961C106.111 36.8938 102.338 39.1681 98.5361 41.3493C97.3476 42.0301 96.1548 42.7037 94.9576 43.3699Z" fill="#0BAFD0"/>
<path d="M13.8398 43.881C15.4172 50.7319 19.1012 56.2914 23.77 60.2644C28.4424 64.2392 34.1076 66.6494 39.7396 67.218C40.8505 67.3299 41.9593 67.3831 43.0645 67.3831C53.1218 67.3794 62.9023 62.9809 72.0495 58.0028C80.2424 53.5401 88.2396 48.5253 95.9956 42.9877C103.479 37.6409 110.735 31.8282 118.653 27.9671C123.882 25.4157 129.512 23.7557 135.048 23.7576C137.886 23.7576 140.698 24.1923 143.427 25.1608L143.832 23.398C140.957 22.3764 138.005 21.9233 135.048 21.9233C129.274 21.9233 123.477 23.6457 118.115 26.2595C110.016 30.2122 102.702 36.0855 95.2621 41.3974C87.5528 46.9001 79.6023 51.8874 71.4589 56.3208C62.3732 61.2732 52.7695 65.5525 43.0645 65.5488C41.9973 65.5488 40.9284 65.4975 39.8582 65.3893C34.4819 64.85 29.0421 62.5315 24.6019 58.7493C20.1579 54.9671 16.7215 49.7432 15.2572 43.3766L13.8398 43.881" fill="#04A2CB"/>
<path d="M23.2324 136.508C30.2835 141.995 39.1882 144.475 47.9549 144.711C48.4483 144.724 48.9414 144.731 49.4345 144.731C57.6941 144.73 65.8553 142.913 73.7198 140.476C82.7285 137.682 91.5498 134.071 100.764 133.429C101.787 133.358 102.807 133.323 103.827 133.323C116.409 133.32 128.702 138.626 139.817 145.153L140.451 144.007C129.245 137.432 116.764 132.007 103.827 132.003C102.779 132.003 101.729 132.039 100.677 132.113C91.1939 132.782 82.289 136.449 73.3513 139.214C65.5517 141.631 57.5105 143.412 49.4345 143.412C48.9524 143.412 48.4704 143.405 47.9884 143.392C39.4286 143.164 30.7826 140.735 24.0045 135.456L23.2324 136.508" fill="#04A2CB"/>
<path d="M118.39 36.4635C116.33 36.4635 114.254 36.0765 112.252 35.4815C117.217 32.6705 122.245 30.0476 127.511 27.9851C128.247 27.6967 128.988 27.421 129.736 27.1564C129.733 27.5689 129.702 27.9796 129.638 28.3866C129.045 32.1869 125.631 35.1183 121.899 36.0473C120.745 36.3357 119.57 36.4635 118.39 36.4635" fill="#11B1D1"/>
<path d="M108.495 34.1119C104.89 32.5604 101.542 30.3774 99.0112 27.3968C95.7407 23.5472 92.5643 15.6437 96.1513 10.9856C97.9054 8.70763 100.672 7.92275 103.643 7.92275C107.418 7.92275 111.521 9.18953 114.301 10.2774C120.317 12.6357 126.282 16.5655 128.719 22.4484C123.362 25.4984 118.096 28.7548 112.731 31.7811C111.327 32.5733 109.915 33.3508 108.495 34.1119Z" fill="#09AFD2"/>
<path d="M109.367 34.4728C109.075 34.356 108.784 34.2355 108.496 34.1113C109.916 33.3502 111.329 32.5727 112.733 31.7805C118.097 28.7542 123.363 25.4978 128.72 22.4478C128.905 22.8931 129.069 23.3495 129.211 23.8167C129.357 24.2968 129.48 24.786 129.567 25.2806C128.651 25.5982 127.744 25.9322 126.846 26.2845C122.257 28.0843 117.873 30.2819 113.583 32.6457C112.172 33.2352 110.765 33.8449 109.367 34.4728Z" fill="#15B3D2"/>
<path d="M109.94 34.6965C109.747 34.6235 109.557 34.5505 109.365 34.4739C110.763 33.846 112.171 33.2363 113.582 32.6467C112.361 33.3184 111.147 34.0048 109.94 34.6965" fill="#11B1D1"/>
<path d="M112.252 35.4816C111.688 35.3136 111.13 35.1293 110.578 34.9322C110.367 34.8555 110.153 34.777 109.941 34.6967C111.148 34.0049 112.362 33.3186 113.583 32.6469C117.872 30.2832 122.257 28.0855 126.845 26.2858C127.743 25.9335 128.651 25.5995 129.567 25.2819C129.68 25.9025 129.74 26.5304 129.737 27.1565C128.988 27.4211 128.247 27.6968 127.512 27.9852C122.246 30.0477 117.217 32.6706 112.252 35.4816" fill="#00ACD1"/>
<path d="M90.9993 165.222C81.5179 165.222 71.9793 163.381 62.8907 160.555C56.8501 158.679 50.898 156.344 45.3672 153.294C48.1621 153.468 50.965 153.546 53.7735 153.546C56.972 153.546 60.1783 153.446 63.3848 153.272C66.5191 154.986 69.786 156.457 73.1393 157.658C74.0192 158.83 75.1235 159.803 76.4606 160.44C77.6691 161.015 78.7662 161.272 79.7539 161.272C80.9139 161.272 81.9214 160.918 82.7777 160.314C86.6243 161.063 90.5236 161.453 94.4117 161.453C99.6645 161.453 104.895 160.741 109.949 159.23C109.933 159.276 109.914 159.319 109.896 159.363C109.422 160.51 108.916 161.703 107.969 162.503C107.058 163.271 105.853 163.578 104.689 163.826C100.177 164.79 95.5954 165.222 90.9993 165.222" fill="#05A0CD"/>
<path d="M79.7533 161.272C78.7657 161.272 77.6685 161.014 76.46 160.439C75.1229 159.802 74.0186 158.829 73.1387 157.658C76.2873 158.786 79.5151 159.678 82.7771 160.313C81.9209 160.918 80.9133 161.272 79.7533 161.272" fill="#069DC4"/>
<path d="M53.7715 153.546C50.9629 153.546 48.16 153.467 45.3651 153.294C42.205 151.551 39.1842 149.576 36.3607 147.318C36.0869 147.099 35.8145 146.878 35.5449 146.653C37.5108 146.863 39.4815 146.991 41.4479 147.042C42.1515 147.061 42.8546 147.07 43.5577 147.07C46.8126 147.07 50.0574 146.876 53.2852 146.528C56.4344 149.067 59.8234 151.326 63.3827 153.272C60.1762 153.445 56.9699 153.546 53.7715 153.546" fill="#06AED0"/>
<path d="M43.0225 136.286C41.722 136.192 40.4244 136.069 39.1296 135.921C33.5205 135.277 27.7944 132.937 22.1595 130.838C19.0114 125.57 16.5617 119.85 14.8105 113.925C17.1385 115.697 19.8237 116.995 22.6136 117.895C25.7331 118.902 29.0049 119.406 32.2813 119.423C31.6986 120.985 31.616 122.712 32.2092 124.265C33.0798 126.543 35.1539 128.054 37.4919 128.901C37.5032 128.912 37.5147 128.923 37.526 128.934C37.5881 128.956 37.6509 128.978 37.7128 129C39.3449 131.526 41.1138 133.961 43.0225 136.286V136.286ZM35.9711 126.85C35.9032 126.709 35.8406 126.563 35.7834 126.414C35.6509 126.065 35.5518 125.709 35.4841 125.346C35.4854 125.348 35.4883 125.353 35.4898 125.355C35.5582 125.727 35.6608 126.094 35.7991 126.452C35.8519 126.587 35.9098 126.72 35.9711 126.85" fill="#05A0CD"/>
<path d="M37.4923 128.902C35.1543 128.055 33.0802 126.544 32.2095 124.266C31.6163 122.713 31.699 120.986 32.2816 119.423C32.313 119.423 32.3422 119.423 32.3736 119.423C33.3368 121.44 34.3736 123.415 35.4845 125.346C35.5522 125.71 35.6513 126.066 35.7838 126.414C35.8409 126.564 35.9035 126.71 35.9714 126.85C36.3422 127.633 36.8704 128.309 37.4923 128.902" fill="#0C8EB8"/>
<path d="M37.7093 129C37.6475 128.978 37.5847 128.957 37.5226 128.935C37.5113 128.924 37.4998 128.913 37.4885 128.902C36.8666 128.309 36.3384 127.633 35.9676 126.85C35.9063 126.721 35.8485 126.587 35.7957 126.452C35.6573 126.095 35.5548 125.728 35.4863 125.355C36.1964 126.589 36.938 127.805 37.7093 129" fill="#069DC4"/>
<path d="M43.5634 145.245C43.5619 145.245 43.5597 145.245 43.5577 145.245C42.8703 145.245 42.1829 145.236 41.4957 145.218C38.6957 145.145 35.8879 144.913 33.1085 144.509C28.8213 140.512 25.1685 135.881 22.1562 130.838C27.7911 132.937 33.5172 135.277 39.1263 135.921C40.4211 136.069 41.7187 136.192 43.0193 136.287C44.8296 138.491 46.764 140.598 48.8282 142.593C49.641 143.38 50.4737 144.144 51.328 144.887C48.7448 145.119 46.1551 145.245 43.5634 145.245Z" fill="#06AED0"/>
<path d="M43.5586 147.07C42.8555 147.07 42.1524 147.061 41.4487 147.043C39.4824 146.991 37.5116 146.864 35.5458 146.654C34.7116 145.96 33.9001 145.246 33.1094 144.509C35.8887 144.912 38.6966 145.144 41.4966 145.217C42.1838 145.235 42.8712 145.245 43.5586 145.245C43.5606 145.245 43.5628 145.245 43.5642 145.245C46.156 145.245 48.7457 145.119 51.3288 144.887C51.9699 145.445 52.6229 145.993 53.2861 146.528C50.0582 146.876 46.8134 147.07 43.5586 147.07" fill="#069DC4"/>
<path d="M78.0636 98.394C77.8377 97.4886 77.2315 96.6764 76.428 96.0028C76.4265 96.0028 76.4251 96.001 76.4231 96.001C76.1741 95.7929 75.9069 95.5976 75.626 95.4169C74.2769 92.9619 73.2651 90.4138 72.5137 87.7909C73.3905 87.1885 74.274 86.5972 75.1638 86.0185C76.8024 84.958 78.4714 83.9468 80.1684 82.9904C79.5731 88.1377 78.5236 93.2722 78.0636 98.394" fill="#05A0CD"/>
<path d="M76.4182 96C76.2214 95.9197 76.0232 95.8467 75.8235 95.781C75.7551 95.6587 75.6881 95.5382 75.6211 95.4159C75.902 95.5966 76.1692 95.7919 76.4182 96" fill="#0C8EB8"/>
<path d="M77.9979 99.1482C77.3934 98.3195 76.8222 97.4617 76.2867 96.5709C76.1292 96.3081 75.9758 96.0434 75.8262 95.7806C76.0259 95.8463 76.2241 95.9193 76.4208 95.9996C76.4229 95.9996 76.4243 96.0014 76.4258 96.0014C77.2293 96.6749 77.8355 97.4872 78.0614 98.3925C78.0386 98.6444 78.018 98.8963 77.9979 99.1482" fill="#00ACD8"/>
<path d="M72.5097 87.79C71.0416 82.6664 70.5696 77.2599 70.5254 71.7202C72.7606 70.3877 74.9851 69.0297 77.2068 67.6699C78.2051 68.9676 79.2468 70.2307 80.3233 71.461C80.4953 73.0453 80.5886 74.5603 80.5971 75.9749C80.6108 78.3168 80.4347 80.6549 80.1644 82.9895C78.4674 83.9459 76.7984 84.9571 75.1598 86.0176C74.27 86.5962 73.3865 87.1876 72.5097 87.79Z" fill="#0B90BA"/>
<path d="M80.3255 71.4604C79.2489 70.2302 78.2072 68.9671 77.209 67.6693C77.9813 67.1966 78.7526 66.7257 79.5256 66.2529C79.8755 68.0472 80.1444 69.794 80.3255 71.4604Z" fill="#0995B9"/>
<path d="M70.5251 71.7209C70.4885 67.1832 70.739 62.558 70.9642 57.9181C72.7253 61.3423 74.8451 64.6005 77.2065 67.6706C74.9848 69.0304 72.7603 70.3884 70.5251 71.7209" fill="#00ACCE"/>
<path d="M77.2071 67.6699C74.8458 64.5997 72.7259 61.3416 70.9648 57.9174C70.9742 57.7257 70.9833 57.5322 70.9926 57.3406C72.7994 56.5411 74.599 55.7234 76.3901 54.8892C77.7434 58.6986 78.805 62.5755 79.5238 66.2534C78.7508 66.7262 77.9794 67.1971 77.2071 67.6699" fill="#00ACCD"/>
<path d="M71.2697 50.0209C71.3154 47.8233 71.3154 45.6348 71.2363 43.4609C72.2516 45.2497 73.1985 47.1388 74.0712 49.0864C73.1392 49.404 72.2059 49.7161 71.2697 50.0209Z" fill="#03A4CE"/>
<path d="M71.1035 54.9438C71.1747 53.301 71.234 51.6583 71.2682 50.021C72.2043 49.7162 73.1376 49.404 74.0696 49.0864C74.5758 50.2163 75.0556 51.3644 75.5097 52.5271C74.0495 53.343 72.5822 54.1498 71.1035 54.9438Z" fill="#06AECF"/>
<path d="M71.0898 55.3027C71.0948 55.184 71.0997 55.0636 71.1048 54.9449C72.5835 54.1509 74.0508 53.3442 75.511 52.5282C75.5945 52.7418 75.6779 52.9572 75.7593 53.1708C74.2093 53.8954 72.6519 54.6054 71.0898 55.3027Z" fill="#00ACCD"/>
<path d="M70.9922 57.3417C71.025 56.6627 71.0564 55.9837 71.0871 55.3028C72.6492 54.6056 74.2065 53.8956 75.7566 53.1709C75.9739 53.7422 76.1849 54.3154 76.3897 54.8903C74.5986 55.7245 72.799 56.5422 70.9922 57.3417Z" fill="#069DC4"/>
<path d="M25.1854 50.3875C23.4065 49.0148 21.753 47.5089 19.9883 46.0232C20.1495 45.7092 20.3128 45.3953 20.4782 45.0832C22.9617 40.3995 27.1304 36.57 31.9789 33.8011C31.8462 34.0128 31.7179 34.2209 31.5945 34.4272C28.6856 39.2916 26.6093 44.7199 25.1854 50.3875" fill="#05A0CD"/>
<path d="M15.3477 57.3166C16.5925 53.4379 18.1312 49.6595 19.9914 46.0217C21.7561 47.5075 23.4096 49.0134 25.1885 50.386C25.1679 50.4681 25.1478 50.5484 25.1272 50.6305C21.5394 52.3445 18.2168 54.5987 15.3477 57.3166Z" fill="#06AED0"/>
<path d="M109.946 159.231C109.97 159.176 109.992 159.121 110.015 159.066C112.039 158.53 114.018 157.818 115.947 156.975C115.157 157.356 114.356 157.699 113.558 158.004C112.366 158.46 111.162 158.869 109.946 159.231V159.231ZM88.4756 127.363C82.9963 122.466 79.2522 115.623 78.1919 108.344C77.8077 105.701 77.7621 103.057 77.9103 100.411C78.0516 100.051 78.1286 99.7008 78.1492 99.3595C81.6337 104.063 86.1805 107.812 91.1144 111.217C90.3423 111.633 89.6949 112.288 89.4981 113.129C89.1765 114.493 89.965 115.179 90.9883 115.389C90.9883 115.389 90.9875 115.389 90.9868 115.389C91.2314 115.44 91.4895 115.464 91.7483 115.464C92.2525 115.464 92.7615 115.373 93.1907 115.207C93.9066 114.927 94.5454 114.4 94.8663 113.708C97.0424 115.106 99.2563 116.47 101.458 117.844C97.5821 120.555 93.881 123.44 90.4728 125.841C89.7847 126.324 89.1181 126.834 88.4756 127.363V127.363ZM92.9026 114.63C93.2863 114.316 93.5935 113.916 93.7598 113.451C93.8054 113.323 93.8388 113.19 93.8602 113.055C93.8609 113.056 93.8602 113.056 93.8616 113.056C93.8396 113.195 93.8054 113.33 93.7583 113.462C93.5908 113.923 93.2849 114.319 92.9026 114.63Z" fill="#05A0CD"/>
<path d="M77.9141 100.41C77.9376 99.9881 77.9663 99.5683 77.9989 99.1485C78.0497 99.2179 78.1017 99.2891 78.153 99.3584C78.1324 99.6998 78.0553 100.05 77.9141 100.41" fill="#00ACD8"/>
<path d="M91.7518 115.464C91.4929 115.464 91.2348 115.44 90.9902 115.389C90.991 115.389 90.9917 115.389 90.9917 115.389C90.9946 115.389 90.9981 115.391 91.001 115.391C91.3597 115.355 91.709 115.271 92.0162 115.15C92.3357 115.024 92.6394 114.849 92.9061 114.63C93.2883 114.32 93.5942 113.924 93.7618 113.462C93.8088 113.33 93.843 113.195 93.8651 113.057C94.198 113.274 94.5346 113.493 94.8697 113.708C94.5488 114.4 93.91 114.928 93.1941 115.207C92.765 115.373 92.2559 115.464 91.7518 115.464" fill="#0C8EB8"/>
<path d="M91 115.391C90.9971 115.391 90.9936 115.389 90.9907 115.389C89.9674 115.179 89.1789 114.493 89.5005 113.129C89.6973 112.288 90.3447 111.633 91.1168 111.216C92.0203 111.839 92.9372 112.452 93.8626 113.054C93.8412 113.19 93.8078 113.323 93.7622 113.451C93.5959 113.916 93.2887 114.316 92.9051 114.63C92.6384 114.849 92.3346 115.024 92.0152 115.15C91.708 115.27 91.3587 115.354 91 115.391Z" fill="#00ACD8"/>
<path d="M65.6639 35.5646C64.7041 34.5023 63.711 33.5458 62.6872 32.7116C62.8005 32.7609 62.9153 32.8065 63.0321 32.8485C63.0378 32.854 63.0429 32.8595 63.0486 32.865C63.448 33.0073 63.8614 33.1114 64.2721 33.1734C64.6258 33.2264 64.9879 33.2556 65.3508 33.2556C65.5098 33.2556 65.669 33.2501 65.8272 33.2392C65.7495 34.0113 65.6952 34.787 65.6639 35.5646V35.5646ZM31.9824 33.7995C36.4728 26.6754 46.0236 17.5837 55.0002 17.5837C56.1353 17.5837 57.2619 17.7297 58.3671 18.0418C62.397 19.1826 65.3267 22.1542 67.3437 25.8613C67.2953 26.0128 67.2475 26.1662 67.2011 26.3177C66.6272 26.0694 66.0274 25.9015 65.4592 25.8303C65.2289 25.8011 64.9951 25.7865 64.7612 25.7865C63.6055 25.7865 62.4426 26.1424 61.5842 26.909C60.5509 27.8272 60.0518 29.375 60.5452 30.6673C60.6607 30.9703 60.8212 31.2423 61.0165 31.4887C58.1139 29.636 54.3215 28.7672 50.1946 28.7672C44.2753 28.7672 37.6636 30.556 31.9824 33.7995V33.7995ZM62.3926 32.0326C62.3913 32.029 62.3898 32.0271 62.3891 32.0253C62.3898 32.0271 62.3913 32.029 62.3926 32.0326ZM62.3884 32.0235C62.3278 31.914 62.2743 31.799 62.2279 31.6785C61.7353 30.3862 62.2343 28.8384 63.2667 27.9184C63.9298 27.3289 64.774 26.9802 65.6567 26.8543C64.7691 26.9839 63.9205 27.3344 63.2568 27.9312C62.2279 28.8566 61.736 30.4081 62.2358 31.6968C62.28 31.8099 62.3305 31.9195 62.3884 32.0235" fill="#05A0CD"/>
<path d="M71.2363 43.462C69.5528 40.4923 67.6826 37.7982 65.6641 35.5659C65.6955 34.7883 65.7497 34.0125 65.8274 33.2404C67.1086 33.151 68.3514 32.6946 69.1934 31.7473C69.3296 31.594 69.4488 31.4407 69.5528 31.2892C70.084 33.0907 70.4598 34.9361 70.6958 36.7358C70.9866 38.9536 71.1542 41.2005 71.2363 43.462ZM67.7097 26.5635C67.5443 26.4759 67.3738 26.3938 67.2013 26.3189C67.2477 26.1674 67.2955 26.0141 67.3439 25.8626C67.4695 26.0926 67.5914 26.3262 67.7097 26.5635Z" fill="#03A4CE"/>
<path d="M63.0302 32.8484C62.9134 32.8065 62.7986 32.7608 62.6852 32.7116C62.3101 32.4067 61.9316 32.1183 61.5486 31.8482C61.3747 31.7241 61.1963 31.6036 61.0145 31.4886C60.8192 31.2422 60.6588 30.9702 60.5432 30.6672C60.0499 29.3749 60.5489 27.8271 61.5822 26.909C62.4406 26.1423 63.6035 25.7864 64.7593 25.7864C64.9931 25.7864 65.2269 25.801 65.4573 25.8302C66.0255 25.9014 66.6253 26.0693 67.1992 26.3176C67.3716 26.3924 67.5421 26.4746 67.7075 26.5622C67.7796 26.7046 67.8488 26.8469 67.9179 26.9911C67.6505 26.9199 67.3846 26.8688 67.1258 26.8378C66.9018 26.8104 66.6758 26.7958 66.4499 26.7958C66.1839 26.7958 65.918 26.8159 65.6548 26.8542C64.7721 26.9801 63.9279 27.3288 63.2648 27.9184C62.2324 28.8383 61.7333 30.3862 62.226 31.6785C62.2723 31.7989 62.3258 31.9139 62.3864 32.0234C62.3864 32.0252 62.3864 32.0252 62.3872 32.0252C62.3879 32.0271 62.3893 32.0289 62.3906 32.0326C62.5582 32.3374 62.7778 32.6075 63.0302 32.8484" fill="#0C8EB8"/>
<path d="M65.349 33.2555C64.9862 33.2555 64.624 33.2263 64.2703 33.1734C63.8596 33.1113 63.4462 33.0073 63.0468 32.8649C63.0411 32.8594 63.036 32.8539 63.0304 32.8485C62.7779 32.6075 62.5583 32.3374 62.3908 32.0326C62.3895 32.0289 62.3881 32.0271 62.3873 32.0253C62.3866 32.0253 62.3866 32.0253 62.3866 32.0234C62.3287 31.9194 62.2782 31.8099 62.234 31.6967C61.7342 30.408 62.2261 28.8566 63.2551 27.9312C63.9187 27.3343 64.7673 26.9838 65.6549 26.8542C65.9181 26.8159 66.1841 26.7958 66.45 26.7958C66.676 26.7958 66.902 26.8104 67.1259 26.8378C67.3848 26.8688 67.6507 26.9199 67.9181 26.9911C68.5727 28.3601 69.1137 29.8093 69.5508 31.2878C69.4468 31.4393 69.3276 31.5927 69.1914 31.746C68.3494 32.6933 67.1066 33.1497 65.8254 33.2391C65.6672 33.25 65.508 33.2555 65.349 33.2555Z" fill="#00ACD8"/>
<path d="M94.4097 161.453C90.5217 161.453 86.6223 161.062 82.7757 160.314C83.8716 159.542 84.72 158.359 85.3262 156.983C85.3268 156.981 85.3268 156.977 85.3268 156.974C85.6442 156.256 85.8959 155.484 86.0811 154.692C90.3806 158.432 96.1815 160.168 101.945 160.168C103.177 160.168 104.407 160.089 105.621 159.932C107.109 159.743 108.574 159.449 110.016 159.065C109.993 159.12 109.971 159.175 109.947 159.23C104.893 160.741 99.6625 161.453 94.4097 161.453V161.453ZM73.1373 157.658C69.7841 156.457 66.5172 154.986 63.3828 153.272C65.894 153.139 68.4058 152.96 70.9163 152.752C71.3334 154.521 72.0701 156.236 73.1373 157.658Z" fill="#069BC7"/>
<path d="M85.3301 156.974C85.4365 155.968 85.4429 154.962 85.3458 154.015C85.5869 154.247 85.8328 154.473 86.0845 154.692C85.8992 155.484 85.6475 156.256 85.3301 156.974Z" fill="#0D8AB1"/>
<path d="M82.7774 160.315C79.5154 159.68 76.2876 158.787 73.139 157.659C72.0717 156.237 71.335 154.521 70.918 152.753C75.0006 152.413 79.0783 151.995 83.1454 151.555C83.7749 152.384 84.5043 153.204 85.3414 154.012C85.3421 154.014 85.3436 154.016 85.3441 154.016C85.4412 154.963 85.4348 155.969 85.3284 156.975C85.3284 156.978 85.3284 156.982 85.3279 156.984C84.7217 158.36 83.8733 159.543 82.7774 160.315Z" fill="#0898BD"/>
<path d="M63.3846 153.272C59.8253 151.326 56.4363 149.066 53.2871 146.527C59.9286 145.808 66.4996 144.425 72.948 142.682C71.4244 144.164 70.7157 146.317 70.5695 148.524C70.5616 148.539 70.5545 148.553 70.5474 148.568C70.4932 149.466 70.5253 150.371 70.6416 151.248C70.7085 151.75 70.8013 152.252 70.9181 152.752C68.4076 152.96 65.8958 153.139 63.3846 153.272V153.272ZM72.2701 146.363C72.3391 146.305 72.4112 146.248 72.4838 146.193C73.6553 145.308 75.1049 144.892 76.5708 144.892C77.8763 144.892 79.1961 145.222 80.347 145.847C80.3475 145.848 80.3482 145.852 80.349 145.854C79.1969 145.23 77.875 144.899 76.5666 144.899C75.0885 144.899 73.6283 145.321 72.4519 146.219C72.3898 146.266 72.3292 146.314 72.2701 146.363ZM80.0281 141.23C79.6625 141.115 79.2881 141.026 78.9096 140.966C79.3087 140.843 79.7074 140.721 80.1058 140.597C80.0752 140.809 80.0496 141.019 80.0281 141.23" fill="#00ABCC"/>
<path d="M70.5684 148.524C70.7146 146.318 71.4233 144.164 72.9469 142.682C74.703 142.207 76.45 141.705 78.1867 141.183C78.4279 141.112 78.6681 141.039 78.9085 140.966C79.287 141.026 79.6614 141.116 80.027 141.231C79.8744 142.755 79.9679 144.301 80.3459 145.847C79.195 145.222 77.8752 144.892 76.5697 144.892C75.1038 144.892 73.6542 145.308 72.4827 146.194C72.4101 146.248 72.338 146.305 72.269 146.363C71.5453 146.962 70.9955 147.705 70.5684 148.524" fill="#00ABCB"/>
<path d="M70.9178 152.753C70.801 152.253 70.7083 151.751 70.6413 151.249C70.525 150.373 70.4929 149.467 70.5471 148.569C70.5542 148.555 70.5613 148.54 70.5692 148.526C70.9963 147.706 71.5461 146.963 72.2698 146.364C72.3289 146.315 72.3895 146.268 72.4516 146.22C73.628 145.322 75.0882 144.901 76.5663 144.901C77.8747 144.901 79.1966 145.231 80.3487 145.855C80.818 147.772 81.7255 149.685 83.1452 151.556C79.0781 151.995 75.0004 152.413 70.9178 152.753" fill="#00ABCB"/>
<path d="M49.7834 136.533C47.5275 136.533 45.2714 136.449 43.0212 136.287C41.1125 133.962 39.3436 131.527 37.7115 129C38.5016 129.271 39.3159 129.468 40.1236 129.588C40.8738 129.701 41.6424 129.762 42.4116 129.762C45.479 129.762 48.5635 128.818 50.5721 126.558C53.8454 122.877 52.5399 119.438 49.7193 117.078C49.7156 117.076 49.7114 117.074 49.7071 117.072C49.1011 116.565 48.4259 116.107 47.7108 115.707C48.4201 115.334 49.116 114.935 49.7949 114.509C57.1365 109.902 62.4592 102.218 64.2752 93.7523C67.0009 91.7299 69.7275 89.7057 72.5118 87.7909C73.2633 90.4139 74.275 92.962 75.6241 95.417C74.5231 94.7124 73.2169 94.2342 72.0192 94.0827C71.7125 94.0444 71.4017 94.0243 71.0908 94.0243C69.5627 94.0243 68.0269 94.497 66.8927 95.5101C65.5257 96.7257 64.8655 98.7737 65.5186 100.48C66.0605 101.899 67.3539 102.84 68.8105 103.37C68.8171 103.375 68.8235 103.383 68.8299 103.388C69.3574 103.578 69.9057 103.715 70.4491 103.797C70.9162 103.866 71.3946 103.903 71.8737 103.903C73.7844 103.903 75.7061 103.315 76.9573 101.908C77.4094 101.4 77.721 100.898 77.9134 100.411C77.7652 103.058 77.8108 105.701 78.195 108.344C79.2553 115.623 82.9994 122.466 88.4787 127.363C87.8906 127.849 87.3236 128.351 86.7804 128.871C82.1515 130.671 77.4771 132.326 72.675 133.596C65.2141 135.57 57.4996 136.533 49.7834 136.533V136.533ZM64.3265 122.76C65.2656 123.572 66.5603 124.141 67.7276 124.308C67.9957 124.346 68.268 124.364 68.5411 124.364C69.7003 124.364 70.864 124.014 71.7375 123.262C72.8163 122.333 73.3567 120.746 72.8698 119.407C72.4655 118.297 71.4709 117.547 70.3436 117.118C70.3385 117.112 70.3328 117.107 70.3279 117.103C69.9201 116.95 69.495 116.835 69.073 116.764C68.6729 116.698 68.2622 116.661 67.8502 116.661C66.4006 116.661 64.9475 117.1 63.9813 118.153C62.3658 119.912 62.9718 121.59 64.3201 122.756C64.3223 122.758 64.3243 122.758 64.3265 122.76ZM35.4885 125.355C35.487 125.353 35.4841 125.348 35.4828 125.346C35.0749 123.145 35.8513 120.759 37.3608 119.06C37.3636 119.06 37.3672 119.058 37.37 119.058C35.857 120.761 35.08 123.15 35.4885 125.355V125.355ZM67.9064 123.191C68.6893 123.034 69.4302 122.701 70.0313 122.179C71.1065 121.245 71.639 119.657 71.1463 118.321C71.1142 118.233 71.0779 118.149 71.0386 118.067C71.0815 118.155 71.12 118.244 71.1534 118.337C71.6404 119.677 71.1 121.263 70.0205 122.192C69.4209 122.709 68.6851 123.035 67.9064 123.191ZM71.0352 118.058C71.0344 118.058 71.0344 118.058 71.0344 118.058C71.0344 118.058 71.0344 118.058 71.0352 118.058ZM67.9486 102.262C67.8716 102.119 67.8031 101.972 67.7447 101.818C67.0922 100.11 67.7526 98.0618 69.1179 96.8462C69.9878 96.0723 71.0921 95.6141 72.2486 95.4407C71.0857 95.6159 69.9756 96.0814 69.1044 96.8644C67.7447 98.0855 67.0936 100.137 67.7546 101.84C67.811 101.986 67.8758 102.127 67.9486 102.262" fill="#069BC7"/>
<path d="M68.8094 103.369C67.3528 102.84 66.0594 101.898 65.5175 100.48C64.8644 98.7729 65.5246 96.725 66.8916 95.5093C68.0258 94.4963 69.5616 94.0236 71.0897 94.0236C71.4006 94.0236 71.7114 94.0436 72.0181 94.0819C73.2158 94.2334 74.522 94.7117 75.623 95.4162C75.69 95.5385 75.757 95.659 75.8254 95.7813C75.2871 95.6024 74.7445 95.4765 74.2239 95.4144C73.9273 95.3779 73.628 95.3596 73.3277 95.3596C72.9663 95.3596 72.6047 95.387 72.2475 95.4399C71.091 95.6133 69.9867 96.0715 69.1168 96.8455C67.7515 98.0611 67.0911 100.109 67.7436 101.818C67.802 101.971 67.8705 102.119 67.9475 102.261C68.1713 102.677 68.4679 103.042 68.8094 103.369" fill="#0D8AB1"/>
<path d="M71.8716 103.901C71.3925 103.901 70.9141 103.865 70.447 103.796C69.9036 103.713 69.3553 103.577 68.8278 103.387C68.8214 103.381 68.815 103.374 68.8084 103.368C68.4669 103.042 68.1703 102.677 67.9465 102.26C67.8737 102.125 67.8089 101.985 67.7525 101.839C67.0916 100.136 67.7426 98.0842 69.1023 96.8631C69.9735 96.0801 71.0836 95.6146 72.2465 95.4394C72.6037 95.3865 72.9653 95.3591 73.3267 95.3591C73.627 95.3591 73.9263 95.3773 74.223 95.4139C74.7435 95.4759 75.2862 95.6019 75.8245 95.7807C75.9741 96.0436 76.1275 96.3083 76.285 96.5711C76.8205 97.4618 77.3916 98.3197 77.9962 99.1484C77.9635 99.5682 77.9348 99.988 77.9113 100.41C77.7189 100.897 77.4073 101.399 76.9552 101.906C75.704 103.314 73.7823 103.901 71.8716 103.901" fill="#00ACD4"/>
<path d="M35.4839 125.345C34.373 123.414 33.3362 121.439 32.373 119.422C32.3993 119.422 32.4265 119.422 32.4528 119.422C34.0948 119.422 35.7369 119.3 37.3619 119.059C35.8524 120.758 35.0759 123.144 35.4839 125.345V125.345ZM49.7081 117.071C48.7177 116.667 47.6969 116.372 46.7099 116.207C47.0465 116.045 47.3809 115.879 47.7118 115.706C48.427 116.105 49.1021 116.563 49.7081 117.071Z" fill="#0D8AB1"/>
<path d="M42.41 129.76C41.6408 129.76 40.8722 129.7 40.122 129.587C39.3143 129.467 38.5001 129.269 37.7099 128.999C36.9385 127.804 36.1969 126.588 35.4869 125.354C35.0784 123.149 35.8554 120.76 37.3684 119.057C40.6012 118.575 43.7635 117.619 46.7073 116.208C47.6942 116.372 48.7151 116.668 49.7055 117.071C49.7099 117.073 49.7141 117.075 49.7177 117.077C52.5383 119.437 53.8438 122.875 50.5705 126.557C48.562 128.817 45.4774 129.76 42.41 129.76" fill="#0898BD"/>
<path d="M68.5407 124.363C68.2677 124.363 67.9954 124.345 67.7272 124.306C66.56 124.14 65.2653 123.571 64.3262 122.759C64.888 122.998 65.4726 123.166 66.0266 123.242C66.2869 123.279 66.5506 123.295 66.8146 123.295C67.1811 123.297 67.5482 123.26 67.9061 123.189C68.6848 123.034 69.4205 122.707 70.0201 122.191C71.0996 121.262 71.6401 119.676 71.1531 118.336C71.1197 118.243 71.0812 118.153 71.0383 118.066C71.037 118.062 71.0355 118.06 71.0348 118.057C71.0341 118.057 71.0341 118.057 71.0341 118.057C70.8623 117.703 70.6234 117.392 70.3432 117.117C71.4705 117.545 72.4651 118.296 72.8694 119.405C73.3564 120.745 72.8159 122.331 71.7372 123.26C70.8636 124.013 69.7 124.363 68.5407 124.363Z" fill="#0D8AB1"/>
<path d="M66.8129 123.296C66.549 123.296 66.2853 123.28 66.025 123.243C65.471 123.167 64.8864 122.999 64.3245 122.76C64.3223 122.758 64.3203 122.758 64.3181 122.756C62.9698 121.59 62.3638 119.912 63.9794 118.152C64.9455 117.099 66.3986 116.661 67.8482 116.661C68.2602 116.661 68.6709 116.698 69.071 116.763C69.493 116.835 69.9181 116.95 70.3259 117.103C70.3308 117.107 70.3365 117.112 70.3416 117.118C70.6218 117.393 70.8607 117.703 71.0325 118.058C71.0325 118.058 71.0325 118.058 71.0332 118.058C71.0339 118.061 71.0354 118.063 71.0366 118.067C71.0759 118.149 71.1122 118.233 71.1443 118.32C71.637 119.657 71.1046 121.245 70.0293 122.179C69.4282 122.701 68.6873 123.033 67.9045 123.19C67.5465 123.261 67.1795 123.298 66.8129 123.296Z" fill="#00ACD4"/>
<path d="M51.3302 144.886C50.476 144.143 49.6433 143.378 48.8305 142.592C46.7662 140.597 44.8318 138.49 43.0215 136.285C45.2717 136.448 47.5277 136.532 49.7836 136.532C57.4998 136.532 65.2144 135.568 72.6753 133.595C77.4774 132.325 82.1518 130.669 86.7807 128.869C83.8124 131.709 81.5622 135.031 80.5497 138.549C79.5878 138.85 78.6253 139.146 77.6627 139.436C69.046 142.026 60.2235 144.089 51.3302 144.886Z" fill="#00ABCC"/>
<path d="M64.2754 93.7507C64.4351 93.0078 64.5669 92.2595 64.6718 91.5057C65.3655 86.5007 65.337 80.7328 64.8721 75.0032C66.7709 73.9354 68.6539 72.8366 70.5277 71.7195C70.5719 77.2593 71.0439 82.6658 72.512 87.7894C69.7277 89.7041 67.0011 91.7283 64.2754 93.7507Z" fill="#0C8CB3"/>
<path d="M64.8718 75.0042C64.4697 70.0522 63.741 65.1294 62.8711 60.756C65.2047 59.8397 67.5121 58.8668 69.7865 57.8739C70.1018 57.7352 70.4175 57.5964 70.7328 57.4577C70.8098 57.611 70.8874 57.7644 70.9666 57.9177C70.7414 62.5576 70.4909 67.1828 70.5274 71.7205C68.6536 72.8375 66.7706 73.9364 64.8718 75.0042" fill="#00ABCB"/>
<path d="M70.9643 57.9185C70.8851 57.7651 70.8075 57.6118 70.7305 57.4585C70.8181 57.4202 70.9044 57.3818 70.992 57.3416C70.9827 57.5333 70.9736 57.7268 70.9643 57.9185Z" fill="#00ABCA"/>
<path d="M59.9113 53.389C57.8549 50.7368 54.8312 49.1434 50.7071 48.0172C52.725 46.1006 52.7184 43.4065 51.674 40.8475C51.6711 40.8456 51.6689 40.842 51.6661 40.8401C50.6971 38.4673 48.8468 36.213 46.8554 34.8204C45.0309 33.5427 42.812 32.7505 40.6018 32.7505C39.8987 32.7505 39.1963 32.8308 38.5084 33.0006C35.6571 33.7033 33.1844 36.1163 32.8314 39.0295C32.5377 41.4498 33.667 43.7533 35.3377 45.5932C35.3426 45.6096 35.3475 45.6242 35.3534 45.6388C35.8467 46.1773 36.3836 46.6774 36.9483 47.1264C32.9519 47.643 29.0233 48.802 25.3641 50.5196C25.3065 50.4758 25.2479 50.4302 25.1895 50.3864C26.6134 44.7189 28.6896 39.2905 31.5986 34.4261C31.722 34.2199 31.8503 34.0117 31.983 33.8C37.6642 30.5565 44.2759 28.7677 50.1951 28.7677C54.3221 28.7677 58.1145 29.6365 61.0171 31.4892C61.442 32.024 62.0332 32.4274 62.6878 32.7121C63.7116 33.5463 64.7047 34.5028 65.6644 35.5651C65.5155 39.2595 65.8847 42.9903 66.7282 46.577C67.0847 48.0938 67.5196 49.5851 68.0245 51.0526C66.5449 51.5107 65.0619 51.9525 63.5732 52.3814C62.3696 52.7264 61.1476 53.0659 59.9113 53.389V53.389ZM34.9491 43.1382C34.954 42.9593 34.9675 42.7786 34.9891 42.5979C35.3433 39.6829 37.8153 37.2699 40.6659 36.5672C41.3533 36.3992 42.0549 36.3189 42.7571 36.3189C43.6955 36.3189 44.6351 36.4613 45.5463 36.7223C44.6388 36.4631 43.7033 36.3226 42.7693 36.3226C42.052 36.3226 41.3354 36.4065 40.6345 36.5817C37.7868 37.2991 35.3254 39.7213 34.9854 42.6381C34.9662 42.806 34.954 42.9721 34.9491 43.1382" fill="#069BC7"/>
<path d="M68.0212 51.0529C67.5164 49.5853 67.0814 48.0941 66.7249 46.5773C65.8815 42.9906 65.5122 39.2597 65.6611 35.5653C67.6797 37.7977 69.5499 40.4918 71.2334 43.4615C71.3124 45.6354 71.3124 47.8239 71.2668 50.0216C70.188 50.3739 69.1049 50.717 68.0212 51.0529" fill="#059FC7"/>
<path d="M62.6863 32.7114C62.0318 32.4267 61.4406 32.0233 61.0156 31.4885C61.1974 31.6035 61.3757 31.724 61.5497 31.8481C61.9326 32.1182 62.3112 32.4066 62.6863 32.7114Z" fill="#0D8AB1"/>
<path d="M35.334 45.5937C33.6633 43.7538 32.534 41.4503 32.8277 39.03C33.1807 36.1168 35.6535 33.7038 38.5047 33.001C39.1927 32.8313 39.8951 32.751 40.5982 32.751C42.8084 32.751 45.0272 33.5432 46.8518 34.8209C48.8431 36.2135 50.6934 38.4678 51.6625 40.8406C50.8517 39.8751 49.9348 39.0208 48.9866 38.3637C47.9413 37.6391 46.7683 37.0732 45.5427 36.7228C44.6315 36.4618 43.6918 36.3194 42.7535 36.3194C42.0513 36.3194 41.3496 36.3997 40.6622 36.5677C37.8117 37.2704 35.3397 39.6834 34.9854 42.5984C34.9639 42.7791 34.9504 42.9598 34.9454 43.1387C34.919 43.982 35.0695 44.8015 35.334 45.5937Z" fill="#0D8AB1"/>
<path d="M50.7064 48.0167C50.5965 47.9875 50.4853 47.9564 50.3742 47.9272C47.53 47.1789 44.6052 46.8193 41.6719 46.8193C40.094 46.8193 38.5162 46.9233 36.9475 47.1259C36.3828 46.6769 35.846 46.1768 35.3526 45.6383C35.3468 45.6237 35.3418 45.6091 35.3369 45.5927C35.0724 44.8005 34.9218 43.981 34.9483 43.1377C34.9532 42.9716 34.9655 42.8055 34.9846 42.6376C35.3247 39.7207 37.7861 37.2986 40.6337 36.5812C41.3346 36.406 42.0512 36.322 42.7686 36.322C43.7026 36.322 44.638 36.4626 45.5455 36.7218C46.7712 37.0722 47.9441 37.6381 48.9895 38.3627C49.9377 39.0198 50.8546 39.8741 51.6654 40.8396C51.6681 40.8415 51.6703 40.8451 51.6732 40.8469C52.7176 43.406 52.7242 46.1001 50.7064 48.0167" fill="#0898BD"/>
<path d="M62.4798 58.9486C61.9116 56.6944 61.063 54.8746 59.9101 53.3888C61.1464 53.0657 62.3684 52.7262 63.572 52.3812C65.0607 51.9523 66.5438 51.5106 68.0233 51.0524C68.556 52.6003 69.1671 54.1207 69.8479 55.612C68.9039 56.1121 67.9549 56.605 67.0037 57.0868C65.5057 57.7257 63.9977 58.3499 62.4798 58.9486V58.9486ZM25.127 50.6308C25.1476 50.5486 25.1677 50.4683 25.1883 50.3862C25.2467 50.43 25.3053 50.4756 25.363 50.5195C25.2845 50.556 25.2054 50.5943 25.127 50.6308Z" fill="#00ABCC"/>
<path d="M69.846 55.6113C69.1652 54.12 68.5541 52.5996 68.0215 51.0517C69.1052 50.7159 70.1883 50.3727 71.267 50.0204C71.2329 51.6577 71.1736 53.3005 71.1024 54.9432C70.6846 55.1659 70.2653 55.3904 69.846 55.6113" fill="#00ABCC"/>
<path d="M67.0039 57.087C67.9551 56.6052 68.904 56.1123 69.8481 55.6122C69.878 55.6797 69.9087 55.7455 69.9393 55.8112C69.6449 55.9426 69.3498 56.0722 69.0552 56.1999C68.3736 56.4993 67.6898 56.795 67.0039 57.087" fill="#00ABCB"/>
<path d="M69.937 55.8119C69.9063 55.7462 69.8756 55.6805 69.8457 55.6129C70.265 55.3921 70.6842 55.1676 71.102 54.9449C71.0969 55.0635 71.092 55.184 71.0871 55.3026C70.7034 55.4742 70.3206 55.644 69.937 55.8119Z" fill="#00ABCA"/>
<path d="M62.8679 60.7561C62.811 60.4714 62.7538 60.1884 62.6954 59.9091C62.6277 59.5806 62.5549 59.2612 62.4766 58.949C63.9945 58.3504 65.5025 57.7261 67.0005 57.0873C67.6865 56.7952 68.3702 56.4995 69.0518 56.2002C69.3464 56.0724 69.6415 55.9428 69.936 55.8114C70.3196 55.6435 70.7024 55.4737 71.0861 55.3021C71.0554 55.983 71.024 56.662 70.9911 57.341C70.9035 57.3811 70.8172 57.4195 70.7296 57.4578C70.4144 57.5965 70.0986 57.7352 69.7834 57.874C67.5089 58.8669 65.2015 59.8398 62.8679 60.7561" fill="#0898BD"/>
<path d="M53.2854 146.528C52.6222 145.993 51.9692 145.445 51.3281 144.887C60.2215 144.089 69.044 142.027 77.6606 139.437C78.6232 139.146 79.5857 138.851 80.5476 138.549C80.3529 139.227 80.2032 139.909 80.1041 140.597C79.7056 140.722 79.307 140.844 78.9078 140.966C78.6674 141.039 78.4272 141.112 78.1861 141.183C76.4493 141.705 74.7024 142.207 72.9462 142.682C66.4979 144.425 59.9269 145.809 53.2854 146.528" fill="#0898BD"/>
<path d="M14.8083 113.925C14.3456 113.573 13.8964 113.2 13.4636 112.81C11.8273 111.331 10.4662 109.617 9.33594 107.748C10.3064 108.095 11.2883 108.414 12.2772 108.701C12.392 109.491 12.8825 110.207 13.5598 110.793C13.5606 110.793 13.5613 110.793 13.562 110.793C13.7153 110.926 13.8785 111.052 14.049 111.172C14.285 112.092 14.5387 113.012 14.8083 113.925" fill="#05A0CD"/>
<path d="M14.0475 111.172C13.8771 111.052 13.7139 110.926 13.5605 110.792C13.7038 110.854 13.8486 110.911 13.9941 110.962C14.0118 111.031 14.0289 111.101 14.0475 111.172Z" fill="#0C8EB8"/>
<path d="M13.9937 110.962C13.8482 110.911 13.7035 110.854 13.5602 110.792C13.5595 110.792 13.5588 110.792 13.558 110.792C12.8807 110.206 12.3902 109.491 12.2754 108.7C12.6939 108.823 13.1125 108.939 13.533 109.049C13.6785 109.688 13.8325 110.327 13.9937 110.962" fill="#00ACD8"/>
<path d="M12.276 108.701C11.2871 108.414 10.3053 108.095 9.33478 107.748C6.86152 103.656 5.49748 98.8115 4.7838 94.0366C4.1862 90.0428 3.99089 85.9524 4.29827 81.9203C6.36741 83.0849 8.65888 84.0213 11.1095 84.7477C11.0425 90.9847 11.5187 97.2199 12.4429 103.294C12.6033 104.351 12.7858 105.406 12.989 106.458C12.368 107.239 12.174 108 12.276 108.701Z" fill="#0B90BA"/>
<path d="M13.5353 109.05C13.1148 108.941 12.6962 108.824 12.2777 108.701C12.1757 108.001 12.3697 107.239 12.9906 106.458C13.1582 107.325 13.3393 108.189 13.5353 109.05Z" fill="#04A2C6"/>
<path d="M13.5721 63.7211C12.5988 63.4054 11.6249 63.0877 10.6523 62.7793C11.0075 62.2645 11.3783 61.7589 11.7605 61.2661C12.4526 61.6841 13.1594 62.082 13.8787 62.458C13.7732 62.8796 13.6712 63.2995 13.5721 63.7211" fill="#06AED0"/>
<path d="M11.112 84.7478C8.66139 84.0213 6.36992 83.085 4.30078 81.9204C4.6965 76.7293 5.92565 71.6367 8.20507 66.9658C8.91802 65.5038 9.73813 64.1075 10.6542 62.7805C11.6267 63.089 12.6007 63.4066 13.574 63.7224C11.9626 70.5854 11.1876 77.6693 11.112 84.7478" fill="#00ACCE"/>
<path d="M14.3561 60.6461C13.8749 60.3869 13.3993 60.1186 12.9316 59.8412C13.6931 58.9614 14.5016 58.1181 15.3472 57.3168C14.9937 58.4193 14.6635 59.529 14.3561 60.6461" fill="#06AED0"/>
<path d="M13.8819 62.4595C13.1626 62.0835 12.4558 61.6855 11.7637 61.2676C12.1415 60.7802 12.5301 60.3075 12.9337 59.842C13.4013 60.1195 13.877 60.3878 14.3581 60.647C14.1928 61.2493 14.0345 61.8535 13.8819 62.4595" fill="#069DC4"/>
<path d="M32.2808 119.423C29.0044 119.406 25.7326 118.902 22.6132 117.895C19.8232 116.995 17.1381 115.697 14.8101 113.925C14.5405 113.012 14.2868 112.092 14.0508 111.172C14.9235 111.782 15.9914 112.204 16.969 112.342C17.2386 112.381 17.5124 112.401 17.7868 112.401C18.9447 112.401 20.1062 112.05 20.9783 111.298C21.2528 111.063 21.4923 110.784 21.689 110.477C23.0438 110.596 24.4029 110.656 25.7611 110.656C26.7372 110.656 27.7147 110.625 28.6887 110.561C29.7554 113.545 30.9653 116.469 32.3213 119.317C32.3078 119.351 32.2943 119.388 32.2808 119.423V119.423ZM16.7701 111.287C17.6913 111.17 18.5755 110.822 19.2727 110.216C19.2769 110.212 19.282 110.209 19.287 110.203C19.2892 110.205 19.2884 110.205 19.2899 110.205C19.2806 110.212 19.2713 110.221 19.262 110.229C18.5662 110.829 17.6856 111.174 16.7701 111.287" fill="#069BC7"/>
<path d="M32.3747 119.423C32.3428 119.423 32.3131 119.423 32.2812 119.423C32.295 119.387 32.3087 119.35 32.3224 119.315C32.3398 119.35 32.3573 119.386 32.3747 119.423Z" fill="#0D8AB1"/>
<path d="M17.7856 112.401C17.5112 112.401 17.2374 112.381 16.9678 112.342C15.9902 112.204 14.9222 111.782 14.0496 111.172C14.031 111.101 14.0138 111.032 13.9961 110.963C14.4218 111.114 14.8523 111.222 15.2674 111.278C15.5275 111.315 15.7927 111.333 16.0574 111.333C16.2954 111.333 16.5329 111.318 16.7689 111.287C17.6844 111.174 18.565 110.829 19.2608 110.229C19.2701 110.221 19.2794 110.212 19.2887 110.205C20.0865 110.315 20.8873 110.406 21.6878 110.477C21.4911 110.784 21.2516 111.063 20.9771 111.298C20.105 112.05 18.9435 112.401 17.7856 112.401" fill="#0D8AB1"/>
<path d="M16.0552 111.332C15.7905 111.332 15.5253 111.314 15.2652 111.277C14.8501 111.221 14.4196 111.113 13.9939 110.962C13.8327 110.326 13.6787 109.688 13.5332 109.049C15.4269 109.547 17.3493 109.934 19.2836 110.202C19.2786 110.208 19.2735 110.212 19.2693 110.215C18.5721 110.821 17.6879 111.17 16.7667 111.287C16.5307 111.318 16.2932 111.332 16.0552 111.332Z" fill="#00ACD4"/>
<path d="M25.7584 110.655C24.4002 110.655 23.0411 110.595 21.6864 110.476C22.2631 109.578 22.4714 108.441 22.1085 107.444C21.7042 106.333 20.7111 105.584 19.5853 105.156C19.5787 105.15 19.573 105.143 19.5666 105.137C19.1589 104.984 18.7339 104.869 18.3118 104.8C17.9104 104.734 17.4975 104.697 17.0839 104.697C15.6359 104.697 14.1857 105.135 13.2203 106.187C13.1374 106.278 13.0606 106.367 12.9892 106.457C12.7861 105.406 12.6035 104.351 12.4431 103.294C11.519 97.2192 11.0427 90.984 11.1097 84.747C14.8601 85.8586 18.9798 86.4755 23.2336 86.6508C24.1355 94.7915 25.9353 102.87 28.686 110.56C27.712 110.624 26.7345 110.655 25.7584 110.655" fill="#0C8CB3"/>
<path d="M19.2881 110.206C19.2866 110.206 19.2873 110.206 19.2852 110.204C20.3504 109.267 20.8766 107.687 20.386 106.358C20.3575 106.281 20.3261 106.206 20.292 106.133C20.329 106.212 20.3626 106.292 20.3931 106.376C20.8752 107.703 20.3489 109.273 19.2881 110.206" fill="#0C8CB3"/>
<path d="M21.6902 110.478C20.8896 110.406 20.0888 110.315 19.291 110.206C20.3519 109.273 20.8781 107.703 20.396 106.376C20.3656 106.292 20.332 106.212 20.2949 106.133C20.1223 105.763 19.8771 105.442 19.5891 105.157C20.7149 105.586 21.7081 106.334 22.1124 107.446C22.4752 108.442 22.267 109.58 21.6902 110.478" fill="#117CA0"/>
<path d="M19.2853 110.204C17.351 109.935 15.4286 109.548 13.5349 109.05C13.3389 108.189 13.1578 107.325 12.9902 106.458C13.0616 106.369 13.1384 106.279 13.2213 106.188C14.1867 105.137 15.6369 104.699 17.0849 104.699C17.4985 104.699 17.9114 104.735 18.3128 104.801C18.7349 104.87 19.1599 104.985 19.5676 105.139C19.574 105.144 19.5797 105.151 19.5863 105.157C19.8743 105.442 20.1194 105.763 20.2921 106.133C20.3262 106.206 20.3576 106.281 20.3861 106.358C20.8767 107.687 20.3505 109.267 19.2853 110.204" fill="#069DC0"/>
<path d="M22.773 66.3427C22.6381 66.3135 22.5019 66.2843 22.368 66.2551C19.4568 65.6181 16.5155 64.6763 13.5723 63.7216C13.6714 63.3 13.7734 62.8801 13.8789 62.4585C16.6988 63.9333 19.7127 65.0796 22.8042 65.8736C22.7936 66.0288 22.7828 66.1857 22.773 66.3427" fill="#00ABCC"/>
<path d="M23.2352 86.6518C18.9814 86.4766 14.8617 85.8596 11.1113 84.748C11.1869 77.6696 11.9619 70.5857 13.5733 63.7226C16.5165 64.6772 19.4578 65.619 22.369 66.2561C22.5029 66.2853 22.6391 66.3145 22.774 66.3437C22.4887 70.7152 22.4767 75.0485 22.6599 79.2101C22.7696 81.6907 22.9614 84.1731 23.2352 86.6518" fill="#00ABCB"/>
<path d="M22.95 64.0258C19.9648 63.2336 17.0585 62.0983 14.3555 60.6472C14.6628 59.5301 14.993 58.4204 15.3466 57.3179C18.2158 54.6 21.5383 52.3458 25.1261 50.6319C24.0424 55.0089 23.345 59.5228 22.95 64.0258" fill="#00ABCC"/>
<path d="M22.8061 65.8739C19.7146 65.0799 16.7007 63.9336 13.8809 62.4588C14.0335 61.8528 14.1917 61.2486 14.3571 60.6463C17.0601 62.0974 19.9664 63.2327 22.9516 64.0249C22.8981 64.64 22.8498 65.2588 22.8061 65.8739" fill="#0898BD"/>
<path d="M32.3202 119.317C30.9642 116.469 29.7542 113.545 28.6875 110.561C32.4023 110.32 36.0863 109.61 39.65 108.385C48.7392 105.264 56.5025 99.5177 64.2749 93.7516C62.4589 102.217 57.1362 109.902 49.7945 114.509C49.1157 114.934 48.4197 115.334 47.7104 115.706C46.1097 114.81 44.3108 114.206 42.6438 113.994C42.1526 113.934 41.6549 113.903 41.1571 113.903C38.7037 113.903 36.236 114.662 34.4129 116.283C33.4909 117.104 32.7694 118.163 32.3202 119.317V119.317ZM37.3605 119.059C37.5573 118.838 37.7661 118.628 37.9871 118.431C39.3534 117.214 41.0815 116.484 42.8955 116.193C41.071 116.487 39.334 117.228 37.9658 118.459C37.7562 118.647 37.5573 118.847 37.3696 119.057C37.3669 119.057 37.3633 119.059 37.3605 119.059Z" fill="#0896C0"/>
<path d="M32.4496 119.423C32.4233 119.423 32.3961 119.423 32.3698 119.423C32.3527 119.386 32.3355 119.351 32.3184 119.317C32.7676 118.163 33.4891 117.105 34.411 116.283C36.2341 114.662 38.7019 113.903 41.1553 113.903C41.653 113.903 42.1508 113.934 42.642 113.994C44.309 114.206 46.1078 114.81 47.7086 115.706C47.3777 115.88 47.0433 116.046 46.7067 116.208C46.5315 116.179 46.3566 116.154 46.1841 116.132C45.7094 116.075 45.2295 116.046 44.7489 116.046C44.128 116.046 43.5053 116.095 42.8937 116.194C41.0797 116.484 39.3515 117.214 37.9853 118.431C37.7643 118.629 37.5555 118.839 37.3587 119.059C35.7337 119.3 34.0916 119.423 32.4496 119.423" fill="#0F85AB"/>
<path d="M37.3691 119.058C37.5568 118.848 37.7557 118.647 37.9653 118.459C39.3335 117.229 41.0705 116.488 42.895 116.194C43.5067 116.096 44.1293 116.046 44.7502 116.046C45.2308 116.046 45.7107 116.076 46.1854 116.132C46.3579 116.154 46.5328 116.18 46.708 116.209C43.7642 117.62 40.6019 118.576 37.3691 119.058" fill="#0A93B6"/>
<path d="M28.6847 110.561C25.934 102.871 24.1343 94.7919 23.2324 86.6511C24.093 86.6858 24.9593 86.7041 25.8285 86.7041C34.8323 86.7041 44.2124 84.8204 51.8095 81.5568C56.2929 79.6293 60.6201 77.3951 64.8688 75.004C65.3337 80.7336 65.3622 86.5015 64.6686 91.5064C64.5636 92.2603 64.4319 93.0086 64.2721 93.7515C56.4997 99.5176 48.7364 105.264 39.6472 108.385C36.0835 109.61 32.3996 110.32 28.6847 110.561Z" fill="#0E88AD"/>
<path d="M32.0446 67.286C28.9657 67.286 25.8757 66.9903 22.7734 66.3424C22.7833 66.1854 22.7941 66.0284 22.8046 65.8732C25.0977 66.461 27.4336 66.8553 29.765 67.0433C31.1411 67.1546 32.5144 67.2075 33.8834 67.2075C34.2627 67.2075 34.6413 67.2039 35.0198 67.1947C34.0296 67.255 33.0377 67.286 32.0446 67.286" fill="#00ABC9"/>
<path d="M25.8324 86.7039C24.9632 86.7039 24.0969 86.6856 23.2363 86.6509C22.9625 84.1722 22.7706 81.6898 22.6609 79.2092C22.4777 75.0476 22.4897 70.7143 22.775 66.3428C25.8773 66.9908 28.9673 67.2864 32.0462 67.2864C33.0393 67.2864 34.0312 67.2554 35.0214 67.1952C44.5828 66.9908 53.9324 64.2693 62.872 60.7556C63.7419 65.129 64.4705 70.0518 64.8727 75.0038C60.6239 77.3949 56.2967 79.6291 51.8133 81.5566C44.2163 84.8202 34.8361 86.7039 25.8324 86.7039Z" fill="#00ABC8"/>
<path d="M42.7921 55.9663C40.5782 55.9663 38.3765 55.8002 36.2075 55.4187C31.5494 54.5992 28.2783 52.7447 25.3613 50.5196C29.0205 48.802 32.949 47.643 36.9455 47.1264C37.0767 47.2323 37.2093 47.3327 37.3441 47.4331C39.5387 49.0503 42.2666 50.1674 44.9454 50.1674C45.9814 50.1674 47.0103 50.0012 47.9985 49.6307C49.1464 49.1999 50.0363 48.6506 50.7043 48.0172C54.8284 49.1434 57.8521 50.7368 59.9085 53.389C54.3662 54.8383 48.5382 55.9663 42.7921 55.9663" fill="#0896C0"/>
<path d="M44.9452 50.1676C42.2664 50.1676 39.5385 49.0505 37.3439 47.4333C37.2091 47.3329 37.0766 47.2325 36.9453 47.1266C38.514 46.924 40.0917 46.82 41.6697 46.82C44.6029 46.82 47.5278 47.1796 50.3719 47.928C50.4831 47.9572 50.5942 47.9882 50.7041 48.0174C50.0361 48.6508 49.1462 49.2002 47.9983 49.6309C47.0101 50.0015 45.9812 50.1676 44.9452 50.1676" fill="#0A93B6"/>
<path d="M33.9009 65.384C33.8943 65.384 33.8901 65.384 33.8845 65.384C32.5626 65.384 31.2385 65.3329 29.913 65.2252C27.5828 65.0372 25.2443 64.6338 22.9512 64.026C23.3462 59.523 24.0436 55.009 25.1273 50.632C25.2058 50.5955 25.2848 50.5572 25.3633 50.5207C28.2803 52.7457 31.5514 54.6002 36.2095 55.4198C38.3785 55.8013 40.5801 55.9674 42.794 55.9674C48.5402 55.9674 54.3682 54.8393 59.9105 53.39C61.0633 54.8758 61.9119 56.6956 62.4801 58.9498C53.2168 62.6114 43.599 65.384 33.9009 65.384" fill="#00ABC9"/>
<path d="M33.8834 67.2088C32.5145 67.2088 31.1411 67.1559 29.765 67.0445C27.4336 66.8565 25.0978 66.4622 22.8047 65.8745C22.8483 65.2594 22.8967 64.6406 22.9502 64.0255C25.2433 64.6333 27.5818 65.0367 29.912 65.2247C31.2375 65.3324 32.5616 65.3835 33.8834 65.3835C33.8891 65.3835 33.8933 65.3835 33.8999 65.3835C43.598 65.3835 53.2158 62.6109 62.4791 58.9494C62.5574 59.2615 62.6302 59.5809 62.6979 59.9095C62.7564 60.1888 62.8135 60.4717 62.8704 60.7564C53.9309 64.2701 44.5813 66.9916 35.0199 67.196C34.6413 67.2051 34.2627 67.2088 33.8834 67.2088" fill="#0A93B6"/>
<path d="M115.951 156.974C119.797 155.117 123.395 152.354 124.986 148.745C126.374 148.787 127.757 148.851 129.139 148.939C127.965 149.875 126.771 150.748 125.589 151.551C122.542 153.615 119.324 155.497 115.951 156.974Z" fill="#05A0CD"/>
<path d="M129.135 148.939C127.753 148.852 126.37 148.788 124.983 148.746C125.494 147.59 125.797 146.349 125.837 145.022C125.921 142.253 124.795 139.583 123.384 137.199C122.122 135.067 120.649 133.121 119.018 131.32C119.717 131.298 120.416 131.285 121.115 131.285C121.12 131.285 121.126 131.285 121.131 131.285C127.691 131.285 134.197 132.267 140.583 133.955C138.694 139.851 134.104 144.969 129.135 148.939" fill="#06AED0"/>
<path d="M106.413 121.008C104.785 119.933 103.126 118.886 101.459 117.843C106.771 114.129 112.415 110.741 118.091 109.376C119.389 109.064 120.698 108.916 122.001 108.916C126.462 108.916 130.834 110.657 134.302 113.53C125.61 114.99 117.044 117.204 108.739 120.16C107.961 120.437 107.187 120.72 106.413 121.008" fill="#05A0CD"/>
<path d="M141.063 132.193C134.54 130.47 127.872 129.462 121.117 129.461C119.861 129.461 118.601 129.497 117.34 129.568C114.095 126.361 110.344 123.605 106.414 121.009C107.188 120.721 107.962 120.438 108.739 120.161C117.045 117.206 125.611 114.992 134.303 113.531C137.371 116.076 139.731 119.507 140.819 123.408C141.673 126.469 141.679 129.409 141.063 132.193" fill="#06AED0"/>
<path d="M140.585 133.956C134.198 132.268 127.693 131.286 121.133 131.286C121.127 131.286 121.122 131.286 121.116 131.286C120.417 131.286 119.718 131.299 119.019 131.32C118.477 130.72 117.917 130.138 117.34 129.568C118.601 129.497 119.861 129.461 121.116 129.461C127.872 129.462 134.539 130.47 141.063 132.193C140.932 132.788 140.771 133.376 140.585 133.956" fill="#069DC4"/>
<path d="M110.018 159.067C111.357 155.799 112.679 152.357 112.484 148.88C115.201 148.754 117.916 148.683 120.624 148.683C122.079 148.683 123.534 148.703 124.985 148.747C123.393 152.355 119.796 155.119 115.95 156.975C114.02 157.818 112.042 158.53 110.018 159.067Z" fill="#069BC7"/>
<path d="M112.484 148.879C112.464 148.511 112.426 148.142 112.369 147.773C111.659 143.121 108.065 139.399 104.112 136.843C102.77 135.976 101.374 135.206 99.959 134.465C105.495 132.968 111.07 131.817 116.75 131.433C117.508 131.382 118.265 131.344 119.021 131.32C120.653 133.122 122.126 135.067 123.387 137.199C124.798 139.583 125.924 142.254 125.84 145.023C125.8 146.35 125.497 147.591 124.986 148.746C123.535 148.702 122.08 148.682 120.625 148.682C117.917 148.682 115.202 148.753 112.484 148.879Z" fill="#00ABCC"/>
<path d="M89.1404 127.939C88.9165 127.75 88.6956 127.558 88.4766 127.363C89.1191 126.833 89.7857 126.324 90.4738 125.84C93.882 123.44 97.5831 120.554 101.459 117.844C103.126 118.886 104.785 119.934 106.413 121.009C100.604 123.175 94.8987 125.64 89.1404 127.939" fill="#069BC7"/>
<path d="M97.5698 133.231C95.5961 132.214 93.6354 131.177 91.7944 129.942C90.8739 129.323 89.9877 128.653 89.1406 127.939C94.8989 125.639 100.604 123.175 106.413 121.009C110.343 123.604 114.094 126.36 117.339 129.568C117.102 129.58 116.863 129.595 116.624 129.611C110.115 130.057 103.794 131.464 97.5698 133.231Z" fill="#00ABCC"/>
<path d="M99.9574 134.465C99.1645 134.049 98.366 133.64 97.5703 133.231C103.795 131.465 110.115 130.057 116.624 129.612C116.864 129.596 117.103 129.581 117.34 129.568C117.917 130.138 118.477 130.72 119.019 131.32C118.264 131.344 117.506 131.383 116.749 131.434C111.068 131.817 105.494 132.969 99.9574 134.465" fill="#0898BD"/>
<path d="M101.946 160.168C96.1824 160.168 90.3815 158.432 86.082 154.692C86.3516 153.541 86.4814 152.343 86.4699 151.193C87.1958 151.113 87.9216 151.033 88.646 150.954C96.546 150.085 104.521 149.249 112.483 148.879C112.679 152.356 111.357 155.798 110.017 159.066C108.575 159.449 107.11 159.743 105.622 159.933C104.408 160.09 103.178 160.168 101.946 160.168Z" fill="#0896C0"/>
<path d="M86.0831 154.692C85.8314 154.473 85.5855 154.246 85.3444 154.014C85.3211 153.781 85.2904 153.553 85.2539 153.326C85.1462 152.667 84.983 152.014 84.7656 151.379C85.3346 151.317 85.902 151.255 86.471 151.193C86.4825 152.342 86.3527 153.54 86.0831 154.692Z" fill="#0F85AB"/>
<path d="M85.3433 154.014C85.3427 154.014 85.3413 154.013 85.3405 154.011C84.5035 153.202 83.7741 152.383 83.1445 151.554C83.6843 151.496 84.2253 151.437 84.7645 151.379C84.9819 152.014 85.145 152.667 85.2527 153.326C85.2892 153.553 85.3199 153.781 85.3433 154.014Z" fill="#0A93B6"/>
<path d="M86.4701 151.194C86.4637 150.552 86.4138 149.926 86.3197 149.331C85.8611 146.43 84.3175 143.625 81.8313 142.06C81.2716 141.708 80.662 141.431 80.0273 141.232C80.0489 141.02 80.0744 140.81 80.1051 140.598C86.7453 138.545 93.3235 136.258 99.958 134.465C101.373 135.207 102.769 135.977 104.111 136.844C108.064 139.399 111.658 143.121 112.368 147.774C112.425 148.142 112.463 148.511 112.483 148.88C104.522 149.25 96.5462 150.086 88.6462 150.955C87.9217 151.034 87.196 151.114 86.4701 151.194V151.194ZM84.252 150.128C83.4613 148.482 82.2763 147.04 80.7319 146.08C80.6063 146.001 80.478 145.926 80.3482 145.855C80.3475 145.853 80.3468 145.85 80.3462 145.848C80.488 145.925 80.6271 146.005 80.764 146.091C82.2947 147.054 83.4691 148.489 84.252 150.128" fill="#00ABC9"/>
<path d="M84.7662 151.379C84.6193 150.952 84.4481 150.532 84.2535 150.127C83.4706 148.488 82.2962 147.054 80.7655 146.09C80.6286 146.004 80.4896 145.924 80.3477 145.847C79.9697 144.301 79.8763 142.755 80.0289 141.231C80.6635 141.43 81.2731 141.707 81.8328 142.06C84.319 143.624 85.8627 146.429 86.3212 149.33C86.4153 149.925 86.4652 150.551 86.4716 151.193C85.9026 151.255 85.3351 151.317 84.7662 151.379" fill="#00ABC8"/>
<path d="M83.1442 151.555C81.7245 149.684 80.8169 147.771 80.3477 145.855C80.4774 145.926 80.6058 146.001 80.7313 146.079C82.2757 147.039 83.4607 148.481 84.2514 150.128C84.446 150.533 84.6172 150.953 84.7641 151.38C84.2249 151.438 83.6839 151.497 83.1442 151.555" fill="#00ABC8"/>
<path d="M86.7793 128.869C87.3225 128.349 87.8894 127.847 88.4775 127.362C88.6966 127.557 88.9174 127.749 89.1414 127.938C88.3556 128.252 87.5671 128.563 86.7793 128.869" fill="#0896C0"/>
<path d="M80.5488 138.549C81.5613 135.032 83.8115 131.71 86.7798 128.87C87.5676 128.563 88.3561 128.253 89.1419 127.939C89.989 128.653 90.8752 129.322 91.7957 129.941C93.6367 131.177 95.5974 132.214 97.5711 133.23C91.8421 134.855 86.1944 136.784 80.5488 138.549" fill="#00ABC9"/>
<path d="M80.1055 140.598C80.2046 139.91 80.3543 139.227 80.549 138.55C86.1946 136.785 91.8422 134.856 97.5713 133.231C98.3669 133.64 99.1655 134.049 99.9584 134.465C93.3238 136.257 86.7457 138.544 80.1055 140.598" fill="#0A93B6"/>
</svg>
