<svg width="172" height="171" viewBox="0 0 172 171" fill="none" xmlns="http://www.w3.org/2000/svg">
<path d="M170.48 85.5096C170.48 132.244 132.588 170.131 85.8541 170.131C39.1204 170.131 1.22852 132.244 1.22852 85.5096C1.22852 38.7678 39.1204 0.884105 85.8541 0.884105C132.588 0.884105 170.48 38.7678 170.48 85.5096Z" fill="#7D0D98"/>
<path d="M162.396 90.5246C153.5 87.1684 125.204 93.0074 123.764 81.1921C123.02 75.0863 129.417 67.8483 126.934 61.6859C124.233 54.9979 113.663 55.0383 107.752 53.9061C102.115 52.8305 89.9113 49.531 90.6553 41.274C91.2376 34.9094 100.044 35.1925 104.46 34.489C114.836 32.8392 123.651 30.8982 133.331 26.4988C136.372 25.1159 138.911 23.2074 141.362 21.2261C135.725 16.3172 129.433 12.1523 122.64 8.86084C121.483 11.1172 117.254 9.52396 115.111 12.4272C112.224 16.3252 117.286 19.083 110.558 21.9782C106.975 23.5228 100.376 23.8948 96.9228 21.5496C92.4183 18.5007 93.1947 15.379 86.7088 15.1364C86.353 15.1202 81.1853 15.6297 81.0316 15.7025C78.5327 17.0207 79.3334 18.808 77.6512 20.2556C74.5943 22.892 73.0659 21.687 70.9147 20.4821C69.7016 19.7946 68.2782 19.1153 66.2807 19.1234C60.2234 19.1639 59.6008 24.2668 57.3526 28.2133C54.4574 33.2839 49.5566 36.0497 43.5398 36.1629C38.2912 36.2519 34.9269 33.6317 32.2097 29.3455C30.9885 27.4289 30.7297 24.1212 29.7027 21.784C12.5337 37.0283 1.59997 59.1465 1.24414 83.8365C3.96141 81.5317 5.94271 78.8306 6.08828 75.345L7.79471 69.6679C10.9568 57.8122 24.5593 47.2504 32.7839 59.5428C36.2937 64.7914 37.709 71.0832 45.1168 71.8191C53.8185 72.6844 60.2477 64.937 67.0005 60.9743C75.4111 56.0411 84.3555 56.8579 91.2538 63.6835C95.8958 68.285 102.721 79.0167 97.958 85.5591C92.9035 92.506 85.5605 89.1579 78.1122 85.8017C71.691 82.9146 65.1971 80.0275 60.0051 83.7233C45.2138 94.2528 73.6481 101.604 78.7753 106.011C94.6099 119.637 72.8637 132.44 58.2988 132.696C56.5762 132.726 54.708 132.464 52.8156 132.203C49.8477 131.794 46.7989 131.384 44.1059 132.1C37.9192 133.743 31.0936 139.877 25.279 142.908C25.004 143.05 24.7291 143.193 24.4622 143.333C34.652 154.074 47.6318 162.14 62.2371 166.377C63.248 157.091 76.1066 163.009 81.5977 163.375C94.8768 164.261 85.2854 146.251 96.381 142.34C100.077 141.037 107.606 141.666 108.334 145.748C109.191 150.639 98.9446 154.854 104.306 158.405C110.703 162.646 109.539 152.863 113.388 151.977C114.674 151.681 115.272 152.529 115.952 153.38C116.558 154.135 117.23 154.89 118.523 154.84C121.136 154.738 121.087 152.626 123.198 151.565C128.139 149.079 134.253 147.923 137.989 151.756C155.716 137.87 167.758 117.064 170.071 93.4036C167.588 92.6111 165.073 91.5355 162.396 90.5246" fill="#EB53C0"/>
<path d="M132.828 72.6317C132.631 72.6317 132.434 72.608 132.228 72.5527C130.058 71.9924 133.128 62.2777 132.757 59.8312C131.968 54.6779 127.272 50.6926 122.75 48.7827C117.4 46.5257 112.436 46.6047 106.754 46.1312C104.441 45.9339 101.103 45.8944 99.4775 43.8978C98.0649 42.1774 98.3253 39.1785 100.724 38.6576L103.905 37.6002C104.047 37.4345 104.244 37.4897 104.213 37.1187C109.595 35.5483 115.908 36.0297 121.448 35.13C122.253 36.2349 123.058 37.3476 123.871 38.4525C123.224 38.3815 122.569 38.3262 121.93 38.3262C120.983 38.3262 120.059 38.4525 119.254 38.8629C116.8 40.1019 116.839 42.1853 119.254 43.4243C121.156 44.4029 123.776 44.3555 125.868 45.2078C127.383 45.8155 128.811 46.4863 130.169 47.3149C132.978 51.4818 135.543 55.7512 137.563 60.2416C137.792 60.7388 138.013 61.2439 138.226 61.749C137.831 65.4423 136.103 72.6317 132.828 72.6317" fill="#9E22A4"/>
<path d="M51.4502 23.2267C50.1361 21.8529 48.5382 20.4864 46.7312 19.4038C48.7323 18.3286 50.6886 16.9547 52.0252 16.1707C55.1014 14.3563 57.5804 12.5418 61.2839 12.4672C61.6647 12.4522 62.2321 12.4373 62.8743 12.4373C64.6887 12.4373 67.1228 12.6016 67.7127 13.7216C68.9447 16.0587 66.0551 16.7158 64.4946 16.7158C64.3826 16.7158 64.2855 16.7083 64.1884 16.7083C63.1057 16.6411 62.2546 16.5365 61.4705 16.5365C60.246 16.5365 59.1708 16.7829 57.5729 17.8208C55.2806 19.3142 53.287 21.1883 51.4502 23.2267V23.2267ZM42.7141 17.6565C41.7061 17.3803 40.6533 17.216 39.5781 17.1861L41.1685 16.1707C41.8928 15.8347 42.3856 15.6854 42.6992 15.6854C43.4981 15.6854 43.2144 16.5888 42.7141 17.6565Z" fill="#9E22A4"/>
<path d="M137.452 82.1768C136.865 82.1768 136.27 82.0817 135.652 81.8756C133.369 81.0987 131.966 78.4905 133.599 76.3026C134.772 74.7409 137.872 74.0671 139.362 72.6006C140.091 71.8792 140.789 71.023 141.376 70.0796C142.462 73.3774 143.349 76.699 144.031 80.0127C141.859 80.7975 139.758 82.1768 137.452 82.1768Z" fill="#9E22A4"/>
<path d="M96.6446 100.37C92.3747 100.37 87.7413 99.1169 83.7808 97.887C80.2999 96.8118 74.3438 92.7275 70.1435 92.7275C69.6329 92.7275 69.1456 92.7894 68.697 92.9287C67.5753 93.2613 66.3996 95.1178 65.0537 95.1178C64.6282 95.1178 64.1796 94.9321 63.7155 94.4448C62.0756 92.7353 64.2956 90.9407 65.773 90.2213C66.8173 89.7108 67.8616 89.4942 68.8981 89.4942C73.2918 89.4942 77.5848 93.3232 81.6536 94.5763C84.856 95.5664 88.5458 96.4173 92.1273 96.4173C94.881 96.4173 97.5652 95.9145 99.909 94.584C112.726 87.3205 101.294 67.8508 93.303 61.1597C88.4453 57.0909 81.731 54.8323 75.1251 54.8323C69.7181 54.8323 64.3884 56.3483 60.2268 59.6436C58.2311 61.2216 56.1425 62.4902 53.9844 63.2946C55.0983 59.311 56.1039 55.2654 56.7846 51.2894C61.0777 49.4639 66.1598 48.2494 70.3446 48.1953C70.5147 48.1953 70.685 48.1876 70.8551 48.1876C83.2549 48.1876 97.9519 53.6797 105.285 63.8129C110.491 70.999 112.084 83.5689 108.998 91.9231C107.598 95.7057 101.82 100.107 97.8049 100.339C97.4259 100.355 97.0391 100.37 96.6446 100.37" fill="#EF75CD"/>
<path d="M67.2615 141.436C64.8502 140.428 62.5381 139.253 60.3633 137.918C65.7659 137.857 72.3436 137.117 77.2197 135.217C84.3468 132.447 87.483 125.678 87.2236 118.276C87.0176 112.477 85.4609 107.486 81.1038 103.495C79.0053 101.572 76.7771 99.8021 73.9842 98.9932C73.0761 98.7338 67.5668 97.5663 70.8098 96.1012L71.8705 96.3683C77.731 98.1158 84.8275 100.405 88.7497 105.64C94.5415 113.377 95.6862 123.48 89.8639 131.829C84.6673 139.291 75.8538 140.673 67.2615 141.436Z" fill="#EF75CD"/>
<path d="M88.8447 146.112C86.8861 146.034 84.9274 145.863 82.9844 145.607C84.3912 143.571 85.5726 141.301 87.4846 139.242C90.6634 135.822 97.8061 131.772 102.641 131.772C102.71 131.772 102.78 131.772 102.85 131.772C109.294 131.936 110.77 135.037 115.278 138.915C116.234 139.739 117.439 140.112 118.752 140.221C116.296 141.387 113.638 142.42 110.801 143.306C111.112 142.343 111.843 141.441 111.586 140.034C111.019 136.855 106.869 136.894 104.428 136.863C104.343 136.863 104.265 136.863 104.187 136.863C97.5807 136.863 91.8448 140.275 88.8447 146.112" fill="#EF75CD"/>
<path d="M135.758 100.604C135.639 100.604 135.52 100.604 135.393 100.596C129.392 100.461 120.725 98.961 117.859 92.9841C115.129 87.285 116.184 80.1571 117.994 74.3945C119.463 69.6875 121.233 64.4805 117.399 60.6308L115.01 59.8371C113.51 59.7736 112.406 58.2734 114.478 57.4479C114.661 57.3765 114.907 57.3447 115.176 57.3447C116.454 57.3447 118.478 58.0591 119.232 58.5671C122.352 60.6705 122.328 65.4886 122.161 68.8382C121.86 74.839 119.82 85.7689 124.066 90.4838C127.678 94.4843 133.107 95.278 138.735 95.278C140.592 95.278 142.465 95.1906 144.315 95.1033C144.767 95.0874 145.22 95.0636 145.672 95.0398C145.68 96.4765 145.641 97.8973 145.553 99.3102C144.267 99.4372 142.981 99.6674 141.696 99.8976C139.727 100.255 137.759 100.604 135.758 100.604" fill="#EF75CD"/>
<path d="M82.9518 44.9729C80.8947 44.9729 79.1558 43.04 79.0161 41.045C78.5581 34.4002 86.9262 30.4179 92.2514 29.401C99.8821 27.9416 107.459 27.3361 115.027 25.768C115.726 26.8781 116.448 27.9726 117.185 29.0672C115.407 29.5795 113.622 30.1307 111.837 30.7905C106.737 32.6846 101.714 32.8554 96.4743 33.6161C92.5775 34.1906 86.2509 35.6034 85.3659 40.2532C84.9235 42.582 86.3518 44.6158 83.3088 44.9574C83.1924 44.9729 83.0682 44.9729 82.9518 44.9729" fill="#EF75CD"/>
<path d="M95.6895 127.783C95.6895 127.539 95.6895 127.302 95.6895 127.066L95.7582 127.15C95.72 127.356 95.6971 127.569 95.6895 127.783Z" fill="#EF75CD"/>
<path d="M119.853 135.581C119.561 135.581 119.278 135.565 118.987 135.534C116.287 135.211 116.555 133.07 115.035 131.236C113.721 129.67 111.131 128.135 109.25 127.529C108.069 127.143 106.668 126.954 105.283 126.954C104.165 126.954 103.047 127.08 102.047 127.332C100.387 127.741 98.2612 129.623 96.4587 129.623C96.1123 129.623 95.7738 129.552 95.459 129.394C95.5377 128.599 95.947 128.363 96.4901 128.119L95.7581 127.151C96.2304 124.341 99.2058 122.168 101.725 121.176C102.921 120.704 104 120.499 104.999 120.499C109.517 120.499 112.351 124.726 116.366 127.6C117.963 128.741 119.624 129.103 121.333 129.103C123.836 129.103 126.425 128.324 129.031 128.064C130.093 127.954 131.353 127.891 132.722 127.891C133.431 127.891 134.171 127.907 134.919 127.946C133.407 129.756 131.731 131.464 129.881 133.062C128.204 133.173 126.63 133.747 125.071 134.314C123.34 134.951 121.639 135.581 119.853 135.581" fill="#EF75CD"/>
<path d="M57.4141 46.9299C57.6116 45.1444 57.7256 43.3817 57.7332 41.6571C59.2679 40.5858 60.5975 39.241 61.494 37.6075C63.8797 33.2693 66.9491 29.8124 71.8116 27.875C75.5801 26.3782 80.906 26.3478 83.5272 22.7921C84.5605 21.3789 84.7276 19.32 86.27 19.32C86.6802 19.32 87.1817 19.4643 87.8275 19.8062C89.385 20.6268 90.2892 22.6705 89.8105 24.3116C88.8076 27.7534 82.4255 28.3915 79.546 29.1437C75.2458 30.2682 71.1202 31.6281 68.1647 35.2218C64.6546 39.4917 62.3905 44.1263 57.4141 46.9299" fill="#EF75CD"/>
<path d="M85.7758 170.242C38.6214 170.242 0.394531 132.297 0.394531 85.4911C0.394531 58.4498 13.1503 34.3708 33.0205 18.8469C33.6033 18.5313 34.1779 18.2642 34.7607 18.0376C33.061 19.3245 31.418 20.6761 29.8316 22.0845C29.7912 21.9792 29.7506 21.8821 29.7021 21.785C12.5352 37.0256 1.6005 59.1539 1.24438 83.8319C1.22819 84.3903 1.22818 84.9488 1.22818 85.5073C1.22818 132.246 39.1151 170.133 85.8567 170.133C132.582 170.133 170.477 132.246 170.477 85.5073C170.477 59.8986 159.097 36.9365 141.113 21.4207C141.194 21.356 141.283 21.2912 141.364 21.2265C140.077 20.1014 138.75 19.0169 137.398 17.9809C157.916 33.4562 171.157 57.9399 171.157 85.4911C171.157 132.297 132.93 170.242 85.7758 170.242V170.242ZM122.441 9.18293C117.641 6.8762 112.582 5.00657 107.33 3.63062C107.338 3.58206 107.346 3.52541 107.354 3.46875C112.639 4.8366 117.73 6.69009 122.57 8.98872C122.53 9.06157 122.489 9.11818 122.441 9.18293" fill="#954AA7"/>
<path d="M85.8541 170.131C39.1204 170.131 1.22852 132.244 1.22852 85.5096C1.22852 84.9515 1.23662 84.3852 1.24471 83.8351C3.96282 81.5295 5.94481 78.8276 6.09043 75.341L7.19864 71.6602C6.82652 77.3876 6.93169 83.0423 7.48178 88.6808C6.71327 89.4008 5.88812 89.8457 5.05489 89.8457C4.82838 89.8457 4.60189 89.8134 4.38347 89.7486L4.64235 90.0074C1.88379 91.9732 3.0325 95.8482 5.43512 97.4904C6.21981 98.0162 6.99645 98.2508 7.73261 98.2508C8.10473 98.2508 8.46871 98.1942 8.81657 98.089C9.66598 102.676 10.7986 107.287 12.1981 111.938C14.4875 119.535 17.0519 125.859 20.9996 132.67C22.8278 135.832 24.373 138.553 27.7302 140.356C28.0133 140.507 28.345 140.687 28.709 140.886C27.536 141.637 26.3873 142.328 25.2871 142.906C25.012 143.049 24.7289 143.191 24.4619 143.332C34.6549 154.072 47.6387 162.139 62.2405 166.375C62.6854 162.347 65.355 161.179 68.6798 161.179C73.0239 161.179 78.4926 163.166 81.6071 163.373C81.9226 163.395 82.2219 163.405 82.5212 163.405C91.9618 163.405 88.3376 152.568 91.8243 146.172C97.2443 146.163 102.616 145.503 107.639 144.201C107.987 144.648 108.23 145.162 108.335 145.746C109.193 150.638 98.9431 154.853 104.307 158.403C105.439 159.153 106.329 159.464 107.065 159.464C110.455 159.464 110.22 152.705 113.391 151.976C113.561 151.934 113.731 151.916 113.885 151.916C114.839 151.916 115.365 152.646 115.956 153.378C116.538 154.11 117.193 154.841 118.407 154.841C118.447 154.841 118.488 154.84 118.528 154.839C121.141 154.737 121.092 152.625 123.204 151.564C125.849 150.228 128.85 149.275 131.625 149.275C134.02 149.275 136.261 149.981 137.992 151.754C155.716 137.868 167.762 117.062 170.075 93.4051C167.592 92.6042 165.076 91.5284 162.398 90.5172C158.847 89.1824 152.189 89.3037 145.394 89.1904C145.127 86.1568 144.666 83.0908 144.027 80.0168C144.391 79.8873 144.747 79.7741 145.111 79.6851C145.539 79.588 146.049 79.5395 146.607 79.5395C147.861 79.5395 149.374 79.7579 150.943 79.9683C152.513 80.1786 154.131 80.397 155.595 80.397C158.871 80.397 161.314 79.313 160.481 74.7262C159.607 69.9452 153.176 66.0622 150.223 62.4866C148.913 60.8849 147.149 59.9464 145.701 59.9464C144.002 59.9464 142.74 61.2408 143.121 64.2986C143.21 64.3472 143.282 64.3715 143.331 64.3715C143.517 64.3715 143.468 64.0964 143.598 64.0721L143.072 65.3989C142.926 67.0087 142.279 68.6428 141.373 70.0827C140.459 67.2756 139.407 64.5009 138.226 61.7504C138.299 61.0466 138.323 60.4722 138.307 60.092C138.04 54.8176 135.977 51.695 131.9 48.5239C131.334 48.0789 130.76 47.6826 130.161 47.3186C128.147 44.3335 126.003 41.3888 123.867 38.4523C124.636 38.5332 125.388 38.6303 126.076 38.6627C126.181 38.6707 126.294 38.6707 126.432 38.6707C128.664 38.6707 135.071 38.0074 131.9 35.2893C131.14 34.634 129.53 34.4237 127.823 34.4237C125.744 34.4237 123.511 34.7392 122.427 34.9495C122.104 35.0142 121.772 35.0708 121.448 35.1275C120.599 33.9464 119.75 32.7734 118.916 31.5842C123.714 30.3303 128.414 28.7286 133.332 26.4958C136.277 25.161 138.744 23.3328 141.122 21.4156C159.098 36.9396 170.48 59.8898 170.48 85.5096C170.48 132.244 132.588 170.131 85.8541 170.131V170.131ZM36.9038 135.48C34.8086 132.081 32.0257 128.661 31.2168 127.369C25.0767 117.495 23.2242 105.879 22.2211 94.4325C21.7034 88.5513 21.7762 82.5731 22.3424 76.6435C22.4072 76.6435 22.4719 76.6435 22.5447 76.6435C25.1495 76.6435 28.353 78.6982 30.8527 79.224C32.8994 79.6527 35.6822 80.0653 38.3033 80.0653C40.3823 80.0653 42.3643 79.8064 43.8204 79.1026C46.0612 78.0106 47.5497 76.514 44.8073 74.9931C44.1925 74.6453 43.5858 74.524 42.9872 74.524C42.2834 74.524 41.5796 74.6938 40.8677 74.8556C40.1477 75.0255 39.4277 75.1954 38.6592 75.1954C38.6107 75.1954 38.5702 75.1954 38.5217 75.1954C33.6598 75.0659 29.4856 73.0354 27.4713 68.5699C26.7109 66.8792 25.5217 65.5768 24.0979 64.8326C24.4943 62.8183 24.9473 60.8201 25.4489 58.8463C25.7563 57.6328 26.3145 56.1848 27.0021 54.6073C29.0731 55.3677 31.0469 56.9452 32.7862 59.542C36.2971 64.7921 37.7128 71.0858 45.1229 71.822C45.5678 71.8624 46.0208 71.8867 46.4657 71.8867C48.3182 71.8867 50.0737 71.5065 51.7564 70.8674C49.7825 77.3715 47.8571 83.5115 46.9592 88.7131C44.2734 104.213 41.8547 120.609 53.1316 132.245C53.0345 132.23 52.9293 132.217 52.8241 132.202C51.0282 131.955 49.2081 131.708 47.4527 131.708C46.3039 131.708 45.1795 131.815 44.1117 132.098C41.7738 132.72 39.3387 133.984 36.9038 135.48V135.48ZM43.2703 36.1629C38.1739 36.1629 34.8894 33.55 32.2118 29.3434C31.0469 27.507 30.7557 24.3926 29.8335 22.0789C31.4271 20.6713 33.0693 19.3203 34.7682 18.0422C36.3133 17.4435 37.8341 17.1847 39.2983 17.1847C39.3873 17.1847 39.4844 17.1847 39.5895 17.1847L37.47 18.5437C32.4302 19.2961 34.9299 26.5848 38.2547 28.0733C39.6543 28.7043 40.9405 28.9794 42.1378 28.9794C45.8994 28.9794 48.7308 26.2451 51.4246 23.2519C51.4408 23.2438 51.4408 23.2357 51.4489 23.2276C52.9697 24.8212 54.1024 26.4392 54.7495 27.6688C55.2025 28.5263 55.5989 29.4162 55.9386 30.3222C52.9778 34.0515 48.6661 36.0659 43.5454 36.1549C43.4483 36.163 43.3593 36.1629 43.2703 36.1629V36.1629ZM112.259 21.1082C111.118 19.0372 110.074 16.9339 109.168 14.7739C107.356 10.4702 106.855 6.75717 107.332 3.63458C112.59 5.00172 117.638 6.87043 122.444 9.17597C121.06 10.9638 117.153 9.66941 115.114 12.4199C112.517 15.9308 116.352 18.5114 112.259 21.1082V21.1082ZM42.0731 20.9382C41.8708 20.9382 41.6686 20.9221 41.4744 20.8897C41.3207 20.2992 42.154 18.8673 42.7202 17.6539C44.144 18.0422 45.4949 18.657 46.7327 19.4012C45.1147 20.2668 43.4564 20.9382 42.0731 20.9382Z" fill="#BE3FC8"/>
<path d="M62.2371 166.377C47.6318 162.14 34.652 154.074 24.4622 143.333C24.7291 143.193 25.004 143.05 25.279 142.908C26.3869 142.33 27.5354 141.639 28.6999 140.888C30.4548 141.839 32.9941 143.198 34.8218 143.724C34.7409 143.898 34.6601 144.078 34.6035 144.264C33.9485 146.225 35.0402 147.795 37.1994 147.976C37.3046 147.984 37.4097 147.988 37.5067 147.988C39.577 147.989 40.2806 146.131 41.9789 145.131C46.0063 142.757 52.6701 143.097 57.2717 142.418C60.4014 141.955 63.8142 141.746 67.2593 141.438C72.1924 143.508 77.5299 144.894 82.9806 145.606C81.4521 147.815 79.6649 149.747 76.43 150.828C74.845 151.357 73.1144 151.514 71.319 151.514C70.0008 151.514 68.6583 151.43 67.3078 151.345C65.9653 151.26 64.6067 151.176 63.2885 151.176C60.5388 151.176 57.9268 151.544 55.7351 153.05C51.8048 155.759 53.6163 163.332 56.4953 163.332C57.0937 163.332 57.7245 163.014 58.3715 162.269L58.9053 163.063C58.2745 156.942 64.8655 154.566 70.3486 154.566C71.4808 154.566 72.5564 154.667 73.5268 154.858C76.236 155.394 78.9209 157.245 81.6948 157.245C81.7676 157.245 81.8485 157.243 81.9374 157.24C86.822 157.044 86.4823 152.965 87.5498 149.364C87.8976 148.211 88.3343 147.126 88.8519 146.113C89.8062 146.153 90.7605 146.174 91.7228 146.174C91.7552 146.174 91.7875 146.174 91.8279 146.174C88.3424 152.569 91.9574 163.407 82.5197 163.407C82.2205 163.407 81.9212 163.397 81.5977 163.375C78.4923 163.167 73.0173 161.181 68.6745 161.181C65.3507 161.181 62.6819 162.348 62.2371 166.377V166.377ZM107.056 159.466C106.328 159.466 105.439 159.154 104.306 158.405C98.9446 154.854 109.191 150.639 108.334 145.748C108.229 145.163 107.986 144.649 107.638 144.202C107.663 144.194 107.695 144.186 107.727 144.179C108.779 143.904 109.797 143.613 110.8 143.301C110.542 144.09 110.558 144.911 111.633 146.065C112.45 146.944 113.501 147.409 114.52 147.409C115.475 147.409 116.405 147 117.084 146.144C117.092 146.463 117.157 146.82 117.165 147.141C119.502 146.816 121.297 144.5 123.732 143.948C124.516 143.771 125.325 143.697 126.15 143.697C128.107 143.697 130.12 144.122 131.94 144.594C133.752 145.065 136.445 146.933 138.329 146.933C138.41 146.933 138.491 146.93 138.571 146.923C140.286 146.764 142.38 144.543 141.693 142.677C140.593 139.714 134.609 139.238 130.614 139.238C129.554 139.238 128.632 139.271 127.985 139.3C125.551 139.41 122.462 140.261 119.729 140.261C119.397 140.261 119.073 140.249 118.758 140.222C123.004 138.214 126.7 135.806 129.878 133.069C130.056 133.056 130.242 133.051 130.428 133.051C130.84 133.051 131.261 133.081 131.689 133.148C136.364 133.886 138.596 137.481 142.259 139.844C143.205 140.454 144.119 140.717 144.952 140.717C148.858 140.717 151.082 134.874 147.516 131.625C144.815 129.174 139.566 128.178 134.916 127.949C141.572 119.95 144.92 110.015 145.559 99.3072C146.238 99.2425 146.926 99.202 147.605 99.202C148.729 99.202 149.861 99.3072 150.993 99.5983C153.791 100.31 156.654 102.534 159.388 102.534C160.593 102.534 161.773 102.105 162.906 100.925C167.54 96.1209 155.546 95.2798 152.586 95.0372C151.656 94.9644 150.678 94.9321 149.675 94.9321C148.389 94.9321 147.039 94.9806 145.672 95.0453C145.664 93.1125 145.567 91.1554 145.389 89.1902C152.19 89.3115 158.838 89.1821 162.396 90.5246C165.073 91.5355 167.588 92.6111 170.071 93.4036C167.758 117.064 155.716 137.87 137.989 151.756C136.259 149.983 134.018 149.278 131.625 149.278C128.843 149.278 125.85 150.229 123.198 151.565C121.087 152.626 121.136 154.738 118.523 154.84C118.483 154.841 118.443 154.842 118.402 154.842C117.189 154.842 116.534 154.111 115.952 153.38C115.361 152.648 114.836 151.917 113.882 151.917C113.728 151.917 113.558 151.937 113.388 151.977C110.218 152.706 110.453 159.466 107.056 159.466V159.466ZM39.1484 140.222C38.7845 138.815 37.9273 137.151 36.9002 135.482C39.3344 133.986 41.7687 132.722 44.1059 132.1C45.1734 131.816 46.2974 131.71 47.4539 131.71C49.2088 131.71 51.0203 131.957 52.8156 132.203C52.9208 132.218 53.0259 132.232 53.1311 132.247C54.2875 133.441 55.5896 134.584 57.0533 135.672C58.1127 136.465 59.2207 137.212 60.361 137.915C60.1345 137.918 59.9162 137.918 59.6978 137.918C57.393 137.918 54.9992 137.797 52.6135 137.797C50.1469 137.797 47.6966 137.928 45.3998 138.463C43.6773 138.865 41.2672 139.343 39.1484 140.222V140.222ZM1.24414 83.8365C1.59997 59.1465 12.5337 37.0283 29.7027 21.7841C29.7512 21.8811 29.7917 21.9782 29.8321 22.0833C30.754 24.3881 31.0451 27.5097 32.2097 29.3455C34.8865 33.5508 38.178 36.1629 43.2648 36.1629C43.3537 36.1629 43.4427 36.1629 43.5398 36.1629C48.6589 36.0659 52.9774 34.0523 55.9292 30.3241C57.2393 33.8177 57.765 37.6429 57.7327 41.6541C55.63 43.1179 53.1149 44.0722 50.6969 44.5412C49.9933 44.6787 49.322 44.7192 48.6832 44.7192C48.2707 44.7192 47.8664 44.703 47.4701 44.6868C47.0738 44.6706 46.6937 44.6544 46.3136 44.6544C44.9793 44.6544 43.75 44.8485 42.5612 45.9241L43.281 47.1372C42.2539 48.9891 43.6125 49.6038 45.788 49.6038C49.5081 49.6038 55.6543 47.8165 56.5196 47.396C56.8269 47.2504 57.1261 47.0887 57.4092 46.9269C57.2555 48.3745 57.0453 49.8221 56.7865 51.294C55.4602 51.8601 54.2066 52.4828 53.0744 53.154C50.4219 54.7229 48.392 56.1786 46.2732 56.1786C44.8418 56.1786 43.378 55.5074 41.6393 53.7686C38.5339 50.6308 34.9513 47.493 31.0452 45.6411C33.3257 40.1337 34.4741 35.1763 30.0828 34.2382C29.7027 34.1574 29.3064 34.1169 28.9101 34.1169C23.2249 34.1169 16.0759 42.1636 11.9596 50.0809C10.7222 51.3749 9.56572 52.7577 8.41735 54.0921C6.77567 56.0088 6.3147 56.4697 6.23383 59.0414C6.1934 60.0362 6.67054 62.5998 7.32559 62.5998C7.56012 62.5998 7.81894 62.2682 8.08581 61.4271V60.1008C8.28799 59.8097 8.49824 59.5186 8.71659 59.2274C7.9564 63.4246 7.45502 67.5652 7.19623 71.6654L6.08828 75.345C5.94271 78.8306 3.96141 81.5317 1.24414 83.8365V83.8365ZM42.3348 46.1425C42.2215 46.2557 42.1003 46.377 41.987 46.5145C42.2135 46.4174 42.2782 46.2881 42.3348 46.1425ZM42.4965 45.8109C42.3995 45.9161 42.3752 46.0293 42.3348 46.1425C42.4076 46.0697 42.4803 45.9969 42.5612 45.9241L42.4965 45.8109ZM46.4592 71.8919C46.0225 71.8919 45.5696 71.8676 45.1168 71.8191C37.709 71.0832 36.2937 64.7914 32.7839 59.5429C31.0452 56.9469 29.0719 55.3699 27.0016 54.6097C27.6486 53.1055 28.4168 51.4881 29.177 49.8383C30.8025 50.4044 32.3715 51.3911 33.8352 52.8872C35.4122 54.4965 35.7519 56.7285 36.9892 58.4996C38.3964 60.5375 40.3372 61.791 42.4965 62.81C44.6396 63.8209 46.7341 64.2738 48.7721 64.2738C50.5512 64.2738 52.29 63.926 53.9883 63.2952C53.2685 65.8508 52.5084 68.3901 51.7563 70.8729C50.0741 71.5037 48.3192 71.8919 46.4592 71.8919V71.8919ZM118.912 31.5857C118.329 30.7527 117.747 29.9116 117.181 29.0625C120.02 28.2376 122.834 27.4936 125.592 26.4827C128.632 25.3667 135.434 23.2964 133.816 18.5492C133.469 17.5302 132.45 16.7619 131.689 16.4304L131.422 17.4898C130.217 22.6332 120.537 24.5579 116.275 25.5041C115.863 25.5931 115.442 25.682 115.022 25.771C114.059 24.2344 113.129 22.6818 112.256 21.1048C116.348 18.5169 112.515 15.929 115.111 12.4272C117.149 9.66954 121.063 10.9635 122.446 9.18434C122.486 9.11965 122.527 9.05492 122.575 8.99022C127.832 11.4891 132.797 14.5057 137.399 17.9751C138.749 19.0183 140.076 20.102 141.362 21.2261C141.281 21.2908 141.2 21.3554 141.119 21.4201C138.741 23.3287 136.275 25.1564 133.331 26.4988C128.406 28.7309 123.707 30.3322 118.912 31.5857" fill="#F562DC"/>
<path d="M7.73577 98.2502C6.99489 98.2502 6.21734 98.0155 5.43978 97.4873C3.03375 95.8442 1.88936 91.9711 4.64749 90.0051L4.38344 89.7411C4.61084 89.8145 4.83092 89.8438 5.05832 89.8438C5.88723 89.8438 6.70877 89.3963 7.48633 88.6775C7.80176 91.817 8.2419 94.9493 8.8214 98.0888C8.4693 98.1915 8.10988 98.2502 7.73577 98.2502V98.2502ZM38.3027 80.0656C35.6839 80.0656 32.9037 79.6548 30.8498 79.222C28.3484 78.6939 25.1575 76.64 22.546 76.64C22.4727 76.64 22.4141 76.64 22.348 76.6473C22.7221 72.6715 23.3163 68.7177 24.1012 64.8299C25.5243 65.5781 26.7126 66.8765 27.4755 68.571C29.4854 73.0309 33.6593 75.0628 38.5227 75.1949C38.5741 75.1949 38.6181 75.1949 38.6621 75.1949C39.425 75.1949 40.1512 75.0261 40.8701 74.8574C41.5816 74.6887 42.2858 74.52 42.99 74.52C43.5842 74.52 44.193 74.6447 44.8092 74.9895C47.5527 76.5079 46.0562 78.0117 43.8189 79.0974C42.3665 79.8089 40.386 80.0656 38.3027 80.0656" fill="#CF4ACE"/>
<path d="M138.222 61.7463C138.009 61.2491 137.788 60.7439 137.567 60.2467C135.547 55.7481 132.974 51.4862 130.164 47.3191C130.756 47.6821 131.332 48.0846 131.901 48.5186C135.973 51.6993 138.041 54.8168 138.309 60.0967C138.325 60.4756 138.301 61.0439 138.222 61.7463V61.7463ZM126.431 38.669C126.297 38.669 126.179 38.669 126.076 38.6611C125.389 38.6296 124.632 38.5348 123.866 38.4559C123.053 37.3431 122.248 36.2382 121.451 35.1254C121.775 35.0701 122.106 35.0149 122.43 34.9517C123.511 34.7386 125.745 34.4229 127.82 34.4229C129.533 34.4229 131.135 34.636 131.901 35.2911C135.073 38.0061 128.665 38.669 126.431 38.669" fill="#CF4ACE"/>
<path d="M42.1295 28.9788C40.9373 28.9788 39.6494 28.7065 38.2437 28.081C34.9247 26.5944 32.4225 19.2939 37.4637 18.5506L39.5758 17.1891C40.6576 17.2112 41.7027 17.3805 42.7109 17.6601C42.1516 18.8671 41.32 20.3022 41.4672 20.8909C41.6659 20.9277 41.8645 20.9424 42.0706 20.9424C43.4542 20.9424 45.1027 20.2727 46.7291 19.4043C48.5395 20.4861 50.1365 21.8476 51.4465 23.2312C51.4391 23.2385 51.4318 23.2459 51.4244 23.2532C48.7235 26.2485 45.8902 28.9788 42.1295 28.9788" fill="#CF4ACE"/>
<path d="M155.59 80.3969C154.136 80.3969 152.513 80.18 150.947 79.9711C149.372 79.7542 147.854 79.5453 146.609 79.5453C146.046 79.5453 145.54 79.5855 145.114 79.6899C144.745 79.7783 144.391 79.8907 144.03 80.0193C143.347 76.7015 142.455 73.3757 141.379 70.082C142.279 68.644 142.929 67.0132 143.074 65.3904L143.596 64.0729C143.468 64.097 143.516 64.3702 143.331 64.3702C143.283 64.3702 143.211 64.3461 143.122 64.2979C142.737 61.2372 144.006 59.9438 145.701 59.9438C147.155 59.9438 148.906 60.8837 150.224 62.4823C153.172 66.0572 159.607 69.9454 160.482 74.7253C161.318 79.3124 158.868 80.3969 155.59 80.3969" fill="#CF4ACE"/>
<path d="M48.7657 64.2744C46.7328 64.2744 44.6408 63.8235 42.4897 62.8108C40.3312 61.7981 38.3945 60.534 36.9826 58.5011C35.7555 56.727 35.4081 54.502 33.8262 52.8831C32.3699 51.3973 30.8028 50.4068 29.1765 49.845C29.8196 48.4479 30.4702 47.0285 31.0393 45.6388C34.9498 47.4942 38.5276 50.6359 41.6323 53.7702C43.3694 55.5147 44.8404 56.18 46.2745 56.18C48.3886 56.18 50.4215 54.7238 53.0752 53.1493C54.1988 52.484 55.4555 51.863 56.7861 51.2938C56.0986 55.2634 55.1007 59.3069 53.9845 63.2986C52.2843 63.927 50.5472 64.2744 48.7657 64.2744V64.2744ZM7.31799 62.5964C6.66748 62.5964 6.1944 60.0387 6.22397 59.0482C6.31267 56.4683 6.771 56.01 8.41944 54.0881C9.55783 52.7575 10.7184 51.3752 11.9602 50.0815C10.4375 53.0088 9.33604 55.9139 8.87034 58.3829C8.81859 58.6712 8.75948 58.9521 8.71513 59.233C8.49337 59.5213 8.27895 59.8169 8.07936 60.1052V61.4284C7.81325 62.2711 7.55454 62.5964 7.31799 62.5964" fill="#F773E3"/>
<path d="M37.5037 147.987C37.4143 147.987 37.3098 147.98 37.198 147.972C35.0431 147.794 33.947 146.22 34.6032 144.259C34.6628 144.073 34.7448 143.894 34.8269 143.722C35.2892 143.857 35.7067 143.939 36.0572 143.939C36.1019 143.946 36.1541 143.946 36.1989 143.946C39.1218 143.946 39.7183 142.388 39.1516 140.218C41.2766 139.338 43.6776 138.861 45.4075 138.458C47.7041 137.929 50.1497 137.795 52.6178 137.795C54.9964 137.795 57.3973 137.914 59.7014 137.914C59.9176 137.914 60.1413 137.914 60.365 137.914C62.5423 139.248 64.8538 140.427 67.2622 141.433C63.8173 141.746 60.4023 141.955 57.2706 142.417C52.6775 143.096 46.0115 142.753 41.9776 145.132C40.285 146.131 39.5841 147.987 37.5037 147.987Z" fill="#F773E3"/>
<path d="M56.4965 163.333C53.6146 163.333 51.8015 155.759 55.7364 153.051C57.9294 151.544 60.5422 151.176 63.2894 151.176C64.6116 151.176 65.9575 151.261 67.3114 151.346C68.6573 151.43 70.0033 151.515 71.3176 151.515C73.1148 151.515 74.8407 151.358 76.4321 150.829C79.6623 149.749 81.4516 147.816 82.9797 145.607C84.9273 145.862 86.8908 146.031 88.8463 146.114C88.3317 147.126 87.8963 148.212 87.5479 149.365C86.4791 152.966 86.8274 157.045 81.9346 157.241C81.8475 157.244 81.7684 157.246 81.6892 157.246C78.9181 157.246 76.2341 155.394 73.5264 154.858C72.5605 154.668 71.4759 154.566 70.3437 154.566C64.865 154.566 58.2778 156.942 58.9033 163.064L58.3729 162.269C57.7237 163.015 57.0903 163.333 56.4965 163.333V163.333ZM114.522 147.409C113.501 147.409 112.456 146.945 111.632 146.065C110.555 144.911 110.54 144.091 110.801 143.302C113.643 142.418 116.295 141.387 118.758 140.223C119.074 140.25 119.399 140.262 119.724 140.262C122.463 140.262 125.543 139.412 127.981 139.301C128.631 139.273 129.557 139.239 130.61 139.239C134.608 139.239 140.586 139.715 141.694 142.677C142.383 144.544 140.285 146.765 138.575 146.924C138.488 146.931 138.408 146.934 138.329 146.934C136.445 146.934 133.745 145.066 131.94 144.595C130.119 144.123 128.108 143.697 126.145 143.697C125.329 143.697 124.514 143.772 123.73 143.949C121.291 144.5 119.502 146.817 117.166 147.142C117.158 146.82 117.087 146.465 117.087 146.145C116.398 147.001 115.472 147.409 114.522 147.409" fill="#F773E3"/>
<path d="M159.387 102.538C156.651 102.538 153.794 100.311 150.993 99.6003C149.855 99.3097 148.733 99.1967 147.611 99.1967C146.925 99.1967 146.239 99.2451 145.553 99.3097C145.642 97.8972 145.682 96.4766 145.666 95.0479C147.038 94.9833 148.386 94.9349 149.677 94.9349C150.678 94.9349 151.655 94.9672 152.583 95.0399C155.545 95.282 167.54 96.1215 162.907 100.932C161.769 102.111 160.59 102.538 159.387 102.538Z" fill="#F773E3"/>
<path d="M117.181 29.0676C116.441 27.9731 115.724 26.8785 115.023 25.776C115.441 25.6894 115.858 25.5949 116.276 25.5004C120.536 24.5634 130.221 22.6341 131.418 17.4919L131.686 16.4368C132.442 16.7675 133.474 17.5313 133.82 18.5472C135.434 23.2956 128.631 25.3666 125.591 26.4848C122.835 27.4927 120.016 28.2408 117.181 29.0676" fill="#F773E3"/>
<path d="M144.949 140.717C144.12 140.717 143.204 140.452 142.263 139.843C138.597 137.48 136.365 133.885 131.694 133.147C131.256 133.08 130.841 133.05 130.427 133.05C130.244 133.05 130.06 133.056 129.877 133.068C131.734 131.47 133.408 129.759 134.914 127.949C139.569 128.178 144.822 129.172 147.516 131.624C151.087 134.873 148.863 140.717 144.949 140.717" fill="#F773E3"/>
<path d="M41.9902 46.5099C42.0998 46.3784 42.2167 46.2543 42.3335 46.1447C42.2751 46.2835 42.2166 46.4149 41.9902 46.5099Z" fill="#F773E3"/>
<path d="M42.3359 46.1367C42.3798 46.0271 42.4089 45.9103 42.4966 45.808L42.5624 45.9176C42.4893 45.9906 42.409 46.0637 42.3359 46.1367Z" fill="#F773E3"/>
<path d="M45.7953 49.6013C43.6129 49.6013 42.2592 48.9873 43.2875 47.1304L42.5625 45.9245C43.7536 44.8518 44.989 44.6521 46.3132 44.6521C46.6979 44.6521 47.0826 44.6669 47.4747 44.6891C47.8668 44.7039 48.2737 44.7187 48.688 44.7187C49.3316 44.7187 50.0048 44.6817 50.7002 44.5411C53.1194 44.075 55.6346 43.1207 57.7356 41.6559C57.7282 43.3796 57.6099 45.1404 57.4175 46.9307C57.129 47.0934 56.8257 47.2488 56.5223 47.3967C55.6642 47.811 49.5165 49.6013 45.7953 49.6013" fill="#F773E3"/>
<path d="M28.7026 140.888C28.3391 140.691 28.0119 140.51 27.7211 140.357C24.3696 138.554 22.8284 135.835 20.9891 132.672C17.0487 125.86 14.4823 119.535 12.1922 111.945C10.7891 107.285 9.66225 102.676 8.81165 98.0886C10.5856 97.5651 12.0832 95.8348 12.9193 94.0391C15.3257 88.9137 15.8781 82.2034 19.7822 77.8341C20.5092 77.0198 21.3816 76.6854 22.3413 76.649C21.7742 82.5741 21.6942 88.5502 22.2104 94.4317C23.221 105.882 25.0749 117.5 31.2181 127.372C32.0251 128.667 34.8095 132.084 36.896 135.486C34.1261 137.187 31.3489 139.194 28.7026 140.888ZM7.48123 88.681C6.9287 83.0394 6.82692 77.3906 7.19043 71.6617L7.79383 69.6625C9.95305 61.5563 16.9977 54.0536 23.868 54.0536C24.9222 54.0536 25.969 54.2281 26.9941 54.6061C26.3107 56.191 25.751 57.6377 25.4456 58.8446C24.944 60.822 24.4933 62.814 24.0934 64.8351C23.1992 64.3625 22.2105 64.1081 21.1854 64.1081C19.6732 64.1081 18.0737 64.6534 16.5397 65.8675C12.7229 68.8846 13.6317 74.9987 12.5921 79.1645C12.0687 81.2583 9.98942 86.3764 7.48123 88.681" fill="#CB65D3"/>
<path d="M34.8232 143.724C32.995 143.192 30.4602 141.838 28.7047 140.883C31.3561 139.186 34.1312 137.183 36.8991 135.479C37.9262 137.147 38.7857 138.815 39.1499 140.221C37.2706 141 35.6026 142.093 34.8232 143.724ZM7.19531 71.657C7.45753 67.5635 7.96015 63.4261 8.71768 59.2306C12.5053 54.212 19.1045 49.2225 25.478 49.2225C26.7235 49.2225 27.969 49.4119 29.1782 49.8343C28.4207 51.4878 27.6559 53.1048 27.0003 54.6053C25.9733 54.2265 24.9317 54.0518 23.8682 54.0518C17.0068 54.0518 9.95591 61.5542 7.79986 69.6612L7.19531 71.657V71.657ZM11.9663 50.0748C16.0817 42.1644 23.2272 34.1157 28.916 34.1157C29.3093 34.1157 29.7027 34.1521 30.0814 34.2322C34.4736 35.1719 33.3301 40.1322 31.0429 45.6388C28.8432 44.5972 26.5414 43.9563 24.1596 43.9563C21.7778 43.9563 19.323 44.5899 16.8101 46.0831C15.0037 47.1539 13.4304 48.5524 11.9663 50.0748" fill="#F781E3"/>
<path d="M8.81286 98.0918C8.23753 94.9491 7.79166 91.8207 7.48242 88.6852C9.98508 86.3767 12.0706 81.2636 12.5956 79.1636C13.6384 74.9997 12.7251 68.8797 16.5438 65.8664C18.0756 64.651 19.6793 64.1045 21.1823 64.1045C22.2107 64.1045 23.196 64.3634 24.0949 64.8309C23.311 68.7215 22.7141 72.6768 22.3401 76.6466C21.3837 76.6897 20.5135 77.0205 19.7871 77.8332C15.8821 82.2056 15.3284 88.9081 12.9264 94.0429C12.085 95.8336 10.582 97.5668 8.81286 98.0918Z" fill="#D96ED8"/>
<path d="M8.7168 59.229C8.76744 58.9469 8.81805 58.6647 8.86869 58.3826C9.33891 55.9085 10.4458 53.0076 11.9577 50.0778C13.4262 48.5586 15.0033 47.1551 16.8046 46.0845C19.3221 44.5942 21.7745 43.9576 24.1545 43.9576C26.5345 43.9576 28.8423 44.5942 31.0415 45.6432C30.47 47.0249 29.8261 48.4428 29.175 49.839C27.9669 49.4194 26.7226 49.2241 25.4783 49.2241C19.105 49.2241 12.5003 54.2157 8.7168 59.229" fill="#F98FE9"/>
<path d="M36.2016 143.946C36.1578 143.946 36.1068 143.946 36.0631 143.938C35.706 143.938 35.2906 143.858 34.8242 143.72C35.604 142.087 37.2728 140.994 39.153 140.222C39.7214 142.393 39.1238 143.946 36.2016 143.946Z" fill="#F98FE9"/>
</svg>
