<svg width="356" height="356" viewBox="0 0 356 356" fill="none" xmlns="http://www.w3.org/2000/svg">
<path d="M133.5 68.2333C129.627 68.2333 126.34 70.7127 125.117 74.1674H118.519C117.926 68.2014 115.566 62.7561 111.97 58.361L116.638 53.693C119.945 55.2705 124.021 54.6994 126.76 51.9604C130.236 48.485 130.236 42.8498 126.76 39.3744C123.285 35.8982 117.65 35.8982 114.174 39.3744C111.435 42.1134 110.864 46.1903 112.442 49.4981L107.775 54.1654C103.379 50.5683 97.9339 48.2076 91.9672 47.615V41.0164C95.4211 39.7934 97.9005 36.5071 97.9005 32.6334C97.9005 27.7184 93.9155 23.7334 89.0005 23.7334C84.0855 23.7334 80.1005 27.7184 80.1005 32.6334C80.1005 36.5064 82.5792 39.7927 86.0331 41.0157V47.615C80.0671 48.2076 74.6218 50.5683 70.2267 54.1654L65.5594 49.4981C67.1377 46.1903 66.5666 42.1134 63.8276 39.3744C60.3522 35.8982 54.717 35.8982 51.2416 39.3744C47.7661 42.8498 47.7661 48.485 51.2416 51.9604C53.9805 54.6994 58.056 55.2705 61.3638 53.693L66.0319 58.361C62.4355 62.7561 60.0748 68.2014 59.483 74.1674H52.8844C51.6606 70.7127 48.3743 68.2333 44.5006 68.2333C39.5856 68.2333 35.6006 72.2183 35.6006 77.1333C35.6006 82.0483 39.5856 86.0333 44.5006 86.0333C48.3736 86.0333 51.6599 83.5547 52.8829 80.1007H59.4822C60.0748 86.0667 62.4355 91.512 66.0326 95.9071L61.3653 100.574C58.0575 98.9961 53.9805 99.5672 51.2416 102.306C47.7661 105.782 47.7661 111.417 51.2416 114.892C54.717 118.368 60.3522 118.368 63.8276 114.892C66.5666 112.153 67.1377 108.078 65.5602 104.77L70.2282 100.102C74.6233 103.698 80.0679 106.058 86.0331 106.651V113.249C82.5792 114.474 80.1005 117.76 80.1005 121.633C80.1005 126.548 84.0855 130.533 89.0005 130.533C93.9155 130.533 97.9005 126.548 97.9005 121.633C97.9005 117.76 95.4211 114.473 91.9664 113.25V106.652C97.9324 106.059 103.378 103.699 107.773 100.103L112.441 104.771C110.863 108.078 111.434 112.154 114.173 114.893C117.649 118.368 123.284 118.368 126.759 114.893C130.235 111.418 130.235 105.782 126.759 102.307C124.02 99.568 119.944 98.9969 116.636 100.575L111.968 95.9078C115.565 91.5127 117.925 86.0674 118.519 80.1015H125.117C126.34 83.5554 129.627 86.0341 133.5 86.0341C138.415 86.0341 142.4 82.0491 142.4 77.1341C142.4 72.219 138.416 68.2333 133.5 68.2333Z" fill="#23AAE6"/>
<path d="M79.1119 75.1552C84.5732 75.1552 89.0005 70.7279 89.0005 65.2666C89.0005 59.8052 84.5732 55.3779 79.1119 55.3779C73.6506 55.3779 69.2233 59.8052 69.2233 65.2666C69.2233 70.7279 73.6506 75.1552 79.1119 75.1552Z" fill="#5AD7FF"/>
<path d="M323.367 258.1C319.493 258.1 316.207 260.579 314.984 264.034H308.385C307.793 258.067 305.433 252.622 301.835 248.227L306.504 243.559C309.811 245.136 313.888 244.565 316.626 241.826C320.101 238.351 320.101 232.716 316.626 229.24C313.15 225.764 307.515 225.764 304.04 229.24C301.301 231.979 300.73 236.056 302.308 239.364L297.641 244.031C293.245 240.434 287.799 238.073 281.833 237.481V230.882C285.287 229.659 287.767 226.373 287.767 222.499C287.767 217.584 283.782 213.599 278.867 213.599C273.952 213.599 269.967 217.584 269.967 222.499C269.967 226.372 272.445 229.658 275.899 230.881V237.48C269.933 238.073 264.488 240.433 260.093 244.03L255.426 239.363C257.004 236.055 256.433 231.978 253.694 229.239C250.219 225.763 244.583 225.763 241.108 229.239C237.632 232.715 237.632 238.35 241.108 241.825C243.847 244.564 247.923 245.135 251.23 243.558L255.898 248.226C252.302 252.621 249.941 258.066 249.349 264.033H242.75C241.527 260.579 238.241 258.1 234.367 258.1C229.452 258.1 225.467 262.085 225.467 267C225.467 271.915 229.452 275.9 234.367 275.9C238.24 275.9 241.526 273.421 242.749 269.967H249.348C249.94 275.933 252.301 281.378 255.898 285.774L251.231 290.441C247.923 288.863 243.846 289.433 241.107 292.173C237.632 295.648 237.632 301.283 241.107 304.759C244.583 308.234 250.218 308.234 253.693 304.759C256.432 302.02 257.003 297.944 255.426 294.636L260.094 289.968C264.489 293.565 269.933 295.925 275.899 296.518V303.117C272.445 304.34 269.967 307.627 269.967 311.5C269.967 316.415 273.952 320.4 278.867 320.4C283.782 320.4 287.767 316.415 287.767 311.5C287.767 307.626 285.287 304.34 281.833 303.117V296.518C287.799 295.925 293.244 293.565 297.64 289.968L302.308 294.636C300.73 297.944 301.301 302.02 304.04 304.759C307.516 308.234 313.151 308.234 316.627 304.759C320.102 301.283 320.102 295.648 316.627 292.173C313.888 289.434 309.811 288.863 306.503 290.441L301.835 285.774C305.433 281.378 307.793 275.933 308.386 269.967H314.984C316.207 273.421 319.494 275.9 323.367 275.9C328.282 275.9 332.267 271.915 332.267 267C332.267 262.085 328.283 258.1 323.367 258.1Z" fill="#23AAE6"/>
<path d="M268.978 265.021C274.44 265.021 278.867 260.594 278.867 255.133C278.867 249.671 274.44 245.244 268.978 245.244C263.517 245.244 259.09 249.671 259.09 255.133C259.09 260.594 263.517 265.021 268.978 265.021Z" fill="#5AD7FF"/>
<path d="M278.867 17.7998C262.483 17.7998 247.649 24.4407 236.912 35.1778L153.845 118.244C143.108 128.982 136.467 143.815 136.467 160.2C136.467 192.969 163.031 219.533 195.8 219.533C212.184 219.533 227.018 212.892 237.756 202.155L320.822 119.088C331.559 108.35 338.2 93.5172 338.2 77.133C338.2 44.364 311.636 17.7998 278.867 17.7998Z" fill="#5AD7FF"/>
<path d="M278.867 35.6001C267.398 35.6001 257.014 40.2489 249.498 47.7649L166.432 130.831C158.916 138.347 154.267 148.731 154.267 160.2C154.267 183.138 172.862 201.733 195.8 201.733C207.269 201.733 217.653 197.084 225.169 189.568L308.235 106.502C315.751 98.9858 320.4 88.6025 320.4 77.1334C320.4 54.1951 301.805 35.6001 278.867 35.6001Z" fill="#23AAE6"/>
<path d="M154.267 166.133C150.99 166.133 148.334 163.477 148.334 160.2C148.334 147.521 153.271 135.601 162.237 126.636L245.303 43.5695C254.268 34.6043 266.188 29.667 278.867 29.667C282.143 29.667 284.8 32.3236 284.8 35.6003C284.8 38.877 282.143 41.5336 278.867 41.5336C269.358 41.5336 260.418 45.2368 253.695 51.9607L170.628 135.027C163.903 141.751 160.2 150.691 160.2 160.2C160.2 163.477 157.544 166.133 154.267 166.133Z" fill="#A5FFFF"/>
<path d="M201.734 179.977C214.841 179.977 225.467 169.352 225.467 156.244C225.467 143.137 214.841 132.511 201.734 132.511C188.626 132.511 178 143.137 178 156.244C178 169.352 188.626 179.977 201.734 179.977Z" fill="#FAA019"/>
<path d="M201.734 168.111C208.287 168.111 213.6 162.798 213.6 156.245C213.6 149.691 208.287 144.378 201.734 144.378C195.18 144.378 189.867 149.691 189.867 156.245C189.867 162.798 195.18 168.111 201.734 168.111Z" fill="#FFD205"/>
<path d="M255.134 130.533C258.41 130.533 261.067 127.877 261.067 124.6C261.067 121.323 258.41 118.667 255.134 118.667C251.857 118.667 249.2 121.323 249.2 124.6C249.2 127.877 251.857 130.533 255.134 130.533Z" fill="#FFD205"/>
<path d="M278.867 88.9999C288.697 88.9999 296.667 81.0305 296.667 71.1999C296.667 61.3692 288.697 53.3999 278.867 53.3999C269.036 53.3999 261.067 61.3692 261.067 71.1999C261.067 81.0305 269.036 88.9999 278.867 88.9999Z" fill="#FAA019"/>
<path d="M278.867 77.1328C282.144 77.1328 284.8 74.4763 284.8 71.1994C284.8 67.9226 282.144 65.2661 278.867 65.2661C275.59 65.2661 272.933 67.9226 272.933 71.1994C272.933 74.4763 275.59 77.1328 278.867 77.1328Z" fill="#FFD205"/>
<path d="M278.867 23.7333C275.59 23.7333 272.933 21.0767 272.933 17.8V5.93332C272.933 2.65665 275.59 0 278.867 0C282.143 0 284.8 2.65665 284.8 5.93332V17.8C284.8 21.0767 282.143 23.7333 278.867 23.7333Z" fill="#5AD7FF"/>
<path d="M320.821 41.1119C319.302 41.1119 317.784 40.5326 316.627 39.3742C314.309 37.0572 314.309 33.3007 316.626 30.9837L325.016 22.5925C327.334 20.2755 331.091 20.2748 333.407 22.5925C335.724 24.9095 335.724 28.666 333.407 30.983L325.017 39.3742C323.859 40.5319 322.34 41.1119 320.821 41.1119Z" fill="#5AD7FF"/>
<path d="M350.067 83.0668H338.2C334.923 83.0668 332.267 80.4102 332.267 77.1335C332.267 73.8568 334.923 71.2002 338.2 71.2002H350.067C353.343 71.2002 356 73.8568 356 77.1335C356 80.4102 353.343 83.0668 350.067 83.0668Z" fill="#5AD7FF"/>
<path d="M329.213 133.413C327.694 133.413 326.176 132.833 325.017 131.675L316.627 123.284C314.31 120.967 314.31 117.21 316.627 114.893C318.945 112.576 322.702 112.576 325.018 114.893L333.408 123.284C335.725 125.602 335.725 129.358 333.407 131.675C332.25 132.833 330.731 133.413 329.213 133.413Z" fill="#5AD7FF"/>
<path d="M236.912 41.1119C235.393 41.1119 233.875 40.5326 232.717 39.3742L224.326 30.983C222.009 28.6653 222.009 24.9095 224.327 22.5925C226.644 20.2748 230.4 20.2755 232.717 22.5925L241.108 30.9837C243.425 33.3007 243.425 37.0572 241.107 39.3742C239.949 40.5319 238.431 41.1119 236.912 41.1119Z" fill="#5AD7FF"/>
<path d="M196.222 236.912C192.945 236.912 190.288 234.255 190.288 230.979V219.112C190.288 215.835 192.945 213.179 196.222 213.179C199.498 213.179 202.155 215.835 202.155 219.112V230.979C202.155 234.255 199.498 236.912 196.222 236.912Z" fill="#5AD7FF"/>
<path d="M136.888 165.712H125.022C121.745 165.712 119.088 163.056 119.088 159.779C119.088 156.502 121.745 153.846 125.022 153.846H136.888C140.165 153.846 142.822 156.502 142.822 159.779C142.822 163.056 140.166 165.712 136.888 165.712Z" fill="#5AD7FF"/>
<path d="M154.267 123.756C152.749 123.756 151.23 123.177 150.071 122.019L141.681 113.628C139.363 111.311 139.363 107.555 141.681 105.238C143.998 102.921 147.754 102.921 150.071 105.238L158.462 113.628C160.78 115.945 160.78 119.702 158.462 122.019C157.304 123.177 155.785 123.756 154.267 123.756Z" fill="#5AD7FF"/>
<path d="M195.379 82.6451C193.86 82.6451 192.342 82.0658 191.183 80.9074L182.793 72.5162C180.475 70.1985 180.476 66.4427 182.793 64.1257C185.111 61.808 188.868 61.8087 191.184 64.1257L199.575 72.5169C201.892 74.8339 201.892 78.5904 199.574 80.9074C198.415 82.0651 196.897 82.6451 195.379 82.6451Z" fill="#5AD7FF"/>
<path d="M288.006 175.274C286.488 175.274 284.969 174.694 283.811 173.536L275.42 165.145C273.103 162.828 273.103 159.071 275.421 156.754C277.738 154.436 281.495 154.437 283.812 156.754L292.202 165.145C294.519 167.463 294.519 171.219 292.201 173.536C291.044 174.694 289.525 175.274 288.006 175.274Z" fill="#5AD7FF"/>
<path d="M246.568 216.057C245.049 216.057 243.531 215.477 242.373 214.319L233.982 205.929C231.664 203.612 231.664 199.855 233.981 197.537C236.299 195.22 240.056 195.22 242.372 197.537L250.763 205.928C253.081 208.245 253.081 212.001 250.764 214.319C249.605 215.477 248.087 216.057 246.568 216.057Z" fill="#5AD7FF"/>
<path d="M65.2671 344.133C61.9904 344.133 59.3337 341.476 59.3337 338.199C59.3337 306.005 71.8709 275.738 94.6355 252.973L156.005 191.604C158.322 189.287 162.078 189.287 164.395 191.604C166.713 193.921 166.713 197.677 164.395 199.994L103.026 261.364C82.5034 281.888 71.2004 309.175 71.2004 338.199C71.2004 341.476 68.5445 344.133 65.2671 344.133Z" fill="#5AD7FF"/>
<path d="M112.734 356C111.216 356 109.697 355.421 108.538 354.262C106.221 351.945 106.221 348.189 108.538 345.872L118.965 335.445C134.077 320.332 142.4 300.238 142.4 278.867C142.4 254.325 151.958 231.252 169.311 213.898L179.738 203.471C182.056 201.154 185.812 201.154 188.129 203.471C190.446 205.788 190.446 209.545 188.129 211.862L177.701 222.289C162.59 237.402 154.267 257.495 154.267 278.867C154.267 303.408 144.71 326.482 127.356 343.835L116.929 354.262C115.771 355.421 114.252 356 112.734 356Z" fill="#5AD7FF"/>
<path d="M5.93388 261.066C4.41569 261.066 2.89676 260.487 1.73828 259.329C-0.579426 257.012 -0.579426 253.255 1.73828 250.938L16.361 236.316C31.0089 221.667 50.485 213.6 71.2005 213.6C88.7468 213.6 105.242 206.767 117.649 194.36L144.138 167.871C146.455 165.554 150.212 165.554 152.529 167.871C154.846 170.188 154.846 173.945 152.529 176.261L126.039 202.751C111.392 217.399 91.9159 225.467 71.2005 225.467C53.6541 225.467 37.1587 232.3 24.7522 244.706L10.1295 259.329C8.971 260.487 7.45207 261.066 5.93388 261.066Z" fill="#5AD7FF"/>
</svg>
