<svg width="320" height="320" viewBox="0 0 320 320" fill="none" xmlns="http://www.w3.org/2000/svg">
<g clip-path="url(#clip0)">
<path d="M256.992 95.2661C256.992 103.218 255.881 110.906 253.809 118.188C243.843 153.267 211.572 178.955 173.303 178.955C127.087 178.955 89.6167 141.484 89.6167 95.2661C89.6167 60.6201 110.669 30.8936 140.679 18.1763C150.708 13.9331 161.731 11.5796 173.303 11.5796C182.549 11.5796 191.44 13.0762 199.758 15.8472L199.763 15.8545C228.264 25.3418 249.944 49.7412 255.559 79.7974C256.501 84.812 256.992 89.9829 256.992 95.2661Z" fill="#F96EB3"/>
<path d="M256.992 95.2661C256.992 103.218 255.881 110.906 253.809 118.188L147.805 98.5352L140.679 18.1763C150.708 13.9331 161.731 11.5796 173.303 11.5796C182.549 11.5796 191.44 13.0762 199.758 15.8472L199.763 15.8545C187.368 28.2568 194.226 55.3833 222.339 70.4224C234.199 76.77 245.942 79.1577 255.559 79.7974C256.501 84.812 256.992 89.9829 256.992 95.2661Z" fill="#E4D2D8"/>
<path d="M45.6616 214.605C21.8237 214.605 2.5 195.281 2.5 171.443C2.5 147.605 21.8237 128.279 45.6616 128.279H274.641C298.479 128.279 317.805 147.605 317.805 171.443C317.805 195.281 298.479 214.605 274.641 214.605" fill="#DBFF00"/>
<path d="M274.641 183.589C271.934 183.589 269.739 181.394 269.739 178.684C269.739 164.014 276.995 158.816 281.321 157.024C288.145 154.199 296.831 156.148 302.449 161.768C304.363 163.682 304.363 166.787 302.449 168.701C300.532 170.618 297.427 170.615 295.513 168.701C292.671 165.857 288.279 164.758 285.073 166.084C281.509 167.561 279.546 172.036 279.546 178.684C279.546 181.394 277.351 183.589 274.641 183.589Z" fill="#0C843D"/>
<path d="M274.639 95.7495V204.414C274.639 267.8 223.596 319.968 160.208 320C96.9531 320.032 45.6616 268.762 45.6616 205.513V79.4238C45.6616 35.5615 81.2207 0 125.085 0H153.782C154.421 54.2847 198.625 98.103 253.069 98.103C260.476 98.103 267.695 97.2925 274.639 95.7495Z" fill="#A6D520"/>
<path d="M45.6615 183.589C42.954 183.589 40.7592 181.394 40.7592 178.684C40.7592 172.036 38.7963 167.561 35.2294 166.084C32.0238 164.758 27.6342 165.857 24.7899 168.701C22.8759 170.618 19.7704 170.618 17.8563 168.701C15.9398 166.787 15.9398 163.682 17.8563 161.768C23.474 156.148 32.163 154.199 38.9843 157.024C43.308 158.816 50.5663 164.014 50.5663 178.684C50.5663 181.394 48.3715 183.589 45.6615 183.589Z" fill="#0C843D"/>
<path d="M159.275 319.993C96.4429 319.529 45.6616 268.447 45.6616 205.513V79.4238C45.6616 35.5615 81.2158 0 125.081 0H139.524C113.723 0 92.8027 35.5615 92.8027 79.4238V205.513C92.8027 268.245 122.478 319.197 159.275 319.993Z" fill="#DBFF00"/>
<path d="M221.707 139.875L212.459 149.121L203.213 139.875C199.128 135.791 192.505 135.791 188.42 139.875C184.333 143.96 184.333 150.583 188.42 154.67L197.666 163.916L188.42 173.162C184.333 177.246 184.333 183.87 188.42 187.956C192.505 192.041 199.128 192.041 203.213 187.956L212.459 178.708L221.707 187.956C225.791 192.041 232.415 192.041 236.499 187.956C240.584 183.87 240.584 177.246 236.499 173.162L227.253 163.916L236.499 154.67C240.584 150.583 240.584 143.96 236.499 139.875C232.415 135.791 225.791 135.791 221.707 139.875Z" fill="#2A2D49"/>
<path d="M117.087 139.875L107.839 149.121L98.5938 139.875C94.5093 135.791 87.8857 135.791 83.8013 139.875C79.7144 143.96 79.7144 150.583 83.8013 154.67L93.0469 163.916L83.8013 173.162C79.7144 177.246 79.7144 183.87 83.8013 187.956C87.8857 192.041 94.5093 192.041 98.5938 187.956L107.839 178.708L117.087 187.956C121.172 192.041 127.795 192.041 131.88 187.956C135.964 183.87 135.964 177.246 131.88 173.162L122.634 163.916L131.88 154.67C135.964 150.583 135.964 143.96 131.88 139.875C127.795 135.791 121.172 135.791 117.087 139.875Z" fill="#2A2D49"/>
<path d="M92.8003 43.3862C92.8003 57.1875 81.6138 68.3765 67.8125 68.3765C59.9268 68.3765 52.8931 64.7266 48.3154 59.0186C52.4927 43.2227 61.4307 29.3555 73.4937 19.0381C84.5557 21.6138 92.8003 31.5405 92.8003 43.3862Z" fill="#83C65D"/>
<path d="M181.318 216.875H138.979C120.723 216.875 105.923 231.675 105.923 249.932V260.774H214.375V249.932C214.377 231.675 199.575 216.875 181.318 216.875Z" fill="#2A2D49"/>
<path d="M192.266 295.986C185.042 295.986 179.189 290.132 179.189 282.91V260.774H205.342V282.91C205.342 290.132 199.487 295.986 192.266 295.986Z" fill="#F96EB3"/>
<path d="M205.527 260.771H114.766C122.156 246.433 139.69 236.345 160.146 236.345C164.797 236.345 169.294 236.868 173.55 237.842C188.044 241.15 199.822 249.69 205.527 260.771Z" fill="#D83A6F"/>
<path d="M205.527 260.771H141.572C147.28 249.69 159.055 241.15 173.55 237.842C188.044 241.15 199.822 249.69 205.527 260.771Z" fill="#F96EB3"/>
<path d="M106.089 95.8789C106.089 104.717 98.9233 111.882 90.0854 111.882C81.2476 111.882 74.082 104.717 74.082 95.8789C74.082 87.041 81.2476 79.8755 90.0854 79.8755C98.9233 79.8755 106.089 87.041 106.089 95.8789Z" fill="#83C65D"/>
<path d="M134.287 59.4873C134.287 67.063 128.145 73.2031 120.569 73.2031C112.993 73.2031 106.851 67.063 106.851 59.4873C106.851 51.9092 112.993 45.769 120.569 45.769C128.145 45.769 134.287 51.9092 134.287 59.4873Z" fill="#83C65D"/>
</g>
<defs>
<clipPath id="clip0">
<rect width="320" height="320" fill="white"/>
</clipPath>
</defs>
</svg>
