<svg width="400" height="413" viewBox="0 0 400 413" fill="none" xmlns="http://www.w3.org/2000/svg">
<g opacity="0.7">
<path d="M295.052 258.098C286.193 275.847 288.003 322.299 287.686 322.617C287.686 332.142 282.034 339.953 275.112 339.953C269.901 339.529 265.487 335.947 263.999 330.935C253.442 302.105 247.776 271.713 247.234 241.016L295.052 258.098Z" fill="#E57E25"/>
<path d="M351.062 241.142C350.608 271.843 344.962 302.246 334.36 331.062C332.873 336.074 328.458 339.656 323.247 340.08C316.326 340.08 310.674 332.269 310.674 322.743C310.61 322.172 312.357 276.037 303.435 257.971L351.062 241.142Z" fill="#E57E25"/>
<path d="M247.362 241.143L295.052 258.098C293.481 261.544 292.299 265.154 291.528 268.862C270.572 267.846 256.887 262.607 248.028 255.209C247.584 248.414 247.393 243.397 247.362 241.143Z" fill="#D25627"/>
<path d="M303.308 258.098L350.935 241.27C350.903 243.524 350.776 248.477 350.268 255.272C340.488 263.528 326.169 268.005 306.769 268.925C306.049 265.192 304.887 261.557 303.308 258.098Z" fill="#D25627"/>
<path d="M332.519 161.574C339.647 173.313 345.654 185.698 350.459 198.564C366.017 241.428 344.553 260.098 299.117 260.13C253.681 260.162 232.28 241.238 247.743 198.596C252.565 185.752 258.56 173.381 265.651 161.637L332.519 161.574Z" fill="#F29C1F"/>
<path d="M318.277 179.848L280.16 179.848C277.68 179.848 275.67 181.858 275.67 184.337L275.67 217.74C275.67 220.22 277.68 222.23 280.16 222.23L318.277 222.23C320.757 222.23 322.767 220.22 322.767 217.74L322.767 184.337C322.767 181.858 320.757 179.848 318.277 179.848Z" fill="#F0C419"/>
<path d="M311.849 197.231C310.261 198.818 308.959 198.532 304.069 198.659C301.6 198.652 299.6 196.652 299.592 194.182C299.588 192.985 300.061 191.835 300.908 190.989C301.754 190.142 302.904 189.669 304.101 189.674L308.8 189.674C310.547 189.762 312.084 190.857 312.738 192.479C313.392 194.101 313.045 195.955 311.849 197.231Z" fill="#F29C1F"/>
<path d="M311.849 211.329C310.229 212.948 308.991 212.662 304.069 212.757C302.872 212.762 301.723 212.289 300.876 211.442C300.029 210.596 299.556 209.446 299.561 208.249C299.568 205.779 301.568 203.779 304.038 203.772L308.737 203.772C310.495 203.837 312.053 204.922 312.723 206.549C313.393 208.176 313.051 210.045 311.849 211.329Z" fill="#F29C1F"/>
<path d="M357.334 205.659L354.859 235.063C353.909 237.193 352.645 239.223 351.093 241.109C347.972 239.776 345.477 237.652 343.991 235.063C342.969 233.54 343.453 235.889 340.548 201.744L341.193 179.56L357.334 205.659Z" fill="#E57E25"/>
<path d="M242.374 205.952L244.774 235.113C245.695 237.226 246.922 239.239 248.426 241.109C251.453 239.787 253.872 237.681 255.313 235.113C256.304 233.603 255.835 235.933 258.652 202.069L258.026 180.069L242.374 205.952Z" fill="#E57E25"/>
<path d="M366.828 228.036C361.868 228.929 356.829 226.947 353.806 222.914C352.764 221.699 353.502 223.739 344.56 190.88L329.628 171.868L325.288 158.846C333.687 158.45 342.106 158.886 350.42 160.149C354.978 160.8 361.228 163.665 366.133 173.474C371.498 186.126 375.274 199.394 377.375 212.974C378.61 220.044 373.893 226.78 366.828 228.036Z" fill="#F29C1F"/>
<path d="M234.216 227.675C239.138 228.557 244.138 226.599 247.138 222.618C248.172 221.417 247.44 223.432 256.313 190.986L271.131 172.212L275.438 159.353C267.102 158.962 258.748 159.392 250.498 160.639C245.975 161.282 239.772 164.111 234.905 173.798C229.581 186.291 225.834 199.392 223.749 212.802C222.523 219.783 227.204 226.435 234.216 227.675Z" fill="#F29C1F"/>
<path d="M364.206 76.6711C364.206 76.6711 367.413 104.39 367.381 105.247C368.423 120.862 362.976 136.215 352.326 147.683C341.676 159.15 326.767 165.715 311.118 165.829L287.177 165.765C271.518 165.685 256.586 159.144 245.91 147.687C235.235 136.23 229.763 120.874 230.787 105.247C230.882 103.31 231.009 102.612 233.962 76.6711C236.149 57.6517 252.252 43.2966 271.397 43.3004L326.708 43.3004C345.877 43.2643 362.017 57.6276 364.206 76.6711Z" fill="#D25627"/>
<path d="M364.207 76.6709C364.207 76.6709 367.414 104.39 367.382 105.247C365.144 134.726 340.587 157.512 311.023 157.542L287.178 157.51C257.605 157.52 233.022 134.736 230.788 105.247C230.851 103.787 231.01 102.866 233.963 76.6709C236.15 57.6515 252.253 43.2964 271.398 43.3003L326.709 43.3003C345.877 43.2641 362.017 57.6274 364.207 76.6709Z" fill="#E57E25"/>
<path d="M345.505 78.798L348.522 104.929C349.754 115.61 346.36 126.308 339.194 134.324C332.028 142.339 321.775 146.907 311.023 146.873L287.273 146.809C266.817 146.879 250.071 130.556 249.616 110.105C249.489 106.358 249.775 105.374 252.855 78.7345C253.932 69.2075 262 62.014 271.588 62.0333L326.899 62.0333C336.452 62.1024 344.444 69.3038 345.505 78.798Z" fill="#35495E"/>
<path d="M325.946 79.4332C325.11 80.2626 323.981 80.7302 322.803 80.735L294.544 80.7985C292.075 80.7911 290.074 78.7911 290.067 76.3216C290.062 75.1243 290.536 73.9746 291.382 73.128C292.229 72.2814 293.379 71.808 294.576 71.8129L322.707 71.6859C324.572 71.6235 326.281 72.7205 327.001 74.4418C327.72 76.1631 327.3 78.15 325.946 79.4332Z" fill="white"/>
<path d="M348.457 104.485C349.827 115.226 346.503 126.037 339.335 134.153C332.167 142.269 321.851 146.904 311.023 146.873L287.273 146.81C266.816 146.879 250.07 130.557 249.616 110.105C271.238 96.2298 305.339 84.7994 348.457 104.485Z" fill="#2C3E50"/>
</g>
<g opacity="0.7">
<path d="M96.423 258.098C87.5644 275.847 89.3742 322.299 89.0567 322.617C89.0567 332.142 83.4049 339.953 76.4831 339.953C71.2726 339.529 66.8579 335.947 65.3702 330.935C54.8134 302.105 49.1472 271.713 48.6055 241.016L96.423 258.098Z" fill="#E57E25"/>
<path d="M152.433 241.142C151.98 271.843 146.333 302.246 135.732 331.062C134.244 336.074 129.829 339.656 124.619 340.08C117.697 340.08 112.045 332.269 112.045 322.743C111.982 322.172 113.728 276.037 104.806 257.971L152.433 241.142Z" fill="#E57E25"/>
<path d="M48.7327 241.143L96.4233 258.098C94.8519 261.544 93.6697 265.154 92.8989 268.862C71.943 267.846 58.2581 262.607 49.3995 255.209C48.955 248.414 48.7645 243.397 48.7327 241.143Z" fill="#D25627"/>
<path d="M104.679 258.098L152.306 241.27C152.274 243.524 152.147 248.477 151.639 255.272C141.86 263.528 127.54 268.005 108.14 268.925C107.42 265.192 106.258 261.557 104.679 258.098Z" fill="#D25627"/>
<path d="M133.89 161.574C141.018 173.313 147.025 185.698 151.83 198.564C167.388 241.428 145.924 260.098 100.488 260.13C55.0518 260.162 33.6514 241.238 49.1143 198.596C53.936 185.752 59.9306 173.381 67.022 161.637L133.89 161.574Z" fill="#F29C1F"/>
<path d="M119.648 179.847L81.5311 179.847C79.0516 179.847 77.0415 181.857 77.0415 184.337L77.0415 217.74C77.0415 220.219 79.0516 222.229 81.5311 222.229L119.648 222.229C122.128 222.229 124.138 220.219 124.138 217.74L124.138 184.337C124.138 181.857 122.128 179.847 119.648 179.847Z" fill="#F0C419"/>
<path d="M113.22 197.231C111.632 198.818 110.33 198.532 105.441 198.659C102.971 198.652 100.971 196.652 100.964 194.182C100.959 192.985 101.432 191.835 102.279 190.989C103.125 190.142 104.275 189.669 105.472 189.674L110.171 189.674C111.918 189.762 113.455 190.857 114.109 192.479C114.763 194.101 114.416 195.955 113.22 197.231Z" fill="#F29C1F"/>
<path d="M113.22 211.329C111.6 212.948 110.362 212.662 105.441 212.757C104.243 212.762 103.094 212.289 102.247 211.442C101.4 210.596 100.927 209.446 100.932 208.249C100.939 205.779 102.939 203.779 105.409 203.772L110.108 203.772C111.866 203.837 113.425 204.922 114.094 206.549C114.764 208.176 114.422 210.045 113.22 211.329Z" fill="#F29C1F"/>
<path d="M158.705 205.659L156.23 235.063C155.28 237.193 154.016 239.223 152.464 241.109C149.343 239.776 146.848 237.652 145.362 235.063C144.34 233.54 144.824 235.889 141.919 201.744L142.565 179.56L158.705 205.659Z" fill="#E57E25"/>
<path d="M43.7455 205.952L46.1454 235.113C47.0665 237.226 48.2927 239.239 49.7974 241.109C52.8242 239.787 55.2433 237.681 56.684 235.113C57.6752 233.603 57.2057 235.933 60.0229 202.069L59.3969 180.069L43.7455 205.952Z" fill="#E57E25"/>
<path d="M168.199 228.036C163.239 228.929 158.2 226.947 155.177 222.914C154.135 221.699 154.873 223.739 145.931 190.88L130.999 171.868L126.659 158.846C135.059 158.45 143.477 158.886 151.791 160.149C156.349 160.8 162.599 163.665 167.504 173.474C172.869 186.126 176.645 199.394 178.746 212.974C179.982 220.044 175.264 226.78 168.199 228.036Z" fill="#F29C1F"/>
<path d="M35.5869 227.675C40.5089 228.557 45.5094 226.599 48.5092 222.618C49.543 221.417 48.8107 223.432 57.6841 190.986L72.5016 172.212L76.8091 159.353C68.4734 158.962 60.1193 159.392 51.869 160.639C47.3462 161.282 41.1435 164.111 36.2761 173.798C30.952 186.291 27.2046 199.392 25.1198 212.802C23.8941 219.783 28.5753 226.435 35.5869 227.675Z" fill="#F29C1F"/>
<path d="M165.577 76.6711C165.577 76.6711 168.784 104.39 168.752 105.247C169.794 120.862 164.347 136.215 153.697 147.683C143.047 159.15 128.138 165.715 112.489 165.829L88.5485 165.765C72.8889 165.685 57.9569 159.144 47.2813 147.687C36.6057 136.23 31.1336 120.874 32.1582 105.247C32.2534 103.31 32.3804 102.612 35.3333 76.6711C37.52 57.6517 53.6234 43.2966 72.7681 43.3004L128.079 43.3004C147.248 43.2643 163.388 57.6276 165.577 76.6711Z" fill="#D25627"/>
<path d="M165.578 76.6709C165.578 76.6709 168.785 104.39 168.753 105.247C166.515 134.726 141.958 157.512 112.394 157.542L88.5492 157.51C58.9761 157.52 34.3927 134.736 32.1588 105.247C32.2223 103.787 32.3811 102.866 35.334 76.6709C37.5207 57.6515 53.6241 43.2964 72.7688 43.3003L128.08 43.3003C147.249 43.2641 163.389 57.6274 165.578 76.6709Z" fill="#E57E25"/>
<path d="M146.876 78.798L149.893 104.929C151.126 115.61 147.731 126.308 140.565 134.324C133.399 142.339 123.146 146.907 112.394 146.873L88.6443 146.809C68.1878 146.879 51.4419 130.556 50.9872 110.105C50.8602 106.358 51.146 105.374 54.2259 78.7345C55.3027 69.2075 63.3715 62.014 72.9592 62.0333L128.27 62.0333C137.823 62.1024 145.816 69.3038 146.876 78.798Z" fill="#35495E"/>
<path d="M127.317 79.4332C126.481 80.2626 125.352 80.7302 124.174 80.735L95.9151 80.7985C93.4456 80.7911 91.4455 78.7911 91.4382 76.3216C91.4333 75.1243 91.9067 73.9746 92.7533 73.128C93.5999 72.2814 94.7496 71.808 95.9469 71.8129L124.079 71.6859C125.943 71.6235 127.652 72.7205 128.372 74.4418C129.091 76.1631 128.671 78.15 127.317 79.4332Z" fill="white"/>
<path d="M149.829 104.485C151.198 115.226 147.874 126.037 140.706 134.153C133.539 142.269 123.222 146.904 112.394 146.873L88.6437 146.81C68.1872 146.879 51.4412 130.557 50.9866 110.105C72.6093 96.2298 106.71 84.7994 149.829 104.485Z" fill="#2C3E50"/>
</g>
<path d="M185.633 314.678C175.548 334.884 177.609 387.768 177.247 388.129C177.247 398.973 170.813 407.866 162.933 407.866C157.001 407.383 151.975 403.305 150.282 397.6C138.263 364.778 131.813 330.179 131.196 295.231L185.633 314.678Z" fill="#E57E25"/>
<path d="M249.398 295.375C248.882 330.327 242.453 364.938 230.384 397.744C228.69 403.449 223.665 407.528 217.733 408.01C209.852 408.01 203.418 399.118 203.418 388.273C203.346 387.623 205.334 335.101 195.177 314.533L249.398 295.375Z" fill="#E57E25"/>
<path d="M131.341 295.376L185.634 314.678C183.845 318.601 182.499 322.711 181.622 326.932C157.765 325.776 142.185 319.811 132.1 311.389C131.594 303.654 131.377 297.942 131.341 295.376Z" fill="#D25627"/>
<path d="M195.032 314.678L249.253 295.52C249.217 298.086 249.072 303.725 248.494 311.461C237.361 320.859 221.058 325.956 198.972 327.004C198.153 322.754 196.83 318.616 195.032 314.678Z" fill="#D25627"/>
<path d="M228.288 204.791C236.403 218.155 243.241 232.255 248.711 246.902C266.423 295.701 241.988 316.955 190.261 316.992C138.534 317.028 114.171 295.484 131.775 246.938C137.264 232.317 144.089 218.232 152.162 204.863L228.288 204.791Z" fill="#F29C1F"/>
<path d="M212.074 225.594L168.68 225.594C165.857 225.594 163.569 227.882 163.569 230.705L163.569 268.732C163.569 271.555 165.857 273.844 168.68 273.844L212.074 273.844C214.897 273.844 217.185 271.555 217.185 268.732L217.185 230.705C217.185 227.882 214.897 225.594 212.074 225.594Z" fill="#F0C419"/>
<path d="M204.756 245.384C202.948 247.192 201.466 246.866 195.9 247.011C193.088 247.002 190.811 244.725 190.803 241.914C190.797 240.551 191.336 239.242 192.3 238.278C193.264 237.315 194.573 236.776 195.936 236.781L201.286 236.781C203.274 236.882 205.024 238.128 205.768 239.974C206.513 241.821 206.118 243.932 204.756 245.384Z" fill="#F29C1F"/>
<path d="M204.756 261.433C202.912 263.277 201.503 262.952 195.9 263.06C194.537 263.066 193.228 262.527 192.264 261.563C191.3 260.599 190.761 259.29 190.767 257.927C190.775 255.116 193.052 252.839 195.864 252.83L201.213 252.83C203.215 252.904 204.989 254.14 205.752 255.993C206.514 257.845 206.125 259.972 204.756 261.433Z" fill="#F29C1F"/>
<path d="M256.538 254.979L253.72 288.454C252.639 290.88 251.199 293.191 249.433 295.337C245.879 293.819 243.039 291.401 241.348 288.454C240.184 286.721 240.735 289.395 237.428 250.522L238.163 225.267L256.538 254.979Z" fill="#E57E25"/>
<path d="M125.663 255.312L128.396 288.511C129.444 290.916 130.84 293.208 132.553 295.337C135.999 293.832 138.753 291.434 140.393 288.511C141.522 286.792 140.987 289.444 144.194 250.892L143.482 225.846L125.663 255.312Z" fill="#E57E25"/>
<path d="M267.346 280.455C261.699 281.471 255.963 279.214 252.521 274.624C251.335 273.24 252.175 275.563 241.996 238.155L224.997 216.511L220.055 201.686C229.618 201.234 239.202 201.731 248.667 203.168C253.856 203.91 260.971 207.171 266.555 218.339C272.663 232.742 276.962 247.847 279.354 263.307C280.76 271.356 275.39 279.024 267.346 280.455Z" fill="#F29C1F"/>
<path d="M116.375 280.044C121.978 281.047 127.671 278.819 131.086 274.286C132.263 272.92 131.43 275.213 141.531 238.274L158.4 216.902L163.304 202.263C153.815 201.817 144.304 202.307 134.911 203.727C129.762 204.459 122.701 207.679 117.16 218.707C111.098 232.93 106.832 247.845 104.459 263.112C103.063 271.059 108.393 278.631 116.375 280.044Z" fill="#F29C1F"/>
<path d="M264.362 108.133C264.362 108.133 268.013 139.69 267.977 140.666C269.163 158.442 262.962 175.921 250.837 188.976C238.713 202.031 221.74 209.505 203.924 209.634L176.669 209.562C158.841 209.471 141.842 202.024 129.689 188.981C117.535 175.937 111.305 158.455 112.472 140.666C112.58 138.461 112.725 137.665 116.086 108.133C118.576 86.4806 136.909 70.138 158.704 70.1424L221.672 70.1424C243.495 70.1012 261.87 86.4531 264.362 108.133Z" fill="#D25627"/>
<path d="M264.363 108.133C264.363 108.133 268.013 139.69 267.977 140.666C265.429 174.226 237.473 200.166 203.816 200.2L176.67 200.164C143.002 200.175 115.015 174.237 112.472 140.666C112.544 139.003 112.725 137.955 116.087 108.133C118.576 86.4806 136.909 70.138 158.704 70.1424L221.673 70.1425C243.496 70.1013 261.87 86.4531 264.363 108.133Z" fill="#E57E25"/>
<path d="M243.072 110.555L246.506 140.304C247.909 152.464 244.044 164.643 235.886 173.768C227.728 182.893 216.056 188.093 203.816 188.055L176.778 187.982C153.489 188.061 134.425 169.479 133.907 146.196C133.762 141.931 134.088 140.81 137.594 110.483C138.82 99.6366 148.006 91.4473 158.921 91.4693L221.889 91.4693C232.765 91.5479 241.864 99.7463 243.072 110.555Z" fill="#35495E"/>
<path d="M220.806 111.278C219.853 112.223 218.568 112.755 217.227 112.76L185.056 112.833C182.245 112.824 179.968 110.547 179.959 107.736C179.954 106.373 180.493 105.064 181.456 104.1C182.42 103.136 183.729 102.597 185.092 102.603L217.119 102.458C219.241 102.387 221.187 103.636 222.006 105.596C222.825 107.555 222.347 109.817 220.806 111.278Z" fill="white"/>
<path d="M246.433 139.798C247.993 152.027 244.208 164.334 236.048 173.574C227.888 182.813 216.143 188.09 203.816 188.055L176.778 187.982C153.489 188.061 134.425 169.479 133.907 146.196C158.523 130.4 197.346 117.387 246.433 139.798Z" fill="#2C3E50"/>
</svg>
