<svg width="576" height="668" viewBox="0 0 576 668" fill="none" xmlns="http://www.w3.org/2000/svg">
<path d="M387.953 403.302C367.01 535.401 504.591 634.808 576 668H121V-6.10352e-05H395.696L363.986 12.5093C285.818 43.7327 299.829 133.686 326.008 157.618C355.383 184.471 408.896 271.203 387.953 403.302Z" fill="#110941"/>
<path d="M303.297 401.491C285.621 532.996 401.734 631.958 462 665H78V0H309.831L283.07 12.4532C217.099 43.5363 228.924 133.085 251.018 156.91C275.809 183.643 320.972 269.985 303.297 401.491Z" fill="#0B0527"/>
<path d="M184.814 403.302C170.314 535.401 265.563 634.808 315 668H0V-6.10352e-05H190.174L168.221 12.5093C114.105 43.7327 123.805 133.686 141.929 157.618C162.265 184.471 199.313 271.203 184.814 403.302Z" fill="#050216"/>
<path d="M329.936 611.391L326.933 606.098L321.441 603.204L326.933 600.308L329.936 595.017L332.941 600.308L338.433 603.204L332.941 606.098L329.936 611.391Z" fill="#F4F4F4"/>
<path d="M197.919 515.342L194.929 510.073L189.462 507.191L194.929 504.31L197.919 499.041L200.908 504.31L206.374 507.191L200.908 510.073L197.919 515.342Z" fill="#F4F4F4"/>
<path d="M103.119 449.417L98.6593 441.558L90.5067 437.26L98.6593 432.962L103.119 425.103L107.578 432.962L115.733 437.26L107.578 441.558L103.119 449.417Z" fill="#F4F4F4"/>
<path d="M415.235 330.055L410.483 321.679L401.794 317.098L410.483 312.518L415.235 304.142L419.988 312.518L428.678 317.098L419.988 321.679L415.235 330.055Z" fill="#F4F4F4"/>
<path d="M70.0313 321.488L68.4206 318.651L65.4768 317.098L68.4206 315.546L70.0313 312.708L71.6439 315.546L74.5878 317.098L71.6439 318.651L70.0313 321.488Z" fill="#F4F4F4"/>
<path d="M276.002 379.621L274.392 376.782L271.448 375.23L274.392 373.677L276.002 370.84L277.613 373.677L280.557 375.23L277.613 376.782L276.002 379.621Z" fill="#F4F4F4"/>
<path d="M65.4765 582.456L62.0021 576.333L55.6485 572.984L62.0021 569.635L65.4765 563.514L68.9528 569.635L75.3026 572.984L68.9528 576.333L65.4765 582.456Z" fill="#F4F4F4"/>
<path d="M166.571 651.629L159.77 639.648L147.339 633.095L159.77 626.541L166.571 614.559L173.369 626.541L185.803 633.095L173.369 639.648L166.571 651.629Z" fill="#F4F4F4"/>
<path d="M276.002 496.52L269.202 484.537L256.77 477.985L269.202 471.43L276.002 459.449L282.803 471.43L295.234 477.985L282.803 484.537L276.002 496.52Z" fill="#F4F4F4"/>
<path d="M32.0542 274.95L26.3776 264.946L16.0001 259.473L26.3776 254.004L32.0542 244L37.7307 254.004L48.1102 259.473L37.7307 264.946L32.0542 274.95Z" fill="#F4F4F4"/>
<path d="M300.18 269.211C300.226 269.114 300.264 269.013 300.297 268.91C300.249 269.007 300.218 269.11 300.18 269.211Z" fill="#122220"/>
<path d="M93.6046 315.55C93.5664 315.343 93.5416 315.132 93.5378 314.916C93.5798 315.128 93.5855 315.339 93.6046 315.55Z" fill="#122220"/>
</svg>
