<svg width="728" height="669" viewBox="0 0 728 669" fill="none" xmlns="http://www.w3.org/2000/svg">
<path d="M334.94 406.158C356.094 537.081 72.1274 635.603 0 668.5L604.5 668L615.5 0.5H506C420.5 0.5 383 44.5 352 97.5C321 150.5 313.786 275.235 334.94 406.158Z" fill="#110941"/>
<path d="M421.396 404.683C439.26 536.093 321.909 634.982 261 668H649.096L716 6.10352e-05H589.25C655.925 31.0605 496.562 136.475 474.233 160.282C449.177 186.995 403.532 273.274 421.396 404.683Z" fill="#0B0527"/>
<path d="M541.426 403.698C556.064 535.599 459.908 634.858 410 668H728V1H693C747.632 32.1766 603.016 134.486 584.72 158.382C564.19 185.195 526.789 271.797 541.426 403.698Z" fill="#050216"/>
<path d="M401.064 52.3131L404.067 57.6064L409.559 60.5005L404.067 63.3965L401.064 68.688L398.059 63.3965L392.567 60.5005L398.059 57.6064L401.064 52.3131Z" fill="#F4F4F4"/>
<path d="M533.081 148.363L536.071 153.632L541.538 156.513L536.071 159.395L533.081 164.664L530.092 159.395L524.626 156.513L530.092 153.632L533.081 148.363Z" fill="#F4F4F4"/>
<path d="M627.881 214.287L632.341 222.147L640.493 226.445L632.341 230.743L627.881 238.602L623.422 230.743L615.267 226.445L623.422 222.147L627.881 214.287Z" fill="#F4F4F4"/>
<path d="M315.765 333.65L320.517 342.026L329.206 346.606L320.517 351.187L315.765 359.563L311.012 351.187L302.322 346.606L311.012 342.026L315.765 333.65Z" fill="#F4F4F4"/>
<path d="M660.969 342.217L662.579 345.054L665.523 346.606L662.579 348.159L660.969 350.996L659.356 348.159L656.412 346.606L659.356 345.054L660.969 342.217Z" fill="#F4F4F4"/>
<path d="M454.998 284.083L456.608 286.923L459.552 288.475L456.608 290.027L454.998 292.865L453.387 290.027L450.443 288.475L453.387 286.923L454.998 284.083Z" fill="#F4F4F4"/>
<path d="M665.523 81.2482L668.998 87.3718L675.351 90.7205L668.998 94.0691L665.523 100.191L662.047 94.0691L655.697 90.7205L662.047 87.3718L665.523 81.2482Z" fill="#F4F4F4"/>
<path d="M564.429 12.0757L571.23 24.0571L583.661 30.6096L571.23 37.164L564.429 49.1455L557.631 37.164L545.197 30.6096L557.631 24.0571L564.429 12.0757Z" fill="#F4F4F4"/>
<path d="M454.998 167.184L461.798 179.168L474.23 185.72L461.798 192.274L454.998 204.256L448.197 192.274L435.766 185.72L448.197 179.168L454.998 167.184Z" fill="#F4F4F4"/>
<path d="M698.946 388.755L704.622 398.759L715 404.231L704.622 409.701L698.946 419.705L693.269 409.701L682.89 404.231L693.269 398.759L698.946 388.755Z" fill="#F4F4F4"/>
<path d="M430.82 394.494C430.774 394.591 430.736 394.692 430.703 394.794C430.751 394.697 430.782 394.595 430.82 394.494Z" fill="#122220"/>
<path d="M637.396 348.155C637.434 348.362 637.459 348.573 637.462 348.789C637.42 348.576 637.415 348.366 637.396 348.155Z" fill="#122220"/>
</svg>
