<svg width="567" height="668" viewBox="0 0 567 668" fill="none" xmlns="http://www.w3.org/2000/svg">
<path d="M381.846 264.698C361.225 132.599 496.69 33.1915 567 0H119V668H389.47L358.248 655.491C281.282 624.267 295.078 534.314 320.854 510.382C349.777 483.529 402.467 396.797 381.846 264.698Z" fill="#110941"/>
<path d="M298.19 266.509C280.837 135.004 394.833 36.0424 454 3H77V668H304.605L278.331 655.547C213.563 624.464 225.173 534.915 246.864 511.09C271.203 484.357 315.543 398.015 298.19 266.509Z" fill="#0B0527"/>
<path d="M181.77 264.698C167.51 132.599 261.19 33.1915 309.813 0H-0.00012207V668H187.042L165.451 655.491C112.225 624.267 121.766 534.314 139.591 510.382C159.593 483.529 196.031 396.797 181.77 264.698Z" fill="#050216"/>
<path d="M329.945 611.391L326.943 606.098L321.45 603.204L326.943 600.308L329.945 595.017L332.95 600.308L338.442 603.204L332.95 606.098L329.945 611.391Z" fill="#F4F4F4"/>
<path d="M197.928 515.342L194.938 510.073L189.471 507.191L194.938 504.31L197.928 499.041L200.917 504.31L206.383 507.191L200.917 510.073L197.928 515.342Z" fill="#F4F4F4"/>
<path d="M103.128 449.417L98.6684 441.558L90.5158 437.26L98.6684 432.962L103.128 425.103L107.587 432.962L115.742 437.26L107.587 441.558L103.128 449.417Z" fill="#F4F4F4"/>
<path d="M415.244 330.055L410.492 321.679L401.803 317.098L410.492 312.518L415.244 304.142L419.997 312.518L428.687 317.098L419.997 321.679L415.244 330.055Z" fill="#F4F4F4"/>
<path d="M70.0405 321.488L68.4298 318.651L65.4859 317.098L68.4298 315.546L70.0405 312.708L71.6531 315.546L74.5969 317.098L71.6531 318.651L70.0405 321.488Z" fill="#F4F4F4"/>
<path d="M276.011 379.621L274.401 376.782L271.457 375.23L274.401 373.677L276.011 370.84L277.622 373.677L280.566 375.23L277.622 376.782L276.011 379.621Z" fill="#F4F4F4"/>
<path d="M65.4857 582.456L62.0113 576.333L55.6577 572.984L62.0113 569.635L65.4857 563.514L68.962 569.635L75.3118 572.984L68.962 576.333L65.4857 582.456Z" fill="#F4F4F4"/>
<path d="M166.58 651.629L159.779 639.648L147.348 633.095L159.779 626.541L166.58 614.559L173.378 626.541L185.812 633.095L173.378 639.648L166.58 651.629Z" fill="#F4F4F4"/>
<path d="M276.012 496.52L269.211 484.537L256.78 477.985L269.211 471.43L276.012 459.449L282.812 471.43L295.243 477.985L282.812 484.537L276.012 496.52Z" fill="#F4F4F4"/>
<path d="M32.0632 274.95L26.3866 264.946L16.009 259.473L26.3866 254.004L32.0632 244L37.7397 254.004L48.1191 259.473L37.7397 264.946L32.0632 274.95Z" fill="#F4F4F4"/>
<path d="M300.189 269.211C300.235 269.114 300.273 269.013 300.306 268.91C300.258 269.007 300.227 269.11 300.189 269.211Z" fill="#122220"/>
<path d="M93.6138 315.55C93.5755 315.343 93.5508 315.132 93.5469 314.916C93.589 315.128 93.5947 315.339 93.6138 315.55Z" fill="#122220"/>
</svg>
