<svg width="831" height="699" viewBox="0 0 831 699" fill="none" xmlns="http://www.w3.org/2000/svg">
<path d="M471.673 275.288C490.979 138.166 231.825 34.9772 166 0.523438H717.752L718 699H0C185 484.5 304.5 734.5 426.5 575.5C479.849 505.972 452.367 412.411 471.673 275.288Z" fill="#110941"/>
<path d="M550.649 277.878C566.919 140.755 460.033 37.5671 404.556 3.11328H758.043L830.5 699H551C611.729 666.589 619.112 557.748 598.773 532.905C575.952 505.031 534.378 415.001 550.649 277.878Z" fill="#0B0527"/>
<path d="M660.117 277.233C673.475 138.878 585.722 34.7633 540.175 0H830.5V699H798.5C848.358 666.298 716.326 559.616 699.628 534.551C680.892 506.425 646.759 415.587 660.117 277.233Z" fill="#050216"/>
<path d="M492.063 57.3136L495.066 62.6069L500.558 65.501L495.066 68.397L492.063 73.6885L489.059 68.397L483.566 65.501L489.059 62.6069L492.063 57.3136Z" fill="#F4F4F4"/>
<path d="M624.081 153.363L627.07 158.633L632.538 161.514L627.07 164.395L624.081 169.665L621.092 164.395L615.626 161.514L621.092 158.633L624.081 153.363Z" fill="#F4F4F4"/>
<path d="M718.881 219.288L723.341 227.147L731.493 231.445L723.341 235.743L718.881 243.603L714.422 235.743L706.267 231.445L714.422 227.147L718.881 219.288Z" fill="#F4F4F4"/>
<path d="M406.764 338.65L411.517 347.027L420.206 351.607L411.517 356.187L406.764 364.563L402.012 356.187L393.321 351.607L402.012 347.027L406.764 338.65Z" fill="#F4F4F4"/>
<path d="M751.969 347.217L753.579 350.054L756.523 351.607L753.579 353.159L751.969 355.997L750.356 353.159L747.412 351.607L750.356 350.054L751.969 347.217Z" fill="#F4F4F4"/>
<path d="M545.997 289.084L547.608 291.923L550.552 293.476L547.608 295.028L545.997 297.865L544.387 295.028L541.443 293.476L544.387 291.923L545.997 289.084Z" fill="#F4F4F4"/>
<path d="M756.523 86.2487L759.998 92.3723L766.351 95.721L759.998 99.0696L756.523 105.191L753.047 99.0696L746.697 95.721L753.047 92.3723L756.523 86.2487Z" fill="#F4F4F4"/>
<path d="M655.429 17.0761L662.23 29.0576L674.661 35.6101L662.23 42.1645L655.429 54.146L648.631 42.1645L636.197 35.6101L648.631 29.0576L655.429 17.0761Z" fill="#F4F4F4"/>
<path d="M545.997 172.185L552.798 184.168L565.229 190.721L552.798 197.275L545.997 209.256L539.197 197.275L526.766 190.721L539.197 184.168L545.997 172.185Z" fill="#F4F4F4"/>
<path d="M789.946 393.755L795.622 403.759L806 409.232L795.622 414.701L789.946 424.705L784.269 414.701L773.89 409.232L784.269 403.759L789.946 393.755Z" fill="#F4F4F4"/>
<path d="M521.82 399.494C521.774 399.591 521.736 399.692 521.703 399.795C521.751 399.698 521.782 399.595 521.82 399.494Z" fill="#122220"/>
<path d="M728.395 353.155C728.433 353.362 728.458 353.573 728.462 353.79C728.42 353.577 728.414 353.366 728.395 353.155Z" fill="#122220"/>
</svg>
