<svg width="745" height="668" viewBox="0 0 745 668" fill="none" xmlns="http://www.w3.org/2000/svg">
<path d="M452.622 262.776C471.148 131.636 222.462 32.9505 159.295 0H688.762L689 668H0C177.528 462.859 292.201 701.951 409.274 549.889C460.468 483.394 434.096 393.916 452.622 262.776Z" fill="#110941"/>
<path d="M528.326 263.754C543.955 132.126 441.287 33.0731 388 0H727.535L743 668H528.664C586.996 636.888 604.546 556.169 574.552 508.561C556.114 479.298 512.698 395.382 528.326 263.754Z" fill="#0B0527"/>
<path d="M633.297 265.136C646.138 132.819 561.783 33.2464 518 0H745V668H727.383C727.383 551.913 687.329 535.198 671.277 511.226C653.267 484.329 620.456 397.453 633.297 265.136Z" fill="#050216"/>
<path d="M472.268 54.7722L475.15 59.8308L480.421 62.5965L475.15 65.364L472.268 70.4209L469.384 65.364L464.113 62.5965L469.384 59.8308L472.268 54.7722Z" fill="#F4F4F4"/>
<path d="M598.974 146.562L601.844 151.598L607.091 154.351L601.844 157.105L598.974 162.141L596.105 157.105L590.86 154.351L596.105 151.598L598.974 146.562Z" fill="#F4F4F4"/>
<path d="M689.961 209.563L694.241 217.074L702.066 221.182L694.241 225.289L689.961 232.8L685.681 225.289L677.854 221.182L685.681 217.074L689.961 209.563Z" fill="#F4F4F4"/>
<path d="M390.4 323.632L394.962 331.636L403.301 336.014L394.962 340.391L390.4 348.396L385.839 340.391L377.498 336.014L385.839 331.636L390.4 323.632Z" fill="#F4F4F4"/>
<path d="M721.717 331.819L723.263 334.53L726.088 336.014L723.263 337.498L721.717 340.209L720.169 337.498L717.344 336.014L720.169 334.53L721.717 331.819Z" fill="#F4F4F4"/>
<path d="M524.032 276.264L525.578 278.977L528.404 280.461L525.578 281.944L524.032 284.656L522.486 281.944L519.661 280.461L522.486 278.977L524.032 276.264Z" fill="#F4F4F4"/>
<path d="M726.089 82.4237L729.423 88.2758L735.521 91.4759L729.423 94.6761L726.089 100.526L722.752 94.6761L716.658 91.4759L722.752 88.2758L726.089 82.4237Z" fill="#F4F4F4"/>
<path d="M629.062 16.3193L635.588 27.7693L647.52 34.0313L635.588 40.295L629.062 51.7451L622.536 40.295L610.603 34.0313L622.536 27.7693L629.062 16.3193Z" fill="#F4F4F4"/>
<path d="M524.032 164.549L530.559 176.001L542.491 182.263L530.559 188.526L524.032 199.977L517.505 188.526L505.574 182.263L517.505 176.001L524.032 164.549Z" fill="#F4F4F4"/>
<path d="M500.827 381.778C500.783 381.87 500.746 381.967 500.715 382.065C500.761 381.972 500.79 381.874 500.827 381.778Z" fill="#122220"/>
<path d="M699.092 337.494C699.129 337.691 699.153 337.893 699.156 338.1C699.116 337.896 699.11 337.695 699.092 337.494Z" fill="#122220"/>
</svg>
