<svg width="2079" height="696" viewBox="0 0 2079 696" fill="none" xmlns="http://www.w3.org/2000/svg">
<path d="M405.957 420.207C384.042 557.843 528.008 661.417 602.73 696H126.615V6.10352e-05H414.059L380.878 13.0338C299.082 45.5659 316.393 136.68 341.137 164.225C394.865 224.034 427.872 282.571 405.957 420.207Z" fill="#110941"/>
<path d="M290.365 429.15C271.87 566.168 420.377 658.447 483.44 692.874H81.6196L60.3652 -0.000183105H249.865C232.865 52.7723 229.365 116.498 262.667 163.487C284.663 194.524 308.861 292.132 290.365 429.15Z" fill="#0B0527"/>
<path d="M159.365 408.24C144.193 545.876 335.634 661.417 387.365 696H-6.10352e-05V0H65.3652C65.3652 0 75.4751 38.8327 128.865 109.03C182.255 179.228 174.537 270.604 159.365 408.24Z" fill="#050216"/>
<path d="M345.248 637.018L342.106 631.503L336.359 628.488L342.106 625.47L345.248 619.957L348.392 625.47L354.139 628.488L348.392 631.503L345.248 637.018Z" fill="#F4F4F4"/>
<path d="M207.104 536.943L203.976 531.453L198.254 528.451L203.976 525.449L207.104 519.958L210.232 525.449L215.951 528.451L210.232 531.453L207.104 536.943Z" fill="#F4F4F4"/>
<path d="M107.904 468.255L103.238 460.066L94.7067 455.588L103.238 451.11L107.904 442.921L112.571 451.11L121.104 455.588L112.571 460.066L107.904 468.255Z" fill="#F4F4F4"/>
<path d="M434.505 343.889L429.532 335.162L420.44 330.39L429.532 325.617L434.505 316.89L439.478 325.617L448.572 330.39L439.478 335.162L434.505 343.889Z" fill="#F4F4F4"/>
<path d="M73.2812 334.963L71.5957 332.007L68.5153 330.39L71.5957 328.772L73.2812 325.816L74.9686 328.772L78.0491 330.39L74.9686 332.007L73.2812 334.963Z" fill="#F4F4F4"/>
<path d="M288.811 395.533L287.125 392.575L284.045 390.958L287.125 389.34L288.811 386.384L290.496 389.34L293.577 390.958L290.496 392.575L288.811 395.533Z" fill="#F4F4F4"/>
<path d="M68.5151 606.871L64.8794 600.49L58.231 597.001L64.8794 593.512L68.5151 587.134L72.1526 593.512L78.7971 597.001L72.1526 600.49L68.5151 606.871Z" fill="#F4F4F4"/>
<path d="M174.301 678.943L167.185 666.459L154.176 659.632L167.185 652.803L174.301 640.319L181.415 652.803L194.425 659.632L181.415 666.459L174.301 678.943Z" fill="#F4F4F4"/>
<path d="M288.811 517.333L281.695 504.847L268.686 498.02L281.695 491.191L288.811 478.707L295.927 491.191L308.935 498.02L295.927 504.847L288.811 517.333Z" fill="#F4F4F4"/>
<path d="M33.5417 286.475L27.6017 276.052L16.7425 270.349L27.6017 264.651L33.5417 254.228L39.4816 264.651L50.3428 270.349L39.4816 276.052L33.5417 286.475Z" fill="#F4F4F4"/>
<path d="M314.111 280.495C314.159 280.394 314.199 280.289 314.233 280.182C314.183 280.283 314.151 280.39 314.111 280.495Z" fill="#122220"/>
<path d="M97.9487 328.776C97.9087 328.561 97.8828 328.341 97.8788 328.116C97.9228 328.337 97.9287 328.557 97.9487 328.776Z" fill="#122220"/>
<path d="M1719.67 274.107C1738.98 137.573 1479.82 34.8274 1414 0.521484H1965.75L1966 696H1248C1433 482.421 1552.5 731.348 1674.5 573.03C1727.85 503.8 1700.37 410.641 1719.67 274.107Z" fill="#110941"/>
<path d="M1798.65 276.686C1814.92 140.151 1708.03 37.406 1652.56 3.1001H2006.04L2078.5 696H1799C1859.73 663.728 1878 580 1846.77 530.618C1827.58 500.264 1782.38 413.22 1798.65 276.686Z" fill="#0B0527"/>
<path d="M1908.12 276.043C1921.48 138.282 1833.72 34.614 1788.17 0H2078.5V696H2046.5C2096.36 663.438 1964.33 557.214 1947.63 532.256C1928.89 504.252 1894.76 413.803 1908.12 276.043Z" fill="#050216"/>
<path d="M1740.06 57.0675L1743.07 62.3381L1748.56 65.2197L1743.07 68.1033L1740.06 73.3721L1737.06 68.1033L1731.57 65.2197L1737.06 62.3381L1740.06 57.0675Z" fill="#F4F4F4"/>
<path d="M1872.08 152.705L1875.07 157.952L1880.54 160.821L1875.07 163.69L1872.08 168.937L1869.09 163.69L1863.63 160.821L1869.09 157.952L1872.08 152.705Z" fill="#F4F4F4"/>
<path d="M1966.88 218.347L1971.34 226.172L1979.49 230.452L1971.34 234.731L1966.88 242.557L1962.42 234.731L1954.27 230.452L1962.42 226.172L1966.88 218.347Z" fill="#F4F4F4"/>
<path d="M1654.76 337.197L1659.52 345.537L1668.21 350.098L1659.52 354.658L1654.76 362.999L1650.01 354.658L1641.32 350.098L1650.01 345.537L1654.76 337.197Z" fill="#F4F4F4"/>
<path d="M1999.97 345.727L2001.58 348.552L2004.52 350.098L2001.58 351.644L1999.97 354.469L1998.36 351.644L1995.41 350.098L1998.36 348.552L1999.97 345.727Z" fill="#F4F4F4"/>
<path d="M1794 287.843L1795.61 290.67L1798.55 292.216L1795.61 293.762L1794 296.587L1792.39 293.762L1789.44 292.216L1792.39 290.67L1794 287.843Z" fill="#F4F4F4"/>
<path d="M2004.52 85.8783L2008 91.9757L2014.35 95.31L2008 98.6442L2004.52 104.74L2001.05 98.6442L1994.7 95.31L2001.05 91.9757L2004.52 85.8783Z" fill="#F4F4F4"/>
<path d="M1903.43 17.0028L1910.23 28.9328L1922.66 35.4572L1910.23 41.9835L1903.43 53.9136L1896.63 41.9835L1884.2 35.4572L1896.63 28.9328L1903.43 17.0028Z" fill="#F4F4F4"/>
<path d="M1794 171.446L1800.8 183.378L1813.23 189.902L1800.8 196.428L1794 208.358L1787.2 196.428L1774.77 189.902L1787.2 183.378L1794 171.446Z" fill="#F4F4F4"/>
<path d="M2037.95 392.065L2043.62 402.026L2054 407.476L2043.62 412.921L2037.95 422.882L2032.27 412.921L2021.89 407.476L2032.27 402.026L2037.95 392.065Z" fill="#F4F4F4"/>
<path d="M1769.82 397.78C1769.77 397.877 1769.74 397.977 1769.7 398.079C1769.75 397.982 1769.78 397.88 1769.82 397.78Z" fill="#122220"/>
<path d="M1976.4 351.64C1976.43 351.846 1976.46 352.056 1976.46 352.271C1976.42 352.059 1976.41 351.849 1976.4 351.64Z" fill="#122220"/>
</svg>
