<svg width="64" height="83" viewBox="0 0 64 83" fill="none" xmlns="http://www.w3.org/2000/svg">
<path d="M40.649 74.2587L31.7925 74.6408L22.9366 74.2587C22.9366 74.2587 19.3012 77.1211 19.3782 83H31.6761H31.9095H44.2069C44.2845 77.1211 40.649 74.2587 40.649 74.2587Z" fill="url(#paint0_linear)"/>
<path d="M45.2636 47.0303C45.2636 47.0303 45.386 52.9092 50.6404 55.0749C55.8955 57.2407 63.2279 60.9538 63.3509 75.1865H42.6973L45.2636 47.0303Z" fill="url(#paint1_linear)"/>
<path d="M18.0867 47.0308C18.0867 47.0308 17.9643 52.9096 12.7099 55.0754C7.45484 57.2412 0.122377 60.9543 0 75.187H20.653L18.0867 47.0308Z" fill="url(#paint2_linear)"/>
<path d="M45.9718 75.8062C45.9718 75.8062 50.8298 19.1529 31.677 -1.52588e-05C12.5247 19.1529 17.3822 75.8062 17.3822 75.8062H45.9718Z" fill="#FBFDFE"/>
<path d="M39.7204 28.8532C39.7204 33.2534 36.153 36.8208 31.7522 36.8208C27.352 36.8208 23.7852 33.2534 23.7852 28.8532C23.7852 24.453 27.352 20.8855 31.7522 20.8855C36.153 20.8855 39.7204 24.453 39.7204 28.8532Z" fill="url(#paint3_linear)"/>
<path d="M37.066 52.2C37.9327 52.2 38.3793 52.64 38.406 53.52L38.926 66H35.506L35.066 55.04H34.746L32.986 62.78C32.8527 63.5533 32.3727 63.94 31.546 63.94H29.446C28.6327 63.94 28.146 63.5533 27.986 62.78L26.226 55.04H25.906L25.526 66H22.106L22.606 53.52C22.646 52.64 23.0927 52.2 23.946 52.2H27.306C28.106 52.2 28.5793 52.5933 28.726 53.38L30.086 59.52C30.1527 59.8533 30.206 60.1867 30.246 60.52C30.286 60.8533 30.3327 61.1933 30.386 61.54H30.606C30.6593 61.1933 30.706 60.8533 30.746 60.52C30.786 60.1867 30.8393 59.8467 30.906 59.5L32.226 53.38C32.3593 52.5933 32.8393 52.2 33.666 52.2H37.066Z" fill="black"/>
<defs>
<linearGradient id="paint0_linear" x1="26.2175" y1="69.5242" x2="35.2099" y2="88.8356" gradientUnits="userSpaceOnUse">
<stop stop-color="#0B8980"/>
<stop offset="1" stop-color="#457DA2"/>
</linearGradient>
<linearGradient id="paint1_linear" x1="60.7296" y1="52.8208" x2="41.5461" y2="77.5737" gradientUnits="userSpaceOnUse">
<stop stop-color="#0B8980"/>
<stop offset="1" stop-color="#457DA2"/>
</linearGradient>
<linearGradient id="paint2_linear" x1="3.33581" y1="48.8515" x2="17.4914" y2="79.2512" gradientUnits="userSpaceOnUse">
<stop stop-color="#0B8980"/>
<stop offset="1" stop-color="#457DA2"/>
</linearGradient>
<linearGradient id="paint3_linear" x1="22.0755" y1="11.1366" x2="37.1593" y2="38.7515" gradientUnits="userSpaceOnUse">
<stop stop-color="#0B8980"/>
<stop offset="1" stop-color="#457DA2"/>
</linearGradient>
</defs>
</svg>
