<svg width="64" height="83" viewBox="0 0 64 83" fill="none" xmlns="http://www.w3.org/2000/svg">
<path d="M40.649 74.2587L31.7925 74.6408L22.9366 74.2587C22.9366 74.2587 19.3012 77.1211 19.3782 83H31.6761H31.9095H44.2069C44.2845 77.1211 40.649 74.2587 40.649 74.2587Z" fill="url(#paint0_linear)"/>
<path d="M45.2636 47.0303C45.2636 47.0303 45.386 52.9092 50.6404 55.0749C55.8955 57.2407 63.2279 60.9538 63.3509 75.1865H42.6973L45.2636 47.0303Z" fill="url(#paint1_linear)"/>
<path d="M18.0867 47.0308C18.0867 47.0308 17.9643 52.9096 12.7099 55.0754C7.45484 57.2412 0.122377 60.9543 0 75.187H20.653L18.0867 47.0308Z" fill="url(#paint2_linear)"/>
<path d="M45.9718 75.8062C45.9718 75.8062 50.8298 19.1529 31.677 -1.52588e-05C12.5247 19.1529 17.3822 75.8062 17.3822 75.8062H45.9718Z" fill="#FBFDFE"/>
<path d="M39.7204 28.8532C39.7204 33.2534 36.153 36.8208 31.7522 36.8208C27.352 36.8208 23.7852 33.2534 23.7852 28.8532C23.7852 24.453 27.352 20.8855 31.7522 20.8855C36.153 20.8855 39.7204 24.453 39.7204 28.8532Z" fill="url(#paint3_linear)"/>
<path d="M31.4235 52.96C32.4102 52.96 33.2702 53.0533 34.0035 53.24C34.7502 53.4133 35.3235 53.74 35.7235 54.22C36.1235 54.7 36.3235 55.3933 36.3235 56.3C36.3235 56.7933 36.2702 57.2467 36.1635 57.66C36.0568 58.0733 35.8435 58.5067 35.5235 58.96C35.2168 59.4133 34.7568 59.9533 34.1435 60.58L30.7235 63.98C31.0435 63.9 31.3635 63.8467 31.6835 63.82C32.0035 63.7933 32.3302 63.7867 32.6635 63.8H36.6835V67H26.3635V65.08C26.3635 64.7733 26.4035 64.5 26.4835 64.26C26.5635 64.02 26.6968 63.7867 26.8835 63.56L30.0235 60.36C30.7968 59.56 31.4035 58.86 31.8435 58.26C32.2835 57.6467 32.5035 57.14 32.5035 56.74C32.4902 56.4467 32.3635 56.2667 32.1235 56.2C31.8835 56.12 31.4968 56.08 30.9635 56.08C30.4835 56.08 30.0302 56.0867 29.6035 56.1C29.1902 56.1 28.7435 56.1067 28.2635 56.12C27.7968 56.1333 27.2502 56.1533 26.6235 56.18L26.4835 53.42C27.4968 53.22 28.3835 53.0933 29.1435 53.04C29.9168 52.9867 30.6768 52.96 31.4235 52.96Z" fill="black"/>
<defs>
<linearGradient id="paint0_linear" x1="26.2175" y1="69.5242" x2="35.2099" y2="88.8356" gradientUnits="userSpaceOnUse">
<stop stop-color="#EF9359"/>
<stop offset="1" stop-color="#E35A4B"/>
</linearGradient>
<linearGradient id="paint1_linear" x1="60.7296" y1="52.8208" x2="41.5461" y2="77.5737" gradientUnits="userSpaceOnUse">
<stop stop-color="#F0C419"/>
<stop offset="1" stop-color="#E3574B"/>
</linearGradient>
<linearGradient id="paint2_linear" x1="3.33581" y1="48.8515" x2="17.4914" y2="79.2512" gradientUnits="userSpaceOnUse">
<stop stop-color="#F0C419"/>
<stop offset="1" stop-color="#E43624"/>
</linearGradient>
<linearGradient id="paint3_linear" x1="22.0755" y1="11.1366" x2="37.1593" y2="38.7515" gradientUnits="userSpaceOnUse">
<stop stop-color="#F0C419"/>
<stop offset="1" stop-color="#DF4747"/>
</linearGradient>
</defs>
</svg>
