<svg width="64" height="83" viewBox="0 0 64 83" fill="none" xmlns="http://www.w3.org/2000/svg">
<path d="M40.649 74.2587L31.7925 74.6408L22.9366 74.2587C22.9366 74.2587 19.3012 77.1211 19.3782 83H31.6761H31.9095H44.2069C44.2845 77.1211 40.649 74.2587 40.649 74.2587Z" fill="url(#paint0_linear)"/>
<path d="M45.2636 47.0303C45.2636 47.0303 45.386 52.9092 50.6404 55.0749C55.8955 57.2407 63.2279 60.9538 63.3509 75.1865H42.6973L45.2636 47.0303Z" fill="url(#paint1_linear)"/>
<path d="M18.0867 47.0308C18.0867 47.0308 17.9643 52.9096 12.7099 55.0754C7.45484 57.2412 0.122377 60.9543 0 75.187H20.653L18.0867 47.0308Z" fill="url(#paint2_linear)"/>
<path d="M45.9718 75.8062C45.9718 75.8062 50.8298 19.1529 31.677 -1.52588e-05C12.5247 19.1529 17.3822 75.8062 17.3822 75.8062H45.9718Z" fill="#FBFDFE"/>
<path d="M39.7204 28.8532C39.7204 33.2534 36.153 36.8208 31.7522 36.8208C27.352 36.8208 23.7852 33.2534 23.7852 28.8532C23.7852 24.453 27.352 20.8855 31.7522 20.8855C36.153 20.8855 39.7204 24.453 39.7204 28.8532Z" fill="url(#paint3_linear)"/>
<path d="M38.0292 53.2L34.4892 65.98C34.4092 66.2867 34.2492 66.5333 34.0092 66.72C33.7826 66.9067 33.5092 67 33.1892 67H29.8492C29.5159 67 29.2292 66.9067 28.9892 66.72C28.7626 66.5333 28.6159 66.2867 28.5492 65.98L24.9892 53.2H28.8492L30.9692 62.62C31.0226 62.8733 31.0692 63.14 31.1092 63.42C31.1626 63.6867 31.2159 63.94 31.2692 64.18H31.7492C31.7892 63.94 31.8359 63.6867 31.8892 63.42C31.9426 63.14 31.9959 62.8733 32.0492 62.62L34.1692 53.2H38.0292Z" fill="black"/>
<defs>
<linearGradient id="paint0_linear" x1="26.2175" y1="69.5242" x2="35.2099" y2="88.8356" gradientUnits="userSpaceOnUse">
<stop stop-color="#EF9359"/>
<stop offset="1" stop-color="#E35A4B"/>
</linearGradient>
<linearGradient id="paint1_linear" x1="60.7296" y1="52.8208" x2="41.5461" y2="77.5737" gradientUnits="userSpaceOnUse">
<stop stop-color="#F0C419"/>
<stop offset="1" stop-color="#E3574B"/>
</linearGradient>
<linearGradient id="paint2_linear" x1="3.33581" y1="48.8515" x2="17.4914" y2="79.2512" gradientUnits="userSpaceOnUse">
<stop stop-color="#F0C419"/>
<stop offset="1" stop-color="#E43624"/>
</linearGradient>
<linearGradient id="paint3_linear" x1="22.0755" y1="11.1366" x2="37.1593" y2="38.7515" gradientUnits="userSpaceOnUse">
<stop stop-color="#F0C419"/>
<stop offset="1" stop-color="#DF4747"/>
</linearGradient>
</defs>
</svg>
