<svg width="64" height="83" viewBox="0 0 64 83" fill="none" xmlns="http://www.w3.org/2000/svg">
<path d="M45.2636 47.0303C45.2636 47.0303 45.386 52.9092 50.6404 55.0749C55.8955 57.2407 63.2279 60.9538 63.3509 75.1865H42.6973L45.2636 47.0303Z" fill="url(#paint0_linear)"/>
<path d="M40.649 74.2587L31.7925 74.6408L22.9366 74.2587C22.9366 74.2587 19.3012 77.1211 19.3782 83H31.6761H31.9095H44.2069C44.2845 77.1211 40.649 74.2587 40.649 74.2587Z" fill="url(#paint1_linear)"/>
<path d="M18.0867 47.0308C18.0867 47.0308 17.9643 52.9096 12.7099 55.0754C7.45484 57.2412 0.122377 60.9543 0 75.187H20.653L18.0867 47.0308Z" fill="url(#paint2_linear)"/>
<path d="M45.9718 75.8062C45.9718 75.8062 50.8298 19.1529 31.677 -1.52588e-05C12.5247 19.1529 17.3822 75.8062 17.3822 75.8062H45.9718Z" fill="#FBFDFE"/>
<path d="M39.7204 28.8532C39.7204 33.2534 36.153 36.8208 31.7522 36.8208C27.352 36.8208 23.7852 33.2534 23.7852 28.8532C23.7852 24.453 27.352 20.8855 31.7522 20.8855C36.153 20.8855 39.7204 24.453 39.7204 28.8532Z" fill="url(#paint3_linear)"/>
<path d="M38.4625 53.2C39.3292 53.2 39.7758 53.64 39.8025 54.52L40.3225 67H36.9025L36.4625 56.04H36.1425L34.3825 63.78C34.2492 64.5533 33.7692 64.94 32.9425 64.94H30.8425C30.0292 64.94 29.5425 64.5533 29.3825 63.78L27.6225 56.04H27.3025L26.9225 67H23.5025L24.0025 54.52C24.0425 53.64 24.4892 53.2 25.3425 53.2H28.7025C29.5025 53.2 29.9758 53.5933 30.1225 54.38L31.4825 60.52C31.5492 60.8533 31.6025 61.1867 31.6425 61.52C31.6825 61.8533 31.7292 62.1933 31.7825 62.54H32.0025C32.0558 62.1933 32.1025 61.8533 32.1425 61.52C32.1825 61.1867 32.2358 60.8467 32.3025 60.5L33.6225 54.38C33.7558 53.5933 34.2358 53.2 35.0625 53.2H38.4625Z" fill="black"/>
<defs>
<linearGradient id="paint0_linear" x1="60.7296" y1="52.8208" x2="41.5461" y2="77.5737" gradientUnits="userSpaceOnUse">
<stop stop-color="#F3B83A"/>
<stop offset="1" stop-color="#FFEB95"/>
</linearGradient>
<linearGradient id="paint1_linear" x1="26.2175" y1="69.5242" x2="35.2099" y2="88.8356" gradientUnits="userSpaceOnUse">
<stop stop-color="#F3B83A"/>
<stop offset="1" stop-color="#FFEB95"/>
</linearGradient>
<linearGradient id="paint2_linear" x1="3.33581" y1="48.8515" x2="17.4914" y2="79.2512" gradientUnits="userSpaceOnUse">
<stop stop-color="#F3B83A"/>
<stop offset="1" stop-color="#FFEB95"/>
</linearGradient>
<linearGradient id="paint3_linear" x1="22.0755" y1="11.1366" x2="37.1593" y2="38.7515" gradientUnits="userSpaceOnUse">
<stop stop-color="#F3B83A"/>
<stop offset="1" stop-color="#FFEB95"/>
</linearGradient>
</defs>
</svg>
