<svg width="64" height="83" viewBox="0 0 64 83" fill="none" xmlns="http://www.w3.org/2000/svg">
<path d="M45.2636 47.0303C45.2636 47.0303 45.386 52.9092 50.6404 55.0749C55.8955 57.2407 63.2279 60.9538 63.3509 75.1865H42.6973L45.2636 47.0303Z" fill="url(#paint0_linear)"/>
<path d="M40.649 74.2587L31.7925 74.6408L22.9366 74.2587C22.9366 74.2587 19.3012 77.1211 19.3782 83H31.6761H31.9095H44.2069C44.2845 77.1211 40.649 74.2587 40.649 74.2587Z" fill="url(#paint1_linear)"/>
<path d="M18.0867 47.0308C18.0867 47.0308 17.9643 52.9096 12.7099 55.0754C7.45484 57.2412 0.122377 60.9543 0 75.187H20.653L18.0867 47.0308Z" fill="url(#paint2_linear)"/>
<path d="M45.9718 75.8062C45.9718 75.8062 50.8298 19.1529 31.677 -1.52588e-05C12.5247 19.1529 17.3822 75.8062 17.3822 75.8062H45.9718Z" fill="#FBFDFE"/>
<path d="M39.7204 28.8532C39.7204 33.2534 36.153 36.8208 31.7522 36.8208C27.352 36.8208 23.7852 33.2534 23.7852 28.8532C23.7852 24.453 27.352 20.8855 31.7522 20.8855C36.153 20.8855 39.7204 24.453 39.7204 28.8532Z" fill="url(#paint3_linear)"/>
<path d="M31.7558 52.92C32.8891 52.92 33.7958 53.02 34.4758 53.22C35.1691 53.4067 35.6691 53.74 35.9758 54.22C36.2824 54.6867 36.4358 55.3267 36.4358 56.14C36.4358 57.1267 36.2891 57.92 35.9958 58.52C35.7024 59.12 35.1091 59.4867 34.2158 59.62V59.7C35.1891 59.8467 35.8558 60.2 36.2158 60.76C36.5891 61.3067 36.7824 62.1067 36.7958 63.16C36.8091 64.6267 36.4424 65.68 35.6958 66.32C34.9491 66.96 33.6624 67.28 31.8358 67.28C30.9958 67.28 30.1491 67.24 29.2958 67.16C28.4424 67.0933 27.6224 67.0067 26.8358 66.9L26.9558 64.22C27.5424 64.26 28.0491 64.2867 28.4758 64.3C28.9024 64.3133 29.2958 64.3267 29.6558 64.34C30.0158 64.34 30.3958 64.34 30.7958 64.34C31.3824 64.34 31.8424 64.3 32.1758 64.22C32.5091 64.14 32.7424 63.98 32.8758 63.74C33.0224 63.5 33.0958 63.14 33.0958 62.66C33.0958 62.0733 32.9758 61.6533 32.7358 61.4C32.5091 61.1333 32.0224 61.0067 31.2758 61.02L28.6358 61.04V58.68H31.2758C31.7824 58.68 32.1491 58.62 32.3758 58.5C32.6158 58.3667 32.7691 58.1867 32.8358 57.96C32.9024 57.7333 32.9358 57.4667 32.9358 57.16C32.9224 56.6 32.7891 56.24 32.5358 56.08C32.2824 55.92 31.8024 55.84 31.0958 55.84C30.3891 55.84 29.6958 55.8467 29.0158 55.86C28.3491 55.86 27.7624 55.86 27.2558 55.86L27.1358 53.3C27.9091 53.1667 28.6824 53.0733 29.4558 53.02C30.2291 52.9533 30.9958 52.92 31.7558 52.92Z" fill="black"/>
<defs>
<linearGradient id="paint0_linear" x1="60.7296" y1="52.8208" x2="41.5461" y2="77.5737" gradientUnits="userSpaceOnUse">
<stop stop-color="#F3B83A"/>
<stop offset="1" stop-color="#FFEB95"/>
</linearGradient>
<linearGradient id="paint1_linear" x1="26.2175" y1="69.5242" x2="35.2099" y2="88.8356" gradientUnits="userSpaceOnUse">
<stop stop-color="#F3B83A"/>
<stop offset="1" stop-color="#FFEB95"/>
</linearGradient>
<linearGradient id="paint2_linear" x1="3.33581" y1="48.8515" x2="17.4914" y2="79.2512" gradientUnits="userSpaceOnUse">
<stop stop-color="#F3B83A"/>
<stop offset="1" stop-color="#FFEB95"/>
</linearGradient>
<linearGradient id="paint3_linear" x1="22.0755" y1="11.1366" x2="37.1593" y2="38.7515" gradientUnits="userSpaceOnUse">
<stop stop-color="#F3B83A"/>
<stop offset="1" stop-color="#FFEB95"/>
</linearGradient>
</defs>
</svg>
