<svg width="64" height="83" viewBox="0 0 64 83" fill="none" xmlns="http://www.w3.org/2000/svg">
<path d="M40.649 74.2587L31.7925 74.6408L22.9366 74.2587C22.9366 74.2587 19.3012 77.1211 19.3782 83H31.6761H31.9095H44.2069C44.2845 77.1211 40.649 74.2587 40.649 74.2587Z" fill="url(#paint0_linear)"/>
<path d="M45.2636 47.0303C45.2636 47.0303 45.386 52.9092 50.6404 55.0749C55.8955 57.2407 63.2279 60.9538 63.3509 75.1865H42.6973L45.2636 47.0303Z" fill="url(#paint1_linear)"/>
<path d="M18.0867 47.0308C18.0867 47.0308 17.9643 52.9096 12.7099 55.0754C7.45484 57.2412 0.122377 60.9543 0 75.187H20.653L18.0867 47.0308Z" fill="url(#paint2_linear)"/>
<path d="M45.9718 75.8062C45.9718 75.8062 50.8298 19.1529 31.677 -1.52588e-05C12.5247 19.1529 17.3822 75.8062 17.3822 75.8062H45.9718Z" fill="#FBFDFE"/>
<path d="M39.7204 28.8532C39.7204 33.2534 36.153 36.8208 31.7522 36.8208C27.352 36.8208 23.7852 33.2534 23.7852 28.8532C23.7852 24.453 27.352 20.8855 31.7522 20.8855C36.153 20.8855 39.7204 24.453 39.7204 28.8532Z" fill="url(#paint3_linear)"/>
<path d="M37.0087 53.2L36.8887 55.94H31.1887L31.0487 57.9L33.3687 58.2C34.4353 58.3067 35.262 58.58 35.8487 59.02C36.4487 59.46 36.862 60.0067 37.0887 60.66C37.3153 61.3 37.4287 61.9933 37.4287 62.74C37.4287 63.5667 37.282 64.32 36.9887 65C36.6953 65.68 36.182 66.2267 35.4487 66.64C34.7153 67.04 33.6953 67.24 32.3887 67.24C31.6953 67.24 30.922 67.2067 30.0687 67.14C29.2287 67.0733 28.3687 66.9733 27.4887 66.84L27.8287 64.04C28.4953 64.08 29.1353 64.12 29.7487 64.16C30.362 64.2 30.9153 64.22 31.4087 64.22C32.022 64.22 32.4887 64.1667 32.8087 64.06C33.1287 63.94 33.3553 63.7667 33.4887 63.54C33.622 63.3 33.6953 62.9933 33.7087 62.62C33.7487 61.9667 33.5753 61.5333 33.1887 61.32C32.8153 61.1067 32.162 60.9667 31.2287 60.9L29.0687 60.64C28.7487 60.6 28.482 60.4667 28.2687 60.24C28.0687 60.0133 27.982 59.74 28.0087 59.42L28.3687 53.2H37.0087Z" fill="black"/>
<defs>
<linearGradient id="paint0_linear" x1="16.7128" y1="68.9109" x2="20.3598" y2="87.8774" gradientUnits="userSpaceOnUse">
<stop stop-color="#7D0D98"/>
<stop offset="1" stop-color="#FFA4AF"/>
</linearGradient>
<linearGradient id="paint1_linear" x1="40.4813" y1="29.8047" x2="70.8281" y2="70.5584" gradientUnits="userSpaceOnUse">
<stop stop-color="#7D0D98"/>
<stop offset="1" stop-color="#FFA4AF"/>
</linearGradient>
<linearGradient id="paint2_linear" x1="-2.21586" y1="29.8052" x2="28.1311" y2="70.5581" gradientUnits="userSpaceOnUse">
<stop stop-color="#7D0D98"/>
<stop offset="1" stop-color="#FFA4AF"/>
</linearGradient>
<linearGradient id="paint3_linear" x1="22.0755" y1="11.1366" x2="37.1593" y2="38.7515" gradientUnits="userSpaceOnUse">
<stop stop-color="#7D0D98"/>
<stop offset="1" stop-color="#FFA4AF"/>
</linearGradient>
</defs>
</svg>
