<svg width="64" height="83" viewBox="0 0 64 83" fill="none" xmlns="http://www.w3.org/2000/svg">
<path d="M40.649 74.2587L31.7925 74.6408L22.9366 74.2587C22.9366 74.2587 19.3012 77.1211 19.3782 83H31.6761H31.9095H44.2069C44.2845 77.1211 40.649 74.2587 40.649 74.2587Z" fill="url(#paint0_linear)"/>
<path d="M45.2636 47.0303C45.2636 47.0303 45.386 52.9092 50.6404 55.0749C55.8955 57.2407 63.2279 60.9538 63.3509 75.1865H42.6973L45.2636 47.0303Z" fill="url(#paint1_linear)"/>
<path d="M18.0867 47.0308C18.0867 47.0308 17.9643 52.9096 12.7099 55.0754C7.45484 57.2412 0.122377 60.9543 0 75.187H20.653L18.0867 47.0308Z" fill="url(#paint2_linear)"/>
<path d="M45.9718 75.8062C45.9718 75.8062 50.8298 19.1529 31.677 -1.52588e-05C12.5247 19.1529 17.3822 75.8062 17.3822 75.8062H45.9718Z" fill="#FBFDFE"/>
<path d="M39.7204 28.8532C39.7204 33.2534 36.153 36.8208 31.7522 36.8208C27.352 36.8208 23.7852 33.2534 23.7852 28.8532C23.7852 24.453 27.352 20.8855 31.7522 20.8855C36.153 20.8855 39.7204 24.453 39.7204 28.8532Z" fill="url(#paint3_linear)"/>
<path d="M32.6278 52.92C33.3345 52.9333 34.1145 52.98 34.9678 53.06C35.8211 53.14 36.6478 53.3067 37.4478 53.56L37.2078 56C36.6211 55.9867 35.9011 55.9733 35.0478 55.96C34.2078 55.9467 33.3811 55.94 32.5678 55.94C31.9545 55.94 31.5278 55.9933 31.2878 56.1C31.0611 56.1933 30.9478 56.4333 30.9478 56.82C30.9478 57.14 31.0411 57.3867 31.2278 57.56C31.4278 57.72 31.7745 57.8867 32.2678 58.06L34.8478 59.02C35.9678 59.4733 36.7478 60.02 37.1878 60.66C37.6411 61.3 37.8678 62.1333 37.8678 63.16C37.8678 64.2 37.6945 65.02 37.3478 65.62C37.0145 66.22 36.4545 66.6467 35.6678 66.9C34.8811 67.1533 33.8145 67.28 32.4678 67.28C32.0011 67.28 31.3145 67.2467 30.4078 67.18C29.5145 67.1133 28.5011 66.94 27.3678 66.66L27.5878 64.02C28.7745 64.0467 29.7745 64.0733 30.5878 64.1C31.4011 64.1133 32.0145 64.12 32.4278 64.12C33.0945 64.12 33.5411 64.0667 33.7678 63.96C33.9945 63.84 34.1078 63.6 34.1078 63.24C34.1078 62.9067 34.0278 62.6667 33.8678 62.52C33.7078 62.36 33.4145 62.2133 32.9878 62.08L30.2278 60.98C29.1345 60.54 28.3611 60.0067 27.9078 59.38C27.4545 58.74 27.2278 57.9133 27.2278 56.9C27.2278 55.8467 27.4011 55.0333 27.7478 54.46C28.1078 53.8867 28.6811 53.4867 29.4678 53.26C30.2678 53.0333 31.3211 52.92 32.6278 52.92Z" fill="black"/>
<defs>
<linearGradient id="paint0_linear" x1="16.7128" y1="68.9109" x2="20.3598" y2="87.8774" gradientUnits="userSpaceOnUse">
<stop stop-color="#7D0D98"/>
<stop offset="1" stop-color="#FFA4AF"/>
</linearGradient>
<linearGradient id="paint1_linear" x1="40.4813" y1="29.8047" x2="70.8281" y2="70.5584" gradientUnits="userSpaceOnUse">
<stop stop-color="#7D0D98"/>
<stop offset="1" stop-color="#FFA4AF"/>
</linearGradient>
<linearGradient id="paint2_linear" x1="-2.21586" y1="29.8052" x2="28.1311" y2="70.5581" gradientUnits="userSpaceOnUse">
<stop stop-color="#7D0D98"/>
<stop offset="1" stop-color="#FFA4AF"/>
</linearGradient>
<linearGradient id="paint3_linear" x1="22.0755" y1="11.1366" x2="37.1593" y2="38.7515" gradientUnits="userSpaceOnUse">
<stop stop-color="#7D0D98"/>
<stop offset="1" stop-color="#FFA4AF"/>
</linearGradient>
</defs>
</svg>
