<svg width="64" height="83" viewBox="0 0 64 83" fill="none" xmlns="http://www.w3.org/2000/svg">
<path d="M40.649 74.2587L31.7925 74.6408L22.9366 74.2587C22.9366 74.2587 19.3012 77.1211 19.3782 83H31.6761H31.9095H44.2069C44.2845 77.1211 40.649 74.2587 40.649 74.2587Z" fill="url(#paint0_linear)"/>
<path d="M45.2636 47.0303C45.2636 47.0303 45.386 52.9092 50.6404 55.0749C55.8955 57.2407 63.2279 60.9538 63.3509 75.1865H42.6973L45.2636 47.0303Z" fill="url(#paint1_linear)"/>
<path d="M18.0867 47.0308C18.0867 47.0308 17.9643 52.9096 12.7099 55.0754C7.45484 57.2412 0.122377 60.9543 0 75.187H20.653L18.0867 47.0308Z" fill="url(#paint2_linear)"/>
<path d="M45.9718 75.8062C45.9718 75.8062 50.8298 19.1529 31.677 -1.52588e-05C12.5247 19.1529 17.3822 75.8062 17.3822 75.8062H45.9718Z" fill="#FBFDFE"/>
<path d="M39.7204 28.8532C39.7204 33.2534 36.153 36.8208 31.7522 36.8208C27.352 36.8208 23.7852 33.2534 23.7852 28.8532C23.7852 24.453 27.352 20.8855 31.7522 20.8855C36.153 20.8855 39.7204 24.453 39.7204 28.8532Z" fill="url(#paint3_linear)"/>
<path d="M32.4894 52.96C32.8494 52.96 33.356 52.98 34.0094 53.02C34.6627 53.0467 35.3427 53.16 36.0494 53.36L35.8894 55.66C35.516 55.6467 35.1694 55.64 34.8494 55.64C34.5427 55.64 34.2027 55.64 33.8294 55.64C33.4694 55.64 33.0227 55.64 32.4894 55.64C31.876 55.64 31.4027 55.7133 31.0694 55.86C30.736 56.0067 30.496 56.3067 30.3494 56.76C30.2027 57.2 30.1094 57.86 30.0694 58.74C30.456 58.42 30.8694 58.2 31.3094 58.08C31.7627 57.96 32.3027 57.9 32.9294 57.9C33.9827 57.9 34.8027 58.0467 35.3894 58.34C35.976 58.6333 36.3827 59.0933 36.6094 59.72C36.8494 60.3467 36.9694 61.1667 36.9694 62.18C36.9694 63.34 36.8294 64.2933 36.5494 65.04C36.2827 65.7867 35.776 66.34 35.0294 66.7C34.296 67.06 33.2227 67.24 31.8094 67.24C30.7827 67.24 29.9227 67.14 29.2294 66.94C28.5494 66.7267 28.0027 66.3667 27.5894 65.86C27.176 65.34 26.8827 64.6267 26.7094 63.72C26.536 62.8133 26.4494 61.66 26.4494 60.26C26.4494 58.6867 26.576 57.42 26.8294 56.46C27.0827 55.4867 27.456 54.7467 27.9494 54.24C28.456 53.7333 29.0827 53.3933 29.8294 53.22C30.5894 53.0467 31.476 52.96 32.4894 52.96ZM31.8094 60.42C31.4894 60.42 31.196 60.46 30.9294 60.54C30.676 60.62 30.3827 60.7533 30.0494 60.94C30.0494 61.9667 30.0894 62.74 30.1694 63.26C30.2494 63.78 30.4094 64.1267 30.6494 64.3C30.9027 64.4733 31.3027 64.56 31.8494 64.56C32.356 64.56 32.7227 64.4867 32.9494 64.34C33.176 64.1933 33.316 63.9533 33.3694 63.62C33.436 63.2733 33.4694 62.82 33.4694 62.26C33.4694 61.7667 33.4227 61.3867 33.3294 61.12C33.2494 60.8533 33.0894 60.6733 32.8494 60.58C32.6094 60.4733 32.2627 60.42 31.8094 60.42Z" fill="black"/>
<defs>
<linearGradient id="paint0_linear" x1="16.7128" y1="68.9109" x2="20.3598" y2="87.8774" gradientUnits="userSpaceOnUse">
<stop stop-color="#079AC0"/>
<stop offset="1" stop-color="#29DDFF"/>
</linearGradient>
<linearGradient id="paint1_linear" x1="40.4813" y1="29.8047" x2="70.8281" y2="70.5584" gradientUnits="userSpaceOnUse">
<stop stop-color="#079AC0"/>
<stop offset="1" stop-color="#29DDFF"/>
</linearGradient>
<linearGradient id="paint2_linear" x1="-2.21586" y1="29.8052" x2="28.1311" y2="70.5581" gradientUnits="userSpaceOnUse">
<stop stop-color="#079AC0"/>
<stop offset="1" stop-color="#29DDFF"/>
</linearGradient>
<linearGradient id="paint3_linear" x1="22.0755" y1="11.1366" x2="37.1593" y2="38.7515" gradientUnits="userSpaceOnUse">
<stop stop-color="#079AC0"/>
<stop offset="1" stop-color="#29DDFF"/>
</linearGradient>
</defs>
</svg>
