<svg width="64" height="83" viewBox="0 0 64 83" fill="none" xmlns="http://www.w3.org/2000/svg">
<path d="M40.649 74.2587L31.7925 74.6408L22.9366 74.2587C22.9366 74.2587 19.3012 77.1211 19.3782 83H31.6761H31.9095H44.2069C44.2845 77.1211 40.649 74.2587 40.649 74.2587Z" fill="url(#paint0_linear)"/>
<path d="M45.2636 47.0303C45.2636 47.0303 45.386 52.9092 50.6404 55.0749C55.8955 57.2407 63.2279 60.9538 63.3509 75.1865H42.6973L45.2636 47.0303Z" fill="url(#paint1_linear)"/>
<path d="M18.0867 47.0308C18.0867 47.0308 17.9643 52.9096 12.7099 55.0754C7.45484 57.2412 0.122377 60.9543 0 75.187H20.653L18.0867 47.0308Z" fill="url(#paint2_linear)"/>
<path d="M45.9718 75.8062C45.9718 75.8062 50.8298 19.1529 31.677 -1.52588e-05C12.5247 19.1529 17.3822 75.8062 17.3822 75.8062H45.9718Z" fill="#FBFDFE"/>
<path d="M39.7204 28.8532C39.7204 33.2534 36.153 36.8208 31.7522 36.8208C27.352 36.8208 23.7852 33.2534 23.7852 28.8532C23.7852 24.453 27.352 20.8855 31.7522 20.8855C36.153 20.8855 39.7204 24.453 39.7204 28.8532Z" fill="url(#paint3_linear)"/>
<path d="M35.6548 53.2C36.1881 53.2 36.5948 53.38 36.8748 53.74C37.1681 54.1 37.2281 54.5333 37.0548 55.04L32.8748 67H29.2148L32.5548 57.66C32.6348 57.42 32.7214 57.18 32.8148 56.94C32.9214 56.7 33.0614 56.46 33.2348 56.22H27.1948L27.0348 53.2H35.6548Z" fill="black"/>
<defs>
<linearGradient id="paint0_linear" x1="16.7128" y1="68.9109" x2="20.3598" y2="87.8774" gradientUnits="userSpaceOnUse">
<stop stop-color="#2648A3"/>
<stop offset="1" stop-color="#7AB2E4"/>
</linearGradient>
<linearGradient id="paint1_linear" x1="40.4813" y1="29.8047" x2="70.8281" y2="70.5584" gradientUnits="userSpaceOnUse">
<stop stop-color="#2648A3"/>
<stop offset="1" stop-color="#7AB2E4"/>
</linearGradient>
<linearGradient id="paint2_linear" x1="-2.21586" y1="29.8052" x2="28.1311" y2="70.5581" gradientUnits="userSpaceOnUse">
<stop stop-color="#2648A3"/>
<stop offset="1" stop-color="#7AB2E4"/>
</linearGradient>
<linearGradient id="paint3_linear" x1="22.0755" y1="11.1366" x2="37.1593" y2="38.7515" gradientUnits="userSpaceOnUse">
<stop stop-color="#2648A3"/>
<stop offset="1" stop-color="#7AB2E4"/>
</linearGradient>
</defs>
</svg>
