<svg width="64" height="83" viewBox="0 0 64 83" fill="none" xmlns="http://www.w3.org/2000/svg">
<path d="M40.649 74.2587L31.7925 74.6408L22.9366 74.2587C22.9366 74.2587 19.3012 77.1211 19.3782 83H31.6761H31.9095H44.2069C44.2845 77.1211 40.649 74.2587 40.649 74.2587Z" fill="url(#paint0_linear)"/>
<path d="M45.2636 47.0303C45.2636 47.0303 45.386 52.9092 50.6404 55.0749C55.8955 57.2407 63.2279 60.9538 63.3509 75.1865H42.6973L45.2636 47.0303Z" fill="url(#paint1_linear)"/>
<path d="M18.0867 47.0308C18.0867 47.0308 17.9643 52.9096 12.7099 55.0754C7.45484 57.2412 0.122377 60.9543 0 75.187H20.653L18.0867 47.0308Z" fill="url(#paint2_linear)"/>
<path d="M45.9718 75.8062C45.9718 75.8062 50.8298 19.1529 31.677 -1.52588e-05C12.5247 19.1529 17.3822 75.8062 17.3822 75.8062H45.9718Z" fill="#FBFDFE"/>
<path d="M39.7204 28.8532C39.7204 33.2534 36.153 36.8208 31.7522 36.8208C27.352 36.8208 23.7852 33.2534 23.7852 28.8532C23.7852 24.453 27.352 20.8855 31.7522 20.8855C36.153 20.8855 39.7204 24.453 39.7204 28.8532Z" fill="url(#paint3_linear)"/>
<path d="M38.1114 53.2V65.68C38.1114 66.56 37.6781 67 36.8114 67H35.1314C34.7314 67 34.4314 66.9067 34.2314 66.72C34.0447 66.5333 33.8514 66.26 33.6514 65.9L30.2714 60.02C30.0981 59.7 29.9314 59.3467 29.7714 58.96C29.6247 58.56 29.4981 58.1667 29.3914 57.78H29.2114C29.2647 58.1667 29.3047 58.5667 29.3314 58.98C29.3714 59.38 29.3914 59.7667 29.3914 60.14V67H25.8914V54.52C25.8914 53.64 26.3314 53.2 27.2114 53.2H28.8714C29.2581 53.2 29.5447 53.2933 29.7314 53.48C29.9314 53.6667 30.1381 53.94 30.3514 54.3L33.5914 59.96C33.7781 60.28 33.9581 60.64 34.1314 61.04C34.3047 61.4267 34.4714 61.8267 34.6314 62.24H34.8114C34.7714 61.8267 34.7381 61.4267 34.7114 61.04C34.6847 60.64 34.6714 60.2333 34.6714 59.82L34.6514 53.2H38.1114Z" fill="black"/>
<defs>
<linearGradient id="paint0_linear" x1="16.7128" y1="68.9109" x2="20.3598" y2="87.8774" gradientUnits="userSpaceOnUse">
<stop stop-color="#2648A3"/>
<stop offset="1" stop-color="#7AB2E4"/>
</linearGradient>
<linearGradient id="paint1_linear" x1="40.4813" y1="29.8047" x2="70.8281" y2="70.5584" gradientUnits="userSpaceOnUse">
<stop stop-color="#2648A3"/>
<stop offset="1" stop-color="#7AB2E4"/>
</linearGradient>
<linearGradient id="paint2_linear" x1="-2.21586" y1="29.8052" x2="28.1311" y2="70.5581" gradientUnits="userSpaceOnUse">
<stop stop-color="#2648A3"/>
<stop offset="1" stop-color="#7AB2E4"/>
</linearGradient>
<linearGradient id="paint3_linear" x1="22.0755" y1="11.1366" x2="37.1593" y2="38.7515" gradientUnits="userSpaceOnUse">
<stop stop-color="#2648A3"/>
<stop offset="1" stop-color="#7AB2E4"/>
</linearGradient>
</defs>
</svg>
