<svg width="64" height="83" viewBox="0 0 64 83" fill="none" xmlns="http://www.w3.org/2000/svg">
<path d="M40.649 74.2587L31.7925 74.6408L22.9366 74.2587C22.9366 74.2587 19.3012 77.1211 19.3782 83H31.6761H31.9095H44.2069C44.2845 77.1211 40.649 74.2587 40.649 74.2587Z" fill="url(#paint0_linear)"/>
<path d="M45.2636 47.0303C45.2636 47.0303 45.386 52.9092 50.6404 55.0749C55.8955 57.2407 63.2279 60.9538 63.3509 75.1865H42.6973L45.2636 47.0303Z" fill="url(#paint1_linear)"/>
<path d="M18.0867 47.0308C18.0867 47.0308 17.9643 52.9096 12.7099 55.0754C7.45484 57.2412 0.122377 60.9543 0 75.187H20.653L18.0867 47.0308Z" fill="url(#paint2_linear)"/>
<path d="M45.9718 75.8062C45.9718 75.8062 50.8298 19.1529 31.677 -1.52588e-05C12.5247 19.1529 17.3822 75.8062 17.3822 75.8062H45.9718Z" fill="#FBFDFE"/>
<path d="M39.7204 28.8532C39.7204 33.2534 36.153 36.8208 31.7522 36.8208C27.352 36.8208 23.7852 33.2534 23.7852 28.8532C23.7852 24.453 27.352 20.8855 31.7522 20.8855C36.153 20.8855 39.7204 24.453 39.7204 28.8532Z" fill="url(#paint3_linear)"/>
<path d="M32.8132 53C34.1999 53 35.2865 53.1333 36.0732 53.4C36.8599 53.6667 37.4199 54.14 37.7532 54.82C38.0865 55.4867 38.2532 56.42 38.2532 57.62C38.2532 58.82 38.0932 59.7533 37.7732 60.42C37.4665 61.0733 36.9532 61.5333 36.2332 61.8C35.5132 62.0667 34.5465 62.2 33.3332 62.2C32.9332 62.2 32.5332 62.1867 32.1332 62.16C31.7465 62.1333 31.3665 62.1 30.9932 62.06V67H27.2332V53.2C27.8199 53.1467 28.3665 53.1067 28.8732 53.08C29.3932 53.04 29.9599 53.02 30.5732 53.02C31.1999 53.0067 31.9465 53 32.8132 53ZM32.7332 55.72C32.4265 55.72 32.1265 55.72 31.8332 55.72C31.5399 55.72 31.2599 55.72 30.9932 55.72V59.5H32.7332C33.4265 59.4867 33.8932 59.36 34.1332 59.12C34.3732 58.8667 34.4932 58.3667 34.4932 57.62C34.4932 56.86 34.3732 56.3533 34.1332 56.1C33.8932 55.8467 33.4265 55.72 32.7332 55.72Z" fill="black"/>
<defs>
<linearGradient id="paint0_linear" x1="16.7128" y1="68.9109" x2="20.3598" y2="87.8774" gradientUnits="userSpaceOnUse">
<stop stop-color="#F562DC"/>
<stop offset="1" stop-color="#7D0D98"/>
</linearGradient>
<linearGradient id="paint1_linear" x1="40.4813" y1="29.8047" x2="70.8281" y2="70.5584" gradientUnits="userSpaceOnUse">
<stop stop-color="#F562DC"/>
<stop offset="1" stop-color="#7D0D98"/>
</linearGradient>
<linearGradient id="paint2_linear" x1="-2.21586" y1="29.8052" x2="28.1311" y2="70.5581" gradientUnits="userSpaceOnUse">
<stop stop-color="#F562DC"/>
<stop offset="1" stop-color="#7D0D98"/>
</linearGradient>
<linearGradient id="paint3_linear" x1="22.0755" y1="11.1366" x2="37.1593" y2="38.7515" gradientUnits="userSpaceOnUse">
<stop stop-color="#F562DC"/>
<stop offset="1" stop-color="#7D0D98"/>
</linearGradient>
</defs>
</svg>
