<svg width="64" height="83" viewBox="0 0 64 83" fill="none" xmlns="http://www.w3.org/2000/svg">
<path d="M40.649 74.2587L31.7925 74.6408L22.9366 74.2587C22.9366 74.2587 19.3012 77.1211 19.3782 83H31.6761H31.9095H44.2069C44.2845 77.1211 40.649 74.2587 40.649 74.2587Z" fill="url(#paint0_linear)"/>
<path d="M45.2636 47.0303C45.2636 47.0303 45.386 52.9092 50.6404 55.0749C55.8955 57.2407 63.2279 60.9538 63.3509 75.1865H42.6973L45.2636 47.0303Z" fill="url(#paint1_linear)"/>
<path d="M18.0867 47.0308C18.0867 47.0308 17.9643 52.9096 12.7099 55.0754C7.45484 57.2412 0.122377 60.9543 0 75.187H20.653L18.0867 47.0308Z" fill="url(#paint2_linear)"/>
<path d="M45.9718 75.8062C45.9718 75.8062 50.8298 19.1529 31.677 -1.52588e-05C12.5247 19.1529 17.3822 75.8062 17.3822 75.8062H45.9718Z" fill="#FBFDFE"/>
<path d="M39.7204 28.8532C39.7204 33.2534 36.153 36.8208 31.7522 36.8208C27.352 36.8208 23.7852 33.2534 23.7852 28.8532C23.7852 24.453 27.352 20.8855 31.7522 20.8855C36.153 20.8855 39.7204 24.453 39.7204 28.8532Z" fill="url(#paint3_linear)"/>
<path d="M32.363 52.94C33.7763 52.94 34.843 53.0733 35.563 53.34C36.2963 53.5933 36.7963 53.9933 37.063 54.54C37.3296 55.0733 37.463 55.7733 37.463 56.64C37.463 57.1333 37.3896 57.6133 37.243 58.08C37.1096 58.5467 36.883 58.94 36.563 59.26C36.2563 59.5667 35.8496 59.7467 35.343 59.8V59.88C36.0096 59.9333 36.5163 60.14 36.863 60.5C37.223 60.8467 37.4696 61.2933 37.603 61.84C37.7363 62.3733 37.803 62.9467 37.803 63.56C37.803 64.4667 37.6563 65.1933 37.363 65.74C37.0696 66.2733 36.5296 66.66 35.743 66.9C34.9563 67.14 33.8296 67.26 32.363 67.26C30.923 67.26 29.8096 67.14 29.023 66.9C28.2363 66.66 27.6896 66.2733 27.383 65.74C27.0763 65.1933 26.923 64.4667 26.923 63.56C26.923 62.9467 26.9896 62.3733 27.123 61.84C27.2563 61.2933 27.503 60.8467 27.863 60.5C28.223 60.14 28.7363 59.9333 29.403 59.88V59.8C28.8963 59.7467 28.483 59.5667 28.163 59.26C27.8563 58.94 27.6296 58.5467 27.483 58.08C27.3496 57.6133 27.283 57.1333 27.283 56.64C27.283 55.7733 27.4163 55.0733 27.683 54.54C27.9496 53.9933 28.4496 53.5933 29.183 53.34C29.9163 53.0733 30.9763 52.94 32.363 52.94ZM32.383 55.42C31.9163 55.42 31.5563 55.4667 31.303 55.56C31.0496 55.6533 30.8763 55.82 30.783 56.06C30.6896 56.3 30.643 56.6533 30.643 57.12C30.643 57.76 30.763 58.18 31.003 58.38C31.243 58.5667 31.7163 58.66 32.423 58.66C32.8896 58.66 33.243 58.62 33.483 58.54C33.723 58.46 33.883 58.3133 33.963 58.1C34.0563 57.8733 34.103 57.5467 34.103 57.12C34.103 56.6533 34.0563 56.3 33.963 56.06C33.8696 55.82 33.6963 55.6533 33.443 55.56C33.203 55.4667 32.8496 55.42 32.383 55.42ZM32.403 61.02C31.8696 61.02 31.463 61.0733 31.183 61.18C30.903 61.2733 30.7096 61.4533 30.603 61.72C30.4963 61.9733 30.443 62.3533 30.443 62.86C30.443 63.3133 30.4963 63.6667 30.603 63.92C30.7096 64.1733 30.903 64.3467 31.183 64.44C31.463 64.5333 31.863 64.58 32.383 64.58C32.903 64.58 33.2963 64.5333 33.563 64.44C33.843 64.3467 34.0296 64.1733 34.123 63.92C34.2163 63.6667 34.263 63.3133 34.263 62.86C34.263 62.3533 34.2163 61.9667 34.123 61.7C34.0296 61.4333 33.843 61.2533 33.563 61.16C33.2963 61.0667 32.9096 61.02 32.403 61.02Z" fill="black"/>
<defs>
<linearGradient id="paint0_linear" x1="16.7128" y1="68.9109" x2="20.3598" y2="87.8774" gradientUnits="userSpaceOnUse">
<stop stop-color="#F562DC"/>
<stop offset="1" stop-color="#7D0D98"/>
</linearGradient>
<linearGradient id="paint1_linear" x1="40.4813" y1="29.8047" x2="70.8281" y2="70.5584" gradientUnits="userSpaceOnUse">
<stop stop-color="#F562DC"/>
<stop offset="1" stop-color="#7D0D98"/>
</linearGradient>
<linearGradient id="paint2_linear" x1="-2.21586" y1="29.8052" x2="28.1311" y2="70.5581" gradientUnits="userSpaceOnUse">
<stop stop-color="#F562DC"/>
<stop offset="1" stop-color="#7D0D98"/>
</linearGradient>
<linearGradient id="paint3_linear" x1="22.0755" y1="11.1366" x2="37.1593" y2="38.7515" gradientUnits="userSpaceOnUse">
<stop stop-color="#F562DC"/>
<stop offset="1" stop-color="#7D0D98"/>
</linearGradient>
</defs>
</svg>
