<svg width="1366" height="668" viewBox="0 0 1366 668" fill="none" xmlns="http://www.w3.org/2000/svg">
<g clip-path="url(#clip0)">
<rect width="1366" height="668" fill="#180F4A"/>
<path d="M1027.67 246.107C1046.98 109.573 787.825 6.82716 722 -27.4788H1273.75L1274 668H556C741 454.42 860.5 703.347 982.5 545.03C1035.85 475.8 1008.37 382.641 1027.67 246.107Z" fill="#110941"/>
<path d="M1106.65 248.685C1122.92 112.151 1016.03 9.40578 960.557 -24.9001H1314.04L1386.5 668H1107C1167.73 635.728 1186 552 1154.77 502.618C1135.58 472.264 1090.38 385.219 1106.65 248.685Z" fill="#0B0527"/>
<path d="M1216.12 248.043C1229.48 110.282 1141.72 6.61404 1096.17 -28H1386.5V668H1354.5C1404.36 635.438 1272.33 529.214 1255.63 504.256C1236.89 476.252 1202.76 385.803 1216.12 248.043Z" fill="#050216"/>
<path d="M1048.06 29.0678L1051.07 34.3384L1056.56 37.2201L1051.07 40.1036L1048.06 45.3724L1045.06 40.1036L1039.57 37.2201L1045.06 34.3384L1048.06 29.0678Z" fill="#F4F4F4"/>
<path d="M1180.08 124.705L1183.07 129.952L1188.54 132.821L1183.07 135.69L1180.08 140.937L1177.09 135.69L1171.63 132.821L1177.09 129.952L1180.08 124.705Z" fill="#F4F4F4"/>
<path d="M1274.88 190.347L1279.34 198.172L1287.49 202.452L1279.34 206.731L1274.88 214.557L1270.42 206.731L1262.27 202.452L1270.42 198.172L1274.88 190.347Z" fill="#F4F4F4"/>
<path d="M962.764 309.197L967.517 317.537L976.206 322.098L967.517 326.659L962.764 334.999L958.012 326.659L949.321 322.098L958.012 317.537L962.764 309.197Z" fill="#F4F4F4"/>
<path d="M1307.97 317.727L1309.58 320.552L1312.52 322.098L1309.58 323.644L1307.97 326.469L1306.36 323.644L1303.41 322.098L1306.36 320.552L1307.97 317.727Z" fill="#F4F4F4"/>
<path d="M1102 259.843L1103.61 262.67L1106.55 264.216L1103.61 265.762L1102 268.587L1100.39 265.762L1097.44 264.216L1100.39 262.67L1102 259.843Z" fill="#F4F4F4"/>
<path d="M1312.52 57.8787L1316 63.976L1322.35 67.3103L1316 70.6446L1312.52 76.7401L1309.05 70.6446L1302.7 67.3103L1309.05 63.976L1312.52 57.8787Z" fill="#F4F4F4"/>
<path d="M1211.43 -10.9969L1218.23 0.933073L1230.66 7.45747L1218.23 13.9837L1211.43 25.9138L1204.63 13.9837L1192.2 7.45747L1204.63 0.933073L1211.43 -10.9969Z" fill="#F4F4F4"/>
<path d="M1102 143.446L1108.8 155.378L1121.23 161.902L1108.8 168.428L1102 180.358L1095.2 168.428L1082.77 161.902L1095.2 155.378L1102 143.446Z" fill="#F4F4F4"/>
<path d="M1345.95 364.065L1351.62 374.026L1362 379.476L1351.62 384.922L1345.95 394.882L1340.27 384.922L1329.89 379.476L1340.27 374.026L1345.95 364.065Z" fill="#F4F4F4"/>
<path d="M1077.82 369.78C1077.77 369.877 1077.74 369.977 1077.7 370.079C1077.75 369.982 1077.78 369.88 1077.82 369.78Z" fill="#122220"/>
<path d="M1284.39 323.64C1284.43 323.846 1284.46 324.056 1284.46 324.271C1284.42 324.06 1284.41 323.85 1284.39 323.64Z" fill="#122220"/>
<rect width="1366" height="672" fill="url(#paint0_linear)"/>
<g opacity="0.39">
<path fill-rule="evenodd" clip-rule="evenodd" d="M9.03467 -109.624C-0.882205 -27.9308 -18.23 59.4172 -53.6019 97.4645C-86.3348 132.673 -58.7946 150.309 -13.1079 179.566C45.8378 217.313 134.991 274.404 163.875 413.54C179.82 490.35 263.002 519.254 356.824 544.934C354.381 532.177 353.311 519.121 353.859 505.814C359.177 376.779 282.926 313.341 244.137 297.751C188.974 285.295 91.4223 234.556 128.434 129.834C87.3529 115.357 95.7837 73.5547 104.489 30.3909C112.641 -10.0294 121.034 -51.6435 89.2343 -73.13L-4.58819 -175.39L-37.7181 -104.035C-24.0761 -107.733 -8.54929 -109.789 9.03467 -109.624ZM-131.744 98.4778L-181.353 205.325L-192.549 303.048C-194.079 341.294 -170.045 417.319 -73.1821 463.764C-36.7154 399.98 -25.3672 324.727 -68.4103 279.333C-113.503 231.778 -129.324 161.919 -131.744 98.4778ZM321.316 710.531L206.582 679.788C204.349 659.364 195.544 630.898 176.242 601.715C228.165 608.559 290.796 671.826 321.316 710.531ZM-2.84716 -179.14C65.5006 -126.156 167.609 -93.3217 209.316 -105.105L218.89 -40.1559C275.759 -14.8311 326.75 -1.13626 371.374 4.65829C400.873 4.40945 435.009 4.60913 469.56 4.81997C519.823 -2.3474 554.973 -20.1915 573.383 -36.2842L556.363 -41.8638L81.4722 -169.11C76.8822 -180.628 72.468 -191.598 68.2812 -201.872L19.4013 -217.896C19.287 -216.506 19.1716 -215.099 19.055 -213.678L19.0536 -213.662L19.053 -213.655L19.044 -213.544C18.3434 -205.006 17.5987 -195.93 16.7854 -186.443L2.3409 -190.314L-2.84716 -179.14Z" fill="white" fill-opacity="0.07"/>
<path fill-rule="evenodd" clip-rule="evenodd" d="M567.951 777.823C493.835 741.177 346.932 635.625 352.249 506.59C357.566 377.555 281.316 314.116 242.526 298.527C185.616 285.676 83.5867 232.077 130.753 120.491C177.919 8.90389 302.761 -97.8174 359.287 -137.23L14.0989 -218.331L-182.963 206.1L-234.986 192.161L-258.965 281.655L-259.963 281.387L-328.61 537.583L-327.613 537.85L-327.615 537.857L567.951 777.823ZM-327.613 537.85L208.394 681.473C205.337 631.721 159.628 522.919 1.24362 485.723C-157.141 448.527 -193.018 346.291 -191.159 299.823L-258.965 281.655L-327.613 537.85Z" fill="white" fill-opacity="0.05"/>
</g>
</g>
<defs>
<linearGradient id="paint0_linear" x1="5.55714e-06" y1="67.5" x2="526.5" y2="357.5" gradientUnits="userSpaceOnUse">
<stop/>
<stop offset="1" stop-opacity="0"/>
</linearGradient>
<clipPath id="clip0">
<rect width="1366" height="668" fill="white"/>
</clipPath>
</defs>
</svg>
