<svg width="1366" height="668" viewBox="0 0 1366 668" fill="none" xmlns="http://www.w3.org/2000/svg">
<g clip-path="url(#clip0)">
<rect width="1366" height="672" fill="url(#paint0_linear)"/>
<path d="M512.661 282.609C486.123 478.747 858.978 623.996 953.754 672.671L161.804 677.409L155.477 -320.835L1186.05 -327C922.345 -18.8532 748.685 -375.121 574.933 -146.835C498.954 -47.0083 539.199 86.4705 512.661 282.609Z" fill="#110941"/>
<path d="M399.282 279.585C377.101 475.697 531.401 622.254 611.323 671.018L103.951 674.053L-5.99865 -319.869L395.178 -322.269C308.289 -275.427 282.782 -155.092 328.027 -84.4807C355.839 -41.0766 421.464 83.4729 399.282 279.585Z" fill="#0B0527"/>
<path d="M242.162 281.448C224.171 479.295 351.017 627.34 416.689 676.632L-0.0248722 679.125L-6.00062 -319.869L39.9301 -320.144C-31.3539 -272.979 159.07 -121.645 183.251 -85.9655C210.384 -45.9307 260.153 83.6006 242.162 281.448Z" fill="#050216"/>
<path d="M485.256 594.308L480.9 586.768L472.993 582.679L480.851 578.493L485.116 570.905L489.474 578.442L497.382 582.533L489.523 586.717L485.256 594.308Z" fill="#F4F4F4"/>
<path d="M294.947 458.169L290.611 450.664L282.739 446.593L290.562 442.428L294.808 434.871L299.144 442.377L307.013 446.448L299.193 450.612L294.947 458.169Z" fill="#F4F4F4"/>
<path d="M158.313 364.765L151.844 353.571L140.106 347.498L151.771 341.286L158.105 330.015L164.573 341.209L176.314 347.282L164.646 353.495L158.313 364.765Z" fill="#F4F4F4"/>
<path d="M594.514 123.15L587.621 111.22L575.111 104.748L587.543 98.1273L594.293 86.1154L601.185 98.0457L613.699 104.517L601.264 111.138L594.514 123.15Z" fill="#F4F4F4"/>
<path d="M109.726 182.216L107.39 178.174L103.152 175.981L107.364 173.737L109.651 169.668L111.99 173.709L116.229 175.903L112.017 178.147L109.726 182.216Z" fill="#F4F4F4"/>
<path d="M405.862 263.53L403.526 259.486L399.287 257.293L403.499 255.049L405.787 250.98L408.123 255.021L412.362 257.214L408.15 259.458L405.862 263.53Z" fill="#F4F4F4"/>
<path d="M105.421 555.225L100.381 546.503L91.2331 541.771L100.324 536.931L105.259 528.152L110.301 536.871L119.443 541.603L110.358 546.443L105.421 555.225Z" fill="#F4F4F4"/>
<path d="M251.116 653.216L241.253 636.151L223.353 626.893L241.141 617.419L250.799 600.237L260.66 617.302L278.562 626.563L260.772 636.034L251.116 653.216Z" fill="#F4F4F4"/>
<path d="M54.8185 116.031L46.5851 101.782L31.6431 94.0497L46.4916 86.144L54.5539 71.7981L62.7871 86.0465L77.7319 93.774L62.8806 101.685L54.8185 116.031Z" fill="#F4F4F4"/>
<path d="M439.621 105.526C439.686 105.387 439.74 105.243 439.786 105.096C439.718 105.235 439.675 105.382 439.621 105.526Z" fill="#122220"/>
<path d="M143.511 173.527C143.455 173.231 143.417 172.93 143.41 172.621C143.472 172.924 143.482 173.226 143.511 173.527Z" fill="#122220"/>
</g>
<defs>
<linearGradient id="paint0_linear" x1="5.55714e-06" y1="67.5" x2="526.5" y2="357.5" gradientUnits="userSpaceOnUse">
<stop/>
<stop offset="1" stop-opacity="0"/>
</linearGradient>
<clipPath id="clip0">
<rect width="1366" height="668" fill="white"/>
</clipPath>
</defs>
</svg>
