<svg width="1366" height="668" viewBox="0 0 1366 668" fill="none" xmlns="http://www.w3.org/2000/svg">
<g clip-path="url(#clip0)">
<path d="M1366 0H0V668H1366V0Z" fill="#180F4A"/>
<path d="M1027.67 246.107C1046.98 109.573 787.825 6.82708 722 -27.4789H1273.75L1274 668H556C741 454.42 860.5 703.347 982.5 545.03C1035.85 475.8 1008.37 382.641 1027.67 246.107Z" fill="#110941"/>
<path d="M1106.65 248.685C1122.92 112.151 1016.03 9.40574 960.557 -24.9001H1314.04L1386.5 668H1107C1167.73 635.728 1186 552 1154.77 502.618C1135.58 472.264 1090.38 385.219 1106.65 248.685Z" fill="#0B0527"/>
<path d="M1216.12 248.043C1229.48 110.282 1141.72 6.61404 1096.17 -28H1386.5V668H1354.5C1404.36 635.438 1272.33 529.214 1255.63 504.256C1236.89 476.252 1202.76 385.803 1216.12 248.043Z" fill="#050216"/>
<path d="M1048.06 29.0677L1051.07 34.3384L1056.56 37.22L1051.07 40.1035L1048.06 45.3723L1045.06 40.1035L1039.57 37.22L1045.06 34.3384L1048.06 29.0677Z" fill="#F4F4F4"/>
<path d="M1180.08 124.705L1183.07 129.952L1188.54 132.821L1183.07 135.69L1180.08 140.937L1177.09 135.69L1171.63 132.821L1177.09 129.952L1180.08 124.705Z" fill="#F4F4F4"/>
<path d="M1274.88 190.347L1279.34 198.172L1287.49 202.452L1279.34 206.731L1274.88 214.557L1270.42 206.731L1262.27 202.452L1270.42 198.172L1274.88 190.347Z" fill="#F4F4F4"/>
<path d="M962.763 309.197L967.516 317.537L976.205 322.098L967.516 326.659L962.763 334.999L958.011 326.659L949.32 322.098L958.011 317.537L962.763 309.197Z" fill="#F4F4F4"/>
<path d="M1307.97 317.727L1309.58 320.552L1312.52 322.098L1309.58 323.644L1307.97 326.469L1306.36 323.644L1303.41 322.098L1306.36 320.552L1307.97 317.727Z" fill="#F4F4F4"/>
<path d="M1102 259.843L1103.61 262.67L1106.55 264.216L1103.61 265.762L1102 268.587L1100.39 265.762L1097.44 264.216L1100.39 262.67L1102 259.843Z" fill="#F4F4F4"/>
<path d="M1312.52 57.8787L1316 63.976L1322.35 67.3103L1316 70.6446L1312.52 76.7401L1309.05 70.6446L1302.7 67.3103L1309.05 63.976L1312.52 57.8787Z" fill="#F4F4F4"/>
<path d="M1211.43 -10.9969L1218.23 0.933024L1230.66 7.45742L1218.23 13.9837L1211.43 25.9137L1204.63 13.9837L1192.2 7.45742L1204.63 0.933024L1211.43 -10.9969Z" fill="#F4F4F4"/>
<path d="M1345.95 364.065L1351.62 374.026L1362 379.476L1351.62 384.922L1345.95 394.882L1340.27 384.922L1329.89 379.476L1340.27 374.026L1345.95 364.065Z" fill="#F4F4F4"/>
<path d="M1077.82 369.78C1077.77 369.877 1077.74 369.977 1077.7 370.079C1077.75 369.982 1077.78 369.88 1077.82 369.78Z" fill="#122220"/>
<path d="M1284.39 323.64C1284.43 323.846 1284.46 324.056 1284.46 324.271C1284.42 324.06 1284.41 323.85 1284.39 323.64Z" fill="#122220"/>
<path d="M1366 0H0V672H1366V0Z" fill="url(#paint0_linear)"/>
<g opacity="0.39">
<path opacity="0.39" fill-rule="evenodd" clip-rule="evenodd" d="M9.03394 -109.624C-0.882935 -27.9308 -18.2307 59.4172 -53.6026 97.4645C-86.3355 132.673 -58.7953 150.309 -13.1086 179.566C45.8371 217.313 134.99 274.404 163.874 413.54C179.819 490.35 263.001 519.254 356.823 544.934C354.38 532.177 353.31 519.121 353.858 505.814C359.176 376.779 282.925 313.341 244.136 297.751C188.973 285.295 91.4216 234.556 128.433 129.834C87.3522 115.357 95.783 73.5547 104.488 30.3909C112.64 -10.0294 121.033 -51.6435 89.2336 -73.13L-4.58893 -175.39L-37.7188 -104.035C-24.0768 -107.733 -8.55002 -109.789 9.03394 -109.624ZM-131.745 98.4778L-181.354 205.325L-192.55 303.048C-194.08 341.294 -170.046 417.319 -73.1828 463.764C-36.7161 399.98 -25.3679 324.727 -68.411 279.333C-113.504 231.778 -129.325 161.919 -131.745 98.4778ZM321.315 710.531L206.581 679.788C204.348 659.364 195.543 630.898 176.241 601.715C228.164 608.559 290.795 671.826 321.315 710.531ZM-2.84789 -179.14C65.4999 -126.156 167.608 -93.3217 209.315 -105.105L218.889 -40.1559C275.758 -14.8311 326.749 -1.13626 371.373 4.65829C400.872 4.40945 435.008 4.60913 469.559 4.81998C519.822 -2.3474 554.972 -20.1915 573.382 -36.2842L556.362 -41.8638L81.4715 -169.11C76.8815 -180.628 72.4673 -191.598 68.2805 -201.872L19.4006 -217.896C19.2863 -216.506 19.1709 -215.099 19.0543 -213.678L19.0529 -213.662L19.0523 -213.655L19.0433 -213.544C18.3427 -205.006 17.598 -195.93 16.7847 -186.443L2.34016 -190.314L-2.84789 -179.14Z" fill="white" fill-opacity="0.07"/>
<path opacity="0.39" fill-rule="evenodd" clip-rule="evenodd" d="M567.951 777.823C493.835 741.177 346.932 635.625 352.249 506.59C357.566 377.555 281.316 314.116 242.526 298.527C185.616 285.676 83.5863 232.077 130.753 120.491C177.919 8.90382 302.761 -97.8175 359.287 -137.23L14.0985 -218.331L-182.963 206.1L-234.986 192.161L-258.965 281.655L-259.963 281.387L-328.61 537.583L-327.613 537.85L-327.615 537.857L567.951 777.823ZM-327.613 537.85L208.394 681.473C205.337 631.721 159.628 522.919 1.24326 485.723C-157.141 448.527 -193.018 346.291 -191.159 299.823L-258.965 281.655L-327.613 537.85Z" fill="white" fill-opacity="0.05"/>
</g>
<path d="M1354.27 652.892C1325.82 583.558 1266.27 608.446 1249.38 575.559C1232.49 542.669 1262.71 506.225 1205.82 462.669C1148.93 419.113 1140.05 314.225 1140.05 314.225C1139.14 313.319 1129.61 313.644 1123.6 313.947C1117.59 313.644 1108.06 313.319 1107.16 314.225C1107.16 314.225 1098.27 419.113 1041.38 462.669C984.491 506.225 1014.71 542.669 997.824 575.559C980.935 608.446 921.38 583.558 892.935 652.892C878.063 689.144 852.014 704.008 828 709.56H1419.2C1395.19 704.008 1369.14 689.144 1354.27 652.892Z" fill="#FBFDFE"/>
<path d="M1143.64 299.86L1123.86 300.713L1104.08 299.86C1104.08 299.86 1095.96 306.253 1096.13 319.384H1123.6H1124.12H1151.59C1151.76 306.253 1143.64 299.86 1143.64 299.86Z" fill="url(#paint1_linear)"/>
<path d="M1153.95 239.045C1153.95 239.045 1154.23 252.176 1165.96 257.013C1177.7 261.851 1194.08 270.144 1194.35 301.933H1148.22L1153.95 239.045Z" fill="url(#paint2_linear)"/>
<path d="M1093.25 239.045C1093.25 239.045 1092.98 252.176 1081.24 257.013C1069.5 261.851 1053.13 270.144 1052.85 301.933H1098.98L1093.25 239.045Z" fill="url(#paint3_linear)"/>
<path d="M1155.53 303.316C1155.53 303.316 1166.38 176.779 1123.6 134C1080.82 176.779 1091.67 303.316 1091.67 303.316H1155.53Z" fill="#FBFDFE"/>
<path d="M1141.57 198.444C1141.57 208.272 1133.6 216.24 1123.77 216.24C1113.95 216.24 1105.98 208.272 1105.98 198.444C1105.98 188.616 1113.95 180.648 1123.77 180.648C1133.6 180.648 1141.57 188.616 1141.57 198.444Z" fill="url(#paint4_linear)"/>
<path d="M1132.93 238.355C1132.93 243.412 1128.83 247.511 1123.77 247.511C1118.72 247.511 1114.62 243.412 1114.62 238.355C1114.62 233.297 1118.72 229.197 1123.77 229.197C1128.83 229.197 1132.93 233.297 1132.93 238.355Z" fill="url(#paint5_linear)"/>
</g>
<defs>
<linearGradient id="paint0_linear" x1="8.06951e-06" y1="67.5" x2="526.5" y2="357.5" gradientUnits="userSpaceOnUse">
<stop/>
<stop offset="1" stop-opacity="0"/>
</linearGradient>
<linearGradient id="paint1_linear" x1="1111.41" y1="289.285" x2="1131.49" y2="332.418" gradientUnits="userSpaceOnUse">
<stop stop-color="#BCE48C"/>
<stop offset="1" stop-color="#489EDD"/>
</linearGradient>
<linearGradient id="paint2_linear" x1="1188.5" y1="251.979" x2="1145.65" y2="307.265" gradientUnits="userSpaceOnUse">
<stop stop-color="#BCE48C"/>
<stop offset="1" stop-color="#489EDD"/>
</linearGradient>
<linearGradient id="paint3_linear" x1="1060.3" y1="243.112" x2="1091.92" y2="311.011" gradientUnits="userSpaceOnUse">
<stop stop-color="#BCE48C"/>
<stop offset="1" stop-color="#489EDD"/>
</linearGradient>
<linearGradient id="paint4_linear" x1="1102.16" y1="158.873" x2="1135.85" y2="220.552" gradientUnits="userSpaceOnUse">
<stop stop-color="#BCE48C"/>
<stop offset="1" stop-color="#489EDD"/>
</linearGradient>
<linearGradient id="paint5_linear" x1="1109.64" y1="205.249" x2="1149.03" y2="297.509" gradientUnits="userSpaceOnUse">
<stop stop-color="#BCE48C"/>
<stop offset="1" stop-color="#489EDD"/>
</linearGradient>
<clipPath id="clip0">
<rect width="1366" height="668" fill="white"/>
</clipPath>
</defs>
</svg>
