<svg width="972" height="668" viewBox="0 0 972 668" fill="none" xmlns="http://www.w3.org/2000/svg">
<g clip-path="url(#clip0)">
<path d="M951.438 -6.40881H-447.473V677.685H951.438V-6.40881Z" fill="#180F4A"/>
<path d="M604.957 245.628C624.732 105.804 359.333 0.582801 291.922 -34.5497H856.965L857.221 677.685H121.923C311.38 458.959 433.759 713.884 558.698 551.752C613.334 480.854 585.192 385.451 604.957 245.628Z" fill="#110941"/>
<path d="M685.839 248.268C702.501 108.444 593.036 3.22359 536.227 -31.9088H898.226L972.432 677.685H686.198C748.391 644.636 767.101 558.89 735.119 508.319C715.466 477.233 669.177 388.091 685.839 248.268Z" fill="#0B0527"/>
<path d="M797.947 247.61C811.629 106.53 721.755 0.364611 675.107 -35.0834H972.432V677.685H939.661C990.722 644.339 855.512 535.555 838.409 509.996C819.218 481.317 784.265 388.689 797.947 247.61Z" fill="#050216"/>
<path d="M625.837 23.3593L628.92 28.7568L634.542 31.708L628.92 34.6609L625.837 40.0567L622.765 34.6609L617.143 31.708L622.765 28.7568L625.837 23.3593Z" fill="#F4F4F4"/>
<path d="M761.038 121.301L764.1 126.674L769.702 129.612L764.1 132.55L761.038 137.924L757.976 132.55L752.385 129.612L757.976 126.674L761.038 121.301Z" fill="#F4F4F4"/>
<path d="M858.122 188.524L862.689 196.538L871.036 200.921L862.689 205.303L858.122 213.317L853.554 205.303L845.208 200.921L853.554 196.538L858.122 188.524Z" fill="#F4F4F4"/>
<path d="M892.009 318.973L893.657 321.866L896.668 323.449L893.657 325.033L892.009 327.926L890.36 325.033L887.339 323.449L890.36 321.866L892.009 318.973Z" fill="#F4F4F4"/>
<path d="M681.077 259.694L682.726 262.59L685.737 264.173L682.726 265.756L681.077 268.649L679.428 265.756L676.407 264.173L679.428 262.59L681.077 259.694Z" fill="#F4F4F4"/>
<path d="M896.669 52.8644L900.233 59.1086L906.736 62.5232L900.233 65.9378L896.669 72.1802L893.115 65.9378L886.612 62.5232L893.115 59.1086L896.669 52.8644Z" fill="#F4F4F4"/>
<path d="M793.144 -17.6707L800.107 -5.45326L812.837 1.22833L800.107 7.91179L793.144 20.1293L786.18 7.91179L773.45 1.22833L786.18 -5.45326L793.144 -17.6707Z" fill="#F4F4F4"/>
<path d="M930.905 366.427L936.712 376.628L947.342 382.21L936.712 387.787L930.905 397.987L925.088 387.787L914.458 382.21L925.088 376.628L930.905 366.427Z" fill="#F4F4F4"/>
<path d="M656.314 372.28C656.263 372.379 656.232 372.482 656.191 372.586C656.243 372.487 656.273 372.382 656.314 372.28Z" fill="#122220"/>
<path d="M867.861 325.029C867.902 325.239 867.933 325.455 867.933 325.675C867.892 325.459 867.882 325.244 867.861 325.029Z" fill="#122220"/>
<path d="M951.438 -6.40881H-447.473V681.781H951.438V-6.40881Z" fill="url(#paint0_linear)"/>
<g opacity="0.39">
<path opacity="0.39" fill-rule="evenodd" clip-rule="evenodd" d="M-438.221 -118.674C-448.377 -35.0125 -466.143 54.44 -502.367 93.4039C-535.888 129.461 -507.684 147.522 -460.897 177.483C-400.531 216.14 -309.23 274.606 -279.65 417.095C-263.321 495.755 -178.135 525.355 -82.0525 551.654C-84.5543 538.59 -85.6502 525.219 -85.0889 511.592C-79.6428 379.448 -157.731 314.481 -197.454 298.516C-253.946 285.76 -353.848 233.798 -315.945 126.553C-358.016 111.727 -349.382 68.9181 -340.467 24.7143C-332.119 -16.6798 -323.523 -59.2965 -356.089 -81.3007L-452.172 -186.024L-486.1 -112.95C-472.13 -116.737 -456.229 -118.843 -438.221 -118.674ZM-582.391 94.4416L-633.196 203.863L-644.661 303.94C-646.228 343.108 -621.615 420.965 -522.419 468.529C-485.073 403.208 -473.452 326.142 -517.532 279.654C-563.711 230.953 -579.913 159.411 -582.391 94.4416ZM-118.416 721.241L-235.914 689.757C-238.201 668.841 -247.218 639.689 -266.985 609.803C-213.811 616.812 -149.671 681.603 -118.416 721.241ZM-450.389 -189.865C-380.395 -135.604 -275.826 -101.979 -233.114 -114.046L-223.31 -47.5321C-165.071 -21.5972 -112.851 -7.57238 -67.152 -1.63822C-36.9422 -1.89306 -1.98384 -1.68857 33.3996 -1.47265C84.8736 -8.8127 120.87 -27.0867 139.724 -43.5671L122.294 -49.2812L-364.038 -179.593C-368.739 -191.389 -373.259 -202.623 -377.547 -213.144L-427.605 -229.554C-427.722 -228.131 -427.84 -226.69 -427.959 -225.235L-427.961 -225.218L-427.961 -225.211L-427.971 -225.098C-428.688 -216.354 -429.451 -207.059 -430.284 -197.344L-445.076 -201.308L-450.389 -189.865Z" fill="white" fill-opacity="0.07"/>
<path opacity="0.39" fill-rule="evenodd" clip-rule="evenodd" d="M134.162 790.154C58.2599 752.625 -92.1824 644.53 -86.7373 512.386C-81.2922 380.243 -159.379 315.275 -199.104 299.311C-257.385 286.15 -361.872 231.26 -313.57 116.985C-265.267 2.70957 -137.418 -106.583 -79.5297 -146.945L-433.034 -230L-634.844 204.657L-688.12 190.382L-712.677 282.032L-713.699 281.758L-784 544.126L-782.979 544.399L-782.981 544.407L134.162 790.154ZM-782.979 544.399L-234.058 691.483C-237.189 640.532 -283.999 529.109 -446.199 491.016C-608.4 452.924 -645.141 348.225 -643.237 300.638L-712.677 282.032L-782.979 544.399Z" fill="white" fill-opacity="0.05"/>
</g>
<path d="M345.896 695.501C360.891 670.692 352.41 639.804 358.74 626.979C365.071 614.154 383.362 615.173 383.791 587.444C384.219 559.715 419.881 543.588 419.881 543.588C419.954 543.097 412.547 529.43 411.068 527.629C409.777 525.688 400.938 516.046 397.354 514.108C397.354 514.108 363.412 535.431 336 527.629C288.5 514.108 275 539.328 249 543.588C209.228 550.105 205 527.629 147 527.629C83.4107 527.629 42.4992 568.629 -14.5 527.629C-71.4992 486.629 -98.5003 496.5 -98.5003 496.5L-5.49998 676L323.947 744.532C320.139 735.78 338.056 708.472 345.896 695.501Z" fill="#FBFDFE"/>
<path d="M434.093 535.372L421.637 519.982L410.552 503.577C410.552 503.577 400.582 500.855 390.131 508.807L406.477 530.883L406.787 531.302L423.131 553.376C433.787 545.702 434.093 535.372 434.093 535.372" fill="url(#paint1_linear)"/>
<path d="M489.106 507.472C489.106 507.472 478.716 515.505 481.812 527.815C484.909 540.127 487.989 558.224 462.604 577.361L435.153 540.287L489.106 507.472Z" fill="url(#paint2_linear)"/>
<path d="M452.984 458.685C452.984 458.685 442.269 466.279 431.397 459.725C420.525 453.171 404.115 444.944 378.403 463.64L405.853 500.714L452.984 458.685Z" fill="url(#paint3_linear)"/>
<path d="M438.39 546.983C438.39 546.983 546.543 480.407 555.468 420.571C495.632 411.647 400.392 495.663 400.392 495.663L438.39 546.983Z" fill="#FBFDFE"/>
<path d="M514.368 473.36C506.47 479.208 495.325 477.546 489.476 469.646C483.627 461.748 485.29 450.604 493.189 444.756C501.088 438.907 512.232 440.569 518.08 448.467C523.929 456.367 522.267 467.512 514.368 473.36Z" fill="url(#paint4_linear)"/>
<path d="M477.151 490.166C473.087 493.175 467.354 492.32 464.344 488.254C461.335 484.191 462.19 478.457 466.254 475.447C470.319 472.438 476.053 473.293 479.062 477.357C482.072 481.422 481.216 487.156 477.151 490.166Z" fill="url(#paint5_linear)"/>
</g>
<defs>
<linearGradient id="paint0_linear" x1="-447.473" y1="62.7174" x2="91.7121" y2="359.704" gradientUnits="userSpaceOnUse">
<stop/>
<stop offset="1" stop-opacity="0"/>
</linearGradient>
<linearGradient id="paint1_linear" x1="423.411" y1="503.174" x2="400.698" y2="544.982" gradientUnits="userSpaceOnUse">
<stop stop-color="#BCE48C"/>
<stop offset="1" stop-color="#489EDD"/>
</linearGradient>
<linearGradient id="paint2_linear" x1="499.268" y1="542.93" x2="429.338" y2="541.393" gradientUnits="userSpaceOnUse">
<stop stop-color="#BCE48C"/>
<stop offset="1" stop-color="#489EDD"/>
</linearGradient>
<linearGradient id="paint3_linear" x1="430.111" y1="434.626" x2="394.355" y2="500.44" gradientUnits="userSpaceOnUse">
<stop stop-color="#BCE48C"/>
<stop offset="1" stop-color="#489EDD"/>
</linearGradient>
<linearGradient id="paint4_linear" x1="522.719" y1="418.14" x2="493.196" y2="481.919" gradientUnits="userSpaceOnUse">
<stop stop-color="#BCE48C"/>
<stop offset="1" stop-color="#489EDD"/>
</linearGradient>
<linearGradient id="paint5_linear" x1="489.898" y1="451.748" x2="439.191" y2="538.306" gradientUnits="userSpaceOnUse">
<stop stop-color="#BCE48C"/>
<stop offset="1" stop-color="#489EDD"/>
</linearGradient>
<clipPath id="clip0">
<rect width="972" height="668" fill="white"/>
</clipPath>
</defs>
</svg>
