<svg width="1366" height="668" viewBox="0 0 1366 668" fill="none" xmlns="http://www.w3.org/2000/svg">
<g clip-path="url(#clip0)">
<rect width="1366" height="668" fill="#050216"/>
<rect width="1366" height="672" fill="url(#paint0_linear)"/>
<path d="M287.809 383.907C268.846 581.76 402.081 729.767 471.068 779.039L-217.026 778.11L-223.002 -220.884L75.5038 -217.624C0.590297 -170.438 200.625 -19.1614 226.022 16.5108C254.519 56.5374 306.772 186.054 287.809 383.907Z" fill="#050216"/>
<path d="M995.712 635.853L1000.07 628.313L1007.98 624.224L1000.12 620.038L995.852 612.45L991.494 619.987L983.586 624.078L991.445 628.262L995.712 635.853Z" fill="#171238"/>
<path d="M1186.02 499.714L1190.36 492.209L1198.23 488.138L1190.41 483.973L1186.16 476.416L1181.82 483.922L1173.95 487.993L1181.77 492.157L1186.02 499.714Z" fill="#171238"/>
<path d="M1322.66 406.311L1329.12 395.117L1340.86 389.044L1329.2 382.831L1322.86 371.56L1316.4 382.755L1304.65 388.827L1316.32 395.04L1322.66 406.311Z" fill="#171238"/>
<path d="M886.454 164.695L893.347 152.765L905.857 146.293L893.425 139.672L886.675 127.66L879.782 139.591L867.269 146.062L879.704 152.683L886.454 164.695Z" fill="#171238"/>
<path d="M1371.24 223.761L1373.58 219.72L1377.82 217.527L1373.6 215.283L1371.32 211.214L1368.98 215.255L1364.74 217.448L1368.95 219.693L1371.24 223.761Z" fill="#171238"/>
<path d="M1075.11 305.075L1077.44 301.032L1081.68 298.838L1077.47 296.594L1075.18 292.525L1072.84 296.567L1068.61 298.76L1072.82 301.004L1075.11 305.075Z" fill="#171238"/>
<path d="M1375.55 596.77L1380.59 588.048L1389.73 583.317L1380.64 578.477L1375.71 569.698L1370.67 578.417L1361.52 583.148L1370.61 587.989L1375.55 596.77Z" fill="#171238"/>
<path d="M1229.85 694.762L1239.72 677.696L1257.61 668.439L1239.83 658.964L1230.17 641.782L1220.31 658.848L1202.41 668.108L1220.2 677.58L1229.85 694.762Z" fill="#171238"/>
<path d="M1041.35 147.072C1041.28 146.933 1041.23 146.789 1041.18 146.642C1041.25 146.781 1041.29 146.928 1041.35 147.072Z" fill="#122220"/>
<path d="M1337.46 215.072C1337.51 214.777 1337.55 214.476 1337.56 214.167C1337.5 214.47 1337.49 214.771 1337.46 215.072Z" fill="#122220"/>
</g>
<defs>
<linearGradient id="paint0_linear" x1="-4.37103e-07" y1="67.5" x2="616.5" y2="280" gradientUnits="userSpaceOnUse">
<stop/>
<stop offset="1" stop-opacity="0"/>
</linearGradient>
<clipPath id="clip0">
<rect width="1366" height="668" fill="white"/>
</clipPath>
</defs>
</svg>
