<svg width="361" height="355" viewBox="0 0 361 355" fill="none" xmlns="http://www.w3.org/2000/svg">
<g clip-path="url(#clip0)">
<path d="M145.122 378.788C156.133 347.858 139.687 315.519 143.8 299.852C147.914 284.186 168.461 281.157 162.629 250.298C156.797 219.439 192.737 193.44 192.737 193.44C192.706 192.879 181.371 179.401 179.318 177.739C177.442 175.88 165.432 167.192 161.01 165.858C161.01 165.858 128.163 197.23 95.944 194.806C40.1126 190.607 30.8557 221.654 2.94793 232.291C-39.7423 248.564 -49.551 224.59 -113.969 237.777C-184.594 252.235 -220.706 307.021 -293.339 274.495C-365.972 241.97 -393.715 259.06 -393.715 259.06L-249.592 437.048L131.898 438.172C125.678 429.33 139.365 394.961 145.122 378.788Z" fill="#FBFDFE"/>
<path d="M206.648 181.11L189.312 166.868L173.269 151.189C173.269 151.189 161.576 150.437 151.778 161.634L174.954 182.409L175.393 182.803L198.568 203.576C208.658 192.64 206.648 181.11 206.648 181.11" fill="url(#paint0_linear)"/>
<path d="M261.401 137.656C261.401 137.656 251.688 148.93 257.927 161.883C264.167 174.837 271.705 194.213 247.864 221.214L208.943 186.326L261.401 137.656Z" fill="url(#paint1_linear)"/>
<path d="M210.179 91.7413C210.179 91.7413 200.005 102.602 186.44 97.8032C172.874 93.0036 152.776 87.6078 128.474 114.195L167.393 149.082L210.179 91.7413Z" fill="url(#paint2_linear)"/>
<path d="M214.057 193.017C214.057 193.017 319.029 94.5721 315.33 26.1643C246.846 29.8686 160.182 144.724 160.182 144.724L214.057 193.017Z" fill="#FBFDFE"/>
<path d="M281.693 94.0711C274.251 102.355 261.494 103.045 253.201 95.6107C244.909 88.1779 244.221 75.4369 251.663 67.1533C259.106 58.8696 271.861 58.1788 280.153 65.6116C288.446 73.0454 289.135 85.7875 281.693 94.0711Z" fill="url(#paint3_linear)"/>
<path d="M194.72 151.302C195.354 150.604 195.925 150.121 196.434 149.853C196.949 149.578 197.461 149.519 197.969 149.675C198.484 149.823 199.062 150.188 199.702 150.768C200.343 151.348 200.765 151.884 200.97 152.374C201.181 152.857 201.184 153.35 200.979 153.853C200.781 154.349 200.401 154.913 199.841 155.545C199.609 155.786 199.374 156.023 199.135 156.257C198.902 156.483 198.673 156.7 198.446 156.905L201.252 159.447L199.746 161.105L192.215 154.279C192.456 153.955 192.692 153.651 192.922 153.369C193.152 153.087 193.405 152.787 193.681 152.467C193.965 152.141 194.311 151.752 194.72 151.302ZM195.946 152.472C195.748 152.69 195.556 152.901 195.371 153.104C195.193 153.301 195.025 153.486 194.866 153.66L197.278 155.847L198.358 154.658C198.754 154.222 198.945 153.852 198.93 153.547C198.915 153.242 198.667 152.871 198.187 152.436C197.707 152.001 197.314 151.791 197.009 151.806C196.696 151.814 196.342 152.036 195.946 152.472Z" fill="#5DAACF"/>
<path d="M200.852 144.551C201.453 143.89 202.007 143.418 202.515 143.136C203.022 142.841 203.525 142.747 204.025 142.855C204.523 142.949 205.06 143.256 205.635 143.777C206.166 144.258 206.496 144.756 206.625 145.271C206.754 145.772 206.607 146.321 206.184 146.919L206.238 146.968C206.46 146.811 206.754 146.7 207.12 146.633C207.478 146.56 207.889 146.655 208.354 146.917L211.295 148.39L209.711 150.134L206.883 148.625C206.576 148.48 206.317 148.43 206.103 148.475C205.896 148.513 205.691 148.645 205.486 148.87C205.05 149.35 204.687 149.743 204.396 150.049L207.354 152.729L205.868 154.365L198.337 147.539C198.578 147.215 198.814 146.912 199.044 146.63C199.273 146.347 199.53 146.043 199.813 145.717C200.096 145.39 200.442 145.002 200.852 144.551ZM202.077 145.721C201.675 146.165 201.305 146.572 200.968 146.943L203.151 148.921L204.26 147.7C204.663 147.256 204.868 146.885 204.874 146.586C204.873 146.28 204.654 145.93 204.218 145.534C203.788 145.145 203.425 144.968 203.128 145.003C202.83 145.039 202.48 145.278 202.077 145.721Z" fill="#5DAACF"/>
<path d="M207.29 137.376C207.831 136.78 208.352 136.337 208.853 136.049C209.353 135.747 209.868 135.604 210.397 135.62C210.927 135.636 211.495 135.813 212.103 136.152C212.711 136.491 213.393 137.003 214.15 137.689C214.906 138.374 215.483 139.003 215.88 139.574C216.276 140.146 216.508 140.694 216.575 141.219C216.642 141.743 216.55 142.269 216.297 142.795C216.051 143.314 215.657 143.872 215.116 144.468C214.575 145.064 214.054 145.513 213.554 145.815C213.054 146.118 212.539 146.261 212.01 146.245C211.48 146.229 210.912 146.051 210.304 145.713C209.703 145.367 209.024 144.851 208.267 144.165C207.51 143.479 206.93 142.854 206.527 142.29C206.131 141.719 205.899 141.171 205.832 140.646C205.764 140.121 205.857 139.596 206.11 139.069C206.355 138.536 206.748 137.972 207.29 137.376ZM208.6 138.563C208.25 138.948 208.052 139.319 208.007 139.675C207.968 140.025 208.095 140.418 208.388 140.855C208.687 141.285 209.175 141.807 209.852 142.42C210.528 143.034 211.096 143.468 211.553 143.724C212.017 143.972 212.422 144.06 212.766 143.988C213.11 143.902 213.456 143.666 213.806 143.281C214.15 142.903 214.347 142.539 214.4 142.189C214.445 141.833 214.318 141.439 214.019 141.009C213.72 140.579 213.232 140.057 212.555 139.444C211.878 138.831 211.311 138.396 210.854 138.141C210.396 137.885 209.992 137.797 209.641 137.876C209.29 137.956 208.943 138.185 208.6 138.563Z" fill="#5DAACF"/>
<path d="M213.72 130.603L219.767 136.083C220.291 136.558 220.552 137.074 220.552 137.629C220.55 138.171 220.302 138.715 219.807 139.26C219.688 139.391 219.539 139.541 219.359 139.709C219.186 139.87 219.009 140.021 218.828 140.162C218.647 140.303 218.485 140.401 218.342 140.457L217.429 139.292L217.905 138.769C218.36 138.267 218.384 137.832 217.977 137.463L212.224 132.25L213.72 130.603Z" fill="#5DAACF"/>
<path d="M216.451 127.531C216.985 126.942 217.547 126.338 218.136 125.719C218.718 125.093 219.272 124.542 219.798 124.065L220.94 125.239L218.316 128.128C217.986 128.492 218.007 128.842 218.378 129.178L219.556 130.246L222.31 127.215L223.488 128.284L220.735 131.315L222.22 132.66C222.591 132.996 222.942 132.983 223.272 132.619L225.896 129.73L227.177 130.752C226.752 131.321 226.257 131.925 225.69 132.564C225.122 133.203 224.572 133.817 224.037 134.406C223.601 134.886 223.113 135.152 222.573 135.206C222.026 135.254 221.523 135.07 221.065 134.654L216.502 130.52C216.044 130.104 215.812 129.622 215.806 129.073C215.8 128.525 216.015 128.011 216.451 127.531Z" fill="#5DAACF"/>
<path d="M222.308 121.148L224.436 123.077C224.749 123.361 225.025 123.664 225.263 123.986L225.877 123.31L224.585 118.641L226.219 116.842L227.471 121.554C227.53 121.753 227.563 121.942 227.572 122.123C227.574 122.296 227.564 122.46 227.544 122.614L227.577 122.643C227.734 122.601 227.924 122.574 228.147 122.564C228.369 122.553 228.574 122.567 228.764 122.607L233.87 123.536L232.186 125.39L227.044 124.347L226.42 125.034C226.577 125.124 226.725 125.217 226.861 125.315C226.998 125.412 227.125 125.514 227.241 125.62L229.839 127.974L228.334 129.631L220.802 122.806L222.308 121.148Z" fill="#5DAACF"/>
<path d="M230.337 112.308C230.463 112.17 230.612 112.087 230.784 112.058C230.963 112.021 231.135 112.044 231.299 112.126L240.374 116.375L238.829 118.076L236.327 116.822L233.97 119.417L235.472 121.772L233.927 123.473L228.813 114.863C228.715 114.708 228.672 114.543 228.685 114.369C228.703 114.187 228.776 114.028 228.901 113.889L230.337 112.308ZM231.323 115.21L233.042 117.94L234.765 116.043L231.888 114.589C231.738 114.519 231.589 114.443 231.439 114.36C231.288 114.263 231.144 114.173 231.008 114.089L230.741 114.384C230.837 114.511 230.938 114.649 231.042 114.796C231.14 114.938 231.233 115.075 231.323 115.21Z" fill="#5DAACF"/>
<path d="M239.313 102.427L246.244 108.708C246.644 109.071 246.663 109.452 246.3 109.852L245.468 110.768C245.303 110.949 245.137 111.051 244.971 111.073C244.805 111.081 244.598 111.053 244.352 110.989L238.498 109.48C238.259 109.422 237.997 109.345 237.714 109.247C237.438 109.143 237.179 109.034 236.937 108.92L236.828 109.04C237.282 109.359 237.698 109.689 238.076 110.032L242.497 114.039L241.071 115.609L234.14 109.327C233.739 108.964 233.721 108.583 234.084 108.183L234.906 107.279C235.064 107.104 235.227 107.013 235.393 107.005C235.559 106.983 235.762 107.001 236.001 107.059L241.675 108.524C241.922 108.588 242.194 108.669 242.491 108.765C242.78 108.855 243.07 108.953 243.36 109.057L243.479 108.926C243.248 108.756 243.024 108.587 242.807 108.416C242.59 108.232 242.375 108.045 242.164 107.854L237.897 103.986L239.313 102.427Z" fill="#5DAACF"/>
</g>
<defs>
<linearGradient id="paint0_linear" x1="187.459" y1="147.818" x2="171.78" y2="199.376" gradientUnits="userSpaceOnUse">
<stop stop-color="#BCE48C"/>
<stop offset="1" stop-color="#489EDD"/>
</linearGradient>
<linearGradient id="paint1_linear" x1="280.752" y1="174.682" x2="202.741" y2="188.898" gradientUnits="userSpaceOnUse">
<stop stop-color="#BCE48C"/>
<stop offset="1" stop-color="#489EDD"/>
</linearGradient>
<linearGradient id="paint2_linear" x1="179.302" y1="70.2519" x2="154.621" y2="151.41" gradientUnits="userSpaceOnUse">
<stop stop-color="#BCE48C"/>
<stop offset="1" stop-color="#489EDD"/>
</linearGradient>
<linearGradient id="paint3_linear" x1="278.406" y1="30.9127" x2="260.173" y2="108.39" gradientUnits="userSpaceOnUse">
<stop stop-color="#BCE48C"/>
<stop offset="1" stop-color="#489EDD"/>
</linearGradient>
<clipPath id="clip0">
<rect width="361" height="355" rx="37" fill="white"/>
</clipPath>
</defs>
</svg>
