<svg width="588" height="196" viewBox="0 0 588 196" fill="none" xmlns="http://www.w3.org/2000/svg">
<path d="M0 8C0 3.58172 3.58172 0 8 0H551V188C551 192.418 547.418 196 543 196H7.99999C3.58171 196 0 192.418 0 188V8Z" fill="#696773"/>
<path d="M547 0H580C584.418 0 588 3.58172 588 8V94C588 98.4183 584.418 102 580 102H547V0Z" fill="#696773"/>
<mask id="path-3-outside-1" maskUnits="userSpaceOnUse" x="556.237" y="20.1582" width="18" height="63" fill="black">
<rect fill="white" x="556.237" y="20.1582" width="18" height="63"/>
<path d="M557.51 69.9671H559.652L559.652 74.4611H572V77.0861H559.652L559.652 81.5801H557.51L557.51 69.9671Z"/>
<path d="M557.51 62.7814C557.51 62.5574 557.573 62.3614 557.699 62.1934C557.825 62.0254 557.993 61.9064 558.203 61.8364L572 57.4473V60.1353L567.863 61.3744V66.7714L572 67.9894V70.6774L558.203 66.2884C557.993 66.2324 557.825 66.1204 557.699 65.9524C557.573 65.7704 557.51 65.5674 557.51 65.3434L557.51 62.7814ZM560.828 64.6924L565.805 66.1623V61.9834L560.828 63.4534C560.618 63.5093 560.401 63.5654 560.177 63.6214C559.939 63.6774 559.715 63.7264 559.505 63.7684V64.3563C559.715 64.3984 559.939 64.4474 560.177 64.5034C560.401 64.5594 560.618 64.6224 560.828 64.6924Z"/>
<path d="M557.237 51.2807C557.251 50.5807 557.293 49.8317 557.363 49.0337C557.419 48.2357 557.552 47.4587 557.762 46.7027L559.547 46.8707C559.533 47.4867 559.519 48.1867 559.505 48.9707C559.477 49.7547 559.463 50.5107 559.463 51.2387C559.463 51.8407 559.498 52.3237 559.568 52.6877C559.624 53.0517 559.771 53.3177 560.009 53.4857C560.247 53.6397 560.639 53.7167 561.185 53.7167C561.815 53.7167 562.263 53.5907 562.529 53.3387C562.781 53.0727 562.991 52.6457 563.159 52.0577L563.999 49.2017C564.349 48.0537 564.86 47.2627 565.532 46.8287C566.19 46.3947 567.072 46.1777 568.178 46.1777C569.284 46.1777 570.131 46.3527 570.719 46.7027C571.307 47.0527 571.713 47.6057 571.937 48.3617C572.161 49.1177 572.273 50.1117 572.273 51.3437C572.273 51.8197 572.245 52.4777 572.189 53.3177C572.133 54.1437 571.993 55.0887 571.769 56.1527L569.879 55.9847C569.907 55.1727 569.928 54.4867 569.942 53.9267C569.956 53.3527 569.97 52.8627 569.984 52.4567C569.984 52.0507 569.984 51.6727 569.984 51.3227C569.984 50.6787 569.942 50.1817 569.858 49.8317C569.774 49.4677 569.606 49.2087 569.354 49.0547C569.088 48.9007 568.696 48.8237 568.178 48.8237C567.52 48.8237 567.072 48.9497 566.834 49.2017C566.582 49.4537 566.379 49.8597 566.225 50.4197L565.322 53.3807C564.986 54.4727 564.489 55.2427 563.831 55.6907C563.159 56.1247 562.277 56.3417 561.185 56.3417C560.079 56.3417 559.246 56.1667 558.686 55.8167C558.112 55.4667 557.727 54.9207 557.531 54.1787C557.335 53.4367 557.237 52.4707 557.237 51.2807Z"/>
<path d="M557.51 41.0286H561.794C562.382 41.0286 562.949 41.0846 563.495 41.1966L563.495 39.6846L557.51 35.6946L557.51 32.8386L563.411 36.8076C563.649 36.9476 563.845 37.0946 563.999 37.2486C564.153 37.4026 564.3 37.5706 564.44 37.7526H564.503C564.643 37.5706 564.818 37.3816 565.028 37.1856C565.224 36.9896 565.427 36.8216 565.637 36.6816L572 32.5656V35.5056L565.406 39.6636V41.1966C565.672 41.1406 565.931 41.0986 566.183 41.0706C566.421 41.0426 566.659 41.0286 566.897 41.0286H572V43.6536H557.51L557.51 41.0286Z"/>
<path d="M557.237 26.2612C557.251 25.5612 557.293 24.8122 557.363 24.0142C557.419 23.2162 557.552 22.4392 557.762 21.6832L559.547 21.8512C559.533 22.4672 559.519 23.1672 559.505 23.9512C559.477 24.7352 559.463 25.4912 559.463 26.2192C559.463 26.8212 559.498 27.3042 559.568 27.6682C559.624 28.0322 559.771 28.2982 560.009 28.4662C560.247 28.6202 560.639 28.6972 561.185 28.6972C561.815 28.6972 562.263 28.5712 562.529 28.3192C562.781 28.0532 562.991 27.6262 563.159 27.0382L563.999 24.1822C564.349 23.0342 564.86 22.2432 565.532 21.8092C566.19 21.3752 567.072 21.1582 568.178 21.1582C569.284 21.1582 570.131 21.3332 570.719 21.6832C571.307 22.0332 571.713 22.5862 571.937 23.3422C572.161 24.0982 572.273 25.0922 572.273 26.3242C572.273 26.8002 572.245 27.4582 572.189 28.2982C572.133 29.1242 571.993 30.0692 571.769 31.1332L569.879 30.9652C569.907 30.1532 569.928 29.4672 569.942 28.9072C569.956 28.3332 569.97 27.8432 569.984 27.4372C569.984 27.0312 569.984 26.6532 569.984 26.3032C569.984 25.6592 569.942 25.1622 569.858 24.8122C569.774 24.4482 569.606 24.1892 569.354 24.0352C569.088 23.8812 568.696 23.8042 568.178 23.8042C567.52 23.8042 567.072 23.9302 566.834 24.1822C566.582 24.4342 566.379 24.8402 566.225 25.4002L565.322 28.3612C564.986 29.4532 564.489 30.2232 563.831 30.6712C563.159 31.1052 562.277 31.3222 561.185 31.3222C560.079 31.3222 559.246 31.1472 558.686 30.7972C558.112 30.4472 557.727 29.9012 557.531 29.1592C557.335 28.4172 557.237 27.4512 557.237 26.2612Z"/>
</mask>
<path d="M557.51 69.9671H559.652L559.652 74.4611H572V77.0861H559.652L559.652 81.5801H557.51L557.51 69.9671Z" fill="white"/>
<path d="M557.51 62.7814C557.51 62.5574 557.573 62.3614 557.699 62.1934C557.825 62.0254 557.993 61.9064 558.203 61.8364L572 57.4473V60.1353L567.863 61.3744V66.7714L572 67.9894V70.6774L558.203 66.2884C557.993 66.2324 557.825 66.1204 557.699 65.9524C557.573 65.7704 557.51 65.5674 557.51 65.3434L557.51 62.7814ZM560.828 64.6924L565.805 66.1623V61.9834L560.828 63.4534C560.618 63.5093 560.401 63.5654 560.177 63.6214C559.939 63.6774 559.715 63.7264 559.505 63.7684V64.3563C559.715 64.3984 559.939 64.4474 560.177 64.5034C560.401 64.5594 560.618 64.6224 560.828 64.6924Z" fill="white"/>
<path d="M557.237 51.2807C557.251 50.5807 557.293 49.8317 557.363 49.0337C557.419 48.2357 557.552 47.4587 557.762 46.7027L559.547 46.8707C559.533 47.4867 559.519 48.1867 559.505 48.9707C559.477 49.7547 559.463 50.5107 559.463 51.2387C559.463 51.8407 559.498 52.3237 559.568 52.6877C559.624 53.0517 559.771 53.3177 560.009 53.4857C560.247 53.6397 560.639 53.7167 561.185 53.7167C561.815 53.7167 562.263 53.5907 562.529 53.3387C562.781 53.0727 562.991 52.6457 563.159 52.0577L563.999 49.2017C564.349 48.0537 564.86 47.2627 565.532 46.8287C566.19 46.3947 567.072 46.1777 568.178 46.1777C569.284 46.1777 570.131 46.3527 570.719 46.7027C571.307 47.0527 571.713 47.6057 571.937 48.3617C572.161 49.1177 572.273 50.1117 572.273 51.3437C572.273 51.8197 572.245 52.4777 572.189 53.3177C572.133 54.1437 571.993 55.0887 571.769 56.1527L569.879 55.9847C569.907 55.1727 569.928 54.4867 569.942 53.9267C569.956 53.3527 569.97 52.8627 569.984 52.4567C569.984 52.0507 569.984 51.6727 569.984 51.3227C569.984 50.6787 569.942 50.1817 569.858 49.8317C569.774 49.4677 569.606 49.2087 569.354 49.0547C569.088 48.9007 568.696 48.8237 568.178 48.8237C567.52 48.8237 567.072 48.9497 566.834 49.2017C566.582 49.4537 566.379 49.8597 566.225 50.4197L565.322 53.3807C564.986 54.4727 564.489 55.2427 563.831 55.6907C563.159 56.1247 562.277 56.3417 561.185 56.3417C560.079 56.3417 559.246 56.1667 558.686 55.8167C558.112 55.4667 557.727 54.9207 557.531 54.1787C557.335 53.4367 557.237 52.4707 557.237 51.2807Z" fill="white"/>
<path d="M557.51 41.0286H561.794C562.382 41.0286 562.949 41.0846 563.495 41.1966L563.495 39.6846L557.51 35.6946L557.51 32.8386L563.411 36.8076C563.649 36.9476 563.845 37.0946 563.999 37.2486C564.153 37.4026 564.3 37.5706 564.44 37.7526H564.503C564.643 37.5706 564.818 37.3816 565.028 37.1856C565.224 36.9896 565.427 36.8216 565.637 36.6816L572 32.5656V35.5056L565.406 39.6636V41.1966C565.672 41.1406 565.931 41.0986 566.183 41.0706C566.421 41.0426 566.659 41.0286 566.897 41.0286H572V43.6536H557.51L557.51 41.0286Z" fill="white"/>
<path d="M557.237 26.2612C557.251 25.5612 557.293 24.8122 557.363 24.0142C557.419 23.2162 557.552 22.4392 557.762 21.6832L559.547 21.8512C559.533 22.4672 559.519 23.1672 559.505 23.9512C559.477 24.7352 559.463 25.4912 559.463 26.2192C559.463 26.8212 559.498 27.3042 559.568 27.6682C559.624 28.0322 559.771 28.2982 560.009 28.4662C560.247 28.6202 560.639 28.6972 561.185 28.6972C561.815 28.6972 562.263 28.5712 562.529 28.3192C562.781 28.0532 562.991 27.6262 563.159 27.0382L563.999 24.1822C564.349 23.0342 564.86 22.2432 565.532 21.8092C566.19 21.3752 567.072 21.1582 568.178 21.1582C569.284 21.1582 570.131 21.3332 570.719 21.6832C571.307 22.0332 571.713 22.5862 571.937 23.3422C572.161 24.0982 572.273 25.0922 572.273 26.3242C572.273 26.8002 572.245 27.4582 572.189 28.2982C572.133 29.1242 571.993 30.0692 571.769 31.1332L569.879 30.9652C569.907 30.1532 569.928 29.4672 569.942 28.9072C569.956 28.3332 569.97 27.8432 569.984 27.4372C569.984 27.0312 569.984 26.6532 569.984 26.3032C569.984 25.6592 569.942 25.1622 569.858 24.8122C569.774 24.4482 569.606 24.1892 569.354 24.0352C569.088 23.8812 568.696 23.8042 568.178 23.8042C567.52 23.8042 567.072 23.9302 566.834 24.1822C566.582 24.4342 566.379 24.8402 566.225 25.4002L565.322 28.3612C564.986 29.4532 564.489 30.2232 563.831 30.6712C563.159 31.1052 562.277 31.3222 561.185 31.3222C560.079 31.3222 559.246 31.1472 558.686 30.7972C558.112 30.4472 557.727 29.9012 557.531 29.1592C557.335 28.4172 557.237 27.4512 557.237 26.2612Z" fill="white"/>
<path d="M557.51 69.9671H559.652L559.652 74.4611H572V77.0861H559.652L559.652 81.5801H557.51L557.51 69.9671Z" stroke="#130C38" stroke-width="2" mask="url(#path-3-outside-1)"/>
<path d="M557.51 62.7814C557.51 62.5574 557.573 62.3614 557.699 62.1934C557.825 62.0254 557.993 61.9064 558.203 61.8364L572 57.4473V60.1353L567.863 61.3744V66.7714L572 67.9894V70.6774L558.203 66.2884C557.993 66.2324 557.825 66.1204 557.699 65.9524C557.573 65.7704 557.51 65.5674 557.51 65.3434L557.51 62.7814ZM560.828 64.6924L565.805 66.1623V61.9834L560.828 63.4534C560.618 63.5093 560.401 63.5654 560.177 63.6214C559.939 63.6774 559.715 63.7264 559.505 63.7684V64.3563C559.715 64.3984 559.939 64.4474 560.177 64.5034C560.401 64.5594 560.618 64.6224 560.828 64.6924Z" stroke="#130C38" stroke-width="2" mask="url(#path-3-outside-1)"/>
<path d="M557.237 51.2807C557.251 50.5807 557.293 49.8317 557.363 49.0337C557.419 48.2357 557.552 47.4587 557.762 46.7027L559.547 46.8707C559.533 47.4867 559.519 48.1867 559.505 48.9707C559.477 49.7547 559.463 50.5107 559.463 51.2387C559.463 51.8407 559.498 52.3237 559.568 52.6877C559.624 53.0517 559.771 53.3177 560.009 53.4857C560.247 53.6397 560.639 53.7167 561.185 53.7167C561.815 53.7167 562.263 53.5907 562.529 53.3387C562.781 53.0727 562.991 52.6457 563.159 52.0577L563.999 49.2017C564.349 48.0537 564.86 47.2627 565.532 46.8287C566.19 46.3947 567.072 46.1777 568.178 46.1777C569.284 46.1777 570.131 46.3527 570.719 46.7027C571.307 47.0527 571.713 47.6057 571.937 48.3617C572.161 49.1177 572.273 50.1117 572.273 51.3437C572.273 51.8197 572.245 52.4777 572.189 53.3177C572.133 54.1437 571.993 55.0887 571.769 56.1527L569.879 55.9847C569.907 55.1727 569.928 54.4867 569.942 53.9267C569.956 53.3527 569.97 52.8627 569.984 52.4567C569.984 52.0507 569.984 51.6727 569.984 51.3227C569.984 50.6787 569.942 50.1817 569.858 49.8317C569.774 49.4677 569.606 49.2087 569.354 49.0547C569.088 48.9007 568.696 48.8237 568.178 48.8237C567.52 48.8237 567.072 48.9497 566.834 49.2017C566.582 49.4537 566.379 49.8597 566.225 50.4197L565.322 53.3807C564.986 54.4727 564.489 55.2427 563.831 55.6907C563.159 56.1247 562.277 56.3417 561.185 56.3417C560.079 56.3417 559.246 56.1667 558.686 55.8167C558.112 55.4667 557.727 54.9207 557.531 54.1787C557.335 53.4367 557.237 52.4707 557.237 51.2807Z" stroke="#130C38" stroke-width="2" mask="url(#path-3-outside-1)"/>
<path d="M557.51 41.0286H561.794C562.382 41.0286 562.949 41.0846 563.495 41.1966L563.495 39.6846L557.51 35.6946L557.51 32.8386L563.411 36.8076C563.649 36.9476 563.845 37.0946 563.999 37.2486C564.153 37.4026 564.3 37.5706 564.44 37.7526H564.503C564.643 37.5706 564.818 37.3816 565.028 37.1856C565.224 36.9896 565.427 36.8216 565.637 36.6816L572 32.5656V35.5056L565.406 39.6636V41.1966C565.672 41.1406 565.931 41.0986 566.183 41.0706C566.421 41.0426 566.659 41.0286 566.897 41.0286H572V43.6536H557.51L557.51 41.0286Z" stroke="#130C38" stroke-width="2" mask="url(#path-3-outside-1)"/>
<path d="M557.237 26.2612C557.251 25.5612 557.293 24.8122 557.363 24.0142C557.419 23.2162 557.552 22.4392 557.762 21.6832L559.547 21.8512C559.533 22.4672 559.519 23.1672 559.505 23.9512C559.477 24.7352 559.463 25.4912 559.463 26.2192C559.463 26.8212 559.498 27.3042 559.568 27.6682C559.624 28.0322 559.771 28.2982 560.009 28.4662C560.247 28.6202 560.639 28.6972 561.185 28.6972C561.815 28.6972 562.263 28.5712 562.529 28.3192C562.781 28.0532 562.991 27.6262 563.159 27.0382L563.999 24.1822C564.349 23.0342 564.86 22.2432 565.532 21.8092C566.19 21.3752 567.072 21.1582 568.178 21.1582C569.284 21.1582 570.131 21.3332 570.719 21.6832C571.307 22.0332 571.713 22.5862 571.937 23.3422C572.161 24.0982 572.273 25.0922 572.273 26.3242C572.273 26.8002 572.245 27.4582 572.189 28.2982C572.133 29.1242 571.993 30.0692 571.769 31.1332L569.879 30.9652C569.907 30.1532 569.928 29.4672 569.942 28.9072C569.956 28.3332 569.97 27.8432 569.984 27.4372C569.984 27.0312 569.984 26.6532 569.984 26.3032C569.984 25.6592 569.942 25.1622 569.858 24.8122C569.774 24.4482 569.606 24.1892 569.354 24.0352C569.088 23.8812 568.696 23.8042 568.178 23.8042C567.52 23.8042 567.072 23.9302 566.834 24.1822C566.582 24.4342 566.379 24.8402 566.225 25.4002L565.322 28.3612C564.986 29.4532 564.489 30.2232 563.831 30.6712C563.159 31.1052 562.277 31.3222 561.185 31.3222C560.079 31.3222 559.246 31.1472 558.686 30.7972C558.112 30.4472 557.727 29.9012 557.531 29.1592C557.335 28.4172 557.237 27.4512 557.237 26.2612Z" stroke="#130C38" stroke-width="2" mask="url(#path-3-outside-1)"/>
</svg>
