<svg width="496" height="180" viewBox="0 0 496 180" fill="none" xmlns="http://www.w3.org/2000/svg">
<path d="M488 -3.49691e-07C492.418 -1.56562e-07 496 3.58172 496 8L496 159.86L7.99999 159.86C3.58171 159.86 -6.83114e-06 156.278 -6.63801e-06 151.86L-3.49691e-07 7.99998C-1.56562e-07 3.58171 3.58172 -2.15243e-05 8 -2.13312e-05L488 -3.49691e-07Z" fill="#696773"/>
<path d="M496 139L496 172C496 176.418 492.418 180 488 180L402 180C397.582 180 394 176.418 394 172L394 139L496 139Z" fill="#696773"/>
<mask id="path-3-outside-1" maskUnits="userSpaceOnUse" x="412.842" y="148.237" width="63" height="18" fill="black">
<rect fill="white" x="412.842" y="148.237" width="63" height="18"/>
<path d="M426.033 149.51L426.033 151.652L421.539 151.652L421.539 164L418.914 164L418.914 151.652L414.42 151.652L414.42 149.51L426.033 149.51Z"/>
<path d="M433.219 149.51C433.443 149.51 433.639 149.573 433.807 149.699C433.975 149.825 434.094 149.993 434.164 150.203L438.553 164L435.865 164L434.626 159.863L429.229 159.863L428.011 164L425.323 164L429.712 150.203C429.768 149.993 429.88 149.825 430.048 149.699C430.23 149.573 430.433 149.51 430.657 149.51L433.219 149.51ZM431.308 152.828L429.838 157.805L434.017 157.805L432.547 152.828C432.491 152.618 432.435 152.401 432.379 152.177C432.323 151.939 432.274 151.715 432.232 151.505L431.644 151.505C431.602 151.715 431.553 151.939 431.497 152.177C431.441 152.401 431.378 152.618 431.308 152.828Z"/>
<path d="M444.719 149.237C445.419 149.251 446.168 149.293 446.966 149.363C447.764 149.419 448.541 149.552 449.297 149.762L449.129 151.547C448.513 151.533 447.813 151.519 447.029 151.505C446.245 151.477 445.489 151.463 444.761 151.463C444.159 151.463 443.676 151.498 443.312 151.568C442.948 151.624 442.682 151.771 442.514 152.009C442.36 152.247 442.283 152.639 442.283 153.185C442.283 153.815 442.409 154.263 442.661 154.529C442.927 154.781 443.354 154.991 443.942 155.159L446.798 155.999C447.946 156.349 448.737 156.86 449.171 157.532C449.605 158.19 449.822 159.072 449.822 160.178C449.822 161.284 449.647 162.131 449.297 162.719C448.947 163.307 448.394 163.713 447.638 163.937C446.882 164.161 445.888 164.273 444.656 164.273C444.18 164.273 443.522 164.245 442.682 164.189C441.856 164.133 440.911 163.993 439.847 163.769L440.015 161.879C440.827 161.907 441.513 161.928 442.073 161.942C442.647 161.956 443.137 161.97 443.543 161.984C443.949 161.984 444.327 161.984 444.677 161.984C445.321 161.984 445.818 161.942 446.168 161.858C446.532 161.774 446.791 161.606 446.945 161.354C447.099 161.088 447.176 160.696 447.176 160.178C447.176 159.52 447.05 159.072 446.798 158.834C446.546 158.582 446.14 158.379 445.58 158.225L442.619 157.322C441.527 156.986 440.757 156.489 440.309 155.831C439.875 155.159 439.658 154.277 439.658 153.185C439.658 152.079 439.833 151.246 440.183 150.686C440.533 150.112 441.079 149.727 441.821 149.531C442.563 149.335 443.529 149.237 444.719 149.237Z"/>
<path d="M454.971 149.51L454.971 153.794C454.971 154.382 454.915 154.949 454.803 155.495L456.315 155.495L460.305 149.51L463.161 149.51L459.192 155.411C459.052 155.649 458.905 155.845 458.751 155.999C458.597 156.153 458.429 156.3 458.247 156.44L458.247 156.503C458.429 156.643 458.618 156.818 458.814 157.028C459.01 157.224 459.178 157.427 459.318 157.637L463.434 164L460.494 164L456.336 157.406L454.803 157.406C454.859 157.672 454.901 157.931 454.929 158.183C454.957 158.421 454.971 158.659 454.971 158.897L454.971 164L452.346 164L452.346 149.51L454.971 149.51Z"/>
<path d="M469.739 149.237C470.439 149.251 471.188 149.293 471.986 149.363C472.784 149.419 473.561 149.552 474.317 149.762L474.149 151.547C473.533 151.533 472.833 151.519 472.049 151.505C471.265 151.477 470.509 151.463 469.781 151.463C469.179 151.463 468.696 151.498 468.332 151.568C467.968 151.624 467.702 151.771 467.534 152.009C467.38 152.247 467.303 152.639 467.303 153.185C467.303 153.815 467.429 154.263 467.681 154.529C467.947 154.781 468.374 154.991 468.962 155.159L471.818 155.999C472.966 156.349 473.757 156.86 474.191 157.532C474.625 158.19 474.842 159.072 474.842 160.178C474.842 161.284 474.667 162.131 474.317 162.719C473.967 163.307 473.414 163.713 472.658 163.937C471.902 164.161 470.908 164.273 469.676 164.273C469.2 164.273 468.542 164.245 467.702 164.189C466.876 164.133 465.931 163.993 464.867 163.769L465.035 161.879C465.847 161.907 466.533 161.928 467.093 161.942C467.667 161.956 468.157 161.97 468.563 161.984C468.969 161.984 469.347 161.984 469.697 161.984C470.341 161.984 470.838 161.942 471.188 161.858C471.552 161.774 471.811 161.606 471.965 161.354C472.119 161.088 472.196 160.696 472.196 160.178C472.196 159.52 472.07 159.072 471.818 158.834C471.566 158.582 471.16 158.379 470.6 158.225L467.639 157.322C466.547 156.986 465.777 156.489 465.329 155.831C464.895 155.159 464.678 154.277 464.678 153.185C464.678 152.079 464.853 151.246 465.203 150.686C465.553 150.112 466.099 149.727 466.841 149.531C467.583 149.335 468.549 149.237 469.739 149.237Z"/>
</mask>
<path d="M426.033 149.51L426.033 151.652L421.539 151.652L421.539 164L418.914 164L418.914 151.652L414.42 151.652L414.42 149.51L426.033 149.51Z" fill="white"/>
<path d="M433.219 149.51C433.443 149.51 433.639 149.573 433.807 149.699C433.975 149.825 434.094 149.993 434.164 150.203L438.553 164L435.865 164L434.626 159.863L429.229 159.863L428.011 164L425.323 164L429.712 150.203C429.768 149.993 429.88 149.825 430.048 149.699C430.23 149.573 430.433 149.51 430.657 149.51L433.219 149.51ZM431.308 152.828L429.838 157.805L434.017 157.805L432.547 152.828C432.491 152.618 432.435 152.401 432.379 152.177C432.323 151.939 432.274 151.715 432.232 151.505L431.644 151.505C431.602 151.715 431.553 151.939 431.497 152.177C431.441 152.401 431.378 152.618 431.308 152.828Z" fill="white"/>
<path d="M444.719 149.237C445.419 149.251 446.168 149.293 446.966 149.363C447.764 149.419 448.541 149.552 449.297 149.762L449.129 151.547C448.513 151.533 447.813 151.519 447.029 151.505C446.245 151.477 445.489 151.463 444.761 151.463C444.159 151.463 443.676 151.498 443.312 151.568C442.948 151.624 442.682 151.771 442.514 152.009C442.36 152.247 442.283 152.639 442.283 153.185C442.283 153.815 442.409 154.263 442.661 154.529C442.927 154.781 443.354 154.991 443.942 155.159L446.798 155.999C447.946 156.349 448.737 156.86 449.171 157.532C449.605 158.19 449.822 159.072 449.822 160.178C449.822 161.284 449.647 162.131 449.297 162.719C448.947 163.307 448.394 163.713 447.638 163.937C446.882 164.161 445.888 164.273 444.656 164.273C444.18 164.273 443.522 164.245 442.682 164.189C441.856 164.133 440.911 163.993 439.847 163.769L440.015 161.879C440.827 161.907 441.513 161.928 442.073 161.942C442.647 161.956 443.137 161.97 443.543 161.984C443.949 161.984 444.327 161.984 444.677 161.984C445.321 161.984 445.818 161.942 446.168 161.858C446.532 161.774 446.791 161.606 446.945 161.354C447.099 161.088 447.176 160.696 447.176 160.178C447.176 159.52 447.05 159.072 446.798 158.834C446.546 158.582 446.14 158.379 445.58 158.225L442.619 157.322C441.527 156.986 440.757 156.489 440.309 155.831C439.875 155.159 439.658 154.277 439.658 153.185C439.658 152.079 439.833 151.246 440.183 150.686C440.533 150.112 441.079 149.727 441.821 149.531C442.563 149.335 443.529 149.237 444.719 149.237Z" fill="white"/>
<path d="M454.971 149.51L454.971 153.794C454.971 154.382 454.915 154.949 454.803 155.495L456.315 155.495L460.305 149.51L463.161 149.51L459.192 155.411C459.052 155.649 458.905 155.845 458.751 155.999C458.597 156.153 458.429 156.3 458.247 156.44L458.247 156.503C458.429 156.643 458.618 156.818 458.814 157.028C459.01 157.224 459.178 157.427 459.318 157.637L463.434 164L460.494 164L456.336 157.406L454.803 157.406C454.859 157.672 454.901 157.931 454.929 158.183C454.957 158.421 454.971 158.659 454.971 158.897L454.971 164L452.346 164L452.346 149.51L454.971 149.51Z" fill="white"/>
<path d="M469.739 149.237C470.439 149.251 471.188 149.293 471.986 149.363C472.784 149.419 473.561 149.552 474.317 149.762L474.149 151.547C473.533 151.533 472.833 151.519 472.049 151.505C471.265 151.477 470.509 151.463 469.781 151.463C469.179 151.463 468.696 151.498 468.332 151.568C467.968 151.624 467.702 151.771 467.534 152.009C467.38 152.247 467.303 152.639 467.303 153.185C467.303 153.815 467.429 154.263 467.681 154.529C467.947 154.781 468.374 154.991 468.962 155.159L471.818 155.999C472.966 156.349 473.757 156.86 474.191 157.532C474.625 158.19 474.842 159.072 474.842 160.178C474.842 161.284 474.667 162.131 474.317 162.719C473.967 163.307 473.414 163.713 472.658 163.937C471.902 164.161 470.908 164.273 469.676 164.273C469.2 164.273 468.542 164.245 467.702 164.189C466.876 164.133 465.931 163.993 464.867 163.769L465.035 161.879C465.847 161.907 466.533 161.928 467.093 161.942C467.667 161.956 468.157 161.97 468.563 161.984C468.969 161.984 469.347 161.984 469.697 161.984C470.341 161.984 470.838 161.942 471.188 161.858C471.552 161.774 471.811 161.606 471.965 161.354C472.119 161.088 472.196 160.696 472.196 160.178C472.196 159.52 472.07 159.072 471.818 158.834C471.566 158.582 471.16 158.379 470.6 158.225L467.639 157.322C466.547 156.986 465.777 156.489 465.329 155.831C464.895 155.159 464.678 154.277 464.678 153.185C464.678 152.079 464.853 151.246 465.203 150.686C465.553 150.112 466.099 149.727 466.841 149.531C467.583 149.335 468.549 149.237 469.739 149.237Z" fill="white"/>
<path d="M426.033 149.51L426.033 151.652L421.539 151.652L421.539 164L418.914 164L418.914 151.652L414.42 151.652L414.42 149.51L426.033 149.51Z" stroke="#130C38" stroke-width="2" mask="url(#path-3-outside-1)"/>
<path d="M433.219 149.51C433.443 149.51 433.639 149.573 433.807 149.699C433.975 149.825 434.094 149.993 434.164 150.203L438.553 164L435.865 164L434.626 159.863L429.229 159.863L428.011 164L425.323 164L429.712 150.203C429.768 149.993 429.88 149.825 430.048 149.699C430.23 149.573 430.433 149.51 430.657 149.51L433.219 149.51ZM431.308 152.828L429.838 157.805L434.017 157.805L432.547 152.828C432.491 152.618 432.435 152.401 432.379 152.177C432.323 151.939 432.274 151.715 432.232 151.505L431.644 151.505C431.602 151.715 431.553 151.939 431.497 152.177C431.441 152.401 431.378 152.618 431.308 152.828Z" stroke="#130C38" stroke-width="2" mask="url(#path-3-outside-1)"/>
<path d="M444.719 149.237C445.419 149.251 446.168 149.293 446.966 149.363C447.764 149.419 448.541 149.552 449.297 149.762L449.129 151.547C448.513 151.533 447.813 151.519 447.029 151.505C446.245 151.477 445.489 151.463 444.761 151.463C444.159 151.463 443.676 151.498 443.312 151.568C442.948 151.624 442.682 151.771 442.514 152.009C442.36 152.247 442.283 152.639 442.283 153.185C442.283 153.815 442.409 154.263 442.661 154.529C442.927 154.781 443.354 154.991 443.942 155.159L446.798 155.999C447.946 156.349 448.737 156.86 449.171 157.532C449.605 158.19 449.822 159.072 449.822 160.178C449.822 161.284 449.647 162.131 449.297 162.719C448.947 163.307 448.394 163.713 447.638 163.937C446.882 164.161 445.888 164.273 444.656 164.273C444.18 164.273 443.522 164.245 442.682 164.189C441.856 164.133 440.911 163.993 439.847 163.769L440.015 161.879C440.827 161.907 441.513 161.928 442.073 161.942C442.647 161.956 443.137 161.97 443.543 161.984C443.949 161.984 444.327 161.984 444.677 161.984C445.321 161.984 445.818 161.942 446.168 161.858C446.532 161.774 446.791 161.606 446.945 161.354C447.099 161.088 447.176 160.696 447.176 160.178C447.176 159.52 447.05 159.072 446.798 158.834C446.546 158.582 446.14 158.379 445.58 158.225L442.619 157.322C441.527 156.986 440.757 156.489 440.309 155.831C439.875 155.159 439.658 154.277 439.658 153.185C439.658 152.079 439.833 151.246 440.183 150.686C440.533 150.112 441.079 149.727 441.821 149.531C442.563 149.335 443.529 149.237 444.719 149.237Z" stroke="#130C38" stroke-width="2" mask="url(#path-3-outside-1)"/>
<path d="M454.971 149.51L454.971 153.794C454.971 154.382 454.915 154.949 454.803 155.495L456.315 155.495L460.305 149.51L463.161 149.51L459.192 155.411C459.052 155.649 458.905 155.845 458.751 155.999C458.597 156.153 458.429 156.3 458.247 156.44L458.247 156.503C458.429 156.643 458.618 156.818 458.814 157.028C459.01 157.224 459.178 157.427 459.318 157.637L463.434 164L460.494 164L456.336 157.406L454.803 157.406C454.859 157.672 454.901 157.931 454.929 158.183C454.957 158.421 454.971 158.659 454.971 158.897L454.971 164L452.346 164L452.346 149.51L454.971 149.51Z" stroke="#130C38" stroke-width="2" mask="url(#path-3-outside-1)"/>
<path d="M469.739 149.237C470.439 149.251 471.188 149.293 471.986 149.363C472.784 149.419 473.561 149.552 474.317 149.762L474.149 151.547C473.533 151.533 472.833 151.519 472.049 151.505C471.265 151.477 470.509 151.463 469.781 151.463C469.179 151.463 468.696 151.498 468.332 151.568C467.968 151.624 467.702 151.771 467.534 152.009C467.38 152.247 467.303 152.639 467.303 153.185C467.303 153.815 467.429 154.263 467.681 154.529C467.947 154.781 468.374 154.991 468.962 155.159L471.818 155.999C472.966 156.349 473.757 156.86 474.191 157.532C474.625 158.19 474.842 159.072 474.842 160.178C474.842 161.284 474.667 162.131 474.317 162.719C473.967 163.307 473.414 163.713 472.658 163.937C471.902 164.161 470.908 164.273 469.676 164.273C469.2 164.273 468.542 164.245 467.702 164.189C466.876 164.133 465.931 163.993 464.867 163.769L465.035 161.879C465.847 161.907 466.533 161.928 467.093 161.942C467.667 161.956 468.157 161.97 468.563 161.984C468.969 161.984 469.347 161.984 469.697 161.984C470.341 161.984 470.838 161.942 471.188 161.858C471.552 161.774 471.811 161.606 471.965 161.354C472.119 161.088 472.196 160.696 472.196 160.178C472.196 159.52 472.07 159.072 471.818 158.834C471.566 158.582 471.16 158.379 470.6 158.225L467.639 157.322C466.547 156.986 465.777 156.489 465.329 155.831C464.895 155.159 464.678 154.277 464.678 153.185C464.678 152.079 464.853 151.246 465.203 150.686C465.553 150.112 466.099 149.727 466.841 149.531C467.583 149.335 468.549 149.237 469.739 149.237Z" stroke="#130C38" stroke-width="2" mask="url(#path-3-outside-1)"/>
</svg>
