<svg width="321" height="199" viewBox="0 0 321 199" fill="none" xmlns="http://www.w3.org/2000/svg">
<path d="M141.304 66V58.386L138.55 63.93H136.93L134.176 58.386V66H131.224V53.22H134.428L137.74 59.898L141.07 53.22H144.256V66H141.304ZM150.912 66V53.22H153.864V66H150.912ZM162.428 66L159.962 62.22L158.954 63.246V66H156.074V52.86H158.954V60.456L162.158 56.55H165.2L161.798 60.618L165.488 66H162.428ZM175.43 66H172.55V60.69C172.55 60.078 172.424 59.628 172.172 59.34C171.932 59.052 171.608 58.908 171.2 58.908C170.864 58.908 170.486 59.064 170.066 59.376C169.658 59.676 169.37 60.078 169.202 60.582V66H166.322V52.86H169.202V58.134C169.538 57.57 169.994 57.138 170.57 56.838C171.146 56.526 171.776 56.37 172.46 56.37C173.096 56.37 173.612 56.478 174.008 56.694C174.404 56.91 174.704 57.198 174.908 57.558C175.112 57.906 175.25 58.29 175.322 58.71C175.394 59.13 175.43 59.544 175.43 59.952V66ZM177.308 52.86H180.188V62.634C180.188 63.03 180.26 63.312 180.404 63.48C180.548 63.648 180.752 63.732 181.016 63.732C181.196 63.732 181.376 63.708 181.556 63.66C181.748 63.6 181.916 63.534 182.06 63.462L182.438 65.622C182.078 65.79 181.664 65.922 181.196 66.018C180.728 66.114 180.29 66.162 179.882 66.162C179.066 66.162 178.43 65.946 177.974 65.514C177.53 65.082 177.308 64.458 177.308 63.642V52.86ZM182.779 63.174C182.779 62.55 182.953 62.004 183.301 61.536C183.649 61.068 184.129 60.702 184.741 60.438C185.353 60.162 186.055 60.024 186.847 60.024C187.231 60.024 187.609 60.06 187.981 60.132C188.353 60.192 188.677 60.282 188.953 60.402V59.988C188.953 58.92 188.323 58.386 187.063 58.386C186.535 58.386 186.037 58.476 185.569 58.656C185.113 58.836 184.627 59.094 184.111 59.43L183.247 57.594C184.495 56.778 185.863 56.37 187.351 56.37C188.767 56.37 189.865 56.712 190.645 57.396C191.437 58.068 191.833 59.046 191.833 60.33V62.796C191.833 63.084 191.875 63.288 191.959 63.408C192.055 63.528 192.217 63.594 192.445 63.606V66C192.193 66.048 191.965 66.084 191.761 66.108C191.557 66.132 191.377 66.144 191.221 66.144C190.681 66.144 190.267 66.036 189.979 65.82C189.703 65.604 189.529 65.31 189.457 64.938L189.403 64.524C188.983 65.064 188.479 65.478 187.891 65.766C187.303 66.042 186.697 66.18 186.073 66.18C185.449 66.18 184.885 66.048 184.381 65.784C183.889 65.52 183.499 65.166 183.211 64.722C182.923 64.266 182.779 63.75 182.779 63.174ZM188.503 63.534C188.803 63.294 188.953 63.048 188.953 62.796V61.95C188.701 61.854 188.425 61.782 188.125 61.734C187.837 61.674 187.573 61.644 187.333 61.644C186.793 61.644 186.349 61.764 186.001 62.004C185.665 62.244 185.497 62.55 185.497 62.922C185.497 63.246 185.623 63.528 185.875 63.768C186.139 63.996 186.487 64.11 186.919 64.11C187.207 64.11 187.495 64.056 187.783 63.948C188.071 63.84 188.311 63.702 188.503 63.534ZM197.538 66.18C196.722 66.18 195.93 66.048 195.162 65.784C194.406 65.508 193.764 65.118 193.236 64.614L194.226 62.796C195.39 63.648 196.464 64.074 197.448 64.074C197.82 64.074 198.108 64.014 198.312 63.894C198.516 63.774 198.618 63.588 198.618 63.336C198.618 63.072 198.48 62.886 198.204 62.778C197.928 62.658 197.52 62.52 196.98 62.364C196.26 62.124 195.66 61.89 195.18 61.662C194.7 61.434 194.34 61.158 194.1 60.834C193.86 60.51 193.74 60.078 193.74 59.538C193.74 58.59 194.094 57.828 194.802 57.252C195.51 56.664 196.47 56.37 197.682 56.37C198.33 56.37 198.96 56.472 199.572 56.676C200.196 56.88 200.778 57.222 201.318 57.702L200.202 59.502C199.662 59.13 199.182 58.86 198.762 58.692C198.342 58.524 197.934 58.44 197.538 58.44C197.226 58.44 196.962 58.5 196.746 58.62C196.53 58.728 196.422 58.92 196.422 59.196C196.422 59.46 196.542 59.658 196.782 59.79C197.022 59.91 197.394 60.042 197.898 60.186C198.666 60.414 199.308 60.648 199.824 60.888C200.352 61.116 200.742 61.404 200.994 61.752C201.258 62.088 201.39 62.538 201.39 63.102C201.39 64.062 201.042 64.818 200.346 65.37C199.65 65.91 198.714 66.18 197.538 66.18Z" fill="#618D2F"/>
<path d="M131.778 90.84V88.86H133.362V90.84H131.778ZM131.778 102V92.604H133.362V102H131.778ZM142.55 102L139.292 97.428L137.51 99.102V102H135.926V88.86H137.51V97.446L142.37 92.622H144.08L140.336 96.51L144.26 102H142.55ZM153.784 102H152.2V96.744C152.2 95.784 152.026 95.064 151.678 94.584C151.342 94.104 150.856 93.864 150.22 93.864C149.812 93.864 149.398 93.972 148.978 94.188C148.57 94.404 148.21 94.698 147.898 95.07C147.586 95.43 147.358 95.85 147.214 96.33V102H145.63V88.86H147.214V94.62C147.586 93.948 148.09 93.42 148.726 93.036C149.374 92.64 150.07 92.442 150.814 92.442C151.558 92.442 152.146 92.616 152.578 92.964C153.01 93.312 153.316 93.786 153.496 94.386C153.688 94.974 153.784 95.64 153.784 96.384V102ZM156.283 88.86H157.867V99.57C157.867 100.086 157.939 100.404 158.083 100.524C158.227 100.644 158.401 100.704 158.605 100.704C158.857 100.704 159.097 100.68 159.325 100.632C159.553 100.572 159.745 100.512 159.901 100.452L160.153 101.748C159.889 101.856 159.577 101.946 159.217 102.018C158.857 102.09 158.539 102.126 158.263 102.126C157.651 102.126 157.165 101.952 156.805 101.604C156.457 101.256 156.283 100.77 156.283 100.146V88.86ZM160.659 99.282C160.659 98.682 160.827 98.166 161.163 97.734C161.511 97.29 161.985 96.948 162.585 96.708C163.185 96.468 163.881 96.348 164.673 96.348C165.093 96.348 165.537 96.384 166.005 96.456C166.473 96.516 166.887 96.612 167.247 96.744V96.06C167.247 95.34 167.031 94.776 166.599 94.368C166.167 93.948 165.555 93.738 164.763 93.738C164.247 93.738 163.749 93.834 163.269 94.026C162.801 94.206 162.303 94.47 161.775 94.818L161.199 93.702C161.811 93.282 162.423 92.97 163.035 92.766C163.647 92.55 164.283 92.442 164.943 92.442C166.143 92.442 167.091 92.778 167.787 93.45C168.483 94.11 168.831 95.034 168.831 96.222V100.2C168.831 100.572 168.999 100.764 169.335 100.776V102C169.179 102.024 169.041 102.042 168.921 102.054C168.813 102.066 168.723 102.072 168.651 102.072C168.279 102.072 167.997 101.97 167.805 101.766C167.625 101.562 167.523 101.346 167.499 101.118L167.463 100.524C167.055 101.052 166.521 101.46 165.861 101.748C165.201 102.036 164.547 102.18 163.899 102.18C163.275 102.18 162.717 102.054 162.225 101.802C161.733 101.538 161.349 101.19 161.073 100.758C160.797 100.314 160.659 99.822 160.659 99.282ZM166.779 99.948C166.923 99.78 167.037 99.612 167.121 99.444C167.205 99.264 167.247 99.114 167.247 98.994V97.824C166.479 97.524 165.687 97.374 164.871 97.374C164.067 97.374 163.413 97.536 162.909 97.86C162.417 98.172 162.171 98.604 162.171 99.156C162.171 99.456 162.249 99.75 162.405 100.038C162.573 100.314 162.813 100.542 163.125 100.722C163.449 100.902 163.845 100.992 164.313 100.992C164.805 100.992 165.273 100.896 165.717 100.704C166.161 100.5 166.515 100.248 166.779 99.948ZM174.586 102.18C173.806 102.18 173.074 102.054 172.39 101.802C171.706 101.538 171.118 101.148 170.626 100.632L171.238 99.516C171.778 100.02 172.318 100.38 172.858 100.596C173.398 100.812 173.95 100.92 174.514 100.92C175.162 100.92 175.69 100.8 176.098 100.56C176.506 100.308 176.71 99.942 176.71 99.462C176.71 99.114 176.602 98.856 176.386 98.688C176.182 98.52 175.888 98.382 175.504 98.274C175.12 98.154 174.664 98.022 174.136 97.878C173.164 97.602 172.42 97.278 171.904 96.906C171.4 96.522 171.148 95.964 171.148 95.232C171.148 94.344 171.484 93.66 172.156 93.18C172.84 92.688 173.71 92.442 174.766 92.442C176.182 92.442 177.298 92.868 178.114 93.72L177.394 94.818C176.662 94.062 175.756 93.684 174.676 93.684C174.352 93.684 174.034 93.726 173.722 93.81C173.41 93.882 173.152 94.02 172.948 94.224C172.744 94.416 172.642 94.692 172.642 95.052C172.642 95.496 172.822 95.814 173.182 96.006C173.542 96.198 174.07 96.396 174.766 96.6C175.474 96.804 176.086 97.008 176.602 97.212C177.13 97.416 177.538 97.68 177.826 98.004C178.114 98.328 178.258 98.778 178.258 99.354C178.258 100.242 177.922 100.938 177.25 101.442C176.578 101.934 175.69 102.18 174.586 102.18ZM180.009 103.44V102H186.795V103.44H180.009ZM188.702 102C188.702 101.352 188.774 100.764 188.918 100.236C189.074 99.696 189.362 99.186 189.782 98.706C190.214 98.226 190.832 97.758 191.636 97.302C192.116 97.038 192.596 96.786 193.076 96.546C193.568 96.294 193.976 96.018 194.3 95.718C194.636 95.406 194.804 95.04 194.804 94.62C194.804 94.2 194.618 93.816 194.246 93.468C193.886 93.12 193.358 92.946 192.662 92.946C192.194 92.946 191.774 93.03 191.402 93.198C191.03 93.354 190.712 93.546 190.448 93.774C190.196 93.99 189.992 94.188 189.836 94.368L188.846 93.252C188.978 93.108 189.224 92.904 189.584 92.64C189.944 92.364 190.406 92.112 190.97 91.884C191.534 91.656 192.188 91.542 192.932 91.542C193.676 91.542 194.312 91.674 194.84 91.938C195.38 92.19 195.794 92.538 196.082 92.982C196.37 93.414 196.514 93.9 196.514 94.44C196.514 94.908 196.412 95.316 196.208 95.664C196.016 96.012 195.764 96.318 195.452 96.582C195.152 96.846 194.834 97.074 194.498 97.266C194.174 97.446 193.88 97.602 193.616 97.734C192.896 98.094 192.314 98.412 191.87 98.688C191.426 98.952 191.09 99.228 190.862 99.516C190.634 99.804 190.466 100.152 190.358 100.56H196.712V102H188.702ZM202.277 104.682C201.365 104.682 200.543 104.466 199.811 104.034C199.079 103.602 198.527 103.026 198.155 102.306L199.145 101.442C199.481 101.994 199.925 102.438 200.477 102.774C201.041 103.11 201.647 103.278 202.295 103.278C202.847 103.278 203.339 103.158 203.771 102.918C204.203 102.678 204.545 102.348 204.797 101.928C205.049 101.496 205.175 101.004 205.175 100.452C205.175 99.912 205.049 99.438 204.797 99.03C204.557 98.622 204.227 98.304 203.807 98.076C203.399 97.848 202.937 97.734 202.421 97.734C201.905 97.734 201.419 97.848 200.963 98.076C200.519 98.304 200.153 98.628 199.865 99.048H198.443L199.883 91.722H206.093V93.18H201.053L200.279 97.248C200.543 96.972 200.873 96.756 201.269 96.6C201.677 96.432 202.127 96.348 202.619 96.348C203.411 96.348 204.119 96.522 204.743 96.87C205.379 97.218 205.877 97.698 206.237 98.31C206.609 98.922 206.795 99.63 206.795 100.434C206.795 101.274 206.591 102.012 206.183 102.648C205.787 103.296 205.247 103.794 204.563 104.142C203.879 104.502 203.117 104.682 202.277 104.682ZM215.09 100.56V102H208.628V100.56H211.184V93.54C211.052 93.72 210.812 93.924 210.464 94.152C210.116 94.368 209.738 94.554 209.33 94.71C208.922 94.866 208.562 94.944 208.25 94.944V93.432C208.514 93.432 208.802 93.36 209.114 93.216C209.438 93.06 209.75 92.88 210.05 92.676C210.35 92.472 210.602 92.28 210.806 92.1C211.022 91.92 211.148 91.794 211.184 91.722H212.804V100.56H215.09Z" fill="#595959"/>
<path d="M131.488 83V77.32H133.048V81.64H135.624V83H131.488ZM136.168 83V77.32H137.728V83H136.168ZM140.267 80.208V83H138.707V77.32H139.923L142.203 80.208V77.32H143.763V83H142.523L140.267 80.208ZM148.786 81.64V83H144.738V77.32H148.714V78.68H146.298V79.48H148.362V80.744H146.298V81.64H148.786ZM151.308 83V77.32H152.868V83H151.308ZM153.847 83V77.32H156.031C156.661 77.32 157.186 77.448 157.607 77.704C158.034 77.9547 158.354 78.296 158.567 78.728C158.786 79.1547 158.895 79.6293 158.895 80.152C158.895 80.728 158.775 81.2293 158.535 81.656C158.301 82.0827 157.967 82.4133 157.535 82.648C157.109 82.8827 156.607 83 156.031 83H153.847ZM157.311 80.152C157.311 79.7093 157.197 79.3547 156.967 79.088C156.743 78.816 156.431 78.68 156.031 78.68H155.407V81.64H156.031C156.442 81.64 156.757 81.4987 156.975 81.216C157.199 80.9333 157.311 80.5787 157.311 80.152Z" fill="#595959"/>
</svg>
