<svg width="321" height="199" viewBox="0 0 321 199" fill="none" xmlns="http://www.w3.org/2000/svg">
<path d="M141.304 66V58.386L138.55 63.93H136.93L134.176 58.386V66H131.224V53.22H134.428L137.74 59.898L141.07 53.22H144.256V66H141.304ZM150.912 66V53.22H159.588V55.812H153.864V58.566H158.58V60.96H153.864V66H150.912ZM159.681 63.174C159.681 62.55 159.855 62.004 160.203 61.536C160.551 61.068 161.031 60.702 161.643 60.438C162.255 60.162 162.957 60.024 163.749 60.024C164.133 60.024 164.511 60.06 164.883 60.132C165.255 60.192 165.579 60.282 165.855 60.402V59.988C165.855 58.92 165.225 58.386 163.965 58.386C163.437 58.386 162.939 58.476 162.471 58.656C162.015 58.836 161.529 59.094 161.013 59.43L160.149 57.594C161.397 56.778 162.765 56.37 164.253 56.37C165.669 56.37 166.767 56.712 167.547 57.396C168.339 58.068 168.735 59.046 168.735 60.33V62.796C168.735 63.084 168.777 63.288 168.861 63.408C168.957 63.528 169.119 63.594 169.347 63.606V66C169.095 66.048 168.867 66.084 168.663 66.108C168.459 66.132 168.279 66.144 168.123 66.144C167.583 66.144 167.169 66.036 166.881 65.82C166.605 65.604 166.431 65.31 166.359 64.938L166.305 64.524C165.885 65.064 165.381 65.478 164.793 65.766C164.205 66.042 163.599 66.18 162.975 66.18C162.351 66.18 161.787 66.048 161.283 65.784C160.791 65.52 160.401 65.166 160.113 64.722C159.825 64.266 159.681 63.75 159.681 63.174ZM165.405 63.534C165.705 63.294 165.855 63.048 165.855 62.796V61.95C165.603 61.854 165.327 61.782 165.027 61.734C164.739 61.674 164.475 61.644 164.235 61.644C163.695 61.644 163.251 61.764 162.903 62.004C162.567 62.244 162.399 62.55 162.399 62.922C162.399 63.246 162.525 63.528 162.777 63.768C163.041 63.996 163.389 64.11 163.821 64.11C164.109 64.11 164.397 64.056 164.685 63.948C164.973 63.84 165.213 63.702 165.405 63.534ZM176.854 65.496C176.458 65.664 176.002 65.82 175.486 65.964C174.982 66.108 174.472 66.18 173.956 66.18C173.476 66.18 173.038 66.102 172.642 65.946C172.246 65.778 171.928 65.508 171.688 65.136C171.448 64.764 171.328 64.272 171.328 63.66V58.728H170.122V56.55H171.328V53.544H174.208V56.55H176.134V58.728H174.208V62.67C174.208 62.982 174.286 63.21 174.442 63.354C174.598 63.486 174.796 63.552 175.036 63.552C175.252 63.552 175.474 63.516 175.702 63.444C175.93 63.372 176.128 63.294 176.296 63.21L176.854 65.496ZM177.976 55.47V52.86H180.856V55.47H177.976ZM177.976 66V56.55H180.856V66H177.976ZM191.936 66H189.056V60.69C189.056 60.078 188.93 59.628 188.678 59.34C188.438 59.052 188.114 58.908 187.706 58.908C187.37 58.908 186.992 59.064 186.572 59.376C186.164 59.676 185.876 60.078 185.708 60.582V66H182.828V52.86H185.708V58.134C186.044 57.57 186.5 57.138 187.076 56.838C187.652 56.526 188.282 56.37 188.966 56.37C189.602 56.37 190.118 56.478 190.514 56.694C190.91 56.91 191.21 57.198 191.414 57.558C191.618 57.906 191.756 58.29 191.828 58.71C191.9 59.13 191.936 59.544 191.936 59.952V66Z" fill="#618D2F"/>
<path d="M131.04 99.282C131.04 98.682 131.208 98.166 131.544 97.734C131.892 97.29 132.366 96.948 132.966 96.708C133.566 96.468 134.262 96.348 135.054 96.348C135.474 96.348 135.918 96.384 136.386 96.456C136.854 96.516 137.268 96.612 137.628 96.744V96.06C137.628 95.34 137.412 94.776 136.98 94.368C136.548 93.948 135.936 93.738 135.144 93.738C134.628 93.738 134.13 93.834 133.65 94.026C133.182 94.206 132.684 94.47 132.156 94.818L131.58 93.702C132.192 93.282 132.804 92.97 133.416 92.766C134.028 92.55 134.664 92.442 135.324 92.442C136.524 92.442 137.472 92.778 138.168 93.45C138.864 94.11 139.212 95.034 139.212 96.222V100.2C139.212 100.572 139.38 100.764 139.716 100.776V102C139.56 102.024 139.422 102.042 139.302 102.054C139.194 102.066 139.104 102.072 139.032 102.072C138.66 102.072 138.378 101.97 138.186 101.766C138.006 101.562 137.904 101.346 137.88 101.118L137.844 100.524C137.436 101.052 136.902 101.46 136.242 101.748C135.582 102.036 134.928 102.18 134.28 102.18C133.656 102.18 133.098 102.054 132.606 101.802C132.114 101.538 131.73 101.19 131.454 100.758C131.178 100.314 131.04 99.822 131.04 99.282ZM137.16 99.948C137.304 99.78 137.418 99.612 137.502 99.444C137.586 99.264 137.628 99.114 137.628 98.994V97.824C136.86 97.524 136.068 97.374 135.252 97.374C134.448 97.374 133.794 97.536 133.29 97.86C132.798 98.172 132.552 98.604 132.552 99.156C132.552 99.456 132.63 99.75 132.786 100.038C132.954 100.314 133.194 100.542 133.506 100.722C133.83 100.902 134.226 100.992 134.694 100.992C135.186 100.992 135.654 100.896 136.098 100.704C136.542 100.5 136.896 100.248 137.16 99.948ZM146.713 93.99C145.921 94.002 145.219 94.206 144.607 94.602C144.007 94.986 143.581 95.52 143.329 96.204V102H141.745V92.604H143.221V94.782C143.545 94.134 143.971 93.612 144.499 93.216C145.039 92.808 145.603 92.58 146.191 92.532C146.311 92.532 146.413 92.532 146.497 92.532C146.581 92.532 146.653 92.538 146.713 92.55V93.99ZM152.177 102.18C151.241 102.18 150.413 101.958 149.693 101.514C148.985 101.058 148.433 100.464 148.037 99.732C147.641 98.988 147.443 98.184 147.443 97.32C147.443 96.444 147.641 95.64 148.037 94.908C148.445 94.164 149.003 93.57 149.711 93.126C150.431 92.67 151.253 92.442 152.177 92.442C153.113 92.442 153.935 92.67 154.643 93.126C155.363 93.57 155.921 94.164 156.317 94.908C156.725 95.64 156.929 96.444 156.929 97.32C156.929 98.184 156.725 98.988 156.317 99.732C155.921 100.464 155.369 101.058 154.661 101.514C153.953 101.958 153.125 102.18 152.177 102.18ZM149.063 97.338C149.063 97.986 149.201 98.574 149.477 99.102C149.765 99.63 150.143 100.05 150.611 100.362C151.079 100.662 151.601 100.812 152.177 100.812C152.753 100.812 153.275 100.656 153.743 100.344C154.223 100.032 154.601 99.612 154.877 99.084C155.165 98.544 155.309 97.95 155.309 97.302C155.309 96.654 155.165 96.066 154.877 95.538C154.601 95.01 154.223 94.59 153.743 94.278C153.275 93.966 152.753 93.81 152.177 93.81C151.601 93.81 151.079 93.972 150.611 94.296C150.143 94.608 149.765 95.028 149.477 95.556C149.201 96.084 149.063 96.678 149.063 97.338ZM163.672 102.18C162.94 102.18 162.274 102 161.674 101.64C161.074 101.28 160.6 100.812 160.252 100.236V102H158.848V88.86H160.432V94.476C160.828 93.864 161.314 93.372 161.89 93C162.466 92.628 163.138 92.442 163.906 92.442C164.554 92.442 165.136 92.58 165.652 92.856C166.168 93.12 166.606 93.486 166.966 93.954C167.338 94.41 167.62 94.932 167.812 95.52C168.016 96.096 168.118 96.702 168.118 97.338C168.118 98.214 167.92 99.024 167.524 99.768C167.14 100.5 166.612 101.088 165.94 101.532C165.268 101.964 164.512 102.18 163.672 102.18ZM163.276 100.812C163.912 100.812 164.47 100.65 164.95 100.326C165.43 99.99 165.808 99.558 166.084 99.03C166.36 98.502 166.498 97.938 166.498 97.338C166.498 96.726 166.366 96.15 166.102 95.61C165.85 95.07 165.49 94.638 165.022 94.314C164.566 93.978 164.032 93.81 163.42 93.81C162.748 93.81 162.148 94.026 161.62 94.458C161.104 94.89 160.708 95.406 160.432 96.006V98.724C160.516 99.12 160.708 99.48 161.008 99.804C161.32 100.116 161.68 100.362 162.088 100.542C162.508 100.722 162.904 100.812 163.276 100.812ZM174.887 102.18C174.155 102.18 173.489 102 172.889 101.64C172.289 101.28 171.815 100.812 171.467 100.236V102H170.063V88.86H171.647V94.476C172.043 93.864 172.529 93.372 173.105 93C173.681 92.628 174.353 92.442 175.121 92.442C175.769 92.442 176.351 92.58 176.867 92.856C177.383 93.12 177.821 93.486 178.181 93.954C178.553 94.41 178.835 94.932 179.027 95.52C179.231 96.096 179.333 96.702 179.333 97.338C179.333 98.214 179.135 99.024 178.739 99.768C178.355 100.5 177.827 101.088 177.155 101.532C176.483 101.964 175.727 102.18 174.887 102.18ZM174.491 100.812C175.127 100.812 175.685 100.65 176.165 100.326C176.645 99.99 177.023 99.558 177.299 99.03C177.575 98.502 177.713 97.938 177.713 97.338C177.713 96.726 177.581 96.15 177.317 95.61C177.065 95.07 176.705 94.638 176.237 94.314C175.781 93.978 175.247 93.81 174.635 93.81C173.963 93.81 173.363 94.026 172.835 94.458C172.319 94.89 171.923 95.406 171.647 96.006V98.724C171.731 99.12 171.923 99.48 172.223 99.804C172.535 100.116 172.895 100.362 173.303 100.542C173.723 100.722 174.119 100.812 174.491 100.812ZM181.394 104.556C181.55 104.568 181.706 104.58 181.862 104.592C182.018 104.616 182.138 104.628 182.222 104.628C182.414 104.628 182.582 104.562 182.726 104.43C182.87 104.298 183.026 104.04 183.194 103.656C183.374 103.284 183.602 102.732 183.878 102L179.9 92.604H181.574L184.742 100.398L187.604 92.604H189.17L184.598 104.466C184.442 104.886 184.16 105.252 183.752 105.564C183.356 105.888 182.822 106.05 182.15 106.05C182.042 106.05 181.928 106.044 181.808 106.032C181.7 106.02 181.562 105.996 181.394 105.96V104.556ZM189.786 99.282C189.786 98.682 189.954 98.166 190.29 97.734C190.638 97.29 191.112 96.948 191.712 96.708C192.312 96.468 193.008 96.348 193.8 96.348C194.22 96.348 194.664 96.384 195.132 96.456C195.6 96.516 196.014 96.612 196.374 96.744V96.06C196.374 95.34 196.158 94.776 195.726 94.368C195.294 93.948 194.682 93.738 193.89 93.738C193.374 93.738 192.876 93.834 192.396 94.026C191.928 94.206 191.43 94.47 190.902 94.818L190.326 93.702C190.938 93.282 191.55 92.97 192.162 92.766C192.774 92.55 193.41 92.442 194.07 92.442C195.27 92.442 196.218 92.778 196.914 93.45C197.61 94.11 197.958 95.034 197.958 96.222V100.2C197.958 100.572 198.126 100.764 198.462 100.776V102C198.306 102.024 198.168 102.042 198.048 102.054C197.94 102.066 197.85 102.072 197.778 102.072C197.406 102.072 197.124 101.97 196.932 101.766C196.752 101.562 196.65 101.346 196.626 101.118L196.59 100.524C196.182 101.052 195.648 101.46 194.988 101.748C194.328 102.036 193.674 102.18 193.026 102.18C192.402 102.18 191.844 102.054 191.352 101.802C190.86 101.538 190.476 101.19 190.2 100.758C189.924 100.314 189.786 99.822 189.786 99.282ZM195.906 99.948C196.05 99.78 196.164 99.612 196.248 99.444C196.332 99.264 196.374 99.114 196.374 98.994V97.824C195.606 97.524 194.814 97.374 193.998 97.374C193.194 97.374 192.54 97.536 192.036 97.86C191.544 98.172 191.298 98.604 191.298 99.156C191.298 99.456 191.376 99.75 191.532 100.038C191.7 100.314 191.94 100.542 192.252 100.722C192.576 100.902 192.972 100.992 193.44 100.992C193.932 100.992 194.4 100.896 194.844 100.704C195.288 100.5 195.642 100.248 195.906 99.948Z" fill="#595959"/>
<path d="M131.488 83V77.32H133.048V81.64H135.624V83H131.488ZM136.168 83V77.32H137.728V83H136.168ZM140.267 80.208V83H138.707V77.32H139.923L142.203 80.208V77.32H143.763V83H142.523L140.267 80.208ZM148.786 81.64V83H144.738V77.32H148.714V78.68H146.298V79.48H148.362V80.744H146.298V81.64H148.786ZM151.308 83V77.32H152.868V83H151.308ZM153.847 83V77.32H156.031C156.661 77.32 157.186 77.448 157.607 77.704C158.034 77.9547 158.354 78.296 158.567 78.728C158.786 79.1547 158.895 79.6293 158.895 80.152C158.895 80.728 158.775 81.2293 158.535 81.656C158.301 82.0827 157.967 82.4133 157.535 82.648C157.109 82.8827 156.607 83 156.031 83H153.847ZM157.311 80.152C157.311 79.7093 157.197 79.3547 156.967 79.088C156.743 78.816 156.431 78.68 156.031 78.68H155.407V81.64H156.031C156.442 81.64 156.757 81.4987 156.975 81.216C157.199 80.9333 157.311 80.5787 157.311 80.152Z" fill="#595959"/>
</svg>
