<svg width="321" height="199" viewBox="0 0 321 199" fill="none" xmlns="http://www.w3.org/2000/svg">
<path d="M131.224 66V53.22H134.176V58.728L138.856 53.22H142.168L137.38 58.926L142.492 66H139.108L135.508 60.87L134.176 62.238V66H131.224ZM142.507 63.174C142.507 62.55 142.681 62.004 143.029 61.536C143.377 61.068 143.857 60.702 144.469 60.438C145.081 60.162 145.783 60.024 146.575 60.024C146.959 60.024 147.337 60.06 147.709 60.132C148.081 60.192 148.405 60.282 148.681 60.402V59.988C148.681 58.92 148.051 58.386 146.791 58.386C146.263 58.386 145.765 58.476 145.297 58.656C144.841 58.836 144.355 59.094 143.839 59.43L142.975 57.594C144.223 56.778 145.591 56.37 147.079 56.37C148.495 56.37 149.593 56.712 150.373 57.396C151.165 58.068 151.561 59.046 151.561 60.33V62.796C151.561 63.084 151.603 63.288 151.687 63.408C151.783 63.528 151.945 63.594 152.173 63.606V66C151.921 66.048 151.693 66.084 151.489 66.108C151.285 66.132 151.105 66.144 150.949 66.144C150.409 66.144 149.995 66.036 149.707 65.82C149.431 65.604 149.257 65.31 149.185 64.938L149.131 64.524C148.711 65.064 148.207 65.478 147.619 65.766C147.031 66.042 146.425 66.18 145.801 66.18C145.177 66.18 144.613 66.048 144.109 65.784C143.617 65.52 143.227 65.166 142.939 64.722C142.651 64.266 142.507 63.75 142.507 63.174ZM148.231 63.534C148.531 63.294 148.681 63.048 148.681 62.796V61.95C148.429 61.854 148.153 61.782 147.853 61.734C147.565 61.674 147.301 61.644 147.061 61.644C146.521 61.644 146.077 61.764 145.729 62.004C145.393 62.244 145.225 62.55 145.225 62.922C145.225 63.246 145.351 63.528 145.603 63.768C145.867 63.996 146.215 64.11 146.647 64.11C146.935 64.11 147.223 64.056 147.511 63.948C147.799 63.84 148.039 63.702 148.231 63.534ZM162.756 66H159.876V60.69C159.876 60.066 159.756 59.616 159.516 59.34C159.288 59.052 158.982 58.908 158.598 58.908C158.202 58.908 157.8 59.064 157.392 59.376C156.984 59.688 156.696 60.09 156.528 60.582V66H153.648V56.55H156.24V58.134C156.588 57.582 157.08 57.15 157.716 56.838C158.352 56.526 159.084 56.37 159.912 56.37C160.524 56.37 161.016 56.484 161.388 56.712C161.772 56.928 162.06 57.216 162.252 57.576C162.456 57.924 162.588 58.308 162.648 58.728C162.72 59.148 162.756 59.556 162.756 59.952V66ZM164.112 64.272L168.918 58.548H164.364V56.55H171.942V58.278L167.19 64.002H172.068V66H164.112V64.272ZM177.924 66.18C176.844 66.18 175.926 65.952 175.17 65.496C174.426 65.04 173.856 64.44 173.46 63.696C173.064 62.952 172.866 62.148 172.866 61.284C172.866 60.408 173.064 59.598 173.46 58.854C173.856 58.11 174.432 57.51 175.188 57.054C175.944 56.598 176.856 56.37 177.924 56.37C178.992 56.37 179.904 56.598 180.66 57.054C181.416 57.51 181.992 58.11 182.388 58.854C182.784 59.598 182.982 60.408 182.982 61.284C182.982 62.148 182.784 62.952 182.388 63.696C181.992 64.44 181.416 65.04 180.66 65.496C179.904 65.952 178.992 66.18 177.924 66.18ZM175.818 61.284C175.818 62.016 176.016 62.61 176.412 63.066C176.82 63.522 177.324 63.75 177.924 63.75C178.512 63.75 179.004 63.522 179.4 63.066C179.808 62.61 180.012 62.016 180.012 61.284C180.012 60.552 179.808 59.958 179.4 59.502C179.004 59.046 178.512 58.818 177.924 58.818C177.324 58.818 176.82 59.046 176.412 59.502C176.016 59.958 175.818 60.552 175.818 61.284ZM188.91 66.18C187.83 66.18 186.912 65.952 186.156 65.496C185.412 65.04 184.842 64.44 184.446 63.696C184.05 62.952 183.852 62.148 183.852 61.284C183.852 60.408 184.05 59.598 184.446 58.854C184.842 58.11 185.418 57.51 186.174 57.054C186.93 56.598 187.842 56.37 188.91 56.37C189.978 56.37 190.89 56.598 191.646 57.054C192.402 57.51 192.978 58.11 193.374 58.854C193.77 59.598 193.968 60.408 193.968 61.284C193.968 62.148 193.77 62.952 193.374 63.696C192.978 64.44 192.402 65.04 191.646 65.496C190.89 65.952 189.978 66.18 188.91 66.18ZM186.804 61.284C186.804 62.016 187.002 62.61 187.398 63.066C187.806 63.522 188.31 63.75 188.91 63.75C189.498 63.75 189.99 63.522 190.386 63.066C190.794 62.61 190.998 62.016 190.998 61.284C190.998 60.552 190.794 59.958 190.386 59.502C189.99 59.046 189.498 58.818 188.91 58.818C188.31 58.818 187.806 59.046 187.398 59.502C187.002 59.958 186.804 60.552 186.804 61.284ZM204.504 66H201.624V60.69C201.624 60.066 201.504 59.616 201.264 59.34C201.036 59.052 200.73 58.908 200.346 58.908C199.95 58.908 199.548 59.064 199.14 59.376C198.732 59.688 198.444 60.09 198.276 60.582V66H195.396V56.55H197.988V58.134C198.336 57.582 198.828 57.15 199.464 56.838C200.1 56.526 200.832 56.37 201.66 56.37C202.272 56.37 202.764 56.484 203.136 56.712C203.52 56.928 203.808 57.216 204 57.576C204.204 57.924 204.336 58.308 204.396 58.728C204.468 59.148 204.504 59.556 204.504 59.952V66ZM210.853 66V53.22H216.613C217.213 53.22 217.765 53.346 218.269 53.598C218.785 53.838 219.229 54.168 219.601 54.588C219.973 54.996 220.261 55.458 220.465 55.974C220.681 56.49 220.789 57.012 220.789 57.54C220.789 58.332 220.597 59.064 220.213 59.736C219.841 60.396 219.337 60.9 218.701 61.248L221.509 66H218.251L215.803 61.878H213.805V66H210.853ZM213.805 59.304H216.505C216.853 59.304 217.153 59.142 217.405 58.818C217.657 58.482 217.783 58.056 217.783 57.54C217.783 57.024 217.639 56.61 217.351 56.298C217.063 55.974 216.751 55.812 216.415 55.812H213.805V59.304ZM226.879 66.18C225.811 66.18 224.899 65.958 224.143 65.514C223.387 65.07 222.805 64.482 222.397 63.75C222.001 63.018 221.803 62.226 221.803 61.374C221.803 60.462 222.001 59.628 222.397 58.872C222.793 58.116 223.369 57.51 224.125 57.054C224.881 56.598 225.799 56.37 226.879 56.37C227.947 56.37 228.859 56.598 229.615 57.054C230.371 57.51 230.941 58.11 231.325 58.854C231.721 59.598 231.919 60.396 231.919 61.248C231.919 61.596 231.895 61.902 231.847 62.166H224.863C224.911 62.802 225.139 63.288 225.547 63.624C225.967 63.948 226.441 64.11 226.969 64.11C227.389 64.11 227.791 64.008 228.175 63.804C228.559 63.6 228.823 63.324 228.967 62.976L231.415 63.66C231.043 64.404 230.461 65.01 229.669 65.478C228.889 65.946 227.959 66.18 226.879 66.18ZM224.791 60.402H228.895C228.835 59.802 228.613 59.328 228.229 58.98C227.857 58.62 227.395 58.44 226.843 58.44C226.291 58.44 225.823 58.62 225.439 58.98C225.067 59.34 224.851 59.814 224.791 60.402ZM239.578 66L237.112 62.22L236.104 63.246V66H233.224V52.86H236.104V60.456L239.308 56.55H242.35L238.948 60.618L242.638 66H239.578ZM242.914 64.272L247.72 58.548H243.166V56.55H250.744V58.278L245.992 64.002H250.87V66H242.914V64.272ZM251.773 63.174C251.773 62.55 251.947 62.004 252.295 61.536C252.643 61.068 253.123 60.702 253.735 60.438C254.347 60.162 255.049 60.024 255.841 60.024C256.225 60.024 256.603 60.06 256.975 60.132C257.347 60.192 257.671 60.282 257.947 60.402V59.988C257.947 58.92 257.317 58.386 256.057 58.386C255.529 58.386 255.031 58.476 254.563 58.656C254.107 58.836 253.621 59.094 253.105 59.43L252.241 57.594C253.489 56.778 254.857 56.37 256.345 56.37C257.761 56.37 258.859 56.712 259.639 57.396C260.431 58.068 260.827 59.046 260.827 60.33V62.796C260.827 63.084 260.869 63.288 260.953 63.408C261.049 63.528 261.211 63.594 261.439 63.606V66C261.187 66.048 260.959 66.084 260.755 66.108C260.551 66.132 260.371 66.144 260.215 66.144C259.675 66.144 259.261 66.036 258.973 65.82C258.697 65.604 258.523 65.31 258.451 64.938L258.397 64.524C257.977 65.064 257.473 65.478 256.885 65.766C256.297 66.042 255.691 66.18 255.067 66.18C254.443 66.18 253.879 66.048 253.375 65.784C252.883 65.52 252.493 65.166 252.205 64.722C251.917 64.266 251.773 63.75 251.773 63.174ZM257.497 63.534C257.797 63.294 257.947 63.048 257.947 62.796V61.95C257.695 61.854 257.419 61.782 257.119 61.734C256.831 61.674 256.567 61.644 256.327 61.644C255.787 61.644 255.343 61.764 254.995 62.004C254.659 62.244 254.491 62.55 254.491 62.922C254.491 63.246 254.617 63.528 254.869 63.768C255.133 63.996 255.481 64.11 255.913 64.11C256.201 64.11 256.489 64.056 256.777 63.948C257.065 63.84 257.305 63.702 257.497 63.534Z" fill="#618D2F"/>
<path d="M138.402 102L135.144 97.428L133.362 99.102V102H131.778V88.86H133.362V97.446L138.222 92.622H139.932L136.188 96.51L140.112 102H138.402ZM149.635 102H148.051V96.744C148.051 95.748 147.895 95.022 147.583 94.566C147.283 94.098 146.821 93.864 146.197 93.864C145.765 93.864 145.333 93.972 144.901 94.188C144.481 94.404 144.103 94.698 143.767 95.07C143.443 95.43 143.209 95.85 143.065 96.33V102H141.481V92.604H142.921V94.62C143.293 93.96 143.827 93.432 144.523 93.036C145.231 92.64 145.999 92.442 146.827 92.442C147.559 92.442 148.123 92.616 148.519 92.964C148.927 93.3 149.215 93.768 149.383 94.368C149.551 94.956 149.635 95.628 149.635 96.384V102ZM151.36 100.974L157.282 93.756H151.522V92.604H159.064V93.63L153.178 100.848H159.082V102H151.36V100.974ZM169.129 102H167.545V96.744C167.545 95.748 167.389 95.022 167.077 94.566C166.777 94.098 166.315 93.864 165.691 93.864C165.259 93.864 164.827 93.972 164.395 94.188C163.975 94.404 163.597 94.698 163.261 95.07C162.937 95.43 162.703 95.85 162.559 96.33V102H160.975V92.604H162.415V94.62C162.787 93.96 163.321 93.432 164.017 93.036C164.725 92.64 165.493 92.442 166.321 92.442C167.053 92.442 167.617 92.616 168.013 92.964C168.421 93.3 168.709 93.768 168.877 94.368C169.045 94.956 169.129 95.628 169.129 96.384V102ZM176.56 93.99C175.768 94.002 175.066 94.206 174.454 94.602C173.854 94.986 173.428 95.52 173.176 96.204V102H171.592V92.604H173.068V94.782C173.392 94.134 173.818 93.612 174.346 93.216C174.886 92.808 175.45 92.58 176.038 92.532C176.158 92.532 176.26 92.532 176.344 92.532C176.428 92.532 176.5 92.538 176.56 92.55V93.99ZM184.756 102L181.498 97.428L179.716 99.102V102H178.132V88.86H179.716V97.446L184.576 92.622H186.286L182.542 96.51L186.466 102H184.756ZM187.097 100.974L193.019 93.756H187.259V92.604H194.801V93.63L188.915 100.848H194.819V102H187.097V100.974Z" fill="#595959"/>
<path d="M131.488 83V77.32H133.048V81.64H135.624V83H131.488ZM136.168 83V77.32H137.728V83H136.168ZM140.267 80.208V83H138.707V77.32H139.923L142.203 80.208V77.32H143.763V83H142.523L140.267 80.208ZM148.786 81.64V83H144.738V77.32H148.714V78.68H146.298V79.48H148.362V80.744H146.298V81.64H148.786ZM151.308 83V77.32H152.868V83H151.308ZM153.847 83V77.32H156.031C156.661 77.32 157.186 77.448 157.607 77.704C158.034 77.9547 158.354 78.296 158.567 78.728C158.786 79.1547 158.895 79.6293 158.895 80.152C158.895 80.728 158.775 81.2293 158.535 81.656C158.301 82.0827 157.967 82.4133 157.535 82.648C157.109 82.8827 156.607 83 156.031 83H153.847ZM157.311 80.152C157.311 79.7093 157.197 79.3547 156.967 79.088C156.743 78.816 156.431 78.68 156.031 78.68H155.407V81.64H156.031C156.442 81.64 156.757 81.4987 156.975 81.216C157.199 80.9333 157.311 80.5787 157.311 80.152Z" fill="#595959"/>
</svg>
