<svg width="321" height="199" viewBox="0 0 321 199" fill="none" xmlns="http://www.w3.org/2000/svg">
<path d="M131.224 66V53.22H134.176V66H131.224ZM151.326 66H148.446V60.69C148.446 60.078 148.332 59.628 148.104 59.34C147.876 59.052 147.582 58.908 147.222 58.908C146.838 58.908 146.46 59.064 146.088 59.376C145.716 59.688 145.452 60.09 145.296 60.582V66H142.416V60.69C142.416 60.066 142.302 59.616 142.074 59.34C141.846 59.052 141.552 58.908 141.192 58.908C140.808 58.908 140.43 59.064 140.058 59.376C139.698 59.688 139.434 60.09 139.266 60.582V66H136.386V56.55H138.978V58.134C139.326 57.57 139.8 57.138 140.4 56.838C141 56.526 141.69 56.37 142.47 56.37C143.25 56.37 143.85 56.556 144.27 56.928C144.69 57.288 144.96 57.714 145.08 58.206C145.44 57.63 145.914 57.18 146.502 56.856C147.102 56.532 147.774 56.37 148.518 56.37C149.118 56.37 149.598 56.484 149.958 56.712C150.33 56.928 150.612 57.216 150.804 57.576C151.008 57.936 151.146 58.326 151.218 58.746C151.29 59.154 151.326 59.556 151.326 59.952V66ZM152.615 63.174C152.615 62.55 152.789 62.004 153.137 61.536C153.485 61.068 153.965 60.702 154.577 60.438C155.189 60.162 155.891 60.024 156.683 60.024C157.067 60.024 157.445 60.06 157.817 60.132C158.189 60.192 158.513 60.282 158.789 60.402V59.988C158.789 58.92 158.159 58.386 156.899 58.386C156.371 58.386 155.873 58.476 155.405 58.656C154.949 58.836 154.463 59.094 153.947 59.43L153.083 57.594C154.331 56.778 155.699 56.37 157.187 56.37C158.603 56.37 159.701 56.712 160.481 57.396C161.273 58.068 161.669 59.046 161.669 60.33V62.796C161.669 63.084 161.711 63.288 161.795 63.408C161.891 63.528 162.053 63.594 162.281 63.606V66C162.029 66.048 161.801 66.084 161.597 66.108C161.393 66.132 161.213 66.144 161.057 66.144C160.517 66.144 160.103 66.036 159.815 65.82C159.539 65.604 159.365 65.31 159.293 64.938L159.239 64.524C158.819 65.064 158.315 65.478 157.727 65.766C157.139 66.042 156.533 66.18 155.909 66.18C155.285 66.18 154.721 66.048 154.217 65.784C153.725 65.52 153.335 65.166 153.047 64.722C152.759 64.266 152.615 63.75 152.615 63.174ZM158.339 63.534C158.639 63.294 158.789 63.048 158.789 62.796V61.95C158.537 61.854 158.261 61.782 157.961 61.734C157.673 61.674 157.409 61.644 157.169 61.644C156.629 61.644 156.185 61.764 155.837 62.004C155.501 62.244 155.333 62.55 155.333 62.922C155.333 63.246 155.459 63.528 155.711 63.768C155.975 63.996 156.323 64.11 156.755 64.11C157.043 64.11 157.331 64.056 157.619 63.948C157.907 63.84 158.147 63.702 158.339 63.534Z" fill="#618D2F"/>
<path d="M139.932 102H138.348V96.744C138.348 95.748 138.192 95.022 137.88 94.566C137.58 94.098 137.118 93.864 136.494 93.864C136.062 93.864 135.63 93.972 135.198 94.188C134.778 94.404 134.4 94.698 134.064 95.07C133.74 95.43 133.506 95.85 133.362 96.33V102H131.778V92.604H133.218V94.62C133.59 93.96 134.124 93.432 134.82 93.036C135.528 92.64 136.296 92.442 137.124 92.442C137.856 92.442 138.42 92.616 138.816 92.964C139.224 93.3 139.512 93.768 139.68 94.368C139.848 94.956 139.932 95.628 139.932 96.384V102ZM142.305 98.238V92.604H143.889V97.932C143.889 99.852 144.555 100.812 145.887 100.812C146.535 100.812 147.141 100.608 147.705 100.2C148.281 99.78 148.707 99.21 148.983 98.49V92.604H150.567V100.2C150.567 100.572 150.735 100.764 151.071 100.776V102C150.891 102.024 150.747 102.036 150.639 102.036C150.543 102.048 150.447 102.054 150.351 102.054C150.051 102.054 149.793 101.964 149.577 101.784C149.361 101.592 149.247 101.358 149.235 101.082L149.199 99.984C148.791 100.68 148.239 101.22 147.543 101.604C146.859 101.988 146.109 102.18 145.293 102.18C143.301 102.18 142.305 100.866 142.305 98.238ZM158.174 93.99C157.382 94.002 156.68 94.206 156.068 94.602C155.468 94.986 155.042 95.52 154.79 96.204V102H153.206V92.604H154.682V94.782C155.006 94.134 155.432 93.612 155.96 93.216C156.5 92.808 157.064 92.58 157.652 92.532C157.772 92.532 157.874 92.532 157.958 92.532C158.042 92.532 158.114 92.538 158.174 92.55V93.99ZM159.007 99.282C159.007 98.682 159.175 98.166 159.511 97.734C159.859 97.29 160.333 96.948 160.933 96.708C161.533 96.468 162.229 96.348 163.021 96.348C163.441 96.348 163.885 96.384 164.353 96.456C164.821 96.516 165.235 96.612 165.595 96.744V96.06C165.595 95.34 165.379 94.776 164.947 94.368C164.515 93.948 163.903 93.738 163.111 93.738C162.595 93.738 162.097 93.834 161.617 94.026C161.149 94.206 160.651 94.47 160.123 94.818L159.547 93.702C160.159 93.282 160.771 92.97 161.383 92.766C161.995 92.55 162.631 92.442 163.291 92.442C164.491 92.442 165.439 92.778 166.135 93.45C166.831 94.11 167.179 95.034 167.179 96.222V100.2C167.179 100.572 167.347 100.764 167.683 100.776V102C167.527 102.024 167.389 102.042 167.269 102.054C167.161 102.066 167.071 102.072 166.999 102.072C166.627 102.072 166.345 101.97 166.153 101.766C165.973 101.562 165.871 101.346 165.847 101.118L165.811 100.524C165.403 101.052 164.869 101.46 164.209 101.748C163.549 102.036 162.895 102.18 162.247 102.18C161.623 102.18 161.065 102.054 160.573 101.802C160.081 101.538 159.697 101.19 159.421 100.758C159.145 100.314 159.007 99.822 159.007 99.282ZM165.127 99.948C165.271 99.78 165.385 99.612 165.469 99.444C165.553 99.264 165.595 99.114 165.595 98.994V97.824C164.827 97.524 164.035 97.374 163.219 97.374C162.415 97.374 161.761 97.536 161.257 97.86C160.765 98.172 160.519 98.604 160.519 99.156C160.519 99.456 160.597 99.75 160.753 100.038C160.921 100.314 161.161 100.542 161.473 100.722C161.797 100.902 162.193 100.992 162.661 100.992C163.153 100.992 163.621 100.896 164.065 100.704C164.509 100.5 164.863 100.248 165.127 99.948ZM176.336 102L173.078 97.428L171.296 99.102V102H169.712V88.86H171.296V97.446L176.156 92.622H177.866L174.122 96.51L178.046 102H176.336ZM187.569 102H185.985V96.744C185.985 95.784 185.811 95.064 185.463 94.584C185.127 94.104 184.641 93.864 184.005 93.864C183.597 93.864 183.183 93.972 182.763 94.188C182.355 94.404 181.995 94.698 181.683 95.07C181.371 95.43 181.143 95.85 180.999 96.33V102H179.415V88.86H180.999V94.62C181.371 93.948 181.875 93.42 182.511 93.036C183.159 92.64 183.855 92.442 184.599 92.442C185.343 92.442 185.931 92.616 186.363 92.964C186.795 93.312 187.101 93.786 187.281 94.386C187.473 94.974 187.569 95.64 187.569 96.384V102ZM204.198 102H202.614V96.744C202.614 95.76 202.452 95.034 202.128 94.566C201.816 94.098 201.348 93.864 200.724 93.864C200.088 93.864 199.512 94.098 198.996 94.566C198.48 95.022 198.114 95.616 197.898 96.348V102H196.314V96.744C196.314 95.748 196.158 95.022 195.846 94.566C195.534 94.098 195.066 93.864 194.442 93.864C193.818 93.864 193.242 94.092 192.714 94.548C192.198 94.992 191.832 95.586 191.616 96.33V102H190.032V92.604H191.472V94.62C191.856 93.924 192.354 93.39 192.966 93.018C193.578 92.634 194.268 92.442 195.036 92.442C195.816 92.442 196.44 92.658 196.908 93.09C197.376 93.51 197.664 94.056 197.772 94.728C198.612 93.204 199.806 92.442 201.354 92.442C202.074 92.442 202.638 92.616 203.046 92.964C203.466 93.3 203.76 93.768 203.928 94.368C204.108 94.956 204.198 95.628 204.198 96.384V102ZM205.923 99.282C205.923 98.682 206.091 98.166 206.427 97.734C206.775 97.29 207.249 96.948 207.849 96.708C208.449 96.468 209.145 96.348 209.937 96.348C210.357 96.348 210.801 96.384 211.269 96.456C211.737 96.516 212.151 96.612 212.511 96.744V96.06C212.511 95.34 212.295 94.776 211.863 94.368C211.431 93.948 210.819 93.738 210.027 93.738C209.511 93.738 209.013 93.834 208.533 94.026C208.065 94.206 207.567 94.47 207.039 94.818L206.463 93.702C207.075 93.282 207.687 92.97 208.299 92.766C208.911 92.55 209.547 92.442 210.207 92.442C211.407 92.442 212.355 92.778 213.051 93.45C213.747 94.11 214.095 95.034 214.095 96.222V100.2C214.095 100.572 214.263 100.764 214.599 100.776V102C214.443 102.024 214.305 102.042 214.185 102.054C214.077 102.066 213.987 102.072 213.915 102.072C213.543 102.072 213.261 101.97 213.069 101.766C212.889 101.562 212.787 101.346 212.763 101.118L212.727 100.524C212.319 101.052 211.785 101.46 211.125 101.748C210.465 102.036 209.811 102.18 209.163 102.18C208.539 102.18 207.981 102.054 207.489 101.802C206.997 101.538 206.613 101.19 206.337 100.758C206.061 100.314 205.923 99.822 205.923 99.282ZM212.043 99.948C212.187 99.78 212.301 99.612 212.385 99.444C212.469 99.264 212.511 99.114 212.511 98.994V97.824C211.743 97.524 210.951 97.374 210.135 97.374C209.331 97.374 208.677 97.536 208.173 97.86C207.681 98.172 207.435 98.604 207.435 99.156C207.435 99.456 207.513 99.75 207.669 100.038C207.837 100.314 208.077 100.542 208.389 100.722C208.713 100.902 209.109 100.992 209.577 100.992C210.069 100.992 210.537 100.896 210.981 100.704C211.425 100.5 211.779 100.248 212.043 99.948ZM216.016 97.32C216.016 96.432 216.196 95.622 216.556 94.89C216.928 94.146 217.432 93.552 218.068 93.108C218.716 92.664 219.454 92.442 220.282 92.442C221.038 92.442 221.716 92.64 222.316 93.036C222.916 93.432 223.384 93.912 223.72 94.476V88.86H225.304V100.2C225.304 100.572 225.472 100.764 225.808 100.776V102C225.508 102.048 225.274 102.072 225.106 102.072C224.794 102.072 224.518 101.964 224.278 101.748C224.05 101.532 223.936 101.292 223.936 101.028V100.236C223.564 100.836 223.066 101.31 222.442 101.658C221.818 102.006 221.17 102.18 220.498 102.18C219.634 102.18 218.86 101.958 218.176 101.514C217.504 101.058 216.976 100.464 216.592 99.732C216.208 98.988 216.016 98.184 216.016 97.32ZM223.72 98.706V96.006C223.576 95.598 223.342 95.232 223.018 94.908C222.694 94.572 222.328 94.308 221.92 94.116C221.524 93.912 221.128 93.81 220.732 93.81C220.12 93.81 219.58 93.978 219.112 94.314C218.656 94.65 218.296 95.088 218.032 95.628C217.78 96.168 217.654 96.738 217.654 97.338C217.654 97.962 217.792 98.538 218.068 99.066C218.356 99.594 218.746 100.02 219.238 100.344C219.73 100.656 220.276 100.812 220.876 100.812C221.26 100.812 221.656 100.722 222.064 100.542C222.472 100.35 222.832 100.092 223.144 99.768C223.456 99.444 223.648 99.09 223.72 98.706ZM228.38 104.556C228.536 104.568 228.692 104.58 228.848 104.592C229.004 104.616 229.124 104.628 229.208 104.628C229.4 104.628 229.568 104.562 229.712 104.43C229.856 104.298 230.012 104.04 230.18 103.656C230.36 103.284 230.588 102.732 230.864 102L226.886 92.604H228.56L231.728 100.398L234.59 92.604H236.156L231.584 104.466C231.428 104.886 231.146 105.252 230.738 105.564C230.342 105.888 229.808 106.05 229.136 106.05C229.028 106.05 228.914 106.044 228.794 106.032C228.686 106.02 228.548 105.996 228.38 105.96V104.556ZM236.772 99.282C236.772 98.682 236.94 98.166 237.276 97.734C237.624 97.29 238.098 96.948 238.698 96.708C239.298 96.468 239.994 96.348 240.786 96.348C241.206 96.348 241.65 96.384 242.118 96.456C242.586 96.516 243 96.612 243.36 96.744V96.06C243.36 95.34 243.144 94.776 242.712 94.368C242.28 93.948 241.668 93.738 240.876 93.738C240.36 93.738 239.862 93.834 239.382 94.026C238.914 94.206 238.416 94.47 237.888 94.818L237.312 93.702C237.924 93.282 238.536 92.97 239.148 92.766C239.76 92.55 240.396 92.442 241.056 92.442C242.256 92.442 243.204 92.778 243.9 93.45C244.596 94.11 244.944 95.034 244.944 96.222V100.2C244.944 100.572 245.112 100.764 245.448 100.776V102C245.292 102.024 245.154 102.042 245.034 102.054C244.926 102.066 244.836 102.072 244.764 102.072C244.392 102.072 244.11 101.97 243.918 101.766C243.738 101.562 243.636 101.346 243.612 101.118L243.576 100.524C243.168 101.052 242.634 101.46 241.974 101.748C241.314 102.036 240.66 102.18 240.012 102.18C239.388 102.18 238.83 102.054 238.338 101.802C237.846 101.538 237.462 101.19 237.186 100.758C236.91 100.314 236.772 99.822 236.772 99.282ZM242.892 99.948C243.036 99.78 243.15 99.612 243.234 99.444C243.318 99.264 243.36 99.114 243.36 98.994V97.824C242.592 97.524 241.8 97.374 240.984 97.374C240.18 97.374 239.526 97.536 239.022 97.86C238.53 98.172 238.284 98.604 238.284 99.156C238.284 99.456 238.362 99.75 238.518 100.038C238.686 100.314 238.926 100.542 239.238 100.722C239.562 100.902 239.958 100.992 240.426 100.992C240.918 100.992 241.386 100.896 241.83 100.704C242.274 100.5 242.628 100.248 242.892 99.948ZM249.878 102L246.188 92.604H247.844L250.796 100.488L253.748 92.604H255.296L251.606 102H249.878ZM256.882 90.84V88.86H258.466V90.84H256.882ZM256.882 102V92.604H258.466V102H256.882ZM260.886 103.44V102H267.672V103.44H260.886ZM270.083 90.84V88.86H271.667V90.84H270.083ZM270.083 102V92.604H271.667V102H270.083ZM288.397 102H286.813V96.744C286.813 95.76 286.651 95.034 286.327 94.566C286.015 94.098 285.547 93.864 284.923 93.864C284.287 93.864 283.711 94.098 283.195 94.566C282.679 95.022 282.313 95.616 282.097 96.348V102H280.513V96.744C280.513 95.748 280.357 95.022 280.045 94.566C279.733 94.098 279.265 93.864 278.641 93.864C278.017 93.864 277.441 94.092 276.913 94.548C276.397 94.992 276.031 95.586 275.815 96.33V102H274.231V92.604H275.671V94.62C276.055 93.924 276.553 93.39 277.165 93.018C277.777 92.634 278.467 92.442 279.235 92.442C280.015 92.442 280.639 92.658 281.107 93.09C281.575 93.51 281.863 94.056 281.971 94.728C282.811 93.204 284.005 92.442 285.553 92.442C286.273 92.442 286.837 92.616 287.245 92.964C287.665 93.3 287.959 93.768 288.127 94.368C288.307 94.956 288.397 95.628 288.397 96.384V102ZM290.122 99.282C290.122 98.682 290.29 98.166 290.626 97.734C290.974 97.29 291.448 96.948 292.048 96.708C292.648 96.468 293.344 96.348 294.136 96.348C294.556 96.348 295 96.384 295.468 96.456C295.936 96.516 296.35 96.612 296.71 96.744V96.06C296.71 95.34 296.494 94.776 296.062 94.368C295.63 93.948 295.018 93.738 294.226 93.738C293.71 93.738 293.212 93.834 292.732 94.026C292.264 94.206 291.766 94.47 291.238 94.818L290.662 93.702C291.274 93.282 291.886 92.97 292.498 92.766C293.11 92.55 293.746 92.442 294.406 92.442C295.606 92.442 296.554 92.778 297.25 93.45C297.946 94.11 298.294 95.034 298.294 96.222V100.2C298.294 100.572 298.462 100.764 298.798 100.776V102C298.642 102.024 298.504 102.042 298.384 102.054C298.276 102.066 298.186 102.072 298.114 102.072C297.742 102.072 297.46 101.97 297.268 101.766C297.088 101.562 296.986 101.346 296.962 101.118L296.926 100.524C296.518 101.052 295.984 101.46 295.324 101.748C294.664 102.036 294.01 102.18 293.362 102.18C292.738 102.18 292.18 102.054 291.688 101.802C291.196 101.538 290.812 101.19 290.536 100.758C290.26 100.314 290.122 99.822 290.122 99.282ZM296.242 99.948C296.386 99.78 296.5 99.612 296.584 99.444C296.668 99.264 296.71 99.114 296.71 98.994V97.824C295.942 97.524 295.15 97.374 294.334 97.374C293.53 97.374 292.876 97.536 292.372 97.86C291.88 98.172 291.634 98.604 291.634 99.156C291.634 99.456 291.712 99.75 291.868 100.038C292.036 100.314 292.276 100.542 292.588 100.722C292.912 100.902 293.308 100.992 293.776 100.992C294.268 100.992 294.736 100.896 295.18 100.704C295.624 100.5 295.978 100.248 296.242 99.948Z" fill="#595959"/>
<path d="M131.488 83V77.32H133.048V81.64H135.624V83H131.488ZM136.168 83V77.32H137.728V83H136.168ZM140.267 80.208V83H138.707V77.32H139.923L142.203 80.208V77.32H143.763V83H142.523L140.267 80.208ZM148.786 81.64V83H144.738V77.32H148.714V78.68H146.298V79.48H148.362V80.744H146.298V81.64H148.786ZM151.308 83V77.32H152.868V83H151.308ZM153.847 83V77.32H156.031C156.661 77.32 157.186 77.448 157.607 77.704C158.034 77.9547 158.354 78.296 158.567 78.728C158.786 79.1547 158.895 79.6293 158.895 80.152C158.895 80.728 158.775 81.2293 158.535 81.656C158.301 82.0827 157.967 82.4133 157.535 82.648C157.109 82.8827 156.607 83 156.031 83H153.847ZM157.311 80.152C157.311 79.7093 157.197 79.3547 156.967 79.088C156.743 78.816 156.431 78.68 156.031 78.68H155.407V81.64H156.031C156.442 81.64 156.757 81.4987 156.975 81.216C157.199 80.9333 157.311 80.5787 157.311 80.152Z" fill="#595959"/>
</svg>
