<svg width="321" height="199" viewBox="0 0 321 199" fill="none" xmlns="http://www.w3.org/2000/svg">
<path d="M131.224 66V53.22H136.984C137.584 53.22 138.136 53.346 138.64 53.598C139.156 53.838 139.6 54.168 139.972 54.588C140.344 54.996 140.632 55.458 140.836 55.974C141.052 56.49 141.16 57.012 141.16 57.54C141.16 58.332 140.968 59.064 140.584 59.736C140.212 60.396 139.708 60.9 139.072 61.248L141.88 66H138.622L136.174 61.878H134.176V66H131.224ZM134.176 59.304H136.876C137.224 59.304 137.524 59.142 137.776 58.818C138.028 58.482 138.154 58.056 138.154 57.54C138.154 57.024 138.01 56.61 137.722 56.298C137.434 55.974 137.122 55.812 136.786 55.812H134.176V59.304ZM142.279 63.174C142.279 62.55 142.453 62.004 142.801 61.536C143.149 61.068 143.629 60.702 144.241 60.438C144.853 60.162 145.555 60.024 146.347 60.024C146.731 60.024 147.109 60.06 147.481 60.132C147.853 60.192 148.177 60.282 148.453 60.402V59.988C148.453 58.92 147.823 58.386 146.563 58.386C146.035 58.386 145.537 58.476 145.069 58.656C144.613 58.836 144.127 59.094 143.611 59.43L142.747 57.594C143.995 56.778 145.363 56.37 146.851 56.37C148.267 56.37 149.365 56.712 150.145 57.396C150.937 58.068 151.333 59.046 151.333 60.33V62.796C151.333 63.084 151.375 63.288 151.459 63.408C151.555 63.528 151.717 63.594 151.945 63.606V66C151.693 66.048 151.465 66.084 151.261 66.108C151.057 66.132 150.877 66.144 150.721 66.144C150.181 66.144 149.767 66.036 149.479 65.82C149.203 65.604 149.029 65.31 148.957 64.938L148.903 64.524C148.483 65.064 147.979 65.478 147.391 65.766C146.803 66.042 146.197 66.18 145.573 66.18C144.949 66.18 144.385 66.048 143.881 65.784C143.389 65.52 142.999 65.166 142.711 64.722C142.423 64.266 142.279 63.75 142.279 63.174ZM148.003 63.534C148.303 63.294 148.453 63.048 148.453 62.796V61.95C148.201 61.854 147.925 61.782 147.625 61.734C147.337 61.674 147.073 61.644 146.833 61.644C146.293 61.644 145.849 61.764 145.501 62.004C145.165 62.244 144.997 62.55 144.997 62.922C144.997 63.246 145.123 63.528 145.375 63.768C145.639 63.996 145.987 64.11 146.419 64.11C146.707 64.11 146.995 64.056 147.283 63.948C147.571 63.84 147.811 63.702 148.003 63.534ZM153.42 55.47V52.86H156.3V55.47H153.42ZM153.42 66V56.55H156.3V66H153.42ZM157.731 61.266C157.731 60.354 157.905 59.532 158.253 58.8C158.613 58.056 159.105 57.468 159.729 57.036C160.365 56.592 161.091 56.37 161.907 56.37C162.567 56.37 163.161 56.532 163.689 56.856C164.229 57.168 164.643 57.582 164.931 58.098V52.86H167.811V62.796C167.811 63.084 167.853 63.288 167.937 63.408C168.033 63.528 168.195 63.594 168.423 63.606V66C167.919 66.096 167.511 66.144 167.199 66.144C166.707 66.144 166.305 66.036 165.993 65.82C165.681 65.604 165.495 65.304 165.435 64.92L165.381 64.434C165.045 65.022 164.589 65.46 164.013 65.748C163.437 66.036 162.831 66.18 162.195 66.18C161.331 66.18 160.563 65.97 159.891 65.55C159.219 65.118 158.691 64.53 158.307 63.786C157.923 63.042 157.731 62.202 157.731 61.266ZM164.949 62.436V60.456C164.769 59.976 164.475 59.586 164.067 59.286C163.671 58.974 163.257 58.818 162.825 58.818C162.417 58.818 162.051 58.932 161.727 59.16C161.403 59.388 161.151 59.694 160.971 60.078C160.791 60.462 160.701 60.876 160.701 61.32C160.701 62.016 160.911 62.598 161.331 63.066C161.763 63.522 162.309 63.75 162.969 63.75C163.365 63.75 163.743 63.636 164.103 63.408C164.475 63.168 164.757 62.844 164.949 62.436ZM174.484 66V53.22H180.244C180.844 53.22 181.396 53.346 181.9 53.598C182.416 53.838 182.86 54.168 183.232 54.588C183.604 54.996 183.892 55.458 184.096 55.974C184.312 56.49 184.42 57.012 184.42 57.54C184.42 58.332 184.228 59.064 183.844 59.736C183.472 60.396 182.968 60.9 182.332 61.248L185.14 66H181.882L179.434 61.878H177.436V66H174.484ZM177.436 59.304H180.136C180.484 59.304 180.784 59.142 181.036 58.818C181.288 58.482 181.414 58.056 181.414 57.54C181.414 57.024 181.27 56.61 180.982 56.298C180.694 55.974 180.382 55.812 180.046 55.812H177.436V59.304ZM185.539 63.174C185.539 62.55 185.713 62.004 186.061 61.536C186.409 61.068 186.889 60.702 187.501 60.438C188.113 60.162 188.815 60.024 189.607 60.024C189.991 60.024 190.369 60.06 190.741 60.132C191.113 60.192 191.437 60.282 191.713 60.402V59.988C191.713 58.92 191.083 58.386 189.823 58.386C189.295 58.386 188.797 58.476 188.329 58.656C187.873 58.836 187.387 59.094 186.871 59.43L186.007 57.594C187.255 56.778 188.623 56.37 190.111 56.37C191.527 56.37 192.625 56.712 193.405 57.396C194.197 58.068 194.593 59.046 194.593 60.33V62.796C194.593 63.084 194.635 63.288 194.719 63.408C194.815 63.528 194.977 63.594 195.205 63.606V66C194.953 66.048 194.725 66.084 194.521 66.108C194.317 66.132 194.137 66.144 193.981 66.144C193.441 66.144 193.027 66.036 192.739 65.82C192.463 65.604 192.289 65.31 192.217 64.938L192.163 64.524C191.743 65.064 191.239 65.478 190.651 65.766C190.063 66.042 189.457 66.18 188.833 66.18C188.209 66.18 187.645 66.048 187.141 65.784C186.649 65.52 186.259 65.166 185.971 64.722C185.683 64.266 185.539 63.75 185.539 63.174ZM191.263 63.534C191.563 63.294 191.713 63.048 191.713 62.796V61.95C191.461 61.854 191.185 61.782 190.885 61.734C190.597 61.674 190.333 61.644 190.093 61.644C189.553 61.644 189.109 61.764 188.761 62.004C188.425 62.244 188.257 62.55 188.257 62.922C188.257 63.246 188.383 63.528 188.635 63.768C188.899 63.996 189.247 64.11 189.679 64.11C189.967 64.11 190.255 64.056 190.543 63.948C190.831 63.84 191.071 63.702 191.263 63.534ZM197.274 59.502H196.068V57.324H197.274V56.55C197.274 55.806 197.442 55.146 197.778 54.57C198.114 53.982 198.582 53.52 199.182 53.184C199.794 52.848 200.514 52.68 201.342 52.68C202.026 52.68 202.668 52.794 203.268 53.022C203.88 53.25 204.498 53.568 205.122 53.976L204.006 56.154C203.646 55.83 203.244 55.578 202.8 55.398C202.368 55.206 201.942 55.11 201.522 55.11C201.078 55.11 200.736 55.236 200.496 55.488C200.268 55.74 200.154 56.058 200.154 56.442V57.324H205.374V66H202.494V59.502H200.154V66H197.274V59.502ZM207.944 66V59.502H206.738V57.324H207.944V56.55C207.944 55.374 208.244 54.438 208.844 53.742C209.444 53.034 210.242 52.68 211.238 52.68C212.03 52.68 212.852 52.866 213.704 53.238L213.182 55.398C212.99 55.314 212.774 55.248 212.534 55.2C212.294 55.14 212.078 55.11 211.886 55.11C211.178 55.11 210.824 55.554 210.824 56.442V57.324H213.02V59.502H210.824V66H207.944Z" fill="#618D2F"/>
<path d="M136.746 93.99C135.954 94.002 135.252 94.206 134.64 94.602C134.04 94.986 133.614 95.52 133.362 96.204V102H131.778V92.604H133.254V94.782C133.578 94.134 134.004 93.612 134.532 93.216C135.072 92.808 135.636 92.58 136.224 92.532C136.344 92.532 136.446 92.532 136.53 92.532C136.614 92.532 136.686 92.538 136.746 92.55V93.99ZM137.579 99.282C137.579 98.682 137.747 98.166 138.083 97.734C138.431 97.29 138.905 96.948 139.505 96.708C140.105 96.468 140.801 96.348 141.593 96.348C142.013 96.348 142.457 96.384 142.925 96.456C143.393 96.516 143.807 96.612 144.167 96.744V96.06C144.167 95.34 143.951 94.776 143.519 94.368C143.087 93.948 142.475 93.738 141.683 93.738C141.167 93.738 140.669 93.834 140.189 94.026C139.721 94.206 139.223 94.47 138.695 94.818L138.119 93.702C138.731 93.282 139.343 92.97 139.955 92.766C140.567 92.55 141.203 92.442 141.863 92.442C143.063 92.442 144.011 92.778 144.707 93.45C145.403 94.11 145.751 95.034 145.751 96.222V100.2C145.751 100.572 145.919 100.764 146.255 100.776V102C146.099 102.024 145.961 102.042 145.841 102.054C145.733 102.066 145.643 102.072 145.571 102.072C145.199 102.072 144.917 101.97 144.725 101.766C144.545 101.562 144.443 101.346 144.419 101.118L144.383 100.524C143.975 101.052 143.441 101.46 142.781 101.748C142.121 102.036 141.467 102.18 140.819 102.18C140.195 102.18 139.637 102.054 139.145 101.802C138.653 101.538 138.269 101.19 137.993 100.758C137.717 100.314 137.579 99.822 137.579 99.282ZM143.699 99.948C143.843 99.78 143.957 99.612 144.041 99.444C144.125 99.264 144.167 99.114 144.167 98.994V97.824C143.399 97.524 142.607 97.374 141.791 97.374C140.987 97.374 140.333 97.536 139.829 97.86C139.337 98.172 139.091 98.604 139.091 99.156C139.091 99.456 139.169 99.75 139.325 100.038C139.493 100.314 139.733 100.542 140.045 100.722C140.369 100.902 140.765 100.992 141.233 100.992C141.725 100.992 142.193 100.896 142.637 100.704C143.081 100.5 143.435 100.248 143.699 99.948ZM148.284 90.84V88.86H149.868V90.84H148.284ZM148.284 102V92.604H149.868V102H148.284ZM151.82 97.32C151.82 96.432 152 95.622 152.36 94.89C152.732 94.146 153.236 93.552 153.872 93.108C154.52 92.664 155.258 92.442 156.086 92.442C156.842 92.442 157.52 92.64 158.12 93.036C158.72 93.432 159.188 93.912 159.524 94.476V88.86H161.108V100.2C161.108 100.572 161.276 100.764 161.612 100.776V102C161.312 102.048 161.078 102.072 160.91 102.072C160.598 102.072 160.322 101.964 160.082 101.748C159.854 101.532 159.74 101.292 159.74 101.028V100.236C159.368 100.836 158.87 101.31 158.246 101.658C157.622 102.006 156.974 102.18 156.302 102.18C155.438 102.18 154.664 101.958 153.98 101.514C153.308 101.058 152.78 100.464 152.396 99.732C152.012 98.988 151.82 98.184 151.82 97.32ZM159.524 98.706V96.006C159.38 95.598 159.146 95.232 158.822 94.908C158.498 94.572 158.132 94.308 157.724 94.116C157.328 93.912 156.932 93.81 156.536 93.81C155.924 93.81 155.384 93.978 154.916 94.314C154.46 94.65 154.1 95.088 153.836 95.628C153.584 96.168 153.458 96.738 153.458 97.338C153.458 97.962 153.596 98.538 153.872 99.066C154.16 99.594 154.55 100.02 155.042 100.344C155.534 100.656 156.08 100.812 156.68 100.812C157.064 100.812 157.46 100.722 157.868 100.542C158.276 100.35 158.636 100.092 158.948 99.768C159.26 99.444 159.452 99.09 159.524 98.706ZM167.857 102.18C166.921 102.18 166.093 101.958 165.373 101.514C164.665 101.058 164.113 100.464 163.717 99.732C163.321 98.988 163.123 98.184 163.123 97.32C163.123 96.444 163.321 95.64 163.717 94.908C164.125 94.164 164.683 93.57 165.391 93.126C166.111 92.67 166.933 92.442 167.857 92.442C168.793 92.442 169.615 92.67 170.323 93.126C171.043 93.57 171.601 94.164 171.997 94.908C172.405 95.64 172.609 96.444 172.609 97.32C172.609 98.184 172.405 98.988 171.997 99.732C171.601 100.464 171.049 101.058 170.341 101.514C169.633 101.958 168.805 102.18 167.857 102.18ZM164.743 97.338C164.743 97.986 164.881 98.574 165.157 99.102C165.445 99.63 165.823 100.05 166.291 100.362C166.759 100.662 167.281 100.812 167.857 100.812C168.433 100.812 168.955 100.656 169.423 100.344C169.903 100.032 170.281 99.612 170.557 99.084C170.845 98.544 170.989 97.95 170.989 97.302C170.989 96.654 170.845 96.066 170.557 95.538C170.281 95.01 169.903 94.59 169.423 94.278C168.955 93.966 168.433 93.81 167.857 93.81C167.281 93.81 166.759 93.972 166.291 94.296C165.823 94.608 165.445 95.028 165.157 95.556C164.881 96.084 164.743 96.678 164.743 97.338ZM179.496 93.99C178.704 94.002 178.002 94.206 177.39 94.602C176.79 94.986 176.364 95.52 176.112 96.204V102H174.528V92.604H176.004V94.782C176.328 94.134 176.754 93.612 177.282 93.216C177.822 92.808 178.386 92.58 178.974 92.532C179.094 92.532 179.196 92.532 179.28 92.532C179.364 92.532 179.436 92.538 179.496 92.55V93.99ZM180.329 99.282C180.329 98.682 180.497 98.166 180.833 97.734C181.181 97.29 181.655 96.948 182.255 96.708C182.855 96.468 183.551 96.348 184.343 96.348C184.763 96.348 185.207 96.384 185.675 96.456C186.143 96.516 186.557 96.612 186.917 96.744V96.06C186.917 95.34 186.701 94.776 186.269 94.368C185.837 93.948 185.225 93.738 184.433 93.738C183.917 93.738 183.419 93.834 182.939 94.026C182.471 94.206 181.973 94.47 181.445 94.818L180.869 93.702C181.481 93.282 182.093 92.97 182.705 92.766C183.317 92.55 183.953 92.442 184.613 92.442C185.813 92.442 186.761 92.778 187.457 93.45C188.153 94.11 188.501 95.034 188.501 96.222V100.2C188.501 100.572 188.669 100.764 189.005 100.776V102C188.849 102.024 188.711 102.042 188.591 102.054C188.483 102.066 188.393 102.072 188.321 102.072C187.949 102.072 187.667 101.97 187.475 101.766C187.295 101.562 187.193 101.346 187.169 101.118L187.133 100.524C186.725 101.052 186.191 101.46 185.531 101.748C184.871 102.036 184.217 102.18 183.569 102.18C182.945 102.18 182.387 102.054 181.895 101.802C181.403 101.538 181.019 101.19 180.743 100.758C180.467 100.314 180.329 99.822 180.329 99.282ZM186.449 99.948C186.593 99.78 186.707 99.612 186.791 99.444C186.875 99.264 186.917 99.114 186.917 98.994V97.824C186.149 97.524 185.357 97.374 184.541 97.374C183.737 97.374 183.083 97.536 182.579 97.86C182.087 98.172 181.841 98.604 181.841 99.156C181.841 99.456 181.919 99.75 182.075 100.038C182.243 100.314 182.483 100.542 182.795 100.722C183.119 100.902 183.515 100.992 183.983 100.992C184.475 100.992 184.943 100.896 185.387 100.704C185.831 100.5 186.185 100.248 186.449 99.948ZM191.468 93.846H190.19V92.604H191.468V92.406C191.468 91.782 191.594 91.188 191.846 90.624C192.098 90.06 192.482 89.598 192.998 89.238C193.514 88.866 194.162 88.68 194.942 88.68C195.614 88.68 196.196 88.788 196.688 89.004C197.192 89.208 197.594 89.412 197.894 89.616L197.21 90.786C196.982 90.582 196.67 90.408 196.274 90.264C195.89 90.12 195.476 90.048 195.032 90.048C194.576 90.048 194.198 90.162 193.898 90.39C193.61 90.618 193.394 90.912 193.25 91.272C193.118 91.62 193.052 91.98 193.052 92.352V92.604H197.858V102H196.274V93.846H193.052V102H191.468V93.846ZM200.925 102V93.846H199.647V92.604H200.925V92.406C200.925 91.254 201.183 90.348 201.699 89.688C202.227 89.016 202.929 88.68 203.805 88.68C204.573 88.68 205.263 88.872 205.875 89.256L205.479 90.426C205.095 90.162 204.645 90.03 204.129 90.03C203.613 90.03 203.211 90.234 202.923 90.642C202.647 91.038 202.509 91.608 202.509 92.352V92.604H205.011V93.846H202.509V102H200.925ZM206.5 98.238V92.604H208.085V97.932C208.085 99.852 208.751 100.812 210.083 100.812C210.731 100.812 211.337 100.608 211.901 100.2C212.477 99.78 212.903 99.21 213.179 98.49V92.604H214.763V100.2C214.763 100.572 214.931 100.764 215.267 100.776V102C215.087 102.024 214.943 102.036 214.835 102.036C214.739 102.048 214.643 102.054 214.547 102.054C214.247 102.054 213.989 101.964 213.773 101.784C213.557 101.592 213.443 101.358 213.431 101.082L213.395 99.984C212.987 100.68 212.435 101.22 211.739 101.604C211.055 101.988 210.305 102.18 209.489 102.18C207.497 102.18 206.5 100.866 206.5 98.238Z" fill="#595959"/>
<path d="M131.488 83V77.32H133.048V81.64H135.624V83H131.488ZM136.168 83V77.32H137.728V83H136.168ZM140.267 80.208V83H138.707V77.32H139.923L142.203 80.208V77.32H143.763V83H142.523L140.267 80.208ZM148.786 81.64V83H144.738V77.32H148.714V78.68H146.298V79.48H148.362V80.744H146.298V81.64H148.786ZM151.308 83V77.32H152.868V83H151.308ZM153.847 83V77.32H156.031C156.661 77.32 157.186 77.448 157.607 77.704C158.034 77.9547 158.354 78.296 158.567 78.728C158.786 79.1547 158.895 79.6293 158.895 80.152C158.895 80.728 158.775 81.2293 158.535 81.656C158.301 82.0827 157.967 82.4133 157.535 82.648C157.109 82.8827 156.607 83 156.031 83H153.847ZM157.311 80.152C157.311 79.7093 157.197 79.3547 156.967 79.088C156.743 78.816 156.431 78.68 156.031 78.68H155.407V81.64H156.031C156.442 81.64 156.757 81.4987 156.975 81.216C157.199 80.9333 157.311 80.5787 157.311 80.152Z" fill="#595959"/>
</svg>
