<svg width="321" height="199" viewBox="0 0 321 199" fill="none" xmlns="http://www.w3.org/2000/svg">
<path d="M141.304 66V58.386L138.55 63.93H136.93L134.176 58.386V66H131.224V53.22H134.428L137.74 59.898L141.07 53.22H144.256V66H141.304ZM150.912 66V53.22H159.588V55.812H153.864V58.566H158.58V60.96H153.864V66H150.912ZM159.681 63.174C159.681 62.55 159.855 62.004 160.203 61.536C160.551 61.068 161.031 60.702 161.643 60.438C162.255 60.162 162.957 60.024 163.749 60.024C164.133 60.024 164.511 60.06 164.883 60.132C165.255 60.192 165.579 60.282 165.855 60.402V59.988C165.855 58.92 165.225 58.386 163.965 58.386C163.437 58.386 162.939 58.476 162.471 58.656C162.015 58.836 161.529 59.094 161.013 59.43L160.149 57.594C161.397 56.778 162.765 56.37 164.253 56.37C165.669 56.37 166.767 56.712 167.547 57.396C168.339 58.068 168.735 59.046 168.735 60.33V62.796C168.735 63.084 168.777 63.288 168.861 63.408C168.957 63.528 169.119 63.594 169.347 63.606V66C169.095 66.048 168.867 66.084 168.663 66.108C168.459 66.132 168.279 66.144 168.123 66.144C167.583 66.144 167.169 66.036 166.881 65.82C166.605 65.604 166.431 65.31 166.359 64.938L166.305 64.524C165.885 65.064 165.381 65.478 164.793 65.766C164.205 66.042 163.599 66.18 162.975 66.18C162.351 66.18 161.787 66.048 161.283 65.784C160.791 65.52 160.401 65.166 160.113 64.722C159.825 64.266 159.681 63.75 159.681 63.174ZM165.405 63.534C165.705 63.294 165.855 63.048 165.855 62.796V61.95C165.603 61.854 165.327 61.782 165.027 61.734C164.739 61.674 164.475 61.644 164.235 61.644C163.695 61.644 163.251 61.764 162.903 62.004C162.567 62.244 162.399 62.55 162.399 62.922C162.399 63.246 162.525 63.528 162.777 63.768C163.041 63.996 163.389 64.11 163.821 64.11C164.109 64.11 164.397 64.056 164.685 63.948C164.973 63.84 165.213 63.702 165.405 63.534ZM174.386 66.18C173.594 66.18 172.886 65.964 172.262 65.532C171.65 65.088 171.17 64.494 170.822 63.75C170.474 63.006 170.3 62.172 170.3 61.248C170.3 60.336 170.492 59.514 170.876 58.782C171.26 58.038 171.782 57.45 172.442 57.018C173.102 56.586 173.852 56.37 174.692 56.37C175.412 56.37 176.036 56.526 176.564 56.838C177.092 57.15 177.524 57.57 177.86 58.098V56.55H180.362V69.852H177.482V64.47C176.834 65.61 175.802 66.18 174.386 66.18ZM175.484 63.75C175.904 63.75 176.276 63.636 176.6 63.408C176.936 63.168 177.23 62.856 177.482 62.472V60.474C177.338 60.006 177.062 59.616 176.654 59.304C176.246 58.98 175.826 58.818 175.394 58.818C174.974 58.818 174.602 58.938 174.278 59.178C173.954 59.406 173.696 59.712 173.504 60.096C173.324 60.468 173.234 60.876 173.234 61.32C173.234 62.016 173.438 62.598 173.846 63.066C174.266 63.522 174.812 63.75 175.484 63.75ZM182.336 55.47V52.86H185.216V55.47H182.336ZM182.336 66V56.55H185.216V66H182.336ZM196.295 66H193.415V60.69C193.415 60.078 193.289 59.628 193.037 59.34C192.797 59.052 192.473 58.908 192.065 58.908C191.729 58.908 191.351 59.064 190.931 59.376C190.523 59.676 190.235 60.078 190.067 60.582V66H187.187V52.86H190.067V58.134C190.403 57.57 190.859 57.138 191.435 56.838C192.011 56.526 192.641 56.37 193.325 56.37C193.961 56.37 194.477 56.478 194.873 56.694C195.269 56.91 195.569 57.198 195.773 57.558C195.977 57.906 196.115 58.29 196.187 58.71C196.259 59.13 196.295 59.544 196.295 59.952V66ZM206.223 53.238H208.941L210.273 57.324L211.605 53.238H214.341L212.163 59.178L213.459 62.58L216.663 53.22H219.885L214.899 66H212.343L210.273 60.996L208.221 66H205.647L200.679 53.22H203.883L207.105 62.58L208.365 59.178L206.223 53.238Z" fill="#618D2F"/>
<path d="M145.944 102H144.36V96.744C144.36 95.76 144.198 95.034 143.874 94.566C143.562 94.098 143.094 93.864 142.47 93.864C141.834 93.864 141.258 94.098 140.742 94.566C140.226 95.022 139.86 95.616 139.644 96.348V102H138.06V96.744C138.06 95.748 137.904 95.022 137.592 94.566C137.28 94.098 136.812 93.864 136.188 93.864C135.564 93.864 134.988 94.092 134.46 94.548C133.944 94.992 133.578 95.586 133.362 96.33V102H131.778V92.604H133.218V94.62C133.602 93.924 134.1 93.39 134.712 93.018C135.324 92.634 136.014 92.442 136.782 92.442C137.562 92.442 138.186 92.658 138.654 93.09C139.122 93.51 139.41 94.056 139.518 94.728C140.358 93.204 141.552 92.442 143.1 92.442C143.82 92.442 144.384 92.616 144.792 92.964C145.212 93.3 145.506 93.768 145.674 94.368C145.854 94.956 145.944 95.628 145.944 96.384V102ZM148.823 102V93.846H147.545V92.604H148.823V92.406C148.823 91.254 149.081 90.348 149.597 89.688C150.125 89.016 150.827 88.68 151.703 88.68C152.471 88.68 153.161 88.872 153.773 89.256L153.377 90.426C152.993 90.162 152.543 90.03 152.027 90.03C151.511 90.03 151.109 90.234 150.821 90.642C150.545 91.038 150.407 91.608 150.407 92.352V92.604H152.909V93.846H150.407V102H148.823ZM153.751 99.282C153.751 98.682 153.919 98.166 154.255 97.734C154.603 97.29 155.077 96.948 155.677 96.708C156.277 96.468 156.973 96.348 157.765 96.348C158.185 96.348 158.629 96.384 159.097 96.456C159.565 96.516 159.979 96.612 160.339 96.744V96.06C160.339 95.34 160.123 94.776 159.691 94.368C159.259 93.948 158.647 93.738 157.855 93.738C157.339 93.738 156.841 93.834 156.361 94.026C155.893 94.206 155.395 94.47 154.867 94.818L154.291 93.702C154.903 93.282 155.515 92.97 156.127 92.766C156.739 92.55 157.375 92.442 158.035 92.442C159.235 92.442 160.183 92.778 160.879 93.45C161.575 94.11 161.923 95.034 161.923 96.222V100.2C161.923 100.572 162.091 100.764 162.427 100.776V102C162.271 102.024 162.133 102.042 162.013 102.054C161.905 102.066 161.815 102.072 161.743 102.072C161.371 102.072 161.089 101.97 160.897 101.766C160.717 101.562 160.615 101.346 160.591 101.118L160.555 100.524C160.147 101.052 159.613 101.46 158.953 101.748C158.293 102.036 157.639 102.18 156.991 102.18C156.367 102.18 155.809 102.054 155.317 101.802C154.825 101.538 154.441 101.19 154.165 100.758C153.889 100.314 153.751 99.822 153.751 99.282ZM159.871 99.948C160.015 99.78 160.129 99.612 160.213 99.444C160.297 99.264 160.339 99.114 160.339 98.994V97.824C159.571 97.524 158.779 97.374 157.963 97.374C157.159 97.374 156.505 97.536 156.001 97.86C155.509 98.172 155.263 98.604 155.263 99.156C155.263 99.456 155.341 99.75 155.497 100.038C155.665 100.314 155.905 100.542 156.217 100.722C156.541 100.902 156.937 100.992 157.405 100.992C157.897 100.992 158.365 100.896 158.809 100.704C159.253 100.5 159.607 100.248 159.871 99.948ZM168.056 102.18C167.228 102.18 166.496 101.952 165.86 101.496C165.224 101.04 164.726 100.446 164.366 99.714C164.018 98.97 163.844 98.166 163.844 97.302C163.844 96.414 164.042 95.604 164.438 94.872C164.834 94.14 165.368 93.552 166.04 93.108C166.712 92.664 167.462 92.442 168.29 92.442C169.022 92.442 169.688 92.628 170.288 93C170.888 93.36 171.362 93.822 171.71 94.386V92.604H173.114V105.834H171.53V100.146C170.666 101.502 169.508 102.18 168.056 102.18ZM168.596 100.812C169.268 100.812 169.85 100.614 170.342 100.218C170.834 99.822 171.23 99.348 171.53 98.796V96.096C171.458 95.688 171.266 95.31 170.954 94.962C170.654 94.614 170.294 94.338 169.874 94.134C169.466 93.918 169.052 93.81 168.632 93.81C168.02 93.81 167.474 93.984 166.994 94.332C166.514 94.668 166.136 95.106 165.86 95.646C165.596 96.174 165.464 96.738 165.464 97.338C165.464 97.962 165.596 98.538 165.86 99.066C166.136 99.594 166.508 100.02 166.976 100.344C167.444 100.656 167.984 100.812 168.596 100.812ZM175.671 90.84V88.86H177.255V90.84H175.671ZM175.671 102V92.604H177.255V102H175.671ZM187.973 102H186.389V96.744C186.389 95.784 186.215 95.064 185.867 94.584C185.531 94.104 185.045 93.864 184.409 93.864C184.001 93.864 183.587 93.972 183.167 94.188C182.759 94.404 182.399 94.698 182.087 95.07C181.775 95.43 181.547 95.85 181.403 96.33V102H179.819V88.86H181.403V94.62C181.775 93.948 182.279 93.42 182.915 93.036C183.563 92.64 184.259 92.442 185.003 92.442C185.747 92.442 186.335 92.616 186.767 92.964C187.199 93.312 187.505 93.786 187.685 94.386C187.877 94.974 187.973 95.64 187.973 96.384V102ZM202.015 92.604H203.545L199.549 102H198.163L196.345 97.572L194.545 102H193.159L189.163 92.604H190.675L193.915 100.434L195.427 96.582L193.843 92.622H195.229L196.345 95.61L197.461 92.622H198.847L197.281 96.582L198.793 100.434L202.015 92.604Z" fill="#595959"/>
<path d="M131.488 83V77.32H133.048V81.64H135.624V83H131.488ZM136.168 83V77.32H137.728V83H136.168ZM140.267 80.208V83H138.707V77.32H139.923L142.203 80.208V77.32H143.763V83H142.523L140.267 80.208ZM148.786 81.64V83H144.738V77.32H148.714V78.68H146.298V79.48H148.362V80.744H146.298V81.64H148.786ZM151.308 83V77.32H152.868V83H151.308ZM153.847 83V77.32H156.031C156.661 77.32 157.186 77.448 157.607 77.704C158.034 77.9547 158.354 78.296 158.567 78.728C158.786 79.1547 158.895 79.6293 158.895 80.152C158.895 80.728 158.775 81.2293 158.535 81.656C158.301 82.0827 157.967 82.4133 157.535 82.648C157.109 82.8827 156.607 83 156.031 83H153.847ZM157.311 80.152C157.311 79.7093 157.197 79.3547 156.967 79.088C156.743 78.816 156.431 78.68 156.031 78.68H155.407V81.64H156.031C156.442 81.64 156.757 81.4987 156.975 81.216C157.199 80.9333 157.311 80.5787 157.311 80.152Z" fill="#595959"/>
</svg>
